<?xml version="1.0" encoding="utf-8"?>
<!-- Generator: Adobe Illustrator 17.1.0, SVG Export Plug-In . SVG Version: 6.00 Build 0)  -->
<!DOCTYPE svg PUBLIC "-//W3C//DTD SVG 1.1//EN" "http://www.w3.org/Graphics/SVG/1.1/DTD/svg11.dtd">
<svg version="1.1" id="Calque_1" xmlns="http://www.w3.org/2000/svg" xmlns:xlink="http://www.w3.org/1999/xlink" x="0px" y="0px"
	 viewBox="0 0 595.28 841.89" enable-background="new 0 0 595.28 841.89" xml:space="preserve">
<g>
	<path fill="#FFFFFF" d="M2.667,468.283c0-3.51,0-7.019,0-10.529c5.644,4.302,12.064,7.954,16.784,13.028
		c13.322,14.32,20.073,31.926,25.891,49.889c10.766,33.239,12.008,67.842,16.535,101.987c3.78,28.511,10.246,56.41,24.864,81.979
		c9.966,17.433,23.275,31.515,43.986,37.905c1.978,0.61,4.25,2.448,4.998,4.237c6.869,16.423,11.146,33.297,10.011,51.217
		c-1.054,16.635-8.01,30.779-18.682,44.247c4.563-0.987,8.986-2.355,11.518-5.224c15.431-17.485,21.552-37.893,18.53-60.409
		c-1.491-11.108-4.533-22.028-6.935-33.318c27.822-8.131,44.128-26.514,50.795-52.909c4.349-17.216,2.237-34.307-3.078-51.026
		c-11.356-35.726-33.951-65.132-58.5-93.533c-15.414-17.833-30.847-35.77-44.547-54.778c-10.251-14.222-17.751-30.228-26.598-45.653
		c4.565-2.552,7.069-3.952,9.971-5.574c2.469,6.403,4.477,12.196,6.91,17.823c12.895,29.834,32.447,55.627,54.513,79.818
		c24.87,27.266,48.642,55.319,63.497,88.856c5.542,12.511,9.962,25.889,12.059,39.271c5.78,36.882-12.686,68.647-54.858,80.135
		c13.269,33.191,18.263,65.906-8.538,96.653c4.59-1.032,8.846-2.207,11.275-4.877c11.601-12.754,19.143-27.753,18.846-44.591
		c-0.29-16.4-3.367-32.756-5.309-49.916c30.978-9.713,47.366-32.313,51.06-63.706c2.126-18.065-2.402-35.45-9.315-52.188
		c-13.919-33.697-36.685-61.932-61.328-89.064c-26.644-29.335-50.404-60.363-64.469-97.369c-3.766-9.908-1.276-16.33,6.61-23.449
		c3.023,28.807,14.644,53.86,31.109,76.701c12.837,17.807,27.025,34.804,41.494,51.473c24.575,28.311,47.791,57.327,61.106,92.264
		c6.014,15.781,10.274,31.985,7.807,48.91c-4.516,30.982-23.504,50.273-52.906,58.419c2.621,17.252,6.221,33.78,7.366,50.46
		c1.202,17.513-7.283,32.52-19.419,46.02c5.908,0,10.662,0,13.077,0c3.679-7.397,6.712-13.494,10.8-21.714
		c1.478,9.021,2.499,15.257,3.547,21.652c4.715,0,8.762,0,13.428,0c-9.922-35.722-4.963-66.753,27.815-90.284
		c-17.451,4.404-27.4,16.641-37.008,32.104c-0.715-7.48-3.793-14.802-1.232-17.821c6.291-7.412,15.181-12.841,23.025-19.068
		c-0.104-0.339-0.208-0.678-0.312-1.017c-8.41,3.777-16.819,7.554-25.632,11.512c-0.617-2.173-1.287-4.533-1.923-6.773
		c2.528-1.439,4.463-2.54,7.436-4.233c-3.945,0-6.661,0-11.985,0c3.341-2.089,4.392-3.019,5.637-3.485
		c32.461-12.154,50.022-36.578,50.293-69.435c0.207-25.033-8.858-47.434-20.869-69.103c-17.092-30.836-42.241-55.963-64.872-82.911
		c-24.111-28.711-45.494-59.069-53.689-95.803c-6.993-31.347-0.517-58.64,28.399-78.492c0.712-0.489,0.913-1.649,2.381-4.477
		c-17.496,5.577-26.998,16.818-35.607,29.386c-9.409-20.844,9.462-24.149,19.646-33.656c-8.135,3.511-16.27,7.021-25.961,11.204
		c0.46-3.936,0.823-7.035,1.216-10.402c0.95,0.16,0.08,0.074-0.751-0.142c-1.018-0.265-2.005-0.639-4.552-1.471
		c2.772-1.127,4.04-1.741,5.374-2.171c18.427-5.938,31.815-17.29,40.631-33.681c12.945-24.069,10.937-48.736,2.51-73.278
		c-11.854-34.524-34.665-62.764-58.231-90.76c-19.357-22.996-38.027-46.698-54.7-71.479C20.379,45.997,11.325,24.023,11.921-0.257
		c4.319,0,8.637,0,12.956,0c1.049,10.098,0.879,20.475,3.369,30.242c8.13,31.88,26.872,58.585,47.546,84.267
		c20.886,25.945,41.633,51.994,62.103,78.235c12.611,16.165,20.558,34.587,25.309,54.029c9.304,38.075-2.331,71.03-40.515,88.084
		c-0.549,0.245-0.955,0.78-2.613,2.182c18.834-4.043,32.728-12.494,42.826-26.23c21.369-29.068,17.182-59.907,6.599-91.751
		c4.441,1.718,9.705,3.328,11.049,6.454c10.212,23.741,15.592,48.073,4.965,73.117c-6.971,16.428-20.063,27.581-36.106,36.327
		c3.125-0.074,6.012-0.57,8.642-1.637c13.69-5.556,24.599-14.191,32.376-26.365c16.342-25.582,14.718-52.261,5.445-79.362
		c-0.622-1.817-2.834-4.177-4.616-4.446c-19.818-2.993-32.035-15.282-41.602-30.513c-17.887-28.477-24.528-60.267-28.385-92.559
		c-4.016-33.623-6.26-67.457-16.805-100.074c3.702,0,7.403,0,11.105,0c3.157,14.527,7.062,28.95,9.311,43.603
		c4.202,27.374,6.553,55.022,11.346,82.292c4.413,25.11,12.709,49.306,29.077,70.106c9.917,12.602,21.86,22.871,39.266,25.24
		l-0.355-0.291c1.75,4.675,3.608,9.316,5.232,14.03c5.52,16.029,8.399,32.456,5.278,49.192c-4.89,26.228-22.236,42.812-47.47,52.818
		l0.186-0.169c-1.293,0.363-2.586,0.726-4.954,1.39c21.574,8.201,33.316,23.974,42.069,42.185
		c15.7,32.665,20.748,67.599,23.919,102.911c3.093,34.454,8.425,68.458,24,100.202c8.482,17.288,19.385,33.675,38.59,40.773
		c12.718,4.7,16.899,12.675,19.574,23.342c0.497,1.983,1.051,3.953,1.595,5.925c10.212,37.048-2.275,72.042-40.497,88.738
		c-0.342,0.149-0.47,0.737-1.447,2.376c5.365-1.779,9.82-2.815,13.859-4.667c27.302-12.519,41.644-34.006,42.218-61.997
		c0.34-16.581-4.525-33.258-7.05-49.891l-0.353,0.346c4.068-1.173,8.366-1.884,12.166-3.592
		c29.064-13.065,45.817-46.044,40.977-78.558c-3.736-25.1-13.052-48.296-28.148-68.734c-18.155-24.579-38.41-47.768-57.87-71.476
		c-18.957-23.095-36.042-47.204-47.043-75.483c2.964-1.748,5.643-3.327,8.017-4.727c5.415,11.9,9.886,23.088,15.477,33.749
		c14.802,28.226,36.179,52.02,57.464,75.925c26.145,29.363,49.416,60.514,61.02,98.049c6.689,21.636,7.855,43.218-3.737,63.833
		c-10.083,17.931-26.177,28.858-46.877,33.632c2.807,9.882,6.005,19.296,8.124,28.923c8.388,38.106-9.715,70.595-46.037,83.375
		c-1.286,0.615-2.609,1.192-3.681,1.66c42.165,20.006,49.086,59.454,59.816,96.763c4.429,0,8.61,0,13.788,0
		c-2.596-9.085-4.63-17.604-7.501-25.861c-2.978-8.567-6.137-17.178-10.379-25.219c-4.102-7.774-13.737-14.877-13.676-22.221
		c0.095-11.355-18.59-5.248-14.456-14.472c-8.589-3.862-16.365-7.359-24.141-10.855c4.453-0.621,9.193-0.514,13.312-1.979
		c30.788-10.946,50.855-44.45,46.075-77.22c-1.671-11.458-4.567-22.756-6.925-34.231c40.899-18.442,56.735-42.079,51.601-83.491
		c-2.037-16.433-8.578-32.824-15.702-48.133c-14.721-31.634-39.036-57.214-62.218-83.43c-23.875-27-44.373-55.938-56.871-89.584
		c-3.603-9.699,0.475-15.449,7.248-22.312c2.254,24.856,10.419,47.112,24.411,66.462c19.295,26.683,40.721,51.995,61.56,77.656
		c22.495,27.7,42.783,56.497,52.338,90.829c12.612,45.318-8.037,82.253-52.045,93.474c17.751,65.336,10.76,87.532-36.757,112.81
		c4.113-0.467,6.679-0.758,9.484-1.076c13.529,34.75,36.258,63.667,60.905,91.593c6.553,7.425,13.289,8.814,22.487,7.198
		c-13.593-16.672-27.852-32.376-39.924-49.469c-12.058-17.073-21.926-35.535-33.052-53.88c4.807-2.921,7.463-4.534,10.712-6.509
		c12.528,40.038,37.48,72.052,64.795,102.873c6.549,7.39,13.27,8.74,23.052,6.622c-5.447-6.082-10.469-11.527-15.306-17.116
		c-24.335-28.121-46.616-57.422-58.518-92.605c-3.908-11.553-3.298-13.526,7.132-23.314c1.377,21.411,7.409,41.516,19.129,59.09
		c15.422,23.125,33.338,44.741,49.568,67.401c5.976,8.343,13.243,8.237,22.745,6.698c-7.588-8.649-14.602-16.382-21.315-24.344
		c-24.197-28.697-46.008-58.822-55.266-95.151c-8.208-32.208-2.909-61.05,27.389-82.064c0.726-0.503,0.967-1.635,2.705-4.755
		c-18.685,6.602-28.763,18.477-37.123,32.351c-5.186-12.251-2.937-21.41,9.401-27.385c4.266-2.066,8.21-4.731,12.3-7.122
		c-0.399-0.651-0.799-1.301-1.198-1.952c-8.378,3.837-16.755,7.674-27.843,12.751c1.811-5.277,2.997-8.731,4.062-11.834
		c-0.953-0.102-3.268-0.349-6.669-0.713c1.619-1.646,2.089-2.583,2.775-2.756c37.328-9.426,55.83-49.402,51.056-81.706
		c-4.126-27.925-15.507-52.987-32.379-75.53c-16.733-22.358-35.641-43.246-53.405-64.919c-22.798-27.813-43.368-56.839-52.36-91.725
		c-8.579-33.284-2.118-62.024,28.63-83.215c0.247-0.17,0.031-0.945,0.031-3.31c-16.039,5.594-25.832,16.749-34.104,29.041
		c-5.825-11.326-2.603-19.186,8.004-24.641c3.987-2.05,7.744-4.501,11.606-6.769c-0.362-0.609-0.725-1.217-1.087-1.826
		c-7.691,3.396-15.382,6.791-24.975,11.027c0.766-4.096,1.385-7.409,1.978-10.581c-0.323-0.051-2.365-0.374-4.853-0.767
		c0.951-1.256,1.199-1.977,1.626-2.091c39.879-10.655,56.931-51.465,51.259-84.902c-5.286-31.167-20.066-58.157-39.321-83.099
		c-14.168-18.352-29.748-35.724-44.699-53.533c2.468,0,4.936,0,7.403,0c22.138,25.76,45.688,50.377,63.464,79.433
		c10.922,17.853,20.461,35.988,24.879,56.081c6.467,29.413,1.08,55.913-25.242,75.607c-5.877,4.397-12.86,7.466-19.719,11.365
		c1.541-0.091,2.783,0.01,3.93-0.256c33.139-7.7,55.989-36.917,54.592-72.203c-0.597-15.078-4.645-30.034-7.097-44.881
		c6.369,0.228,10.673,3.827,12.453,10.629c2.07,7.91,4.993,15.643,6.656,23.62c7.957,38.164-11.823,71.93-48.209,82.919
		c-0.043,1.044-0.472,2.838-0.152,2.967c15.55,6.299,25.644,17.841,33.584,31.382c15.994,27.277,21.858,57.282,26.794,89.588
		c-15.588-22.857-13.037-49.396-25.086-73.694c-1.16,5.925-2.001,9.342-2.453,12.805c-0.378,2.89-0.372,5.833-0.413,8.753
		c-0.425,29.775,12.094,55.557,27.28,80.632c2.946,4.864,4.058,10.726,6.017,16.128c-0.809,0.274-1.618,0.547-2.426,0.821
		c-16.159-21.28-30.31-43.591-38.455-68.962c-6.808-21.205-8.623-42.292,0.874-63.401c1.099-2.443-0.772-6.087-1.617-11.373
		c-2.752,3.464-3.578,4.333-4.204,5.316c-15.671,24.596-15.137,50.518-6.523,76.892c10.389,31.811,29.952,58.643,51.533,84.382
		c3.246,3.871,5.05,8.828,7.522,13.283c-0.814,0.425-1.629,0.851-2.443,1.276c-6.087-6.92-12.354-13.707-18.23-20.785
		c-22.973-27.674-43.722-56.583-53.399-91.221c-7.093-25.386-6.243-49.712,11.76-71.534c1.649-1.999,1.765-5.135,2.593-7.743
		c-2.719,1.303-6.12,2.01-8.051,4c-18.037,18.579-24.509,40.699-21.319,65.517c3.352,26.083,14.033,49.754,29.607,70.986
		c15.62,21.295,33.349,41.198,50.128,61.73c25.347,31.018,49.515,62.64,59.221,101.853c9.391,37.941-4.924,67.96-40.882,85.46
		c-0.86,0.419-1.557,1.139-2.331,1.719c8.043-1.448,15.669-3.799,22.321-7.659c26.122-15.157,39.765-46.562,33.936-77.841
		c-1.945-10.439-5.019-20.689-7.61-31.16c3.583,0.688,6.835,1.312,10.086,1.936c3.017,8.856,6.644,17.572,8.943,26.592
		c9.028,35.422-3.129,66.134-32.204,82.444c-3.245,1.82-6.626,3.422-9.944,5.125c15.476-1.887,27.944-8.86,37.668-19.947
		c20.056-22.868,21.866-49.089,15.844-76.981c-2.352-10.895-6.915-18.151-19.86-17.672c-22.648-11.956-34.347-31.778-42.835-53.832
		c-11.495-29.867-15.643-61.061-18.466-92.506c-3.065-34.139-9.024-67.653-24.228-99.172c-1.472-3.052-0.646-7.033-1.672-10.366
		c-0.779-2.531-2.566-6.525-4.321-6.734c-6.835-0.817-9.505-3.412-8.579-9.394c0.207-1.338-2.81-4.549-3.373-4.356
		c-8.601,2.95-9.303-1.961-9.229-6.084c-8.972-3.257-17.34-6.294-25.708-9.331c21.274-0.644,36.408-11.487,47.721-27.275
		c18.588-25.941,16.736-53.904,6.99-82.185c-0.572-1.659-3.173-3.457-5.107-3.805c-18.05-3.248-30.179-14.109-39.355-28.099
		c-16.196-24.695-23.744-52.203-27.53-80.786c3.085,0,6.17,0,9.254,0c0.604,1.925,1.379,3.818,1.785,5.779
		c5.397,26.083,12.41,51.662,28.92,73.739c10.316,13.793,22.878,25.086,41.678,27.64l-0.346-0.27
		c2.842,9.511,6.233,18.91,8.423,28.553c6.807,29.97,0.821,56.365-25.742,76.205c-5.244,3.917-11.424,6.705-17.351,10.116
		c15.859-1.858,31.623-11.031,41.731-24.603c20.936-28.109,17.963-58.198,7.121-89.186c16.517-5.416,30.384-13.541,39.846-27.385
		c17.551-25.679,17.275-52.725,7.197-80.589c3.702,0,7.403,0,11.105,0c2.223,7.279,4.868,14.47,6.599,21.853
		c8.125,34.663-4.86,65.145-34.458,80.649c-5.994,3.14-12.668,5.111-19.02,7.617c20.041,59.863,8.089,94.264-38.926,112.293
		c-1.061,0.439-2.15,0.854-4.151,1.616c23.041,8.508,34.672,26.043,43.657,45.643c11.9,25.958,17.363,53.467,20.309,81.406
		c3.429,32.522,5.918,65.164,16.84,96.467c7.624,21.851,17.598,42.467,37.579,56.987c3.884,2.822,8.501,4.738,14.915,8.238
		c-1.315-3.608-1.345-4.668-1.909-5.099c-18.046-13.76-27.267-32.654-34.547-52.77c-11.815-32.644-14.224-66.741-18.067-100.679
		c-3.826-33.792-10.613-66.935-29.47-96.701c-3.923-6.193-7.543-12.559-11.559-19.273c-6.535,1.994-9.352-1.835-9.422-6.436
		c-8.894-3.498-16.679-6.559-24.463-9.62c4.194-0.615,8.634-0.59,12.541-1.947c28.228-9.799,42.834-30.111,47.57-57.343
		c3.267-18.785-1.029-36.958-7.496-55.012c31.739-9.521,49.376-30.626,52.753-60.458c1.752-15.481-2.776-31.6-4.466-47.431
		c3.702,0,7.403,0,11.105,0c1.539,5.894,3.081,11.788,4.617,17.683c11.572,44.409-7.787,78.402-52.827,92.141
		c8.006,20.7,14.021,41.761,8.398,64.006c-5.779,22.859-21.196,38.122-41.577,46.648c2.185,1.974,5.175,3.691,6.694,6.206
		c10.529,17.427,19.319,35.976,31.43,52.325c15.902,21.466,34.733,40.956,51.597,61.811c22.654,28.015,41.571,57.944,48.225,93.455
		c6.495,34.664-9.506,64.949-42.064,78.549c-3.823,1.597-9.65,1.64-13.456,0.051c-20.618-8.608-31.158-25.812-39.444-44.377
		c-15.472-34.667-19.226-71.583-22.769-108.57c-2.99-31.217-9.189-61.782-23.003-90.612c-1.593-3.325-1.834-7.513-1.655-11.256
		c0.261-5.454-2.502-7.451-10.718-4.35c-0.593-4.776-0.795-9.047-1.816-13.133c-0.336-1.346-3.308-3.449-4.194-3.114
		c-9.278,3.51-9.115-2.505-9.165-6.66c-8.365-2.352-15.869-4.461-23.372-6.571c19.512,13.017,30.204,25.667,40.417,50.556
		c13.446,32.767,17.503,67.249,20.708,101.93c2.858,30.918,8.422,61.349,21.984,89.937c8.626,18.183,19.432,35.683,39.695,43.129
		c12.761,4.689,17.01,12.577,19.718,23.259c1.006,3.97,2.139,7.914,3.016,11.909c7.1,32.344-4.633,61.466-31.281,77.413
		c-4.626,2.768-9.56,5.073-14.346,7.596c-1.405,0.203-2.816,0.402-6.104,0.865c20.329,6.874,32.026,20.212,40.556,36.177
		c4.834,9.046,8.693,18.647,12.085,28.284c10.606,30.13,13.062,61.587,16.549,92.916c2.014,18.098,5.724,36.026,8.618,53.707
		c6.049,0,9.984,0,12.952,0c-3.017-24.804-5.993-49.354-8.992-73.901c-3.975-32.536-9.579-64.667-25.069-94.49
		c-1.131-2.177,0.456-5.501-0.264-8.024c-0.725-2.544-2.534-6.61-4.244-6.789c-7.426-0.78-9.055-2.367-8.396-9.649
		c0.126-1.391-3.01-4.436-3.352-4.274c-9.949,4.714-8.585-3.053-9.217-5.398c-9.463-3.605-17.447-6.645-25.43-9.686
		c5.314-1.287,10.924-1.926,15.895-3.966c30.474-12.507,48.47-46.149,42.766-80.013c-1.727-10.254-4.475-20.354-6.269-28.355
		c11.239-7.506,22.892-12.958,31.286-21.343c23.005-22.98,25.208-51.064,17.291-80.324c-9.727-35.95-31.7-65.495-55.974-93.766
		c-14.59-16.993-29.848-33.592-42.921-51.597c-12.095-16.658-21.681-34.953-32.714-53.09c5.016-2.818,7.68-4.314,10.487-5.891
		c3.116,7.776,5.589,14.668,8.601,21.341c14.127,31.298,35.902,57.716,59.103,83.268c25.641,28.239,48.86,58.002,62.374,93.533
		c6.781,17.827,10.882,36.092,6.569,54.993c-6.397,28.036-25.41,44.917-54.338,52.703c8.2,21.064,14.022,42.245,8.286,64.489
		c-5.835,22.627-21.319,37.781-43.303,47.566c18.034-3.032,32.173-11.807,42.356-25.762c20.383-27.931,16.861-57.858,6.591-87.846
		c38.689-16.325,57.052-42.169,53.139-78.751c-1.709-15.974-6.824-32.108-13.298-47.036c-13.877-32-37.256-58.253-60.735-84.322
		c-25.121-27.893-47.117-57.645-60.627-92.538c-3.784-9.773-2.382-16.891,6.174-24.085c0.822,4.926,1.348,9.221,2.272,13.437
		c6.596,30.106,22.074,56.253,41.349,80.387c15.993,20.025,33.58,38.902,49.707,58.836c20.557,25.409,37.794,52.629,45.828,84.237
		c11.244,44.236-8.669,78.812-52.781,91.267c17.043,45.364,17.607,86.259-36.515,112.701c4.167-0.52,6.727-0.84,9.717-1.213
		c19.003,53.178,62.769,89.687,96.637,134.386c1.562-12.306,0.463-21.643-7.885-30.939c-18.153-20.216-35.665-41.079-51.69-62.836
		c-10.406-14.127-17.726-30.296-26.403-45.505c4.023-2.543,6.038-3.861,8.109-5.094c0.485-0.289,1.159-0.293,2.132-0.518
		c14.049,44.269,43.201,79.419,75.67,113.721c2.266-11.498-0.644-19.528-7.885-27.689c-22.707-25.596-41.63-53.461-53.728-85.294
		c-3.952-10.399-1.183-17.595,6.587-25.381c4.363,43.3,27.381,77.206,55.113,111.054c1.297-11.939,0.704-20.82-6.154-29.76
		c-14.91-19.439-26.555-40.735-32.991-64.201c-9.316-33.967-3.994-63.808,27.814-85.886c0.278-0.193,0.097-0.979,0.232-3.039
		c-17.304,5.419-26.997,17.581-35.564,31.226c-10.149-21.335,9.408-25.789,20.235-35.941c-8.419,3.781-16.837,7.562-25.201,11.318
		c-5.624-7.337,2.001-8.473,6.338-11.486c-3.912,0.362-7.179,0.665-10.446,0.967c1.122-2.698,2.617-3.439,4.18-4.014
		c31.385-11.564,46.424-34.318,48.764-65.199c1.895-25.014-6.885-47.719-18.664-69.554c-16.298-30.212-39.826-55.398-62.431-81.298
		c-24.48-28.05-46.046-57.95-56.248-93.711c-9.734-34.12-4.777-64.388,27.466-86.739c0.257-0.178,0.032-0.983,0.032-2.997
		c-16.174,4.925-25.416,16.373-34.888,29.94c-0.1-8.247-5.947-15.195,2.268-20.871c5.927-4.095,11.993-8.007,17.998-12
		c-0.287-0.521-0.575-1.042-0.862-1.563c-7.907,3.48-15.814,6.96-26.124,11.498c1.916-5.185,3.181-8.609,4.375-11.84
		c-1.157,0-3.348,0-5.538,0c21.772-7.741,37.253-21.047,46.38-40.831c10.477-22.708,8.075-45.599,0.507-68.478
		c3.702,0,7.403,0,11.105,0c2.083,7.292,4.461,14.52,6.198,21.885c8.849,37.51-7.675,70.931-41.721,83.984
		c-0.821,0.315-1.443,1.098-3.877,3.022c5.504-1.528,8.772-2.254,11.905-3.334c32.566-11.221,52.478-45.332,47.004-80.706
		c-1.288-8.323-3.12-16.569-4.702-24.851c3.085,0,6.17,0,9.254,0c2.308,6.931,5.294,13.731,6.807,20.815
		c6.529,30.577,0.82,57.566-27.02,77.397c-4.298,3.061-9.187,5.377-13.802,8.038c20.838-3.542,35.387-14.969,45.136-32.255
		c13.588-24.091,11.198-48.938,3.686-73.995c3.702,0,7.403,0,11.105,0c1.508,5.323,3.165,10.612,4.498,15.974
		c6.924,27.837,5.342,54.135-17.587,75.495c-6.69,6.232-15.258,10.653-22.965,15.904c10.202-3.003,20.318-6.736,28.397-12.879
		c27.002-20.53,34.957-59.005,20.612-94.494c3.702,0,7.403,0,11.105,0c18.77,49.126,10.137,76.184-34.013,106.614
		c0.583,0.143,1.19,0.443,1.748,0.376c1.201-0.145,2.417-0.371,3.557-0.752c26.169-8.74,40.695-27.109,47.18-51.862
		c4.828-18.43,0.827-36.446-3.665-54.376c3.702,0,7.403,0,11.105,0c0,281.358,0,562.716,0,844.075
		c-195.266,0-390.532,0.007-585.798-0.073c-2.777-0.001-5.553-1.097-8.329-1.682c4.165-1.831,10.019-2.604,12.171-5.695
		c6.007-8.624,12.529-17.707,15.199-27.502c10.76-39.482-5.19-73.317-27.37-105.435c0-4.095,0-8.189,0-12.284
		c15.949,19.111,28.406,40.12,36.785,63.127c6.167,16.935,10.808,34.575,5.541,52.307c-3.654,12.301-10.278,23.809-16.174,37.011
		c4.248-2.861,9.277-4.893,12.234-8.466c15.51-18.742,20.125-40.371,16.226-63.551c-6.62-39.355-28.641-71.411-54.612-101.485
		c0-2.925,0-5.849,0-8.774c25.477,26.516,46.942,55.613,60.179,89.375c12.374,31.562,14.9,62.714-10.434,91.413
		c4.163-0.741,9.019-1.504,10.738-4.12c6.281-9.558,13.351-19.2,16.773-29.784c7.743-23.95,2.18-47.415-7.593-69.954
		c-15.941-36.764-42.118-66.967-69.663-96.233c0-2.925,0-5.849,0-8.774c10.421,11.467,21.072,22.755,31.214,34.44
		c20.222,23.299,38.144,48.089,50.817,75.893c8.891,19.506,15.457,39.995,10.2,61.259c-3.193,12.915-10.244,24.972-15.892,38.185
		c3.066-1.793,7.506-3.177,10.034-6.065c16.056-18.341,21.803-39.717,18.182-63.09c-1.717-11.085-5.13-21.933-7.774-32.889
		c4.988,1.438,10.599,3.769,11.836,7.429c4.108,12.151,7.917,24.638,9.492,37.259c2.617,20.964-4.316,39.747-18.559,56.706
		c5.189-1.593,10.23-3.57,13.176-7.114c17.94-21.574,20.416-46.245,14.88-72.289c-2.134-10.039-4.027-20.214-18.281-20.775
		c-1.715-0.068-3.433-1.228-5.058-2.046c-16.995-8.556-26.696-23.03-34.312-38.917c-15.534-32.401-20.503-67.064-23.704-102.091
		c-3.28-35.901-8.761-71.327-25.737-104.233c-1.138-2.206-0.028-5.371-0.426-8.028c-0.367-2.446-0.997-5.019-2.327-7.058
		c-0.331-0.507-3.808,0.829-6.626,1.508c-1.629-3.098-3.601-6.226-4.901-9.587c-0.65-1.679-0.071-3.786-0.048-5.7
		C6.79,466.786,4.728,467.535,2.667,468.283z M242.005,742.841c13.858,1.543,24.56-5.24,33.865-13.218
		c26.032-22.317,30.843-50.587,23.564-81.804c-2.254-9.664-3.273-19.495-17.797-20.157c-4.906-0.224-10.752-3.905-14.144-7.654
		c-8.543-9.441-17.564-19.027-23.472-29.973c-16.403-30.388-21.621-63.73-24.762-97.302c-3.218-34.402-7.513-68.515-21.134-100.961
		c-2.907-6.924-9.566-13.156-5.418-21.91c0.486-1.027-2.004-3.322-3.137-5.062c-1.959,0.978-3.58,1.787-7.429,3.709
		c-0.82-5.429-1.063-9.503-2.201-13.338c-0.441-1.484-3.307-3.711-4.394-3.41c-8.34,2.308-9.383-1.91-8.855-6.719
		c-9.408-2.823-18.528-5.559-27.648-8.296c41.078,16.491,58.971,83.034,58.404,121.164c-6.386-23.095-12.771-46.19-19.157-69.285
		c-1.078,0.056-2.157,0.113-3.235,0.169c-0.442,9.424-1.769,18.899-1.158,28.261c1.699,26.025,13.042,48.952,26.61,71.141
		c3.087,5.048,4.369,11.087,6.482,16.669c-0.836,0.32-1.672,0.639-2.508,0.959c-14.308-18.629-26.827-38.234-35.255-60.015
		c-9.241-23.881-13.684-47.871-2.241-72.444c1.087-2.334-0.738-5.887-1.211-8.874c-3.38,1.318-4.488,2.63-5.381,4.063
		c-14.688,23.568-14.334,48.382-6.478,73.693c10.208,32.888,30.395,60.372,52.474,86.866c3.333,3.999,5.191,9.103,7.731,13.696
		c-0.746,0.419-1.491,0.837-2.237,1.256c-7.611-8.748-15.481-17.307-22.783-26.281c-21.953-26.977-41.54-55.29-50.208-88.932
		c-6.403-24.851-5.101-48.741,12.924-69.756c1.547-1.804,1.773-4.627,2.613-6.977c-2.47,0.895-5.624,1.153-7.306,2.78
		c-21.741,21.028-26.789,46.517-21.271,74.54c6.028,30.608,22.057,56.82,41.196,81.431c23.37,30.053,47.549,59.542,70.851,89.641
		c14.635,18.904,23.034,40.546,27.033,63.602c5.88,33.902-8.737,60.904-41.051,76.822c-1.001,0.493-1.848,1.267-4.115,2.854
		c18.45-3.705,32.431-12.032,42.004-24.743c22.134-29.389,18.121-60.747,6.193-92.907c11.347,3.083,11.951,2.926,14.622,12.181
		c3.316,11.491,6.745,23.161,7.941,34.953c3.215,31.701-17.475,60.768-48.245,69.738c-0.89,0.637-1.78,1.273-2.67,1.909
		c41.914,19.924,48.817,59.293,59.389,96.518c4.392,0,8.525,0,15.027,0c-6.194-17.104-12.128-32.964-17.605-48.964
		c-1.482-4.328-1.399-9.117-2.391-13.624c-0.532-2.414-1.824-4.678-2.928-7.39c-2.026,1.39-3.401,2.333-6.098,4.183
		c0.085-5.342-9.441-7.007-3.178-13.634c-1.505-1.063-3.578-3.354-4.428-3.001c-9.759,4.057-8.661-2.971-10.451-5.985
		C258.632,749.628,250.319,746.234,242.005,742.841z M504.234,133.384c-2.487,3.327-3.42,4.443-4.205,5.646
		c-14.843,22.736-15.173,47.011-7.913,71.848c9.659,33.045,29.392,60.81,51.551,87.303c3.905,4.669,6.491,10.33,9.686,15.532
		c-0.838,0.459-1.676,0.917-2.513,1.376c-29.262-32.087-56.731-65.323-70.509-106.644c-9.936-29.8-9.141-58.249,14.252-84.138
		c-2.927-0.476-6.103-0.508-7.485,0.97c-4.88,5.213-9.886,10.541-13.512,16.548c-14.143,23.435-13.052,48.176-5.046,72.974
		c11.891,36.831,35.967,66.702,61.256,96.024c15.553,18.034,29.796,37.124,43.912,56.215c7.633,10.323,13.761,21.646,20.871,33.001
		c0.82-10.914,1.169-20.87-6.622-29.962c-4.349-5.075-6.81-11.738-9.513-17.925c-12.518-28.651-17.595-58.912-20.356-89.528
		c-3.45-38.261-8.5-76.074-26.532-111.193c-1.034-2.013-0.03-4.895-0.354-7.328c-0.321-2.415-0.645-5.065-1.966-6.999
		c-0.474-0.693-3.862,0.404-8.303,1.008c-0.575-3.895-0.975-8.214-1.983-12.402c-0.287-1.193-2.837-3.1-3.509-2.826
		c-9.812,3.997-8.814-3.307-9.595-6.65c-9.509-2.743-18.153-5.236-28.147-8.119c48.862,28.186,53.156,75.016,62.613,119.508
		c-1.297,0.431-2.594,0.863-3.892,1.294c-6.398-23.007-12.797-46.013-19.196-69.02c-0.994,0.077-1.987,0.154-2.981,0.231
		c-0.548,8.638-1.927,17.315-1.49,25.908c1.385,27.3,13.098,51.298,27.401,74.465c2.879,4.662,3.825,10.397,5.663,15.637
		c-1.544,0.629-3.087,1.259-4.631,1.888c-11.13-20.697-23.494-40.897-33.056-62.226c-10.361-23.113-13.22-47.31-2.006-71.537
		C507.185,141.974,505.2,138.415,504.234,133.384z M485.006,834.975c-0.889,0.497-1.778,0.994-2.668,1.491
		c-26.582-28.859-51.444-58.928-66.109-95.177c-12.786-31.607-17.26-62.996,8.649-91.604c0.815-0.9,0.275-2.901,0.367-4.389
		c-1.562,0.039-3.604-0.505-4.593,0.228c-2.646,1.962-5.059,4.304-7.178,6.79c-21.428,25.143-22.784,53.459-13.53,82.942
		c12.713,40.503,39.368,72.992,68.282,104.032c1.259,1.352,3.541,2.525,5.39,2.588c8.251,0.277,16.519,0.121,24.127,0.121
		c-2.886-22.452-5.981-44.117-8.394-65.85c-3.914-35.251-9.064-70.151-25.745-102.526c-1.143-2.218,0.199-5.481-0.5-8.041
		c-0.739-2.705-2.156-7.062-3.94-7.382c-8.527-1.534-9.22-2.001-8.783-9.581c0.066-1.138-3.084-3.672-4.317-3.447
		c-7.818,1.428-8.947-2.58-8.399-8.101c-3.522-0.296-7.188-0.069-10.483-1.011c-4.556-1.302-8.833-3.484-13.229-5.289
		c35.138,16.544,54.991,79.29,54.547,120.788c-6.483-23.313-12.966-46.627-19.45-69.94c-1.057,0.119-2.114,0.237-3.171,0.356
		c-0.429,8.671-1.505,17.365-1.168,26.01c1.056,27.096,12.941,50.729,26.873,73.722c2.876,4.747,4.011,10.443,5.948,15.702
		c-0.895,0.323-1.789,0.646-2.684,0.968c-16.632-22.144-31.195-45.331-39.042-71.818c-5.977-20.177-7.064-40.194,1.88-60.072
		c1.069-2.375-0.838-5.954-1.366-8.974c-19.169,23.965-20.042,49.406-12.153,75.833c9.941,33.298,30,61.179,52.357,87.867
		C479.976,825.331,482.21,830.365,485.006,834.975z M593.029,357.523c1.036-0.131,2.071-0.261,3.107-0.392
		c-1.429-12.891-2.565-25.818-4.352-38.664c-3.057-21.97-7.125-43.825-9.678-65.843c-4.017-34.65-9.158-68.916-25.607-100.707
		c-1.152-2.227,0.27-5.553-0.556-8.056c-0.863-2.614-2.796-6.726-4.615-6.902c-5.584-0.541-9.349-4.078-8.648-9.18
		c0.194-1.411-2.703-4.683-3.357-4.497c-8.943,2.547-8.346-3.452-8.704-7.143c-7.872-2.189-15.052-4.187-22.233-6.184
		c14.934,9.502,25.436,21.947,32.696,36.697c5.183,10.53,10.814,21.383,12.932,32.651c6.47,34.421,11.385,69.107,16.816,103.702
		C574.873,308.767,580.67,334.034,593.029,357.523z M463.315,631.222c21.75,12.198,34.054,30.996,41.154,52.478
		c6.867,20.775,12.256,42.151,16.13,63.614c5.03,27.866,7.625,56.12,11.871,84.124c1.794,11.83,2.61,11.805,14.555,9.857
		c-3.788-30.468-7.199-60.912-11.45-91.251c-4.192-29.925-11.288-59.131-28.045-85.417c-3.813-5.981-7.552-12.005-9.974-15.86
		c-5.184-4.064-8.827-6.92-12.469-9.776c0.402-0.323,0.804-0.646,1.207-0.969C478.636,635.755,470.976,633.488,463.315,631.222z
		 M501.321,502.945c-0.135-2.292,0.671-5.266-0.546-6.772c-16.339-20.218-25.249-43.552-29.641-68.128
		c-5.392-30.174-9.55-60.603-12.642-91.068c-1.505-14.835-10.424-24.023-20.667-34.445c0,2.226-0.15,3.381,0.022,4.492
		c3.087,19.889,6.854,39.705,9.178,59.672c3.382,29.052,6.902,58.029,17.309,85.743
		C471.619,471.837,481.237,489.944,501.321,502.945z M468.956,337.774c6.246,54.446,7.404,107.866,42.82,153.325
		c1.956-3.383,4.287-7.674,2.94-10.201c-18.323-34.365-24.725-71.424-27.19-109.176C486.626,357.936,479.268,348.66,468.956,337.774
		z M571.829,841.651c-4.028-31.875-8.724-62.804-11.533-93.886c-1.403-15.518-8.568-26.745-20.353-36.377
		c6.076,43.507,12.14,86.931,18.192,130.263C564.413,841.651,568.331,841.651,571.829,841.651z M594.756,530.476
		c-0.888-0.259-1.775-0.519-2.663-0.778c-12.762,9.524-20.547,22.212-24.828,36.855c-7.38,25.243-1.36,49.201,9.102,72.406
		c4.81,10.67,10.95,20.801,16.486,31.176c2.883-13.825,2.677-26.445-4.939-38.061c-2.389-3.644-3.593-8.047-4.982-12.21
		c-9.696-29.049-12.099-57.309,9.994-82.988C594.271,535.311,594.179,532.634,594.756,530.476z M528.202,108.301
		c19.458,9.036,31.646,24.568,39.891,42.995c5.503,12.3,10.852,24.99,13.573,38.011c5.488,26.265,9.137,52.875,13.221,77.4
		c0-19.415-0.805-40.997,0.234-62.499c0.975-20.182-5.894-37.813-15.72-54.917c-4.869-8.476-9.967-16.835-15.224-25.688
		c-6.424,1.947-9.504-1.363-9.492-7.239C545.639,113.61,536.92,110.956,528.202,108.301z M264.319,743.914
		c42.232,20.799,48.79,60.661,59.542,97.562c4.803,0,8.944,0,15.262,0c-6.675-17.77-13.05-34.375-19.073-51.093
		c-1.174-3.259-1.543-6.999-1.287-10.451c0.421-5.669-2.523-7.9-10.723-5.184c-0.657-4.281-0.997-8.354-2.035-12.26
		c-0.368-1.383-2.976-3.599-3.651-3.335c-9.357,3.649-9.388-2.22-9.511-6.451C282.974,749.66,273.646,746.787,264.319,743.914z
		 M571.395,747.372c3.032,31.726,3.972,63.609,13.603,94.729c3.603-0.212,6.505-0.383,9.891-0.582c0-4.125,0.351-7.631-0.059-11.056
		c-2.147-17.923-5.616-35.782-6.384-53.749C587.884,763.541,579.499,755.976,571.395,747.372z M521.506,469.928
		c9.649-19.085-4.35-73.448-23.721-93.048C501.264,409.136,506.876,440.195,521.506,469.928z M593.215,113.436
		c0.373-0.048,0.746-0.095,1.119-0.143c0-10.872,0-21.744,0-31.532c-10.454,8.28-21.122,16.73-31.32,24.807
		c0.871,1.011,3.162,2.906,4.432,5.29c4.145,7.78,7.587,15.907,11.93,23.58c4.185,7.395,9.152,14.392,13.775,21.564
		c1.167-0.413,2.334-0.827,3.501-1.24c-1.964-9.16-3.017-18.613-6.148-27.4c-3.19-8.952-8.424-17.249-12.982-26.266
		c3.544-2.176,6.222-3.82,9.147-5.615C589.047,102.639,591.131,108.037,593.215,113.436z M255.014,757.111
		c-24.259,17-37.762,54.918-25.547,84.352c3.913,0,7.744,0,11.913,0c-7.476-28.358-7.35-54.883,14.36-77.816
		C256.582,762.758,255.408,760.153,255.014,757.111z M266.247,841.713c-5.826-21.677-7.148-42.242,2.597-62.432
		c0.885-1.834-1.632-5.145-3.097-9.249c-16.6,23.549-18.636,46.941-12.495,71.682C257.692,841.713,261.317,841.713,266.247,841.713z
		 M280.309,796.275c-1.205,0.182-2.41,0.364-3.615,0.546c0,14.864,0,29.729,0,44.863c5.855,0,9.776,0,14.637,0
		C287.572,826.199,283.941,811.237,280.309,796.275z M594.698,562.385c-7.642,18.809-6.69,37.389,0,55.9
		C594.698,599.652,594.698,581.018,594.698,562.385z M594.524,489.923c-11.641,8.646-23.316,17.317-32.973,24.49
		C579.305,512.487,595.337,500.838,594.524,489.923z M370.331,824.802c-0.425,0.231-0.85,0.462-1.275,0.693
		c1.358,5.432,2.715,10.865,4.011,16.048c4.307,0,7.746,0,12.54,0C379.96,835.355,375.146,830.079,370.331,824.802z"/>
	<path d="M437.591,629.701c4.792-2.519,9.726-4.823,14.352-7.592c26.649-15.947,38.382-45.069,31.281-77.413
		c-0.877-3.995-2.01-7.939-3.016-11.909c-2.707-10.682-6.956-18.57-19.718-23.259c-20.263-7.446-31.069-24.946-39.695-43.129
		c-13.562-28.588-19.127-59.019-21.984-89.937c-3.205-34.681-7.262-69.162-20.708-101.93
		c-10.214-24.889-20.905-37.539-40.417-50.556c7.504,2.109,15.007,4.219,23.372,6.571c0.049,4.155-0.113,10.171,9.165,6.66
		c0.886-0.335,3.858,1.768,4.194,3.114c1.021,4.087,1.223,8.357,1.816,13.133c8.216-3.101,10.979-1.104,10.718,4.35
		c-0.179,3.743,0.062,7.931,1.655,11.256c13.814,28.83,20.013,59.395,23.003,90.612c3.543,36.987,7.297,73.903,22.769,108.57
		c8.285,18.565,18.826,35.769,39.444,44.377c3.806,1.589,9.633,1.546,13.456-0.051c32.558-13.6,48.559-43.885,42.064-78.549
		c-6.654-35.51-25.571-65.44-48.225-93.455c-16.864-20.854-35.695-40.345-51.597-61.811c-12.111-16.349-20.9-34.897-31.43-52.325
		c-1.519-2.515-4.509-4.232-6.694-6.206c20.381-8.526,35.798-23.789,41.577-46.648c5.624-22.245-0.392-43.306-8.398-64.006
		c45.04-13.739,64.399-47.733,52.827-92.141c-1.536-5.895-3.078-11.788-4.617-17.683c4.319,0,8.637,0,12.956,0
		c7.568,22.879,9.97,45.77-0.507,68.478c-9.128,19.784-24.608,33.09-46.38,40.831c2.19,0,4.381,0,5.538,0
		c-1.194,3.231-2.459,6.655-4.375,11.84c10.31-4.538,18.217-8.018,26.124-11.498c0.287,0.521,0.575,1.042,0.862,1.563
		c-6.004,3.994-12.071,7.906-17.998,12c-8.215,5.676-2.368,12.624-2.268,20.871c9.473-13.566,18.714-25.014,34.888-29.94
		c0,2.014,0.225,2.818-0.032,2.997c-32.244,22.35-37.2,52.618-27.466,86.739c10.202,35.761,31.767,65.662,56.248,93.711
		c22.605,25.9,46.133,51.086,62.431,81.298c11.779,21.835,20.559,44.541,18.664,69.554c-2.34,30.882-17.379,53.635-48.764,65.199
		c-1.563,0.576-3.058,1.317-4.18,4.014c3.267-0.303,6.534-0.605,10.446-0.967c-4.337,3.013-11.962,4.149-6.338,11.486
		c8.364-3.756,16.782-7.537,25.201-11.318c-10.826,10.152-30.383,14.606-20.235,35.941c8.567-13.644,18.259-25.807,35.564-31.226
		c-0.135,2.06,0.046,2.846-0.232,3.039c-31.809,22.078-37.13,51.918-27.814,85.886c6.436,23.467,18.081,44.762,32.991,64.201
		c6.857,8.94,7.451,17.821,6.154,29.76c-27.732-33.848-50.75-67.754-55.113-111.054c-7.77,7.786-10.539,14.982-6.587,25.381
		c12.098,31.833,31.021,59.698,53.728,85.294c7.24,8.161,10.15,16.192,7.885,27.689c-32.469-34.301-61.621-69.451-75.67-113.721
		c-0.973,0.224-1.647,0.229-2.132,0.518c-2.071,1.234-4.086,2.551-8.109,5.094c8.677,15.209,15.998,31.378,26.403,45.505
		c16.025,21.757,33.537,42.62,51.69,62.836c8.348,9.296,9.447,18.633,7.885,30.939c-33.869-44.699-77.635-81.209-96.637-134.386
		c-2.99,0.373-5.55,0.693-9.717,1.213c54.122-26.442,53.558-67.337,36.515-112.701c44.112-12.455,64.025-47.031,52.781-91.267
		c-8.034-31.608-25.271-58.827-45.828-84.237c-16.127-19.934-33.714-38.811-49.707-58.836
		c-19.275-24.134-34.752-50.281-41.349-80.387c-0.924-4.216-1.45-8.511-2.272-13.437c-8.556,7.195-9.957,14.313-6.174,24.085
		c13.51,34.893,35.506,64.645,60.627,92.538c23.478,26.07,46.858,52.322,60.735,84.322c6.474,14.929,11.59,31.062,13.298,47.036
		c3.913,36.582-14.449,62.426-53.139,78.751c10.27,29.988,13.792,59.915-6.591,87.846c-10.183,13.954-24.322,22.73-42.356,25.762
		c21.984-9.785,37.468-24.939,43.303-47.566c5.736-22.243-0.086-43.425-8.286-64.489c28.929-7.786,47.941-24.667,54.338-52.703
		c4.312-18.901,0.211-37.166-6.569-54.993c-13.514-35.531-36.732-65.294-62.374-93.533c-23.201-25.552-44.976-51.97-59.103-83.268
		c-3.012-6.673-5.485-13.564-8.601-21.341c-2.807,1.577-5.471,3.073-10.487,5.891c11.033,18.137,20.619,36.432,32.714,53.09
		c13.073,18.006,28.331,34.605,42.921,51.597c24.273,28.271,46.247,57.816,55.974,93.766c7.917,29.26,5.714,57.343-17.291,80.324
		c-8.394,8.385-20.047,13.837-31.286,21.343c1.794,8.001,4.542,18.101,6.269,28.355c5.704,33.864-12.291,67.506-42.766,80.013
		c-4.971,2.04-10.581,2.679-15.895,3.966L437.591,629.701z"/>
	<path d="M11.921-0.257c-0.596,24.28,8.458,46.254,21.69,65.921c16.673,24.781,35.343,48.483,54.7,71.479
		c23.565,27.996,46.376,56.236,58.231,90.76c8.427,24.542,10.435,49.209-2.51,73.278c-8.815,16.391-22.203,27.744-40.631,33.681
		c-1.334,0.43-2.603,1.044-5.374,2.171c2.546,0.832,3.533,1.206,4.552,1.471c0.831,0.216,1.701,0.301,0.751,0.142
		c-0.394,3.367-0.756,6.466-1.216,10.402c9.692-4.183,17.826-7.693,25.961-11.204c-10.184,9.508-29.056,12.812-19.646,33.656
		c8.609-12.568,18.11-23.809,35.607-29.386c-1.468,2.828-1.668,3.987-2.381,4.477c-28.917,19.853-35.393,47.145-28.399,78.492
		c8.195,36.733,29.578,67.092,53.689,95.803c22.631,26.949,47.78,52.076,64.872,82.911c12.01,21.668,21.076,44.07,20.869,69.103
		c-0.272,32.857-17.833,57.281-50.293,69.435c-1.244,0.466-2.296,1.396-5.637,3.485c5.324,0,8.04,0,11.985,0
		c-2.973,1.692-4.908,2.794-7.436,4.233c0.636,2.24,1.306,4.599,1.923,6.773c8.813-3.958,17.222-7.735,25.632-11.512
		c0.104,0.339,0.208,0.678,0.312,1.017c-7.844,6.227-16.734,11.656-23.025,19.068c-2.562,3.018,0.517,10.34,1.232,17.821
		c9.608-15.463,19.558-27.7,37.008-32.104c-32.779,23.531-37.737,54.561-27.815,90.284c-4.666,0-8.713,0-13.428,0
		c-1.047-6.394-2.069-12.631-3.547-21.652c-4.089,8.221-7.121,14.317-10.8,21.714c-2.414,0-7.169,0-13.077,0
		c12.136-13.5,20.621-28.507,19.419-46.02c-1.145-16.679-4.745-33.207-7.366-50.46c29.402-8.146,48.39-27.437,52.906-58.419
		c2.467-16.925-1.792-33.129-7.807-48.91c-13.315-34.937-36.531-63.953-61.106-92.264c-14.469-16.669-28.657-33.666-41.494-51.473
		c-16.466-22.841-28.086-47.894-31.109-76.701c-7.885,7.119-10.375,13.541-6.61,23.449c14.064,37.006,37.824,68.034,64.469,97.369
		c24.643,27.132,47.41,55.367,61.328,89.064c6.914,16.738,11.441,34.123,9.315,52.188c-3.694,31.392-20.082,53.993-51.06,63.706
		c1.942,17.16,5.019,33.516,5.309,49.916c0.298,16.838-7.245,31.836-18.846,44.591c-2.428,2.67-6.685,3.845-11.275,4.877
		c26.801-30.747,21.807-63.461,8.538-96.653c42.172-11.488,60.638-43.253,54.858-80.135c-2.097-13.382-6.517-26.76-12.059-39.271
		c-14.855-33.538-38.627-61.591-63.497-88.856c-22.066-24.192-41.618-49.985-54.513-79.818c-2.433-5.628-4.441-11.421-6.91-17.823
		c-2.902,1.622-5.406,3.022-9.971,5.574c8.848,15.425,16.347,31.431,26.598,45.653c13.701,19.007,29.133,36.945,44.547,54.778
		c24.549,28.401,47.143,57.807,58.5,93.533c5.315,16.72,7.426,33.81,3.078,51.026c-6.667,26.396-22.973,44.779-50.795,52.909
		c2.401,11.291,5.444,22.211,6.935,33.318c3.022,22.517-3.099,42.924-18.53,60.409c-2.532,2.869-6.955,4.237-11.518,5.224
		c10.672-13.468,17.628-27.612,18.682-44.247c1.135-17.919-3.143-34.793-10.011-51.217c-0.748-1.789-3.02-3.626-4.998-4.237
		c-20.71-6.39-34.02-20.472-43.986-37.905c-14.618-25.569-21.084-53.469-24.864-81.979c-4.527-34.145-5.769-68.748-16.535-101.987
		c-5.818-17.963-12.568-35.569-25.891-49.889c-4.721-5.074-11.14-8.727-16.784-13.028c0-1.17,0-2.34,0-3.51
		c1.972-0.054,4.16-0.659,5.874-0.055c4.497,1.585,8.788,3.696,13.623,5.799c-0.952,4.579,0.89,7.744,8.412,6.45
		c1.014-0.174,3.065,2.586,3.869,4.309c1.756,3.765,3.02,7.736,4.693,12.176c2.562-2.115,3.7-3.055,6.559-5.416
		c0.636,4.419,1.099,7.43,1.495,10.449c0.322,2.458-0.125,5.239,0.943,7.341c15.902,31.307,21.88,64.836,24.999,99.02
		c3.057,33.51,7.214,66.857,20.388,98.426c8.378,20.076,18.946,38.954,41.048,48.557c3.542,1.539,8.443,0.269,12.715,0.298
		l-0.056,0.002c21.561-8.056,35.254-23.015,41.546-43.867c5.629-18.655,2.626-37.111-3.695-55.115
		c-13.3-37.884-37.783-69.272-64.86-99.07c-24.618-27.091-47.323-55.315-61.412-88.963c-0.98-2.34-4.376-3.771-6.645-5.622
		c21.116-9.041,36.247-24.167,41.765-46.922c5.382-22.197-0.448-43.262-8.377-63.93c31.348-8.385,50.029-26.927,55.186-56.752
		c2.696-15.593-0.406-30.859-5.515-45.718c-11.065-32.183-30.251-60.043-52.994-85.593C49.989,113.83,17.99,77.657,2.667,31.33
		c0-10.529,0-21.058,0-31.587C5.751-0.257,8.836-0.257,11.921-0.257z"/>
	<path d="M237.726-0.257c14.951,17.809,30.53,35.181,44.699,53.533c19.255,24.941,34.035,51.932,39.321,83.099
		c5.671,33.437-11.38,74.248-51.259,84.902c-0.428,0.114-0.675,0.835-1.626,2.091c2.488,0.393,4.53,0.716,4.853,0.767
		c-0.593,3.172-1.212,6.485-1.978,10.581c9.593-4.236,17.284-7.631,24.975-11.027c0.362,0.609,0.725,1.217,1.087,1.826
		c-3.862,2.268-7.619,4.719-11.606,6.769c-10.607,5.455-13.829,13.315-8.004,24.641c8.273-12.292,18.066-23.447,34.104-29.041
		c0,2.365,0.216,3.14-0.031,3.31c-30.747,21.192-37.209,49.932-28.63,83.215c8.993,34.887,29.562,63.912,52.36,91.725
		c17.765,21.672,36.672,42.561,53.405,64.919c16.872,22.543,28.253,47.605,32.379,75.53c4.773,32.303-13.728,72.28-51.056,81.706
		c-0.686,0.173-1.156,1.11-2.775,2.756c3.401,0.364,5.716,0.611,6.669,0.713c-1.065,3.103-2.25,6.557-4.062,11.834
		c11.087-5.078,19.465-8.915,27.843-12.751c0.399,0.651,0.799,1.301,1.198,1.952c-4.091,2.391-8.034,5.056-12.3,7.122
		c-12.338,5.974-14.587,15.134-9.401,27.385c8.36-13.874,18.437-25.749,37.123-32.351c-1.738,3.12-1.979,4.252-2.705,4.755
		c-30.298,21.014-35.596,49.857-27.389,82.064c9.258,36.329,31.069,66.454,55.266,95.151c6.713,7.962,13.728,15.695,21.315,24.344
		c-9.502,1.539-16.769,1.645-22.745-6.698c-16.231-22.66-34.147-44.276-49.568-67.401c-11.72-17.574-17.752-37.679-19.129-59.09
		c-10.43,9.788-11.04,11.762-7.132,23.314c11.902,35.183,34.184,64.484,58.518,92.605c4.837,5.589,9.858,11.034,15.306,17.116
		c-9.781,2.118-16.502,0.768-23.052-6.622c-27.316-30.82-52.268-62.835-64.795-102.873c-3.25,1.974-5.905,3.588-10.712,6.509
		c11.126,18.344,20.994,36.807,33.052,53.88c12.072,17.093,26.331,32.797,39.924,49.469c-9.198,1.616-15.933,0.227-22.487-7.198
		c-24.648-27.926-47.376-56.843-60.905-91.593c-2.805,0.318-5.371,0.609-9.484,1.076c47.516-25.278,54.508-47.475,36.757-112.81
		c44.008-11.22,64.657-48.156,52.045-93.474c-9.555-34.332-29.843-63.129-52.338-90.829c-20.84-25.661-42.266-50.973-61.56-77.656
		c-13.992-19.35-22.157-41.606-24.411-66.462c-6.772,6.863-10.85,12.613-7.248,22.312c12.498,33.646,32.996,62.584,56.871,89.584
		c23.182,26.216,47.497,51.796,62.218,83.43c7.124,15.309,13.664,31.7,15.702,48.133c5.135,41.412-10.702,65.05-51.601,83.491
		c2.358,11.474,5.254,22.772,6.925,34.231c4.78,32.77-15.287,66.274-46.075,77.22c-4.119,1.464-8.859,1.358-13.311,1.979
		l0.194,0.169c36.359-12.743,54.463-45.232,46.074-83.338c-2.119-9.627-5.317-19.041-8.124-28.923
		c20.7-4.774,36.794-15.7,46.877-33.632c11.592-20.615,10.426-42.197,3.737-63.833c-11.604-37.535-34.874-68.686-61.02-98.049
		c-21.286-23.905-42.663-47.699-57.464-75.925c-5.591-10.661-10.062-21.849-15.477-33.749c-2.374,1.4-5.053,2.979-8.017,4.727
		c11.001,28.279,28.087,52.388,47.043,75.483c19.459,23.707,39.714,46.897,57.87,71.476c15.096,20.437,24.412,43.634,28.148,68.734
		c4.84,32.514-11.913,65.492-40.977,78.558c-3.8,1.708-8.099,2.419-12.166,3.592c1.014-1.49,2.028-2.979,3.042-4.469l-0.069,0.038
		c1.113-0.057,2.449,0.249,3.305-0.224c19.25-10.643,30.917-26.403,34.624-47.23c4.004-22.494-2.273-43.498-11.532-63.806
		c-14.59-32.002-36.648-59.349-60.517-85.5c-24.089-26.393-45.8-54.229-59.615-86.991c-0.982-2.328-4.516-3.689-6.73-5.397
		c21.409-8.718,36.442-24.315,42.116-47.337c5.471-22.2-0.839-43.157-8.661-63.873c16.045-3.186,28.762-10.467,38.837-21.699
		c19.49-21.727,20.465-46.727,13.256-72.76c-8.85-31.96-27.196-59.247-48.268-84.997c-12.247-14.966-25.101-29.486-37.682-44.206
		C226.621-0.257,232.174-0.257,237.726-0.257z"/>
	<path fill="#FFFFFF" d="M147.284,741.598c-4.273-0.029-9.173,1.241-12.715-0.298c-22.102-9.603-32.67-28.481-41.048-48.557
		c-13.174-31.569-17.331-64.916-20.388-98.426c-3.118-34.184-9.097-67.713-24.999-99.02c-1.068-2.102-0.621-4.883-0.943-7.341
		c-0.395-3.019-0.859-6.029-1.495-10.449c-2.859,2.361-3.998,3.301-6.559,5.416c-1.673-4.44-2.936-8.412-4.693-12.176
		c-0.804-1.723-2.855-4.484-3.869-4.309c-7.522,1.294-9.364-1.871-8.412-6.45c-4.836-2.103-9.126-4.214-13.623-5.799
		c-1.714-0.604-3.902,0.001-5.874,0.055c0-1.17,0-2.34,0-3.51c38.571-10.894,60.711-44.381,54.624-83.259
		c-1.646-10.516-4.487-20.863-6.762-31.212c38.335-14.615,56.687-41.554,51.947-80.357c-1.979-16.198-7.214-32.576-14.071-47.599
		C68.671,165.081,32.812,132.557,2.667,96.259c0-4.095,0-8.189,0-12.284c24.042,29.158,48.474,58.038,71.989,87.573
		c15.827,19.879,28.423,41.647,36.252,65.629c5.356,16.406,8.075,33.135,3.801,50.073c-6.851,27.145-25.615,43.514-53.97,50.902
		c7.934,20.869,13.88,41.651,8.521,63.666c-5.563,22.855-20.834,38.116-45.302,48.691c17.984-2.496,33.13-11.315,43.004-24.348
		c21.407-28.254,18.386-58.645,7.783-89.107c0.969-0.873,1.34-1.494,1.851-1.626c37.41-9.666,56.266-48.802,50.993-83.375
		c-4.116-26.987-15.589-51.028-31.468-73.098c-12.642-17.571-27.704-33.559-40.939-50.769
		C37.299,104.936,20.137,81.187,2.667,57.653c0-8.774,0-17.548,0-26.322c15.323,46.327,47.322,82.5,79.561,118.717
		c22.743,25.55,41.929,53.41,52.994,85.593c5.108,14.858,8.21,30.124,5.515,45.718c-5.156,29.825-23.838,48.367-55.186,56.752
		c7.929,20.669,13.759,41.734,8.377,63.93c-5.518,22.756-20.65,37.882-41.765,46.922c2.269,1.851,5.665,3.281,6.645,5.622
		c14.089,33.647,36.795,61.872,61.412,88.963c27.078,29.798,51.56,61.186,64.86,99.07c6.32,18.004,9.324,36.46,3.695,55.115
		c-6.292,20.852-19.985,35.811-41.525,43.859c2.524-2.544,3.111-3.964-0.033-7.52c-8.816-9.971-18.358-20.079-23.963-31.714
		c-7.47-15.506-13.457-32.176-16.575-48.932c-5.772-31.02-8.534-62.53-13.427-93.713C89.06,533,81.233,507.259,65.942,484.025
		c-3.421-5.197-6.417-10.646-10.145-16.875c-5.413,1.064-9.888-1.219-9.632-7.692c-8.985-2.733-17.539-5.336-26.092-7.938
		c20.137,9.728,31.734,25.927,40.433,44.454c15.791,33.629,20.352,69.532,23.628,105.711c2.749,30.355,7.799,60.302,20.216,88.67
		c8.784,20.069,20.484,38.009,41.721,48.552C146.776,739.258,146.893,740.677,147.284,741.598z M99.835,532.897
		c2.813,21.517,6.032,43.716,8.552,65.986c3.618,31.972,7.357,64.053,22.003,93.435c6.578,13.197,16.886,24.745,25.822,36.827
		c0.875,1.184,4.016,0.861,6.105,1.237c-0.25-1.949,0.224-4.423-0.861-5.766c-14.336-17.765-22.85-38.113-27.349-59.67
		c-4.765-22.831-7.544-46.035-11.156-69.081C119.41,573.277,123.04,548.361,99.835,532.897z M170.658,719.261
		c1.336-0.004,2.672-0.009,4.008-0.013c0-3.984,0.9-8.211-0.211-11.894c-1.674-5.547-4.971-10.633-7.2-16.054
		c-12.895-31.369-17.001-64.407-19.797-97.592c-0.978-11.609-10.172-17.181-16.28-25.151
		C136.042,621.007,137.451,674.038,170.658,719.261z M159.643,606.217c2.819,31.708,8.084,62.9,24.132,91.552
		C186.749,664.751,179.837,633.996,159.643,606.217z"/>
	<path fill="#FFFFFF" d="M221.068-0.257c12.581,14.721,25.435,29.24,37.682,44.206c21.072,25.751,39.419,53.038,48.268,84.997
		c7.209,26.033,6.234,51.033-13.256,72.76c-10.075,11.231-22.792,18.513-38.837,21.699c7.822,20.716,14.132,41.673,8.661,63.873
		c-5.673,23.022-20.707,38.619-42.116,47.337c2.214,1.708,5.749,3.068,6.73,5.397c13.815,32.762,35.526,60.598,59.615,86.991
		c23.869,26.151,45.927,53.498,60.517,85.5c9.258,20.308,15.536,41.312,11.532,63.806c-3.707,20.827-15.374,36.587-34.624,47.23
		c-0.856,0.474-2.193,0.167-3.321,0.235c-15.66-10.081-25.016-24.718-32.171-40.751c-12.248-27.442-17.634-56.452-20.534-85.903
		c-3.065-31.132-5.318-62.498-16.869-92.05c-6.899-17.652-16.499-34.357-24.993-51.439c-0.36-0.723-1.953-1.506-2.743-1.332
		c-7.775,1.714-8.23-3.555-8.668-7.049c-7.375-2.232-13.73-4.155-20.085-6.078c21.153,14.421,31.891,34.53,40.019,56.308
		c9.831,26.342,14.254,53.718,16.737,81.424c3.085,34.42,7.575,68.561,21.957,100.748c7.305,16.349,16.68,31.471,32.472,41.73
		c4.106,2.668,9.929,2.959,14.964,4.343c-1.014,1.49-2.028,2.979-3.042,4.469l0.353-0.346c-5.769-0.54-12.251,0.344-17.182-1.873
		c-18.639-8.379-28.56-24.358-36.404-41.418c-14.449-31.425-19.404-64.89-22.45-98.699c-3.258-36.161-8.708-71.823-25.672-105
		c-1.147-2.243,0.097-5.497-0.712-8.008c-0.878-2.725-2.626-7.129-4.4-7.315c-6.143-0.643-9.915-3.396-8.587-8.793
		c1.039-4.226,1.081-5.887-4.436-4.577c-7.481,1.777-8.566-2.722-7.95-6.452c-8.36-3.177-16.221-6.165-24.083-9.152l-0.186,0.169
		c4.443-0.951,9.062-1.447,13.299-2.927c30.142-10.525,49.701-40.819,46.597-73.869c-1.238-13.18-5.117-26.138-7.793-39.197
		l-0.3,0.352c29.074-5.294,52.542-33.858,53.853-65.305c1.36-32.621-11.039-61.402-29.766-87.451
		c-17.08-23.758-36.822-45.795-55.391-68.591c3.085,0,6.17,0,9.254,0c1.763,2.636,3.259,5.48,5.335,7.872
		c9.2,10.602,18.855,20.858,27.814,31.636c21.442,25.796,40.531,52.949,50.618,84.828c6.804,21.504,8.789,43.045-2.238,63.986
		c-10.035,19.058-26.682,30.478-48.428,35.705c8.186,21.377,14.256,42.308,8.377,64.688c-5.949,22.648-21.461,37.407-42.955,47.522
		c17.004-2.923,30.603-10.974,40.609-23.876c21.925-28.269,19.083-58.941,7.761-90.209c29.564-8.765,46.032-27.871,52.204-54.919
		c3.913-17.152,1.468-34.269-4.049-50.985c-11.072-33.544-31.889-61.606-55.024-88.4c-7.924-9.178-15.585-18.56-23.365-27.848
		C216.133-0.257,218.601-0.257,221.068-0.257z M334.112,613.635c-13.103-14.646-20.729-31.382-26.631-49.032
		c-10.122-30.274-13.064-61.613-16.111-92.978c-1.965-20.226-2.477-41.167-22.547-53.455c2.553,16.919,5.867,34.641,7.78,52.498
		c3.295,30.763,6.174,61.536,16.476,91.137c6.613,19.001,15.266,36.94,30.529,51.276
		C326.337,615.644,329.447,620.289,334.112,613.635z M341.117,606.211c6.241-7.443,6.158-7.404,2.751-13.899
		c-2.185-4.165-4.282-8.393-6.074-12.72c-13.057-31.545-17.945-64.646-20.523-98.162c-0.738-9.596-8.595-22.059-17.503-27.143
		C305.518,506.481,306.97,559.739,341.117,606.211z M329.366,492.323c2.881,31.6,7.68,62.712,24.242,90.922
		C356.186,550.377,349.06,519.835,329.366,492.323z"/>
	<path d="M104.464-0.257c10.545,32.617,12.789,66.451,16.805,100.074c3.857,32.292,10.498,64.082,28.385,92.559
		c9.567,15.231,21.784,27.52,41.602,30.513c1.781,0.269,3.994,2.629,4.616,4.446c9.273,27.101,10.897,53.78-5.445,79.362
		c-7.777,12.174-18.686,20.809-32.376,26.365c-2.629,1.067-5.516,1.563-8.642,1.637c16.043-8.747,29.135-19.899,36.106-36.327
		c10.627-25.043,5.247-49.375-4.965-73.117c-1.344-3.125-6.608-4.735-11.049-6.454c10.583,31.844,14.77,62.683-6.599,91.751
		c-10.098,13.736-23.992,22.187-42.826,26.23c1.658-1.402,2.064-1.937,2.613-2.182c38.184-17.054,49.819-50.009,40.515-88.084
		c-4.751-19.442-12.698-37.864-25.309-54.029c-20.47-26.24-41.217-52.29-62.103-78.235C55.118,88.571,36.376,61.865,28.246,29.986
		c-2.491-9.767-2.321-20.145-3.369-30.242c3.702,0,7.403,0,11.105,0c2.614,12.224,3.81,24.917,8.105,36.585
		c13.396,36.396,37.706,66.518,63.745,95.489c1.447,1.61,2.151,3.819,3.201,5.749c1.157-0.903,2.314-1.805,3.471-2.708
		c-2.534-4.428-4.648-9.136-7.682-13.231c-8.654-11.681-18.259-22.757-26.445-34.715c-18.134-26.487-31.712-54.632-31.44-87.17
		c3.702,0,7.403,0,11.105,0c3.936,37.459,22.129,68.974,45.905,98.286c-0.377-5.167-0.877-10.569-3.56-14.697
		C85.669,57.599,74.466,30.242,72.999-0.257c3.702,0,7.403,0,11.105,0c3.927,17.301,6.564,34.982,17.822,50.279
		c-3.473-16.76-6.945-33.52-10.418-50.279C95.827-0.257,100.145-0.257,104.464-0.257z"/>
	<path d="M2.667,468.283c2.062-0.749,4.124-1.498,6.185-2.247c-0.023,1.913-0.602,4.02,0.048,5.7c1.3,3.361,3.273,6.489,4.901,9.587
		c2.819-0.679,6.296-2.015,6.626-1.508c1.329,2.04,1.96,4.612,2.327,7.058c0.398,2.657-0.712,5.822,0.426,8.028
		c16.976,32.906,22.457,68.332,25.737,104.233c3.2,35.027,8.17,69.69,23.704,102.091c7.616,15.887,17.317,30.361,34.312,38.917
		c1.625,0.818,3.342,1.979,5.058,2.046c14.254,0.561,16.147,10.736,18.281,20.775c5.536,26.043,3.06,50.714-14.88,72.289
		c-2.946,3.543-7.987,5.521-13.176,7.114c14.243-16.958,21.176-35.741,18.559-56.706c-1.575-12.621-5.384-25.108-9.492-37.259
		c-1.237-3.66-6.849-5.991-11.836-7.429c2.644,10.955,6.057,21.804,7.774,32.889c3.621,23.373-2.126,44.749-18.182,63.09
		c-2.528,2.888-6.968,4.272-10.034,6.065c5.648-13.213,12.7-25.27,15.892-38.185c5.257-21.265-1.31-41.753-10.2-61.259
		c-12.673-27.805-30.594-52.594-50.817-75.893c-10.142-11.685-20.793-22.973-31.214-34.44c0-7.604,0-15.209,0-22.813
		c4.149,5.435,8.197,10.944,12.476,16.285c4.47,5.579,9.076,11.066,13.786,16.465c4.27,4.894,8.76,9.615,13.153,14.412
		c0.997-0.725,1.994-1.45,2.99-2.175c-14.135-19.09-28.27-38.18-42.405-57.27c0-9.359,0-18.718,0-28.077
		c1.708,2.647,3.468,5.265,5.117,7.945c8.739,14.205,17.45,28.426,26.171,42.641c1.113-0.48,2.226-0.959,3.338-1.439
		c-1.722-5.017-3-10.221-5.247-15.017c-7.47-15.949-16.429-31.361-22.658-47.718c-6.519-17.12-7.358-35.193-0.716-53.519
		c6.589,23.558,13.179,47.116,19.768,70.674c1.455-0.343,2.909-0.687,4.364-1.03c-4.483-18.546-8.025-37.36-13.78-55.545
		c-3.812-12.045-10.794-23.188-16.358-34.734C2.667,477.643,2.667,472.963,2.667,468.283z"/>
	<path fill="#FFFFFF" d="M154.437-0.257c5.553,0,11.105,0,16.658,0c5.223,6.112,10.282,12.359,15.698,18.314
		c24.8,27.27,47.939,55.612,62.758,89.149c8.892,20.122,15.157,40.897,10.369,62.969c-4.699,21.659-16.219,38.722-38.888,47.324
		c-7.367-8.455-16.95-15.942-21.628-25.571c-9.047-18.622-18.073-37.942-22.197-57.885C168.014,89.574,161.841,44.544,154.437-0.257
		z M168.991,10.729c2.526,16.11,5.761,32.697,7.614,49.421c3.504,31.61,6.128,63.306,16.635,93.789
		c6.856,19.891,15.813,38.631,32.395,53.121c1.501,1.311,4.449,1.133,6.725,1.647c-0.237-1.932,0.253-4.397-0.822-5.714
		c-13.834-16.956-22.747-36.283-26.819-56.994c-5.566-28.311-9.376-56.954-13.18-85.546C189.02,41.524,187.744,22.47,168.991,10.729
		z M240.83,197.894c1.311-0.031,2.622-0.061,3.933-0.092c0.191-3.569,1.822-7.82,0.356-10.603
		c-18.435-34.982-24.527-72.752-27.116-111.024c-0.914-13.511-9.867-20.637-17.071-29.711
		C205.94,99.107,207.186,152.492,240.83,197.894z M229.507,84.552c2.916,31.802,7.94,63.027,24.305,91.5
		C256.719,142.926,249.609,112.17,229.507,84.552z"/>
	<path fill="#FFFFFF" d="M2.667,229.626c0-26.907,0-53.815,0-80.722c1.865,11.716,4.348,23.378,5.477,35.157
		c3.016,31.459,6.986,62.7,18.617,92.569c6.567,16.864,15.178,32.607,29.44,44.898c1.464,1.262,4.515,0.867,6.83,1.241
		c-0.45-1.959-0.287-4.356-1.442-5.811c-12.819-16.143-21.741-34.259-25.531-53.858c-5.982-30.939-10.313-62.179-14.722-93.37
		c-2.225-15.742-3.707-31.41-18.668-41.885c0-3.51,0-7.019,0-10.529c13.69,15.286,28.093,30.057,40.906,45.977
		c20.262,25.174,37.316,52.158,45.284,83.446c9.882,38.804-4.435,71.407-38.553,86.265c-4.735,2.062-10.888,1.198-16.384,1.689
		l0.402,0.333c-10.552-9.981-21.104-19.962-31.655-29.943c0-8.189,0-16.378,0-24.568c1.815,3.295,3.737,6.541,5.428,9.892
		c7.828,15.508,17.898,29.275,33.629,38.525c2.4,1.411,5.436,1.851,8.178,2.741c-20.723-17.999-30.462-40.856-37.839-64.815
		C8.296,254.624,5.759,242.048,2.667,229.626z M30.423,159.546c6.083,54.063,7.194,107.538,43.332,152.528
		c2.054-3.706,3.343-7.834,1.858-10.644c-17.592-33.278-24.119-69.114-26.48-105.649C48.195,181.255,41.929,170.535,30.423,159.546z
		 M84.15,290.403c2.817-32.721-3.743-63.517-23.913-91.223C62.431,230.793,68.435,261.565,84.15,290.403z"/>
	<path d="M2.667,57.653c17.471,23.535,34.632,47.283,52.514,70.534c13.236,17.21,28.297,33.198,40.939,50.769
		c15.88,22.07,27.352,46.111,31.468,73.098c5.273,34.574-13.583,73.709-50.993,83.375c-0.511,0.132-0.882,0.753-1.851,1.626
		c10.602,30.462,13.624,60.853-7.783,89.107c-9.874,13.033-25.02,21.852-43.004,24.348c24.468-10.575,39.739-25.836,45.302-48.691
		c5.359-22.015-0.587-42.797-8.521-63.666c28.355-7.388,47.119-23.757,53.97-50.902c4.275-16.938,1.555-33.668-3.801-50.073
		c-7.829-23.982-20.425-45.75-36.252-65.629C51.14,142.013,26.708,113.134,2.667,83.975C2.667,75.201,2.667,66.427,2.667,57.653z"/>
	<path fill="#FFFFFF" d="M391.348-0.257c3.702,0,7.403,0,11.105,0c3.527,21.607,9.242,42.582,20.922,62.263
		c1.539-8.228,2.45-16.518,1.33-24.553c-1.764-12.66-4.894-25.149-7.445-37.711c1.851,0,3.702,0,5.553,0
		c2.207,8.448,4.785,16.828,6.557,25.357c7.271,35.001-8.347,65.681-40.872,79.8c-4.075,1.769-9.275,1.211-13.953,1.731l0.346,0.27
		c-19.041-10.056-32.192-25.341-39.081-44.432c-7.4-20.508-12.431-41.785-18.496-62.726c3.702,0,7.403,0,11.105,0
		c5.995,20.132,10.983,40.6,18.307,60.288c5.787,15.557,16.359,28.782,31.068,38.352c3.319,2.16,7.176,3.578,10.785,5.337
		c-30.066-29.305-40.41-65.556-45.352-103.977c3.085,0,6.17,0,9.254,0c6.091,19.834,10.736,40.217,18.796,59.304
		c5.11,12.1,15.1,22.412,23.422,33.164c1.34,1.731,5.404,1.566,8.208,2.278c0.26-0.849,0.519-1.698,0.779-2.547
		c-22.581-27.035-31.161-59.025-36.399-92.198c3.702,0,7.403,0,11.105,0c2.322,23.447,9.701,45.518,20.723,66.489
		c3.294,6.267,7.807,11.958,12.056,18.357c5.971-7.643,5.969-7.642,2.485-14.05C401.547,48.264,396.474,23.996,391.348-0.257z"/>
	<path d="M310.8,222.03c36.423-10.962,56.203-44.728,48.246-82.892c-1.663-7.977-4.586-15.71-6.656-23.62
		c-1.78-6.802-6.085-10.401-12.453-10.629c2.453,14.847,6.5,29.802,7.097,44.881c1.397,35.286-21.453,64.503-54.592,72.203
		c-1.147,0.266-2.389,0.166-3.93,0.256c6.859-3.899,13.842-6.968,19.719-11.365c26.322-19.694,31.709-46.194,25.242-75.607
		c-4.418-20.093-13.956-38.228-24.879-56.081C290.818,50.12,267.268,25.503,245.13-0.257c5.553,0,11.105,0,16.658,0
		c6.581,7.441,13.161,14.882,19.742,22.324c0.921-0.592,1.842-1.184,2.763-1.776c-4.417-6.849-8.834-13.698-13.251-20.547
		c7.403,0,14.807,0,22.21,0c3.786,28.582,11.334,56.091,27.53,80.786c9.176,13.99,21.305,24.852,39.355,28.099
		c1.934,0.348,4.536,2.146,5.107,3.805c9.746,28.282,11.598,56.245-6.99,82.185c-11.313,15.788-26.448,26.631-47.721,27.275
		L310.8,222.03z"/>
	<path d="M33.92,334.693c5.496-0.491,11.649,0.374,16.384-1.689c34.118-14.858,48.435-47.461,38.553-86.265
		c-7.968-31.288-25.022-58.272-45.284-83.446c-12.814-15.92-27.216-30.691-40.906-45.977c0-7.019,0-14.039,0-21.058
		c30.146,36.298,66.004,68.822,85.737,112.049c6.858,15.023,12.093,31.401,14.071,47.599c4.74,38.803-13.612,65.742-51.947,80.357
		c2.276,10.349,5.116,20.697,6.762,31.212c6.086,38.878-16.054,72.365-54.624,83.259c0-0.585,0-1.17,0-1.755
		c25.19-11.499,40.576-29.705,43.238-56.672C47.912,371.971,42.383,353.062,33.92,334.693z"/>
	<path d="M213.665-0.257c7.781,9.289,15.441,18.671,23.365,27.848c23.135,26.795,43.952,54.856,55.024,88.4
		c5.517,16.716,7.962,33.833,4.049,50.985c-6.171,27.048-22.639,46.154-52.204,54.919c11.322,31.268,14.164,61.94-7.761,90.209
		c-10.006,12.902-23.605,20.953-40.609,23.876c21.494-10.115,37.005-24.874,42.955-47.522c5.879-22.381-0.191-43.311-8.377-64.688
		c21.746-5.227,38.393-16.647,48.428-35.705c11.027-20.941,9.042-42.482,2.238-63.986c-10.087-31.879-29.176-59.031-50.618-84.828
		c-8.959-10.778-18.614-21.034-27.814-31.636c-2.076-2.392-3.572-5.236-5.335-7.872C202.56-0.257,208.112-0.257,213.665-0.257z"/>
	<path d="M221.032,217.499c22.669-8.602,34.188-25.665,38.887-47.324c4.789-22.071-1.477-42.846-10.369-62.969
		c-14.819-33.538-37.958-61.879-62.758-89.149c-5.416-5.955-10.475-12.202-15.698-18.314c5.553,0,11.105,0,16.658,0
		c18.569,22.796,38.311,44.833,55.391,68.591c18.728,26.049,31.126,54.83,29.766,87.451c-1.311,31.447-24.778,60.012-53.853,65.305
		c0.734-1.302,1.468-2.604,2.201-3.906L221.032,217.499z"/>
	<path d="M204.569,220.983c-17.406-2.368-29.349-12.638-39.266-25.24c-16.368-20.8-24.664-44.996-29.077-70.106
		c-4.793-27.27-7.143-54.917-11.346-82.292c-2.249-14.652-6.153-29.076-9.311-43.603c4.319,0,8.637,0,12.956,0
		c3.71,14.97,8.471,29.789,10.902,44.943c4.522,28.19,6.19,56.845,11.79,84.813C158.349,165.125,168.696,200.001,204.569,220.983z"
		/>
	<path d="M154.437-0.257c7.404,44.801,13.576,89.831,22.77,134.299c4.123,19.943,13.15,39.263,22.197,57.885
		c4.678,9.629,14.261,17.116,21.628,25.571l0.227-0.315c-3.955-1.204-8.408-1.675-11.78-3.736
		c-15.232-9.312-24.967-23.075-32.357-38.356c-16.802-34.745-20.423-72.113-24.792-109.499c-2.585-22.123-8.36-43.911-12.7-65.849
		C144.566-0.257,149.502-0.257,154.437-0.257z"/>
	<path d="M2.667,642.012c27.545,29.266,53.721,59.47,69.663,96.233c9.773,22.539,15.336,46.004,7.593,69.954
		c-3.422,10.584-10.492,20.227-16.773,29.784c-1.719,2.616-6.575,3.378-10.738,4.12c25.334-28.699,22.808-59.851,10.434-91.413
		c-13.237-33.762-34.702-62.86-60.179-89.375C2.667,654.881,2.667,648.446,2.667,642.012z"/>
	<path d="M2.667,127.846c14.96,10.475,16.443,26.143,18.668,41.885c4.409,31.191,8.74,62.432,14.722,93.37
		c3.79,19.598,12.712,37.715,25.531,53.858c1.156,1.455,0.993,3.852,1.442,5.811c-2.315-0.374-5.366,0.02-6.83-1.241
		c-14.261-12.292-22.873-28.034-29.44-44.898c-11.631-29.869-15.601-61.11-18.617-92.569c-1.129-11.779-3.611-23.442-5.477-35.157
		C2.667,141.885,2.667,134.865,2.667,127.846z"/>
	<path fill="#FFFFFF" d="M139.63-0.257c4.34,21.938,10.115,43.726,12.7,65.849c4.369,37.385,7.99,74.753,24.792,109.499
		c7.39,15.282,17.125,29.044,32.357,38.356c3.372,2.061,7.825,2.533,11.78,3.736c-0.734,1.302-1.468,2.604-2.201,3.906
		c0,0,0.3-0.352,0.3-0.352c-5.048-0.016-10.096-0.031-15.144-0.046l0.355,0.291c-35.872-20.982-46.219-55.858-53.352-91.484
		c-5.599-27.968-7.268-56.623-11.79-84.813c-2.431-15.155-7.192-29.973-10.902-44.943C132.227-0.257,135.929-0.257,139.63-0.257z"/>
	<path d="M374.544,106.631c4.678-0.52,9.878,0.039,13.953-1.731c32.525-14.119,48.144-44.8,40.872-79.8
		c-1.772-8.53-4.349-16.909-6.557-25.357c4.319,0,8.637,0,12.956,0c10.078,27.864,10.354,54.91-7.197,80.589
		c-9.462,13.844-23.329,21.97-39.846,27.385c10.842,30.988,13.815,61.077-7.121,89.186c-10.108,13.571-25.872,22.745-41.731,24.603
		c5.927-3.411,12.108-6.2,17.351-10.116c26.562-19.84,32.549-46.235,25.742-76.205C380.776,125.541,377.385,116.142,374.544,106.631
		z"/>
	<path d="M361.039,222.132c47.044-18.005,58.996-52.406,38.955-112.269c6.352-2.506,13.026-4.477,19.02-7.617
		c29.598-15.504,42.583-45.986,34.458-80.649c-1.731-7.383-4.375-14.574-6.599-21.853c4.936,0,9.871,0,14.807,0
		c1.691,15.831,6.219,31.951,4.466,47.431c-3.377,29.832-21.014,50.937-52.753,60.458c6.467,18.055,10.763,36.227,7.496,55.012
		c-4.736,27.232-19.342,47.544-47.57,57.343c-3.907,1.356-8.348,1.332-12.541,1.947L361.039,222.132z"/>
	<path d="M2.667,670.089c25.972,30.074,47.992,62.13,54.612,101.485c3.899,23.18-0.715,44.809-16.226,63.551
		c-2.957,3.573-7.987,5.606-12.234,8.466c5.896-13.202,12.52-24.71,16.174-37.011c5.267-17.732,0.626-35.372-5.541-52.307
		c-8.379-23.007-20.837-44.015-36.785-63.127C2.667,684.128,2.667,677.109,2.667,670.089z"/>
	<path fill="#FFFFFF" d="M33.92,334.693c8.463,18.369,13.992,37.277,11.984,57.615c-2.662,26.967-18.048,45.173-43.238,56.672
		c0-3.51,0-7.019,0-10.529c2.702-1.699,5.851-2.992,8.037-5.159c27.468-27.232,26.131-62.227,15.492-92.408
		c-0.551-1.562-2.697-3.106-4.461-3.709c-6.271-2.145-12.699-3.879-19.068-5.768c0-4.095,0-8.189,0-12.284
		c10.552,5.301,21.104,10.603,31.655,15.904L33.92,334.693z"/>
	<path d="M2.667,703.431c22.18,32.118,38.13,65.953,27.37,105.435c-2.67,9.796-9.192,18.878-15.199,27.502
		c-2.153,3.091-8.007,3.864-12.171,5.695c0-1.17,0-2.34,0-3.51c2.467-2.426,5.312-4.597,7.344-7.316
		c19.762-26.44,13.193-68.942-7.344-101.484C2.667,720.979,2.667,712.205,2.667,703.431z"/>
	<path d="M317.313-0.257c6.065,20.941,11.096,42.218,18.496,62.726c6.888,19.091,20.039,34.376,39.081,44.432
		c-18.8-2.555-31.362-13.847-41.678-27.64c-16.511-22.076-23.523-47.656-28.92-73.739c-0.406-1.962-1.181-3.855-1.785-5.779
		C307.442-0.257,312.378-0.257,317.313-0.257z"/>
	<path fill="#FFFFFF" d="M48.938-0.257c-0.272,32.538,13.305,60.683,31.44,87.17c8.186,11.957,17.791,23.034,26.445,34.715
		c3.034,4.095,5.148,8.803,7.682,13.231c-1.157,0.903-2.314,1.805-3.471,2.708c-1.05-1.93-1.755-4.139-3.201-5.749
		c-26.04-28.971-50.35-59.093-63.745-95.489c-4.295-11.668-5.491-24.361-8.105-36.585C40.301-0.257,44.62-0.257,48.938-0.257z"/>
	<path d="M343.225-0.257c4.943,38.421,15.286,74.672,45.352,103.977c-3.609-1.759-7.466-3.177-10.785-5.337
		c-14.709-9.57-25.281-22.795-31.068-38.352c-7.323-19.688-12.311-40.156-18.307-60.288C333.354-0.257,338.29-0.257,343.225-0.257z"
		/>
	<path fill="#FFFFFF" d="M2.667,482.322c5.563,11.547,12.546,22.689,16.358,34.734c5.755,18.184,9.297,36.998,13.78,55.545
		c-1.455,0.343-2.909,0.687-4.364,1.03c-6.589-23.558-13.179-47.116-19.768-70.674c-6.642,18.326-5.804,36.399,0.716,53.519
		c6.229,16.357,15.188,31.769,22.658,47.718c2.246,4.796,3.525,10,5.247,15.017c-1.113,0.48-2.226,0.959-3.338,1.439
		c-8.721-14.215-17.432-28.436-26.171-42.641c-1.649-2.68-3.408-5.298-5.117-7.945C2.667,540.817,2.667,511.569,2.667,482.322z"/>
	<path d="M367.287-0.257c5.238,33.173,13.818,65.163,36.399,92.198c-0.26,0.849-0.519,1.698-0.779,2.547
		c-2.805-0.711-6.869-0.547-8.208-2.278c-8.322-10.752-18.313-21.064-23.422-33.164c-8.06-19.087-12.705-39.47-18.796-59.304
		C357.415-0.257,362.351-0.257,367.287-0.257z"/>
	<path d="M2.667,331.406c6.369,1.89,12.796,3.624,19.068,5.768c1.764,0.603,3.91,2.147,4.461,3.709
		c10.639,30.181,11.976,65.176-15.492,92.408c-2.186,2.167-5.335,3.46-8.037,5.159c0-2.34,0-4.68,0-7.019
		c4.303-5.912,9.784-11.347,12.701-17.82c11.451-25.414,5.913-50.325-4.555-74.654c-0.884-2.055-5.346-2.727-8.146-4.041
		C2.667,333.746,2.667,332.576,2.667,331.406z"/>
	<path d="M559.776-0.257c14.344,35.49,6.389,73.964-20.612,94.494c-8.079,6.143-18.196,9.876-28.397,12.879
		c7.707-5.251,16.275-9.672,22.965-15.904c22.929-21.36,24.51-47.658,17.587-75.495c-1.334-5.362-2.991-10.651-4.498-15.974
		C551.139-0.257,555.458-0.257,559.776-0.257z"/>
	<path d="M511.654-0.257c1.582,8.282,3.415,16.529,4.702,24.851c5.474,35.374-14.439,69.484-47.004,80.706
		c-3.133,1.079-6.401,1.805-11.905,3.334c2.434-1.924,3.055-2.707,3.877-3.022c34.047-13.052,50.571-46.473,41.721-83.984
		c-1.738-7.365-4.116-14.594-6.198-21.885C501.783-0.257,506.718-0.257,511.654-0.257z"/>
	<path d="M535.715-0.257c7.513,25.057,9.902,49.903-3.686,73.995c-9.749,17.285-24.298,28.713-45.136,32.255
		c4.615-2.661,9.504-4.977,13.802-8.038c27.84-19.83,33.548-46.82,27.02-77.397c-1.512-7.083-4.499-13.884-6.807-20.815
		C525.844-0.257,530.78-0.257,535.715-0.257z"/>
	<path d="M585.688-0.257c4.492,17.929,8.493,35.945,3.665,54.376c-6.485,24.753-21.011,43.122-47.18,51.862
		c-1.14,0.381-2.356,0.607-3.557,0.752c-0.558,0.067-1.165-0.233-1.748-0.376c44.15-30.43,52.782-57.488,34.013-106.614
		C575.817-0.257,580.753-0.257,585.688-0.257z"/>
	<path fill="#FFFFFF" d="M2.667,334.916c2.8,1.314,7.261,1.986,8.146,4.041c10.468,24.329,16.006,49.24,4.555,74.654
		c-2.917,6.473-8.398,11.908-12.701,17.82c0-8.189,0-16.378,0-24.568c8.789-19.888,7.175-39.776,0-59.664
		C2.667,343.105,2.667,339.011,2.667,334.916z"/>
	<path d="M391.348-0.257c5.126,24.253,10.199,48.521,22.308,70.796c3.484,6.408,3.486,6.407-2.485,14.05
		c-4.25-6.399-8.763-12.09-12.056-18.357c-11.022-20.971-18.4-43.042-20.723-66.489C382.71-0.257,387.029-0.257,391.348-0.257z"/>
	<path fill="#FFFFFF" d="M72.999-0.257c1.466,30.499,12.669,57.856,29.389,83.588c2.682,4.128,3.183,9.53,3.56,14.697
		C82.172,68.717,63.979,37.202,60.043-0.257C64.362-0.257,68.681-0.257,72.999-0.257z"/>
	<path d="M2.667,229.626c3.093,12.422,5.629,24.997,9.396,37.233c7.376,23.958,17.115,46.815,37.839,64.815
		c-2.742-0.889-5.777-1.329-8.178-2.741c-15.731-9.249-25.801-23.017-33.629-38.525c-1.691-3.351-3.613-6.597-5.428-9.892
		C2.667,263.553,2.667,246.59,2.667,229.626z"/>
	<path fill="#FFFFFF" d="M2.667,729.754c20.537,32.542,27.106,75.044,7.344,101.484c-2.032,2.718-4.876,4.89-7.344,7.316
		c0-15.793,0-31.587,0-47.38c3.403,7.006,6.805,14.013,10.208,21.019c0.85-0.24,1.7-0.481,2.549-0.721
		c3.724-24.305-3.684-46.99-12.757-69.433C2.667,737.943,2.667,733.848,2.667,729.754z"/>
	<path d="M417.26-0.257c2.552,12.561,5.681,25.051,7.445,37.711c1.12,8.035,0.209,16.325-1.33,24.553
		c-11.68-19.681-17.395-40.657-20.922-62.263C407.389-0.257,412.324-0.257,417.26-0.257z"/>
	<path d="M2.667,742.037c9.073,22.443,16.481,45.128,12.757,69.433c-0.85,0.24-1.7,0.481-2.549,0.721
		c-3.403-7.006-6.805-14.013-10.208-21.019C2.667,774.794,2.667,758.416,2.667,742.037z"/>
	<path fill="#FFFFFF" d="M2.667,598.141c14.135,19.09,28.27,38.18,42.405,57.27c-0.997,0.725-1.994,1.45-2.99,2.175
		c-4.393-4.797-8.883-9.518-13.153-14.412c-4.71-5.399-9.316-10.886-13.786-16.465c-4.28-5.341-8.327-10.85-12.476-16.285
		C2.667,606.33,2.667,602.236,2.667,598.141z"/>
	<path fill="#FFFFFF" d="M91.508-0.257c3.473,16.76,6.945,33.52,10.418,50.279C90.669,34.725,88.032,17.044,84.105-0.257
		C86.572-0.257,89.04-0.257,91.508-0.257z"/>
	<path d="M2.667,347.2c7.175,19.888,8.789,39.776,0,59.664C2.667,386.976,2.667,367.088,2.667,347.2z"/>
	<path d="M34.322,335.027c-10.552-5.301-21.104-10.603-31.655-15.904c0-4.68,0-9.359,0-14.039
		C13.218,315.065,23.77,325.046,34.322,335.027z"/>
	<path fill="#FFFFFF" d="M271.042-0.257c4.417,6.849,8.834,13.698,13.251,20.547c-0.921,0.592-1.842,1.184-2.763,1.776
		c-6.581-7.441-13.161-14.882-19.742-22.324C264.872-0.257,267.957-0.257,271.042-0.257z"/>
	<path d="M242.194,742.94c30.855-8.901,51.545-37.968,48.33-69.669c-1.196-11.792-4.625-23.462-7.941-34.953
		c-2.671-9.255-3.275-9.099-14.622-12.181c11.928,32.16,15.941,63.519-6.193,92.907c-9.573,12.711-23.555,21.038-42.004,24.743
		c2.267-1.587,3.114-2.361,4.115-2.854c32.314-15.918,46.931-42.92,41.051-76.822c-3.999-23.055-12.397-44.698-27.033-63.602
		c-23.302-30.099-47.481-59.588-70.851-89.641c-19.138-24.611-35.168-50.823-41.196-81.431c-5.519-28.022-0.47-53.511,21.271-74.54
		c1.682-1.627,4.836-1.886,7.306-2.78c-0.84,2.35-1.065,5.173-2.613,6.977c-18.024,21.014-19.326,44.905-12.924,69.756
		c8.668,33.642,28.256,61.955,50.208,88.932c7.302,8.974,15.173,17.533,22.783,26.281c0.746-0.419,1.491-0.837,2.237-1.256
		c-2.54-4.593-4.399-9.697-7.731-13.696c-22.078-26.494-42.266-53.978-52.474-86.866c-7.856-25.31-8.21-50.125,6.478-73.693
		c0.893-1.433,2.001-2.745,5.381-4.063c0.473,2.987,2.298,6.54,1.211,8.874c-11.443,24.574-7,48.563,2.241,72.444
		c8.428,21.781,20.947,41.386,35.255,60.015c0.836-0.32,1.672-0.639,2.508-0.959c-2.113-5.583-3.396-11.622-6.482-16.669
		c-13.568-22.189-24.911-45.116-26.61-71.141c-0.611-9.362,0.716-18.837,1.158-28.261c1.078-0.056,2.157-0.113,3.235-0.169
		c6.386,23.095,12.771,46.19,19.157,69.285c0.567-38.13-17.326-104.673-58.404-121.164c9.12,2.736,18.24,5.473,27.648,8.296
		c-0.527,4.809,0.515,9.027,8.855,6.719c1.087-0.301,3.954,1.926,4.394,3.41c1.139,3.835,1.382,7.909,2.201,13.338
		c3.849-1.922,5.47-2.731,7.429-3.709c1.132,1.74,3.623,4.035,3.137,5.062c-4.148,8.754,2.512,14.986,5.418,21.91
		c13.621,32.446,17.916,66.56,21.134,100.961c3.141,33.572,8.36,66.914,24.762,97.302c5.908,10.946,14.929,20.532,23.472,29.973
		c3.392,3.748,9.238,7.43,14.144,7.654c14.525,0.662,15.544,10.493,17.797,20.157c7.279,31.217,2.469,59.487-23.564,81.804
		c-9.306,7.978-20.007,14.761-33.865,13.218L242.194,742.94z"/>
	<path d="M310.533,221.893c8.368,3.037,16.736,6.075,25.708,9.331c-0.074,4.123,0.628,9.034,9.229,6.084
		c0.563-0.193,3.581,3.018,3.373,4.356c-0.926,5.982,1.745,8.577,8.579,9.394c1.755,0.21,3.542,4.204,4.321,6.734
		c1.026,3.333,0.2,7.314,1.672,10.366c15.203,31.519,21.163,65.033,24.228,99.172c2.823,31.446,6.972,62.639,18.466,92.506
		c8.488,22.054,20.187,41.876,42.835,53.832l-0.448,0.439c-3.251-0.624-6.502-1.248-10.086-1.936
		c2.591,10.471,5.664,20.721,7.61,31.16c5.829,31.28-7.814,62.684-33.936,77.841c-6.652,3.86-14.278,6.211-22.321,7.659
		c0.773-0.58,1.47-1.3,2.331-1.719c35.958-17.5,50.273-47.518,40.882-85.46c-9.706-39.214-33.874-70.836-59.221-101.853
		c-16.779-20.532-34.508-40.435-50.128-61.73c-15.574-21.232-26.255-44.903-29.607-70.986c-3.19-24.818,3.282-46.939,21.319-65.517
		c1.932-1.99,5.332-2.698,8.051-4c-0.828,2.608-0.944,5.744-2.593,7.743c-18.003,21.822-18.853,46.148-11.76,71.534
		c9.677,34.638,30.426,63.547,53.399,91.221c5.876,7.078,12.143,13.865,18.23,20.785c0.814-0.425,1.629-0.851,2.443-1.276
		c-2.471-4.455-4.276-9.412-7.522-13.283c-21.581-25.739-41.144-52.571-51.533-84.382c-8.613-26.374-9.147-52.296,6.523-76.892
		c0.626-0.983,1.452-1.852,4.204-5.316c0.845,5.286,2.716,8.93,1.617,11.373c-9.497,21.109-7.682,42.195-0.874,63.401
		c8.145,25.37,22.296,47.682,38.455,68.962c0.809-0.274,1.618-0.547,2.426-0.821c-1.958-5.402-3.071-11.264-6.017-16.128
		c-15.186-25.075-27.705-50.857-27.28-80.632c0.042-2.921,0.036-5.863,0.413-8.753c0.453-3.463,1.294-6.881,2.453-12.805
		c12.049,24.298,9.498,50.838,25.086,73.694c-4.936-32.306-10.801-62.31-26.794-89.588c-7.94-13.541-18.034-25.083-33.584-31.382
		c-0.32-0.13,0.109-1.923,0.152-2.967C310.8,222.03,310.533,221.893,310.533,221.893z"/>
	<path d="M504.234,133.384c0.966,5.031,2.95,8.59,1.889,10.881c-11.214,24.226-8.355,48.424,2.006,71.537
		c9.561,21.329,21.926,41.529,33.056,62.226c1.544-0.629,3.087-1.259,4.631-1.888c-1.837-5.24-2.784-10.975-5.663-15.637
		c-14.303-23.167-26.016-47.165-27.401-74.465c-0.436-8.594,0.942-17.27,1.49-25.908c0.993-0.077,1.987-0.154,2.981-0.231
		c6.398,23.007,12.797,46.013,19.196,69.02c1.297-0.431,2.594-0.863,3.892-1.294c-9.457-44.492-13.751-91.322-62.613-119.508
		c9.994,2.883,18.638,5.376,28.147,8.119c0.78,3.342-0.217,10.646,9.595,6.65c0.672-0.274,3.222,1.633,3.509,2.826
		c1.008,4.188,1.407,8.507,1.983,12.402c4.441-0.604,7.829-1.701,8.303-1.008c1.321,1.933,1.645,4.584,1.966,6.999
		c0.324,2.432-0.68,5.314,0.354,7.328c18.032,35.119,23.081,72.932,26.532,111.193c2.761,30.616,7.838,60.877,20.356,89.528
		c2.703,6.187,5.164,12.849,9.513,17.925c7.791,9.092,7.442,19.047,6.622,29.962c-7.109-11.355-13.238-22.678-20.871-33.001
		c-14.115-19.091-28.359-38.181-43.912-56.215c-25.288-29.322-49.365-59.192-61.256-96.024c-8.006-24.798-9.097-49.539,5.046-72.974
		c3.626-6.007,8.632-11.335,13.512-16.548c1.383-1.477,4.559-1.446,7.485-0.97c-23.393,25.888-24.188,54.338-14.252,84.138
		c13.778,41.32,41.247,74.556,70.509,106.644c0.838-0.459,1.676-0.917,2.513-1.376c-3.195-5.203-5.781-10.863-9.686-15.532
		c-22.159-26.492-41.891-54.257-51.551-87.303c-7.26-24.837-6.93-49.112,7.913-71.848
		C500.814,137.827,501.748,136.711,504.234,133.384z"/>
	<path d="M485.006,834.975c-2.796-4.611-5.03-9.645-8.48-13.763c-22.357-26.688-42.417-54.569-52.357-87.867
		c-7.889-26.427-7.016-51.868,12.153-75.833c0.528,3.021,2.434,6.599,1.366,8.974c-8.944,19.877-7.857,39.895-1.88,60.072
		c7.847,26.487,22.41,49.674,39.042,71.818c0.895-0.323,1.789-0.646,2.684-0.968c-1.937-5.259-3.071-10.955-5.948-15.702
		c-13.932-22.993-25.817-46.626-26.873-73.722c-0.337-8.645,0.738-17.339,1.168-26.01c1.057-0.119,2.114-0.237,3.171-0.356
		c6.483,23.313,12.966,46.627,19.45,69.94c0.444-41.498-19.41-104.244-54.547-120.788c4.396,1.805,8.673,3.987,13.229,5.289
		c3.294,0.941,6.96,0.715,10.483,1.011c-0.548,5.521,0.581,9.529,8.399,8.101c1.233-0.225,4.382,2.309,4.317,3.447
		c-0.437,7.581,0.256,8.048,8.783,9.581c1.784,0.321,3.201,4.677,3.94,7.382c0.699,2.56-0.643,5.822,0.5,8.041
		c16.681,32.375,21.831,67.275,25.745,102.526c2.413,21.733,5.508,43.398,8.394,65.85c-7.609,0-15.876,0.157-24.127-0.121
		c-1.85-0.062-4.131-1.236-5.39-2.588c-28.913-31.04-55.569-63.529-68.282-104.032c-9.254-29.483-7.898-57.799,13.53-82.942
		c2.119-2.487,4.533-4.828,7.178-6.79c0.989-0.733,3.031-0.19,4.593-0.228c-0.092,1.488,0.447,3.49-0.367,4.389
		c-25.909,28.608-21.435,59.997-8.649,91.604c14.664,36.25,39.527,66.318,66.109,95.177
		C483.228,835.969,484.117,835.472,485.006,834.975z"/>
	<path d="M167.439,336.562c7.862,2.988,15.724,5.975,24.083,9.152c-0.616,3.73,0.468,8.229,7.95,6.452
		c5.517-1.311,5.475,0.35,4.436,4.577c-1.327,5.398,2.445,8.15,8.587,8.793c1.775,0.186,3.522,4.59,4.4,7.315
		c0.809,2.511-0.435,5.765,0.712,8.008c16.964,33.177,22.414,68.839,25.672,105c3.046,33.809,8.001,67.274,22.45,98.699
		c7.844,17.06,17.765,33.039,36.404,41.418c4.931,2.217,11.412,1.333,17.182,1.873c2.525,16.634,7.389,33.31,7.05,49.891
		c-0.574,27.99-14.916,49.478-42.218,61.997c-4.039,1.852-8.494,2.888-13.859,4.667c0.976-1.639,1.105-2.227,1.447-2.376
		c38.222-16.696,50.709-51.69,40.497-88.738c-0.544-1.972-1.098-3.942-1.595-5.925c-2.675-10.668-6.856-18.642-19.574-23.342
		c-19.205-7.098-30.108-23.484-38.59-40.773c-15.575-31.744-20.907-65.748-24-100.202c-3.171-35.313-8.219-70.247-23.919-102.911
		c-8.753-18.211-20.495-33.984-42.069-42.185C164.853,337.287,166.146,336.924,167.439,336.562z"/>
	<path d="M360.78,221.935c7.784,3.061,15.569,6.122,24.463,9.62c0.07,4.6,2.887,8.429,9.422,6.436
		c4.016,6.715,7.636,13.081,11.559,19.273c18.858,29.766,25.644,62.908,29.47,96.701c3.843,33.938,6.252,68.035,18.067,100.679
		c7.281,20.116,16.501,39.01,34.547,52.77c0.564,0.43,0.595,1.49,1.909,5.099c-6.415-3.499-11.032-5.415-14.915-8.238
		c-19.981-14.52-29.955-35.135-37.579-56.987c-10.922-31.303-13.411-63.945-16.84-96.467c-2.946-27.939-8.409-55.447-20.309-81.406
		c-8.985-19.6-20.617-37.135-43.657-45.643c2.001-0.762,3.09-1.176,4.151-1.616C361.039,222.132,360.78,221.935,360.78,221.935z"/>
	<path d="M593.029,357.523c-12.359-23.489-18.156-48.756-22.2-74.519c-5.43-34.595-10.345-69.281-16.816-103.702
		c-2.118-11.268-7.749-22.121-12.932-32.651c-7.26-14.75-17.763-27.195-32.696-36.697c7.181,1.997,14.361,3.994,22.233,6.184
		c0.358,3.691-0.239,9.69,8.704,7.143c0.654-0.186,3.551,3.086,3.357,4.497c-0.701,5.102,3.065,8.639,8.648,9.18
		c1.819,0.176,3.752,4.288,4.615,6.902c0.826,2.503-0.596,5.83,0.556,8.056c16.45,31.791,21.59,66.056,25.607,100.707
		c2.553,22.017,6.62,43.873,9.678,65.843c1.788,12.846,2.923,25.773,4.352,38.664C595.1,357.261,594.065,357.392,593.029,357.523z"
		/>
	<path d="M437.29,629.443c7.983,3.041,15.967,6.082,25.43,9.686c0.632,2.344-0.732,10.112,9.217,5.398
		c0.342-0.162,3.478,2.883,3.352,4.274c-0.658,7.282,0.97,8.869,8.396,9.649c1.71,0.18,3.519,4.246,4.244,6.789
		c0.719,2.523-0.867,5.847,0.264,8.024c15.49,29.823,21.094,61.954,25.069,94.49c2.999,24.547,5.975,49.097,8.992,73.901
		c-2.969,0-6.904,0-12.952,0c-2.894-17.681-6.604-35.609-8.618-53.707c-3.487-31.328-5.943-62.785-16.549-92.916
		c-3.392-9.637-7.251-19.238-12.085-28.284c-8.53-15.964-20.227-29.303-40.556-36.177c3.287-0.463,4.698-0.662,6.104-0.865
		C437.591,629.701,437.29,629.443,437.29,629.443z"/>
	<path d="M463.315,631.222c7.66,2.266,15.32,4.533,22.981,6.799c-0.402,0.323-0.804,0.646-1.207,0.969
		c3.642,2.856,7.285,5.711,12.469,9.776c2.422,3.855,6.161,9.878,9.974,15.86c16.757,26.286,23.852,55.493,28.045,85.417
		c4.25,30.339,7.662,60.784,11.45,91.251c-11.945,1.948-12.762,1.972-14.555-9.857c-4.246-28.005-6.841-56.258-11.871-84.124
		c-3.874-21.463-9.263-42.839-16.13-63.614C497.369,662.218,485.066,643.42,463.315,631.222z"/>
	<path d="M501.321,502.945c-20.085-13.001-29.702-31.108-36.986-50.506c-10.407-27.714-13.927-56.69-17.309-85.743
		c-2.324-19.967-6.091-39.784-9.178-59.672c-0.172-1.111-0.022-2.267-0.022-4.492c10.243,10.423,19.161,19.611,20.667,34.445
		c3.092,30.465,7.249,60.893,12.642,91.068c4.392,24.576,13.302,47.91,29.641,68.128
		C501.992,497.679,501.187,500.653,501.321,502.945z"/>
	<path d="M468.956,337.774c10.313,10.887,17.67,20.162,18.57,33.948c2.465,37.752,8.867,74.81,27.19,109.176
		c1.348,2.528-0.983,6.818-2.94,10.201C476.36,445.64,475.202,392.22,468.956,337.774z"/>
	<path d="M571.829,841.651c-3.498,0-7.416,0-13.695,0c-6.052-43.332-12.116-86.757-18.192-130.263
		c11.786,9.632,18.951,20.859,20.353,36.377C563.105,778.847,567.801,809.776,571.829,841.651z"/>
	<path d="M594.756,530.476c-0.577,2.159-0.484,4.835-1.83,6.4c-22.093,25.679-19.69,53.938-9.994,82.988
		c1.39,4.163,2.593,8.566,4.982,12.21c7.616,11.616,7.821,24.237,4.939,38.061c-5.537-10.375-11.676-20.506-16.486-31.176
		c-10.462-23.205-16.482-47.163-9.102-72.406c4.281-14.644,12.066-27.332,24.828-36.855
		C592.98,529.957,593.868,530.216,594.756,530.476z"/>
	<path d="M528.202,108.301c8.718,2.654,17.437,5.309,26.482,8.063c-0.012,5.876,3.067,9.187,9.492,7.239
		c5.257,8.854,10.355,17.212,15.224,25.688c9.826,17.105,16.695,34.736,15.72,54.917c-1.039,21.502-0.234,43.084-0.234,62.499
		c-4.084-24.524-7.733-51.135-13.221-77.4c-2.721-13.022-8.07-25.712-13.573-38.011C559.848,132.869,547.66,117.337,528.202,108.301
		z"/>
	<path d="M242.005,742.841c8.314,3.394,16.627,6.788,24.941,10.181c1.79,3.014,0.692,10.042,10.451,5.985
		c0.85-0.353,2.923,1.938,4.427,3.001c-6.262,6.627,3.263,8.292,3.178,13.633c2.697-1.85,4.072-2.793,6.098-4.183
		c1.104,2.712,2.396,4.976,2.928,7.39c0.993,4.507,0.91,9.296,2.391,13.624c5.478,16,11.411,31.859,17.605,48.964
		c-6.502,0-10.636,0-15.027,0c-10.572-37.225-17.475-76.595-59.389-96.518c0.89-0.636,1.78-1.273,2.628-1.944
		C242.194,742.94,242.005,742.841,242.005,742.841z"/>
	<path d="M264.319,743.914c9.327,2.873,18.655,5.746,28.524,8.786c0.123,4.231,0.154,10.1,9.511,6.451
		c0.675-0.263,3.283,1.952,3.651,3.335c1.038,3.906,1.378,7.98,2.035,12.26c8.2-2.716,11.145-0.485,10.723,5.184
		c-0.257,3.452,0.113,7.192,1.287,10.451c6.023,16.719,12.398,33.323,19.073,51.093c-6.319,0-10.46,0-15.262,0
		C313.109,804.575,306.551,764.713,264.319,743.914z"/>
	<path d="M204.214,220.692c5.048,0.015,10.096,0.031,15.144,0.046c2.676,13.059,6.555,26.016,7.793,39.197
		c3.104,33.051-16.455,63.345-46.597,73.869c-4.237,1.48-8.857,1.976-13.299,2.927c25.234-10.006,42.58-26.59,47.47-52.818
		c3.12-16.736,0.241-33.163-5.278-49.192C207.822,230.008,205.964,225.366,204.214,220.692z"/>
	<path d="M448.945,513.669c12.945-0.48,17.508,6.776,19.86,17.672c6.022,27.892,4.212,54.113-15.844,76.981
		c-9.724,11.088-22.193,18.06-37.668,19.947c3.318-1.703,6.699-3.304,9.944-5.125c29.075-16.31,41.232-47.023,32.204-82.444
		c-2.299-9.02-5.926-17.737-8.943-26.592L448.945,513.669z"/>
	<path d="M571.395,747.372c8.104,8.604,16.489,16.169,17.051,29.341c0.767,17.967,4.237,35.826,6.384,53.749
		c0.41,3.425,0.059,6.931,0.059,11.056c-3.386,0.199-6.288,0.37-9.891,0.582C575.366,810.981,574.427,779.098,571.395,747.372z"/>
	<path d="M292.264,742.904c7.776,3.496,15.552,6.993,24.141,10.855c-4.134,9.224,14.551,3.118,14.456,14.472
		c-0.061,7.344,9.575,14.446,13.676,22.221c4.242,8.041,7.401,16.652,10.379,25.219c2.87,8.257,4.904,16.776,7.501,25.861
		c-5.178,0-9.359,0-13.788,0c-10.73-37.308-17.651-76.757-59.816-96.763c1.071-0.468,2.394-1.045,3.681-1.66
		C292.458,743.073,292.264,742.904,292.264,742.904z"/>
	<path d="M521.506,469.928c-14.63-29.733-20.242-60.792-23.721-93.048C517.156,396.48,531.155,450.843,521.506,469.928z"/>
	<path d="M593.215,113.436c-2.084-5.398-4.168-10.797-6.546-16.956c-2.925,1.796-5.603,3.44-9.147,5.615
		c4.558,9.018,9.793,17.315,12.982,26.266c3.131,8.787,4.183,18.239,6.148,27.4c-1.167,0.413-2.334,0.827-3.501,1.24
		c-4.623-7.172-9.59-14.169-13.775-21.564c-4.342-7.673-7.784-15.8-11.93-23.58c-1.27-2.384-3.561-4.279-4.432-5.29
		c10.198-8.077,20.866-16.527,31.32-24.807c0,9.788,0,20.66,0,31.532C593.962,113.34,593.589,113.388,593.215,113.436z"/>
	<path d="M255.014,757.111c0.395,3.041,1.568,5.646,0.726,6.536c-21.71,22.933-21.836,49.458-14.36,77.816
		c-4.169,0-8.001,0-11.913,0C217.252,812.03,230.755,774.112,255.014,757.111z"/>
	<path d="M266.247,841.713c-4.93,0-8.555,0-12.994,0c-6.142-24.741-4.106-48.133,12.495-71.682c1.465,4.104,3.982,7.415,3.097,9.249
		C259.099,799.471,260.422,820.036,266.247,841.713z"/>
	<path d="M280.309,796.275c3.632,14.962,7.264,29.925,11.022,45.408c-4.861,0-8.782,0-14.637,0c0-15.134,0-29.998,0-44.863
		C277.899,796.638,279.104,796.456,280.309,796.275z"/>
	<path d="M594.698,562.385c0,18.633,0,37.267,0,55.9C588.008,599.773,587.057,581.194,594.698,562.385z"/>
	<path d="M594.524,489.923c0.813,10.915-15.219,22.564-32.973,24.49C571.208,507.241,582.883,498.569,594.524,489.923z"/>
	<path d="M370.331,824.802c4.815,5.276,9.629,10.552,15.277,16.741c-4.794,0-8.234,0-12.54,0
		c-1.296-5.183-2.653-10.616-4.011-16.048C369.481,825.264,369.906,825.033,370.331,824.802z"/>
	<path d="M147.284,741.598c-0.392-0.921-0.508-2.339-1.215-2.69c-21.237-10.543-32.936-28.483-41.721-48.552
		c-12.417-28.368-17.468-58.315-20.216-88.67c-3.276-36.179-7.837-72.082-23.628-105.711c-8.699-18.527-20.297-34.726-40.433-44.454
		c8.554,2.602,17.108,5.205,26.092,7.938c-0.256,6.473,4.218,8.755,9.632,7.692c3.728,6.229,6.725,11.677,10.145,16.875
		C81.233,507.259,89.06,533,93.251,559.713c4.893,31.182,7.656,62.693,13.427,93.713c3.118,16.756,9.105,33.426,16.575,48.932
		c5.605,11.635,15.147,21.742,23.963,31.714c3.144,3.556,2.557,4.976,0.033,7.52C147.228,741.6,147.284,741.598,147.284,741.598z"/>
	<path d="M99.835,532.897c23.205,15.464,19.575,40.38,23.116,62.969c3.612,23.046,6.391,46.25,11.156,69.081
		c4.499,21.557,13.013,41.905,27.349,59.67c1.084,1.344,0.61,3.818,0.861,5.766c-2.089-0.376-5.23-0.054-6.105-1.237
		c-8.937-12.082-19.244-23.63-25.822-36.827c-14.646-29.383-18.385-61.464-22.003-93.435
		C105.867,576.613,102.648,554.414,99.835,532.897z"/>
	<path d="M170.658,719.261c-33.207-45.223-34.615-98.254-39.48-150.704c6.108,7.97,15.302,13.542,16.28,25.151
		c2.796,33.185,6.902,66.222,19.797,97.592c2.229,5.422,5.526,10.507,7.2,16.054c1.111,3.682,0.211,7.91,0.211,11.894
		C173.33,719.252,171.994,719.256,170.658,719.261z"/>
	<path d="M159.643,606.217c20.195,27.78,27.107,58.535,24.132,91.552C167.727,669.116,162.462,637.924,159.643,606.217z"/>
	<path d="M322.005,623.725c-5.034-1.383-10.857-1.675-14.964-4.343c-15.792-10.259-25.166-25.381-32.472-41.73
		c-14.382-32.187-18.872-66.328-21.957-100.748c-2.483-27.706-6.906-55.082-16.737-81.424
		c-8.128-21.778-18.866-41.887-40.019-56.308c6.355,1.923,12.71,3.846,20.085,6.078c0.438,3.493,0.894,8.763,8.668,7.049
		c0.791-0.174,2.384,0.608,2.743,1.332c8.494,17.082,18.094,33.787,24.993,51.439c11.55,29.552,13.803,60.918,16.869,92.05
		c2.9,29.451,8.286,58.461,20.534,85.903c7.156,16.033,16.511,30.67,32.171,40.751C321.935,623.763,322.005,623.725,322.005,623.725
		z"/>
	<path d="M334.112,613.635c-4.665,6.654-7.775,2.009-10.503-0.554c-15.263-14.336-23.916-32.276-30.529-51.276
		c-10.303-29.601-13.181-60.374-16.476-91.137c-1.913-17.857-5.227-35.58-7.78-52.498c20.07,12.289,20.582,33.229,22.547,53.455
		c3.047,31.365,5.989,62.704,16.111,92.978C313.383,582.253,321.009,598.989,334.112,613.635z"/>
	<path d="M341.117,606.211c-34.147-46.472-35.599-99.73-41.35-151.924c8.909,5.084,16.766,17.547,17.504,27.143
		c2.578,33.516,7.466,66.617,20.523,98.162c1.791,4.328,3.888,8.555,6.074,12.72C347.275,598.807,347.358,598.767,341.117,606.211z"
		/>
	<path d="M329.366,492.323c19.694,27.513,26.82,58.054,24.242,90.922C337.046,555.034,332.247,523.923,329.366,492.323z"/>
	<path d="M168.991,10.729c18.753,11.742,20.029,30.796,22.548,49.725c3.805,28.592,7.615,57.235,13.18,85.546
		c4.072,20.711,12.985,40.038,26.819,56.994c1.075,1.317,0.585,3.782,0.822,5.714c-2.276-0.514-5.224-0.336-6.725-1.647
		c-16.582-14.491-25.539-33.23-32.395-53.121c-10.506-30.484-13.131-62.179-16.635-93.789
		C174.752,43.425,171.518,26.839,168.991,10.729z"/>
	<path d="M240.83,197.894c-33.644-45.402-34.89-98.787-39.899-151.43c7.205,9.074,16.157,16.2,17.071,29.711
		c2.589,38.272,8.681,76.042,27.116,111.024c1.467,2.783-0.164,7.034-0.356,10.603C243.452,197.833,242.141,197.864,240.83,197.894z
		"/>
	<path d="M229.507,84.552c20.101,27.618,27.212,58.374,24.305,91.5C237.448,147.579,232.424,116.354,229.507,84.552z"/>
	<path d="M30.423,159.546c11.506,10.989,17.771,21.709,18.71,36.235c2.361,36.535,8.888,72.372,26.48,105.649
		c1.485,2.81,0.197,6.938-1.858,10.644C37.617,267.083,36.506,213.608,30.423,159.546z"/>
	<path d="M84.15,290.403c-15.714-28.837-21.718-59.61-23.913-91.223C80.407,226.885,86.966,257.682,84.15,290.403z"/>
</g>
<rect x="-9.672" y="-13.179" opacity="0.9" fill="#ECB62D" width="614.623" height="864.114"/>
</svg>
