<?xml version="1.0" encoding="utf-8"?>
<!-- Generator: Adobe Illustrator 17.1.0, SVG Export Plug-In . SVG Version: 6.00 Build 0)  -->
<!DOCTYPE svg PUBLIC "-//W3C//DTD SVG 1.1//EN" "http://www.w3.org/Graphics/SVG/1.1/DTD/svg11.dtd">
<svg version="1.1" id="Calque_1" xmlns="http://www.w3.org/2000/svg" xmlns:xlink="http://www.w3.org/1999/xlink" x="0px" y="0px"
	 viewBox="0 0 595.28 841.89" enable-background="new 0 0 595.28 841.89" xml:space="preserve">
<g>
	<path d="M600.491,608.995c0,5.376,0,10.752,0,16.128c-1.929-1.751-4.053-3.27-5.757-5.287
		c-33.329-39.433-66.636-78.892-99.882-118.421c-10.764-12.798-21.344-25.812-32.133-38.88
		c-37.329,44.084-73.532,86.838-108.731,128.406c-34.83-40.966-69.628-81.894-105.54-124.133
		c32.048-37.525,64.411-75.42,97.295-113.924c-24.467-28.727-48.571-57.029-73.421-86.206
		c32.891-38.589,65.216-76.515,97.729-114.66c-2.006-2.621-3.276-4.428-4.673-6.085c-32.407-38.441-64.882-76.801-97.216-115.329
		c-11.475-13.673-22.609-27.747-33.899-41.637c4.54,0,9.08,0,13.62,0c1.076,1.598,2.034,3.335,3.246,4.772
		c33.472,39.701,66.928,79.42,100.486,119.017c10.793,12.736,21.868,25.137,33.929,38.97
		c-33.576,39.345-65.923,77.249-97.781,114.582c21.96,26.014,43.65,51.706,66.124,78.329
		c35.933-42.651,72.136-85.621,108.572-128.869c2.084,2.324,3.943,4.292,5.704,6.377c29.582,35.029,59.103,70.131,88.744,105.089
		c14.415,17,29.05,33.737,43.586,50.593c0,5.973,0,11.947,0,17.92c-46.03-54.327-92.06-108.654-137.47-162.25
		c-66.629,78.64-133.145,157.148-199.376,235.318c29.795,35.177,59.714,70.5,90.36,106.682
		c35.929-42.523,72.195-85.445,108.616-128.55c1.015,1.089,1.972,2.03,2.847,3.068c30.101,35.702,60.14,71.478,90.312,107.096
		C570.557,574.557,585.58,591.71,600.491,608.995z"/>
	<path fill="#FFFFFF" d="M234.261-11.032c11.29,13.891,22.425,27.964,33.899,41.637c32.333,38.528,64.809,76.888,97.216,115.329
		c1.397,1.657,2.668,3.464,4.673,6.085c-32.512,38.145-64.838,76.071-97.729,114.66c24.85,29.177,48.954,57.478,73.421,86.206
		c-32.884,38.504-65.247,76.398-97.295,113.924c35.912,42.239,70.71,83.167,105.54,124.133
		c35.199-41.568,71.402-84.322,108.731-128.406c10.79,13.067,21.37,26.082,32.133,38.88c33.247,39.53,66.554,78.988,99.882,118.421
		c1.704,2.017,3.829,3.536,5.757,5.287c0,4.181,0,8.363,0,12.544c-1.357-1.256-2.843-2.36-4.052-3.791
		c-29.593-35.035-59.172-70.086-88.718-105.176c-14.914-17.713-29.757-35.509-44.71-53.361
		c-36.882,43.637-73.175,86.577-110.499,130.738c-36.987-43.913-73.351-87.087-110.205-130.843
		c-36.384,43.059-72.551,85.862-108.957,128.947c-1.34-1.373-2.918-2.794-4.305-4.439c-32.773-38.854-65.474-77.792-98.31-116.571
		c-11.188-13.213-22.703-26.037-34.069-39.038c0-4.181,0-8.363,0-12.544c1.173,1.044,2.473,1.937,3.501,3.153
		c22.477,26.573,44.927,53.177,67.375,79.784c21.894,25.95,43.781,51.909,65.215,77.324
		c67.591-79.766,134.841-159.13,203.048-239.622c-24.294-28.47-48.586-56.938-73.589-86.239
		c32.626-38.394,64.932-76.409,97.711-114.982c-32.519-38.335-64.723-76.164-96.786-114.16
		c-13.312-15.775-26.323-31.907-39.471-47.876C227.199-11.032,230.73-11.032,234.261-11.032z"/>
	<path fill="#FFFFFF" d="M-3.335,241.638c0-4.181,0-8.363,0-12.544c0.973,0.89,2.042,1.665,2.904,2.685
		c28.148,33.328,56.292,66.662,84.401,100.036c16.474,19.559,32.887,39.19,48.524,57.831
		c67.866-80.084,135.094-159.417,202.708-239.203c-28.288-33.369-56.728-66.759-85.01-100.336
		c-17.04-20.23-33.833-40.75-50.738-61.139c3.531,0,7.062,0,10.593,0c1.179,1.837,2.198,3.862,3.56,5.482
		c28.991,34.454,57.971,68.921,87.063,103.254c14.956,17.65,30.126,35.045,45.906,53.376
		c-33.253,39.103-65.55,77.082-98.888,116.285c24.95,29.001,49.309,57.316,73.638,85.596
		c-63.119,74.516-125.543,148.211-188.254,222.245c-1.281-1.409-2.969-3.146-4.546-5.015C91.66,526.483,54.84,482.72,17.917,439.082
		c-6.873-8.123-14.157-15.76-21.251-23.621c0-4.181,0-8.363,0-12.544c1.382,1.182,2.93,2.166,4.121,3.574
		c20.691,24.462,41.329,48.988,61.997,73.477c23.499,27.843,47.016,55.663,69.511,82.292
		c59.417-70.1,118.568-139.886,177.024-208.851c-22.028-26.135-44.381-52.655-67.229-79.763
		c-36.018,42.628-72.327,85.602-108.502,128.416c-34.329-40.454-68.583-80.895-102.918-121.24
		C19.443,267.631,8.006,254.692-3.335,241.638z"/>
	<path d="M600.491,580.323c0,5.376,0,10.752,0,16.128c-1.911-1.804-3.991-3.408-5.708-5.442
		c-42.616-50.461-85.19-100.97-127.79-151.45c-1.51-1.789-3.205-3.359-5.34-5.579c-36.684,43.321-72.87,86.056-108.179,127.753
		c-26.438-31.067-53.019-62.303-79.467-93.382c62.721-74.045,125.695-148.387,188.965-223.081c1.465,1.625,3.326,3.575,5.079,5.653
		c34.222,40.542,68.388,81.149,102.669,121.621c9.756,11.517,19.838,22.648,29.77,33.955c0,5.973,0,11.947,0,17.92
		c-45.853-54.558-91.707-109.117-137.125-163.158c-59.123,69.711-117.495,138.534-175.472,206.894
		c21.906,25.92,43.75,51.766,65.491,77.491c35.908-42.401,72.135-85.18,108.554-128.185c1.516,1.661,2.821,2.999,4.039,4.44
		c24.263,28.698,48.474,57.457,72.783,86.1C559.28,532.177,579.91,556.221,600.491,580.323z"/>
	<path fill="#FFFFFF" d="M276.635,849.12c-3.531,0-7.062,0-10.593,0c-0.575-0.945-1.052-2.005-1.738-2.818
		c-72.522-85.979-145.033-171.97-217.617-257.876c-16.544-19.58-33.341-38.86-50.021-58.278c0-4.181,0-8.363,0-12.544
		c1.688,1.737,3.472,3.36,5.05,5.228c29.754,35.237,59.504,70.479,89.209,105.775c14.163,16.829,28.229,33.773,43.094,51.568
		c36.983-43.787,73.254-86.729,110.032-130.273c36.227,42.817,72.548,85.744,109.105,128.951
		c36.238-42.964,72.513-85.973,109.547-129.881c46.159,54.925,91.974,109.441,137.79,163.958c0,4.181,0,8.363,0,12.544
		c-46.03-54.359-92.06-108.718-136.906-161.679c-34.916,41.073-69.669,81.954-104.998,123.513
		c31.832,37.453,64.084,75.224,96.152,113.213c13.474,15.962,26.557,32.386,39.818,48.6c-3.027,0-6.053,0-9.08,0
		c-80.909-95.349-161.818-190.698-242.408-285.672c-34.253,40.377-68.868,81.18-104.317,122.968
		c2.912,3.081,6.244,6.269,9.251,9.839C190.906,747.18,233.765,798.156,276.635,849.12z"/>
	<path d="M-3.335,415.46c7.094,7.861,14.378,15.498,21.251,23.621C54.84,482.72,91.66,526.483,128.527,570.189
		c1.577,1.869,3.265,3.607,4.546,5.015c62.711-74.034,125.135-147.729,188.254-222.245c-24.33-28.28-48.689-56.595-73.638-85.596
		c33.338-39.203,65.635-77.182,98.888-116.285c-15.779-18.33-30.95-35.726-45.906-53.376c-29.093-34.333-58.072-68.8-87.063-103.254
		c-1.363-1.62-2.382-3.645-3.56-5.482c4.54,0,9.08,0,13.62,0c13.148,15.969,26.159,32.101,39.471,47.876
		c32.063,37.996,64.267,75.825,96.786,114.16c-32.779,38.573-65.084,76.589-97.711,114.982
		c25.003,29.301,49.295,57.769,73.589,86.239c-68.207,80.493-135.457,159.856-203.048,239.622
		c-21.434-25.415-43.32-51.374-65.215-77.324c-22.448-26.607-44.898-53.211-67.375-79.784c-1.028-1.215-2.328-2.109-3.501-3.153
		C-3.335,426.212-3.335,420.836-3.335,415.46z"/>
	<path d="M-3.335,241.638c11.34,13.054,22.777,25.993,34.003,39.184c34.335,40.345,68.59,80.786,102.918,121.24
		c36.175-42.814,72.484-85.788,108.502-128.416c22.848,27.108,45.201,53.628,67.229,79.763
		C250.862,422.374,191.711,492.16,132.294,562.26c-22.495-26.629-46.013-54.45-69.511-82.292
		c-20.668-24.489-41.306-49.015-61.997-73.477c-1.191-1.408-2.739-2.393-4.121-3.574c0-5.973,0-11.947,0-17.92
		c45.533,54.015,91.067,108.03,135.529,160.775c54.956-64.813,109.318-128.925,163.054-192.298
		c-17.401-20.7-35.109-41.765-53.542-63.692c-36.05,42.646-72.361,85.6-109.133,129.1c-10.701-12.837-21.603-26.067-32.643-39.131
		C65.537,339.055,31.091,298.423-3.335,257.766C-3.335,252.39-3.335,247.014-3.335,241.638z"/>
	<path d="M600.491,712.93c-45.816-54.517-91.631-109.034-137.79-163.958c-37.034,43.908-73.309,86.917-109.547,129.881
		c-36.557-43.207-72.878-86.134-109.105-128.951c-36.778,43.544-73.049,86.486-110.032,130.273
		c-14.864-17.795-28.93-34.739-43.094-51.568C61.219,593.31,31.469,558.069,1.715,522.831c-1.577-1.868-3.362-3.491-5.05-5.228
		c0-5.376,0-10.752,0-16.128c1.161,1.072,2.433,2.012,3.466,3.236c29.759,35.224,59.51,70.458,89.228,105.73
		c14.677,17.421,29.288,34.922,44.815,53.444c36.952-43.828,73.204-86.826,109.82-130.255
		c36.091,42.793,72.377,85.818,109.061,129.314c36.593-43.323,72.898-86.305,109.468-129.6c1.25,1.302,2.414,2.383,3.451,3.613
		c30.991,36.733,61.908,73.553,92.978,110.192c13.688,16.142,27.683,31.918,41.539,47.861
		C600.491,700.983,600.491,706.956,600.491,712.93z"/>
	<path d="M600.491,551.651c0,5.376,0,10.752,0,16.128c-1.552-1.414-3.26-2.642-4.632-4.269
		c-41.885-49.65-83.764-99.308-125.528-149.1c-2.586-3.083-4.229-7.275-6.704-11.646c-38.507,45.439-74.721,88.174-110.982,130.963
		c-17.919-21.7-35.995-43.589-53.984-65.374c54.238-64.012,109.169-128.841,164.368-193.988c1.317,1.449,3.196,3.388,4.953,5.47
		c42.064,49.844,84.106,99.715,126.2,149.524c1.87,2.213,4.195,3.887,6.308,5.813c0,5.973,0,11.947,0,17.92
		c-45.873-54.47-91.747-108.94-136.494-162.073c-51.005,60.171-101.402,119.624-150.495,177.54
		c13.11,15.928,26.566,32.277,40.841,49.621c36.057-42.58,72.356-85.446,108.834-128.523c20.62,24.388,41.442,49.069,62.316,73.69
		C550.47,492.809,575.49,522.219,600.491,551.651z"/>
	<path d="M600.491,666.338c0,5.973,0,11.947,0,17.92c-46.018-54.311-92.035-108.623-138.196-163.102
		c-36.469,43.117-72.813,86.086-109.942,129.983c-36.728-43.429-73.207-86.563-110.355-130.489
		c-36.247,42.935-72.541,85.927-108.933,129.033c-18.531-21.897-37.236-44.05-55.989-66.145
		c-26.785-31.558-53.606-63.073-80.411-94.606c0-5.376,0-10.752,0-16.128c1.545,1.437,3.232,2.705,4.613,4.337
		c19.805,23.407,39.569,46.863,59.342,70.307c24.213,28.708,48.425,57.416,73.196,86.786
		c36.601-43.452,72.859-86.498,109.263-129.716c36.574,43.229,72.9,86.164,110.388,130.473
		c36.852-43.71,73.218-86.844,109.66-130.07c29.166,34.506,58.173,68.948,87.305,103.241
		C567.013,627.68,583.798,646.954,600.491,666.338z"/>
	<path d="M-3.335,444.132c11.366,13.002,22.881,25.825,34.069,39.038c32.835,38.779,65.537,77.718,98.31,116.571
		c1.388,1.645,2.965,3.066,4.305,4.439c36.406-43.085,72.573-85.888,108.957-128.947c36.854,43.755,73.218,86.93,110.205,130.843
		c37.324-44.16,73.618-87.101,110.499-130.738c14.953,17.851,29.796,35.648,44.71,53.361
		c29.546,35.091,59.125,70.141,88.718,105.176c1.209,1.431,2.695,2.535,4.052,3.791c0,5.376,0,10.752,0,16.128
		c-1.397-1.133-2.985-2.039-4.162-3.433c-32.605-38.617-65.177-77.274-97.735-115.947c-11.887-14.12-23.723-28.3-35.4-42.235
		c-36.933,43.655-73.273,86.609-110.539,130.658c-36.97-43.909-73.373-87.145-110.403-131.125
		c-36.406,43.102-72.707,86.078-109.028,129.079c-24.847-29.31-49.807-58.824-74.836-88.256
		c-20.532-24.143-41.146-48.187-61.724-72.275C-3.335,454.884-3.335,449.508-3.335,444.132z"/>
	<path d="M-3.335,286.437c0-5.376,0-10.752,0-16.128c1.695,1.719,3.495,3.313,5.068,5.176
		c42.244,50.054,84.461,100.138,126.698,150.2c1.679,1.99,3.505,3.806,6.428,6.961c36.611-43.438,72.855-86.441,108.568-128.812
		c13.963,16.412,28.239,33.191,42.516,49.971c-50.745,59.869-101.609,119.88-153.716,181.356c-1.927-2.817-3.91-6.295-6.366-9.216
		c-32.906-39.15-65.827-78.284-98.866-117.277c-9.917-11.704-20.209-22.962-30.33-34.424c0-5.973,0-11.947,0-17.92
		c29.78,35.155,59.568,70.301,89.337,105.468c15.83,18.701,31.629,37.439,46.814,55.417
		c46.631-54.933,92.829-109.357,138.357-162.992c-9.566-11.469-19.204-23.022-29.847-35.782
		c-36.009,42.651-72.271,85.601-108.925,129.016C87.408,394.08,42.036,340.259-3.335,286.437z"/>
	<path d="M600.491,463.844c0,5.973,0,11.947,0,17.92c-23.022-27.125-46.074-54.214-69.058-81.385
		c-22.973-27.158-45.878-54.397-67.796-80.395c-42.635,50.281-84.854,100.072-126.821,149.565
		c5.072,6.188,10.469,12.771,16.92,20.641c36.497-43.325,72.835-86.462,109.782-130.321c0.65,1.181,1.075,2.343,1.778,3.176
		c45.051,53.328,90.124,106.63,135.195,159.934c0,5.376,0,10.752,0,16.128c-0.806-0.645-1.727-1.155-2.402-1.955
		c-37.938-44.959-75.885-89.907-113.749-134.953c-7.22-8.59-14.107-17.573-22.359-27.89
		c-37.514,44.431-73.77,87.371-109.775,130.014c-9.695-11.393-19.831-23.303-29.752-34.961
		c46.812-55.272,93.652-110.575,140.772-166.211c0.869,0.956,2.364,2.5,3.764,4.157c35.631,42.204,71.209,84.472,106.908,126.596
		C582.56,444.125,591.616,453.877,600.491,463.844z"/>
	<path d="M-3.335,343.781c0-5.376,0-10.752,0-16.128c0.962,0.91,2.01,1.719,2.875,2.744
		c34.944,41.381,69.893,82.754,104.786,124.195c9.718,11.542,19.259,23.293,28.309,34.254
		c38.867-45.799,76.892-90.606,115.216-135.765c-1.524-1.689-3.11-3.448-5.838-6.471c-36.505,43.329-72.729,86.326-109.331,129.771
		c-4.7-5.707-9.563-11.745-14.547-17.641c-40.477-47.892-80.977-95.757-121.469-143.63c0-5.376,0-10.752,0-16.128
		c32.315,38.094,64.628,76.19,96.945,114.281c13.309,15.688,26.625,31.368,40.814,48.083
		c36.736-43.503,73.008-86.456,108.659-128.675c6.127,6.809,12.472,13.862,18.71,20.795
		c-42.944,50.713-85.562,101.04-128.681,151.959C87.798,451.743,42.231,397.762-3.335,343.781z"/>
	<path d="M258.474-11.032c4.54,0,9.08,0,13.62,0c0.566,0.951,1.029,2.024,1.713,2.835c33.848,40.13,67.686,80.272,101.597,120.326
		c10.987,12.976,22.174,25.715,34.019,39.429c-33.261,39.13-65.584,77.157-97.436,114.63c13.932,16.458,27.606,32.611,41.876,49.468
		c35.863-42.508,72.115-85.478,108.598-128.721c1.901,2.112,3.571,3.865,5.145,5.73c27.448,32.515,54.835,65.102,82.342,97.547
		c16.753,19.76,33.688,39.305,50.542,58.946c0,5.376,0,10.752,0,16.128c-1.201-0.943-2.578-1.678-3.576-2.86
		c-38.14-45.153-76.277-90.309-114.323-135.573c-6.665-7.93-12.922-16.339-19.476-24.664
		c-37.682,44.576-73.857,87.37-109.154,129.124c-18.694-21.83-37.249-43.5-56.631-66.133
		c32.083-37.667,64.421-75.634,96.892-113.756c-1.867-2.353-3.369-4.352-4.964-6.242C349.356,97.892,309.429,50.633,269.557,3.309
		C265.696-1.274,262.161-6.242,258.474-11.032z"/>
	<path d="M282.688-11.032c4.54,0,9.08,0,13.62,0c26.081,31.121,52.111,62.303,78.262,93.343
		c19.343,22.959,38.843,45.732,59.788,70.371c-33.202,38.794-65.742,76.814-96.915,113.236c5.203,7.215,10.218,14.169,15.995,22.18
		c36.855-43.608,73.119-86.518,109.598-129.68c23.923,28.33,47.929,56.851,72.025,85.266c21.76,25.661,43.616,51.206,65.43,76.802
		c0,5.376,0,10.752,0,16.128c-1.549-1.426-3.248-2.676-4.626-4.305c-27.998-33.087-55.973-66.202-83.923-99.346
		c-16.341-19.378-32.632-38.817-48.709-57.949c-36.825,43.543-73.141,86.485-108.407,128.184
		c-11.243-13.059-21.732-25.244-33.431-38.832c32.037-37.543,64.383-75.448,97.05-113.729
		c-33.896-40.059-67.812-80.04-101.618-120.15C305.306,16.815,294.06,2.817,282.688-11.032z"/>
	<path fill="#FFFFFF" d="M600.491,406.5c-9.932-11.308-20.014-22.438-29.77-33.955c-34.281-40.471-68.448-81.079-102.669-121.621
		c-1.754-2.078-3.615-4.028-5.079-5.653c-63.27,74.693-126.244,149.036-188.965,223.081c26.448,31.079,53.029,62.315,79.467,93.382
		c35.309-41.698,71.495-84.432,108.179-127.753c2.136,2.22,3.831,3.79,5.34,5.579c42.6,50.479,85.174,100.989,127.79,151.45
		c1.717,2.033,3.797,3.638,5.708,5.442c0,4.181,0,8.363,0,12.544c-14.911-17.285-29.934-34.438-44.711-51.882
		c-30.172-35.618-60.211-71.394-90.312-107.096c-0.875-1.038-1.832-1.978-2.847-3.068c-36.421,43.106-72.687,86.028-108.616,128.55
		c-30.647-36.182-60.565-71.505-90.36-106.682c66.231-78.17,132.747-156.678,199.376-235.318
		c45.41,53.596,91.44,107.923,137.47,162.25C600.491,399.332,600.491,402.916,600.491,406.5z"/>
	<path d="M276.635,849.12c-42.87-50.964-85.728-101.94-128.631-152.865c-3.008-3.57-6.339-6.758-9.251-9.839
		c35.449-41.787,70.064-82.591,104.317-122.968c80.59,94.973,161.499,190.322,242.408,285.672c-5.045,0-10.089,0-15.133,0
		c-1.553-2.259-2.954-4.7-4.683-6.751c-54.155-64.256-108.338-128.479-162.525-192.697c-19.924-23.612-39.868-47.201-59.106-69.974
		c-30.288,35.643-60.248,70.899-91.045,107.14c20.431,23.893,41.128,47.872,61.611,72.106
		c25.313,29.949,50.448,60.108,75.659,90.177C285.715,849.12,281.175,849.12,276.635,849.12z"/>
	<path d="M199.454-11.032c16.904,20.389,33.698,40.909,50.738,61.139c28.282,33.577,56.722,66.967,85.01,100.336
		c-67.613,79.786-134.842,159.119-202.708,239.203c-15.637-18.641-32.051-38.271-48.524-57.831
		c-28.109-33.374-56.253-66.708-84.401-100.036c-0.862-1.021-1.931-1.796-2.904-2.685c0-5.376,0-10.752,0-16.128
		c1.545,1.413,3.241,2.644,4.611,4.264c30.139,35.642,60.263,71.301,90.343,107.014c13.963,16.578,27.827,33.275,40.92,48.942
		c63.207-74.573,125.661-148.258,188.312-222.176c-0.873-1.17-1.796-2.549-2.84-3.786c-36.868-43.716-73.784-87.375-110.595-131.158
		c-7.395-8.796-14.399-18.054-21.584-27.098C190.374-11.032,194.914-11.032,199.454-11.032z"/>
	<path fill="#FFFFFF" d="M600.491,320.485c-21.814-25.596-43.671-51.141-65.43-76.802c-24.095-28.415-48.102-56.936-72.025-85.266
		c-36.479,43.163-72.743,86.072-109.598,129.68c-5.777-8.011-10.792-14.965-15.995-22.18
		c31.173-36.423,63.712-74.442,96.915-113.236c-20.945-24.638-40.445-47.411-59.788-70.371
		c-26.151-31.039-52.18-62.222-78.262-93.343c3.531,0,7.062,0,10.593,0c1.266,1.801,2.423,3.733,3.815,5.385
		c32.043,38.04,64.082,76.084,96.19,114.047c12.051,14.248,24.271,28.294,37.262,43.419
		c-33.194,39.007-65.534,77.012-98.105,115.287c2.155,2.853,4.119,5.453,5.221,6.912c35.376-41.664,70.107-82.567,105.376-124.105
		c-11.027-12.818-22.446-25.875-33.663-39.172c-34.2-40.542-68.323-81.176-102.476-121.774c3.531,0,7.062,0,10.593,0
		c0.948,1.359,1.81,2.82,2.857,4.062c72.499,86.002,144.984,172.02,217.548,257.945c16.18,19.159,32.64,37.986,48.971,56.966
		C600.491,312.122,600.491,316.304,600.491,320.485z"/>
	<path fill="#FFFFFF" d="M-3.335,460.26c20.578,24.088,41.192,48.132,61.724,72.275c25.029,29.431,49.989,58.945,74.836,88.256
		c36.321-43.001,72.622-85.977,109.028-129.079c37.029,43.98,73.433,87.216,110.403,131.125
		c37.266-44.048,73.606-87.003,110.539-130.658c11.677,13.935,23.513,28.115,35.4,42.235c32.557,38.674,65.129,77.33,97.735,115.947
		c1.177,1.394,2.765,2.3,4.162,3.433c0,4.181,0,8.363,0,12.544c-16.693-19.384-33.478-38.658-50.058-58.176
		c-29.132-34.293-58.139-68.735-87.305-103.241c-36.443,43.225-72.809,86.359-109.66,130.07
		c-37.488-44.308-73.814-87.244-110.388-130.473c-36.403,43.218-72.662,86.263-109.263,129.716
		c-24.771-29.37-48.983-58.078-73.196-86.786c-19.773-23.444-39.537-46.9-59.342-70.307c-1.381-1.632-3.068-2.9-4.613-4.337
		C-3.335,468.622-3.335,464.441-3.335,460.26z"/>
	<path fill="#FFFFFF" d="M-3.335,488.932c26.806,31.533,53.626,63.048,80.411,94.606c18.754,22.095,37.458,44.249,55.989,66.145
		c36.392-43.107,72.686-86.098,108.933-129.033c37.148,43.926,73.627,87.06,110.355,130.489
		c37.129-43.897,73.473-86.866,109.942-129.983c46.16,54.48,92.178,108.791,138.196,163.102c0,3.584,0,7.168,0,10.752
		c-13.856-15.942-27.851-31.719-41.539-47.861c-31.07-36.639-61.987-73.459-92.978-110.192c-1.038-1.23-2.201-2.311-3.451-3.613
		c-36.57,43.296-72.874,86.277-109.468,129.6c-36.684-43.496-72.97-86.52-109.061-129.314
		c-36.616,43.429-72.868,86.427-109.82,130.255c-15.527-18.522-30.137-36.023-44.815-53.444
		c-29.718-35.273-59.469-70.507-89.228-105.73c-1.033-1.223-2.305-2.163-3.466-3.236C-3.335,497.294-3.335,493.113-3.335,488.932z"
		/>
	<path fill="#FFFFFF" d="M600.491,435.172c-2.113-1.925-4.438-3.6-6.308-5.813c-42.094-49.809-84.136-99.68-126.2-149.524
		c-1.757-2.083-3.636-4.021-4.953-5.47c-55.2,65.147-110.13,129.976-164.368,193.988c17.989,21.785,36.065,43.674,53.984,65.374
		c36.261-42.789,72.475-85.523,110.982-130.963c2.475,4.371,4.118,8.563,6.704,11.646c41.764,49.792,83.643,99.45,125.528,149.1
		c1.372,1.626,3.08,2.855,4.632,4.269c0,4.181,0,8.363,0,12.544c-20.581-24.102-41.211-48.145-61.73-72.322
		c-24.309-28.643-48.52-57.402-72.783-86.1c-1.218-1.441-2.523-2.778-4.039-4.44c-36.419,43.005-72.647,85.784-108.554,128.185
		c-21.741-25.724-43.585-51.571-65.491-77.491c57.977-68.359,116.349-137.183,175.472-206.894
		c45.419,54.041,91.272,108.599,137.125,163.158C600.491,428.004,600.491,431.588,600.491,435.172z"/>
	<path d="M-3.335,200.422c0-5.376,0-10.752,0-16.128c1.741,1.572,3.661,2.932,5.197,4.747c25.673,30.356,51.307,60.76,76.932,91.174
		c18.131,21.52,36.237,43.069,53.956,64.133c54.762-64.674,109.093-128.838,164.283-194.018
		C251.461,96.625,205.784,42.797,160.107-11.032c5.045,0,10.089,0,15.133,0c1.014,1.631,1.871,3.446,3.065,4.865
		c20.454,24.322,40.935,48.613,61.439,72.876c23.707,28.053,47.441,56.073,70.959,83.866
		c-59.485,70.3-118.62,140.187-177.692,209.999c-28.309-33.406-57.019-67.372-85.815-101.235
		C30.423,239.615,13.513,220.056-3.335,200.422z"/>
	<path fill="#FFFFFF" d="M-3.335,374.245c10.12,11.462,20.413,22.72,30.33,34.424c33.039,38.993,65.96,78.127,98.866,117.277
		c2.456,2.921,4.439,6.4,6.366,9.216c52.107-61.476,102.972-121.487,153.716-181.356c-14.277-16.78-28.553-33.56-42.516-49.971
		c-35.713,42.372-71.957,85.375-108.568,128.812c-2.923-3.155-4.749-4.971-6.428-6.961c-42.237-50.062-84.454-100.146-126.698-150.2
		c-1.573-1.863-3.374-3.457-5.068-5.176c0-4.181,0-8.363,0-12.544C31.091,298.423,65.537,339.055,99.93,379.75
		c11.041,13.064,21.942,26.293,32.643,39.131c36.772-43.5,73.083-86.454,109.133-129.1c18.433,21.927,36.14,42.992,53.542,63.692
		c-53.735,63.373-108.098,127.486-163.054,192.298C87.732,493.026,42.199,439.011-3.335,384.996
		C-3.335,381.413-3.335,377.829-3.335,374.245z"/>
	<path d="M314.468,849.12c-4.54,0-9.08,0-13.62,0c-46.2-54.075-92.399-108.149-137.791-161.279
		c27.987-33.111,54.467-64.437,81.584-96.518c0.396,0.709,0.94,2.148,1.819,3.191c67.116,79.647,134.271,159.249,201.37,238.917
		c4.19,4.974,7.956,10.448,11.92,15.69c-4.54,0-9.08,0-13.62,0c-0.81-1.41-1.453-3.015-2.452-4.201
		c-65.494-77.768-131.015-155.504-196.555-233.218c-1.199-1.422-2.654-2.541-3.125-2.985
		c-22.213,25.938-44.046,51.432-66.161,77.255c1.502,1.921,2.962,3.913,4.532,5.775c22.436,26.612,44.932,53.152,67.321,79.82
		C271.338,797.351,292.88,823.263,314.468,849.12z"/>
	<path d="M135.893-11.032c5.044,0,10.089,0,15.133,0c1.009,1.627,1.86,3.439,3.049,4.853
		c28.627,34.054,57.249,68.115,85.964,102.065c15.481,18.303,31.134,36.403,46.564,54.426
		C234.868,211.36,183.913,271.486,132.816,331.78c-30.863-36.514-62.192-73.684-93.63-110.726
		c-14.062-16.568-28.341-32.877-42.521-49.304c0-5.973,0-11.947,0-17.92c45.626,53.877,91.253,107.755,136.497,161.181
		c46.347-54.656,92.513-109.098,138.968-163.882c-1.632-2.05-3.282-4.228-5.024-6.298C223.374,92.87,179.633,40.92,135.893-11.032z"
		/>
	<path d="M-3.335,143.079c0-5.973,0-11.947,0-17.92c45.399,54.118,90.798,108.235,136.005,162.124
		c38.974-46.039,76.919-90.862,115.705-136.679c-11.785-13.695-23.705-27.313-35.407-41.189
		c-33.81-40.093-67.532-80.291-101.289-120.447c5.044,0,10.089,0,15.133,0c0.933,1.64,1.67,3.511,2.827,4.887
		c25.423,30.248,50.833,60.513,76.374,90.622c18.722,22.07,37.629,43.921,56.242,65.624
		c-43.674,51.591-86.433,102.099-130.323,153.945c-1.222-1.969-2.618-4.933-4.564-7.249
		C90.211,252.59,53.016,208.426,15.751,164.345C9.574,157.037,3.036,150.156-3.335,143.079z"/>
	<path fill="#FFFFFF" d="M600.491,463.844c-8.875-9.967-17.932-19.719-26.594-29.939c-35.699-42.124-71.276-84.392-106.908-126.596
		c-1.399-1.657-2.895-3.201-3.764-4.157c-47.12,55.635-93.96,110.939-140.772,166.211c9.921,11.658,20.056,23.568,29.752,34.961
		c36.004-42.643,72.26-85.583,109.775-130.014c8.252,10.317,15.139,19.3,22.359,27.89c37.865,45.046,75.811,89.994,113.749,134.953
		c0.675,0.8,1.596,1.31,2.402,1.955c0,4.181,0,8.363,0,12.544c-25.002-29.432-50.022-58.842-74.999-88.304
		c-20.873-24.621-41.696-49.303-62.316-73.69c-36.478,43.077-72.777,85.944-108.834,128.523
		c-14.275-17.344-27.731-33.693-40.841-49.621c49.094-57.916,99.49-117.369,150.495-177.54
		c44.747,53.133,90.621,107.603,136.494,162.073C600.491,456.676,600.491,460.26,600.491,463.844z"/>
	<path fill="#FFFFFF" d="M258.474-11.032c3.686,4.79,7.221,9.758,11.082,14.341c39.872,47.324,79.799,94.583,119.702,141.871
		c1.595,1.89,3.097,3.889,4.964,6.242c-32.47,38.122-64.808,76.088-96.892,113.756c19.381,22.633,37.937,44.303,56.631,66.133
		c35.297-41.755,71.473-84.549,109.154-129.124c6.553,8.325,12.811,16.735,19.476,24.664
		c38.045,45.264,76.183,90.42,114.323,135.573c0.999,1.182,2.376,1.917,3.576,2.86c0,4.181,0,8.363,0,12.544
		c-14.536-16.856-29.171-33.593-43.586-50.593c-29.642-34.958-59.163-70.06-88.744-105.089c-1.76-2.085-3.62-4.053-5.704-6.377
		c-36.436,43.248-72.638,86.218-108.572,128.869c-22.475-26.623-44.164-52.316-66.124-78.329
		c31.858-37.332,64.205-75.236,97.781-114.582c-12.061-13.833-23.135-26.235-33.929-38.97
		C318.055,73.16,284.599,33.441,251.127-6.26c-1.212-1.437-2.17-3.175-3.246-4.772C251.412-11.032,254.943-11.032,258.474-11.032z"
		/>
	<path d="M494.557,849.12c-13.261-16.214-26.344-32.638-39.818-48.6c-32.067-37.989-64.319-75.76-96.152-113.213
		c35.329-41.559,70.082-82.44,104.998-123.513c44.846,52.96,90.876,107.32,136.906,161.679c0,5.376,0,10.752,0,16.128
		c-1.312-1.361-2.696-2.637-3.927-4.095c-34.382-40.73-68.764-81.462-103.11-122.235c-10.28-12.203-20.453-24.532-29.674-35.601
		c-30.685,36.083-60.647,71.316-91.61,107.726c1.731,1.544,3.955,3.077,5.713,5.162c43.966,52.152,87.882,104.362,131.807,156.562
		C504.646,849.12,499.601,849.12,494.557,849.12z"/>
	<path fill="#FFFFFF" d="M-3.335,343.781c45.566,53.981,91.132,107.962,136.447,161.645
		c43.119-50.919,85.736-101.246,128.681-151.959c-6.238-6.933-12.584-13.986-18.71-20.795
		c-35.651,42.218-71.923,85.172-108.659,128.675c-14.188-16.715-27.504-32.395-40.814-48.083
		c-32.317-38.092-64.63-76.187-96.945-114.281c0-4.181,0-8.363,0-12.544c45.371,53.821,90.742,107.642,135.735,161.015
		c36.654-43.415,72.916-86.366,108.925-129.016c10.643,12.76,20.281,24.314,29.847,35.782
		c-45.528,53.635-91.726,108.058-138.357,162.992c-15.185-17.978-30.984-36.716-46.814-55.417
		C56.233,426.625,26.445,391.48-3.335,356.325C-3.335,352.143-3.335,347.962-3.335,343.781z"/>
	<path fill="#FFFFFF" d="M282.688-11.032c11.372,13.849,22.618,27.847,34.14,41.518c33.806,40.11,67.721,80.091,101.618,120.15
		c-32.667,38.281-65.013,76.186-97.05,113.729c11.699,13.589,22.188,25.773,33.431,38.832
		c35.266-41.7,71.582-84.641,108.407-128.184c16.077,19.131,32.368,38.57,48.709,57.949c27.95,33.144,55.925,66.259,83.923,99.346
		c1.378,1.629,3.077,2.879,4.626,4.305c0,4.181,0,8.363,0,12.544c-16.853-19.641-33.788-39.186-50.542-58.946
		c-27.507-32.444-54.894-65.032-82.342-97.547c-1.575-1.865-3.244-3.618-5.145-5.73c-36.483,43.243-72.735,86.213-108.598,128.721
		c-14.27-16.857-27.944-33.01-41.876-49.468c31.852-37.473,64.175-75.5,97.436-114.63c-11.844-13.714-23.032-26.452-34.019-39.429
		C341.494,72.075,307.656,31.933,273.808-8.197c-0.684-0.811-1.147-1.884-1.713-2.835C275.626-11.032,279.157-11.032,282.688-11.032
		z"/>
	<path fill="#FFFFFF" d="M600.491,522.979c-45.071-53.304-90.145-106.606-135.195-159.934c-0.703-0.833-1.128-1.995-1.778-3.176
		c-36.947,43.859-73.285,86.996-109.782,130.321c-6.451-7.87-11.848-14.453-16.92-20.641
		c41.967-49.493,84.186-99.284,126.821-149.565c21.918,25.998,44.823,53.237,67.796,80.395
		c22.984,27.171,46.036,54.26,69.058,81.385c0,4.181,0,8.363,0,12.544c-45.917-54.398-91.833-108.796-136.59-161.82
		c-39.278,46.173-78.149,91.868-117.236,137.816c1.83,2.019,3.956,4.364,6.969,7.687c36.759-43.521,73.001-86.43,109.638-129.806
		c18.86,22.436,37.814,45.104,56.882,67.637c26.734,31.591,53.554,63.081,80.337,94.614
		C600.491,514.617,600.491,518.798,600.491,522.979z"/>
	<path d="M437.05,849.12c-5.045,0-10.089,0-15.133,0c-0.84-1.408-1.528-2.995-2.541-4.197
		c-57.11-67.775-114.243-135.522-171.397-203.244c-1.517-1.797-3.284-3.298-3.93-3.94c-14.215,16.498-27.835,32.305-41.777,48.486
		c0.886,1.137,1.842,2.453,2.874,3.677c28.831,34.191,57.712,68.323,86.489,102.577c15.772,18.775,31.371,37.754,47.047,56.641
		c-4.54,0-9.08,0-13.62,0c-34.632-41.22-69.243-82.464-103.909-123.645c-11.14-13.234-22.424-26.298-33.009-38.699
		c18.983-22.72,37.17-44.487,55.283-66.167C307.931,696.737,372.49,772.929,437.05,849.12z"/>
	<path d="M-3.335,112.615c0-5.376,0-10.752,0-16.128c45.449,54.033,90.898,108.066,136.22,161.947
		c30.666-36.214,60.586-71.547,91.045-107.516c-19.484-22.928-38.985-45.704-58.322-68.671
		c-26.113-31.015-52.101-62.179-78.142-93.278c4.54,0,9.08,0,13.62,0c45.774,53.707,91.548,107.413,137.278,161.068
		c-35.839,42.239-70.443,83.023-104.945,123.686C88.098,220.33,42.382,166.472-3.335,112.615z"/>
	<path d="M-3.335,85.735c0-5.973,0-11.947,0-17.92c30.138,35.556,60.296,71.089,90.406,106.679
		c15.456,18.269,30.827,36.638,45.195,53.722c22.444-26.326,44.352-52.023,66.617-78.139c-22.38-26.364-45.126-52.987-67.705-79.808
		c-22.728-26.998-45.29-54.193-67.925-81.302c4.54,0,9.08,0,13.62,0c29.86,35.554,59.675,71.161,89.598,106.641
		c15.621,18.522,31.432,36.821,47.023,55.064c-27.177,32.101-53.556,63.26-81.934,96.78c-1.93-3.324-3.655-7.506-6.278-10.631
		C84.401,188.115,43.413,139.535,2.406,90.977C0.711,88.971-1.411,87.471-3.335,85.735z"/>
	<path d="M533.904,849.12c-4.54,0-9.08,0-13.62,0c-46.093-54.227-92.187-108.454-138.179-162.562
		c27.384-32.36,53.884-63.674,80.916-95.618c45.704,54.259,91.587,108.732,137.471,163.205c0,5.376,0,10.752,0,16.128
		c-1.152-1.107-2.398-2.102-3.441-3.337c-26.019-30.806-52.023-61.629-78.016-92.466c-18.851-22.365-37.682-44.755-55.386-65.784
		c-22.378,26.168-44.325,51.834-66.666,77.959c19.582,23.076,39.457,46.356,59.198,69.795
		C482.143,787.268,508.001,818.221,533.904,849.12z"/>
	<path fill="#FFFFFF" d="M-3.335,200.422c16.848,19.634,33.758,39.193,50.53,58.917c28.796,33.863,57.506,67.829,85.815,101.235
		c59.072-69.812,118.207-139.699,177.692-209.999c-23.518-27.793-47.253-55.813-70.959-83.866
		c-20.504-24.263-40.985-48.553-61.439-72.876c-1.193-1.419-2.051-3.234-3.065-4.865c3.531,0,7.062,0,10.593,0
		c7.184,9.045,14.188,18.302,21.584,27.098c36.811,43.783,73.727,87.443,110.595,131.158c1.043,1.237,1.967,2.616,2.84,3.786
		c-62.651,73.918-125.106,147.603-188.312,222.176c-13.093-15.667-26.957-32.364-40.92-48.942
		C61.54,288.532,31.416,252.872,1.276,217.23c-1.37-1.62-3.067-2.852-4.611-4.264C-3.335,208.785-3.335,204.603-3.335,200.422z"/>
	<path fill="#FFFFFF" d="M459.75,849.12c-3.964-5.241-7.73-10.715-11.92-15.69c-67.099-79.668-134.254-159.269-201.37-238.917
		c-0.879-1.043-1.423-2.482-1.819-3.191c-27.117,32.081-53.597,63.408-81.584,96.518c45.392,53.13,91.592,107.204,137.791,161.279
		c-3.531,0-7.062,0-10.593,0c-25.212-30.068-50.346-60.228-75.659-90.177c-20.482-24.234-41.179-48.213-61.611-72.106
		c30.797-36.241,60.757-71.498,91.045-107.14c19.237,22.773,39.182,46.362,59.106,69.974
		c54.187,64.218,108.37,128.441,162.525,192.697c1.729,2.052,3.129,4.492,4.683,6.751C466.812,849.12,463.281,849.12,459.75,849.12z
		"/>
	<path d="M411.323,849.12c-4.54,0-9.08,0-13.62,0c-0.687-1.19-1.236-2.545-2.081-3.548
		c-40.778-48.387-81.608-96.713-122.364-145.126c-9.912-11.774-19.588-23.828-28.737-34.979
		c-6.694,7.349-12.368,13.578-18.268,20.055c1.656,2.148,3.102,4.179,4.682,6.052c27.609,32.749,55.291,65.413,82.836,98.237
		c16.483,19.643,32.758,39.531,49.126,59.308c-4.54,0-9.08,0-13.62,0c-0.956-1.349-1.833-2.791-2.879-4.032
		c-30.108-35.703-60.196-71.429-90.371-107.053c-14.598-17.234-29.363-34.27-43.607-50.877
		c11.047-13.222,21.216-25.394,31.55-37.763c0.737,0.794,1.692,1.739,2.568,2.777c47.387,56.183,94.796,112.339,142.118,168.598
		C396.408,829.988,403.776,839.659,411.323,849.12z"/>
	<path d="M39.039-11.032c4.54,0,9.08,0,13.62,0C98.456,42.55,144.253,96.132,189.836,149.464
		c-19.722,23.416-37.995,45.111-56.841,67.488c-45.33-53.758-90.83-107.719-136.33-161.68c0-5.376,0-10.752,0-16.128
		c27.653,32.561,55.336,65.087,82.949,97.696c17.97,21.221,35.837,42.564,53.631,63.71c14.183-16.712,27.895-32.868,41.846-49.306
		c-1.872-2.327-3.704-4.697-5.618-6.969c-19.742-23.429-39.531-46.801-59.239-70.271C86.467,45.7,62.768,17.317,39.039-11.032z"/>
	<path d="M600.491,782.817c0,5.376,0,10.752,0,16.128c-1.521-1.477-3.162-2.812-4.547-4.451
		c-29.574-35.006-59.142-70.017-88.659-105.09c-14.901-17.705-29.698-35.532-43.566-52.135
		c-14.508,16.79-28.288,32.737-42.646,49.354c24.944,29.346,50.006,58.67,74.909,88.182c20.808,24.658,41.43,49.535,62.134,74.315
		c-4.54,0-9.08,0-13.62,0c-46.229-54.105-92.458-108.209-138.68-162.306c19.712-23.231,38.087-44.886,57.116-67.313
		c11.691,14.085,23.429,28.428,35.352,42.551C532.313,702.356,566.417,742.569,600.491,782.817z"/>
	<path fill="#FFFFFF" d="M-3.335,171.75c14.18,16.427,28.459,32.736,42.521,49.304c31.438,37.042,62.767,74.212,93.63,110.726
		c51.097-60.294,102.051-120.42,153.788-181.468c-15.431-18.023-31.083-36.123-46.564-54.426
		c-28.715-33.95-57.337-68.011-85.964-102.065c-1.189-1.414-2.04-3.226-3.049-4.853c3.027,0,6.053,0,9.08,0
		c45.677,53.829,91.354,107.657,136.927,161.362c-55.19,65.18-109.521,129.344-164.283,194.018
		c-17.719-21.064-35.825-42.613-53.956-64.133c-25.625-30.414-51.259-60.817-76.932-91.174c-1.536-1.816-3.456-3.175-5.197-4.747
		C-3.335,180.113-3.335,175.932-3.335,171.75z"/>
	<path fill="#FFFFFF" d="M-3.335,143.079c6.371,7.078,12.909,13.958,19.086,21.266c37.265,44.082,74.46,88.245,111.618,132.452
		c1.946,2.315,3.342,5.279,4.564,7.249c43.89-51.845,86.648-102.354,130.323-153.945c-18.613-21.702-37.519-43.553-56.242-65.624
		c-25.541-30.109-50.951-60.374-76.374-90.622c-1.157-1.376-1.894-3.247-2.827-4.887c3.027,0,6.053,0,9.08,0
		c43.74,51.952,87.481,103.902,131.213,155.864c1.742,2.07,3.392,4.247,5.024,6.298c-46.455,54.784-92.621,109.226-138.968,163.882
		C87.918,261.585,42.292,207.708-3.335,153.831C-3.335,150.247-3.335,146.663-3.335,143.079z"/>
	<path d="M600.491,811.489c0,5.376,0,10.752,0,16.128c-1.162-1.078-2.433-2.026-3.469-3.253
		c-33.648-39.831-67.304-79.652-100.885-119.562c-11.123-13.219-22.044-26.676-32.256-39.054
		c-6.806,7.325-12.501,13.455-18.389,19.792c1.926,2.441,3.41,4.434,4.993,6.311c26.862,31.848,53.788,63.62,80.587,95.542
		c17.181,20.464,34.178,41.145,51.258,61.728c-4.54,0-9.08,0-13.62,0c-26.295-31.327-52.529-62.724-78.904-93.956
		c-19.565-23.168-39.312-46.12-58.759-68.912c10.807-13.094,20.845-25.257,31.03-37.597c1.271,1.297,2.471,2.371,3.524,3.618
		c20.674,24.483,41.291,49.033,62,73.474C551.858,754.376,576.191,782.912,600.491,811.489z"/>
	<path d="M-3.335,26.6c0-5.376,0-10.752,0-16.128c1.34,1.29,2.789,2.45,4.003,3.888c25.805,30.57,51.593,61.162,77.365,91.771
		c18.433,21.893,36.838,43.82,54.238,64.52c6.48-6.903,12.367-13.176,18.738-19.963c-26.906-31.683-53.573-62.915-80.072-94.344
		c-18.82-22.321-37.416-44.908-56.112-67.376c4.54,0,9.08,0,13.62,0c31.455,37.455,62.873,74.953,94.383,112.344
		c14.013,16.629,28.213,33.038,41.017,48.014c-10.706,13.364-20.661,25.791-30.9,38.572c-15.453-18.355-30.898-36.765-46.402-55.105
		C56.601,97.374,26.626,61.995-3.335,26.6z"/>
	<path fill="#FFFFFF" d="M437.05,849.12c-64.559-76.192-129.119-152.384-193.623-228.51c-18.113,21.679-36.3,43.446-55.283,66.167
		c10.585,12.401,21.869,25.465,33.009,38.699c34.666,41.18,69.277,82.425,103.909,123.645c-3.531,0-7.062,0-10.593,0
		c-21.589-25.857-43.131-51.769-64.78-77.555c-22.389-26.667-44.885-53.208-67.321-79.82c-1.57-1.862-3.029-3.854-4.532-5.775
		c22.114-25.823,43.948-51.317,66.161-77.255c0.471,0.445,1.926,1.563,3.125,2.985c65.54,77.714,131.061,155.451,196.555,233.218
		c0.999,1.186,1.643,2.792,2.452,4.201C443.103,849.12,440.076,849.12,437.05,849.12z"/>
	<path fill="#FFFFFF" d="M-3.335,112.615c45.716,53.857,91.433,107.715,136.754,161.107
		c34.502-40.663,69.106-81.447,104.945-123.686C192.634,96.381,146.86,42.675,101.086-11.032c3.531,0,7.062,0,10.593,0
		c33.757,40.157,67.479,80.354,101.289,120.447c11.701,13.876,23.621,27.494,35.407,41.189
		c-38.786,45.817-76.731,90.64-115.705,136.679C87.463,233.394,42.064,179.276-3.335,125.159
		C-3.335,120.977-3.335,116.796-3.335,112.615z"/>
	<path fill="#FFFFFF" d="M600.491,754.145c-45.883-54.473-91.767-108.946-137.471-163.205
		c-27.032,31.944-53.532,63.258-80.916,95.618c45.992,54.108,92.086,108.335,138.179,162.562c-3.531,0-7.062,0-10.593,0
		c-43.925-52.2-87.842-104.41-131.807-156.562c-1.758-2.085-3.982-3.618-5.713-5.162c30.963-36.41,60.925-71.643,91.61-107.726
		c9.221,11.069,19.395,23.398,29.674,35.601c34.346,40.773,68.727,81.505,103.11,122.235c1.23,1.458,2.614,2.734,3.927,4.095
		C600.491,745.783,600.491,749.964,600.491,754.145z"/>
	<path d="M-3.335,530.147c16.68,19.418,33.478,38.698,50.021,58.278c72.584,85.906,145.095,171.898,217.617,257.876
		c0.686,0.813,1.163,1.874,1.738,2.818c-4.54,0-9.08,0-13.62,0C195.32,781.413,138.237,713.683,81.109,646.007
		c-28.105-33.295-56.293-66.491-84.444-99.732C-3.335,540.899-3.335,535.523-3.335,530.147z"/>
	<path d="M600.491,307.941c-16.331-18.98-32.792-37.807-48.971-56.966C478.956,165.05,406.471,79.032,333.972-6.97
		c-1.047-1.242-1.909-2.703-2.857-4.062c4.54,0,9.08,0,13.62,0C401.11,55.848,457.459,122.76,513.87,189.597
		c28.816,34.141,57.744,68.149,86.621,102.217C600.491,297.189,600.491,302.565,600.491,307.941z"/>
	<path fill="#FFFFFF" d="M411.323,849.12c-7.546-9.461-14.915-19.132-22.668-28.35c-47.323-56.259-94.732-112.415-142.118-168.598
		c-0.876-1.038-1.831-1.983-2.568-2.777c-10.334,12.369-20.503,24.541-31.55,37.763c14.245,16.607,29.009,33.643,43.607,50.877
		c30.174,35.624,60.263,71.35,90.371,107.053c1.047,1.241,1.923,2.683,2.879,4.032c-3.531,0-7.062,0-10.593,0
		c-15.677-18.887-31.275-37.867-47.047-56.641c-28.777-34.254-57.658-68.386-86.489-102.577c-1.033-1.224-1.988-2.54-2.874-3.677
		c13.942-16.181,27.562-31.988,41.777-48.486c0.646,0.642,2.413,2.143,3.93,3.94c57.154,67.723,114.287,135.469,171.397,203.244
		c1.013,1.203,1.701,2.789,2.541,4.197C418.385,849.12,414.854,849.12,411.323,849.12z"/>
	<path fill="#FFFFFF" d="M600.491,782.817c-34.074-40.248-68.178-80.461-102.206-120.764
		c-11.924-14.122-23.661-28.466-35.352-42.551c-19.029,22.426-37.404,44.082-57.116,67.313
		c46.222,54.096,92.451,108.201,138.68,162.306c-3.531,0-7.062,0-10.593,0c-25.903-30.899-51.761-61.852-77.724-92.68
		c-19.741-23.439-39.616-46.719-59.198-69.795c22.341-26.125,44.288-51.791,66.666-77.959c17.704,21.03,36.535,43.419,55.386,65.784
		c25.992,30.837,51.997,61.66,78.016,92.466c1.043,1.235,2.29,2.23,3.441,3.337C600.491,774.454,600.491,778.636,600.491,782.817z"
		/>
	<path d="M600.491,510.435c-26.783-31.533-53.603-63.023-80.337-94.614c-19.068-22.533-38.022-45.201-56.882-67.637
		c-36.637,43.376-72.879,86.285-109.638,129.806c-3.013-3.323-5.138-5.668-6.969-7.687c39.087-45.948,77.958-91.643,117.236-137.816
		c44.757,53.024,90.673,107.422,136.59,161.82C600.491,499.683,600.491,505.059,600.491,510.435z"/>
	<path fill="#FFFFFF" d="M-3.335,85.735c1.923,1.736,4.046,3.236,5.741,5.242c41.007,48.558,81.996,97.138,122.876,145.845
		c2.623,3.125,4.348,7.307,6.278,10.631c28.378-33.52,54.757-64.679,81.934-96.78c-15.591-18.243-31.402-36.542-47.023-55.064
		c-29.923-35.48-59.738-71.087-89.598-106.641c3.531,0,7.062,0,10.593,0c26.041,31.1,52.029,62.263,78.142,93.278
		c19.337,22.968,38.838,45.744,58.322,68.671c-30.459,35.969-60.379,71.302-91.045,107.516
		C87.563,204.553,42.114,150.52-3.335,96.487C-3.335,92.903-3.335,89.319-3.335,85.735z"/>
	<path fill="#FFFFFF" d="M-3.335,55.271c45.5,53.961,91,107.922,136.33,161.68c18.847-22.377,37.12-44.072,56.841-67.488
		C144.253,96.132,98.456,42.55,52.659-11.032c3.531,0,7.062,0,10.593,0c22.635,27.109,45.197,54.304,67.925,81.302
		c22.579,26.821,45.325,53.444,67.705,79.808c-22.265,26.116-44.173,51.813-66.617,78.139
		c-14.368-17.085-29.739-35.454-45.195-53.722c-30.11-35.589-60.268-71.122-90.406-106.679C-3.335,63.634-3.335,59.453-3.335,55.271
		z"/>
	<path d="M355.329-11.032c5.044,0,10.089,0,15.133,0c1.467,2.286,2.735,4.805,4.43,6.822c25.254,30.05,50.553,60.048,75.864,90.031
		c49.904,59.116,99.822,118.215,149.735,177.321c0,5.376,0,10.752,0,16.128c-1.326-1.313-2.746-2.515-3.964-3.957
		c-29.752-35.224-59.506-70.445-89.212-105.723C456.635,109.403,405.989,49.177,355.329-11.032z"/>
	<path d="M320.522-11.032c34.153,40.598,68.275,81.232,102.476,121.774c11.217,13.297,22.636,26.354,33.663,39.172
		c-35.269,41.538-69.999,82.441-105.376,124.105c-1.102-1.459-3.066-4.059-5.221-6.912c32.571-38.276,64.911-76.28,98.105-115.287
		c-12.991-15.125-25.211-29.171-37.262-43.419c-32.108-37.963-64.147-76.007-96.19-114.047c-1.392-1.653-2.548-3.584-3.815-5.385
		C311.442-11.032,315.982-11.032,320.522-11.032z"/>
	<path d="M241.828,849.12c-4.54,0-9.08,0-13.62,0c-27.27-32.291-54.539-64.583-81.809-96.873
		c-49.911-59.1-99.822-118.2-149.733-177.3c0-5.376,0-10.752,0-16.128c0.968,0.9,2.027,1.691,2.891,2.715
		c37.038,43.882,74.076,87.763,111.076,131.69C154.383,745.167,198.097,797.153,241.828,849.12z"/>
	<path fill="#FFFFFF" d="M600.491,811.489c-24.3-28.576-48.633-57.113-72.889-85.741c-20.709-24.441-41.327-48.991-62-73.474
		c-1.053-1.247-2.253-2.321-3.524-3.618c-10.185,12.34-20.223,24.503-31.03,37.597c19.448,22.792,39.195,45.744,58.759,68.912
		c26.375,31.232,52.609,62.629,78.904,93.956c-3.531,0-7.062,0-10.593,0c-20.704-24.78-41.327-49.657-62.134-74.315
		c-24.904-29.512-49.966-58.835-74.909-88.182c14.358-16.617,28.138-32.564,42.646-49.354c13.868,16.603,28.665,34.43,43.566,52.135
		c29.517,35.072,59.086,70.084,88.659,105.09c1.385,1.639,3.025,2.974,4.547,4.451C600.491,803.126,600.491,807.307,600.491,811.489
		z"/>
	<path fill="#FFFFFF" d="M-3.335,26.6c29.961,35.396,59.936,70.775,89.877,106.193c15.504,18.34,30.949,36.749,46.402,55.105
		c10.239-12.782,20.194-25.208,30.9-38.572c-12.804-14.976-27.003-31.385-41.017-48.014c-31.51-37.39-62.927-74.889-94.383-112.344
		c3.531,0,7.062,0,10.593,0C62.768,17.317,86.467,45.7,110.234,74.004c19.707,23.47,39.497,46.842,59.239,70.271
		c1.915,2.272,3.746,4.642,5.618,6.969c-13.951,16.438-27.663,32.594-41.846,49.306c-17.793-21.146-35.661-42.489-53.631-63.71
		C52.002,104.231,24.319,71.705-3.335,39.144C-3.335,34.962-3.335,30.781-3.335,26.6z"/>
	<path d="M-3.335,603.619c0-5.376,0-10.752,0-16.128c0.599,0.518,1.269,0.953,1.786,1.567
		c73.061,86.679,146.112,173.371,219.162,260.063c-5.044,0-10.089,0-15.133,0c-1.322-2.077-2.457-4.375-3.994-6.198
		C131.235,763.128,63.948,683.376-3.335,603.619z"/>
	<path fill="#FFFFFF" d="M362.896,849.12c-16.368-19.778-32.643-39.666-49.126-59.308c-27.545-32.825-55.227-65.488-82.836-98.237
		c-1.579-1.873-3.026-3.904-4.682-6.052c5.9-6.477,11.574-12.706,18.268-20.055c9.15,11.151,18.825,23.204,28.737,34.979
		c40.756,48.414,81.586,96.739,122.364,145.126c0.846,1.003,1.394,2.357,2.081,3.548c-3.531,0-7.062,0-10.593,0
		c-1.178-1.841-2.192-3.874-3.557-5.494c-40.93-48.592-81.93-97.103-122.816-145.748c-5.809-6.911-11.088-14.447-16.82-21.966
		c-3.384,4.39-5.353,6.944-7.841,10.172c26.58,31.277,52.908,62.088,79.069,93.095c19.559,23.182,38.904,46.618,58.344,69.94
		C369.958,849.12,366.427,849.12,362.896,849.12z"/>
	<path fill="#FFFFFF" d="M582.331,849.12c-17.08-20.583-34.077-41.263-51.258-61.728c-26.799-31.921-53.726-63.693-80.587-95.542
		c-1.583-1.877-3.067-3.87-4.993-6.311c5.888-6.337,11.583-12.467,18.389-19.792c10.212,12.378,21.133,25.835,32.256,39.054
		c33.581,39.91,67.237,79.732,100.885,119.562c1.036,1.227,2.307,2.175,3.469,3.253c0,4.181,0,8.363,0,12.544
		c-28.345-33.393-56.724-66.746-85.023-100.194c-17.608-20.812-35.095-41.769-53.101-63.215c-2.593,3.156-4.651,5.661-7.322,8.913
		c14.63,17.121,29.019,33.751,43.212,50.614c31.608,37.552,63.117,75.22,94.667,112.841
		C589.393,849.12,585.862,849.12,582.331,849.12z"/>
	<path fill="#FFFFFF" d="M14.825-11.032c18.696,22.468,37.291,45.055,56.112,67.376c26.5,31.429,53.166,62.661,80.072,94.344
		c-6.37,6.787-12.258,13.06-18.738,19.963c-17.4-20.701-35.805-42.627-54.238-64.52C52.261,75.521,26.474,44.93,0.668,14.36
		c-1.214-1.438-2.663-2.598-4.003-3.888c0-4.181,0-8.363,0-12.544c26.047,30.663,52.111,61.307,78.137,91.996
		c19.584,23.093,39.119,46.243,59.093,69.861c2.395-2.863,4.493-5.37,7.187-8.59c-21.96-25.82-43.609-51.106-65.095-76.585
		C51.991,46.154,28.144,17.523,4.232-11.032C7.763-11.032,11.294-11.032,14.825-11.032z"/>
	<path d="M600.491,234.47c0,5.376,0,10.752,0,16.128c-24.968-29.393-50.007-58.704-74.891-88.197
		c-48.731-57.757-97.377-115.616-146.058-173.433c4.54,0,9.08,0,13.62,0c32.741,38.841,65.458,77.712,98.231,116.516
		C527.733,148.511,564.123,191.477,600.491,234.47z"/>
	<path d="M-3.335,634.082c0-5.973,0-11.947,0-17.92c1.832,2.037,3.715,4.013,5.49,6.118
		c63.755,75.606,127.499,151.224,191.245,226.84c-5.044,0-10.089,0-15.133,0c-1.19-1.828-2.226-3.837-3.592-5.457
		C118.866,777.44,63.037,711.238,7.164,645.09C3.864,641.184,0.174,637.741-3.335,634.082z"/>
	<path d="M403.756-11.032c5.045,0,10.089,0,15.133,0c1.117,1.864,2.035,3.962,3.38,5.557
		c59.384,70.452,118.805,140.86,178.222,211.273c0,5.376,0,10.752,0,16.128c-17.895-20.984-35.876-41.867-53.669-62.971
		C499.09,102.343,451.439,45.637,403.756-11.032z"/>
	<path fill="#FFFFFF" d="M355.329-11.032c50.66,60.209,101.307,120.435,151.986,180.621c29.706,35.279,59.46,70.5,89.212,105.723
		c1.218,1.442,2.638,2.643,3.964,3.957c0,4.181,0,8.363,0,12.544c-28.877-34.068-57.805-68.076-86.621-102.217
		C457.459,122.76,401.11,55.848,344.735-11.032C348.266-11.032,351.798-11.032,355.329-11.032z"/>
	<path fill="#FFFFFF" d="M241.828,849.12c-43.73-51.967-87.445-103.953-131.196-155.896
		c-36.999-43.927-74.038-87.808-111.076-131.69c-0.864-1.023-1.923-1.815-2.891-2.715c0-4.181,0-8.363,0-12.544
		c28.151,33.241,56.339,66.437,84.444,99.732c57.128,67.676,114.211,135.406,171.312,203.113
		C248.89,849.12,245.359,849.12,241.828,849.12z"/>
	<path fill="#FFFFFF" d="M-3.335,315.109c40.493,47.873,80.992,95.738,121.469,143.63c4.983,5.896,9.846,11.934,14.547,17.641
		c36.602-43.445,72.826-86.442,109.331-129.771c2.728,3.024,4.314,4.782,5.838,6.471c-38.324,45.159-76.35,89.967-115.216,135.765
		c-9.049-10.961-18.591-22.712-28.309-34.254C69.434,413.151,34.484,371.777-0.46,330.397c-0.865-1.025-1.912-1.834-2.875-2.744
		C-3.335,323.472-3.335,319.29-3.335,315.109z"/>
	<path d="M600.491,175.334c0,5.973,0,11.947,0,17.92C542.984,125.159,485.477,57.063,427.969-11.032c5.045,0,10.089,0,15.133,0
		c0.988,1.636,1.804,3.474,2.987,4.879c50.055,59.423,100.138,118.813,150.256,178.162
		C597.505,173.381,599.1,174.237,600.491,175.334z"/>
	<path d="M-3.335,662.754c0-5.973,0-11.947,0-17.92c52.672,62.439,105.36,124.858,157.988,187.35
		c4.548,5.4,8.69,11.279,13.021,16.936c-4.54,0-9.08,0-13.62,0c-0.713-1.174-1.304-2.492-2.156-3.503
		c-44.842-53.221-89.685-106.443-134.593-159.587C10.587,678.08,3.553,670.504-3.335,662.754z"/>
	<path fill="#FFFFFF" d="M217.614,849.12C144.563,762.429,71.513,675.737-1.548,589.058c-0.518-0.614-1.188-1.048-1.786-1.567
		c0-4.181,0-8.363,0-12.544c49.911,59.1,99.822,118.2,149.733,177.3c27.27,32.291,54.539,64.582,81.809,96.873
		C224.676,849.12,221.145,849.12,217.614,849.12z"/>
	<path fill="#FFFFFF" d="M379.542-11.032c48.681,57.817,97.327,115.676,146.058,173.433c24.884,29.493,49.922,58.803,74.891,88.197
		c0,4.181,0,8.363,0,12.544c-49.912-59.106-99.831-118.205-149.735-177.321c-25.311-29.983-50.61-59.981-75.864-90.031
		c-1.695-2.017-2.963-4.536-4.43-6.822C373.489-11.032,376.516-11.032,379.542-11.032z"/>
	<path fill="#FFFFFF" d="M403.756-11.032c47.683,56.669,95.335,113.375,143.066,169.987c17.794,21.104,35.774,41.987,53.669,62.971
		c0,4.181,0,8.363,0,12.544c-36.368-42.993-72.759-85.959-109.098-128.986c-32.773-38.804-65.49-77.675-98.231-116.516
		C396.694-11.032,400.225-11.032,403.756-11.032z"/>
	<path d="M452.183-11.032c5.044,0,10.089,0,15.133,0c0.674,1.185,1.206,2.537,2.043,3.53
		c37.349,44.295,74.702,88.586,112.121,132.798c6.183,7.305,12.666,14.253,19.011,21.366c0,5.973,0,11.947,0,17.92
		C551.055,106.044,501.619,47.506,452.183-11.032z"/>
	<path d="M373.489,849.12c-19.44-23.323-38.785-46.758-58.344-69.94c-26.161-31.007-52.489-61.819-79.069-93.095
		c2.488-3.228,4.457-5.782,7.841-10.172c5.732,7.519,11.011,15.054,16.82,21.966c40.885,48.645,81.885,97.156,122.816,145.748
		c1.365,1.62,2.379,3.653,3.557,5.494C382.569,849.12,378.029,849.12,373.489,849.12z"/>
	<path d="M-3.335,691.426c0-5.376,0-10.752,0-16.128c2.092,1.987,4.363,3.762,6.249,5.992
		c32.908,38.903,65.826,77.796,98.614,116.84c14.126,16.821,27.963,33.983,41.931,50.99c-4.54,0-9.08,0-13.62,0
		c-2.172-2.833-4.251-5.776-6.529-8.483c-25.564-30.379-51.106-60.786-76.765-91.052C30.015,730.085,13.299,710.805-3.335,691.426z"
		/>
	<path d="M592.924,849.12c-31.55-37.621-63.059-75.289-94.667-112.841c-14.193-16.862-28.583-33.493-43.212-50.614
		c2.671-3.252,4.73-5.757,7.322-8.913c18.006,21.446,35.493,42.402,53.101,63.215c28.299,33.448,56.678,66.801,85.023,100.194
		c0,2.987,0,5.973,0,8.96C597.969,849.12,595.447,849.12,592.924,849.12z"/>
	<path fill="#FFFFFF" d="M193.401,849.12C129.655,773.504,65.91,697.886,2.155,622.281c-1.775-2.105-3.658-4.082-5.49-6.118
		c0-4.181,0-8.363,0-12.544c67.283,79.757,134.57,159.51,201.822,239.304c1.537,1.823,2.671,4.121,3.994,6.198
		C199.454,849.12,196.427,849.12,193.401,849.12z"/>
	<path d="M4.232-11.032c23.912,28.555,47.759,57.186,71.755,85.641c21.486,25.479,43.136,50.765,65.095,76.585
		c-2.694,3.22-4.791,5.727-7.187,8.59c-19.974-23.618-39.509-46.768-59.093-69.861C48.776,59.235,22.713,28.591-3.335-2.072
		c0-2.987,0-5.973,0-8.96C-0.813-11.032,1.71-11.032,4.232-11.032z"/>
	<path fill="#FFFFFF" d="M167.674,849.12c-4.331-5.657-8.473-11.536-13.021-16.936C102.026,769.693,49.337,707.273-3.335,644.834
		c0-3.584,0-7.168,0-10.752c3.509,3.659,7.199,7.101,10.498,11.008c55.873,66.148,111.702,132.35,167.511,198.574
		c1.365,1.62,2.402,3.629,3.592,5.457C174.736,849.12,171.205,849.12,167.674,849.12z"/>
	<path fill="#FFFFFF" d="M427.969-11.032c57.507,68.095,115.014,136.191,172.522,204.286c0,4.181,0,8.363,0,12.544
		C541.074,135.385,481.653,64.977,422.269-5.475c-1.344-1.595-2.263-3.694-3.38-5.557C421.916-11.032,424.943-11.032,427.969-11.032
		z"/>
	<path fill="#FFFFFF" d="M143.46,849.12c-13.968-17.007-27.805-34.169-41.931-50.99C68.74,759.085,35.823,720.193,2.914,681.29
		c-1.887-2.23-4.157-4.005-6.249-5.992c0-4.181,0-8.363,0-12.544c6.888,7.75,13.922,15.326,20.64,23.277
		c44.908,53.144,89.75,106.365,134.593,159.587c0.851,1.011,1.443,2.328,2.156,3.503C150.522,849.12,146.991,849.12,143.46,849.12z"
		/>
	<path d="M-3.335,720.098c0-5.376,0-10.752,0-16.128c1.747,1.555,3.682,2.886,5.214,4.696
		c33.721,39.856,67.426,79.73,101.053,119.697c5.631,6.692,10.885,13.827,16.314,20.758c-4.54,0-9.08,0-13.62,0
		c-19.886-23.878-39.676-47.871-59.689-71.599C29.653,758.215,13.099,739.227-3.335,720.098z"/>
	<path d="M477.91-11.032c4.54,0,9.08,0,13.62,0c20.947,25.149,41.799,50.409,62.871,75.41c15.212,18.049,30.716,35.754,46.09,53.613
		c0,5.376,0,10.752,0,16.128c-1.571-1.336-3.334-2.444-4.685-4.042c-31.57-37.338-63.134-74.683-94.6-112.143
		C493.267,8.483,485.666-1.366,477.91-11.032z"/>
	<path fill="#FFFFFF" d="M452.183-11.032c49.436,58.538,98.872,117.076,148.308,175.614c0,3.584,0,7.168,0,10.752
		c-1.391-1.097-2.986-1.954-4.145-3.326C546.228,112.659,496.145,53.27,446.09-6.153c-1.183-1.405-2-3.243-2.987-4.879
		C446.13-11.032,449.156-11.032,452.183-11.032z"/>
	<path fill="#FFFFFF" d="M119.246,849.12c-5.428-6.93-10.683-14.066-16.314-20.758C69.306,788.396,35.6,748.522,1.879,708.666
		c-1.532-1.81-3.467-3.142-5.214-4.696c0-4.181,0-8.363,0-12.544c16.633,19.379,33.349,38.659,49.881,58.16
		c25.659,30.267,51.201,60.673,76.765,91.052c2.278,2.707,4.357,5.65,6.529,8.483C126.309,849.12,122.778,849.12,119.246,849.12z"/>
	<path fill="#FFFFFF" d="M477.91-11.032c7.756,9.666,15.357,19.515,23.296,28.966c31.467,37.46,63.031,74.805,94.6,112.143
		c1.351,1.597,3.114,2.706,4.685,4.042c0,4.181,0,8.363,0,12.544c-6.344-7.113-12.828-14.061-19.011-21.366
		C544.062,81.083,506.709,36.793,469.36-7.502c-0.837-0.993-1.369-2.345-2.043-3.53C470.848-11.032,474.379-11.032,477.91-11.032z"
		/>
	<path d="M600.491,89.319c0,5.376,0,10.752,0,16.128c-1.535-1.407-3.216-2.638-4.582-4.246
		c-17.123-20.162-34.278-40.288-51.266-60.609c-14.281-17.082-28.354-34.407-42.52-51.624c4.54,0,9.08,0,13.62,0
		c7.687,9.386,15.258,18.911,23.085,28.132C559.323,41.244,579.929,65.255,600.491,89.319z"/>
	<path d="M-3.335,748.769c0-5.376,0-10.752,0-16.128c1.904,1.822,3.964,3.46,5.689,5.496c18.876,22.282,37.761,44.555,56.517,66.979
		c12.162,14.541,24.115,29.327,36.162,44.004c-4.54,0-9.08,0-13.62,0c-6.806-8.322-13.504-16.773-20.439-24.942
		C39.586,798.984,18.108,773.898-3.335,748.769z"/>
	<path fill="#FFFFFF" d="M95.033,849.12c-12.047-14.676-24-29.463-36.162-44.004c-18.756-22.424-37.64-44.697-56.517-66.979
		c-1.725-2.036-3.784-3.673-5.689-5.496c0-4.181,0-8.363,0-12.544c16.434,19.129,32.987,38.118,49.272,57.424
		c20.014,23.728,39.803,47.721,59.689,71.599C102.095,849.12,98.564,849.12,95.033,849.12z"/>
	<path fill="#FFFFFF" d="M502.124-11.032c14.165,17.217,28.239,34.542,42.52,51.624c16.988,20.321,34.143,40.447,51.266,60.609
		c1.366,1.608,3.047,2.84,4.582,4.246c0,4.181,0,8.363,0,12.544c-15.374-17.858-30.878-35.563-46.09-53.613
		c-21.072-25.001-41.924-50.261-62.871-75.41C495.061-11.032,498.592-11.032,502.124-11.032z"/>
	<path d="M526.337-11.032c4.54,0,9.08,0,13.62,0c20.178,23.893,40.356,47.786,60.534,71.679c0,5.376,0,10.752,0,16.128
		c-8.433-9.623-17.014-19.073-25.269-28.906C558.832,28.347,542.622,8.614,526.337-11.032z"/>
	<path d="M-3.335,777.441c0-5.376,0-10.752,0-16.128c11.633,13.395,23.4,26.632,34.865,40.227
		c13.236,15.695,26.205,31.706,39.289,47.58c-4.54,0-9.08,0-13.62,0C37.021,825.227,16.843,801.334-3.335,777.441z"/>
	<path fill="#FFFFFF" d="M526.337-11.032c16.285,19.646,32.495,39.379,48.885,58.901c8.255,9.833,16.836,19.283,25.269,28.906
		c0,4.181,0,8.363,0,12.544c-20.562-24.064-41.168-48.075-61.663-72.22c-7.827-9.22-15.397-18.745-23.085-28.132
		C519.275-11.032,522.806-11.032,526.337-11.032z"/>
	<path fill="#FFFFFF" d="M70.819,849.12c-13.085-15.874-26.054-31.885-39.289-47.58c-11.464-13.595-23.232-26.832-34.865-40.227
		c0-4.181,0-8.363,0-12.544c21.443,25.128,42.921,50.215,64.308,75.409c6.935,8.169,13.633,16.62,20.439,24.942
		C77.882,849.12,74.35,849.12,70.819,849.12z"/>
	<path d="M600.491,31.976c0,5.376,0,10.752,0,16.128c-16.647-19.712-33.294-39.424-49.94-59.135c4.54,0,9.08,0,13.62,0
		C576.278,3.304,588.384,17.64,600.491,31.976z"/>
	<path d="M46.606,849.12c-4.54,0-9.08,0-13.62,0c-12.107-14.336-24.214-28.672-36.32-43.008c0-5.376,0-10.752,0-16.128
		C13.312,809.697,29.959,829.409,46.606,849.12z"/>
	<path fill="#FFFFFF" d="M550.551-11.032c16.647,19.712,33.294,39.424,49.94,59.135c0,4.181,0,8.363,0,12.544
		c-20.178-23.893-40.356-47.786-60.534-71.679C543.488-11.032,547.02-11.032,550.551-11.032z"/>
	<path fill="#FFFFFF" d="M46.606,849.12c-16.647-19.712-33.294-39.424-49.94-59.135c0-4.181,0-8.363,0-12.544
		c20.178,23.893,40.356,47.786,60.534,71.679C53.668,849.12,50.137,849.12,46.606,849.12z"/>
	<path fill="#FFFFFF" d="M600.491,31.976c-12.107-14.336-24.214-28.672-36.32-43.008c3.531,0,7.062,0,10.593,0
		c8.576,10.155,17.151,20.309,25.727,30.464C600.491,23.613,600.491,27.794,600.491,31.976z"/>
	<path fill="#FFFFFF" d="M-3.335,806.113c12.107,14.336,24.214,28.672,36.32,43.008c-3.531,0-7.062,0-10.593,0
		c-8.576-10.155-17.151-20.309-25.727-30.464C-3.335,814.475-3.335,810.294-3.335,806.113z"/>
	<path d="M-3.335,818.657c8.576,10.155,17.151,20.309,25.727,30.464c-4.54,0-9.08,0-13.62,0c-4.036-4.779-8.071-9.557-12.107-14.336
		C-3.335,829.409-3.335,824.033-3.335,818.657z"/>
	<path d="M600.491,19.432c-8.576-10.155-17.151-20.309-25.727-30.464c4.54,0,9.08,0,13.62,0c4.036,4.779,8.071,9.557,12.107,14.336
		C600.491,8.68,600.491,14.056,600.491,19.432z"/>
	<path fill="#FFFFFF" d="M600.491,3.304c-4.036-4.779-8.071-9.557-12.107-14.336c4.036,0,8.071,0,12.107,0
		C600.491-6.253,600.491-1.475,600.491,3.304z"/>
	<path fill="#FFFFFF" d="M-3.335,834.784c4.036,4.779,8.071,9.557,12.107,14.336c-4.036,0-8.071,0-12.107,0
		C-3.335,844.342-3.335,839.563-3.335,834.784z"/>
</g>
<rect x="-13.008" y="-20.805" opacity="0.8" fill="#D60B52" width="620.083" height="877.54"/>
</svg>
