<?xml version="1.0" encoding="utf-8"?>
<!-- Generator: Adobe Illustrator 17.1.0, SVG Export Plug-In . SVG Version: 6.00 Build 0)  -->
<!DOCTYPE svg PUBLIC "-//W3C//DTD SVG 1.1//EN" "http://www.w3.org/Graphics/SVG/1.1/DTD/svg11.dtd">
<svg version="1.1" id="Calque_1" xmlns="http://www.w3.org/2000/svg" xmlns:xlink="http://www.w3.org/1999/xlink" x="0px" y="0px"
	 viewBox="0 0 595.28 841.89" enable-background="new 0 0 595.28 841.89" xml:space="preserve">
<g>
	<path fill="#FFFFFF" d="M598.252,273.126c0,24.758,0,49.516,0,74.273c-16.022-4.884-32.06-8.757-45.328-2.898
		c13.545,3.244,29.436,7.05,45.328,10.856c0,3.537,0,7.074,0,10.61c-3.413-1.248-6.948-2.212-10.217-3.793
		c-17.816-8.615-39.325-10.564-52.552-3.824c24.362-1.809,43.86,8.589,62.77,20.88c0,4.421,0,8.842,0,13.263
		c-15.514-11.749-31.309-23.218-50.896-25.342c-9.886-1.072-19.96-0.187-29.949-0.187c-0.07,1.467-0.14,2.935-0.21,4.402
		c19.648-2.999,37.503,2.51,53.25,13.965c10.076,7.329,18.591,17.071,27.806,25.731c0,5.305,0,10.61,0,15.916
		c-3.509-4.236-7.192-8.325-10.5-12.731c-20.697-27.561-57.552-41.946-88.931-32.354c39.692-0.548,65.848,19.015,86.657,49.027
		c3.29,4.746,8.469,8.019,12.774,11.974c0,4.421,0,8.842,0,13.263c-6.269-5.703-12.914-11.01-18.721-17.2
		c-8.757-9.336-16.001-20.498-25.537-28.737c-22.237-19.212-54.52-25.419-73.714-15.83c43.758,2.233,57.742,10.701,86.04,46.391
		c8.432,10.635,21.168,17.432,31.932,25.988c0,3.537,0,7.074,0,10.611c-8.851-5.316-18.695-9.396-26.296-16.266
		c-9.07-8.198-15.87-19.147-24.267-28.269c-23.43-25.453-51.643-34.889-84.693-27.282c31.445-1.121,58.129,10.483,77.161,36.78
		c15.543,21.477,34.171,36.949,58.095,45.647c0,2.653,0,5.305,0,7.958c-12.118-5.422-25.112-9.372-36.082-16.72
		c-9.191-6.156-16.812-15.606-23.751-24.77c-24.714-32.642-60.736-47.421-95.398-35.41c41.443-3.1,67.122,17.484,89.447,47.358
		c16.226,21.713,38.349,34.931,65.784,34.847c0,2.653,0,5.305,0,7.958c-25.499,0.864-47.317-8.27-65.084-27.635
		c-8.675-9.455-16.092-20.284-25.208-29.19c-23.539-23-51.048-30.978-82.283-22.413c36.454-2.76,63.873,13.805,85.37,44.033
		c21.496,30.226,59.02,46.266,87.205,37.858c0,8.842,0,17.684,0,26.526c-11.373,24.758-10.217,49.516,0,74.273
		c0,7.074,0,14.147,0,21.221c-20.063-31.44-21.91-64.742-8.705-99.714c-17.642,26.005-21.473,54.223-11.515,83.799
		c5.515,16.38,13.402,31.861,20.221,47.747c0,33.6,0,67.2,0,100.8c-13.408-0.864-26.815-1.728-40.223-2.592
		c-0.007,0.924-0.013,1.847-0.02,2.771c13.414,1.709,26.828,3.417,40.242,5.126c0,3.537,0,7.074,0,10.61
		c-17.101-4.543-34.074-10.996-49.707-5.606c15.541,5.07,32.624,10.643,49.707,16.216c0,4.421,0,8.842,0,13.263
		c-23.315-16.626-48.215-24.082-73.154-16.371c11.938,2.559,26.867,3.962,40.47,9.222c11.681,4.516,21.848,13.438,32.684,20.412
		c0,5.305,0,10.61,0,15.916c-27.771-31.098-63.307-44.039-89.585-32.138c33.82-0.174,61.342,11.7,79.579,42.748
		c-3.335,0-6.67,0-10.005,0c-21.675-26.695-48.861-38.103-81.942-32.901c4.897,1.745,10.102,2.276,15.172,3.46
		c19.219,4.489,37.551,10.769,49.26,29.441c-4.169,0-8.338,0-12.507,0c-21.392-20.511-46.271-26.374-74.072-20.069
		c20.454,1.649,40.589,4.183,56.563,20.069c-5.836,0-11.673,0-17.509,0c-18.057-12.382-37.357-12.123-58.455-9.089
		c13.983,3.306,26.213,6.197,38.444,9.089c-20.845,0-41.689,0-62.534,0c25.711-37.448,24.877-75.514,3.971-115.167
		c-12.695-24.078-15.293-50.104-6.016-76.602c1.892-5.404,4.334-10.592,6.522-15.88c-24.496,32.009-26.779,67.189-8.838,102.201
		c18.227,35.57,20.781,69.901,1.86,105.448c-2.501,0-5.003,0-7.504,0c16.853-32.009,15.878-64.04-0.379-95.803
		c-10.142-19.814-16.906-40.55-14.004-63.244c1.457-11.395,5.569-22.409,8.481-33.595c-4.439,4.934-7.882,10.411-10.212,16.378
		c-11.818,30.265-8.49,59.373,6.249,87.654c14.925,28.637,18.426,58.137,4.862,88.61c-2.501,0-5.003,0-7.504,0
		c12.479-30.521,7.571-59.576-7.009-87.566c-11.76-22.576-16.022-46.286-10.168-71.441c1.985-8.531,5.747-16.597,8.696-24.875
		c-1.933,0.354-2.788,1.334-3.488,2.425c-21.374,33.287-21.583,67.847-3.839,102.418c12.955,25.242,17.683,51.078,10.806,79.039
		c-2.501,0-5.003,0-7.504,0c4.798-29.505-1.022-56.557-14.873-82.569c-4.705-8.835-7.391-20.102-7.399-30.261
		c-0.015-18.611,2.648-37.225,4.058-54.195c-17.553,30.317-19.909,63.601-3.652,97.226c10.727,22.187,17.637,44.658,14.363,69.798
		c-2.501,0-5.003,0-7.504,0c0.057-25.09-5.113-48.488-16.814-70.732c-10.485-19.933-12.113-41.975-6.569-64.152
		c1.964-7.856,5.279-15.332,7.978-22.982c-5.02,4.327-8.772,9.393-11.224,15.088c-13.898,32.291-9.857,63.268,6.054,93.626
		c7.923,15.117,13.748,31.153,10.57,49.151c-2.501,0-5.003,0-7.504,0c-2.07-11.607-2.993-23.623-6.509-34.715
		c-4.079-12.866-11.866-24.469-15.501-37.423c-7.446-26.528-5.045-52.651,8.109-77.399c-3.437,3.202-6.254,6.476-8.328,10.214
		c-19.015,34.272-15.353,67.941,1.214,102.106c5.525,11.394,7.443,24.755,11.01,37.218c-2.501,0-5.003,0-7.504,0
		c-5.196-14.313-9.868-28.871-15.718-42.877c-7.731-18.509-12.989-37.445-9.62-57.685c1.902-11.427,5.878-22.465,9.878-37.213
		c-4.702,7.58-8.134,11.958-10.388,16.936c-13.581,29.996-11.307,59.596,1.929,89.134c4.564,10.185,7.651,21.115,11.412,31.705
		c-3.335,0-6.67,0-10.005,0c-3.363-10.175-5.812-20.828-10.272-30.43c-10.318-22.21-13.985-45.001-7.722-69.012
		c2.287-8.768,5.89-17.15,9.379-27.093c-24.348,28.577-27.947,69.424-10.669,105.925c3.052,6.448,4.557,13.719,6.777,20.609
		c-2.501,0-5.003,0-7.504,0c-1.865-4.869-3.268-10.013-5.675-14.56c-10.291-19.44-15.387-40.131-11.936-62.24
		c1.783-11.422,5.859-22.442,9.749-36.776c-18.643,26.77-23.619,53.348-16.535,82.379c2.575,10.551,6.228,20.807,9.389,31.197
		c-2.501,0-5.003,0-7.504,0c-16.258-33.195-19.286-66.591-1.668-100.601c-12.835,13.946-20.502,30.869-20.071,50.005
		c0.381,16.912,4.347,33.734,6.731,50.596c-3.335,0-6.67,0-10.005,0c-0.094-2.178,0.303-4.541-0.357-6.505
		c-8.837-26.312-7.804-51.906,4.488-76.82c0.318-0.644-0.319-1.817-0.868-4.474c-18.858,28.078-22.554,56.831-13.269,87.8
		c-3.335,0-6.67,0-10.005,0c-5.567-26.52-5.263-52.296,8.21-76.89c-5.431,6.587-11.562,13.365-13.135,21.176
		c-3.688,18.308-5.193,37.111-7.581,55.714c-2.501,0-5.003,0-7.504,0c-3.881-21.893,1.067-42.408,9.38-62.428
		c-16.008,17.706-19.708,39.391-19.386,62.428c-3.335,0-6.67,0-10.005,0c3.939-17.939,7.878-35.878,11.427-52.039
		c-11.415,13.571-17.767,31.669-18.931,52.039c-2.501,0-5.003,0-7.504,0c2.613-12.887,5.226-25.774,7.838-38.661
		c-0.862-0.351-1.724-0.702-2.586-1.053c-4.252,13.238-8.505,26.476-12.757,39.714c-28.349,0-56.697,0-85.046,0
		c-26.278-8.711-46.365-25.717-62.939-49.033c-6.687-9.407-17.937-15.168-27.11-22.588c0-3.537,0-7.074,0-10.61
		c12.507,10.512,26.692,19.443,37.129,31.905c15.933,19.025,33.073,34.608,56.74,40.948c13.572,3.636,33.305,2.395,43.284-3.622
		c-33.952,4.417-61.454-7.603-81.437-34.758c-15.156-20.597-33.131-35.626-55.715-45.083c0-2.653,0-5.305,0-7.958
		c25.382,5.658,44.345,21.173,59.216,43.12c18.801,27.748,60.609,47.575,94.496,33.508c-40.153,2.904-67.203-15.663-89.482-46.509
		c-15.705-21.744-37.182-35.122-64.23-35.425c0-2.653,0-5.305,0-7.958c29.822-0.992,52.954,13.097,70.783,37.115
		c13.42,18.079,28.577,33.168,49.37,40.702c17.064,6.183,34.326,6.819,51.709,0.416c-33.82,3.133-61.939-8.946-82.158-37.283
		c-22.848-32.021-51.689-48.52-89.704-46.256c0-1.768,0-3.537,0-5.305c9.465-0.499,19.077-2.37,28.366-1.241
		c28.181,3.427,49.156,19.892,65.475,43.725c13.032,19.033,31.028,30.328,51.894,36.627c17.068,5.152,35.189,3.283,44.43-3.394
		c-35.28,4.711-63.285-8.908-84.692-38.508c-18.949-26.201-42.851-42.991-74.77-43.523c-10.214-0.17-20.468,2.365-30.703,3.662
		c0-1.768,0-3.537,0-5.305c0.691-0.529,1.382-1.059,2.072-1.588c22.029-24.95,25.158-54.37,16.099-85.463
		c-4.334-14.874-12.009-28.653-18.171-42.927c0-35.368,0-70.737,0-106.105c12.271-0.526,24.542-1.053,36.813-1.579
		c-0.09-0.794-0.179-1.588-0.269-2.383c-12.181-1.332-24.363-2.664-36.544-3.996c0-3.537,0-7.074,0-10.611
		c16.693,5.947,33.523,9.429,48.136,5.14c-14.738-4.823-31.437-10.287-48.136-15.751c0-3.537,0-7.074,0-10.61
		c22.953,12.495,46.356,21.761,72.603,11.373c-28.231,2.73-52.084-7.296-72.603-27.289c0-4.421,0-8.842,0-13.263
		c11.449,8.597,22.323,18.281,34.496,25.506c14.213,8.436,42.935,12.433,58.112,1.539c-26.677,4.48-49.463-3.103-69.134-20.606
		c-8.463-7.53-15.687-16.624-23.475-25.007c0-5.305,0-10.61,0-15.916c3.812,4.655,7.931,9.069,11.381,14.008
		c12.559,17.977,28.901,30.452,48.781,37.463c15.412,5.435,31.057,6.533,46.513,0.328c-42.769-2.319-57.908-10.631-86.435-46.412
		c-5.703-7.153-13.441-12.48-20.241-18.65c0-4.421,0-8.842,0-13.263c9.368,9.252,19.73,17.622,27.876,27.957
		c13.148,16.682,28.37,29.706,47.478,37.529c16.306,6.676,40.881,6.183,51.492-0.82c-34.657,4.022-62.627-9.102-83.713-38.352
		c-11.631-16.133-25.42-28.995-43.132-36.925c0-3.537,0-7.074,0-10.61c14.075,10.642,28.583,20.711,42.046,32.161
		c7.021,5.971,11.546,15.158,18.331,21.539c23.42,22.028,50.308,30.803,81.114,22.309c-42.474-5.106-59.95-11.512-77.681-36.336
		c-16.813-23.54-37.175-39.825-63.81-47.63c0-2.653,0-5.305,0-7.958c27.435,5.191,49.302,19.513,65.603,43.743
		c10.906,16.211,26.065,26.862,43.425,34.144c17.292,7.254,42.257,7.272,54.446-0.301c-35.59,4.721-64.194-8.422-85.303-38.049
		c-19.865-27.881-45.428-43-78.171-44.843c0-1.768,0-3.537,0-5.305c28.261-4.287,51.839,6.524,70.784,27.582
		c15.738,17.493,28.977,37.387,51.191,47.066c18.183,7.923,36.28,9.82,54.952,3.748c-44.437-3.42-57.096-10.167-86.012-46.626
		C64.381,300.581,28.139,286.859-2.072,297c0-5.305,0-10.61,0-15.916c18.658-31.831,16.899-63.663,0-95.494
		c0-7.074,0-14.147,0-21.221C18.099,198.814,29.03,234.537,9.13,275.128c2.996-1.149,3.857-1.222,4.327-1.715
		c0.864-0.907,1.596-1.999,2.213-3.12c16.685-30.297,16.185-61.211,2.853-92.543c-4.269-10.033-9.685-19.661-12.8-30.073
		c-7.923-26.483-4.51-52.064,6.731-77.196C7.612,78.788,2.77,87.094-2.072,95.401c0-17.684,0-35.368,0-53.052
		c15.32,2.473,30.667,5.605,43.203,0.321c-13.28-3.36-28.242-7.146-43.203-10.931c0-2.653,0-5.305,0-7.958
		c3.877,1.298,7.804,2.45,11.622,3.92c18.683,7.195,40.606,7.213,53.968-0.511C38.8,31.832,17.699,24.003-2.072,10.517
		c0.834-4.421,1.668-8.842,2.501-13.263c15.763,20.952,54.835,30.564,80.684,18.547c-25.245,2.273-47.077-2.151-65.676-18.547
		c6.67,0,13.341,0,20.011,0C50.13,10.693,84.074,13.939,94.49,6.168C83.568,3.674,69.513,0.464,55.459-2.746
		c24.18,0,48.359,0,72.539,0c-17.003,31.85-16.658,64.132-0.623,95.921c16.518,32.745,21.625,65.405,3.638,99.329
		c-0.201,0.38,0.568,1.338,1.472,3.307c3.629-6.228,7.407-11.511,10.01-17.381c13.624-30.72,11.032-60.894-4.027-90.126
		c-15.23-29.562-19.619-59.62-5.467-91.05c2.501,0,5.003,0,7.504,0c-13.892,31.323-7.779,60.972,6.929,89.754
		c11.779,23.05,16.226,47.084,9.026,72.627c-2.373,8.417-5.875,16.476-8.861,24.699c7.736-10.004,14.446-20.845,17.597-32.745
		c6.65-25.111,4.27-50.009-8.101-72.95c-13.842-25.671-18.698-52.498-11.587-81.385c2.501,0,5.003,0,7.504,0
		c-5.251,27.978-1.052,54.193,12.481,78.913c3.301,6.03,5.578,12.773,7.747,19.401c8.375,25.581,4.589,50.085-6.192,74.32
		c4.345-4.667,8.069-9.624,10.572-15.197c13.548-30.171,11.444-60.322-3.268-88.927c-11.179-21.735-16.581-43.997-13.835-68.51
		c2.501,0,5.003,0,7.504,0c-1.83,25.053,5.328,47.472,16.065,69.516c5.377,11.04,8.128,23.937,10.072,36.346
		c3.352,21.401-3.354,41.022-12.901,59.748c12.307-13.487,19.829-29.133,21.721-47.83c2.39-23.612-2.082-45.468-13.15-66.058
		c-8.584-15.97-14.125-32.878-11.803-51.722c2.501,0,5.003,0,7.504,0c4.54,17.198,7.073,35.385,14.076,51.369
		c11.29,25.769,17.969,51.126,8.784,78.937c-2.11,6.388-4.909,12.52-7.39,18.77c5.347-4.395,9.269-9.595,11.793-15.47
		c13.154-30.618,10.276-60.394-3.323-90.317c-6.197-13.636-9.382-28.812-13.934-43.289c2.501,0,5.003,0,7.504,0
		c3.391,10.819,6.372,21.809,10.297,32.406c3.476,9.385,8.909,18.014,11.896,27.534c8.651,27.573,5.562,54.25-8.109,79.646
		c24.111-25.494,28.393-68.992,11.654-104.473c-5.299-11.232-8.869-23.382-13.231-35.112c3.335,0,6.67,0,10.005,0
		c2.77,8.971,5.339,18.019,8.361,26.894c3.776,11.091,8.882,21.77,11.715,33.104c6.013,24.062-0.031,46.488-11.226,67.793
		c24.619-25.849,28.902-68.026,11.441-105.303c-3.495-7.461-6.861-14.99-10.286-22.488c3.335,0,6.67,0,10.005,0
		c1.437,4.101,2.317,8.556,4.399,12.248c18.347,32.529,20.602,65.801,2.373,102.729c3.824-3.287,5.278-4.118,6.168-5.392
		c1.719-2.462,3.29-5.08,4.628-7.796c17.225-34.974,13.021-68.775-5.061-101.788c3.335,0,6.67,0,10.005,0
		c15.764,31.455,21.41,63.681,5.721,97.69c11.806-12.77,17.336-28.312,16.756-44.64c-0.631-17.758-4.827-35.373-7.469-53.05
		c3.335,0,6.67,0,10.005,0c7.563,30.067,12.31,59.998-4.745,88.872c20.165-18.345,26.166-56.912,14.75-88.872
		c3.335,0,6.67,0,10.005,0c8.469,27.879,5.088,54.486-7.443,80.537c6.979-10.729,14.268-21.579,16.728-33.545
		c3.123-15.19,2.327-31.287,3.221-46.992c2.501,0,5.003,0,7.504,0c5.031,22.881,0.088,44.249-8.733,65.126
		c15.154-18.875,22.198-40.295,18.739-65.126c3.335,0,6.67,0,10.005,0c-3.498,18.805-6.996,37.61-9.974,53.62
		c10.451-13.678,18.843-31.674,17.478-53.62c3.335,0,6.67,0,10.005,0c-3.733,13.939-7.466,27.878-11.2,41.817
		c0.844,0.379,1.687,0.759,2.531,1.138c5.391-14.318,10.782-28.636,16.173-42.954c24.18,0,48.359,0,72.539,0
		c27.185,4.964,49.926,17.95,66.52,41.8c20.154,28.965,47.141,43.32,81.06,43.084c0,1.768,0,3.537,0,5.305
		c-28.908,5.479-53.366-4.077-73.902-25.449c-9.777-10.175-18.041-22.021-28.043-31.912c-21.622-21.383-55.136-29.816-77.048-19.866
		c35.949-1.844,61.379,15.518,82.661,43.987c24.549,32.838,56.845,46.197,96.332,35.893c0,3.537,0,7.074,0,10.61
		c-23.732,28.172-23.732,76.221,0,111.41c0,9.726,0,19.453,0,29.179c-6.778-16.43-14.024-32.665-20.221-49.338
		c-8.568-23.053-9.182-46.399,0.087-69.601c0.931-2.331,1.365-4.886,2.478-8.993c-2.226,1.89-2.988,2.331-3.477,2.997
		c-1.02,1.389-2.03,2.821-2.812,4.368c-16.071,31.802-14.652,63.564,1.273,94.685c10.431,20.384,16.53,41.557,13.211,64.734
		c-1.417,9.901-4.826,19.481-7.33,29.207c1.035,0.389,2.07,0.777,3.105,1.166C589.129,298.056,593.69,285.591,598.252,273.126z
		 M161.052,397.758c-3.113,4.99-6.756,9.701-9.25,15.017c-13.886,29.603-12.433,59.693,2.154,87.81
		c17.932,34.566,21.715,68.416,1.637,105.462c2.915-2.206,4.064-2.746,4.763-3.669c1.818-2.398,3.63-4.843,5.111-7.48
		c17.768-31.656,17.192-64.105,1.325-95.829C150.359,466.213,145.256,433.658,161.052,397.758z M64.487,38.216
		c-15.611,18.889-21.228,41.115-18.013,65.103c1.719,12.824,5.131,26.158,10.912,37.46c17.41,34.034,20.408,67.849,3.35,102.946
		c20.751-26.703,25.499-56.53,15.118-88.772c-3.733-11.595-10.181-22.177-14.422-33.625C51.061,93.329,52.037,65.573,64.487,38.216z
		 M338.611,280.117c-0.966-0.416-1.932-0.833-2.898-1.249c-4.142,7.641-9.319,14.864-12.24,22.998
		c-10.66,29.688-5.716,57.991,8.623,84.972c13.134,24.713,15.893,50.69,8.268,77.735c-1.925,6.829-5.567,13.113-8.42,19.648
		c24.256-25.424,28.09-65.885,12.067-101.758c-6.503-14.558-12.489-29.839-15.667-45.486
		C324.354,317.338,328.316,297.87,338.611,280.117z M57.13,683.554c37.805-3.413,65.768,13.819,87.801,45.064
		c5.616,7.965,13.25,14.627,20.808,20.697c19.689,15.813,53.028,23.856,69.177,14.7c-12.802-3.089-30.333-3.8-44.294-11.65
		c-14.834-8.342-27.629-22.201-38.938-35.863C125.666,685.071,91.333,671.908,57.13,683.554z M39.976,478.798
		c-2.563,3.94-5.411,7.708-7.643,11.849c-18.612,34.526-14.79,68.538,2.896,101.8c10.73,20.179,13.391,41.705,10.034,63.975
		c-1.516,10.059-5.871,19.637-9.498,31.225c2.833-3.345,4.624-5.146,6.049-7.229c1.452-2.122,2.636-4.47,3.78-6.806
		c14.833-30.267,13.713-61.026-1.266-90.1C26.442,548.792,22.984,514.838,39.976,478.798z M193.306,581.432
		c2.352-3.323,4.988-6.463,7.011-9.998c18.027-31.495,17.639-63.931,1.917-95.752c-10.959-22.182-18.069-44.715-14.066-69.721
		c1.686-10.535,5.734-20.644,9.811-34.766c-3.473,4.85-5.053,6.774-6.328,8.904c-1.776,2.967-3.515,5.992-4.941,9.158
		c-13.375,29.678-12.249,59.489,2.577,87.669C207.425,511.402,210.471,545.416,193.306,581.432z M228.206,557.304
		c1.277-1.524,2.717-2.927,3.808-4.589c21.672-33.031,21.958-67.75,4.77-102.293c-10.251-20.603-16.525-41.521-13.674-64.551
		c1.468-11.862,5.498-23.367,9.073-37.885c-3.979,6.464-6.968,10.499-9.141,14.978c-15.64,32.241-12.428,63.817,3.572,94.711
		C243.555,490.386,244.282,523.044,228.206,557.304z M286.314,312.356c-2.664,2.51-3.669,3.151-4.283,4.081
		c-22.549,34.156-20.619,69.317-3.121,104.668c11.162,22.55,17.479,45.808,11.185,71.114c-2.423,9.743-6.695,18.969-10.96,30.738
		c25.763-32.192,28.952-73.132,9.498-110.324c-12.628-24.143-17.64-49.323-10.873-76.339
		C279.62,328.861,282.881,321.822,286.314,312.356z M248.005,543.175c3.66-6.456,8.069-12.57,10.85-19.427
		c12.426-30.647,8.821-60.498-6.02-88.993c-9.328-17.91-15.024-36.699-12.433-56.938c1.831-14.301,6.512-28.191,9.527-40.641
		c-22.133,25.104-25.772,68.194-8.531,103.472c5.867,12.005,10.839,24.821,14.114,37.861
		C261.092,500.729,255.58,521.878,248.005,543.175z M176.425,590.056c0.542,0.313,1.083,0.626,1.625,0.939
		c3.352-5.873,7.296-11.461,9.955-17.668c13.275-30.993,9.85-61.191-5.374-90.207c-10.931-20.832-15.945-42.798-11.875-66.237
		c1.911-11.006,6.469-21.495,10.274-33.644c-24.19,30.366-27.245,70.32-8.432,107.548c11.125,22.014,18.057,44.767,13.002,69.825
		C183.571,570.66,179.542,580.255,176.425,590.056z M107.422,638.695c2.548-3.663,5.628-7.037,7.558-11.035
		c12.611-26.125,14.657-53.099,4.283-80.54c-4.008-10.603-9.724-20.487-13.622-31.128c-10.123-27.633-8.503-54.9,3.79-81.617
		c-17.575,20.253-21.923,44.624-17.645,70.43c2.184,13.176,6.988,26.378,12.965,38.232
		C120.703,574.678,120.521,606.015,107.422,638.695z M218.329,358.071c-3.028,2.323-4.112,2.804-4.713,3.665
		c-23.634,33.888-23.579,69.519-5.568,105.583c13.005,26.042,19.328,52.46,9.823,81.243c-1.983,6.006-4.659,11.755-7.016,17.623
		c4.913-3.613,8.193-8.106,10.573-13.082c14.037-29.341,13.428-59.378-0.861-87.698C202.924,430.438,198.003,396.07,218.329,358.071
		z M29.374,61.677c-12,13.485-20.008,32.144-18.251,52.834c1.423,16.751,4.095,34.621,11.135,49.35
		c16.663,34.862,21.403,68.698,2.773,104.356c4.255-4.593,8.106-9.207,10.7-14.511c15.98-32.684,12.839-64.937-3.674-96.064
		c-10.442-19.683-14.406-40.502-11.588-62.424C21.933,83.819,26.31,72.843,29.374,61.677z M308.274,714.806
		c-37.456,2.199-65.34-15.041-87.065-46.406c-5.305-7.658-12.588-14.098-19.839-19.857c-21.941-17.428-53.372-22.466-75.345-12.209
		c38.481-4.065,65.935,12.832,88.675,43.746C238.242,712.085,269.876,725.108,308.274,714.806z M226.059,142.696
		c36.314-1.592,62.033,16.342,84.545,44.947c11.215,14.251,27.802,24.589,43.471,33.805c13.945,8.202,37.237,5.859,48.683-1.121
		c-36.101,3.652-62.772-11.755-83.908-41.692C295.342,145.339,257.524,131.286,226.059,142.696z M277.578,736.889
		c-43.141,5.106-70.757-15.433-94.044-47.471c-21.054-28.966-63.156-42.939-93.806-28.705c29.293-4.171,52.73,4.597,72.559,23.108
		c9.257,8.642,16.265,19.934,24.818,29.496C205.068,733.397,241.02,752.34,277.578,736.889z M203.982,786.718
		c-37.241,2.428-65.189-13.707-86.822-44.877c-22.244-32.05-65.949-47.598-95.968-33.621c31.738-3.584,56.649,7.506,77.251,29.863
		c6.657,7.224,11.814,16.019,18.566,23.124C141.553,787.035,170.601,796.404,203.982,786.718z M437.562,197.636
		c-9.13-0.85-19.479-1.068-29.568-2.896c-26.608-4.82-42.817-24.791-58.752-45.647c-23.101-30.235-62.04-42.431-90.884-30.132
		c8.452,0.516,17.69,0.046,26.529,1.815c25.345,5.073,44.74,20.248,59.423,42.351C361.918,189.635,404.384,212.342,437.562,197.636z
		 M354.361,268.917c-15.72,20.167-22.679,43.203-17.237,68.71c2.886,13.524,8.089,26.766,13.922,39.254
		c14.656,31.375,15.427,62.401-0.138,93.791c22.464-22.318,27.418-67.114,10.164-100.715
		C344.204,337.107,336.92,304.408,354.361,268.917z M267.001,326.966c-12.635,14.18-19.476,31.585-18.366,50.231
		c1.023,17.179,3.43,35.825,10.82,50.702c16.818,33.861,21.071,66.83,3.925,102.152c1.94-0.528,2.933-0.475,3.33-0.965
		c1.343-1.656,2.603-3.423,3.667-5.293c17.32-30.433,18.455-62.406,3.21-93.205C256.744,396.561,250.583,363.144,267.001,326.966z
		 M76.679,455.391c-22.673,23.85-27.869,65.812-12.892,99.701c3.876,8.771,8.656,17.162,11.847,26.193
		c9.655,27.327,7.796,54.245-4.1,80.828c3.926-4.14,7.132-8.481,9.46-13.298c15.175-31.402,12.495-62.686-2.989-92.603
		C60.587,522.557,59.057,489.496,76.679,455.391z M87.195,652.612c24.311-28.494,28.093-69.264,9.259-105.927
		c-17.594-34.25-21.675-68.111-1.75-102.784c0.168-0.292-0.432-1.08-0.696-1.688c-24.03,28.429-28.984,70.606-10.26,106.057
		C102.04,582.904,105.06,617.012,87.195,652.612z M217.608,574.416c34.836-0.495,62.134,13.708,82.77,43.531
		c6.047,8.74,13.975,16.556,22.344,22.844c21.93,16.475,45.942,23.16,70.935,14.465c-11.784-2.122-25.048-3.189-37.541-7.056
		c-21.341-6.606-34.979-24.063-48.815-41.485C283.708,577.008,253.619,565.349,217.608,574.416z M55.957,468.786
		c-3.465,5.767-7.357,10.809-9.793,16.546c-10.767,25.356-11.619,51.197-1.538,77.017c3.958,10.139,9.453,19.619,13.193,29.834
		c10.484,28.629,8.329,56.643-5.318,84.018c2.127-1.172,3.587-2.551,4.639-4.218c20.124-31.896,21.112-65.284,5.36-99.075
		c-8.565-18.374-17.573-36.68-15.805-57.55C47.996,500.003,52.613,484.963,55.957,468.786z M368.018,461.512
		c2.406-3.162,5.345-6.018,7.133-9.533c15.876-31.208,18.239-63.406,2.403-95.039c-17.413-34.786-21.163-69.373-3.974-105.556
		c-2.578,2.187-4.658,4.362-6.048,6.955c-17.762,33.143-20.214,67.183-2.18,100.731
		C383.599,393.012,384.566,426.384,368.018,461.512z M244.794,329.387c-7.689-0.513-15.47-0.404-23.052-1.649
		c-28.654-4.704-48.383-23.591-65.574-46.732C135.096,252.64,91.78,238.122,64.43,251.72c39.092-3.712,66.796,13.968,88.719,44.973
		c5.388,7.621,12.577,14.31,20.056,19.674C195.003,332.002,218.712,338.541,244.794,329.387z M123.954,624.726
		c3.551-2.829,4.798-3.414,5.457-4.428c1.644-2.529,3.234-5.147,4.473-7.917c13.626-30.448,12.468-60.746-2.528-90.022
		c-16.274-31.771-21.189-63.595-4.392-96.826c0.347-0.686-0.22-1.891-0.694-5.129c-3.704,6.169-6.702,10.354-8.907,14.966
		c-14.495,30.313-13.086,61.091,1.914,89.982C135.642,556.872,139.347,588.125,123.954,624.726z M498.781,797.642
		c24.459-27.918,29.606-67.558,10.851-104.258c-17.695-34.625-22.673-68.306-3.043-103.599c-1.202-0.219-1.741-0.477-1.893-0.319
		c-1.16,1.215-2.421,2.384-3.326,3.8c-20.633,32.273-21.875,66.194-4.771,99.918C514.248,727.983,518.329,762.087,498.781,797.642z
		 M317.586,495.005c2.264-3.347,4.854-6.5,6.74-10.071c16.671-31.564,15.593-63.434-0.14-94.71
		c-10.469-20.812-16.994-42.255-13.755-65.891c1.343-9.8,4.655-19.297,7.072-28.931c-5.324,5.095-9.198,11.105-11.395,17.739
		c-9.342,28.199-6.351,55.271,6.439,81.855c5.595,11.63,9.717,24.27,12.993,36.894C331.232,453.82,324.547,474.286,317.586,495.005z
		 M145.553,407.596c-1.223,1.389-2.644,2.637-3.631,4.195c-2.771,4.375-5.875,8.627-7.943,13.371
		c-13.353,30.63-11.24,60.805,3.717,90.034c13.452,26.288,19.391,53.304,9.504,82.452c-1.884,5.555-4.312,10.903-7.652,19.255
		c23.836-27.231,28.602-70.126,10.874-103.761C132.085,478.355,127.534,444.14,145.553,407.596z M353.501,257.642
		c-30.286-0.295-43.1-2.211-58.135-14.274c-12.104-9.712-22.947-21.632-32.811-33.958c-24.272-30.328-67.205-42.904-92.608-30.489
		c9.966,0.837,20.869,0.502,31.221,2.87c25.802,5.901,43.556,23.864,59.313,45.436C282.369,257.191,322.299,270.083,353.501,257.642
		z M160.512,611.512c1.639,0.376,2.827,0.974,3.951,0.86c35.683-3.63,62.488,12.255,83.796,41.623
		c6.246,8.609,13.983,16.384,22.169,22.955c22.038,17.692,52.359,22.849,72.944,12.697c-38.281,2.947-65.068-14.802-87.166-45.338
		C232.416,611.433,194.502,599.54,160.512,611.512z M115.852,1.736c-2.88,4.744-6.216,9.249-8.567,14.272
		c-15.024,32.102-10.425,63.049,4.174,93.983c5.493,11.638,9.153,24.505,12.013,37.225c4.579,20.365-1.974,39.417-10.594,60.539
		c23.381-26.953,27.198-69.888,9.676-103.884C105.571,70.919,99.694,37.976,115.852,1.736z M99.232,14.216
		C76.358,45.98,75.053,79.993,91.194,114.684c9.337,20.068,18.484,39.994,15.561,62.886c-1.784,13.97-6.166,27.566-9.293,40.957
		c1.187-1.444,2.944-3.294,4.37-5.397c1.445-2.131,2.673-4.452,3.806-6.794c15.79-32.642,12.682-64.601-2.859-96.265
		c-3.623-7.381-6.951-15.051-9.371-22.948C85.722,62.043,89.414,37.828,99.232,14.216z M134.229,203.643
		c40.703-4.619,68.749,16.09,92.342,48.586c7.763,10.693,19.863,18.95,31.487,25.132c18.223,9.691,37.967,12.901,59.011,5.172
		c-11.38-1.206-21.929-1.143-31.914-3.625c-21.437-5.329-38.075-18.701-51.532-37.146
		C206.512,204.599,170.766,190.853,134.229,203.643z M83.953,23.726c-24.51,28.756-27.82,70.27-8.907,106.253
		c12.198,23.206,17.993,47.422,12.437,73.758c-1.664,7.89-4.624,15.473-6.99,23.196c22.292-31.049,22.368-64.027,7.724-98.151
		c-4.298-10.014-9.332-19.779-12.602-30.163C67.375,72.459,71.771,47.498,83.953,23.726z M197.46,587.812
		c37.078-3.649,64.866,13.013,86.918,43.561c5.985,8.291,13.294,16.069,21.357,22.001c20.874,15.356,43.91,21.442,69.263,13.866
		c-37.092,0.95-62.784-18.761-85.047-48.228C265.647,586.843,228.495,575.42,197.46,587.812z M279.42,306.186
		c-36.23,0.613-63.597-15.32-85.645-45.585c-8.784-12.058-21.882-21.682-34.734-29.037c-17.505-10.019-36.898-12.742-54.964-5.965
		c11.906,2.469,25.147,4.01,37.656,8.079c20.747,6.749,34.286,23.547,47.856,40.662C213.186,304.099,243.578,314.854,279.42,306.186
		z M231.467,563.621c37.133-3.099,65.42,12.038,87.291,43.302c6.547,9.359,15.461,17.354,24.509,24.149
		c21.199,15.921,48.927,20.056,63.625,12.294c-9.921-2.028-21.956-3.278-33.231-7.071c-17.895-6.02-31.728-18.505-43.132-34.37
		C303.809,564.756,269.906,551.719,231.467,563.621z M295.349,725.237c-38.754,3.744-66.32-10.531-87.887-39.895
		c-6.313-8.595-13.729-16.752-21.974-23.186c-21.28-16.605-44.907-23.772-71.208-16.06c24.182,0.307,46.137,7.712,64.36,24.718
		c8.65,8.073,15.403,18.398,23.27,27.455C225.766,725.735,261.148,737.99,295.349,725.237z M380.979,234.093
		c-8.174-0.938-16.469-1.236-24.5-2.932c-26.129-5.518-43.575-23.82-59.181-45.271c-21.152-29.075-62.684-44.067-94.004-29.351
		c20.477-3.157,39.271-1.103,54.483,10.288c14.659,10.977,26.928,25.688,39.683,39.351
		C320.865,231.251,347.771,243.878,380.979,234.093z M30.266,274.684c38.11-2.662,65.686,15.152,88.391,46.642
		c22.399,31.065,60.775,43.363,90.679,32.46c-0.666-0.376-1.31-1.069-1.926-1.041c-34.845,1.587-60.586-14.378-82.183-43.058
		C101.235,277.826,69.378,263.768,30.266,274.684z M302.161,503.688c1.487-2.032,3.24-3.904,4.422-6.119
		c17.853-33.447,15.631-66.919-1.727-99.325c-11.282-21.062-14.286-43.113-11.047-66.308c1.353-9.689,5.312-18.969,8.086-28.434
		c-3.736,2.877-6.454,6.473-8.439,10.478c-14.908,30.062-14.438,60.637,0.632,89.934
		C310.612,436.039,315.769,468.167,302.161,503.688z M363.64,677.587c-21.812,3.315-42.151-1.157-59.398-14.581
		c-12.162-9.466-22.356-21.962-32.716-33.807c-24.342-27.833-53.313-39.65-88.661-31.071c7.632,1.281,15.544,1.299,23.217,2.746
		c26.434,4.983,45.515,21.538,61.592,43.58C291.866,677.621,331.873,691.163,363.64,677.587z M249.799,551.919
		c41.706-2.955,68.917,16.656,90.488,48.14c4.551,6.643,11.018,12.085,17.324,17.05c21.898,17.24,54.136,22.354,74.751,12.078
		c-8.301,0-16.152,0.69-23.862-0.122c-30.376-3.197-49.704-24.069-67.381-47.779C320.131,553.131,282.603,540.297,249.799,551.919z
		 M22.918,490.702c-2.365,3.321-5.038,6.446-7.048,9.993c-18.114,31.974-17.552,64.635-1.42,96.893
		c9.791,19.579,16.703,39.641,14.369,61.881c-1.213,11.562-4.892,22.833-7.457,34.235c4.079-4.116,7.602-8.812,9.616-14.149
		c10.105-26.77,10.562-54.231-2.289-79.47C10.376,564.119,3.109,528.781,22.918,490.702z M571.88,745.849
		c22.705-30.948,24.929-65.292,8.298-98.876c-17.179-34.69-23.147-68.247-2.995-106.856c-23.481,24.75-29.201,69.151-12.135,102.133
		C582.636,676.242,588.637,709.578,571.88,745.849z M368.932,246.184c-9.955-0.872-19.893-0.709-29.397-2.781
		c-23.037-5.022-40.426-19.431-54.481-39.045c-24.447-34.115-58.921-48.186-94.144-38.395c1.573,0.412,2.598,0.919,3.62,0.914
		c34.283-0.159,60.207,15.711,80.25,44.885c12.565,18.289,30.03,30.542,51,35.811C340.156,251.185,354.787,252.183,368.932,246.184z
		 M149.386,622.629c35.973-0.734,62.97,16.331,83.652,46.496c13.073,19.067,31.383,30.867,52.582,35.24
		c13.925,2.873,28.805,0.543,43.257,0.543c-0.034-1.088-0.069-2.177-0.103-3.265c-7.427,0-14.93,0.733-22.266-0.131
		c-27.231-3.208-47.878-18.124-64.356-40.893C217.794,626.96,181.622,612.069,149.386,622.629z M469.901,614.351
		c-23.392,30.628-26.326,67.976-7.856,103.998c10.672,20.814,17.241,42.259,13.625,65.866c-1.79,11.685-5.985,22.955-9.005,34.092
		c21.187-24.478,25.983-65.426,8.324-99.851C457.323,684.02,451.454,650.303,469.901,614.351z M43.315,252.904
		c1.268,0.428,2.537,0.857,3.805,1.285c4.424-10.282,10.277-20.16,12.986-30.928c6.473-25.731,3.564-50.763-8.895-74.258
		c-15.797-29.789-20.191-60.408-5.817-92.377c0.306-0.682-0.572-1.963-1.491-4.784c-20.215,33.23-21.495,66.531-5.143,99.067
		C55.721,184.657,61.281,217.688,43.315,252.904z M364.477,46.47c36.467-3.321,63.211,13.855,84.66,43.42
		c5.513,7.598,12.198,14.566,19.359,20.431c22.583,18.496,47.709,24.629,75.478,15.46c-38.303,3.291-65.259-15.732-88.545-46.253
		c-9.995-13.099-24.995-23.149-39.495-30.802C400.022,40.329,382.003,38.812,364.477,46.47z M263.854,540.664
		c42.554-5.292,71.372,14.294,94.152,47.686c4.982,7.303,12.15,13.581,19.471,18.314c20.944,13.543,43.229,21.136,67.928,12
		c-23.248,0.722-44.878-4.905-62.632-21.135c-9.303-8.505-16.533-19.572-24.639-29.537
		C334.951,539.492,293.923,526.83,263.854,540.664z M344.151,59.495c37.106-4.861,65.039,10.889,86.788,42.072
		c10.758,15.424,24.391,27.641,41.788,34.322c17.695,6.795,35.47,9.921,53.508,1.6c-37.807,3.805-65.498-13.783-87.208-45.078
		C416.66,60.169,377.177,46.476,344.151,59.495z M536.883,558.317c-38.96,3.589-67.203-15.024-89.245-47.22
		c-3.142-4.59-7.137-8.607-11.105-12.463c-22.511-21.877-56.271-29.958-80.196-18.476c37.108-4.203,62.9,12.924,84.908,41.673
		c10.159,13.27,24.135,24.317,38.277,32.827C497.283,565.346,517.285,565.22,536.883,558.317z M318.327,504.074
		c41.868-3.079,70.688,15.024,92.812,48.896c12.027,18.413,31.032,28.203,51.511,32.07c12.091,2.283,24.878,0.417,37.352,0.417
		c-0.013-1.165-0.027-2.33-0.04-3.496c-5.26,0-10.54,0.313-15.777-0.052c-31.004-2.159-52.959-19.614-70.904-45.427
		C391.103,504.582,351.846,491.062,318.327,504.074z M495.663,170.839c-1.767,0.423-2.173,0.392-2.376,0.592
		c-0.902,0.89-1.904,1.731-2.588,2.794c-19.665,30.541-21.451,63.343-5.315,95.014c17.329,34.013,22.924,67.268,5.066,104.497
		c2.819-2.051,4.03-2.541,4.667-3.471c1.701-2.485,3.345-5.056,4.681-7.776c14.471-29.472,14.099-59.09,0.679-88.828
		c-4.117-9.123-8.836-18.034-12.023-27.517C479.798,220.392,482.686,195.346,495.663,170.839z M53.954,261.414
		c34.651,1.029,60.699,17.696,81.206,46.897c12.45,17.729,29.868,29.175,50.295,34.846c15.441,4.287,36.616,2.877,45.521-2.82
		c-7.106,0-14.578,0.608-21.936-0.107c-29.488-2.864-50.121-20.747-68.093-44.264C118.619,266.749,89.568,254.228,53.954,261.414z
		 M237.724,130.374c12.003,1.305,23.588,1.496,34.716,3.988c25.944,5.811,42.777,24.921,58.78,45.907
		c21.444,28.121,58.084,40.171,88.569,28.815c-40.459,2.621-65.711-18.049-88.06-47.365
		C307.724,130.23,275.516,120.439,237.724,130.374z M471.839,176.667c-0.118-0.666-0.237-1.331-0.355-1.997
		c-11.803-1.84-23.939-2.415-35.336-5.793c-21.215-6.288-36.698-21.304-49.864-39.76c-23.412-32.819-58.849-45.777-94.639-33.653
		c40.723-2.793,68.614,15.139,90.465,47.216c13.473,19.777,33.706,30.157,55.963,34.242
		C448.987,178.925,460.562,176.88,471.839,176.667z M553.936,545.24c-38.847,3.867-66.266-14.936-89.52-46.34
		c-9.294-12.552-23.758-22.059-37.571-29.296c-21.262-11.139-42.768-9.925-56.723-0.812c4.41-0.636,8.814-1.761,13.232-1.829
		c30.737-0.475,53.536,15.112,72.69,39.361c8.426,10.668,17.954,21.114,28.82,28.696C505.91,549.703,529.185,554.781,553.936,545.24
		z M79.941,669.803c34.96,0.152,61.205,16.979,81.803,45.78c4.478,6.261,9.83,12.068,15.611,16.985
		c22.113,18.81,46.855,26.824,76.917,19.642c-12.85-2.399-23.944-3.658-34.613-6.629c-23.87-6.645-38.841-25.551-54.196-44.497
		C143.002,673.373,114.155,662.429,79.941,669.803z M270.814,108.135c39.285-3.702,67.345,10.049,89.059,40.265
		c6.924,9.635,15.589,18.636,25.116,25.236c20.453,14.168,42.843,21.161,67.451,12.748c-37.965,0.811-65.149-17.693-86.496-50.119
		C347.114,107.66,305.616,95.709,270.814,108.135z M485.445,594.098c-35.077,3.802-66.327-10.81-86.685-41.794
		c-11.389-17.334-26.572-29.019-44.961-36.292c-17.188-6.798-39.795-6.502-51.142-0.071c34.353-2.547,62.631,9.694,83.666,40.43
		c6.242,9.121,14.286,17.487,22.984,23.964C432.444,597.566,457.834,604.002,485.445,594.098z M563.383,324.9
		c1.468-2.056,3.155-3.977,4.371-6.189c17.44-31.716,16.294-63.559,1.427-96.037c-5.561-12.148-10.266-25.014-13.376-38.083
		c-5.062-21.272,0.147-41.615,8.412-61.442c-3.589,3.827-6.472,7.906-8.7,12.353c-15.428,30.794-13.08,61.873,2.15,91.215
		C574.376,258.912,577.019,290.64,563.383,324.9z M555.476,757.205c0.297-0.224,1.5-0.744,2.148-1.691
		c1.706-2.495,3.377-5.063,4.701-7.799c15.014-31.031,14.114-62.09-1.294-92.412c-11.613-22.854-18.409-46.371-12.723-72.29
		c2.056-9.37,5.807-18.322,8.784-27.465c-4.003,3.661-6.921,7.889-9.199,12.474c-15.78,31.764-12.574,63.097,3.134,93.503
		c9.265,17.935,14.763,36.768,12.808,56.974C562.556,731.724,558.297,744.624,555.476,757.205z M539.78,767.121
		c13.454-19.117,18.369-40.089,14.947-62.184c-2.244-14.491-7.043-29.144-13.481-42.179c-15.823-32.032-16.911-63.582-0.251-96.746
		c-2.216,1.111-2.991,1.262-3.406,1.754c-1.098,1.3-2.163,2.667-3.027,4.148c-19.039,32.596-17.587,65.333-2.659,99.418
		c7.045,16.084,12.862,33.71,14.628,51.162C547.951,736.526,542.437,751.346,539.78,767.121z M120.711,213.901
		c36.844-0.758,63.689,17.248,85.781,47.602c21.468,29.498,51.078,40.573,86.299,33.961c-36.747-1.184-61.925-21.524-84.392-50.87
		C186.442,215.916,155.915,204.954,120.711,213.901z M89.15,237.335c33.872,1.9,59.853,17.193,80.332,46.142
		c23.471,33.178,66.118,46.621,97.473,33.321c-7.094,0-14.09,0.622-20.957-0.109c-28.071-2.987-49.758-17.583-66.92-41.094
		C156.212,244.269,126.46,230.084,89.15,237.335z M306.712,83.926c38.353-2.755,67.22,9.159,88.197,40.843
		c5.635,8.511,13.307,15.864,21.078,22.356c20.814,17.389,50.598,23.408,72.195,14.68c-38.327,1.003-65.125-16.786-86.591-48.043
		C380.398,82.902,340.285,71.074,306.712,83.926z M329.133,271.846c-39.191-3.153-62.654-19.397-82.899-48.485
		c-21.146-30.382-59.495-43.196-91.211-32.398c38.474-1.249,64.785,16.866,86.727,46.724
		C263.575,267.387,293.552,279.01,329.133,271.846z M506.331,150.806c-11.448-1.835-23.914-2.669-35.764-5.98
		c-23.467-6.557-38.163-25.281-52.483-44.633c-21.54-29.11-60.512-41.013-91.546-28.956c36.575,0.032,50.288,4.117,71.089,23.68
		c7.685,7.227,13.93,16.271,20.369,24.875C438.673,147.423,478.881,161.24,506.331,150.806z M37.003,696.012
		c8.804,0,16.75-0.841,24.487,0.151c27.736,3.556,48.035,19.735,64.618,42.86c23.57,32.868,61.662,47.331,90.102,37.162
		c-10.598-2.331-23.776-4.116-36.275-8.223c-22.126-7.269-35.772-26.004-50.196-43.844C106.019,694.776,66.464,683.1,37.003,696.012
		z M567.286,534.59c-35.733,0.287-61.971-16.596-84.023-45.954c-10.143-13.503-25.536-23.658-40.26-31.888
		c-14.013-7.832-30.389-8.469-46.367-3.284c33.303,0.269,58.889,15.618,78.466,43.37c3.22,4.565,6.674,9.097,10.67,12.869
		C509.199,531.821,535.553,543.563,567.286,534.59z M421.128,221.221c-1.459,2.082-3.087,4.056-4.333,6.272
		c-1.483,2.638-2.736,5.436-3.919,8.245c-12.936,30.723-9.134,60.384,5.912,88.852c11.474,21.709,15.742,44.562,11.274,68.871
		c-1.694,9.219-5.433,18.016-8.239,27.006c22.185-30.229,24.752-63.666,9.15-96.647
		C415.133,290.336,405.384,257.819,421.128,221.221z M196.353,364.62c-7.867,0-14.028,0.447-20.114-0.076
		c-29.348-2.519-51.606-18.064-68.46-42.962c-20.717-30.604-61.573-45.324-90.526-35.63c6.651,0.62,11.997,0.764,17.227,1.666
		c25.764,4.441,46.728,17.062,62.124,40.012C118.83,360.761,160.227,379.015,196.353,364.62z M441.276,404.715
		c0.472,0.273,0.944,0.547,1.416,0.82c2.414-4.275,5.247-8.349,7.174-12.859c13.009-30.44,9.435-60.008-4.423-89.026
		c-3.541-7.415-7.164-14.875-9.783-22.679c-8.699-25.923-4.544-50.825,6.664-75.125c-2.031,1.282-3.506,2.66-4.544,4.341
		c-19.88,32.217-20.094,65.408-3.077,98.678c11.029,21.563,17.568,43.85,13.753,68.405
		C447.008,386.584,443.723,395.576,441.276,404.715z M562.563,112.879c-38.676,3.779-66.569-14.147-89.853-45.758
		c-9.302-12.629-23.712-22.042-37.374-29.791c-17.759-10.073-37.119-9.843-51.828-2.818c36.953-2.007,63.24,15.301,84.167,44.646
		c5.913,8.292,13.607,15.761,21.794,21.507C511.831,116.357,536.031,123.044,562.563,112.879z M514.197,570.927
		c-28.295,0.858-52.231-9.239-71.315-31.457c-5.588-6.505-10.518-13.641-15.964-20.289c-22.969-28.038-62.667-39.962-91.284-27.529
		c36.285-1.919,60.713,8.073,81.131,33.383c4.051,5.021,7.567,10.524,11.573,15.588C450.094,568.125,486.46,581.35,514.197,570.927z
		 M460.002,196.268c-0.94-0.949-1.88-1.898-2.82-2.846c-0.981,1.954-1.937,3.923-2.947,5.86c-1.809,3.471-3.895,6.805-5.439,10.402
		c-13.012,30.296-11.501,60.109,4.08,88.725c10.796,19.829,16.04,40.782,13.178,63.35c-1.466,11.558-5.388,22.767-8.268,34.41
		c20.458-25.708,23.638-70.013,6.525-100.844C446.352,262.97,441.927,230.331,460.002,196.268z M451.409,627.474
		c-17.745,21.868-22.046,47.395-16.891,74.771c1.92,10.196,5.735,20.42,10.586,29.488c17.007,31.797,18.868,63.958,3.194,97.53
		c1.593-0.459,2.022-0.448,2.244-0.67c0.89-0.889,1.885-1.733,2.539-2.801c19.27-31.475,18.308-63.841,3.942-96.913
		c-4.849-11.162-10.25-22.238-13.535-33.941C436.916,671.519,441.645,649.069,451.409,627.474z M484.495,804.649
		c22.208-27.051,24.528-67.182,6.231-102.271c-12.017-23.045-18.867-47.035-12.411-73.393c2.091-8.537,5.671-16.663,9.121-26.558
		c-22.847,25.842-26.708,68.936-8.713,102.479C496.142,737.379,500.213,769.958,484.495,804.649z M477.977,182.235
		c-0.417-0.221-0.834-0.442-1.251-0.663c-1.04,1.223-2.23,2.337-3.097,3.684c-20.88,32.445-20.835,66.341-3.939,99.972
		c11.361,22.614,18.094,45.5,13.38,71.001c-1.554,8.406-4.696,16.481-7.111,24.707c4.457-3.831,7.578-8.347,9.575-13.367
		c12.199-30.658,9.192-60.224-6.015-88.909c-13.703-25.848-17.918-52.87-7.889-81.327
		C473.445,192.182,475.846,187.262,477.977,182.235z M514.12,157.642c-0.752-0.801-1.503-1.603-2.255-2.404
		c-0.764,1.61-1.431,3.283-2.315,4.815c-1.3,2.253-2.874,4.332-4.128,6.611c-17.24,31.338-16.413,62.985-0.853,94.558
		c9.373,19.018,17.513,38.44,14.905,60.435c-1.418,11.96-5.048,23.626-7.681,35.424c3.668-4.106,6.641-8.708,8.756-13.718
		c12.974-30.735,8.76-60.374-6.032-88.923C497.774,222.124,496.289,189.986,514.12,157.642z M520.155,579.283
		c-3.017,5.182-6.574,10.1-8.963,15.589c-13.406,30.801-10.718,60.936,4.476,90.115c11.007,21.138,16.44,43.349,12.256,67.379
		c-1.516,8.705-4.593,17.104-6.958,25.642c21.831-31.535,22.072-65.155,5.35-98.055C509.541,646.947,504.94,614.628,520.155,579.283
		z M406.406,230.94c-22.045,27.142-24.749,66.962-6.908,101.55c10.674,20.694,17.365,42.036,14.022,65.742
		c-1.45,10.283-4.387,20.331-6.648,30.485c20.32-30.818,21.599-63.695,5.434-95.829C395.392,299.266,389.652,266.264,406.406,230.94
		z M528.093,146.438c-3.189,5.557-6.962,10.834-9.47,16.717c-13.373,31.362-9.938,61.632,5.666,91.118
		c12.987,24.541,16.906,50.41,8.617,77.631c-1.742,5.72-4.332,11.149-6.531,16.712c22.35-26.101,25.832-65.97,8.263-99.916
		C517.555,215.694,512.09,182.78,528.093,146.438z M457.524,608.813c-48.589-11.888-48.589-11.888-84.147-55.42
		c-20.334-24.894-58.344-36.721-85.92-26.618c8.682,0.868,17.324,1.028,25.698,2.7c26.484,5.288,44.65,22.97,60.801,44.825
		C395.082,602.887,423.759,613.703,457.524,608.813z M388.055,245.624c-0.639-0.333-1.279-0.665-1.918-0.998
		c-2.497,4.311-5.476,8.393-7.415,12.971c-13.088,30.911-10.299,61.05,4.8,90.257c9.624,18.618,15.718,38.152,12.961,59.523
		c-1.491,11.555-4.859,22.838-8.009,37.087c15.33-22.687,20.368-45.624,15.245-69.581c-3.621-16.936-11.211-32.97-17.513-49.195
		c-9.484-24.422-10.673-48.719-0.446-73.201C386.686,250.275,387.298,247.915,388.055,245.624z M546.501,134.237
		c-1.067,1.216-2.324,2.3-3.174,3.668c-20.296,32.677-20.19,66.553-3.344,100.231c15.054,30.095,21.16,60.152,6.446,92.258
		c-0.369,0.805,0.173,2.08,0.549,5.482c16.72-27.5,20.988-54.706,11.31-83.611c-4.147-12.387-10.613-23.879-15.232-36.114
		C532.598,188.447,534.674,161.166,546.501,134.237z M589.914,520.965c-37.755,4.154-65.182-13.216-88.378-43.546
		c-9.862-12.895-23.898-23.41-37.92-31.194c-15.508-8.609-33.256-11.319-50.785-5.828c12.924,3.04,25.692,4.919,37.733,9.131
		c19.757,6.911,32.883,23.001,45.58,39.69C519.783,520.288,558.72,533.482,589.914,520.965z M576.355,101.667
		c-9.467-0.976-19.152-0.931-28.359-3.133c-21.992-5.259-39.006-18.908-52.667-37.687c-24.282-33.379-59.394-49.326-88.394-40.767
		c10.705,2.727,22.104,4.785,32.964,8.578c21.154,7.388,34.267,25.294,48.433,42.27C511.695,98.923,540.843,111.336,576.355,101.667
		z"/>
	<path d="M-2.072,297c30.211-10.141,66.453,3.581,90.914,34.422c28.917,36.459,41.575,43.206,86.012,46.626
		c-18.672,6.072-36.768,4.175-54.952-3.748c-22.214-9.679-35.453-29.573-51.191-47.066c-18.945-21.058-42.523-31.869-70.784-27.582
		C-2.072,298.768-2.072,297.884-2.072,297z"/>
	<path d="M-2.072,718.766c10.236-1.297,20.489-3.833,30.703-3.662c31.919,0.532,55.821,17.322,74.77,43.523
		c21.407,29.6,49.412,43.22,84.692,38.508c-9.242,6.677-27.362,8.546-44.43,3.394c-20.866-6.298-38.862-17.594-51.894-36.627
		c-16.319-23.833-37.293-40.298-65.475-43.725c-9.288-1.129-18.901,0.742-28.366,1.241C-2.072,720.535-2.072,719.651-2.072,718.766z
		"/>
	<path d="M133.001-2.746c-14.152,31.431-9.763,61.489,5.467,91.05c15.06,29.232,17.652,59.406,4.027,90.126
		c-2.603,5.87-6.381,11.153-10.01,17.381c-0.905-1.97-1.673-2.928-1.472-3.307c17.987-33.924,12.88-66.583-3.638-99.329
		c-16.035-31.789-16.38-64.07,0.623-95.921C129.666-2.746,131.333-2.746,133.001-2.746z"/>
	<path d="M428.16,846.092c18.92-35.547,16.366-69.878-1.86-105.448c-17.941-35.012-15.657-70.192,8.838-102.201
		c-2.188,5.288-4.63,10.476-6.522,15.88c-9.277,26.498-6.679,52.524,6.016,76.602c20.906,39.653,21.74,77.719-3.971,115.167
		C429.828,846.092,428.994,846.092,428.16,846.092z"/>
	<path d="M-2.072,726.724c38.015-2.264,66.856,14.236,89.704,46.256c20.219,28.337,48.337,40.416,82.158,37.283
		c-17.383,6.403-34.644,5.767-51.709-0.416c-20.793-7.535-35.95-22.623-49.37-40.702c-17.829-24.019-40.961-38.108-70.783-37.115
		C-2.072,730.261-2.072,728.493-2.072,726.724z"/>
	<path d="M145.508-2.746c-7.111,28.887-2.255,55.714,11.587,81.385c12.371,22.941,14.751,47.839,8.101,72.95
		c-3.152,11.9-9.861,22.741-17.597,32.745c2.986-8.223,6.488-16.282,8.861-24.699c7.2-25.544,2.753-49.577-9.026-72.627
		c-14.707-28.782-20.821-58.431-6.929-89.754C142.172-2.746,143.84-2.746,145.508-2.746z"/>
	<path d="M598.252,273.126c-4.562,12.465-9.123,24.929-13.685,37.394c-1.035-0.389-2.07-0.777-3.105-1.166
		c2.504-9.726,5.912-19.306,7.33-29.207c3.318-23.177-2.781-44.35-13.211-64.734c-15.925-31.121-17.344-62.883-1.273-94.685
		c0.782-1.547,1.792-2.979,2.812-4.368c0.489-0.666,1.251-1.106,3.477-2.997c-1.113,4.107-1.547,6.661-2.478,8.993
		c-9.269,23.202-8.655,46.548-0.087,69.601c6.197,16.673,13.443,32.908,20.221,49.338
		C598.252,251.905,598.252,262.516,598.252,273.126z"/>
	<path d="M415.653,846.092c13.564-30.473,10.063-59.973-4.862-88.61c-14.74-28.281-18.067-57.389-6.249-87.654
		c2.33-5.966,5.773-11.444,10.212-16.378c-2.912,11.186-7.024,22.2-8.481,33.595c-2.903,22.695,3.862,43.43,14.004,63.244
		c16.258,31.762,17.232,63.793,0.379,95.803C418.988,846.092,417.321,846.092,415.653,846.092z"/>
	<path d="M598.252,511.862c-28.185,8.408-65.709-7.632-87.205-37.858c-21.497-30.227-48.916-46.793-85.37-44.033
		c31.234-8.565,58.744-0.587,82.283,22.413c9.116,8.907,16.533,19.736,25.208,29.19c17.767,19.365,39.586,28.498,65.084,27.635
		C598.252,510.094,598.252,510.978,598.252,511.862z"/>
	<path d="M-2.072,304.958c32.743,1.843,58.306,16.962,78.171,44.843c21.109,29.627,49.713,42.77,85.303,38.049
		c-12.189,7.573-37.154,7.555-54.446,0.301c-17.36-7.282-32.519-17.933-43.425-34.144c-16.301-24.23-38.168-38.553-65.603-43.743
		C-2.072,308.495-2.072,306.726-2.072,304.958z"/>
	<path d="M598.252,90.096c-39.486,10.303-71.783-3.055-96.332-35.893c-21.282-28.469-46.712-45.831-82.661-43.987
		c21.912-9.95,55.425-1.517,77.048,19.866c10.002,9.891,18.266,21.737,28.043,31.912c20.536,21.372,44.994,30.928,73.902,25.449
		C598.252,88.327,598.252,89.211,598.252,90.096z"/>
	<path d="M160.516-2.746c-2.746,24.513,2.656,46.775,13.835,68.51c14.712,28.605,16.817,58.756,3.268,88.927
		c-2.503,5.574-6.227,10.53-10.572,15.197c10.781-24.235,14.567-48.739,6.192-74.32c-2.17-6.628-4.447-13.371-7.747-19.401
		c-13.533-24.72-17.732-50.934-12.481-78.913C155.513-2.746,158.014-2.746,160.516-2.746z"/>
	<path d="M403.147,846.092c6.877-27.961,2.15-53.798-10.806-79.039c-17.743-34.571-17.534-69.131,3.839-102.418
		c0.701-1.091,1.555-2.071,3.488-2.425c-2.95,8.278-6.711,16.344-8.696,24.875c-5.854,25.155-1.592,48.865,10.168,71.441
		c14.58,27.99,19.488,57.046,7.009,87.566C406.482,846.092,404.814,846.092,403.147,846.092z"/>
	<path d="M-2.072,739.987c27.048,0.303,48.525,13.68,64.23,35.425c22.278,30.846,49.329,49.412,89.482,46.509
		c-33.887,14.067-75.695-5.761-94.496-33.508c-14.871-21.947-33.833-37.462-59.216-43.12
		C-2.072,743.524-2.072,741.756-2.072,739.987z"/>
	<path d="M-2.072,318.221c26.635,7.805,46.996,24.09,63.81,47.63c17.731,24.824,35.207,31.23,77.681,36.336
		c-30.805,8.494-57.694-0.281-81.114-22.309c-6.784-6.381-11.31-15.568-18.331-21.539c-13.463-11.45-27.972-21.519-42.046-32.161
		C-2.072,323.526-2.072,320.873-2.072,318.221z"/>
	<path d="M178.025-2.746c-2.323,18.844,3.219,35.752,11.803,51.722c11.068,20.59,15.539,42.446,13.15,66.058
		c-1.892,18.697-9.414,34.343-21.721,47.83c9.547-18.726,16.253-38.347,12.901-59.748c-1.944-12.409-4.695-25.306-10.072-36.346
		C173.348,44.726,166.19,22.307,168.02-2.746C171.355-2.746,174.69-2.746,178.025-2.746z"/>
	<path d="M388.138,846.092c3.274-25.14-3.637-47.612-14.363-69.798c-16.257-33.625-13.901-66.909,3.652-97.226
		c-1.41,16.97-4.073,35.584-4.058,54.195c0.008,10.159,2.695,21.426,7.399,30.261c13.852,26.012,19.671,53.063,14.873,82.569
		C393.141,846.092,390.64,846.092,388.138,846.092z"/>
	<path d="M598.252,501.252c-27.434,0.084-49.558-13.134-65.784-34.847c-22.325-29.874-48.004-50.458-89.447-47.358
		c34.661-12.012,70.684,2.768,95.398,35.41c6.939,9.164,14.559,18.614,23.751,24.77c10.97,7.348,23.965,11.298,36.082,16.72
		C598.252,497.715,598.252,499.483,598.252,501.252z"/>
	<path d="M-2.072,95.401c4.842-8.306,9.684-16.613,14.526-24.919C1.213,95.614-2.201,121.195,5.723,147.678
		c3.115,10.411,8.531,20.04,12.8,30.073c13.332,31.332,13.832,62.246-2.853,92.543c-0.617,1.12-1.349,2.213-2.213,3.12
		c-0.47,0.493-1.331,0.566-4.327,1.715c19.9-40.591,8.969-76.314-11.202-110.759C-2.072,141.38-2.072,118.39-2.072,95.401z"/>
	<path d="M-2.072,753.25c22.584,9.457,40.559,24.486,55.715,45.083c19.983,27.156,47.485,39.175,81.437,34.758
		c-9.979,6.018-29.711,7.259-43.284,3.622c-23.666-6.341-40.806-21.924-56.74-40.948c-10.437-12.462-24.622-21.393-37.129-31.905
		C-2.072,760.324-2.072,756.787-2.072,753.25z"/>
	<path d="M598.252,82.138c-33.919,0.236-60.906-14.119-81.06-43.084c-16.594-23.85-39.335-36.836-66.52-41.8
		c10.839,0,21.678,0,32.518,0c21.21,10.78,38.015,26.664,52.723,46.285c15.512,20.693,36.982,31.825,62.339,33.294
		C598.252,78.601,598.252,80.369,598.252,82.138z"/>
	<path d="M370.629,846.092c3.178-17.998-2.647-34.034-10.57-49.151c-15.911-30.358-19.952-61.335-6.054-93.626
		c2.451-5.696,6.204-10.761,11.224-15.088c-2.698,7.65-6.014,15.126-7.978,22.982c-5.544,22.177-3.916,44.219,6.569,64.152
		c11.701,22.244,16.871,45.642,16.814,70.732C377.299,846.092,373.964,846.092,370.629,846.092z"/>
	<path d="M353.12,846.092c-3.567-12.462-5.485-25.823-11.01-37.218c-16.567-34.165-20.229-67.834-1.214-102.106
		c2.074-3.738,4.891-7.012,8.328-10.214c-13.154,24.749-15.555,50.871-8.109,77.399c3.636,12.954,11.423,24.556,15.501,37.423
		c3.516,11.092,4.44,23.108,6.509,34.715C359.79,846.092,356.455,846.092,353.12,846.092z"/>
	<path d="M598.252,487.989c-23.924-8.698-42.552-24.17-58.095-45.647c-19.032-26.298-45.716-37.901-77.161-36.78
		c33.05-7.607,61.262,1.829,84.693,27.282c8.397,9.122,15.197,20.071,24.267,28.269c7.601,6.87,17.445,10.951,26.296,16.266
		C598.252,480.915,598.252,484.452,598.252,487.989z"/>
	<path d="M195.535-2.746c4.551,14.477,7.736,29.653,13.934,43.289c13.599,29.923,16.476,59.698,3.323,90.317
		c-2.524,5.875-6.446,11.075-11.793,15.47c2.482-6.25,5.28-12.382,7.39-18.77c9.186-27.811,2.506-53.168-8.784-78.937
		c-7.003-15.984-9.536-34.171-14.076-51.369C188.864-2.746,192.199-2.746,195.535-2.746z"/>
	<path d="M-2.072,336.789c17.713,7.929,31.502,20.791,43.132,36.925c21.086,29.25,49.056,42.373,83.713,38.352
		c-10.611,7.004-35.187,7.496-51.492,0.82c-19.108-7.823-34.329-20.847-47.478-37.529C17.658,365.022,7.295,356.652-2.072,347.4
		C-2.072,343.863-2.072,340.326-2.072,336.789z"/>
	<path d="M215.545-2.746c4.361,11.73,7.931,23.88,13.231,35.112c16.739,35.481,12.458,78.979-11.654,104.473
		c13.671-25.396,16.76-52.073,8.109-79.646c-2.987-9.521-8.419-18.149-11.896-27.534c-3.925-10.597-6.906-21.587-10.297-32.406
		C207.208-2.746,211.376-2.746,215.545-2.746z"/>
	<path d="M598.252,466.768c-10.764-8.556-23.5-15.353-31.932-25.988c-28.298-35.689-42.283-44.157-86.04-46.391
		c19.194-9.589,51.478-3.382,73.714,15.83c9.536,8.239,16.78,19.401,25.537,28.737c5.807,6.191,12.451,11.498,18.721,17.2
		C598.252,459.694,598.252,463.231,598.252,466.768z"/>
	<path d="M333.109,846.092c-3.762-10.59-6.848-21.519-11.412-31.705c-13.237-29.538-15.51-59.138-1.929-89.134
		c2.254-4.978,5.686-9.356,10.388-16.936c-4,14.747-7.976,25.786-9.878,37.213c-3.369,20.24,1.89,39.176,9.62,57.685
		c5.85,14.005,10.522,28.564,15.718,42.877C341.447,846.092,337.278,846.092,333.109,846.092z"/>
	<path fill="#FFFFFF" d="M598.252,76.832c-25.357-1.469-46.827-12.602-62.339-33.294C521.205,23.918,504.4,8.034,483.19-2.746
		c7.504,0,15.008,0,22.512,0c12.864,13.959,25.746,27.897,38.586,41.881c14.902,16.23,32.784,26.34,53.964,29.74
		C598.252,71.527,598.252,74.18,598.252,76.832z"/>
	<path d="M-2.072,360.663c6.8,6.169,14.538,11.497,20.241,18.65c28.527,35.781,43.666,44.093,86.435,46.412
		c-15.456,6.205-31.101,5.107-46.513-0.328c-19.88-7.011-36.222-19.486-48.781-37.463c-3.451-4.939-7.569-9.353-11.381-14.008
		C-2.072,369.505-2.072,365.084-2.072,360.663z"/>
	<path d="M310.597,846.092c-2.22-6.891-3.725-14.162-6.777-20.609c-17.278-36.5-13.679-77.348,10.669-105.925
		c-3.489,9.943-7.092,18.325-9.379,27.093c-6.263,24.01-2.596,46.802,7.722,69.012c4.461,9.602,6.91,20.254,10.272,30.43
		C318.934,846.092,314.766,846.092,310.597,846.092z"/>
	<path d="M235.556-2.746c3.425,7.498,6.791,15.027,10.286,22.488c17.461,37.277,13.178,79.454-11.441,105.303
		c11.195-21.305,17.239-43.731,11.226-67.793c-2.833-11.334-7.938-22.013-11.715-33.104c-3.022-8.875-5.591-17.923-8.361-26.894
		C228.886-2.746,232.221-2.746,235.556-2.746z"/>
	<path d="M598.252,68.875c-21.18-3.4-39.062-13.51-53.964-29.74c-12.839-13.984-25.722-27.922-38.586-41.881
		c5.836,0,11.673,0,17.509,0c10.335,11.939,20.492,24.059,31.05,35.771c12.201,13.535,25.689,25.053,43.99,27.892
		C598.252,63.569,598.252,66.222,598.252,68.875z"/>
	<path d="M-2.072,774.471c9.173,7.42,20.423,13.18,27.11,22.588c16.574,23.316,36.661,40.322,62.939,49.033
		c-9.172,0-18.343,0-27.515,0c-19.725-12.473-36.387-28.443-50.169-48.002c-3.038-4.311-8.187-6.948-12.365-10.356
		C-2.072,783.314-2.072,778.892-2.072,774.471z"/>
	<path d="M-2.072,583.483c6.162,14.275,13.837,28.054,18.171,42.927c9.059,31.092,5.93,60.513-16.099,85.463
		c1.555-4,3.274-7.938,4.639-12.009c9.806-29.244,11.184-57.766-6.711-84.55C-2.072,604.704-2.072,594.093-2.072,583.483z"/>
	<path d="M598.252,665.714c-6.818-15.886-14.706-31.368-20.221-47.747c-9.958-29.576-6.127-57.793,11.515-83.799
		c-13.205,34.972-11.358,68.274,8.705,99.714C598.252,644.493,598.252,655.104,598.252,665.714z"/>
	<path d="M288.085,846.092c-3.161-10.39-6.815-20.646-9.389-31.197c-7.084-29.031-2.108-55.609,16.535-82.379
		c-3.89,14.334-7.966,25.354-9.749,36.776c-3.451,22.109,1.646,42.8,11.936,62.24c2.407,4.547,3.81,9.691,5.675,14.56
		C298.09,846.092,293.087,846.092,288.085,846.092z"/>
	<path d="M258.068-2.746c18.083,33.013,22.287,66.814,5.061,101.788c-1.338,2.716-2.908,5.335-4.628,7.796
		c-0.89,1.274-2.345,2.105-6.168,5.392c18.229-36.928,15.974-70.2-2.373-102.729c-2.082-3.692-2.962-8.147-4.399-12.248
		C249.73-2.746,253.899-2.746,258.068-2.746z"/>
	<path d="M598.252,442.894c-4.305-3.954-9.484-7.228-12.774-11.974c-20.809-30.012-46.965-49.575-86.657-49.027
		c31.379-9.592,68.234,4.792,88.931,32.354c3.308,4.406,6.991,8.495,10.5,12.731C598.252,432.284,598.252,437.589,598.252,442.894z"
		/>
	<path d="M-2.072,389.842c7.787,8.383,15.012,17.478,23.475,25.007c19.671,17.503,42.457,25.086,69.134,20.606
		c-15.178,10.894-43.899,6.897-58.112-1.539c-12.173-7.225-23.047-16.909-34.496-25.506C-2.072,402.22-2.072,396.031-2.072,389.842z
		"/>
	<path d="M265.572,846.092c-2.383-16.862-6.35-33.684-6.731-50.596c-0.431-19.137,7.236-36.059,20.071-50.005
		c-17.618,34.01-14.59,67.406,1.668,100.601C275.578,846.092,270.575,846.092,265.572,846.092z"/>
	<path d="M598.252,212.116c-23.732-35.189-23.732-83.238,0-111.41c0,2.653,0,5.305,0,7.958c-14.016,25.642-10.945,51.284,0,76.926
		C598.252,194.432,598.252,203.274,598.252,212.116z"/>
	<path fill="#FFFFFF" d="M598.252,60.917c-18.301-2.838-31.789-14.357-43.99-27.892c-10.559-11.712-20.716-23.832-31.05-35.771
		c5.003,0,10.005,0,15.008,0c6.112,8.195,11.662,16.963,18.461,24.457c11.675,12.869,23.508,25.966,41.572,28.596
		C598.252,53.843,598.252,57.38,598.252,60.917z"/>
	<path d="M588.247,846.092c-18.237-31.049-45.759-42.922-79.579-42.748c26.277-11.901,61.813,1.04,89.585,32.138
		c0,3.537,0,7.074,0,10.61C594.917,846.092,591.582,846.092,588.247,846.092z"/>
	<path d="M-2.072,185.59c16.899,31.831,18.658,63.663,0,95.494C-2.072,249.253-2.072,217.421-2.072,185.59z"/>
	<path d="M283.082-2.746c2.642,17.677,6.838,35.292,7.469,53.05c0.58,16.328-4.95,31.87-16.756,44.64
		c15.689-34.008,10.043-66.234-5.721-97.69C273.076-2.746,278.079-2.746,283.082-2.746z"/>
	<path d="M598.252,50.306c-18.063-2.629-29.897-15.726-41.572-28.596c-6.799-7.494-12.349-16.262-18.461-24.457
		c5.836,0,11.673,0,17.509,0c9.899,19.565,23.592,35.107,42.523,45.095C598.252,45.001,598.252,47.654,598.252,50.306z"/>
	<path d="M598.252,411.063c-9.215-8.66-17.73-18.402-27.806-25.731c-15.747-11.454-33.601-16.964-53.25-13.965
		c0.07-1.467,0.14-2.935,0.21-4.402c9.989,0,20.063-0.885,29.949,0.187c19.587,2.124,35.382,13.593,50.896,25.342
		C598.252,398.684,598.252,404.873,598.252,411.063z"/>
	<path d="M303.093-2.746c11.416,31.96,5.415,70.527-14.75,88.872c17.055-28.874,12.308-58.805,4.745-88.872
		C296.422-2.746,299.757-2.746,303.093-2.746z"/>
	<path fill="#FFFFFF" d="M-2.072,787.735c4.177,3.408,9.327,6.045,12.365,10.356c13.782,19.559,30.445,35.529,50.169,48.002
		c-5.836,0-11.673,0-17.509,0c-9.97-10.276-19.876-20.623-29.937-30.796c-4.879-4.933-10.049-9.542-15.087-14.298
		C-2.072,796.577-2.072,792.156-2.072,787.735z"/>
	<path d="M560.732,846.092c-11.709-18.671-30.042-24.952-49.26-29.441c-5.069-1.184-10.274-1.715-15.172-3.46
		c33.081-5.202,60.266,6.206,81.942,32.901C572.405,846.092,566.568,846.092,560.732,846.092z"/>
	<path d="M245.562,846.092c-9.285-30.969-5.589-59.721,13.269-87.8c0.549,2.658,1.185,3.831,0.868,4.474
		c-12.292,24.914-13.325,50.508-4.488,76.82c0.66,1.964,0.263,4.328,0.357,6.505C252.232,846.092,248.897,846.092,245.562,846.092z"
		/>
	<path fill="#FFFFFF" d="M-2.072,615.314c17.896,26.784,16.517,55.306,6.711,84.55c-1.365,4.071-3.084,8.009-4.639,12.009
		c-0.691,0.529-1.382,1.059-2.072,1.588c0-6.189,0-12.379,0-18.568c6.663-18.568,7.396-37.137,0-55.705
		C-2.072,631.23-2.072,623.272-2.072,615.314z"/>
	<path d="M-2.072,800.998c5.038,4.756,10.208,9.365,15.087,14.298c10.061,10.174,19.967,20.521,29.937,30.796
		c-6.67,0-13.341,0-20.011,0c-8.338-9.726-16.676-19.453-25.014-29.179C-2.072,811.608-2.072,806.303-2.072,800.998z"/>
	<path d="M598.252,819.566c-10.836-6.974-21.003-15.896-32.684-20.412c-13.603-5.259-28.531-6.663-40.47-9.222
		c24.939-7.711,49.839-0.255,73.154,16.371C598.252,810.724,598.252,815.145,598.252,819.566z"/>
	<path d="M-2.072,421.673c20.519,19.993,44.372,30.019,72.603,27.289c-26.247,10.388-49.65,1.122-72.603-11.373
		C-2.072,432.284-2.072,426.978-2.072,421.673z"/>
	<path d="M223.049,846.092c2.389-18.603,3.894-37.406,7.581-55.714c1.573-7.81,7.704-14.588,13.135-21.176
		c-13.473,24.594-13.777,50.369-8.21,76.89C231.387,846.092,227.218,846.092,223.049,846.092z"/>
	<path d="M325.605-2.746c-0.894,15.706-0.098,31.802-3.221,46.992c-2.46,11.966-9.749,22.815-16.728,33.545
		c12.531-26.051,15.912-52.657,7.443-80.537C317.267-2.746,321.436-2.746,325.605-2.746z"/>
	<path d="M15.437-2.746c18.598,16.395,40.431,20.82,65.676,18.547C55.264,27.818,16.192,18.206,0.429-2.746
		C5.432-2.746,10.435-2.746,15.437-2.746z"/>
	<path fill="#FFFFFF" d="M598.252,42.348c-18.93-9.988-32.624-25.529-42.523-45.095c3.335,0,6.67,0,10.005,0
		c10.839,11.495,21.678,22.989,32.518,34.484C598.252,35.275,598.252,38.812,598.252,42.348z"/>
	<path d="M530.715,846.092c-15.974-15.886-36.109-18.42-56.563-20.069c27.801-6.305,52.68-0.442,74.072,20.069
		C542.388,846.092,536.552,846.092,530.715,846.092z"/>
	<path fill="#FFFFFF" d="M598.252,185.59c-10.945-25.642-14.016-51.284,0-76.926C598.252,134.306,598.252,159.948,598.252,185.59z"
		/>
	<path d="M-2.072,10.517C17.699,24.003,38.8,31.832,63.518,27.189C50.155,34.914,28.233,34.895,9.549,27.7
		c-3.818-1.47-7.745-2.622-11.622-3.92C-2.072,19.359-2.072,14.938-2.072,10.517z"/>
	<path d="M598.252,379.231c-18.909-12.291-38.408-22.689-62.77-20.88c13.228-6.74,34.736-4.791,52.552,3.824
		c3.269,1.581,6.805,2.544,10.217,3.793C598.252,370.389,598.252,374.81,598.252,379.231z"/>
	<path d="M343.114-2.746c3.459,24.831-3.584,46.251-18.739,65.126c8.821-20.876,13.764-42.244,8.733-65.126
		C336.444-2.746,339.779-2.746,343.114-2.746z"/>
	<path d="M205.54,846.092c-0.323-23.037,3.378-44.722,19.386-62.428c-8.314,20.02-13.261,40.535-9.38,62.428
		C212.21,846.092,208.875,846.092,205.54,846.092z"/>
	<path d="M598.252,31.738c-10.839-11.495-21.678-22.989-32.518-34.484c5.003,0,10.005,0,15.008,0
		c5.836,7.074,11.673,14.147,17.509,21.221C598.252,22.896,598.252,27.317,598.252,31.738z"/>
	<path d="M598.252,612.662c-10.217-24.758-11.373-49.516,0-74.273C598.252,563.146,598.252,587.904,598.252,612.662z"/>
	<path fill="#FFFFFF" d="M-2.072,816.913c8.338,9.726,16.676,19.453,25.014,29.179c-8.338,0-16.676,0-25.014,0
		C-2.072,836.366-2.072,826.64-2.072,816.913z"/>
	<path d="M55.459-2.746c14.055,3.21,28.109,6.42,39.031,8.914c-10.416,7.771-44.359,4.526-59.041-8.914
		C42.118-2.746,48.789-2.746,55.459-2.746z"/>
	<path d="M598.252,793.04c-17.083-5.573-34.166-11.146-49.707-16.216c15.633-5.39,32.607,1.063,49.707,5.606
		C598.252,785.966,598.252,789.503,598.252,793.04z"/>
	<path d="M360.624-2.746c1.365,21.946-7.026,39.942-17.478,53.62c2.978-16.01,6.476-34.815,9.974-53.62
		C355.621-2.746,358.122-2.746,360.624-2.746z"/>
	<path d="M188.031,846.092c1.164-20.37,7.516-38.468,18.931-52.039c-3.549,16.161-7.488,34.1-11.427,52.039
		C193.033,846.092,190.532,846.092,188.031,846.092z"/>
	<path d="M-2.072,448.199c16.699,5.464,33.398,10.928,48.136,15.751c-14.612,4.288-31.443,0.807-48.136-5.14
		C-2.072,455.273-2.072,451.736-2.072,448.199z"/>
	<path d="M493.195,846.092c-12.231-2.892-24.462-5.783-38.444-9.089c21.098-3.034,40.398-3.293,58.455,9.089
		C506.536,846.092,499.865,846.092,493.195,846.092z"/>
	<path d="M598.252,355.358c-15.891-3.806-31.783-7.612-45.328-10.856c13.268-5.858,29.305-1.986,45.328,2.898
		C598.252,350.052,598.252,352.705,598.252,355.358z"/>
	<path d="M-2.072,31.738c14.962,3.786,29.923,7.571,43.203,10.931c-12.536,5.284-27.884,2.152-43.203-0.321
		C-2.072,38.812-2.072,35.275-2.072,31.738z"/>
	<path d="M378.133-2.746c-5.391,14.318-10.782,28.636-16.173,42.954c-0.844-0.379-1.687-0.759-2.531-1.138
		c3.733-13.939,7.466-27.878,11.2-41.817C373.13-2.746,375.632-2.746,378.133-2.746z"/>
	<path d="M173.022,846.092c4.252-13.238,8.505-26.476,12.757-39.714c0.862,0.351,1.724,0.702,2.586,1.053
		c-2.613,12.887-5.226,25.774-7.838,38.661C178.025,846.092,175.524,846.092,173.022,846.092z"/>
	<path d="M-2.072,639.188c7.396,18.568,6.663,37.137,0,55.705C-2.072,676.325-2.072,657.756-2.072,639.188z"/>
	<path fill="#FFFFFF" d="M598.252,18.475c-5.836-7.074-11.673-14.147-17.509-21.221c5.836,0,11.673,0,17.509,0
		C598.252,4.328,598.252,11.401,598.252,18.475z"/>
	<path d="M-2.072,469.42c12.181,1.332,24.363,2.664,36.544,3.996c0.09,0.794,0.179,1.588,0.269,2.383
		c-12.271,0.526-24.542,1.053-36.813,1.579C-2.072,474.725-2.072,472.073-2.072,469.42z"/>
	<path d="M598.252,771.819c-13.414-1.709-26.828-3.417-40.242-5.126c0.007-0.924,0.013-1.847,0.02-2.771
		c13.408,0.864,26.815,1.728,40.223,2.592C598.252,768.282,598.252,770.05,598.252,771.819z"/>
	<path d="M161.052,397.758c-15.795,35.9-10.693,68.454,5.741,101.312c15.867,31.724,16.442,64.173-1.325,95.829
		c-1.48,2.637-3.292,5.083-5.111,7.48c-0.7,0.923-1.848,1.463-4.763,3.669c20.078-37.046,16.295-70.896-1.637-105.462
		c-14.587-28.117-16.041-58.207-2.154-87.81C154.296,407.459,157.939,402.749,161.052,397.758z"/>
	<path d="M64.487,38.216c-12.449,27.357-13.426,55.113-3.054,83.111c4.241,11.448,10.688,22.03,14.422,33.625
		c10.381,32.242,5.633,62.069-15.118,88.772c17.057-35.097,14.06-68.912-3.35-102.946c-5.781-11.301-9.194-24.636-10.912-37.46
		C43.258,79.332,48.875,57.106,64.487,38.216z"/>
	<path d="M338.611,280.117c-10.294,17.753-14.257,37.221-10.267,56.86c3.179,15.647,9.165,30.928,15.667,45.486
		c16.024,35.873,12.189,76.334-12.067,101.758c2.853-6.535,6.495-12.819,8.42-19.648c7.624-27.046,4.866-53.022-8.268-77.735
		c-14.34-26.981-19.284-55.284-8.623-84.972c2.921-8.134,8.098-15.357,12.24-22.998
		C336.679,279.285,337.645,279.701,338.611,280.117z"/>
	<path d="M57.13,683.554c34.203-11.646,68.536,1.517,94.554,32.948c11.309,13.662,24.104,27.521,38.938,35.863
		c13.961,7.851,31.492,8.561,44.294,11.65c-16.149,9.156-49.488,1.113-69.177-14.7c-7.558-6.07-15.192-12.732-20.808-20.697
		C122.898,697.373,94.935,680.141,57.13,683.554z"/>
	<path d="M39.976,478.798c-16.993,36.04-13.534,69.994,4.353,104.712c14.979,29.074,16.1,59.833,1.266,90.1
		c-1.145,2.336-2.328,4.684-3.78,6.806c-1.425,2.083-3.216,3.884-6.049,7.229c3.627-11.587,7.982-21.165,9.498-31.225
		c3.357-22.27,0.696-43.796-10.034-63.975c-17.686-33.262-21.508-67.274-2.896-101.8C34.566,486.506,37.414,482.739,39.976,478.798z
		"/>
	<path d="M193.306,581.432c17.165-36.015,14.118-70.03-4.019-104.506c-14.825-28.18-15.952-57.991-2.577-87.669
		c1.427-3.166,3.165-6.191,4.941-9.158c1.275-2.13,2.855-4.055,6.328-8.904c-4.077,14.122-8.125,24.231-9.811,34.766
		c-4.003,25.007,3.107,47.54,14.066,69.721c15.722,31.822,16.11,64.257-1.917,95.752
		C198.294,574.968,195.658,578.108,193.306,581.432z"/>
	<path d="M228.206,557.304c16.077-34.259,15.349-66.918-1.591-99.629c-16-30.895-19.212-62.47-3.572-94.711
		c2.173-4.48,5.161-8.514,9.141-14.978c-3.575,14.518-7.605,26.023-9.073,37.885c-2.851,23.03,3.422,43.948,13.674,64.551
		c17.188,34.543,16.902,69.262-4.77,102.293C230.923,554.376,229.483,555.78,228.206,557.304z"/>
	<path d="M286.314,312.356c-3.433,9.466-6.693,16.505-8.555,23.938c-6.766,27.017-1.755,52.197,10.873,76.339
		c19.453,37.192,16.265,78.131-9.498,110.324c4.266-11.769,8.537-20.995,10.96-30.738c6.294-25.307-0.023-48.564-11.185-71.114
		c-17.498-35.351-19.428-70.512,3.121-104.668C282.645,315.507,283.65,314.867,286.314,312.356z"/>
	<path d="M248.005,543.175c7.575-21.297,13.086-42.446,7.506-64.666c-3.275-13.04-8.246-25.856-14.114-37.861
		c-17.242-35.277-13.603-78.368,8.531-103.472c-3.015,12.45-7.697,26.34-9.527,40.641c-2.591,20.238,3.105,39.028,12.433,56.938
		c14.842,28.495,18.446,58.345,6.02,88.993C256.075,530.605,251.665,536.719,248.005,543.175z"/>
	<path d="M176.425,590.056c3.118-9.801,7.147-19.396,9.174-29.445c5.055-25.058-1.877-47.811-13.002-69.825
		c-18.813-37.228-15.757-77.181,8.432-107.548c-3.805,12.149-8.363,22.638-10.274,33.644c-4.07,23.439,0.944,45.405,11.875,66.237
		c15.224,29.015,18.649,59.214,5.374,90.207c-2.659,6.207-6.603,11.795-9.955,17.668
		C177.508,590.682,176.966,590.369,176.425,590.056z"/>
	<path d="M107.422,638.695c13.098-32.68,13.281-64.018-2.673-95.658c-5.977-11.854-10.781-25.056-12.965-38.232
		c-4.277-25.806,0.071-50.177,17.645-70.43c-12.293,26.717-13.913,53.984-3.79,81.617c3.898,10.64,9.614,20.525,13.622,31.128
		c10.374,27.441,8.328,54.414-4.283,80.54C113.051,631.658,109.971,635.032,107.422,638.695z"/>
	<path d="M218.329,358.071c-20.326,37.999-15.405,72.367,2.239,107.335c14.29,28.32,14.899,58.357,0.861,87.698
		c-2.381,4.976-5.66,9.469-10.573,13.082c2.357-5.867,5.033-11.616,7.016-17.623c9.504-28.783,3.182-55.201-9.823-81.243
		c-18.011-36.065-18.066-71.695,5.568-105.583C214.217,360.876,215.301,360.394,218.329,358.071z"/>
	<path d="M29.373,61.676c-3.063,11.166-7.439,22.143-8.904,33.54c-2.817,21.922,1.146,42.741,11.588,62.424
		c16.514,31.128,19.655,63.38,3.674,96.064c-2.594,5.305-6.444,9.918-10.7,14.511c18.63-35.657,13.89-69.493-2.773-104.356
		c-7.04-14.728-9.712-32.599-11.135-49.35C9.366,93.821,17.374,75.162,29.373,61.676z"/>
	<path d="M308.274,714.806c-38.397,10.302-70.032-2.721-93.574-34.727c-22.739-30.914-50.194-47.811-88.675-43.746
		c21.973-10.257,53.404-5.219,75.345,12.209c7.25,5.759,14.534,12.199,19.839,19.857
		C242.934,699.765,270.818,717.006,308.274,714.806z"/>
	<path d="M226.059,142.696c31.465-11.41,69.284,2.643,92.791,35.939c21.136,29.937,47.807,45.344,83.908,41.692
		c-11.446,6.98-34.738,9.323-48.683,1.121c-15.669-9.216-32.256-19.554-43.471-33.805
		C288.091,159.037,262.373,141.103,226.059,142.696z"/>
	<path d="M277.578,736.889c-36.558,15.451-72.51-3.492-90.472-23.571c-8.553-9.562-15.561-20.854-24.818-29.496
		c-19.829-18.511-43.266-27.279-72.559-23.108c30.65-14.235,72.752-0.261,93.806,28.705
		C206.821,721.456,234.437,741.995,277.578,736.889z"/>
	<path d="M203.982,786.718c-33.381,9.686-62.429,0.317-86.974-25.511c-6.752-7.105-11.909-15.9-18.566-23.124
		c-20.602-22.358-45.512-33.448-77.251-29.863c30.02-13.977,73.725,1.571,95.968,33.621
		C138.794,773.011,166.741,789.146,203.982,786.718z"/>
	<path d="M437.562,197.636c-33.178,14.706-75.644-8.002-93.252-34.508c-14.683-22.103-34.078-37.278-59.423-42.351
		c-8.839-1.769-18.077-1.299-26.529-1.815c28.844-12.299,67.783-0.103,90.884,30.132c15.935,20.856,32.145,40.827,58.752,45.647
		C418.083,196.568,428.432,196.787,437.562,197.636z"/>
	<path d="M354.361,268.917c-17.44,35.491-10.156,68.19,6.712,101.04c17.254,33.601,12.299,78.397-10.164,100.715
		c15.565-31.39,14.794-62.416,0.138-93.791c-5.834-12.488-11.037-25.73-13.922-39.254
		C331.681,312.12,338.641,289.084,354.361,268.917z"/>
	<path d="M267.001,326.966c-16.418,36.178-10.256,69.596,6.586,103.622c15.245,30.799,14.11,62.772-3.21,93.205
		c-1.064,1.87-2.325,3.636-3.667,5.293c-0.397,0.49-1.39,0.437-3.33,0.965c17.146-35.322,12.893-68.291-3.925-102.152
		c-7.389-14.877-9.797-33.523-10.82-50.702C247.524,358.55,254.366,341.145,267.001,326.966z"/>
	<path d="M76.679,455.391c-17.622,34.105-16.093,67.166,1.326,100.821c15.484,29.917,18.163,61.2,2.989,92.603
		c-2.328,4.818-5.533,9.159-9.46,13.298c11.896-26.582,13.755-53.501,4.1-80.828c-3.191-9.032-7.97-17.422-11.847-26.193
		C48.81,521.203,54.006,479.241,76.679,455.391z"/>
	<path d="M87.195,652.612c17.865-35.601,14.845-69.708-3.447-104.341c-18.724-35.451-13.771-77.628,10.26-106.057
		c0.264,0.607,0.863,1.396,0.696,1.688c-19.924,34.673-15.844,68.533,1.75,102.784C115.287,583.348,111.506,624.119,87.195,652.612z
		"/>
	<path d="M217.608,574.416c36.012-9.067,66.1,2.592,89.693,32.3c13.836,17.422,27.474,34.879,48.815,41.485
		c12.493,3.867,25.758,4.934,37.541,7.056c-24.993,8.695-49.005,2.01-70.935-14.465c-8.37-6.288-16.297-14.105-22.344-22.844
		C279.742,588.124,252.444,573.921,217.608,574.416z"/>
	<path d="M55.957,468.786c-3.345,16.176-7.961,31.216-9.261,46.572c-1.768,20.87,7.24,39.176,15.805,57.55
		c15.752,33.791,14.763,67.179-5.36,99.075c-1.052,1.668-2.512,3.046-4.639,4.218c13.647-27.375,15.802-55.388,5.318-84.018
		c-3.741-10.215-9.235-19.695-13.193-29.834c-10.081-25.82-9.229-51.661,1.538-77.017C48.6,479.596,52.492,474.554,55.957,468.786z"
		/>
	<path d="M368.018,461.512c16.548-35.128,15.581-68.5-2.665-102.442c-18.034-33.548-15.583-67.588,2.18-100.731
		c1.389-2.592,3.47-4.768,6.048-6.955c-17.189,36.182-13.439,70.77,3.974,105.556c15.836,31.634,13.473,63.831-2.403,95.039
		C373.363,455.494,370.424,458.35,368.018,461.512z"/>
	<path d="M244.794,329.387c-26.083,9.154-49.792,2.615-71.59-13.02c-7.479-5.364-14.667-12.053-20.056-19.674
		c-21.923-31.005-49.627-48.685-88.719-44.973c27.35-13.598,70.666,0.92,91.738,29.286c17.191,23.141,36.92,42.029,65.574,46.732
		C229.325,328.983,237.105,328.874,244.794,329.387z"/>
	<path d="M123.954,624.726c15.393-36.602,11.688-67.854-4.676-99.374c-15-28.891-16.409-59.669-1.914-89.982
		c2.205-4.612,5.203-8.797,8.907-14.966c0.473,3.238,1.041,4.443,0.694,5.129c-16.797,33.23-11.882,65.055,4.392,96.826
		c14.996,29.276,16.154,59.574,2.528,90.022c-1.239,2.77-2.829,5.387-4.473,7.917C128.752,621.312,127.506,621.897,123.954,624.726z
		"/>
	<path d="M498.781,797.642c19.548-35.555,15.468-69.66-2.182-104.458c-17.104-33.723-15.862-67.645,4.771-99.918
		c0.905-1.416,2.166-2.585,3.326-3.8c0.151-0.158,0.691,0.1,1.893,0.319c-19.63,35.293-14.652,68.973,3.043,103.599
		C528.387,730.085,523.24,769.724,498.781,797.642z"/>
	<path d="M317.586,495.005c6.96-20.719,13.646-41.185,7.954-63.116c-3.276-12.624-7.398-25.264-12.993-36.894
		c-12.789-26.584-15.78-53.656-6.439-81.855c2.198-6.634,6.071-12.644,11.395-17.739c-2.417,9.635-5.729,19.131-7.072,28.931
		c-3.239,23.636,3.286,45.08,13.755,65.891c15.732,31.276,16.811,63.146,0.14,94.71C322.44,488.505,319.85,491.658,317.586,495.005z
		"/>
	<path d="M145.553,407.596c-18.019,36.545-13.468,70.759,4.868,105.546c17.729,33.634,12.962,76.53-10.874,103.761
		c3.34-8.352,5.768-13.7,7.652-19.255c9.887-29.148,3.948-56.164-9.504-82.452c-14.956-29.228-17.07-59.403-3.717-90.034
		c2.068-4.744,5.172-8.996,7.943-13.371C142.909,410.233,144.33,408.985,145.553,407.596z"/>
	<path d="M353.501,257.642c-31.202,12.441-71.133-0.451-93.02-30.415c-15.757-21.571-33.511-39.534-59.313-45.436
		c-10.353-2.368-21.255-2.032-31.221-2.87c25.403-12.415,68.336,0.161,92.608,30.489c9.864,12.325,20.707,24.246,32.811,33.958
		C310.401,255.431,323.215,257.347,353.501,257.642z"/>
	<path d="M160.512,611.512c33.99-11.972,71.904-0.079,95.694,32.797c22.098,30.537,48.885,48.285,87.166,45.338
		c-20.585,10.152-50.905,4.995-72.944-12.697c-8.186-6.572-15.923-14.346-22.169-22.955c-21.309-29.369-48.113-45.253-83.796-41.623
		C163.34,612.486,162.152,611.888,160.512,611.512z"/>
	<path d="M115.852,1.736c-16.158,36.24-10.281,69.183,6.703,102.134c17.522,33.996,13.705,76.931-9.676,103.884
		c8.62-21.121,15.173-40.174,10.594-60.539c-2.86-12.72-6.521-25.587-12.013-37.225c-14.6-30.934-19.199-61.881-4.174-93.983
		C109.636,10.985,112.972,6.48,115.852,1.736z"/>
	<path d="M99.232,14.216c-9.817,23.612-13.51,47.827-5.824,72.907c2.42,7.897,5.748,15.566,9.371,22.948
		c15.541,31.664,18.65,63.623,2.859,96.265c-1.133,2.341-2.361,4.662-3.806,6.794c-1.426,2.103-3.183,3.953-4.37,5.397
		c3.128-13.39,7.51-26.987,9.293-40.957c2.923-22.891-6.224-42.818-15.561-62.886C75.053,79.993,76.358,45.98,99.232,14.216z"/>
	<path d="M134.229,203.643c36.537-12.79,72.282,0.955,99.394,38.118c13.457,18.446,30.095,31.817,51.532,37.146
		c9.986,2.483,20.534,2.419,31.914,3.625c-21.044,7.728-40.788,4.519-59.011-5.172c-11.624-6.182-23.724-14.439-31.487-25.132
		C202.978,219.734,174.932,199.025,134.229,203.643z"/>
	<path d="M83.953,23.726c-12.182,23.772-16.578,48.733-8.338,74.893c3.271,10.384,8.305,20.148,12.602,30.163
		c14.644,34.124,14.568,67.102-7.724,98.151c2.366-7.723,5.325-15.306,6.99-23.196c5.556-26.336-0.24-50.552-12.437-73.758
		C56.133,93.995,59.443,52.482,83.953,23.726z"/>
	<path d="M197.46,587.812c31.035-12.392,68.187-0.969,92.492,31.2c22.262,29.466,47.955,49.177,85.047,48.228
		c-25.353,7.576-48.39,1.49-69.263-13.866c-8.063-5.932-15.372-13.71-21.357-22.001C262.326,600.825,234.538,584.163,197.46,587.812
		z"/>
	<path d="M279.42,306.186c-35.843,8.668-66.235-2.087-89.83-31.846c-13.57-17.115-27.109-33.913-47.856-40.662
		c-12.509-4.069-25.75-5.61-37.656-8.079c18.066-6.777,37.459-4.054,54.964,5.965c12.852,7.356,25.95,16.98,34.734,29.037
		C215.823,290.867,243.191,306.8,279.42,306.186z"/>
	<path d="M231.467,563.621c38.438-11.903,72.341,1.135,99.062,38.305c11.404,15.865,25.237,28.35,43.132,34.37
		c11.275,3.793,23.31,5.043,33.231,7.071c-14.697,7.762-42.426,3.627-63.625-12.294c-9.048-6.795-17.961-14.79-24.509-24.149
		C296.887,575.659,268.6,560.522,231.467,563.621z"/>
	<path d="M295.349,725.237c-34.2,12.753-69.583,0.499-93.44-26.968c-7.866-9.057-14.619-19.383-23.27-27.455
		c-18.223-17.006-40.178-24.411-64.36-24.718c26.3-7.711,49.928-0.544,71.208,16.06c8.245,6.434,15.661,14.591,21.974,23.186
		C229.029,714.706,256.594,728.981,295.349,725.237z"/>
	<path d="M380.979,234.093c-33.208,9.785-60.114-2.842-83.519-27.915c-12.755-13.663-25.024-28.374-39.683-39.351
		c-15.212-11.391-34.006-13.445-54.483-10.288c31.32-14.716,72.852,0.276,94.004,29.351c15.606,21.451,33.053,39.753,59.181,45.271
		C364.511,232.858,372.805,233.155,380.979,234.093z"/>
	<path d="M30.266,274.684c39.112-10.916,70.97,3.142,94.961,35.003c21.597,28.68,47.338,44.645,82.183,43.058
		c0.615-0.028,1.26,0.665,1.926,1.041c-29.904,10.903-68.28-1.395-90.679-32.46C95.952,289.836,68.375,272.021,30.266,274.684z"/>
	<path d="M302.161,503.688c13.608-35.521,8.451-67.649-8.074-99.775c-15.069-29.297-15.539-59.872-0.632-89.934
		c1.986-4.005,4.704-7.601,8.439-10.478c-2.774,9.466-6.733,18.745-8.086,28.434c-3.239,23.195-0.235,45.246,11.047,66.308
		c17.358,32.406,19.581,65.879,1.727,99.325C305.401,499.784,303.649,501.656,302.161,503.688z"/>
	<path d="M363.64,677.587c-31.768,13.577-71.774,0.034-95.966-33.133c-16.077-22.042-35.158-38.597-61.592-43.58
		c-7.673-1.446-15.585-1.465-23.217-2.746c35.347-8.579,64.318,3.238,88.661,31.071c10.359,11.845,20.554,24.341,32.716,33.807
		C321.489,676.43,341.829,680.902,363.64,677.587z"/>
	<path d="M249.799,551.919c32.804-11.622,70.332,1.212,91.32,29.366c17.676,23.71,37.005,44.582,67.381,47.779
		c7.71,0.812,15.561,0.122,23.862,0.122c-20.615,10.276-52.853,5.163-74.751-12.078c-6.306-4.965-12.773-10.407-17.324-17.05
		C318.716,568.575,291.505,548.964,249.799,551.919z"/>
	<path d="M22.918,490.702c-19.809,38.079-12.542,73.417,5.772,109.384c12.851,25.239,12.394,52.7,2.289,79.47
		c-2.014,5.336-5.537,10.032-9.616,14.149c2.565-11.402,6.244-22.673,7.457-34.235c2.333-22.24-4.578-42.302-14.369-61.881
		c-16.132-32.259-16.694-64.919,1.42-96.893C17.88,497.147,20.553,494.023,22.918,490.702z"/>
	<path d="M571.88,745.849c16.758-36.27,10.756-69.606-6.833-103.599c-17.066-32.982-11.345-77.383,12.135-102.133
		c-20.152,38.608-14.184,72.165,2.995,106.856C596.809,680.557,594.585,714.9,571.88,745.849z"/>
	<path d="M368.932,246.184c-14.145,5.998-28.776,5.001-43.152,1.389c-20.97-5.269-38.436-17.522-51-35.811
		c-20.042-29.173-45.967-45.044-80.25-44.885c-1.023,0.005-2.048-0.502-3.62-0.914c35.223-9.791,69.698,4.28,94.144,38.395
		c14.055,19.614,31.444,34.023,54.481,39.045C349.039,245.475,358.977,245.312,368.932,246.184z"/>
	<path d="M149.386,622.629c32.236-10.56,68.408,4.331,92.767,37.99c16.477,22.768,37.124,37.685,64.356,40.893
		c7.336,0.864,14.84,0.131,22.266,0.131c0.034,1.088,0.069,2.177,0.103,3.265c-14.452,0-29.332,2.33-43.257-0.543
		c-21.199-4.373-39.509-16.173-52.582-35.24C212.356,638.96,185.358,621.895,149.386,622.629z"/>
	<path d="M469.901,614.351c-18.448,35.952-12.578,69.669,5.087,104.105c17.66,34.425,12.863,75.373-8.324,99.851
		c3.02-11.137,7.215-22.408,9.005-34.092c3.616-23.607-2.953-45.052-13.625-65.866C443.576,682.327,446.509,644.979,469.901,614.351
		z"/>
	<path d="M43.315,252.904c17.966-35.217,12.406-68.248-4.554-101.995c-16.352-32.536-15.072-65.837,5.143-99.067
		c0.918,2.822,1.797,4.103,1.491,4.784c-14.374,31.969-9.98,62.587,5.817,92.377c12.459,23.495,15.369,48.527,8.895,74.258
		c-2.709,10.767-8.562,20.645-12.986,30.928C45.852,253.761,44.584,253.333,43.315,252.904z"/>
	<path d="M364.477,46.47c17.526-7.658,35.545-6.142,51.457,2.256c14.501,7.653,29.501,17.703,39.495,30.802
		c23.287,30.521,50.242,49.544,88.545,46.253c-27.769,9.169-52.895,3.036-75.478-15.46c-7.161-5.865-13.847-12.833-19.359-20.431
		C427.688,60.326,400.944,43.149,364.477,46.47z"/>
	<path d="M263.854,540.664c30.069-13.834,71.097-1.172,94.28,27.328c8.106,9.965,15.335,21.032,24.639,29.537
		c17.754,16.231,39.384,21.857,62.632,21.135c-24.699,9.137-46.984,1.543-67.928-12c-7.321-4.734-14.488-11.011-19.471-18.314
		C335.226,554.958,306.409,535.372,263.854,540.664z"/>
	<path d="M344.151,59.495c33.026-13.019,72.509,0.674,94.876,32.916c21.71,31.295,49.401,48.883,87.208,45.078
		c-18.038,8.321-35.813,5.196-53.508-1.6c-17.397-6.681-31.031-18.898-41.788-34.322C409.19,70.384,381.257,54.634,344.151,59.495z"
		/>
	<path d="M536.883,558.317c-19.598,6.903-39.6,7.029-57.362-3.659c-14.142-8.51-28.118-19.557-38.277-32.827
		c-22.008-28.749-47.8-45.876-84.908-41.673c23.925-11.482,57.685-3.401,80.196,18.476c3.968,3.856,7.963,7.874,11.105,12.463
		C469.68,543.293,497.923,561.906,536.883,558.317z"/>
	<path d="M318.327,504.074c33.519-13.013,72.776,0.507,94.954,32.409c17.945,25.813,39.9,43.268,70.904,45.427
		c5.238,0.365,10.517,0.052,15.777,0.052c0.013,1.165,0.027,2.33,0.04,3.496c-12.474,0-25.261,1.866-37.352-0.417
		c-20.479-3.867-39.484-13.657-51.511-32.07C389.015,519.099,360.195,500.996,318.327,504.074z"/>
	<path d="M495.663,170.839c-12.978,24.507-15.866,49.553-7.211,75.305c3.187,9.483,7.906,18.394,12.023,27.517
		c13.42,29.737,13.793,59.356-0.679,88.828c-1.335,2.72-2.979,5.291-4.681,7.776c-0.637,0.93-1.847,1.42-4.667,3.471
		c17.858-37.229,12.263-70.484-5.066-104.497c-16.136-31.67-14.35-64.473,5.315-95.014c0.684-1.063,1.686-1.905,2.588-2.794
		C493.49,171.231,493.896,171.262,495.663,170.839z"/>
	<path d="M53.954,261.414c35.614-7.186,64.665,5.336,86.993,34.552c17.972,23.517,38.605,41.4,68.093,44.264
		c7.358,0.715,14.83,0.107,21.936,0.107c-8.905,5.697-30.08,7.107-45.521,2.82c-20.427-5.671-37.845-17.117-50.295-34.846
		C114.653,279.11,88.605,262.443,53.954,261.414z"/>
	<path d="M237.724,130.374c37.792-9.935,70-0.144,94.005,31.345c22.349,29.316,47.601,49.986,88.06,47.365
		c-30.484,11.355-67.125-0.694-88.569-28.815c-16.003-20.986-32.837-40.096-58.78-45.907
		C261.312,131.87,249.726,131.679,237.724,130.374z"/>
	<path d="M471.839,176.667c-11.276,0.213-22.852,2.258-33.766,0.255c-22.257-4.085-42.49-14.464-55.963-34.242
		c-21.851-32.076-49.742-50.008-90.465-47.216c35.79-12.124,71.227,0.833,94.639,33.653c13.166,18.456,28.648,33.472,49.864,39.76
		c11.397,3.378,23.533,3.953,35.336,5.793C471.602,175.336,471.72,176.001,471.839,176.667z"/>
	<path d="M553.936,545.24c-24.751,9.54-48.026,4.463-69.072-10.221c-10.867-7.582-20.394-18.028-28.82-28.696
		c-19.154-24.249-41.952-39.836-72.69-39.361c-4.418,0.068-8.822,1.193-13.232,1.829c13.955-9.113,35.462-10.327,56.723,0.813
		c13.814,7.237,28.277,16.744,37.571,29.296C487.67,530.304,515.089,549.108,553.936,545.24z"/>
	<path d="M79.941,669.803c34.214-7.375,63.061,3.569,85.522,31.282c15.356,18.946,30.327,37.852,54.196,44.497
		c10.67,2.971,21.763,4.229,34.613,6.629c-30.062,7.181-54.804-0.833-76.917-19.642c-5.781-4.917-11.133-10.725-15.611-16.985
		C141.147,686.782,114.901,669.955,79.941,669.803z"/>
	<path d="M270.814,108.135c34.801-12.426,76.3-0.476,95.131,28.13c21.346,32.426,48.53,50.931,86.496,50.119
		c-24.608,8.413-46.998,1.42-67.451-12.748c-9.527-6.599-18.192-15.6-25.116-25.236C338.16,118.184,310.099,104.433,270.814,108.135
		z"/>
	<path d="M485.445,594.098c-27.611,9.904-53,3.468-76.137-13.762c-8.698-6.478-16.742-14.843-22.984-23.964
		c-21.036-30.737-49.313-42.977-83.666-40.43c11.346-6.431,33.953-6.727,51.142,0.071c18.389,7.273,33.572,18.958,44.961,36.292
		C419.118,583.289,450.368,597.9,485.445,594.098z"/>
	<path d="M563.383,324.9c13.637-34.259,10.993-65.987-5.716-98.182c-15.23-29.343-17.578-60.422-2.15-91.215
		c2.228-4.447,5.111-8.526,8.7-12.353c-8.265,19.827-13.475,40.17-8.412,61.442c3.111,13.07,7.816,25.935,13.376,38.083
		c14.867,32.478,16.013,64.32-1.427,96.037C566.538,320.922,564.851,322.843,563.383,324.9z"/>
	<path d="M555.476,757.205c2.82-12.581,7.079-25.481,8.359-38.705c1.955-20.206-3.542-39.039-12.808-56.974
		c-15.708-30.407-18.914-61.739-3.134-93.503c2.278-4.585,5.196-8.813,9.199-12.474c-2.977,9.143-6.729,18.094-8.784,27.465
		c-5.686,25.92,1.109,49.436,12.723,72.29c15.408,30.322,16.308,61.381,1.294,92.412c-1.324,2.736-2.995,5.304-4.701,7.799
		C556.976,756.461,555.774,756.981,555.476,757.205z"/>
	<path d="M539.78,767.121c2.657-15.775,8.171-30.595,6.751-44.626c-1.766-17.452-7.584-35.078-14.628-51.162
		c-14.929-34.084-16.38-66.821,2.659-99.418c0.865-1.481,1.929-2.848,3.027-4.148c0.416-0.492,1.19-0.643,3.406-1.754
		c-16.659,33.164-15.572,64.714,0.251,96.746c6.439,13.034,11.237,27.687,13.481,42.179
		C558.149,727.032,553.234,748.004,539.78,767.121z"/>
	<path d="M120.711,213.901c35.204-8.947,65.731,2.015,87.687,30.693c22.467,29.346,47.646,49.686,84.392,50.87
		c-35.22,6.612-64.83-4.463-86.299-33.961C184.4,231.149,157.555,213.143,120.711,213.901z"/>
	<path d="M89.15,237.335c37.311-7.252,67.062,6.934,89.928,38.26c17.162,23.511,38.849,38.107,66.92,41.094
		c6.868,0.731,13.863,0.109,20.957,0.109c-31.355,13.3-74.002-0.143-97.473-33.321C149.003,254.529,123.022,239.235,89.15,237.335z"
		/>
	<path d="M306.712,83.926c33.573-12.853,73.685-1.025,94.879,29.837c21.466,31.257,48.264,49.046,86.591,48.043
		c-21.597,8.728-51.381,2.708-72.195-14.68c-7.771-6.492-15.443-13.845-21.078-22.356C373.932,93.085,345.066,81.172,306.712,83.926
		z"/>
	<path d="M329.133,271.846c-35.581,7.164-65.558-4.459-87.384-34.159c-21.942-29.858-48.253-47.973-86.727-46.724
		c31.717-10.798,70.065,2.017,91.211,32.398C266.478,252.449,289.941,268.694,329.133,271.846z"/>
	<path d="M506.331,150.806c-27.45,10.434-67.658-3.383-88.335-31.014c-6.439-8.604-12.684-17.648-20.369-24.875
		c-20.801-19.563-34.514-23.648-71.089-23.68c31.033-12.056,70.005-0.154,91.546,28.956c14.319,19.351,29.016,38.076,52.483,44.633
		C482.417,148.137,494.882,148.97,506.331,150.806z"/>
	<path d="M37.003,696.012c29.461-12.911,69.015-1.235,92.737,28.106c14.423,17.84,28.07,36.576,50.196,43.844
		c12.5,4.107,25.677,5.892,36.275,8.223c-28.44,10.17-66.532-4.294-90.102-37.162c-16.584-23.125-36.882-39.304-64.618-42.86
		C53.754,695.171,45.807,696.012,37.003,696.012z"/>
	<path d="M567.286,534.59c-31.732,8.973-58.087-2.769-81.515-24.887c-3.996-3.772-7.45-8.304-10.67-12.869
		c-19.577-27.752-45.162-43.101-78.466-43.37c15.978-5.185,32.353-4.548,46.367,3.284c14.724,8.229,30.118,18.385,40.26,31.888
		C505.315,517.994,531.553,534.877,567.286,534.59z"/>
	<path d="M421.128,221.221c-15.744,36.599-5.995,69.115,9.844,102.598c15.602,32.981,13.036,66.418-9.15,96.647
		c2.807-8.989,6.545-17.786,8.239-27.006c4.467-24.309,0.2-47.162-11.274-68.871c-15.047-28.468-18.848-58.129-5.912-88.852
		c1.183-2.809,2.436-5.607,3.919-8.245C418.041,225.277,419.669,223.302,421.128,221.221z"/>
	<path d="M196.353,364.62c-36.126,14.395-77.523-3.859-99.749-36.99c-15.396-22.949-36.36-35.57-62.124-40.012
		c-5.23-0.902-10.576-1.046-17.227-1.666c28.953-9.694,69.809,5.026,90.526,35.63c16.854,24.898,39.112,40.442,68.46,42.962
		C182.326,365.067,188.486,364.62,196.353,364.62z"/>
	<path d="M441.276,404.715c2.447-9.139,5.733-18.131,7.18-27.444c3.816-24.555-2.724-46.842-13.753-68.405
		c-17.017-33.27-16.802-66.461,3.077-98.678c1.038-1.682,2.513-3.059,4.544-4.341c-11.208,24.3-15.363,49.203-6.664,75.125
		c2.619,7.804,6.242,15.265,9.783,22.679c13.858,29.018,17.433,58.586,4.423,89.026c-1.927,4.509-4.76,8.583-7.174,12.859
		C442.22,405.261,441.748,404.988,441.276,404.715z"/>
	<path d="M562.563,112.879c-26.532,10.165-50.733,3.479-73.093-12.214c-8.188-5.746-15.881-13.215-21.794-21.507
		c-20.927-29.346-47.214-46.653-84.167-44.646c14.709-7.025,34.069-7.254,51.828,2.818c13.662,7.749,28.072,17.162,37.374,29.791
		C495.994,98.731,523.887,116.657,562.563,112.879z"/>
	<path d="M514.197,570.927c-27.737,10.423-64.103-2.802-85.859-30.304c-4.006-5.064-7.523-10.567-11.573-15.588
		c-20.419-25.31-44.846-35.302-81.131-33.383c28.618-12.433,68.315-0.509,91.284,27.529c5.446,6.648,10.376,13.784,15.964,20.289
		C461.966,561.688,485.902,571.785,514.197,570.927z"/>
	<path d="M460.002,196.268c-18.075,34.063-13.65,66.701,4.308,99.056c17.113,30.831,13.933,75.136-6.525,100.844
		c2.88-11.644,6.802-22.852,8.268-34.41c2.863-22.568-2.382-43.521-13.178-63.35c-15.58-28.616-17.092-58.429-4.08-88.725
		c1.545-3.597,3.63-6.931,5.439-10.402c1.01-1.937,1.966-3.906,2.947-5.86C458.122,194.371,459.062,195.319,460.002,196.268z"/>
	<path d="M451.409,627.474c-9.764,21.595-14.493,44.045-7.92,67.463c3.285,11.703,8.686,22.779,13.535,33.941
		c14.366,33.072,15.328,65.438-3.942,96.913c-0.654,1.068-1.65,1.912-2.539,2.801c-0.222,0.222-0.651,0.211-2.244,0.67
		c15.675-33.573,13.813-65.733-3.194-97.53c-4.85-9.068-8.665-19.292-10.586-29.488
		C429.362,674.869,433.664,649.342,451.409,627.474z"/>
	<path d="M484.495,804.649c15.719-34.691,11.647-67.27-5.773-99.742c-17.995-33.543-14.134-76.637,8.713-102.479
		c-3.45,9.895-7.03,18.022-9.121,26.558c-6.455,26.357,0.395,50.348,12.411,73.393C509.022,737.467,506.703,777.597,484.495,804.649
		z"/>
	<path d="M477.977,182.235c-2.131,5.027-4.531,9.947-6.347,15.098c-10.029,28.457-5.814,55.479,7.889,81.327
		c15.207,28.685,18.214,58.251,6.015,88.909c-1.997,5.019-5.117,9.536-9.575,13.367c2.416-8.226,5.558-16.302,7.111-24.707
		c4.714-25.501-2.019-48.387-13.38-71.001c-16.896-33.631-16.94-67.527,3.939-99.972c0.867-1.348,2.057-2.461,3.097-3.684
		C477.143,181.793,477.56,182.014,477.977,182.235z"/>
	<path d="M514.12,157.642c-17.831,32.343-16.346,64.482,0.397,96.799c14.792,28.549,19.006,58.188,6.032,88.923
		c-2.115,5.01-5.088,9.613-8.756,13.718c2.632-11.798,6.263-23.464,7.681-35.424c2.608-21.995-5.533-41.417-14.905-60.435
		c-15.56-31.572-16.387-63.22,0.853-94.558c1.254-2.279,2.828-4.358,4.128-6.611c0.884-1.532,1.551-3.205,2.315-4.815
		C512.617,156.04,513.369,156.841,514.12,157.642z"/>
	<path d="M520.155,579.283c-15.215,35.345-10.614,67.664,6.161,100.67c16.722,32.901,16.481,66.521-5.35,98.055
		c2.365-8.538,5.443-16.937,6.958-25.642c4.184-24.03-1.249-46.241-12.256-67.379c-15.194-29.179-17.882-59.314-4.476-90.115
		C513.582,589.383,517.138,584.465,520.155,579.283z"/>
	<path d="M406.406,230.94c-16.754,35.323-11.014,68.326,5.901,101.949c16.165,32.134,14.885,65.011-5.434,95.829
		c2.261-10.155,5.198-20.202,6.648-30.485c3.343-23.706-3.348-45.048-14.022-65.742C381.657,297.903,384.361,258.083,406.406,230.94
		z"/>
	<path d="M528.093,146.438c-16.003,36.342-10.539,69.256,6.544,102.262c17.569,33.945,14.087,73.815-8.263,99.916
		c2.199-5.563,4.789-10.992,6.531-16.712c8.29-27.221,4.371-53.09-8.617-77.631c-15.604-29.486-19.039-59.755-5.666-91.118
		C521.131,157.272,524.904,151.995,528.093,146.438z"/>
	<path d="M457.524,608.813c-33.765,4.89-62.443-5.927-83.568-34.513c-16.151-21.855-34.317-39.537-60.801-44.825
		c-8.374-1.672-17.016-1.832-25.698-2.7c27.576-10.103,65.586,1.723,85.92,26.618C408.935,596.925,408.935,596.925,457.524,608.813z
		"/>
	<path d="M388.055,245.624c-0.757,2.291-1.369,4.651-2.294,6.864c-10.228,24.482-9.039,48.779,0.446,73.201
		c6.301,16.226,13.891,32.26,17.513,49.195c5.122,23.957,0.085,46.894-15.245,69.581c3.15-14.248,6.518-25.531,8.009-37.087
		c2.757-21.371-3.337-40.906-12.961-59.523c-15.098-29.208-17.888-59.346-4.8-90.257c1.938-4.578,4.917-8.66,7.415-12.971
		C386.776,244.959,387.416,245.291,388.055,245.624z"/>
	<path d="M546.501,134.237c-11.828,26.928-13.904,54.21-3.445,81.913c4.619,12.235,11.085,23.727,15.232,36.114
		c9.678,28.905,5.41,56.111-11.31,83.611c-0.377-3.401-0.918-4.676-0.549-5.482c14.714-32.106,8.608-62.162-6.446-92.258
		c-16.846-33.679-16.952-67.554,3.344-100.231C544.178,136.537,545.434,135.454,546.501,134.237z"/>
	<path d="M589.914,520.965c-31.193,12.517-70.13-0.677-93.769-31.748c-12.697-16.688-25.822-32.779-45.58-39.69
		c-12.042-4.212-24.809-6.091-37.733-9.131c17.528-5.491,35.276-2.78,50.785,5.828c14.021,7.783,28.058,18.298,37.92,31.194
		C524.731,507.749,552.158,525.119,589.914,520.965z"/>
	<path d="M576.355,101.667c-35.512,9.669-64.66-2.744-88.023-30.74c-14.167-16.976-27.279-34.882-48.433-42.27
		c-10.86-3.793-22.259-5.851-32.964-8.578c29.001-8.559,64.112,7.388,88.394,40.767c13.661,18.779,30.676,32.428,52.667,37.687
		C557.203,100.736,566.888,100.691,576.355,101.667z"/>
</g>
<rect x="-18.115" y="-21.333" opacity="0.8" fill="#1D71B8" width="633.323" height="896.276"/>
</svg>
