<?xml version="1.0" encoding="utf-8"?>
<!-- Generator: Adobe Illustrator 17.1.0, SVG Export Plug-In . SVG Version: 6.00 Build 0)  -->
<!DOCTYPE svg PUBLIC "-//W3C//DTD SVG 1.1//EN" "http://www.w3.org/Graphics/SVG/1.1/DTD/svg11.dtd">
<svg version="1.1" id="Calque_1" xmlns="http://www.w3.org/2000/svg" xmlns:xlink="http://www.w3.org/1999/xlink" x="0px" y="0px"
	 viewBox="0 0 595.28 841.89" enable-background="new 0 0 595.28 841.89" xml:space="preserve">
<g>
	<path d="M431.715,539.197c12.583,13.979,25.937,27.22,38.568,41.19c23.645,26.152,49.622,50.192,74.642,75.099
		c17.524,17.445,35.069,34.869,52.605,52.303c0,2.796,0,5.593,0,8.389c-1.569-1.059-3.339-1.911-4.678-3.208
		c-44.098-42.699-85.31-88.31-131.164-129.262c-16.183-14.453-30.764-30.701-46.097-46.109c-0.555-0.557-1.33-0.896-2.002-1.336
		c0.185,2.024,0.869,3.458,1.909,4.554c17.766,18.724,35.291,37.689,53.438,56.037c34.09,34.466,68.519,68.595,102.868,102.804
		c8.457,8.422,17.145,16.612,25.726,24.909c0,3.196,0,6.392,0,9.587c-0.646-0.45-1.374-0.818-1.927-1.362
		c-45.031-44.383-90.066-88.763-135.058-133.185c-14.898-14.71-29.68-29.538-44.538-44.289c-0.702-0.697-1.631-1.166-2.454-1.74
		c59.227,65.155,121.891,126.777,183.976,188.966c0,2.796,0,5.593,0,8.389c-1.554-1.141-3.28-2.108-4.638-3.449
		c-44.667-44.093-89.312-88.208-133.929-132.353c-14.186-14.036-28.275-28.171-42.436-42.232c-0.997-0.99-2.225-1.747-3.346-2.612
		c0.298,2.357,1.255,4.063,2.56,5.436c18.245,19.185,36.284,38.576,54.878,57.417c28.603,28.983,57.568,57.609,86.436,86.329
		c13.423,13.354,26.979,26.573,40.475,39.853c0,3.196,0,6.392,0,9.587c-3.155-3.025-6.35-6.011-9.46-9.082
		c-50.909-50.276-101.789-100.581-152.722-150.832c-10.147-10.011-20.488-19.823-30.74-29.727
		c20.877,23.356,41.998,46.427,63.907,68.722c32.715,33.293,65.952,66.072,99.037,99c9.872,9.825,19.979,19.413,29.978,29.109
		c0,3.196,0,6.392,0,9.587c-1.678-1.316-3.506-2.48-5.007-3.973c-7.209-7.169-14.272-14.484-21.49-21.643
		c-37.094-36.787-74.204-73.558-111.344-110.299c-14.327-14.173-28.739-28.262-43.147-42.353c-1.085-1.061-2.45-1.834-3.685-2.741
		c0.387,2.564,1.484,4.222,2.836,5.636c18.735,19.609,37.309,39.378,56.318,58.719c21.819,22.2,44.015,44.029,66.077,65.991
		c19.794,19.704,39.627,39.369,59.443,59.052c0,3.196,0,6.391,0,9.587c-1.465-1.346-2.98-2.642-4.389-4.044
		c-44.839-44.634-89.589-89.358-134.532-133.887c-20.407-20.219-41.186-40.063-61.813-60.06c-3.624-3.513-7.334-6.938-11.004-10.403
		c26.964,29.164,54.086,58.12,81.897,86.396c37.657,38.288,75.826,76.072,113.822,114.025c5.2,5.194,10.673,10.116,16.019,15.164
		c0,3.196,0,6.392,0,9.587c-0.659-0.39-1.434-0.663-1.962-1.186c-58.987-58.438-117.936-116.915-176.945-175.331
		c-9.991-9.891-20.239-19.523-30.368-29.275c-0.367,1.241-0.04,1.87,0.433,2.357c35.318,36.336,70.458,72.846,106.03,108.932
		c34.037,34.528,68.523,68.613,102.811,102.893c0,3.196,0,6.392,0,9.587c-1.741-1.641-3.517-3.246-5.217-4.928
		c-68.382-67.639-136.757-135.285-205.144-202.919c-1.336-1.322-2.816-2.499-4.228-3.743c0.063,1.748,0.861,2.62,1.679,3.473
		c22.104,23.031,43.957,46.309,66.371,69.033c37.837,38.359,76.002,76.395,114.093,114.503
		c10.701,10.706,21.625,21.188,32.446,31.773c0.577,7.147-4.929,2.119-7.186,3.595c-1.004-1.228-1.907-2.556-3.025-3.669
		c-51.9-51.685-103.72-103.452-155.779-154.976c-24.798-24.544-50.057-48.621-75.107-72.91c0.687,1.632,1.697,3.009,2.871,4.227
		c26.032,27.01,51.82,54.262,78.187,80.941c46.728,47.28,93.817,94.203,140.716,141.314c1.468,1.475,2.512,3.373,3.753,5.074
		c-2.794,0-5.589,0-8.383,0c-68.494-68.813-136.411-138.214-207.673-204.212c0.592,1.361,1.467,2.441,2.424,3.442
		c23.169,24.214,46.094,48.667,69.585,72.564c30.627,31.158,61.736,61.842,92.571,92.796c11.664,11.709,23.145,23.602,34.71,35.411
		c-3.194,0-6.387,0-9.581,0c-1.814-2.092-3.499-4.317-5.462-6.258C490.3,783.741,430.43,724.558,370.537,665.399
		c-9.17-9.058-18.469-17.986-27.708-26.973c-0.19,1.054,0.133,1.567,0.546,1.991c41.89,43.008,83.687,86.108,125.719,128.976
		c26.261,26.783,52.876,53.217,79.333,79.808c-3.194,0-6.387,0-9.581,0c-5.405-5.59-10.698-11.293-16.231-16.753
		c-55.099-54.38-110.231-108.726-165.378-163.057c-3.21-3.162-6.636-6.105-9.961-9.151c13.382,15.515,27.417,30.235,41.681,44.729
		c38.615,39.235,77.353,78.35,115.983,117.571c8.632,8.764,17.021,17.767,25.523,26.661c-3.194,0-6.387,0-9.581,0
		c-1.219-1.549-2.287-3.252-3.679-4.625c-59.666-58.882-119.359-117.735-179.065-176.576c-0.961-0.948-2.119-1.696-4.462-3.545
		c1.168,1.844,1.328,2.227,1.597,2.502c43.893,45.01,87.764,90.041,131.709,135.001c15.48,15.838,31.138,31.501,46.715,47.244
		c-3.194,0-6.387,0-9.581,0c-2.117-2.362-4.114-4.846-6.367-7.07c-49.155-48.492-98.328-96.967-147.527-145.416
		c-10.274-10.118-20.666-20.116-32.119-31.254c0.76,1.925,0.806,2.351,1.041,2.591c51.836,52.872,103.705,105.711,155.509,158.616
		c7.194,7.347,14.062,15.014,21.08,22.533c-2.794,0-5.589,0-8.383,0c-53.254-52.894-106.507-105.787-159.761-158.681
		c-0.529,0.51-1.058,1.019-1.588,1.529c0.68,0.854,1.292,1.775,2.05,2.553c39.139,40.159,78.284,80.312,117.445,120.45
		c11.131,11.408,22.312,22.768,33.47,34.149c-3.194,0-6.387,0-9.581,0c-1.24-1.526-2.347-3.187-3.74-4.558
		c-50.014-49.232-100.05-98.44-150.096-147.639c-5.075-4.989-10.223-9.904-15.337-14.854c26.623,28.952,53.635,57.447,81.067,85.534
		c26.751,27.39,53.93,54.362,80.921,81.518c-3.194,0-6.387,0-9.581,0c-1.304-1.503-2.514-3.102-3.925-4.496
		c-33.09-32.683-66.126-65.421-99.344-97.972c-14.099-13.816-28.59-27.233-42.902-40.831c-5.258-4.867-10.707-9.545-15.736-14.639
		c-11.472-11.621-22.63-23.553-34.112-35.164c-18.183-18.388-36.526-36.616-54.801-54.912
		c-20.947-21.169-41.885-42.348-62.882-63.467c-0.747-0.752-2.091-0.91-3.157-1.345c-0.556-0.557-1.111-1.115-1.667-1.672
		c-3.576-6.449-6.286-13.274-12.141-18.451c-8.934-7.899-17.267-16.489-25.717-24.924c-32.535-32.478-65.016-65.011-97.516-97.524
		c0-2.397,0-4.794,0-7.19c1.54,1.198,3.234,2.243,4.599,3.615c40.402,40.587,80.75,81.228,121.212,121.754
		c1.935,1.938,4.838,2.909,7.291,4.331c0.321-0.458,0.642-0.916,0.963-1.373c-2.068-3.668-3.45-8.017-6.308-10.9
		c-31.481-31.748-63.164-63.297-94.857-94.835c-10.874-10.82-21.928-21.458-32.9-32.179c0-2.796,0-5.593,0-8.389
		c29.534,29.447,58.953,59.011,88.652,88.29c14.018,13.82,28.573,27.094,42.781,40.517c1.317-4.844-1.503-9.157-5.795-13.414
		C82.417,442.428,40.58,400.724-1.285,359.05c0-2.397,0-4.794,0-7.19c0.941,0.714,1.979,1.329,2.807,2.156
		c25.126,25.087,50.133,50.293,75.372,75.265c17.415,17.229,35.146,34.138,52.773,51.226c1.262-4.076,0.11-8.091-3.599-11.775
		c-25.619-25.443-51.151-50.974-76.76-76.427c-16.822-16.72-33.726-33.357-50.593-50.031c0-2.796,0-5.593,0-8.389
		c43.612,43.135,87.225,86.271,130.84,129.409c1.411-3.837,0.515-7.977-2.924-11.477c-3.207-3.265-6.767-6.18-10.006-9.415
		c-31.731-31.684-63.398-63.432-95.157-95.088c-7.441-7.417-15.161-14.552-22.753-21.817c0-2.796,0-5.593,0-8.389
		c1.335,1.186,2.733,2.308,3.995,3.567c23.31,23.272,46.494,46.67,69.934,69.81c18.872,18.63,38.048,36.951,56.958,55.283
		c1.624-4.391-0.346-8.626-4.311-12.545c-23.852-23.571-47.658-47.188-71.45-70.819c-18.397-18.272-36.752-36.587-55.126-54.883
		c0-2.397,0-4.794,0-7.19c1.41,1.018,2.99,1.866,4.204,3.08c34.291,34.283,68.503,68.647,102.84,102.884
		c7.694,7.672,15.81,14.92,24.024,22.637c0.448-4.231,0.289-8.315-3.401-11.969c-30.918-30.615-61.741-61.325-92.646-91.952
		c-11.601-11.496-23.343-22.85-35.021-34.268c0-2.796,0-5.593,0-8.389c25.297,25.188,50.456,50.518,75.939,75.515
		c18.214,17.866,36.863,35.288,54.952,52.557c1.679-2.747,0.337-7.074-5.339-12.717C82.4,356.076,40.562,314.415-1.285,272.764
		c0-2.397,0-4.794,0-7.19c0.808,0.532,1.738,0.942,2.408,1.613c35.551,35.57,71.056,71.186,106.632,106.73
		c6.992,6.986,14.252,13.703,21.653,20.798c1.302-5.139-0.118-9.328-3.985-13.165c-32.594-32.335-65.099-64.758-97.671-97.115
		c-9.613-9.549-19.354-18.969-29.036-28.449c0-2.796,0-5.593,0-8.389c26.82,26.725,53.459,53.637,80.528,80.107
		C95.908,344,113.23,359.622,129.86,375.175c0.893-2.841-0.424-7.102-4.367-11.009C85.43,324.467,45.415,284.72,5.359,245.014
		c-2.085-2.066-4.423-3.877-6.643-5.806c0-2.796,0-5.593,0-8.389c0.808,0.547,1.731,0.978,2.408,1.656
		c32.714,32.747,65.352,65.57,98.134,98.249c9.826,9.795,20.045,19.196,30.033,28.729c1.89-5.786-1.46-10.066-5.719-14.285
		c-25.087-24.85-50.067-49.808-75.117-74.696c-16.55-16.443-33.157-32.829-49.739-49.241c0-2.397,0-4.794,0-7.19
		c1.422,0.947,3.051,1.687,4.236,2.871c23.859,23.824,47.477,47.892,71.546,71.501c18.225,17.877,37.011,35.181,55.291,52.497
		c1.428-3.257-0.647-7.298-4.426-11.058c-31.257-31.099-62.457-62.254-93.744-93.322c-10.868-10.792-21.93-21.389-32.904-32.076
		c0-2.796,0-5.593,0-8.389c1.489,1.301,3.051,2.526,4.456,3.912c42.021,41.459,84.025,82.934,126.183,124.555
		c-0.12,0.178,1.523-1.31,1.237-2.004c-1.397-3.392-2.743-7.091-5.154-9.721c-5.244-5.721-11.227-10.755-16.727-16.251
		C72.019,259.89,35.375,223.176-1.285,186.478c0-2.397,0-4.794,0-7.19c1.127,0.727,2.428,1.28,3.356,2.208
		c22.435,22.417,44.429,45.294,67.348,67.204c22.639,21.642,42.083,46.627,67.975,64.911c5.131,3.623,9.095,8.913,13.551,13.48
		c7.564,7.751,15.09,15.537,23.741,24.451c-0.356-2.301-0.284-2.767-0.484-2.997c-15.563-17.909-33.183-33.77-48.734-51.88
		c-24.229-28.217-52.199-53.224-78.65-79.524c-15.97-15.879-32.065-31.631-48.104-47.44c0-2.796,0-5.593,0-8.389
		c1.053,0.908,2.169,1.752,3.149,2.732c22.274,22.276,44.168,44.948,66.898,66.748c22.504,21.582,41.997,46.346,67.72,64.54
		c0.933,0.66,1.855,1.334,2.592,1.866c-4.47-6.258-8.146-13.199-13.44-18.532c-37.912-38.198-76.14-76.083-114.31-114.025
		c-4.067-4.043-8.4-7.818-12.61-11.717c0-2.796,0-5.593,0-8.389c3.898,3.637,7.905,7.165,11.676,10.929
		c20.469,20.431,40.446,41.379,61.433,61.26c20.721,19.63,38.741,41.935,61.756,59.384c13.545,10.27,24.575,23.858,36.757,35.933
		c1.408,1.395,2.951,2.654,5.717,5.124c-18.83-20.753-36.141-40.392-54.091-59.429c-13.254-14.057-27.351-27.318-41.054-40.954
		c-27.405-27.271-54.797-54.556-82.194-81.836c0-2.796,0-5.593,0-8.389c0.48,0.357,1.006,0.666,1.434,1.077
		c46.088,44.335,88.671,92.241,136.853,134.451c6.438,5.64,12.151,12.104,18.261,18.123c6.295,6.202,12.665,12.327,19.002,18.485
		c0.406-1.312,0.182-2.073-0.301-2.591c-16.261-17.439-32.196-35.2-48.905-52.199c-30.906-31.444-62.232-62.473-93.456-93.603
		C20.75,139.48,9.684,128.873-1.285,118.168c0-2.796,0-5.593,0-8.389c0.8,0.565,1.692,1.035,2.388,1.708
		c44.914,43.42,86.71,90.011,133.58,131.451c7.008,6.196,13.263,13.239,19.98,19.773c8.64,8.404,17.396,16.69,26.102,25.026
		C122.433,222.903,60.212,161.9-1.285,100.192c0-2.796,0-5.593,0-8.389c1.187,1.066,2.422,2.084,3.555,3.205
		c44.039,43.549,88.053,87.123,132.109,130.655c12.919,12.765,25.928,25.439,38.945,38.103c6.202,6.034,12.519,11.948,18.784,17.917
		c-22.044-24.473-44.16-48.786-67.038-72.357c-25.576-26.35-51.807-52.065-77.825-77.984c-16.107-16.046-32.349-31.957-48.53-47.928
		c0-2.796,0-5.593,0-8.389c1.218,1,2.527,1.909,3.642,3.014c43.738,43.346,87.431,86.737,131.198,130.053
		c13.181,13.045,26.525,25.926,39.865,38.809c5.584,5.392,11.351,10.594,17.035,15.882c0.334-1.165,0.106-1.718-0.278-2.122
		c-22.51-23.691-44.739-47.658-67.626-70.977c-30.596-31.173-61.666-61.88-92.612-92.707C19.658,86.736,9.13,76.743-1.285,66.636
		c0-2.796,0-5.593,0-8.389c1.857,1.399,3.908,2.602,5.542,4.225c44.009,43.725,87.896,87.573,131.984,131.217
		c19.145,18.952,38.835,37.353,57.974,56.31c7.045,6.978,13.217,14.837,19.787,22.294c0.745-0.738,1.49-1.477,2.235-2.215
		c-1.161-1.24-2.307-2.494-3.486-3.716c-34.773-36.041-69.285-72.34-104.398-108.046C72.112,121.464,35.286,85.188-1.285,48.66
		c0-2.796,0-5.593,0-8.389c1.47,1.334,2.992,2.616,4.404,4.009c62.21,61.4,124.405,122.815,186.625,184.206
		c4.881,4.816,9.926,9.464,14.895,14.19c-0.254-2.08-1.251-3.438-2.418-4.628C143.255,177.918,84.301,117.775,25.267,57.711
		C16.614,48.907,7.575,40.482-1.285,31.882c0-2.796,0-5.593,0-8.389c1.544,1.184,3.235,2.217,4.61,3.573
		c73.575,72.546,147.123,145.12,220.685,217.679c1.453,1.433,3.046,2.725,4.574,4.083c-0.692-1.891-1.86-3.218-3.084-4.49
		c-24.489-25.439-48.746-51.107-73.532-76.253C109.948,125.457,67.627,83.126,25.354,40.748
		c-8.703-8.724-17.75-17.105-26.638-25.644c0-3.196,0-6.392,0-9.587C20.476,27.215,42.142,49.009,64.018,70.59
		c47.022,46.387,94.138,92.678,141.249,138.975c9.594,9.429,19.333,18.711,29.005,28.06c-0.225-1.833-1.137-3.01-2.172-4.066
		c-60.069-61.28-120.09-122.608-180.264-183.785C34.356,32.003,16.435,14.665-1.285-2.872c0-1.598,0-3.196,0-4.794
		c1.597,0,3.194,0,4.791,0c1.461,1.63,2.84,3.342,4.393,4.879c68.492,67.793,136.988,135.582,205.524,203.331
		c6.991,6.911,14.234,13.567,21.359,20.341c-0.039-1.703-0.796-2.758-1.691-3.679c-39.925-41.044-79.708-82.228-119.847-123.062
		C79.676,59.996,45.69,26.256,11.889-7.665c3.194,0,6.387,0,9.581,0c1.367,1.672,2.593,3.486,4.12,4.996
		c72.355,71.556,144.731,143.09,217.12,214.61c6.987,6.903,14.076,13.704,21.118,20.552c-0.547-1.914-1.663-3.266-2.879-4.521
		c-15.001-15.466-29.992-30.942-45.033-46.369c-27.987-28.707-55.878-57.51-84.047-86.036C105.531,68.894,78.838,42.571,52.397,16
		C44.714,8.279,37.359,0.232,29.854-7.665c2.794,0,5.589,0,8.383,0c1.272,1.52,2.43,3.156,3.834,4.542
		c67.284,66.466,134.586,132.914,201.908,199.342c2.828,2.79,5.865,5.368,8.805,8.045c-10.481-12.745-21.76-24.564-33.19-36.235
		c-38.246-39.05-76.511-78.082-114.838-117.052c-19.3-19.624-38.751-39.1-58.134-58.643c2.794,0,5.589,0,8.383,0
		c71.15,71.533,142.233,143.136,216.021,211.98c-24.688-26.341-49.477-52.577-74.818-78.269
		C153.619,82.867,110.673,40.04,67.917-2.975c-1.334-1.342-2.231-3.117-3.332-4.691c2.794,0,5.589,0,8.383,0
		c1.089,1.381,2.045,2.898,3.287,4.125c59.03,58.361,118.075,116.708,177.152,175.021c6.647,6.561,13.493,12.92,20.247,19.373
		c-15.582-18.279-31.956-35.708-48.694-52.778C190.737,103.173,156.31,68.47,121.983,33.669
		C108.416,19.914,94.894,6.114,81.352-7.665c2.794,0,5.589,0,8.383,0c0.904,1.058,1.735,2.188,2.721,3.162
		c56.327,55.64,112.651,111.283,169.029,166.87c6.092,6.007,12.508,11.684,18.774,17.514c0.257-1.13-0.031-1.658-0.433-2.076
		c-29.31-30.465-58.415-61.132-88.005-91.322c-30.991-31.621-62.449-62.784-93.702-94.148c3.194,0,6.387,0,9.581,0
		c1.087,1.385,2.04,2.904,3.281,4.134c49.442,49.028,98.865,98.076,148.41,146.999c10.842,10.706,22.132,20.956,33.216,31.417
		c-9.344-11.143-19.088-21.876-29.237-32.21c-41.233-41.982-82.614-83.82-123.883-125.767c-7.932-8.062-15.609-16.375-23.403-24.573
		c2.794,0,5.589,0,8.383,0c1.28,1.51,2.456,3.125,3.855,4.515c37.656,37.398,75.231,74.879,113.062,112.1
		c14.635,14.399,29.86,28.198,44.816,42.271c7.609,7.324,15.343,14.525,22.805,21.997c22.528,22.558,44.962,45.211,67.411,67.849
		c11.625,11.723,23.203,23.493,34.802,35.242c14.618,14.627,29.235,29.253,43.853,43.88c3.005,2.945,6.011,5.89,9.016,8.836
		c2.117,3.502,3.641,7.592,6.442,10.415c28.315,28.545,56.807,56.914,85.317,85.264c13.821,13.743,27.785,27.342,41.685,41.006
		c0,3.196,0,6.392,0,9.587c-0.911-0.768-1.886-1.474-2.725-2.314c-33.82-33.86-67.595-67.766-101.462-101.58
		c-8.83-8.816-17.944-17.348-27.069-26.145c-2.18,6.688,2.717,10.327,6.668,14.26c31.362,31.218,62.728,62.433,94.17,93.57
		c10.019,9.922,20.272,19.607,30.418,29.401c0,3.196,0,6.392,0,9.587c-0.938-0.689-1.987-1.268-2.799-2.083
		c-40.956-41.102-81.89-82.226-122.834-123.339c-1.592-1.598-3.261-3.12-5.537-5.29c-1.22,5.651,0.314,9.048,3.492,12.187
		c19.436,19.197,38.795,38.473,58.166,57.737c23.179,23.051,46.343,46.117,69.513,69.177c0,3.196,0,6.392,0,9.587
		c-2.855-2.783-5.75-5.525-8.559-8.354c-37.126-37.388-74.234-74.794-111.366-112.175c-3.512-3.535-7.155-6.939-10.737-10.404
		c-0.743,0.51-1.485,1.021-2.228,1.531c1.796,3.401,2.904,7.486,5.494,10.097c31.202,31.452,62.589,62.721,94.006,93.958
		c11.02,10.957,22.254,21.698,33.39,32.537c0,3.196,0,6.392,0,9.587c-0.649-0.452-1.385-0.817-1.935-1.369
		c-39.046-39.158-78.075-78.332-117.112-117.499c-3.845-3.858-7.729-7.677-12.56-12.471c-0.598,6.17,0.841,9.668,4.266,13.064
		c42.521,42.147,84.914,84.422,127.341,126.664c0,2.796,0,5.593,0,8.389c-1.421-1.002-3.027-1.82-4.235-3.033
		c-38.558-38.737-77.096-77.495-115.575-116.311c-3.564-3.595-6.717-7.599-10.988-12.47c-1.756,6.778-0.254,10.099,2.993,13.33
		c32.241,32.084,64.344,64.308,96.56,96.417c10.301,10.267,20.824,20.311,31.245,30.457c0,3.196,0,6.392,0,9.587
		c-0.628-0.488-1.318-0.915-1.875-1.473c-38.758-38.845-77.532-77.674-116.214-116.595c-4.137-4.163-7.725-8.874-11.567-13.331
		c-2.9,6.043-1.252,9.414,1.97,12.607c37.407,37.073,74.727,74.233,112.117,111.324c5.059,5.018,10.373,9.779,15.569,14.66
		c0,3.196,0,6.392,0,9.587c-1.096-0.79-2.326-1.445-3.268-2.388c-32.272-32.312-64.498-64.668-96.775-96.975
		c-10.254-10.263-20.629-20.405-31.224-30.873c-1.846,5.031,0.185,8.399,3.495,11.687c29.444,29.248,58.798,58.587,88.218,87.86
		c13.138,13.073,26.366,26.055,39.553,39.078c0,3.196,0,6.392,0,9.587c-1.33-1.2-2.719-2.341-3.982-3.607
		c-35.628-35.742-71.231-71.509-106.873-107.237c-6.698-6.714-13.543-13.282-20.73-20.319c-1.301,4.995,0.318,8.467,3.667,11.791
		c35.944,35.683,71.791,71.464,107.714,107.167c6.621,6.58,13.464,12.936,20.205,19.395c0,3.196,0,6.391,0,9.587
		c-1.072-0.87-2.234-1.651-3.205-2.624c-38.302-38.401-76.612-76.795-114.839-115.271c-4.234-4.261-7.984-9.004-11.958-13.523
		c-2.944,5.934-1.262,9.315,1.911,12.466c42.723,42.42,85.401,84.886,128.09,127.34c0,2.796,0,5.593,0,8.389
		c-3.526-3.099-7.242-6.008-10.549-9.325c-34.936-35.038-69.823-70.123-104.677-105.243c-5.237-5.277-10.228-10.796-15.986-16.895
		c-2.205,6.704,0.391,10.196,3.737,13.528c36.757,36.603,73.478,73.244,110.25,109.833c5.634,5.605,11.478,10.999,17.225,16.49
		c0,3.196,0,6.392,0,9.587c-0.925-0.752-1.926-1.428-2.764-2.267c-28.914-28.938-57.751-57.954-86.742-86.815
		c-13.942-13.879-28.17-27.471-42.382-41.303c-0.17,0.5-1.062,1.742-0.746,2.425c1.456,3.152,2.649,6.746,5.009,9.11
		c33.403,33.458,66.947,66.774,100.537,100.044c8.891,8.806,18.051,17.339,27.088,25.997c0,3.196,0,6.391,0,9.587
		c-1.41-1.031-2.985-1.898-4.206-3.118c-23.562-23.551-47.113-47.113-70.602-70.737c-17.72-17.822-35.329-35.753-53.06-53.563
		c-1.217-1.223-3.043-1.839-4.586-2.737c-0.579,0.702-1.159,1.403-1.738,2.105c2.715,3.742,4.994,7.919,8.213,11.159
		c26.716,26.886,53.578,53.627,80.454,80.353c15.118,15.033,30.346,29.955,45.524,44.927c0,3.196,0,6.392,0,9.587
		c-0.322-0.236-0.681-0.434-0.96-0.713c-22.434-22.418-44.478-45.243-67.397-67.152c-22.65-21.652-42.819-45.758-67.467-65.502
		c-14.229-11.397-26.081-25.772-38.947-38.862c-3.007-3.059-5.789-6.341-8.674-9.52c-0.493,0.366-0.987,0.732-1.48,1.099
		c1.432,2.118,2.604,4.488,4.353,6.3c3.039,3.148,6.648,5.751,9.645,8.933c14.245,15.122,28.914,29.824,43.012,45.115
		c30.128,32.677,62.571,63.22,94.135,94.567c11.156,11.08,22.514,21.957,33.779,32.926c0,3.196,0,6.391,0,9.587
		c-0.676-0.399-1.463-0.682-2.012-1.212c-45.177-43.565-86.773-90.777-134.349-131.909c-6.312-5.457-11.706-11.967-17.733-17.772
		c-3.952-3.806-8.279-7.221-12.439-10.812"/>
	<path d="M411.218,276.308c-11.599-11.749-23.177-23.519-34.802-35.242c-22.448-22.638-44.882-45.291-67.411-67.849
		c-7.462-7.472-15.196-14.672-22.805-21.997c-0.845-1.486-1.424-3.23-2.574-4.422c-30.86-31.996-61.692-64.018-92.717-95.852
		c-19.193-19.693-38.695-39.084-58.058-58.611c2.794,0,5.589,0,8.383,0c24.904,24.969,49.639,50.11,74.748,74.871
		c50.94,50.231,102.08,100.26,153.145,150.364c11.076,10.867,22.186,21.699,33.28,32.547l-0.211-0.213
		c0.417,0.663,0.725,1.434,1.265,1.974c19.581,19.591,39.183,39.161,58.782,58.734c0.154,0.153,0.307,0.306,0.459,0.461
		c2.374,3.568,4.25,7.63,7.207,10.621c14.029,14.19,28.428,28.014,42.557,42.107c28.402,28.329,56.715,56.748,85.064,85.131
		c0,2.796,0,5.593,0,8.389c-2.394-2-4.965-3.824-7.156-6.026c-40.001-40.215-79.971-80.46-119.877-120.769
		c-2.012-2.033-3.733-3.276-6.41-1.501c-3.005-2.945-6.011-5.89-9.016-8.836c-0.515-1.035-0.812-2.283-1.579-3.072
		c-12.493-12.856-25.014-25.686-37.638-38.414C414.688,277.527,412.781,277.088,411.218,276.308z"/>
	<path d="M256.598,656.099c11.482,11.611,22.64,23.543,34.112,35.164c5.029,5.094,10.478,9.772,15.736,14.639
		c0.928,1.472,1.63,3.165,2.817,4.384c37.287,38.316,74.633,76.573,111.937,114.871c7.744,7.95,15.359,16.026,23.034,24.044
		c-3.194,0-6.387,0-9.581,0c-1.347-1.699-2.529-3.564-4.064-5.072c-43.699-42.927-87.428-85.823-131.192-128.684
		c-1.226-1.2-2.887-1.956-4.345-2.919c-3.347-3.349-6.693-6.698-10.04-10.046c-1.382-1.886-2.553-3.981-4.18-5.625
		c-13.473-13.616-27.064-27.115-40.553-40.715c-23.464-23.656-46.784-47.455-70.36-70.998
		c-10.548-10.533-21.569-20.59-32.376-30.864l0.215,0.214c-3.768-5.417-6.836-11.53-11.416-16.14
		c-37.912-38.162-76.09-76.059-114.227-113.996c-4.341-4.319-8.927-8.391-13.4-12.578c0-2.796,0-5.593,0-8.389
		c15.722,15.597,31.461,31.177,47.16,46.796c14.574,14.499,28.657,29.53,43.782,43.426c14.855,13.648,25.951,31.393,44.433,41.089
		c0.556,0.557,1.111,1.115,1.667,1.672c18.024,18.095,36.007,36.23,54.106,54.25c3.758,3.742,7.944,7.053,11.933,10.562"/>
	<path d="M462.702,311.072c-0.152-0.155-0.305-0.308-0.459-0.461c-1.205-1.964-2.096-4.233-3.663-5.842
		c-12.39-12.723-24.79-25.442-37.44-37.905c-6.031-5.942-12.612-11.325-18.944-16.961l0.211,0.213
		c-0.951-1.447-1.694-3.098-2.883-4.312c-47.316-48.287-94.597-96.609-142.051-144.761c-31.083-31.54-62.452-62.797-93.618-94.256
		c-4.562-4.605-8.704-9.625-13.041-14.453c2.794,0,5.589,0,8.383,0c1.111,1.375,2.095,2.88,3.35,4.107
		c44.795,43.807,89.787,87.414,134.374,131.431c32.379,31.965,64.501,64.203,96.231,96.812
		c27.857,28.629,56.592,56.364,83.628,85.854c27.215,29.685,56.702,57.287,85.271,85.725c11.722,11.668,23.646,23.133,35.478,34.691
		c0,3.196,0,6.392,0,9.587c-1.618-1.464-3.305-2.86-4.844-4.403c-40.461-40.542-80.931-81.075-121.299-121.71
		C468.818,311.842,466.343,310.273,462.702,311.072z"/>
	<path d="M167.581-7.665c2.794,0,5.589,0,8.383,0c19.535,19.647,38.91,39.457,58.639,58.906
		c42.876,42.268,86.32,83.966,128.801,126.625c37.453,37.61,76.185,73.984,111.305,113.9c7.884,8.961,16.953,16.873,25.429,25.317
		c32.474,32.354,64.929,64.727,97.391,97.093c0,2.796,0,5.593,0,8.389c-1.282-0.811-2.767-1.419-3.815-2.465
		c-14.266-14.227-28.097-28.914-42.771-42.703c-29.993-28.185-56.651-59.691-88.288-86.319
		c-18.839-15.857-35.069-34.81-52.544-52.298c-36.8-36.829-73.866-73.395-110.411-110.476
		c-32.055-32.525-63.521-65.629-95.301-98.426C192.203,17.291,179.859,4.845,167.581-7.665z"/>
	<path d="M285.013,702.481c3.347,3.349,6.693,6.698,10.04,10.046c0.959,1.27,1.8,2.655,2.895,3.794
		c25.025,26.05,49.971,52.177,75.162,78.065c17.945,18.441,36.226,36.554,54.357,54.814c-3.194,0-6.387,0-9.581,0
		c-1.266-1.52-2.409-3.166-3.815-4.543c-32.931-32.259-66.046-64.332-98.803-96.766c-38.574-38.193-77.309-76.242-115.077-115.224
		c-24.585-25.374-50.679-49.178-73.711-76.253c-21.914-25.761-47.615-48.3-71.678-72.227c-18.672-18.566-37.389-37.089-56.085-55.63
		c0-2.796,0-5.593,0-8.389c34.011,33.954,67.858,68.076,102.125,101.769c11.687,11.491,20.923,25.911,36.918,32.555l-0.215-0.214
		c1.491,2.04,2.745,4.315,4.507,6.084c35.901,36.03,71.818,72.043,107.832,107.96C261.446,679.856,273.295,691.103,285.013,702.481z
		"/>
	<path d="M184.348-7.665c3.194,0,6.387,0,9.581,0c0.67,0.953,1.218,2.027,2.028,2.841c15.901,15.985,31.723,32.049,47.778,47.878
		c36.795,36.277,74.052,72.091,110.475,108.736c38.74,38.976,78.203,77.212,115.727,117.442
		c33.459,35.871,69.213,69.6,104.01,104.219c7.742,7.702,15.716,15.172,23.583,22.749c0,3.196,0,6.392,0,9.587
		c-6.276-6.078-12.521-12.19-18.835-18.229c-39.178-37.474-75.307-78.02-116.069-113.941c-18.817-16.582-35.65-35.426-53.302-53.323
		c-52.969-53.702-105.883-107.458-158.85-161.162C228.473,36.827,206.393,14.599,184.348-7.665z"/>
	<path d="M409.502,849.201c-2.794,0-5.589,0-8.383,0c-13.923-14.002-27.755-28.096-41.785-41.99
		C307.579,755.96,255.448,705.083,204.09,653.436c-26.19-26.338-52.726-52.304-77.841-79.804
		c-33.075-36.217-69.057-69.779-103.858-104.414c-7.746-7.709-15.777-15.13-23.676-22.684c0-2.796,0-5.593,0-8.389
		c1.632,1.442,3.345,2.801,4.883,4.337c19.192,19.166,38.12,38.603,57.59,57.482c26.634,25.826,51.406,53.538,80.034,77.373
		c12.659,10.539,23.506,23.255,35.206,34.952c40.335,40.323,80.85,80.467,120.974,121c32.262,32.59,64.078,65.622,96.036,98.512
		C398.937,837.46,404.155,843.394,409.502,849.201z"/>
	<path d="M-1.285,463.312c0-2.796,0-5.593,0-8.389c0.47,0.369,0.976,0.702,1.406,1.114c45.684,43.832,89.697,89.345,135.195,133.398
		c76.678,74.243,150.556,151.383,225.597,227.319c10.649,10.776,21.217,21.63,31.823,32.448c-3.194,0-6.387,0-9.581,0
		c-7.292-7.612-14.416-15.395-21.906-22.807c-33.745-33.395-68.03-66.255-101.298-100.117
		c-44.511-45.308-90.801-88.825-133.725-135.755c-27.986-30.598-58.456-58.924-87.873-88.208
		C25.216,489.237,11.932,476.308-1.285,463.312z"/>
	<path d="M597.53,379.423c0,3.196,0,6.392,0,9.587c-12.88-12.791-25.703-25.639-38.651-38.361
		c-33.888-33.295-67.849-66.516-101.734-99.813c-5.546-5.45-10.799-11.199-16.288-16.708
		c-50.534-50.715-101.172-101.326-151.606-152.141c-26.982-27.186-53.635-54.7-80.399-82.103c-2.322-2.377-4.366-5.026-6.54-7.549
		c2.794,0,5.589,0,8.383,0c1.458,1.626,2.828,3.341,4.386,4.864c27.389,26.764,55.143,53.164,82.138,80.32
		c57.604,57.949,114.749,116.354,172.219,174.437c28.626,28.931,57.523,57.594,86.356,86.318
		C569.635,352.062,583.614,365.711,597.53,379.423z"/>
	<path d="M597.53,362.645c0,2.796,0,5.593,0,8.389c-1.828-1.464-3.814-2.769-5.459-4.416
		c-17.893-17.918-35.587-36.038-53.622-53.811c-25.328-24.962-51.232-49.346-76.301-74.563
		c-66.5-66.895-132.687-134.101-198.99-201.191c-14.712-14.887-29.388-29.81-44.08-44.717c3.194,0,6.387,0,9.581,0
		c1.782,2.106,3.411,4.369,5.37,6.295c21.476,21.116,43.252,41.932,64.471,63.303c57.292,57.706,114.321,115.674,171.527,173.466
		c14.173,14.318,28.682,28.304,42.935,42.543C541.19,306.139,569.345,334.406,597.53,362.645z"/>
	<path d="M235.846-7.665c3.194,0,6.387,0,9.581,0c1.416,1.648,2.718,3.414,4.266,4.927c16.536,16.174,33.33,32.09,49.637,48.492
		c57.77,58.105,115.333,116.416,173.065,174.558c27.544,27.74,55.254,55.316,82.962,82.892
		c13.973,13.907,28.11,27.648,42.173,41.464c0,3.196,0,6.392,0,9.587c-1.201-1.041-2.467-2.016-3.593-3.133
		c-46.155-45.754-92.458-91.361-138.401-137.327C397.828,156.058,340.4,98.038,282.886,40.106
		C267.141,24.246,251.523,8.262,235.846-7.665z"/>
	<path d="M374.771,849.201c-2.794,0-5.589,0-8.383,0c-1.873-2.063-3.645-4.23-5.634-6.174
		c-23.681-23.148-47.737-45.924-71.031-69.454c-54.538-55.09-108.55-110.701-163.093-165.786
		C84.24,564.975,41.371,522.638-1.285,480.089c0-2.397,0-4.794,0-7.19c1.936,1.663,3.988,3.211,5.791,5.008
		c20.068,19.994,39.964,40.162,60.17,60.015c25.568,25.121,51.382,49.99,77.078,74.981c1.859,1.807,3.596,3.739,5.432,5.571
		c43.646,43.552,87.429,86.968,130.904,130.69c30.939,31.115,61.478,62.629,92.146,94.013
		C371.979,844.959,373.27,847.183,374.771,849.201z"/>
	<path d="M-1.285,498.066c0-2.796,0-5.593,0-8.389c16.691,16.579,33.279,33.263,50.095,49.713
		c28.675,28.05,57.584,55.86,86.209,83.959c12.945,12.707,25.382,25.93,38.161,38.809
		c60.652,61.126,121.344,122.212,181.999,183.334c1.085,1.094,1.89,2.467,2.825,3.709c-3.194,0-6.387,0-9.581,0
		c-1.775-2.118-3.393-4.396-5.35-6.33c-24.402-24.106-49.096-47.922-73.241-72.283c-48.25-48.683-96.105-97.759-144.319-146.478
		c-34.94-35.307-70.172-70.325-105.331-105.415C13.159,511.685,5.878,504.935-1.285,498.066z"/>
	<path d="M597.53,327.891c0,2.796,0,5.593,0,8.389c-1.428-0.985-3.045-1.779-4.256-2.983
		c-46.669-46.411-93.381-92.779-139.916-139.324C398.324,138.925,343.406,83.76,288.535,28.549
		c-11.787-11.86-23.16-24.132-34.724-36.215c2.794,0,5.589,0,8.383,0C373.973,104.187,485.752,216.039,597.53,327.891z"/>
	<path d="M341.238,849.201c-3.194,0-6.387,0-9.581,0c-1.541-1.801-2.953-3.735-4.644-5.383
		c-11.567-11.276-23.401-22.284-34.763-33.761c-54.978-55.535-109.78-111.245-164.758-166.781
		c-26.241-26.508-52.712-52.788-79.119-79.131c-16.513-16.473-33.102-32.87-49.657-49.301c0-2.397,0-4.794,0-7.19
		c1.427,1.01,3.029,1.844,4.256,3.057c44.801,44.244,89.679,88.411,134.308,132.828c43.553,43.345,86.928,86.871,130.228,130.471
		C292.243,798.915,316.671,824.127,341.238,849.201z"/>
	<path d="M597.53,309.915c0,3.196,0,6.392,0,9.587c-0.935-0.725-1.958-1.361-2.791-2.188
		c-44.858-44.559-89.741-89.093-134.528-133.723c-24.451-24.366-48.79-48.845-73.085-73.367
		c-38.891-39.255-77.704-78.588-116.55-117.889c3.194,0,6.387,0,9.581,0c7.972,8.039,15.93,16.091,23.917,24.115
		c55.277,55.536,110.543,111.083,165.848,166.592c32.373,32.493,64.775,64.957,97.241,97.357
		C577.155,290.368,587.401,300.083,597.53,309.915z"/>
	<path d="M-1.285,532.82c0-2.796,0-5.593,0-8.389c1.492,1.299,3.064,2.518,4.465,3.91c47.806,47.472,95.683,94.872,143.365,142.468
		c55.052,54.953,109.947,110.064,164.856,165.16c4.177,4.191,7.925,8.812,11.872,13.232c-2.794,0-5.589,0-8.383,0
		c-8.241-8.1-16.571-16.111-24.709-24.313c-54.909-55.34-109.727-110.77-164.676-166.07
		c-35.707-35.936-71.563-71.724-107.409-107.521C11.781,544.991,5.183,538.971-1.285,532.82z"/>
	<path d="M288.542-7.665c2.794,0,5.589,0,8.383,0c57.695,57.913,115.378,115.838,173.091,173.732
		c26.184,26.266,52.397,52.503,78.657,78.693c16.227,16.184,32.568,32.255,48.858,48.376c0,3.196,0,6.392,0,9.587
		c-1.034-0.932-2.113-1.82-3.096-2.803c-44.454-44.428-88.914-88.85-133.343-133.302C409.742,115.243,358.394,63.867,307.122,12.415
		C300.69,5.96,294.724-0.96,288.542-7.665z"/>
	<path d="M-1.285,549.597c0-2.796,0-5.593,0-8.389c12.315,12.22,24.639,24.43,36.945,36.66
		c45.813,45.533,91.656,91.037,137.417,136.623c28.823,28.713,57.586,57.487,86.248,86.36
		c15.863,15.981,31.463,32.224,47.181,48.349c-3.194,0-6.387,0-9.581,0c-0.723-0.935-1.356-1.96-2.183-2.792
		c-56.057-56.439-112.117-112.876-168.207-169.282c-27.693-27.849-55.407-55.678-83.188-83.438
		C28.555,578.906,13.598,564.289-1.285,549.597z"/>
	<path d="M305.309-7.665c3.194,0,6.387,0,9.581,0c1.485,1.821,2.824,3.788,4.476,5.442
		c86.795,86.895,173.608,173.773,260.458,260.613c5.747,5.746,11.797,11.188,17.707,16.771c0,3.196,0,6.392,0,9.587
		c-10.408-10.11-20.952-20.084-31.203-30.351c-68.086-68.186-136.123-136.42-204.145-204.671
		C343.17,30.65,324.264,11.468,305.309-7.665z"/>
	<path fill="#FFFFFF" d="M358.004,849.201c-0.935-1.243-1.74-2.616-2.825-3.709c-60.655-61.122-121.347-122.208-181.999-183.334
		c-12.779-12.879-25.216-26.102-38.161-38.809c-28.626-28.099-57.535-55.909-86.209-83.959
		c-16.816-16.45-33.404-33.134-50.095-49.713c0-3.196,0-6.392,0-9.587c42.656,42.548,85.525,84.885,127.914,127.697
		c54.542,55.086,108.554,110.697,163.093,165.786c23.295,23.53,47.35,46.306,71.031,69.454c1.989,1.944,3.761,4.111,5.634,6.174
		C363.593,849.201,360.799,849.201,358.004,849.201z"/>
	<path fill="#FFFFFF" d="M323.273,849.201c-3.947-4.421-7.695-9.041-11.872-13.232c-54.909-55.096-109.803-110.208-164.856-165.16
		C98.863,623.213,50.986,575.812,3.181,528.34c-1.401-1.391-2.973-2.61-4.465-3.91c0-3.196,0-6.392,0-9.587
		c16.555,16.431,33.144,32.828,49.657,49.301c26.407,26.343,52.878,52.623,79.119,79.131
		c54.977,55.536,109.78,111.246,164.758,166.781c11.362,11.477,23.196,22.486,34.763,33.761c1.691,1.648,3.103,3.582,4.644,5.383
		C328.862,849.201,326.068,849.201,323.273,849.201z"/>
	<path d="M323.273-7.665c2.794,0,5.589,0,8.383,0c1.42,1.64,2.745,3.375,4.274,4.906c72.425,72.524,144.848,145.049,217.324,217.521
		c14.65,14.649,29.512,29.086,44.276,43.621c0,3.196,0,6.392,0,9.587c-1.332-1.197-2.725-2.334-3.989-3.599
		C506.924,177.675,420.308,90.979,333.74,4.233C330.016,0.502,326.752-3.689,323.273-7.665z"/>
	<path fill="#FFFFFF" d="M374.771,849.201c-1.501-2.018-2.792-4.242-4.534-6.025c-30.668-31.384-61.207-62.898-92.146-94.013
		c-43.475-43.722-87.258-87.138-130.904-130.69c-1.836-1.832-3.573-3.763-5.432-5.571c-25.696-24.99-51.51-49.86-77.078-74.981
		c-20.206-19.853-40.102-40.021-60.17-60.015c-1.803-1.797-3.855-3.344-5.791-5.008c0-3.196,0-6.392,0-9.587
		c13.217,12.996,26.501,25.925,39.637,39.002c29.417,29.284,59.887,57.61,87.873,88.208
		c42.924,46.931,89.214,90.448,133.725,135.755c33.267,33.862,67.553,66.722,101.298,100.117
		c7.49,7.412,14.614,15.195,21.906,22.807C380.36,849.201,377.566,849.201,374.771,849.201z"/>
	<path fill="#FFFFFF" d="M184.348-7.665c22.044,22.264,44.125,44.492,66.126,66.799c52.967,53.704,105.881,107.46,158.85,161.162
		c17.653,17.897,34.485,36.741,53.302,53.323c40.762,35.921,76.891,76.467,116.069,113.941c6.314,6.039,12.558,12.151,18.835,18.229
		c0,2.796,0,5.593,0,8.389c-32.462-32.366-64.917-64.739-97.391-97.093c-8.475-8.444-17.545-16.357-25.429-25.317
		c-35.121-39.916-73.852-76.29-111.305-113.9c-42.481-42.66-85.925-84.358-128.801-126.625
		C214.875,31.791,195.5,11.981,175.965-7.665C178.759-7.665,181.554-7.665,184.348-7.665z"/>
	<path fill="#FFFFFF" d="M341.238,849.201c-24.566-25.074-48.994-50.286-73.729-75.193c-43.3-43.599-86.675-87.125-130.228-130.471
		C92.65,599.121,47.773,554.953,2.972,510.71c-1.228-1.213-2.829-2.046-4.256-3.057c0-3.196,0-6.392,0-9.587
		c7.162,6.87,14.444,13.62,21.467,20.629c35.159,35.09,70.391,70.108,105.331,105.415c48.214,48.72,96.068,97.796,144.319,146.478
		c24.145,24.361,48.839,48.177,73.241,72.283c1.957,1.934,3.575,4.212,5.35,6.33C346.028,849.201,343.633,849.201,341.238,849.201z"
		/>
	<path d="M-1.285,566.375c0-2.397,0-4.794,0-7.19c1.669,1.354,3.474,2.572,4.988,4.082
		c66.485,66.348,132.961,132.705,199.399,199.099c28.922,28.902,57.761,57.888,86.637,86.835c-3.194,0-6.387,0-9.581,0
		c-0.97-1.234-1.826-2.582-2.927-3.685C184.405,752.457,91.56,659.417-1.285,566.375z"/>
	<path fill="#FFFFFF" d="M219.079-7.665c14.692,14.907,29.368,29.83,44.08,44.717c66.303,67.091,132.49,134.297,198.99,201.191
		c25.068,25.217,50.972,49.601,76.301,74.563c18.035,17.774,35.729,35.893,53.622,53.811c1.645,1.647,3.631,2.952,5.459,4.416
		c0,2.796,0,5.593,0,8.389c-13.916-13.712-27.895-27.361-41.736-41.149c-28.834-28.724-57.731-57.387-86.356-86.318
		c-57.47-58.083-114.615-116.488-172.219-174.437c-26.995-27.156-54.749-53.556-82.138-80.32c-1.558-1.523-2.928-3.238-4.386-4.864
		C213.49-7.665,216.285-7.665,219.079-7.665z"/>
	<path fill="#FFFFFF" d="M409.502,849.201c-5.348-5.807-10.565-11.741-16.064-17.401c-31.958-32.891-63.774-65.922-96.036-98.512
		c-40.124-40.532-80.639-80.676-120.974-121c-11.7-11.697-22.547-24.412-35.206-34.952c-28.628-23.835-53.4-51.547-80.034-77.373
		c-19.469-18.879-38.398-38.316-57.59-57.482c-1.538-1.536-3.251-2.896-4.883-4.337c0-3.196,0-6.392,0-9.587
		c18.697,18.542,37.413,37.064,56.085,55.63c24.064,23.927,49.764,46.466,71.678,72.227c23.032,27.076,49.126,50.879,73.711,76.253
		c37.768,38.982,76.504,77.031,115.077,115.224c32.758,32.434,65.873,64.507,98.803,96.766c1.406,1.377,2.549,3.023,3.815,4.543
		C415.091,849.201,412.297,849.201,409.502,849.201z"/>
	<path fill="#FFFFFF" d="M289.74,849.201c-28.877-28.948-57.716-57.933-86.637-86.835C136.664,695.971,70.188,629.614,3.703,563.267
		c-1.513-1.51-3.319-2.728-4.988-4.082c0-3.196,0-6.392,0-9.587c14.883,14.691,29.84,29.309,44.632,44.09
		c27.781,27.761,55.495,55.59,83.188,83.438c56.09,56.406,112.15,112.843,168.207,169.282c0.827,0.832,1.46,1.857,2.183,2.792
		C294.53,849.201,292.135,849.201,289.74,849.201z"/>
	<path fill="#FFFFFF" d="M305.309-7.665c18.955,19.133,37.861,38.315,56.874,57.392c68.022,68.25,136.059,136.485,204.145,204.671
		c10.252,10.267,20.795,20.241,31.203,30.351c0,2.796,0,5.593,0,8.389c-16.29-16.122-32.63-32.192-48.858-48.376
		c-26.26-26.19-52.473-52.427-78.657-78.693C412.303,108.173,354.62,50.247,296.925-7.665C299.72-7.665,302.514-7.665,305.309-7.665
		z"/>
	<path fill="#FFFFFF" d="M202.313-7.665c2.173,2.523,4.218,5.172,6.54,7.549c26.764,27.402,53.416,54.917,80.399,82.103
		c50.434,50.814,101.072,101.426,151.606,152.141c5.49,5.51,10.742,11.258,16.288,16.708
		c33.886,33.297,67.846,66.518,101.734,99.813c12.948,12.721,25.771,25.57,38.651,38.361c0,2.397,0,4.794,0,7.19
		c-7.867-7.577-15.841-15.046-23.583-22.749c-34.797-34.619-70.551-68.348-104.01-104.219
		c-37.524-40.23-76.987-78.466-115.727-117.442c-36.423-36.645-73.68-72.459-110.475-108.736
		c-16.055-15.829-31.878-31.893-47.778-47.878c-0.81-0.814-1.358-1.888-2.028-2.841C196.724-7.665,199.518-7.665,202.313-7.665z"/>
	<path fill="#FFFFFF" d="M270.577-7.665c38.846,39.3,77.658,78.634,116.55,117.889c24.295,24.522,48.634,49.001,73.085,73.367
		c44.787,44.63,89.67,89.164,134.528,133.723c0.833,0.828,1.856,1.463,2.791,2.188c0,2.796,0,5.593,0,8.389
		C485.752,216.039,373.973,104.187,262.194-7.665C264.988-7.665,267.783-7.665,270.577-7.665z"/>
	<path fill="#FFFFFF" d="M167.581-7.665c12.278,12.51,24.622,24.956,36.82,37.544c31.779,32.797,63.246,65.901,95.301,98.426
		c36.545,37.081,73.611,73.647,110.411,110.476c17.475,17.489,33.705,36.442,52.544,52.298
		c31.636,26.628,58.295,58.134,88.288,86.319c14.674,13.79,28.505,28.476,42.771,42.703c1.049,1.046,2.533,1.653,3.815,2.465
		c0,2.796,0,5.593,0,8.389c-11.832-11.557-23.756-23.022-35.478-34.691c-28.569-28.437-58.056-56.04-85.271-85.725
		c-27.037-29.49-55.771-57.225-83.628-85.854c-31.73-32.61-63.852-64.847-96.231-96.812
		C252.335,83.856,207.343,40.249,162.548-3.558c-1.255-1.227-2.239-2.732-3.35-4.107C161.992-7.665,164.787-7.665,167.581-7.665z"/>
	<path fill="#FFFFFF" d="M253.811-7.665c11.564,12.082,22.937,24.355,34.724,36.215c54.872,55.21,109.79,110.375,164.824,165.423
		c46.535,46.546,93.247,92.913,139.916,139.324c1.211,1.204,2.828,1.998,4.256,2.983c0,2.796,0,5.593,0,8.389
		c-14.063-13.816-28.2-27.558-42.173-41.464c-27.708-27.576-55.418-55.152-82.962-82.892
		C414.663,162.169,357.1,103.859,299.33,45.754c-16.307-16.401-33.1-32.318-49.637-48.492c-1.548-1.514-2.85-3.279-4.266-4.927
		C248.222-7.665,251.016-7.665,253.811-7.665z"/>
	<path fill="#FFFFFF" d="M392.736,849.201c-10.606-10.818-21.174-21.673-31.823-32.448
		c-75.041-75.936-148.918-153.076-225.597-227.319C89.818,545.381,45.805,499.868,0.121,456.036
		c-0.429-0.412-0.935-0.744-1.406-1.114c0-2.796,0-5.593,0-8.389c7.9,7.554,15.931,14.975,23.676,22.684
		c34.801,34.635,70.782,68.197,103.858,104.414c25.115,27.501,51.651,53.466,77.841,79.804
		c51.358,51.647,103.488,102.524,155.244,153.775c14.03,13.894,27.862,27.988,41.785,41.99
		C398.325,849.201,395.53,849.201,392.736,849.201z"/>
	<path fill="#FFFFFF" d="M306.506,849.201c-15.718-16.125-31.318-32.368-47.181-48.349c-28.662-28.874-57.425-57.648-86.248-86.36
		c-45.761-45.586-91.604-91.09-137.417-136.623c-12.305-12.23-24.629-24.441-36.945-36.66c0-2.796,0-5.593,0-8.389
		c6.467,6.151,13.066,12.171,19.38,18.476c35.847,35.797,71.702,71.586,107.409,107.521c54.949,55.3,109.767,110.73,164.676,166.07
		c8.138,8.202,16.468,16.214,24.709,24.313C312.095,849.201,309.301,849.201,306.506,849.201z"/>
	<path fill="#FFFFFF" d="M235.846-7.665c15.677,15.927,31.295,31.911,47.04,47.771c57.514,57.933,114.942,115.952,172.65,173.69
		c45.943,45.967,92.246,91.573,138.401,137.327c1.126,1.116,2.392,2.091,3.593,3.133c0,2.796,0,5.593,0,8.389
		c-28.185-28.238-56.341-56.506-84.567-84.703c-14.254-14.239-28.762-28.225-42.935-42.543
		c-57.206-57.792-114.235-115.759-171.527-173.466c-21.218-21.371-42.994-42.188-64.471-63.303c-1.959-1.926-3.588-4.188-5.37-6.295
		C231.056-7.665,233.451-7.665,235.846-7.665z"/>
	<path fill="#FFFFFF" d="M-1.285,566.375c92.844,93.041,185.69,186.081,278.516,279.14c1.101,1.103,1.957,2.451,2.927,3.685
		c-2.794,0-5.589,0-8.383,0c-10.994-11.244-21.883-22.593-32.999-33.714C180.282,756.966,121.747,698.487,63.19,640.03
		c-21.442-21.406-42.98-42.714-64.475-64.067C-1.285,572.767-1.285,569.571-1.285,566.375z"/>
	<path fill="#FFFFFF" d="M288.542-7.665c6.182,6.705,12.148,13.625,18.58,20.08c51.272,51.452,102.62,102.828,153.969,154.204
		c44.429,44.452,88.889,88.875,133.343,133.302c0.984,0.983,2.062,1.871,3.096,2.803c0,2.397,0,4.794,0,7.19
		c-10.129-9.832-20.375-19.546-30.367-29.517c-32.466-32.4-64.868-64.864-97.241-97.357
		C414.619,127.533,359.353,71.986,304.075,16.45c-7.987-8.024-15.945-16.076-23.917-24.115
		C282.953-7.665,285.747-7.665,288.542-7.665z"/>
	<path fill="#FFFFFF" d="M-1.285,593.939c0-3.196,0-6.392,0-9.587c1.372,1.108,2.862,2.099,4.101,3.341
		c79.541,79.784,159.077,159.573,238.557,239.419c7.136,7.169,13.89,14.718,20.821,22.09c-2.794,0-5.589,0-8.383,0
		c-0.931-1.427-1.646-3.069-2.825-4.249C172.023,765.881,93.035,686.835,13.994,607.841C9.129,602.979,3.819,598.563-1.285,593.939z
		"/>
	<path d="M356.807-7.665c3.194,0,6.387,0,9.581,0c1.959,2.221,3.804,4.556,5.893,6.648
		c65.37,65.484,130.745,130.962,196.172,196.387c9.556,9.556,19.379,18.846,29.078,28.259c0,3.196,0,6.392,0,9.587
		c-1.487-1.307-3.054-2.535-4.45-3.933C531.302,167.447,469.524,105.61,407.781,43.739C390.735,26.659,373.795,9.472,356.807-7.665z
		"/>
	<path d="M262.194,849.201c-6.931-7.372-13.686-14.921-20.821-22.09C161.893,747.265,82.357,667.477,2.816,587.692
		c-1.238-1.242-2.728-2.233-4.101-3.341c0-2.796,0-5.593,0-8.389c21.494,21.353,43.033,42.661,64.475,64.067
		c58.556,58.458,117.092,116.937,175.586,175.457c11.116,11.121,22.005,22.47,32.999,33.714
		C268.581,849.201,265.388,849.201,262.194,849.201z"/>
	<path d="M-1.285,593.939c5.103,4.624,10.413,9.04,15.279,13.903c79.041,78.993,158.029,158.04,236.992,237.111
		c1.178,1.18,1.893,2.822,2.825,4.249c-2.794,0-5.589,0-8.383,0c-1.405-1.658-2.701-3.424-4.23-4.958
		c-57.718-57.914-115.454-115.81-173.195-173.701c-23.087-23.147-46.191-46.276-69.287-69.413
		C-1.285,598.732-1.285,596.336-1.285,593.939z"/>
	<path fill="#FFFFFF" d="M597.53,258.383c-14.764-14.535-29.626-28.972-44.276-43.621C480.778,142.29,408.355,69.765,335.93-2.759
		c-1.529-1.531-2.854-3.266-4.274-4.906c2.794,0,5.589,0,8.383,0c7.862,8.119,15.625,16.337,23.602,24.341
		c74.702,74.959,149.433,149.888,224.194,224.787c3.035,3.04,6.454,5.696,9.694,8.531C597.53,252.79,597.53,255.586,597.53,258.383z
		"/>
	<path d="M597.53,249.994c-3.24-2.835-6.659-5.491-9.694-8.531C513.075,166.564,438.344,91.634,363.642,16.676
		c-7.977-8.004-15.74-16.222-23.602-24.341c2.794,0,5.589,0,8.383,0c37.931,37.946,75.867,75.887,113.793,113.838
		c45.109,45.139,90.21,90.288,135.314,135.432C597.53,244.401,597.53,247.198,597.53,249.994z"/>
	<path fill="#FFFFFF" d="M-1.285,601.129c23.096,23.137,46.2,46.266,69.287,69.413c57.741,57.891,115.477,115.786,173.195,173.701
		c1.529,1.534,2.825,3.3,4.23,4.958c-2.794,0-5.589,0-8.383,0c-0.756-1.124-1.35-2.409-2.291-3.347
		c-17.213-17.189-34.494-34.31-51.707-51.499c-49.391-49.32-98.741-98.68-148.146-147.986
		c-11.985-11.961-24.119-23.772-36.184-35.653C-1.285,607.521-1.285,604.325-1.285,601.129z"/>
	<path fill="#FFFFFF" d="M323.273-7.665c3.479,3.977,6.743,8.167,10.467,11.898c86.567,86.746,173.184,173.442,259.801,260.138
		c1.264,1.265,2.656,2.402,3.989,3.599c0,2.397,0,4.794,0,7.19c-5.909-5.583-11.96-11.025-17.707-16.771
		C492.974,171.549,406.161,84.672,319.366-2.223c-1.652-1.654-2.991-3.621-4.476-5.442C317.684-7.665,320.479-7.665,323.273-7.665z"
		/>
	<path d="M374.771-7.665c2.794,0,5.589,0,8.383,0c25.882,25.995,51.746,52.01,77.653,77.981
		c27.74,27.809,55.504,55.595,83.292,83.355c17.777,17.76,35.618,35.455,53.431,53.18c0,3.196,0,6.392,0,9.587
		c-0.618-0.503-1.288-0.955-1.848-1.516C527.39,146.534,459.09,78.153,390.85,9.713C385.282,4.128,380.121-1.863,374.771-7.665z"/>
	<path fill="#FFFFFF" d="M597.53,241.605c-45.104-45.144-90.205-90.293-135.314-135.432C424.291,68.221,386.355,30.28,348.423-7.665
		c2.794,0,5.589,0,8.383,0c16.988,17.138,33.929,34.324,50.974,51.404c61.744,61.871,123.521,123.708,185.299,185.544
		c1.397,1.398,2.963,2.626,4.45,3.933C597.53,236.012,597.53,238.809,597.53,241.605z"/>
	<path d="M-1.285,610.716c12.065,11.88,24.199,23.692,36.184,35.653c49.405,49.306,98.755,98.666,148.146,147.986
		c17.213,17.189,34.495,34.309,51.707,51.499c0.94,0.939,1.535,2.224,2.291,3.347c-2.794,0-5.589,0-8.383,0
		c-6.936-7.142-13.793-14.364-20.822-21.413C146.86,766.637,85.869,705.501,24.831,644.41c-8.566-8.574-17.404-16.876-26.115-25.304
		C-1.285,616.309-1.285,613.513-1.285,610.716z"/>
	<path fill="#FFFFFF" d="M210.696,849.201c-2.794,0-5.589,0-8.383,0c-0.699-1.132-1.208-2.454-2.123-3.369
		C142.48,788.148,84.756,730.479,26.978,672.864c-9.29-9.263-18.836-18.269-28.263-27.394c0-3.196,0-6.391,0-9.587
		c1.343,1.174,2.763,2.273,4.019,3.534c65.436,65.697,130.866,131.4,196.262,197.137
		C203.044,840.623,206.803,844.979,210.696,849.201z"/>
	<path d="M597.53,188.875c0,3.196,0,6.392,0,9.587c-1.511-1.255-3.135-2.397-4.518-3.78
		C539.824,141.461,486.637,88.24,433.504,34.964c-14.08-14.118-27.982-28.415-41.966-42.63c3.194,0,6.387,0,9.581,0
		c1.245,1.512,2.375,3.14,3.752,4.52c54.226,54.32,108.454,108.638,162.74,162.898C577.454,169.59,587.551,179.174,597.53,188.875z"
		/>
	<path fill="#FFFFFF" d="M-1.285,619.105c8.712,8.428,17.549,16.731,26.115,25.304c61.038,61.091,122.029,122.228,183.008,183.378
		c7.029,7.049,13.885,14.271,20.822,21.413c-2.794,0-5.589,0-8.383,0c-1.18-1.342-2.29-2.754-3.55-4.015
		c-45.957-45.986-91.908-91.979-137.906-137.924c-26.661-26.63-53.401-53.181-80.105-79.767
		C-1.285,624.698-1.285,621.902-1.285,619.105z"/>
	<path d="M-1.285,627.494c26.704,26.586,53.444,53.137,80.105,79.767c45.998,45.945,91.949,91.938,137.906,137.924
		c1.261,1.261,2.37,2.674,3.55,4.015c-3.194,0-6.387,0-9.581,0c-3.893-4.222-7.652-8.578-11.7-12.646
		C133.601,770.817,68.171,705.115,2.735,639.418c-1.256-1.261-2.676-2.36-4.019-3.534C-1.285,633.087-1.285,630.291-1.285,627.494z"
		/>
	<path d="M597.53,172.097c0,3.196,0,6.392,0,9.587c-1.057-0.905-2.18-1.742-3.16-2.723
		c-38.712-38.765-77.424-77.532-116.107-116.326c-23.343-23.41-46.64-46.866-69.958-70.301c3.194,0,6.387,0,9.581,0
		c0.999,1.222,1.9,2.541,3.01,3.652c42.988,43.031,85.968,86.068,129.012,129.043C565.702,140.799,581.652,156.412,597.53,172.097z"
		/>
	<path fill="#FFFFFF" d="M391.538-7.665c13.984,14.215,27.886,28.511,41.966,42.63c53.132,53.276,106.32,106.497,159.508,159.718
		c1.383,1.383,3.007,2.525,4.518,3.78c0,2.796,0,5.593,0,8.389c-17.813-17.724-35.654-35.42-53.431-53.18
		c-27.788-27.761-55.552-55.547-83.292-83.355C434.9,44.345,409.037,18.33,383.155-7.665C385.949-7.665,388.744-7.665,391.538-7.665
		z"/>
	<path fill="#FFFFFF" d="M374.771-7.665c5.35,5.802,10.511,11.794,16.079,17.378c68.24,68.44,136.54,136.821,204.833,205.21
		c0.56,0.561,1.229,1.013,1.848,1.516c0,2.397,0,4.794,0,7.19c-9.699-9.413-19.521-18.703-29.078-28.259
		C503.025,129.944,437.65,64.466,372.28-1.017c-2.088-2.092-3.934-4.426-5.893-6.648C369.182-7.665,371.977-7.665,374.771-7.665z"/>
	<path d="M-1.285,645.471c9.427,9.125,18.973,18.13,28.263,27.394c57.778,57.615,115.501,115.284,173.211,172.968
		c0.915,0.915,1.425,2.237,2.123,3.369c-2.794,0-5.589,0-8.383,0c-1.13-1.372-2.156-2.849-3.406-4.102
		c-53.521-53.65-107.038-107.305-160.621-160.893C19.647,673.95,9.118,663.968-1.285,653.859
		C-1.285,651.063-1.285,648.267-1.285,645.471z"/>
	<path fill="#FFFFFF" d="M-1.285-2.872c17.719,17.537,35.641,34.874,53.121,52.646c60.174,61.177,120.195,122.505,180.264,183.785
		c1.035,1.056,1.947,2.233,2.172,4.066c-9.672-9.35-19.411-18.631-29.005-28.06C158.157,163.268,111.04,116.977,64.018,70.59
		C42.142,49.009,20.476,27.215-1.285,5.517C-1.285,2.721-1.285-0.075-1.285-2.872z"/>
	<path fill="#FFFFFF" d="M29.854-7.665C37.359,0.232,44.714,8.279,52.397,16c26.441,26.572,53.134,52.895,79.473,79.567
		c28.17,28.527,56.06,57.329,84.047,86.036c15.041,15.427,30.032,30.903,45.033,46.369c1.216,1.254,2.332,2.606,2.879,4.521
		c-7.042-6.848-14.131-13.649-21.118-20.552C170.321,140.421,97.945,68.887,25.59-2.669c-1.527-1.51-2.753-3.324-4.12-4.996
		C24.265-7.665,27.059-7.665,29.854-7.665z"/>
	<path fill="#FFFFFF" d="M-1.285,15.105c8.888,8.539,17.936,16.919,26.638,25.644c42.273,42.378,84.594,84.708,126.613,127.337
		c24.786,25.146,49.043,50.814,73.532,76.253c1.224,1.272,2.392,2.599,3.084,4.49c-1.528-1.358-3.12-2.65-4.574-4.083
		C150.448,172.186,76.901,99.612,3.326,27.066c-1.375-1.355-3.066-2.389-4.61-3.573C-1.285,20.697-1.285,17.901-1.285,15.105z"/>
	<path fill="#FFFFFF" d="M11.889-7.665C45.69,26.256,79.676,59.996,113.245,94.146c40.138,40.834,79.921,82.018,119.847,123.062
		c0.895,0.92,1.652,1.976,1.691,3.679c-7.126-6.774-14.368-13.43-21.359-20.341C144.887,132.796,76.392,65.007,7.899-2.786
		C6.346-4.323,4.966-6.035,3.506-7.665C6.3-7.665,9.095-7.665,11.889-7.665z"/>
	<path fill="#FFFFFF" d="M-1.285,653.859c10.403,10.109,20.931,20.091,31.187,30.347c53.584,53.588,107.1,107.242,160.621,160.893
		c1.25,1.253,2.275,2.73,3.406,4.102c-2.794,0-5.589,0-8.383,0c-1.291-1.5-2.49-3.091-3.885-4.487
		c-42.138-42.176-84.269-84.359-126.461-126.48c-18.761-18.729-37.652-37.328-56.484-55.985
		C-1.285,659.452-1.285,656.656-1.285,653.859z"/>
	<path fill="#FFFFFF" d="M-1.285,48.66c36.57,36.528,73.396,72.804,109.637,109.656c35.113,35.706,69.625,72.005,104.398,108.046
		c1.179,1.222,2.325,2.477,3.486,3.716c-0.745,0.738-1.49,1.477-2.235,2.215c-6.57-7.457-12.743-15.316-19.787-22.294
		c-19.139-18.957-38.829-37.358-57.974-56.31C92.153,150.046,48.266,106.198,4.257,62.473c-1.634-1.623-3.685-2.826-5.542-4.225
		C-1.285,55.052-1.285,51.856-1.285,48.66z"/>
	<path d="M-1.285,662.248c18.832,18.658,37.723,37.256,56.484,55.985c42.192,42.121,84.323,84.304,126.461,126.48
		c1.395,1.396,2.595,2.987,3.885,4.487c-3.194,0-6.387,0-9.581,0c-1.165-1.57-2.157-3.312-3.521-4.685
		c-40.329-40.59-80.657-81.18-121.071-121.685c-17.455-17.495-35.099-34.802-52.657-52.194
		C-1.285,667.841-1.285,665.045-1.285,662.248z"/>
	<path d="M426.269-7.665c3.194,0,6.387,0,9.581,0c0.917,1.261,1.685,2.672,2.773,3.763c27.608,27.674,55.264,55.301,82.882,82.965
		c25.359,25.401,50.685,50.837,76.025,76.257c0,2.796,0,5.593,0,8.389c-1.557-1.166-3.284-2.161-4.645-3.524
		c-44.477-44.546-88.944-89.101-133.347-133.721C448.333,15.203,437.353,3.717,426.269-7.665z"/>
	<path fill="#FFFFFF" d="M-1.285,670.637c17.558,17.392,35.202,34.699,52.657,52.194c40.414,40.505,80.742,81.095,121.071,121.685
		c1.364,1.373,2.356,3.115,3.521,4.685c-2.794,0-5.589,0-8.383,0c-1.342-1.853-2.462-3.929-4.059-5.528
		c-49.811-49.876-99.651-99.724-149.55-149.511c-4.872-4.861-10.161-9.302-15.257-13.938
		C-1.285,677.029-1.285,673.833-1.285,670.637z"/>
	<path fill="#FFFFFF" d="M46.621-7.665c19.383,19.543,38.833,39.019,58.134,58.643c38.327,38.97,76.593,78.001,114.838,117.052
		c11.43,11.671,22.71,23.489,33.19,36.235c-2.94-2.677-5.977-5.255-8.805-8.045C176.657,129.791,109.355,63.343,42.071-3.123
		c-1.404-1.387-2.561-3.023-3.834-4.542C41.032-7.665,43.826-7.665,46.621-7.665z"/>
	<path fill="#FFFFFF" d="M-1.285,31.882c8.86,8.6,17.898,17.024,26.551,25.828c59.034,60.064,117.989,120.207,176.955,180.338
		c1.167,1.19,2.164,2.548,2.418,4.628c-4.969-4.726-10.015-9.375-14.895-14.19C127.525,167.096,65.33,105.68,3.119,44.281
		c-1.412-1.393-2.934-2.675-4.404-4.009C-1.285,37.475-1.285,34.679-1.285,31.882z"/>
	<path fill="#FFFFFF" d="M64.585-7.665c1.101,1.573,1.998,3.349,3.332,4.691c42.756,43.014,85.702,85.841,128.29,129.021
		c25.34,25.692,50.13,51.928,74.818,78.269C197.237,135.47,126.154,63.868,55.004-7.665C58.198-7.665,61.391-7.665,64.585-7.665z"/>
	<path d="M-1.285,680.225c5.096,4.636,10.385,9.077,15.257,13.938c49.9,49.787,99.739,99.635,149.55,149.511
		c1.597,1.599,2.717,3.674,4.059,5.528c-2.794,0-5.589,0-8.383,0c-1.106-1.383-2.092-2.885-3.334-4.131
		c-48.568-48.728-97.148-97.445-145.773-146.117c-3.617-3.621-7.576-6.901-11.376-10.339
		C-1.285,685.817-1.285,683.021-1.285,680.225z"/>
	<path fill="#FFFFFF" d="M426.269-7.665c11.084,11.382,22.064,22.868,33.27,34.129c44.402,44.62,88.87,89.175,133.347,133.721
		c1.36,1.362,3.088,2.357,4.645,3.524c0,2.796,0,5.593,0,8.389c-15.879-15.684-31.828-31.298-47.623-47.067
		C506.864,82.055,463.883,39.018,420.896-4.013c-1.11-1.111-2.011-2.43-3.01-3.652C420.68-7.665,423.475-7.665,426.269-7.665z"/>
	<path fill="#FFFFFF" d="M-1.285,83.414c16.181,15.971,32.423,31.882,48.53,47.928c26.018,25.919,52.249,51.634,77.825,77.984
		c22.879,23.571,44.994,47.884,67.038,72.357c-6.265-5.969-12.583-11.883-18.784-17.917c-13.017-12.665-26.027-25.338-38.945-38.103
		C90.323,182.131,46.309,138.557,2.27,95.008c-1.133-1.121-2.368-2.139-3.555-3.205C-1.285,89.007-1.285,86.211-1.285,83.414z"/>
	<path fill="#FFFFFF" d="M597.53,828.828c-34.289-34.28-68.775-68.365-102.811-102.893c-35.572-36.085-70.712-72.596-106.03-108.932
		c-0.473-0.487-0.8-1.115-0.433-2.357c10.129,9.752,20.376,19.384,30.368,29.275c59.009,58.416,117.958,116.893,176.945,175.331
		c0.528,0.523,1.302,0.796,1.962,1.186C597.53,823.235,597.53,826.032,597.53,828.828z"/>
	<path fill="#FFFFFF" d="M565.194,849.201c-11.565-11.809-23.045-23.701-34.71-35.411c-30.835-30.954-61.944-61.638-92.571-92.796
		c-23.49-23.897-46.416-48.35-69.585-72.564c-0.957-1.001-1.832-2.08-2.424-3.442c71.262,65.998,139.18,135.399,207.673,204.212
		C570.783,849.201,567.989,849.201,565.194,849.201z"/>
	<path d="M443.036-7.665c3.194,0,6.387,0,9.581,0c1.959,2.235,3.799,4.588,5.895,6.686c35.932,35.972,71.87,71.939,107.868,107.845
		c10.284,10.258,20.762,20.323,31.151,30.477c0,3.196,0,6.392,0,9.587c-2.045-1.884-4.16-3.697-6.125-5.661
		c-29.141-29.145-58.288-58.285-87.38-87.479C483.654,33.347,463.363,12.823,443.036-7.665z"/>
	<path fill="#FFFFFF" d="M597.53,845.606c-10.822-10.585-21.745-21.067-32.446-31.773c-38.091-38.108-76.256-76.144-114.093-114.503
		c-22.415-22.724-44.268-46.002-66.371-69.033c-0.818-0.852-1.616-1.725-1.679-3.473c1.413,1.245,2.892,2.422,4.228,3.743
		c68.387,67.634,136.761,135.281,205.144,202.919c1.7,1.682,3.477,3.287,5.217,4.928C597.53,840.812,597.53,843.209,597.53,845.606z
		"/>
	<path fill="#FFFFFF" d="M581.961,849.201c-1.242-1.701-2.285-3.599-3.753-5.074c-46.899-47.111-93.988-94.034-140.716-141.314
		c-26.367-26.679-52.155-53.931-78.187-80.941c-1.174-1.218-2.184-2.595-2.871-4.227c25.05,24.289,50.309,48.367,75.107,72.91
		C483.6,742.079,535.419,793.846,587.32,845.532c1.118,1.113,2.021,2.441,3.025,3.669
		C587.55,849.201,584.756,849.201,581.961,849.201z"/>
	<path fill="#FFFFFF" d="M-1.285,100.192c61.497,61.708,123.717,122.711,182.05,187.545c-8.706-8.337-17.461-16.622-26.102-25.026
		c-6.717-6.534-12.972-13.577-19.98-19.773c-46.87-41.44-88.666-88.031-133.58-131.451c-0.696-0.673-1.588-1.143-2.388-1.708
		C-1.285,106.584-1.285,103.388-1.285,100.192z"/>
	<path fill="#FFFFFF" d="M408.305-7.665c23.318,23.435,46.615,46.891,69.958,70.301c38.684,38.794,77.395,77.56,116.107,116.326
		c0.98,0.981,2.103,1.819,3.16,2.723c0,2.397,0,4.794,0,7.19c-9.979-9.701-20.076-19.285-29.919-29.123
		C513.325,105.493,459.097,51.174,404.871-3.146c-1.377-1.38-2.507-3.007-3.752-4.52C403.514-7.665,405.91-7.665,408.305-7.665z"/>
	<path fill="#FFFFFF" d="M81.352-7.665c13.542,13.779,27.064,27.579,40.631,41.334c34.327,34.802,68.754,69.504,102.978,104.407
		c16.738,17.07,33.112,34.499,48.694,52.778c-6.754-6.453-13.6-12.812-20.247-19.373C194.33,113.167,135.286,54.821,76.255-3.54
		c-1.241-1.227-2.198-2.743-3.287-4.125C75.763-7.665,78.557-7.665,81.352-7.665z"/>
	<path fill="#FFFFFF" d="M-1.285,66.636C9.13,76.743,19.658,86.736,29.939,96.977c30.946,30.827,62.017,61.534,92.612,92.707
		c22.888,23.32,45.116,47.287,67.626,70.977c0.384,0.404,0.612,0.958,0.278,2.122c-5.684-5.288-11.451-10.49-17.035-15.882
		c-13.34-12.883-26.684-25.764-39.865-38.809C89.788,164.776,46.095,121.384,2.357,78.039c-1.115-1.105-2.424-2.013-3.642-3.014
		C-1.285,72.229-1.285,69.433-1.285,66.636z"/>
	<path fill="#FFFFFF" d="M-1.285,134.946c27.397,27.279,54.789,54.564,82.194,81.836c13.702,13.635,27.799,26.896,41.054,40.954
		c17.949,19.037,35.261,38.676,54.091,59.429c-2.766-2.47-4.309-3.728-5.717-5.124c-12.182-12.075-23.212-25.664-36.757-35.933
		c-23.015-17.45-41.035-39.755-61.756-59.384c-20.987-19.882-40.964-40.829-61.433-61.26c-3.771-3.764-7.778-7.292-11.676-10.929
		C-1.285,141.338-1.285,138.142-1.285,134.946z"/>
	<path fill="#FFFFFF" d="M597.53,794.074c-19.816-19.682-39.649-39.347-59.443-59.052c-22.061-21.961-44.258-43.791-66.077-65.991
		c-19.009-19.341-37.583-39.109-56.318-58.719c-1.352-1.415-2.449-3.073-2.836-5.636c1.235,0.907,2.6,1.68,3.685,2.741
		c14.408,14.091,28.82,28.18,43.147,42.353c37.14,36.741,74.25,73.513,111.344,110.299c7.218,7.159,14.282,14.474,21.49,21.643
		c1.502,1.493,3.33,2.657,5.007,3.973C597.53,788.481,597.53,791.278,597.53,794.074z"/>
	<path fill="#FFFFFF" d="M-1.285,688.613c3.8,3.438,7.758,6.718,11.376,10.339c48.624,48.672,97.204,97.389,145.773,146.117
		c1.242,1.247,2.229,2.749,3.334,4.131c-2.794,0-5.589,0-8.383,0c-0.945-1.24-1.762-2.609-2.854-3.701
		c-38.074-38.079-76.151-76.156-114.286-114.175c-11.565-11.529-23.301-22.887-34.959-34.323
		C-1.285,694.206-1.285,691.41-1.285,688.613z"/>
	<path fill="#FFFFFF" d="M150.814-7.665c4.337,4.828,8.479,9.849,13.041,14.453c31.166,31.458,62.535,62.716,93.618,94.256
		c47.454,48.151,94.735,96.474,142.051,144.761c1.189,1.213,1.932,2.865,2.883,4.312c-11.094-10.848-22.205-21.679-33.28-32.547
		c-51.066-50.104-102.205-100.133-153.145-150.364c-25.11-24.76-49.844-49.902-74.748-74.871
		C144.427-7.665,147.621-7.665,150.814-7.665z"/>
	<path fill="#FFFFFF" d="M530.463,849.201c-8.501-8.893-16.891-17.896-25.523-26.661c-38.63-39.221-77.367-78.336-115.983-117.571
		c-14.265-14.494-28.3-29.214-41.681-44.729c3.325,3.045,6.751,5.988,9.961,9.151c55.148,54.33,110.28,108.677,165.378,163.057
		c5.533,5.46,10.826,11.163,16.231,16.753C536.052,849.201,533.258,849.201,530.463,849.201z"/>
	<path fill="#FFFFFF" d="M98.119-7.665c31.254,31.363,62.711,62.527,93.702,94.148c29.59,30.191,58.695,60.857,88.005,91.322
		c0.402,0.418,0.69,0.946,0.433,2.076c-6.266-5.83-12.682-11.508-18.774-17.514C205.107,106.78,148.783,51.136,92.456-4.503
		c-0.986-0.974-1.817-2.105-2.721-3.162C92.53-7.665,95.324-7.665,98.119-7.665z"/>
	<path fill="#FFFFFF" d="M597.53,810.852c-5.346-5.048-10.819-9.97-16.019-15.164c-37.996-37.953-76.165-75.737-113.822-114.025
		c-27.811-28.277-54.933-57.232-81.897-86.396c3.67,3.465,7.38,6.89,11.004,10.403c20.627,19.996,41.406,39.84,61.813,60.06
		c44.943,44.529,89.693,89.253,134.532,133.887c1.409,1.403,2.923,2.699,4.389,4.044C597.53,806.058,597.53,808.455,597.53,810.852z
		"/>
	<path fill="#FFFFFF" d="M597.53,759.32c-13.496-13.28-27.052-26.499-40.475-39.853c-28.868-28.72-57.833-57.346-86.436-86.329
		c-18.594-18.841-36.633-38.232-54.878-57.417c-1.306-1.373-2.263-3.079-2.56-5.436c1.121,0.865,2.349,1.622,3.346,2.612
		c14.161,14.061,28.25,28.196,42.436,42.232c44.617,44.144,89.262,88.26,133.929,132.353c1.358,1.34,3.084,2.308,4.638,3.449
		C597.53,753.727,597.53,756.524,597.53,759.32z"/>
	<path fill="#FFFFFF" d="M548.428,849.201c-26.456-26.591-53.072-53.025-79.333-79.808c-42.032-42.868-83.83-85.968-125.719-128.976
		c-0.413-0.424-0.736-0.937-0.546-1.991c9.239,8.988,18.538,17.916,27.708,26.973C430.43,724.558,490.3,783.741,550.151,842.943
		c1.963,1.942,3.648,4.166,5.462,6.258C553.218,849.201,550.823,849.201,548.428,849.201z"/>
	<path fill="#FFFFFF" d="M116.083-7.665c7.794,8.197,15.471,16.511,23.403,24.573c41.27,41.947,82.65,83.785,123.883,125.767
		c10.15,10.334,19.893,21.067,29.237,32.21c-11.084-10.46-22.375-20.711-33.216-31.417C209.845,94.545,160.422,45.497,110.98-3.531
		c-1.24-1.23-2.193-2.75-3.281-4.134C110.494-7.665,113.289-7.665,116.083-7.665z"/>
	<path fill="#FFFFFF" d="M-1.285,118.168c10.969,10.705,22.035,21.312,32.888,32.133c31.223,31.13,62.55,62.159,93.456,93.603
		c16.709,17,32.644,34.76,48.905,52.199c0.484,0.519,0.708,1.279,0.301,2.591c-6.337-6.159-12.707-12.284-19.002-18.485
		c-6.11-6.02-11.823-12.484-18.261-18.123C88.82,219.875,46.237,171.97,0.149,127.635c-0.428-0.411-0.954-0.721-1.434-1.077
		C-1.285,123.761-1.285,120.965-1.285,118.168z"/>
	<path fill="#FFFFFF" d="M-1.285,307.518c18.374,18.296,36.729,36.611,55.126,54.883c23.792,23.631,47.598,47.248,71.45,70.819
		c3.965,3.918,5.935,8.154,4.311,12.545c-18.911-18.332-38.087-36.653-56.958-55.283c-23.44-23.14-46.624-46.538-69.934-69.81
		c-1.261-1.259-2.66-2.381-3.995-3.567C-1.285,313.909-1.285,310.713-1.285,307.518z"/>
	<path fill="#FFFFFF" d="M134.09,534.702c-18.482-9.697-29.578-27.441-44.433-41.089c-15.125-13.897-29.208-28.927-43.782-43.426
		c-15.699-15.619-31.438-31.199-47.16-46.796c0-3.196,0-6.392,0-9.587c32.501,32.513,64.981,65.046,97.516,97.524
		c8.45,8.435,16.783,17.025,25.717,24.924C127.805,521.429,130.514,528.253,134.09,534.702z"/>
	<path fill="#FFFFFF" d="M-1.285,290.74c11.678,11.418,23.42,22.772,35.021,34.268c30.905,30.627,61.729,61.337,92.646,91.952
		c3.69,3.654,3.849,7.738,3.401,11.969c-8.214-7.718-16.33-14.966-24.024-22.637C71.422,372.054,37.211,337.69,2.919,303.407
		c-1.214-1.214-2.794-2.061-4.204-3.08C-1.285,297.131-1.285,293.936-1.285,290.74z"/>
	<path fill="#FFFFFF" d="M-1.285,377.026c10.972,10.721,22.027,21.359,32.9,32.179c31.693,31.538,63.376,63.087,94.857,94.835
		c2.859,2.883,4.241,7.232,6.308,10.9c-0.321,0.458-0.642,0.916-0.963,1.373c-2.452-1.421-5.356-2.392-7.291-4.331
		c-40.463-40.526-80.81-81.167-121.212-121.754c-1.366-1.372-3.059-2.417-4.599-3.615C-1.285,383.417-1.285,380.221-1.285,377.026z"
		/>
	<path fill="#FFFFFF" d="M-1.285,342.272c16.867,16.674,33.771,33.311,50.593,50.031c25.609,25.453,51.141,50.984,76.76,76.427
		c3.71,3.684,4.861,7.699,3.599,11.775c-17.627-17.088-35.359-33.996-52.773-51.226c-25.24-24.971-50.247-50.178-75.372-75.265
		c-0.828-0.827-1.867-1.442-2.807-2.156C-1.285,348.663-1.285,345.467-1.285,342.272z"/>
	<path fill="#FFFFFF" d="M-1.285,255.986c9.682,9.479,19.423,18.899,29.036,28.449c32.572,32.357,65.078,64.78,97.671,97.115
		c3.868,3.837,5.287,8.026,3.985,13.165c-7.401-7.095-14.661-13.812-21.653-20.798c-35.576-35.544-71.081-71.16-106.632-106.73
		c-0.67-0.67-1.599-1.081-2.408-1.613C-1.285,262.377-1.285,259.182-1.285,255.986z"/>
	<path fill="#FFFFFF" d="M-1.285,221.232c16.582,16.412,33.188,32.798,49.739,49.241c25.05,24.888,50.03,49.846,75.117,74.696
		c4.259,4.218,7.609,8.499,5.719,14.285c-9.988-9.533-20.207-18.934-30.033-28.729c-32.782-32.679-65.42-65.502-98.134-98.249
		c-0.677-0.678-1.6-1.109-2.408-1.656C-1.285,227.623-1.285,224.428-1.285,221.232z"/>
	<path fill="#FFFFFF" d="M597.53,742.542c-62.085-62.189-124.75-123.811-183.976-188.966c0.823,0.575,1.752,1.043,2.454,1.74
		c14.858,14.751,29.639,29.579,44.538,44.289c44.992,44.423,90.027,88.802,135.058,133.185c0.553,0.545,1.281,0.912,1.927,1.362
		C597.53,736.949,597.53,739.746,597.53,742.542z"/>
	<path d="M-1.285,697.002c11.658,11.436,23.394,22.793,34.959,34.323C71.81,769.343,109.886,807.421,147.96,845.5
		c1.092,1.093,1.909,2.461,2.854,3.701c-2.794,0-5.589,0-8.383,0c-0.758-0.915-1.448-1.897-2.283-2.735
		c-37.583-37.73-75.151-75.476-112.792-113.148c-9.424-9.432-19.087-18.624-28.641-27.927
		C-1.285,702.595-1.285,699.799-1.285,697.002z"/>
	<path fill="#FFFFFF" d="M-1.285,272.764c41.847,41.651,83.685,83.312,125.552,124.943c5.676,5.644,7.018,9.97,5.339,12.717
		c-18.088-17.27-36.738-34.691-54.952-52.557c-25.483-24.998-50.642-50.328-75.939-75.515
		C-1.285,279.155-1.285,275.959-1.285,272.764z"/>
	<path fill="#FFFFFF" d="M-1.285,186.478c36.659,36.698,73.303,73.412,109.995,110.078c5.5,5.496,11.483,10.53,16.727,16.251
		c2.411,2.63,3.757,6.329,5.154,9.721c0.286,0.693-1.357,2.182-1.237,2.004c-42.157-41.62-84.162-83.096-126.183-124.555
		c-1.405-1.386-2.967-2.612-4.456-3.912C-1.285,192.869-1.285,189.674-1.285,186.478z"/>
	<path d="M461.001-7.665c2.794,0,5.589,0,8.383,0c13.388,13.409,26.769,26.823,40.164,40.225
		c29.324,29.339,58.655,58.671,87.983,88.006c0,2.796,0,5.593,0,8.389c-1.42-0.961-3.04-1.721-4.231-2.911
		C554.528,87.307,515.772,48.556,477.093,9.728C471.522,4.136,466.355-1.858,461.001-7.665z"/>
	<path fill="#FFFFFF" d="M597.53,776.098c-9.999-9.696-20.106-19.285-29.978-29.109c-33.085-32.927-66.322-65.707-99.037-99
		c-21.909-22.296-43.031-45.366-63.907-68.722c10.252,9.904,20.593,19.716,30.74,29.727
		c50.933,50.251,101.813,100.556,152.722,150.832c3.11,3.071,6.305,6.057,9.46,9.082C597.53,771.304,597.53,773.701,597.53,776.098z
		"/>
	<path fill="#FFFFFF" d="M443.436,548.506c6.028,5.805,11.421,12.314,17.733,17.772c47.576,41.132,89.172,88.345,134.349,131.909
		c0.55,0.53,1.336,0.814,2.012,1.212c0,2.796,0,5.593,0,8.389c-17.536-17.433-35.081-34.858-52.605-52.303
		c-25.02-24.906-50.997-48.947-74.642-75.099"/>
	<path fill="#FFFFFF" d="M137.759,554.493c-15.996-6.644-25.231-21.064-36.918-32.555C66.573,488.245,32.727,454.123-1.285,420.169
		c0-2.796,0-5.593,0-8.389c4.473,4.187,9.059,8.259,13.4,12.578c38.137,37.937,76.316,75.834,114.227,113.996
		C130.923,542.963,133.99,549.076,137.759,554.493z"/>
	<path fill="#FFFFFF" d="M443.036-7.665c20.327,20.488,40.618,41.012,60.99,61.455c29.092,29.194,58.239,58.334,87.38,87.479
		c1.964,1.964,4.079,3.778,6.125,5.661c0,2.796,0,5.593,0,8.389c-25.34-25.42-50.666-50.856-76.025-76.257
		c-27.618-27.664-55.273-55.291-82.882-82.965c-1.088-1.091-1.856-2.501-2.773-3.763C438.246-7.665,440.641-7.665,443.036-7.665z"/>
	<path fill="#FFFFFF" d="M-1.285,359.05c41.865,41.675,83.701,83.378,125.638,124.98c4.292,4.258,7.111,8.571,5.795,13.414
		c-14.208-13.424-28.763-26.698-42.781-40.517c-29.699-29.279-59.118-58.843-88.652-88.29
		C-1.285,365.441-1.285,362.245-1.285,359.05z"/>
	<path fill="#FFFFFF" d="M597.53,724.566c-8.582-8.297-17.27-16.487-25.726-24.909c-34.348-34.209-68.778-68.339-102.868-102.804
		c-18.148-18.348-35.672-37.313-53.438-56.037c-1.04-1.096-1.724-2.53-1.909-4.554c0.672,0.44,1.447,0.779,2.002,1.336
		c15.333,15.408,29.914,31.656,46.097,46.109c45.855,40.952,87.066,86.563,131.164,129.262c1.339,1.297,3.109,2.149,4.678,3.208
		C597.53,718.973,597.53,721.77,597.53,724.566z"/>
	<path fill="#FFFFFF" d="M-1.285,204.454c10.973,10.686,22.035,21.283,32.904,32.076c31.286,31.069,62.487,62.224,93.744,93.322
		c3.779,3.76,5.855,7.802,4.426,11.058c-18.28-17.316-37.066-34.62-55.291-52.497c-24.069-23.609-47.688-47.677-71.546-71.501
		c-1.186-1.184-2.814-1.924-4.236-2.871C-1.285,210.846-1.285,207.65-1.285,204.454z"/>
	<path fill="#FFFFFF" d="M-1.285,325.494c7.592,7.265,15.312,14.401,22.753,21.817c31.759,31.656,63.426,63.405,95.157,95.088
		c3.24,3.235,6.8,6.15,10.006,9.415c3.438,3.5,4.335,7.64,2.924,11.477C85.94,420.154,42.328,377.018-1.285,333.883
		C-1.285,331.087-1.285,328.29-1.285,325.494z"/>
	<path fill="#FFFFFF" d="M-1.285,705.391c9.553,9.302,19.217,18.495,28.641,27.927c37.641,37.672,75.209,75.418,112.792,113.148
		c0.835,0.838,1.525,1.82,2.283,2.735c-2.794,0-5.589,0-8.383,0c-12.06-12.189-24.06-24.438-36.19-36.556
		C64.84,779.661,31.767,746.731-1.285,713.78C-1.285,710.984-1.285,708.188-1.285,705.391z"/>
	<path fill="#FFFFFF" d="M132.85-7.665c19.363,19.527,38.865,38.918,58.058,58.611c31.026,31.834,61.858,63.857,92.717,95.852
		c1.15,1.192,1.729,2.935,2.574,4.422c-14.956-14.073-30.181-27.872-44.816-42.271c-37.831-37.22-75.406-74.701-113.062-112.1
		c-1.399-1.39-2.575-3.005-3.855-4.515C127.261-7.665,130.056-7.665,132.85-7.665z"/>
	<path fill="#FFFFFF" d="M513.696,849.201c-15.577-15.743-31.235-31.406-46.715-47.244c-43.944-44.96-87.816-89.99-131.709-135.001
		c-0.269-0.276-0.429-0.658-1.597-2.502c2.344,1.85,3.501,2.598,4.462,3.545c59.706,58.841,119.399,117.695,179.065,176.576
		c1.392,1.374,2.46,3.076,3.679,4.625C518.487,849.201,516.092,849.201,513.696,849.201z"/>
	<path fill="#FFFFFF" d="M-1.285,152.922c4.21,3.899,8.543,7.674,12.61,11.717c38.169,37.943,76.397,75.827,114.31,114.025
		c5.294,5.333,8.97,12.274,13.44,18.532c-0.738-0.531-1.66-1.206-2.592-1.866c-25.723-18.194-45.217-42.957-67.72-64.54
		c-22.73-21.799-44.624-44.471-66.898-66.748c-0.98-0.98-2.096-1.825-3.149-2.732C-1.285,158.515-1.285,155.719-1.285,152.922z"/>
	<path fill="#FFFFFF" d="M-1.285,239.208c2.22,1.93,4.559,3.74,6.643,5.806c40.056,39.706,80.071,79.453,120.134,119.152
		c3.944,3.908,5.261,8.169,4.367,11.009C113.23,359.622,95.908,344,79.244,327.704c-27.069-26.47-53.708-53.382-80.528-80.107
		C-1.285,244.801-1.285,242.004-1.285,239.208z"/>
	<path d="M-1.285,713.78c33.051,32.951,66.124,65.881,99.142,98.865c12.13,12.118,24.13,24.367,36.19,36.556
		c-3.194,0-6.387,0-9.581,0c-0.781-1.118-1.416-2.382-2.365-3.334C80.99,804.617,39.851,763.395-1.285,722.169
		C-1.285,719.373-1.285,716.576-1.285,713.78z"/>
	<path fill="#FFFFFF" d="M-1.285,722.169c41.136,41.226,82.275,82.448,123.387,123.698c0.948,0.951,1.583,2.216,2.365,3.334
		c-2.794,0-5.589,0-8.383,0c-0.882-1.267-1.598-2.7-2.671-3.776c-29.593-29.679-59.18-59.365-88.873-88.944
		c-8.441-8.409-17.207-16.492-25.824-24.725C-1.285,728.561-1.285,725.365-1.285,722.169z"/>
	<path fill="#FFFFFF" d="M597.53,689.812c-11.266-10.969-22.623-21.846-33.779-32.926c-31.564-31.347-64.007-61.89-94.135-94.567
		c-14.098-15.291-28.767-29.993-43.012-45.115c-2.998-3.182-6.606-5.785-9.645-8.933c-1.749-1.812-2.921-4.181-4.353-6.3
		c0.493-0.366,0.987-0.732,1.48-1.099c2.885,3.179,5.667,6.461,8.674,9.52c12.866,13.089,24.718,27.464,38.947,38.862
		c24.648,19.743,44.818,43.85,67.467,65.502c22.919,21.909,44.964,44.734,67.397,67.152c0.279,0.279,0.638,0.477,0.96,0.713
		C597.53,685.018,597.53,687.415,597.53,689.812z"/>
	<path fill="#FFFFFF" d="M597.53,673.034c-15.178-14.972-30.407-29.894-45.524-44.927c-26.876-26.726-53.738-53.467-80.454-80.353
		c-3.22-3.24-5.498-7.416-8.213-11.159c0.579-0.702,1.159-1.403,1.738-2.105c1.543,0.898,3.368,1.515,4.586,2.737
		c17.731,17.81,35.34,35.741,53.06,53.563c23.489,23.624,47.04,47.186,70.602,70.737c1.221,1.22,2.796,2.087,4.206,3.118
		C597.53,667.441,597.53,670.238,597.53,673.034z"/>
	<path d="M597.53,102.589c0,3.196,0,6.392,0,9.587c-0.794-0.547-1.695-0.986-2.365-1.657c-25.759-25.765-51.53-51.518-77.223-77.349
		c-13.466-13.538-26.788-27.219-40.175-40.836c3.194,0,6.387,0,9.581,0c1.111,1.369,2.112,2.849,3.35,4.092
		c26.742,26.846,53.473,53.703,80.296,80.468C579.709,85.591,588.678,94.032,597.53,102.589z"/>
	<path fill="#FFFFFF" d="M597.53,621.502c-42.689-42.454-85.367-84.92-128.09-127.34c-3.173-3.151-4.856-6.532-1.911-12.466
		c3.974,4.519,7.725,9.262,11.958,13.523c38.227,38.476,76.537,76.87,114.839,115.271c0.97,0.973,2.132,1.753,3.205,2.624
		C597.53,615.91,597.53,618.706,597.53,621.502z"/>
	<path fill="#FFFFFF" d="M597.53,586.748c-13.187-13.023-26.415-26.005-39.553-39.078c-29.42-29.273-58.773-58.612-88.218-87.86
		c-3.31-3.288-5.341-6.656-3.495-11.687c10.595,10.469,20.97,20.61,31.224,30.873c32.276,32.307,64.503,64.664,96.775,96.975
		c0.942,0.943,2.172,1.599,3.268,2.388C597.53,581.156,597.53,583.952,597.53,586.748z"/>
	<path fill="#FFFFFF" d="M597.53,500.462c-23.17-23.06-46.335-46.125-69.513-69.177c-19.37-19.264-38.729-38.54-58.166-57.737
		c-3.178-3.139-4.712-6.536-3.492-12.187c2.276,2.17,3.945,3.691,5.537,5.29c40.944,41.113,81.878,82.237,122.834,123.339
		c0.812,0.815,1.861,1.394,2.799,2.083C597.53,494.87,597.53,497.666,597.53,500.462z"/>
	<path fill="#FFFFFF" d="M464.087,329.024c2.677-1.776,4.398-0.532,6.41,1.501c39.906,40.309,79.876,80.554,119.877,120.769
		c2.191,2.202,4.762,4.026,7.156,6.026c0,2.796,0,5.593,0,8.389c-13.899-13.664-27.864-27.263-41.685-41.006
		c-28.51-28.35-57.002-56.719-85.317-85.264C467.729,336.616,466.204,332.526,464.087,329.024z"/>
	<path fill="#FFFFFF" d="M461.001-7.665c5.354,5.808,10.522,11.801,16.092,17.393c38.679,38.828,77.436,77.579,116.207,116.315
		c1.191,1.19,2.811,1.95,4.231,2.911c0,2.796,0,5.593,0,8.389c-10.389-10.154-20.866-20.219-31.151-30.477
		C530.382,70.959,494.444,34.993,458.512-0.979c-2.096-2.098-3.936-4.451-5.895-6.686C455.412-7.665,458.206-7.665,461.001-7.665z"
		/>
	<path fill="#FFFFFF" d="M597.53,535.216c-42.426-42.242-84.82-84.517-127.341-126.664c-3.425-3.395-4.864-6.894-4.266-13.064
		c4.831,4.794,8.715,8.613,12.56,12.471c39.037,39.167,78.066,78.341,117.112,117.499c0.55,0.551,1.286,0.916,1.935,1.369
		C597.53,529.624,597.53,532.42,597.53,535.216z"/>
	<path fill="#FFFFFF" d="M597.53,638.28c-5.747-5.491-11.591-10.885-17.225-16.49c-36.772-36.589-73.492-73.23-110.25-109.833
		c-3.346-3.332-5.942-6.824-3.737-13.528c5.757,6.098,10.749,11.618,15.986,16.895c34.853,35.12,69.741,70.205,104.677,105.243
		c3.307,3.317,7.023,6.226,10.549,9.325C597.53,632.687,597.53,635.484,597.53,638.28z"/>
	<path fill="#FFFFFF" d="M597.53,551.994c-10.421-10.146-20.944-20.19-31.245-30.457c-32.216-32.109-64.319-64.333-96.56-96.417
		c-3.246-3.231-4.749-6.552-2.993-13.33c4.271,4.871,7.424,8.875,10.988,12.47c38.479,38.816,77.016,77.574,115.575,116.311
		c1.208,1.214,2.814,2.031,4.235,3.033C597.53,546.402,597.53,549.198,597.53,551.994z"/>
	<path fill="#FFFFFF" d="M495.732,849.201c-7.019-7.519-13.886-15.186-21.08-22.533c-51.803-52.904-103.673-105.743-155.509-158.616
		c-0.235-0.24-0.28-0.666-1.041-2.591c11.453,11.138,21.844,21.136,32.119,31.254c49.199,48.448,98.372,96.923,147.527,145.416
		c2.254,2.223,4.251,4.707,6.367,7.07C501.321,849.201,498.526,849.201,495.732,849.201z"/>
	<path fill="#FFFFFF" d="M478.965,849.201c-11.158-11.382-22.339-22.741-33.47-34.149c-39.161-40.138-78.306-80.291-117.445-120.45
		c-0.758-0.778-1.37-1.699-2.05-2.553c0.529-0.51,1.058-1.019,1.588-1.529c53.254,52.894,106.507,105.787,159.761,158.681
		C484.554,849.201,481.759,849.201,478.965,849.201z"/>
	<path fill="#FFFFFF" d="M462.702,311.072c3.641-0.799,6.116,0.77,8.685,3.356c40.368,40.635,80.838,81.168,121.299,121.71
		c1.54,1.543,3.226,2.939,4.844,4.403c0,2.796,0,5.593,0,8.389c-28.35-28.382-56.662-56.801-85.064-85.131
		c-14.129-14.093-28.527-27.917-42.557-42.107C466.952,318.702,465.076,314.641,462.702,311.072z"/>
	<path fill="#FFFFFF" d="M597.53,655.058c-9.037-8.658-18.197-17.192-27.088-25.997c-33.59-33.27-67.135-66.586-100.537-100.044
		c-2.36-2.364-3.553-5.958-5.009-9.11c-0.316-0.683,0.576-1.925,0.746-2.425c14.212,13.832,28.44,27.424,42.382,41.303
		c28.991,28.861,57.827,57.877,86.742,86.815c0.838,0.839,1.839,1.515,2.764,2.267C597.53,650.264,597.53,652.661,597.53,655.058z"
		/>
	<path fill="#FFFFFF" d="M597.53,568.772c-5.196-4.88-10.51-9.641-15.569-14.66c-37.39-37.09-74.71-74.251-112.117-111.324
		c-3.221-3.193-4.87-6.563-1.97-12.607c3.842,4.457,7.43,9.168,11.567,13.331c38.681,38.922,77.456,77.75,116.214,116.595
		c0.557,0.559,1.247,0.985,1.875,1.473C597.53,563.978,597.53,566.375,597.53,568.772z"/>
	<path fill="#FFFFFF" d="M597.53,517.24c-11.136-10.84-22.37-21.581-33.39-32.537c-31.417-31.238-62.804-62.506-94.006-93.958
		c-2.591-2.612-3.698-6.697-5.494-10.097c0.743-0.51,1.485-1.021,2.228-1.531c3.582,3.465,7.226,6.869,10.737,10.404
		c37.132,37.382,74.24,74.788,111.366,112.175c2.809,2.829,5.704,5.571,8.559,8.354C597.53,512.447,597.53,514.843,597.53,517.24z"
		/>
	<path fill="#FFFFFF" d="M477.767-7.665c13.387,13.617,26.71,27.298,40.175,40.836c25.693,25.831,51.464,51.584,77.223,77.349
		c0.67,0.67,1.571,1.11,2.365,1.657c0,2.796,0,5.593,0,8.389c-29.328-29.335-58.659-58.667-87.983-88.006
		c-13.395-13.401-26.776-26.816-40.164-40.225C472.178-7.665,474.973-7.665,477.767-7.665z"/>
	<path fill="#FFFFFF" d="M597.53,482.486c-10.146-9.794-20.399-19.479-30.418-29.401c-31.442-31.137-62.808-62.352-94.17-93.57
		c-3.951-3.933-8.847-7.572-6.668-14.26c9.124,8.798,18.238,17.329,27.069,26.145c33.867,33.813,67.641,67.72,101.462,101.58
		c0.839,0.841,1.814,1.546,2.725,2.314C597.53,477.693,597.53,480.089,597.53,482.486z"/>
	<path fill="#FFFFFF" d="M597.53,603.526c-6.741-6.459-13.584-12.815-20.205-19.395c-35.923-35.704-71.77-71.484-107.714-107.167
		c-3.349-3.325-4.968-6.796-3.667-11.791c7.187,7.037,14.032,13.604,20.73,20.319c35.642,35.728,71.245,71.496,106.873,107.237
		c1.263,1.267,2.652,2.408,3.982,3.607C597.53,598.732,597.53,601.129,597.53,603.526z"/>
	<path d="M-1.285,731.756c8.617,8.233,17.383,16.315,25.824,24.725c29.693,29.579,59.28,59.265,88.873,88.944
		c1.073,1.076,1.789,2.509,2.671,3.776c-2.794,0-5.589,0-8.383,0c-1.284-1.509-2.471-3.115-3.866-4.513
		c-26.195-26.267-52.384-52.54-78.645-78.741c-8.723-8.703-17.643-17.207-26.473-25.802C-1.285,737.349-1.285,734.553-1.285,731.756
		z"/>
	<path fill="#FFFFFF" d="M462.198,849.201c-26.991-27.156-54.17-54.127-80.921-81.518c-27.431-28.086-54.444-56.582-81.067-85.534
		c5.114,4.949,10.262,9.865,15.337,14.854c50.045,49.199,100.082,98.407,150.096,147.639c1.393,1.371,2.5,3.032,3.74,4.558
		C466.989,849.201,464.593,849.201,462.198,849.201z"/>
	<path d="M494.534-7.665c3.194,0,6.387,0,9.581,0c13.156,13.34,26.236,26.757,39.488,40.001
		c17.906,17.895,35.945,35.657,53.927,53.476c0,3.196,0,6.392,0,9.587c-6.661-6.565-13.371-13.081-19.974-19.703
		C549.865,47.926,522.205,20.125,494.534-7.665z"/>
	<path fill="#FFFFFF" d="M444.234,849.201c-7.675-8.018-15.29-16.093-23.034-24.044c-37.304-38.298-74.651-76.556-111.937-114.871
		c-1.187-1.22-1.889-2.912-2.817-4.384c14.313,13.598,28.803,27.015,42.902,40.831c33.218,32.551,66.255,65.289,99.344,97.972
		c1.412,1.394,2.622,2.993,3.925,4.496C449.823,849.201,447.028,849.201,444.234,849.201z"/>
	<path fill="#FFFFFF" d="M-1.285,740.145c8.83,8.595,17.751,17.099,26.473,25.802c26.261,26.201,52.45,52.474,78.645,78.741
		c1.395,1.399,2.582,3.004,3.866,4.513c-2.794,0-5.589,0-8.383,0c-0.877-1.073-1.67-2.229-2.644-3.206
		c-16.616-16.664-33.215-33.345-49.898-49.941c-15.972-15.888-32.036-31.684-48.059-47.52
		C-1.285,745.738-1.285,742.942-1.285,740.145z"/>
	<path fill="#FFFFFF" d="M427.467,849.201c-18.131-18.26-36.413-36.373-54.357-54.814c-25.191-25.888-50.137-52.016-75.162-78.065
		c-1.095-1.14-1.936-2.524-2.895-3.794c1.458,0.963,3.119,1.718,4.345,2.919c43.764,42.861,87.493,85.757,131.192,128.684
		c1.534,1.507,2.717,3.373,4.064,5.072C432.257,849.201,429.862,849.201,427.467,849.201z"/>
	<path d="M-1.285,748.534c16.023,15.836,32.087,31.631,48.059,47.52c16.683,16.596,33.282,33.277,49.898,49.941
		c0.974,0.976,1.767,2.133,2.644,3.206c-3.194,0-6.387,0-9.581,0c-1.32-1.713-2.482-3.581-3.986-5.112
		c-7.966-8.11-16.004-16.149-24.041-24.189c-20.991-20.999-41.994-41.985-62.992-62.977C-1.285,754.127-1.285,751.33-1.285,748.534z
		"/>
	<path fill="#FFFFFF" d="M-1.285,756.923c20.998,20.991,42.001,41.978,62.992,62.977c8.037,8.04,16.076,16.078,24.041,24.189
		c1.504,1.532,2.666,3.4,3.986,5.112c-2.794,0-5.589,0-8.383,0c-0.649-1.152-1.079-2.522-1.978-3.424
		c-20.077-20.147-40.149-40.299-60.355-60.315c-6.574-6.513-13.525-12.645-20.303-18.951
		C-1.285,763.315-1.285,760.119-1.285,756.923z"/>
	<path fill="#FFFFFF" d="M494.534-7.665c27.671,27.79,55.331,55.591,83.022,83.361c6.603,6.622,13.313,13.138,19.974,19.703
		c0,2.397,0,4.794,0,7.19c-8.853-8.557-17.821-16.998-26.536-25.694c-26.823-26.765-53.554-53.622-80.296-80.468
		c-1.238-1.243-2.239-2.723-3.35-4.092C489.744-7.665,492.139-7.665,494.534-7.665z"/>
	<path d="M597.53,67.835c0,3.196,0,6.392,0,9.587c-1.248-0.905-2.643-1.662-3.721-2.737c-17.911-17.842-35.844-35.663-53.638-53.622
		c-9.357-9.444-18.456-19.144-27.672-28.728c3.194,0,6.387,0,9.581,0c1.212,1.538,2.285,3.214,3.657,4.592
		c14.77,14.827,29.536,29.658,44.41,44.381C579.178,50.247,588.396,58.999,597.53,67.835z"/>
	<path fill="#FFFFFF" d="M512.499-7.665c9.216,9.584,18.315,19.285,27.672,28.728c17.794,17.959,35.727,35.78,53.638,53.622
		c1.079,1.075,2.474,1.832,3.721,2.737c0,2.796,0,5.593,0,8.389c-17.982-17.819-36.021-35.581-53.927-53.476
		c-13.252-13.244-26.332-26.661-39.488-40.001C506.91-7.665,509.704-7.665,512.499-7.665z"/>
	<path d="M-1.285,766.51c6.778,6.306,13.729,12.439,20.303,18.951c20.206,20.016,40.279,40.168,60.355,60.315
		c0.899,0.902,1.329,2.272,1.978,3.424c-2.794,0-5.589,0-8.383,0c-1.389-1.664-2.663-3.443-4.185-4.975
		c-15.885-15.984-31.762-31.977-47.746-47.862c-7.321-7.276-14.874-14.317-22.322-21.465C-1.285,772.103-1.285,769.307-1.285,766.51
		z"/>
	<path d="M597.53,51.057c0,3.196,0,6.392,0,9.587c-6.123-5.955-12.33-11.827-18.353-17.882
		c-16.678-16.768-33.28-33.613-49.912-50.428c3.194,0,6.387,0,9.581,0c4.941,5.18,9.768,10.476,14.846,15.518
		C568.25,22.309,582.91,36.663,597.53,51.057z"/>
	<path fill="#FFFFFF" d="M-1.285,774.899c7.448,7.148,15.001,14.189,22.322,21.465c15.984,15.885,31.861,31.878,47.746,47.862
		c1.522,1.532,2.796,3.311,4.185,4.975c-2.794,0-5.589,0-8.383,0c-9.033-9.256-17.969-18.61-27.123-27.746
		c-12.831-12.807-25.824-25.452-38.747-38.167C-1.285,780.492-1.285,777.696-1.285,774.899z"/>
	<path fill="#FFFFFF" d="M529.266-7.665c16.632,16.815,33.234,33.66,49.912,50.428c6.023,6.055,12.23,11.926,18.353,17.882
		c0,2.397,0,4.794,0,7.19c-9.134-8.836-18.352-17.588-27.384-26.528c-14.874-14.722-29.64-29.554-44.41-44.381
		c-1.372-1.378-2.445-3.054-3.657-4.592C524.475-7.665,526.87-7.665,529.266-7.665z"/>
	<path d="M-1.285,783.288c12.923,12.715,25.916,25.36,38.747,38.167c9.153,9.136,18.09,18.49,27.123,27.746
		c-2.794,0-5.589,0-8.383,0c-3.857-4.028-7.633-8.139-11.587-12.07c-15.269-15.182-30.595-30.307-45.9-45.454
		C-1.285,788.881-1.285,786.084-1.285,783.288z"/>
	<path fill="#FFFFFF" d="M-1.285,791.677c15.305,15.146,30.631,30.271,45.9,45.454c3.954,3.931,7.729,8.042,11.587,12.07
		c-2.794,0-5.589,0-8.383,0c-16.368-16.378-32.735-32.757-49.103-49.135C-1.285,797.27-1.285,794.473-1.285,791.677z"/>
	<path fill="#FFFFFF" d="M597.53,51.057c-14.62-14.394-29.28-28.748-43.838-43.204c-5.078-5.042-9.904-10.338-14.846-15.518
		c2.395,0,4.791,0,7.186,0c17.166,17.177,34.332,34.355,51.498,51.532C597.53,46.263,597.53,48.66,597.53,51.057z"/>
	<path d="M597.53,43.867c-17.166-17.177-34.332-34.355-51.498-51.532c3.194,0,6.387,0,9.581,0
		c13.972,13.981,27.945,27.963,41.917,41.944C597.53,37.475,597.53,40.671,597.53,43.867z"/>
	<path d="M-1.285,800.066c16.368,16.378,32.735,32.757,49.103,49.135c-3.194,0-6.387,0-9.581,0
		c-8.817-9.162-17.557-18.4-26.485-27.453c-4.158-4.217-8.68-8.075-13.037-12.095C-1.285,806.457-1.285,803.262-1.285,800.066z"/>
	<path fill="#FFFFFF" d="M597.53,34.279c-13.972-13.982-27.945-27.963-41.917-41.944c2.794,0,5.589,0,8.383,0
		c11.178,11.185,22.356,22.37,33.534,33.556C597.53,28.687,597.53,31.483,597.53,34.279z"/>
	<path fill="#FFFFFF" d="M-1.285,809.653c4.357,4.021,8.879,7.878,13.037,12.095c8.928,9.053,17.668,18.291,26.485,27.453
		c-2.794,0-5.589,0-8.383,0c-4.365-4.755-8.564-9.677-13.138-14.222c-5.842-5.805-11.986-11.305-18-16.937
		C-1.285,815.246-1.285,812.45-1.285,809.653z"/>
	<path d="M597.53,25.89c-11.178-11.185-22.356-22.37-33.534-33.556c3.194,0,6.387,0,9.581,0
		c7.984,7.989,15.968,15.979,23.953,23.968C597.53,19.499,597.53,22.695,597.53,25.89z"/>
	<path d="M-1.285,818.042c6.014,5.632,12.158,11.132,18,16.937c4.574,4.545,8.773,9.467,13.138,14.222c-2.794,0-5.589,0-8.383,0
		c-7.585-7.59-15.17-15.18-22.755-22.77C-1.285,823.635-1.285,820.838-1.285,818.042z"/>
	<path fill="#FFFFFF" d="M-1.285,826.431c7.585,7.59,15.17,15.18,22.755,22.77c-2.794,0-5.589,0-8.383,0
		c-4.791-4.794-9.581-9.587-14.372-14.381C-1.285,832.024-1.285,829.227-1.285,826.431z"/>
	<path fill="#FFFFFF" d="M597.53,16.303c-7.984-7.989-15.968-15.979-23.953-23.968c2.395,0,4.791,0,7.186,0
		c5.589,5.593,11.178,11.185,16.767,16.778C597.53,11.509,597.53,13.906,597.53,16.303z"/>
	<path d="M597.53,9.113c-5.589-5.593-11.178-11.185-16.767-16.778c5.589,0,11.178,0,16.767,0C597.53-2.073,597.53,3.52,597.53,9.113
		z"/>
	<path d="M-1.285,834.82c4.791,4.794,9.581,9.587,14.372,14.381c-4.791,0-9.581,0-14.372,0
		C-1.285,844.407-1.285,839.614-1.285,834.82z"/>
	<path fill="#FFFFFF" d="M201.797,601.187c-3.989-3.509-8.175-6.82-11.933-10.562c-18.099-18.02-36.082-36.155-54.106-54.25
		c1.066,0.435,2.409,0.593,3.157,1.345C159.912,558.838,180.849,580.018,201.797,601.187z"/>
	<path fill="#FFFFFF" d="M411.218,276.308c1.563,0.78,3.47,1.219,4.636,2.394c12.624,12.727,25.145,25.557,37.638,38.414
		c0.767,0.79,1.064,2.038,1.579,3.072C440.453,305.561,425.836,290.935,411.218,276.308z"/>
	<path fill="#FFFFFF" d="M402.196,249.903c6.332,5.636,12.913,11.019,18.944,16.961c12.65,12.463,25.05,25.182,37.44,37.905
		c1.568,1.61,2.459,3.879,3.663,5.842c-19.599-19.573-39.201-39.143-58.782-58.734C402.922,251.337,402.613,250.566,402.196,249.903
		z"/>
	<path fill="#FFFFFF" d="M285.013,702.481c-11.718-11.378-23.567-22.625-35.13-34.157c-36.013-35.917-71.931-71.93-107.832-107.96
		c-1.762-1.769-3.016-4.044-4.507-6.084c10.806,10.273,21.828,20.331,32.376,30.864c23.576,23.543,46.896,47.342,70.36,70.998
		c13.489,13.6,27.081,27.098,40.553,40.715C282.459,698.5,283.63,700.595,285.013,702.481z"/>
</g>
<rect x="-14.047" y="-16.296" opacity="0.8" fill="#F1842C" width="618.26" height="874.482"/>
</svg>
