<?xml version="1.0" encoding="utf-8"?>
<!-- Generator: Adobe Illustrator 17.1.0, SVG Export Plug-In . SVG Version: 6.00 Build 0)  -->
<!DOCTYPE svg PUBLIC "-//W3C//DTD SVG 1.1//EN" "http://www.w3.org/Graphics/SVG/1.1/DTD/svg11.dtd">
<svg version="1.1" xmlns="http://www.w3.org/2000/svg" xmlns:xlink="http://www.w3.org/1999/xlink" x="0px" y="0px"
	 viewBox="0 0 595.28 841.89" enable-background="new 0 0 595.28 841.89" xml:space="preserve">
<g id="Calque_3">
	<rect x="-25.68" y="-98" width="816.378" height="1070"/>
</g>
<g id="Calque_1">
	<g>
		<g>
			<polygon fill="none" stroke="#FFFFFF" stroke-width="4" stroke-miterlimit="10" points="75.167,36.594 25.561,36.349 
				0.966,-7.588 25.977,-51.28 75.584,-51.035 100.179,-7.098 			"/>
			<polygon fill="none" stroke="#FFFFFF" stroke-width="4" stroke-miterlimit="10" points="94.141,70.488 6.267,70.054 
				-37.302,-7.777 7.004,-85.174 94.878,-84.74 138.446,-6.909 			"/>
		</g>
		<g>
			<polygon fill="none" stroke="#FFFFFF" stroke-width="4" stroke-miterlimit="10" points="206.412,114.264 156.805,114.019 
				132.21,70.082 157.221,26.39 206.828,26.635 231.423,70.572 			"/>
			<polygon fill="none" stroke="#FFFFFF" stroke-width="4" stroke-miterlimit="10" points="225.385,148.158 137.511,147.725 
				93.942,69.893 138.248,-7.504 226.122,-7.07 269.69,70.761 			"/>
		</g>
		<g>
			<polygon fill="none" stroke="#FFFFFF" stroke-width="4" stroke-miterlimit="10" points="338.558,37.92 288.952,37.675 
				264.357,-6.262 289.368,-49.954 338.974,-49.709 363.569,-5.772 			"/>
			<polygon fill="none" stroke="#FFFFFF" stroke-width="4" stroke-miterlimit="10" points="357.532,71.814 269.658,71.38 
				226.089,-6.451 270.395,-83.848 358.269,-83.414 401.837,-5.583 			"/>
		</g>
		<g>
			<polygon fill="none" stroke="#FFFFFF" stroke-width="4" stroke-miterlimit="10" points="469.519,116.033 419.913,115.788 
				395.317,71.851 420.329,28.159 469.935,28.404 494.53,72.341 			"/>
			<polygon fill="none" stroke="#FFFFFF" stroke-width="4" stroke-miterlimit="10" points="488.492,149.928 400.618,149.494 
				357.05,71.662 401.355,-5.735 489.229,-5.301 532.798,72.53 			"/>
		</g>
		<g>
			<polygon fill="none" stroke="#FFFFFF" stroke-width="4" stroke-miterlimit="10" points="75.167,192.037 25.561,191.792 
				0.966,147.855 25.977,104.163 75.584,104.408 100.179,148.345 			"/>
			<polygon fill="none" stroke="#FFFFFF" stroke-width="4" stroke-miterlimit="10" points="94.141,225.932 6.267,225.498 
				-37.302,147.666 7.004,70.269 94.878,70.703 138.446,148.534 			"/>
		</g>
		<g>
			<polygon fill="none" stroke="#FFFFFF" stroke-width="4" stroke-miterlimit="10" points="206.412,269.707 156.805,269.462 
				132.21,225.525 157.221,181.833 206.828,182.078 231.423,226.015 			"/>
			<polygon fill="none" stroke="#FFFFFF" stroke-width="4" stroke-miterlimit="10" points="225.385,303.602 137.511,303.168 
				93.942,225.337 138.248,147.939 226.122,148.373 269.69,226.204 			"/>
		</g>
		<g>
			<polygon fill="none" stroke="#FFFFFF" stroke-width="4" stroke-miterlimit="10" points="338.558,193.363 288.952,193.118 
				264.357,149.181 289.368,105.489 338.974,105.734 363.569,149.671 			"/>
			<polygon fill="none" stroke="#FFFFFF" stroke-width="4" stroke-miterlimit="10" points="357.532,227.257 269.658,226.823 
				226.089,148.992 270.395,71.595 358.269,72.029 401.837,149.86 			"/>
		</g>
		<g>
			<polygon fill="none" stroke="#FFFFFF" stroke-width="4" stroke-miterlimit="10" points="469.519,271.477 419.913,271.232 
				395.317,227.295 420.329,183.603 469.935,183.848 494.53,227.785 			"/>
			<polygon fill="none" stroke="#FFFFFF" stroke-width="4" stroke-miterlimit="10" points="488.492,305.371 400.618,304.937 
				357.05,227.106 401.355,149.708 489.229,150.142 532.798,227.974 			"/>
		</g>
		<g>
			<polygon fill="none" stroke="#FFFFFF" stroke-width="4" stroke-miterlimit="10" points="75.167,347.633 25.561,347.388 
				0.966,303.451 25.977,259.759 75.584,260.004 100.179,303.941 			"/>
			<polygon fill="none" stroke="#FFFFFF" stroke-width="4" stroke-miterlimit="10" points="94.141,381.527 6.267,381.093 
				-37.302,303.262 7.004,225.864 94.878,226.298 138.446,304.13 			"/>
		</g>
		<g>
			<polygon fill="none" stroke="#FFFFFF" stroke-width="4" stroke-miterlimit="10" points="206.412,425.303 156.805,425.058 
				132.21,381.121 157.221,337.429 206.828,337.674 231.423,381.611 			"/>
			<polygon fill="none" stroke="#FFFFFF" stroke-width="4" stroke-miterlimit="10" points="225.385,459.197 137.511,458.763 
				93.942,380.932 138.248,303.535 226.122,303.968 269.69,381.8 			"/>
		</g>
		<g>
			<polygon fill="none" stroke="#FFFFFF" stroke-width="4" stroke-miterlimit="10" points="338.558,348.958 288.952,348.713 
				264.357,304.776 289.368,261.084 338.974,261.329 363.569,305.266 			"/>
			<polygon fill="none" stroke="#FFFFFF" stroke-width="4" stroke-miterlimit="10" points="357.532,382.853 269.658,382.419 
				226.089,304.587 270.395,227.19 358.269,227.624 401.837,305.455 			"/>
		</g>
		<g>
			<polygon fill="none" stroke="#FFFFFF" stroke-width="4" stroke-miterlimit="10" points="469.519,427.072 419.913,426.827 
				395.317,382.89 420.329,339.198 469.935,339.443 494.53,383.38 			"/>
			<polygon fill="none" stroke="#FFFFFF" stroke-width="4" stroke-miterlimit="10" points="488.492,460.966 400.618,460.532 
				357.05,382.701 401.355,305.304 489.229,305.738 532.798,383.569 			"/>
		</g>
		<g>
			<polygon fill="none" stroke="#FFFFFF" stroke-width="4" stroke-miterlimit="10" points="75.167,503.076 25.561,502.831 
				0.966,458.894 25.977,415.202 75.584,415.447 100.179,459.384 			"/>
			<polygon fill="none" stroke="#FFFFFF" stroke-width="4" stroke-miterlimit="10" points="94.141,536.97 6.267,536.536 
				-37.302,458.705 7.004,381.308 94.878,381.742 138.446,459.573 			"/>
		</g>
		<g>
			<polygon fill="none" stroke="#FFFFFF" stroke-width="4" stroke-miterlimit="10" points="206.412,580.746 156.805,580.501 
				132.21,536.564 157.221,492.872 206.828,493.117 231.423,537.054 			"/>
			<polygon fill="none" stroke="#FFFFFF" stroke-width="4" stroke-miterlimit="10" points="225.385,614.64 137.511,614.206 
				93.942,536.375 138.248,458.978 226.122,459.412 269.69,537.243 			"/>
		</g>
		<g>
			<polygon fill="none" stroke="#FFFFFF" stroke-width="4" stroke-miterlimit="10" points="338.558,504.402 288.952,504.157 
				264.357,460.22 289.368,416.528 338.974,416.773 363.569,460.71 			"/>
			<polygon fill="none" stroke="#FFFFFF" stroke-width="4" stroke-miterlimit="10" points="357.532,538.296 269.658,537.862 
				226.089,460.031 270.395,382.633 358.269,383.067 401.837,460.899 			"/>
		</g>
		<g>
			<polygon fill="none" stroke="#FFFFFF" stroke-width="4" stroke-miterlimit="10" points="469.519,582.515 419.913,582.27 
				395.317,538.333 420.329,494.641 469.935,494.886 494.53,538.823 			"/>
			<polygon fill="none" stroke="#FFFFFF" stroke-width="4" stroke-miterlimit="10" points="488.492,616.409 400.618,615.976 
				357.05,538.144 401.355,460.747 489.229,461.181 532.798,539.012 			"/>
		</g>
		<g>
			<polygon fill="none" stroke="#FFFFFF" stroke-width="4" stroke-miterlimit="10" points="75.167,658.287 25.561,658.042 
				0.966,614.105 25.977,570.413 75.584,570.658 100.179,614.595 			"/>
			<polygon fill="none" stroke="#FFFFFF" stroke-width="4" stroke-miterlimit="10" points="94.141,692.182 6.267,691.748 
				-37.302,613.916 7.004,536.519 94.878,536.953 138.446,614.784 			"/>
		</g>
		<g>
			<polygon fill="none" stroke="#FFFFFF" stroke-width="4" stroke-miterlimit="10" points="206.412,735.958 156.805,735.713 
				132.21,691.776 157.221,648.083 206.828,648.328 231.423,692.266 			"/>
			<polygon fill="none" stroke="#FFFFFF" stroke-width="4" stroke-miterlimit="10" points="225.385,769.852 137.511,769.418 
				93.942,691.587 138.248,614.189 226.122,614.623 269.69,692.454 			"/>
		</g>
		<g>
			<polygon fill="none" stroke="#FFFFFF" stroke-width="4" stroke-miterlimit="10" points="338.558,659.613 288.952,659.368 
				264.357,615.431 289.368,571.739 338.974,571.984 363.569,615.921 			"/>
			<polygon fill="none" stroke="#FFFFFF" stroke-width="4" stroke-miterlimit="10" points="357.532,693.507 269.658,693.073 
				226.089,615.242 270.395,537.845 358.269,538.279 401.837,616.11 			"/>
		</g>
		<g>
			<polygon fill="none" stroke="#FFFFFF" stroke-width="4" stroke-miterlimit="10" points="469.519,737.727 419.913,737.482 
				395.317,693.545 420.329,649.853 469.935,650.098 494.53,694.035 			"/>
			<polygon fill="none" stroke="#FFFFFF" stroke-width="4" stroke-miterlimit="10" points="488.492,771.621 400.618,771.187 
				357.05,693.356 401.355,615.958 489.229,616.392 532.798,694.224 			"/>
		</g>
		<g>
			<polygon fill="none" stroke="#FFFFFF" stroke-width="4" stroke-miterlimit="10" points="75.167,813.731 25.561,813.486 
				0.966,769.549 25.977,725.857 75.584,726.102 100.179,770.039 			"/>
			<polygon fill="none" stroke="#FFFFFF" stroke-width="4" stroke-miterlimit="10" points="94.141,847.625 6.267,847.191 
				-37.302,769.36 7.004,691.962 94.878,692.396 138.446,770.228 			"/>
		</g>
		<g>
			<polygon fill="none" stroke="#FFFFFF" stroke-width="4" stroke-miterlimit="10" points="206.412,891.401 156.805,891.156 
				132.21,847.219 157.221,803.527 206.828,803.772 231.423,847.709 			"/>
			<polygon fill="none" stroke="#FFFFFF" stroke-width="4" stroke-miterlimit="10" points="225.385,925.295 137.511,924.861 
				93.942,847.03 138.248,769.633 226.122,770.066 269.69,847.898 			"/>
		</g>
		<g>
			<polygon fill="none" stroke="#FFFFFF" stroke-width="4" stroke-miterlimit="10" points="338.558,815.056 288.952,814.811 
				264.357,770.874 289.368,727.182 338.974,727.427 363.569,771.364 			"/>
			<polygon fill="none" stroke="#FFFFFF" stroke-width="4" stroke-miterlimit="10" points="357.532,848.951 269.658,848.517 
				226.089,770.685 270.395,693.288 358.269,693.722 401.837,771.553 			"/>
		</g>
		<g>
			<polygon fill="none" stroke="#FFFFFF" stroke-width="4" stroke-miterlimit="10" points="469.519,893.17 419.913,892.925 
				395.317,848.988 420.329,805.296 469.935,805.541 494.53,849.478 			"/>
			<polygon fill="none" stroke="#FFFFFF" stroke-width="4" stroke-miterlimit="10" points="488.492,927.064 400.618,926.63 
				357.05,848.799 401.355,771.402 489.229,771.836 532.798,849.667 			"/>
		</g>
		<g>
			<polygon fill="none" stroke="#FFFFFF" stroke-width="4" stroke-miterlimit="10" points="600.883,38.221 551.277,37.976 
				526.682,-5.961 551.693,-49.653 601.299,-49.408 625.894,-5.471 			"/>
			<polygon fill="none" stroke="#FFFFFF" stroke-width="4" stroke-miterlimit="10" points="619.856,72.116 531.982,71.682 
				488.414,-6.15 532.719,-83.547 620.593,-83.113 664.162,-5.282 			"/>
		</g>
		<g>
			<polygon fill="none" stroke="#FFFFFF" stroke-width="4" stroke-miterlimit="10" points="600.883,193.665 551.277,193.42 
				526.682,149.483 551.693,105.791 601.299,106.036 625.894,149.973 			"/>
			<polygon fill="none" stroke="#FFFFFF" stroke-width="4" stroke-miterlimit="10" points="619.856,227.559 531.982,227.125 
				488.414,149.294 532.719,71.896 620.593,72.33 664.162,150.162 			"/>
		</g>
		<g>
			<polygon fill="none" stroke="#FFFFFF" stroke-width="4" stroke-miterlimit="10" points="600.883,349.26 551.277,349.015 
				526.682,305.078 551.693,261.386 601.299,261.631 625.894,305.568 			"/>
			<polygon fill="none" stroke="#FFFFFF" stroke-width="4" stroke-miterlimit="10" points="619.856,383.154 531.982,382.72 
				488.414,304.889 532.719,227.492 620.593,227.926 664.162,305.757 			"/>
		</g>
		<g>
			<polygon fill="none" stroke="#FFFFFF" stroke-width="4" stroke-miterlimit="10" points="600.883,504.703 551.277,504.458 
				526.682,460.521 551.693,416.829 601.299,417.074 625.894,461.011 			"/>
			<polygon fill="none" stroke="#FFFFFF" stroke-width="4" stroke-miterlimit="10" points="619.856,538.598 531.982,538.164 
				488.414,460.332 532.719,382.935 620.593,383.369 664.162,461.2 			"/>
		</g>
		<g>
			<polygon fill="none" stroke="#FFFFFF" stroke-width="4" stroke-miterlimit="10" points="600.883,659.915 551.277,659.67 
				526.682,615.733 551.693,572.041 601.299,572.286 625.894,616.223 			"/>
			<polygon fill="none" stroke="#FFFFFF" stroke-width="4" stroke-miterlimit="10" points="619.856,693.809 531.982,693.375 
				488.414,615.544 532.719,538.146 620.593,538.58 664.162,616.412 			"/>
		</g>
		<g>
			<polygon fill="none" stroke="#FFFFFF" stroke-width="4" stroke-miterlimit="10" points="600.883,815.358 551.277,815.113 
				526.682,771.176 551.693,727.484 601.299,727.729 625.894,771.666 			"/>
			<polygon fill="none" stroke="#FFFFFF" stroke-width="4" stroke-miterlimit="10" points="619.856,849.252 531.982,848.818 
				488.414,770.987 532.719,693.59 620.593,694.024 664.162,771.855 			"/>
		</g>
	</g>
	<rect x="-211.812" y="-297.374" opacity="0.9" fill="#ECB62D" width="1018.905" height="1432.503"/>
</g>
<g id="Calque_2">
	<g>
		<polygon fill="none" stroke="#FFFFFF" stroke-width="4" stroke-miterlimit="10" points="126.979,147.151 24.932,146.651 
			-25.68,60.194 25.756,-25.763 127.804,-25.263 178.415,61.193 		"/>
		<polygon fill="none" stroke="#FFFFFF" stroke-width="4" stroke-miterlimit="10" points="331.073,147.151 229.026,146.651 
			178.415,60.194 229.851,-25.763 331.898,-25.263 382.509,61.193 		"/>
		<polygon fill="none" stroke="#FFFFFF" stroke-width="4" stroke-miterlimit="10" points="535.168,147.151 433.121,146.651 
			382.509,60.194 433.945,-25.763 535.993,-25.263 586.604,61.193 		"/>
		<polygon fill="none" stroke="#FFFFFF" stroke-width="4" stroke-miterlimit="10" points="739.262,147.151 637.215,146.651 
			586.604,60.194 638.04,-25.763 740.087,-25.263 790.698,61.193 		"/>
		<polygon fill="none" stroke="#FFFFFF" stroke-width="4" stroke-miterlimit="10" points="126.979,320.064 24.932,319.564 
			-25.68,233.108 25.756,147.151 127.804,147.65 178.415,234.107 		"/>
		<polygon fill="none" stroke="#FFFFFF" stroke-width="4" stroke-miterlimit="10" points="331.073,320.064 229.026,319.564 
			178.415,233.108 229.851,147.151 331.898,147.65 382.509,234.107 		"/>
		<polygon fill="none" stroke="#FFFFFF" stroke-width="4" stroke-miterlimit="10" points="535.168,320.064 433.121,319.564 
			382.509,233.108 433.945,147.151 535.993,147.65 586.604,234.107 		"/>
		<polygon fill="none" stroke="#FFFFFF" stroke-width="4" stroke-miterlimit="10" points="739.262,320.064 637.215,319.564 
			586.604,233.108 638.04,147.151 740.087,147.65 790.698,234.107 		"/>
		<polygon fill="none" stroke="#FFFFFF" stroke-width="4" stroke-miterlimit="10" points="126.979,492.977 24.932,492.478 
			-25.68,406.021 25.756,320.064 127.804,320.563 178.415,407.02 		"/>
		<polygon fill="none" stroke="#FFFFFF" stroke-width="4" stroke-miterlimit="10" points="331.073,492.977 229.026,492.478 
			178.415,406.021 229.851,320.064 331.898,320.563 382.509,407.02 		"/>
		<polygon fill="none" stroke="#FFFFFF" stroke-width="4" stroke-miterlimit="10" points="535.168,492.977 433.121,492.478 
			382.509,406.021 433.945,320.064 535.993,320.563 586.604,407.02 		"/>
		<polygon fill="none" stroke="#FFFFFF" stroke-width="4" stroke-miterlimit="10" points="739.262,492.977 637.215,492.478 
			586.604,406.021 638.04,320.064 740.087,320.563 790.698,407.02 		"/>
		<polygon fill="none" stroke="#FFFFFF" stroke-width="4" stroke-miterlimit="10" points="126.979,665.891 24.932,665.391 
			-25.68,578.935 25.756,492.977 127.804,493.477 178.415,579.933 		"/>
		<polygon fill="none" stroke="#FFFFFF" stroke-width="4" stroke-miterlimit="10" points="331.073,665.891 229.026,665.391 
			178.415,578.935 229.851,492.977 331.898,493.477 382.509,579.933 		"/>
		<polygon fill="none" stroke="#FFFFFF" stroke-width="4" stroke-miterlimit="10" points="535.168,665.891 433.121,665.391 
			382.509,578.935 433.945,492.977 535.993,493.477 586.604,579.933 		"/>
		<polygon fill="none" stroke="#FFFFFF" stroke-width="4" stroke-miterlimit="10" points="739.262,665.891 637.215,665.391 
			586.604,578.935 638.04,492.977 740.087,493.477 790.698,579.933 		"/>
		<polygon fill="none" stroke="#FFFFFF" stroke-width="4" stroke-miterlimit="10" points="126.979,838.804 24.932,838.305 
			-25.68,751.848 25.756,665.891 127.804,666.39 178.415,752.847 		"/>
		<polygon fill="none" stroke="#FFFFFF" stroke-width="4" stroke-miterlimit="10" points="331.073,838.804 229.026,838.305 
			178.415,751.848 229.851,665.891 331.898,666.39 382.509,752.847 		"/>
		<polygon fill="none" stroke="#FFFFFF" stroke-width="4" stroke-miterlimit="10" points="535.168,838.804 433.121,838.305 
			382.509,751.848 433.945,665.891 535.993,666.39 586.604,752.847 		"/>
		<polygon fill="none" stroke="#FFFFFF" stroke-width="4" stroke-miterlimit="10" points="739.262,838.804 637.215,838.305 
			586.604,751.848 638.04,665.891 740.087,666.39 790.698,752.847 		"/>
	</g>
</g>
</svg>
