<?xml version="1.0" encoding="utf-8"?>
<!-- Generator: Adobe Illustrator 17.1.0, SVG Export Plug-In . SVG Version: 6.00 Build 0)  -->
<!DOCTYPE svg PUBLIC "-//W3C//DTD SVG 1.1//EN" "http://www.w3.org/Graphics/SVG/1.1/DTD/svg11.dtd">
<svg version="1.1" id="Calque_1" xmlns="http://www.w3.org/2000/svg" xmlns:xlink="http://www.w3.org/1999/xlink" x="0px" y="0px"
	 viewBox="278.441 -66.11 657.606 974.11" enable-background="new 278.441 -66.11 657.606 974.11" xml:space="preserve">
<g id="Calque_3">
	<rect x="271.955" y="-98" width="816.378" height="1070"/>
</g>
<g>
	<g>
		<polygon fill="none" stroke="#FFFFFF" stroke-width="4" stroke-miterlimit="10" points="372.802,36.594 323.196,36.349 
			298.601,-7.588 323.612,-51.28 373.219,-51.035 397.814,-7.098 		"/>
		<polygon fill="none" stroke="#FFFFFF" stroke-width="4" stroke-miterlimit="10" points="391.776,70.488 303.902,70.054 
			260.333,-7.777 304.639,-85.174 392.513,-84.74 436.081,-6.909 		"/>
	</g>
	<g>
		<polygon fill="none" stroke="#FFFFFF" stroke-width="4" stroke-miterlimit="10" points="504.047,114.264 454.44,114.019 
			429.845,70.082 454.856,26.39 504.463,26.635 529.058,70.572 		"/>
		<polygon fill="none" stroke="#FFFFFF" stroke-width="4" stroke-miterlimit="10" points="523.02,148.158 435.146,147.725 
			391.577,69.893 435.883,-7.504 523.757,-7.07 567.325,70.761 		"/>
	</g>
	<g>
		<polygon fill="none" stroke="#FFFFFF" stroke-width="4" stroke-miterlimit="10" points="636.193,37.92 586.587,37.675 
			561.992,-6.262 587.003,-49.954 636.609,-49.709 661.204,-5.772 		"/>
		<polygon fill="none" stroke="#FFFFFF" stroke-width="4" stroke-miterlimit="10" points="655.167,71.814 567.293,71.38 
			523.724,-6.451 568.03,-83.848 655.904,-83.414 699.472,-5.583 		"/>
	</g>
	<g>
		<polygon fill="none" stroke="#FFFFFF" stroke-width="4" stroke-miterlimit="10" points="767.154,116.033 717.548,115.788 
			692.952,71.851 717.964,28.159 767.57,28.404 792.165,72.341 		"/>
		<polygon fill="none" stroke="#FFFFFF" stroke-width="4" stroke-miterlimit="10" points="786.127,149.928 698.253,149.494 
			654.685,71.662 698.99,-5.735 786.864,-5.301 830.433,72.53 		"/>
	</g>
	<g>
		<polygon fill="none" stroke="#FFFFFF" stroke-width="4" stroke-miterlimit="10" points="372.802,192.037 323.196,191.792 
			298.601,147.855 323.612,104.163 373.219,104.408 397.814,148.345 		"/>
		<polygon fill="none" stroke="#FFFFFF" stroke-width="4" stroke-miterlimit="10" points="391.776,225.932 303.902,225.498 
			260.333,147.666 304.639,70.269 392.513,70.703 436.081,148.534 		"/>
	</g>
	<g>
		<polygon fill="none" stroke="#FFFFFF" stroke-width="4" stroke-miterlimit="10" points="504.047,269.707 454.44,269.462 
			429.845,225.525 454.856,181.833 504.463,182.078 529.058,226.015 		"/>
		<polygon fill="none" stroke="#FFFFFF" stroke-width="4" stroke-miterlimit="10" points="523.02,303.602 435.146,303.168 
			391.577,225.337 435.883,147.939 523.757,148.373 567.325,226.204 		"/>
	</g>
	<g>
		<polygon fill="none" stroke="#FFFFFF" stroke-width="4" stroke-miterlimit="10" points="636.193,193.363 586.587,193.118 
			561.992,149.181 587.003,105.489 636.609,105.734 661.204,149.671 		"/>
		<polygon fill="none" stroke="#FFFFFF" stroke-width="4" stroke-miterlimit="10" points="655.167,227.257 567.293,226.823 
			523.724,148.992 568.03,71.595 655.904,72.029 699.472,149.86 		"/>
	</g>
	<g>
		<polygon fill="none" stroke="#FFFFFF" stroke-width="4" stroke-miterlimit="10" points="767.154,271.477 717.548,271.232 
			692.952,227.295 717.964,183.603 767.57,183.848 792.165,227.785 		"/>
		<polygon fill="none" stroke="#FFFFFF" stroke-width="4" stroke-miterlimit="10" points="786.127,305.371 698.253,304.937 
			654.685,227.106 698.99,149.708 786.864,150.142 830.433,227.974 		"/>
	</g>
	<g>
		<polygon fill="none" stroke="#FFFFFF" stroke-width="4" stroke-miterlimit="10" points="372.802,347.633 323.196,347.388 
			298.601,303.451 323.612,259.759 373.219,260.004 397.814,303.941 		"/>
		<polygon fill="none" stroke="#FFFFFF" stroke-width="4" stroke-miterlimit="10" points="391.776,381.527 303.902,381.093 
			260.333,303.262 304.639,225.864 392.513,226.298 436.081,304.13 		"/>
	</g>
	<g>
		<polygon fill="none" stroke="#FFFFFF" stroke-width="4" stroke-miterlimit="10" points="504.047,425.303 454.44,425.058 
			429.845,381.121 454.856,337.429 504.463,337.674 529.058,381.611 		"/>
		<polygon fill="none" stroke="#FFFFFF" stroke-width="4" stroke-miterlimit="10" points="523.02,459.197 435.146,458.763 
			391.577,380.932 435.883,303.535 523.757,303.968 567.325,381.8 		"/>
	</g>
	<g>
		<polygon fill="none" stroke="#FFFFFF" stroke-width="4" stroke-miterlimit="10" points="636.193,348.958 586.587,348.713 
			561.992,304.776 587.003,261.084 636.609,261.329 661.204,305.266 		"/>
		<polygon fill="none" stroke="#FFFFFF" stroke-width="4" stroke-miterlimit="10" points="655.167,382.853 567.293,382.419 
			523.724,304.587 568.03,227.19 655.904,227.624 699.472,305.455 		"/>
	</g>
	<g>
		<polygon fill="none" stroke="#FFFFFF" stroke-width="4" stroke-miterlimit="10" points="767.154,427.072 717.548,426.827 
			692.952,382.89 717.964,339.198 767.57,339.443 792.165,383.38 		"/>
		<polygon fill="none" stroke="#FFFFFF" stroke-width="4" stroke-miterlimit="10" points="786.127,460.966 698.253,460.532 
			654.685,382.701 698.99,305.304 786.864,305.738 830.433,383.569 		"/>
	</g>
	<g>
		<polygon fill="none" stroke="#FFFFFF" stroke-width="4" stroke-miterlimit="10" points="372.802,503.076 323.196,502.831 
			298.601,458.894 323.612,415.202 373.219,415.447 397.814,459.384 		"/>
		<polygon fill="none" stroke="#FFFFFF" stroke-width="4" stroke-miterlimit="10" points="391.776,536.97 303.902,536.536 
			260.333,458.705 304.639,381.308 392.513,381.742 436.081,459.573 		"/>
	</g>
	<g>
		<polygon fill="none" stroke="#FFFFFF" stroke-width="4" stroke-miterlimit="10" points="504.047,580.746 454.44,580.501 
			429.845,536.564 454.856,492.872 504.463,493.117 529.058,537.054 		"/>
		<polygon fill="none" stroke="#FFFFFF" stroke-width="4" stroke-miterlimit="10" points="523.02,614.64 435.146,614.206 
			391.577,536.375 435.883,458.978 523.757,459.412 567.325,537.243 		"/>
	</g>
	<g>
		<polygon fill="none" stroke="#FFFFFF" stroke-width="4" stroke-miterlimit="10" points="636.193,504.402 586.587,504.157 
			561.992,460.22 587.003,416.528 636.609,416.773 661.204,460.71 		"/>
		<polygon fill="none" stroke="#FFFFFF" stroke-width="4" stroke-miterlimit="10" points="655.167,538.296 567.293,537.862 
			523.724,460.031 568.03,382.633 655.904,383.067 699.472,460.899 		"/>
	</g>
	<g>
		<polygon fill="none" stroke="#FFFFFF" stroke-width="4" stroke-miterlimit="10" points="767.154,582.515 717.548,582.27 
			692.952,538.333 717.964,494.641 767.57,494.886 792.165,538.823 		"/>
		<polygon fill="none" stroke="#FFFFFF" stroke-width="4" stroke-miterlimit="10" points="786.127,616.409 698.253,615.976 
			654.685,538.144 698.99,460.747 786.864,461.181 830.433,539.012 		"/>
	</g>
	<g>
		<polygon fill="none" stroke="#FFFFFF" stroke-width="4" stroke-miterlimit="10" points="372.802,658.287 323.196,658.042 
			298.601,614.105 323.612,570.413 373.219,570.658 397.814,614.595 		"/>
		<polygon fill="none" stroke="#FFFFFF" stroke-width="4" stroke-miterlimit="10" points="391.776,692.182 303.902,691.748 
			260.333,613.916 304.639,536.519 392.513,536.953 436.081,614.784 		"/>
	</g>
	<g>
		<polygon fill="none" stroke="#FFFFFF" stroke-width="4" stroke-miterlimit="10" points="504.047,735.958 454.44,735.713 
			429.845,691.776 454.856,648.083 504.463,648.328 529.058,692.266 		"/>
		<polygon fill="none" stroke="#FFFFFF" stroke-width="4" stroke-miterlimit="10" points="523.02,769.852 435.146,769.418 
			391.577,691.587 435.883,614.189 523.757,614.623 567.325,692.454 		"/>
	</g>
	<g>
		<polygon fill="none" stroke="#FFFFFF" stroke-width="4" stroke-miterlimit="10" points="636.193,659.613 586.587,659.368 
			561.992,615.431 587.003,571.739 636.609,571.984 661.204,615.921 		"/>
		<polygon fill="none" stroke="#FFFFFF" stroke-width="4" stroke-miterlimit="10" points="655.167,693.507 567.293,693.073 
			523.724,615.242 568.03,537.845 655.904,538.279 699.472,616.11 		"/>
	</g>
	<g>
		<polygon fill="none" stroke="#FFFFFF" stroke-width="4" stroke-miterlimit="10" points="767.154,737.727 717.548,737.482 
			692.952,693.545 717.964,649.853 767.57,650.098 792.165,694.035 		"/>
		<polygon fill="none" stroke="#FFFFFF" stroke-width="4" stroke-miterlimit="10" points="786.127,771.621 698.253,771.187 
			654.685,693.356 698.99,615.958 786.864,616.392 830.433,694.224 		"/>
	</g>
	<g>
		<polygon fill="none" stroke="#FFFFFF" stroke-width="4" stroke-miterlimit="10" points="372.802,813.731 323.196,813.486 
			298.601,769.549 323.612,725.857 373.219,726.102 397.814,770.039 		"/>
		<polygon fill="none" stroke="#FFFFFF" stroke-width="4" stroke-miterlimit="10" points="391.776,847.625 303.902,847.191 
			260.333,769.36 304.639,691.962 392.513,692.396 436.081,770.228 		"/>
	</g>
	<g>
		<polygon fill="none" stroke="#FFFFFF" stroke-width="4" stroke-miterlimit="10" points="504.047,891.401 454.44,891.156 
			429.845,847.219 454.856,803.527 504.463,803.772 529.058,847.709 		"/>
		<polygon fill="none" stroke="#FFFFFF" stroke-width="4" stroke-miterlimit="10" points="523.02,925.295 435.146,924.861 
			391.577,847.03 435.883,769.633 523.757,770.066 567.325,847.898 		"/>
	</g>
	<g>
		<polygon fill="none" stroke="#FFFFFF" stroke-width="4" stroke-miterlimit="10" points="636.193,815.056 586.587,814.811 
			561.992,770.874 587.003,727.182 636.609,727.427 661.204,771.364 		"/>
		<polygon fill="none" stroke="#FFFFFF" stroke-width="4" stroke-miterlimit="10" points="655.167,848.951 567.293,848.517 
			523.724,770.685 568.03,693.288 655.904,693.722 699.472,771.553 		"/>
	</g>
	<g>
		<polygon fill="none" stroke="#FFFFFF" stroke-width="4" stroke-miterlimit="10" points="767.154,893.17 717.548,892.925 
			692.952,848.988 717.964,805.296 767.57,805.541 792.165,849.478 		"/>
		<polygon fill="none" stroke="#FFFFFF" stroke-width="4" stroke-miterlimit="10" points="786.127,927.064 698.253,926.63 
			654.685,848.799 698.99,771.402 786.864,771.836 830.433,849.667 		"/>
	</g>
	<g>
		<polygon fill="none" stroke="#FFFFFF" stroke-width="4" stroke-miterlimit="10" points="898.518,38.221 848.912,37.976 
			824.317,-5.961 849.328,-49.653 898.934,-49.408 923.529,-5.471 		"/>
		<polygon fill="none" stroke="#FFFFFF" stroke-width="4" stroke-miterlimit="10" points="917.491,72.116 829.617,71.682 
			786.049,-6.15 830.354,-83.547 918.228,-83.113 961.797,-5.282 		"/>
	</g>
	<g>
		<polygon fill="none" stroke="#FFFFFF" stroke-width="4" stroke-miterlimit="10" points="898.518,193.665 848.912,193.42 
			824.317,149.483 849.328,105.791 898.934,106.036 923.529,149.973 		"/>
		<polygon fill="none" stroke="#FFFFFF" stroke-width="4" stroke-miterlimit="10" points="917.491,227.559 829.617,227.125 
			786.049,149.294 830.354,71.896 918.228,72.33 961.797,150.162 		"/>
	</g>
	<g>
		<polygon fill="none" stroke="#FFFFFF" stroke-width="4" stroke-miterlimit="10" points="898.518,349.26 848.912,349.015 
			824.317,305.078 849.328,261.386 898.934,261.631 923.529,305.568 		"/>
		<polygon fill="none" stroke="#FFFFFF" stroke-width="4" stroke-miterlimit="10" points="917.491,383.154 829.617,382.72 
			786.049,304.889 830.354,227.492 918.228,227.926 961.797,305.757 		"/>
	</g>
	<g>
		<polygon fill="none" stroke="#FFFFFF" stroke-width="4" stroke-miterlimit="10" points="898.518,504.703 848.912,504.458 
			824.317,460.521 849.328,416.829 898.934,417.074 923.529,461.011 		"/>
		<polygon fill="none" stroke="#FFFFFF" stroke-width="4" stroke-miterlimit="10" points="917.491,538.598 829.617,538.164 
			786.049,460.332 830.354,382.935 918.228,383.369 961.797,461.2 		"/>
	</g>
	<g>
		<polygon fill="none" stroke="#FFFFFF" stroke-width="4" stroke-miterlimit="10" points="898.518,659.915 848.912,659.67 
			824.317,615.733 849.328,572.041 898.934,572.286 923.529,616.223 		"/>
		<polygon fill="none" stroke="#FFFFFF" stroke-width="4" stroke-miterlimit="10" points="917.491,693.809 829.617,693.375 
			786.049,615.544 830.354,538.146 918.228,538.58 961.797,616.412 		"/>
	</g>
	<g>
		<polygon fill="none" stroke="#FFFFFF" stroke-width="4" stroke-miterlimit="10" points="898.518,815.358 848.912,815.113 
			824.317,771.176 849.328,727.484 898.934,727.729 923.529,771.666 		"/>
		<polygon fill="none" stroke="#FFFFFF" stroke-width="4" stroke-miterlimit="10" points="917.491,849.252 829.617,848.818 
			786.049,770.987 830.354,693.59 918.228,694.024 961.797,771.855 		"/>
	</g>
</g>
<g id="Calque_2">
	<g>
		<polygon fill="none" stroke="#FFFFFF" stroke-width="4" stroke-miterlimit="10" points="424.614,147.151 322.567,146.651 
			271.955,60.194 323.391,-25.763 425.439,-25.263 476.05,61.193 		"/>
		<polygon fill="none" stroke="#FFFFFF" stroke-width="4" stroke-miterlimit="10" points="628.708,147.151 526.661,146.651 
			476.05,60.194 527.486,-25.763 629.533,-25.263 680.144,61.193 		"/>
		<polygon fill="none" stroke="#FFFFFF" stroke-width="4" stroke-miterlimit="10" points="832.803,147.151 730.756,146.651 
			680.144,60.194 731.58,-25.763 833.628,-25.263 884.239,61.193 		"/>
		<polygon fill="none" stroke="#FFFFFF" stroke-width="4" stroke-miterlimit="10" points="1036.897,147.151 934.85,146.651 
			884.239,60.194 935.675,-25.763 1037.722,-25.263 1088.333,61.193 		"/>
		<polygon fill="none" stroke="#FFFFFF" stroke-width="4" stroke-miterlimit="10" points="424.614,320.064 322.567,319.564 
			271.955,233.108 323.391,147.151 425.439,147.65 476.05,234.107 		"/>
		<polygon fill="none" stroke="#FFFFFF" stroke-width="4" stroke-miterlimit="10" points="628.708,320.064 526.661,319.564 
			476.05,233.108 527.486,147.151 629.533,147.65 680.144,234.107 		"/>
		<polygon fill="none" stroke="#FFFFFF" stroke-width="4" stroke-miterlimit="10" points="832.803,320.064 730.756,319.564 
			680.144,233.108 731.58,147.151 833.628,147.65 884.239,234.107 		"/>
		<polygon fill="none" stroke="#FFFFFF" stroke-width="4" stroke-miterlimit="10" points="1036.897,320.064 934.85,319.564 
			884.239,233.108 935.675,147.151 1037.722,147.65 1088.333,234.107 		"/>
		<polygon fill="none" stroke="#FFFFFF" stroke-width="4" stroke-miterlimit="10" points="424.614,492.977 322.567,492.478 
			271.955,406.021 323.391,320.064 425.439,320.563 476.05,407.02 		"/>
		<polygon fill="none" stroke="#FFFFFF" stroke-width="4" stroke-miterlimit="10" points="628.708,492.977 526.661,492.478 
			476.05,406.021 527.486,320.064 629.533,320.563 680.144,407.02 		"/>
		<polygon fill="none" stroke="#FFFFFF" stroke-width="4" stroke-miterlimit="10" points="832.803,492.977 730.756,492.478 
			680.144,406.021 731.58,320.064 833.628,320.563 884.239,407.02 		"/>
		<polygon fill="none" stroke="#FFFFFF" stroke-width="4" stroke-miterlimit="10" points="1036.897,492.977 934.85,492.478 
			884.239,406.021 935.675,320.064 1037.722,320.563 1088.333,407.02 		"/>
		<polygon fill="none" stroke="#FFFFFF" stroke-width="4" stroke-miterlimit="10" points="424.614,665.891 322.567,665.391 
			271.955,578.935 323.391,492.977 425.439,493.477 476.05,579.933 		"/>
		<polygon fill="none" stroke="#FFFFFF" stroke-width="4" stroke-miterlimit="10" points="628.708,665.891 526.661,665.391 
			476.05,578.935 527.486,492.977 629.533,493.477 680.144,579.933 		"/>
		<polygon fill="none" stroke="#FFFFFF" stroke-width="4" stroke-miterlimit="10" points="832.803,665.891 730.756,665.391 
			680.144,578.935 731.58,492.977 833.628,493.477 884.239,579.933 		"/>
		<polygon fill="none" stroke="#FFFFFF" stroke-width="4" stroke-miterlimit="10" points="1036.897,665.891 934.85,665.391 
			884.239,578.935 935.675,492.977 1037.722,493.477 1088.333,579.933 		"/>
		<polygon fill="none" stroke="#FFFFFF" stroke-width="4" stroke-miterlimit="10" points="424.614,838.804 322.567,838.305 
			271.955,751.848 323.391,665.891 425.439,666.39 476.05,752.847 		"/>
		<polygon fill="none" stroke="#FFFFFF" stroke-width="4" stroke-miterlimit="10" points="628.708,838.804 526.661,838.305 
			476.05,751.848 527.486,665.891 629.533,666.39 680.144,752.847 		"/>
		<polygon fill="none" stroke="#FFFFFF" stroke-width="4" stroke-miterlimit="10" points="832.803,838.804 730.756,838.305 
			680.144,751.848 731.58,665.891 833.628,666.39 884.239,752.847 		"/>
		<polygon fill="none" stroke="#FFFFFF" stroke-width="4" stroke-miterlimit="10" points="1036.897,838.804 934.85,838.305 
			884.239,751.848 935.675,665.891 1037.722,666.39 1088.333,752.847 		"/>
	</g>
</g>
<rect x="85.823" y="-297.374" opacity="0.9" fill="#ECB62D" enable-background="new    " width="1018.905" height="1432.503"/>
</svg>
