<?xml version="1.0" encoding="utf-8"?>
<!-- Generator: Adobe Illustrator 17.1.0, SVG Export Plug-In . SVG Version: 6.00 Build 0)  -->
<!DOCTYPE svg PUBLIC "-//W3C//DTD SVG 1.1//EN" "http://www.w3.org/Graphics/SVG/1.1/DTD/svg11.dtd">
<svg version="1.1" id="Calque_1" xmlns="http://www.w3.org/2000/svg" xmlns:xlink="http://www.w3.org/1999/xlink" x="0px" y="0px"
	 viewBox="0 0 595.28 841.89" enable-background="new 0 0 595.28 841.89" xml:space="preserve">
<g>
	<path fill="#FFFFFF" d="M-10.492,853.626c-2.88,0-5.759,0-8.639,0c0-288.454,0-576.908,0-865.362
		c209.021,0,418.042-0.004,627.063,0.06c2.16,0.001,4.32,0.9,6.48,1.38c-0.711,1.195-2.037,2.388-2.044,3.587
		c-0.331,60.519-0.733,121.038-0.718,181.557c0.011,43.284,0.511,86.569,1.004,129.85c0.1,8.757,1.147,17.504,1.757,26.255
		c0,68.634,0,137.268,0,205.901c0,13.439,0,26.878,0,40.316c0,92.152,0,184.303,0,276.455c-1.92,0-3.84,0-5.759,0
		c-0.432-13.392-1.199-26.785-1.203-40.177c-0.004-14.132,1.085-28.265,1.047-42.396c-0.071-26.847-0.918-53.693-0.85-80.538
		c0.056-22.276,1.278-44.548,1.384-66.824c0.072-15.082-1.337-30.169-1.309-45.252c0.075-40.024,0.884-80.048,0.777-120.07
		c-0.06-22.523-1.67-45.039-1.995-67.566c-0.27-18.691,0.611-37.398,0.455-56.093c-0.214-25.603-1.162-51.2-1.351-76.803
		c-0.148-20.058,0.579-40.121,0.556-60.181c-0.028-24.88-0.538-49.76-0.637-74.641c-0.099-24.901,0.064-49.803,0.089-74.705
		c0.02-19.323,0.004-38.646,0.004-58.131c-4.978,0-7.94,0-11.171,0c-0.163,2.066-0.399,3.705-0.406,5.344
		c-0.1,25.166-0.432,50.335-0.181,75.498c0.313,31.395,1.139,62.784,1.693,94.177c0.443,25.121,1.054,50.243,1.155,75.366
		c0.141,34.991-0.154,69.984-0.206,104.976c-0.032,21.558-0.138,43.118,0.119,64.673c0.255,21.337,1.343,42.67,1.316,64.004
		c-0.042,33.76-1.136,67.521-1.012,101.279c0.203,55.336,1.068,110.67,1.574,166.005c0.285,31.152,0.369,62.305,0.644,93.457
		c0.055,6.201,0.566,12.398,0.867,18.597c-2.4,0-4.8,0-7.199,0c0.107-3.33,0.426-6.669,0.281-9.988
		c-0.417-9.555-1.475-19.102-1.467-28.651c0.026-31.638,0.767-63.279,0.533-94.914c-0.161-21.737-1.75-43.46-2.173-65.199
		c-0.209-10.756,1.142-21.535,1.128-32.302c-0.022-16.771-0.885-33.541-0.892-50.312c-0.015-34.743,0.609-69.488,0.37-104.228
		c-0.16-23.226-1.726-46.442-1.943-69.669c-0.12-12.905,1.859-25.826,1.799-38.735c-0.132-28.497-1.342-56.99-1.384-85.486
		c-0.038-25.556,1.412-51.117,1.273-76.671c-0.169-31.061-1.549-62.114-1.957-93.177c-0.28-21.336,0.244-42.683,0.33-64.025
		c0.067-16.701,0.013-33.403,0.013-49.972c-4.689,0-7.927,0-11.176,0c0.221,4.313,0.609,8.131,0.58,11.947
		c-0.196,26.362-0.915,52.728-0.615,79.083c0.316,27.755,1.68,55.498,2.395,83.25c0.56,21.749,1.191,43.506,1.141,65.258
		c-0.069,30.649-0.757,61.297-1.143,91.945c-0.381,30.199-0.982,60.398-0.991,90.597c-0.008,25.386,0.89,50.771,1.033,76.158
		c0.179,31.63-0.028,63.262-0.026,94.893c0.002,31.642-0.256,63.289,0.18,94.926c0.41,29.712,1.791,59.409,2.338,89.12
		c0.366,19.867-0.01,39.748,0.012,59.622c0.01,8.843,0.181,17.686,0.279,26.529c-1.92,0-3.84,0-5.76,0
		c0.058-4.312,0.251-8.627,0.153-12.936c-0.665-29.184-1.401-58.365-2.097-87.548c-0.675-28.284-1.672-56.565-1.912-84.852
		c-0.345-40.729-0.076-81.463-0.177-122.195c-0.093-37.39-0.531-74.78-0.429-112.169c0.065-23.727,1.173-47.451,1.226-71.177
		c0.104-46.701-0.288-93.402-0.309-140.103c-0.015-33.283,0.551-66.569,0.254-99.848c-0.169-18.913-2.01-37.81-2.265-56.725
		c-0.27-20.074,0.531-40.161,0.675-60.244c0.037-5.187-0.632-10.379-0.97-15.475c-3.055,0-5.52,0-8.69,0
		c0,16.811-0.152,33.094,0.035,49.373c0.304,26.576,1.067,53.148,1.19,79.723c0.107,23.211-0.727,46.427-0.562,69.636
		c0.256,36.174,1.448,72.345,1.424,108.516c-0.025,37.098-1.486,74.195-1.473,111.292c0.01,29.678,1.541,59.352,1.928,89.034
		c0.372,28.514,0.074,57.037,0.191,85.555c0.152,37.112,0.366,74.224,0.658,111.335c0.292,37.142,0.758,74.283,1.055,111.426
		c0.126,15.793,0.019,31.588,0.017,47.382c-1.92,0-3.84,0-5.76,0c-0.853-31.087-2.068-62.169-2.471-93.262
		c-0.542-41.9-0.455-83.807-0.645-125.712c-0.232-51-0.617-102.001-0.652-153.001c-0.02-28.728,0.688-57.457,0.788-86.186
		c0.136-39.039,0.013-78.079-0.016-117.118c-0.014-19.413,0.035-38.826-0.126-58.238c-0.257-31.04-0.69-62.079-1.003-93.118
		c-0.239-23.719-0.443-47.439-0.591-71.159c-0.091-14.605-0.051-29.211-0.065-43.816c-0.007-7.297-0.001-14.594-0.001-21.817
		c-3.563,0-6.108,0-8.684,0c-0.258,1.028-0.573,1.704-0.576,2.381c-0.159,37.144-0.605,74.291-0.285,111.432
		c0.144,16.724,2.217,33.424,2.694,50.155c0.49,17.212,0.256,34.45,0.066,51.674c-0.349,31.587-1.352,63.172-1.268,94.756
		c0.15,56.292,1.035,112.581,1.345,168.873c0.124,22.517-0.425,45.039-0.736,67.558c-0.195,14.131-1.05,28.275-0.655,42.386
		c0.59,21.043,2.713,42.055,2.928,63.093c0.289,28.234-0.807,56.479-0.954,84.722c-0.115,22.042,0.146,44.089,0.543,66.129
		c0.362,20.093,1.132,40.179,1.722,60.268c-2.88,0-5.759,0-8.639,0c-1.336-287.845-2.673-575.69-4.008-863.287
		c-4.018,0-6.752,0-10.105,0c0,10.553-0.269,20.583,0.066,30.593c0.455,13.623,1.657,27.222,2.006,40.846
		c0.312,12.176-0.206,24.371-0.158,36.556c0.042,10.751,0.529,21.502,0.521,32.252c-0.025,32.339-0.405,64.678-0.243,97.015
		c0.129,25.847,0.284,51.716,1.452,77.529c1.375,30.393-2.915,60.547-0.834,91.151c2.674,39.305,0.23,78.956,0.068,118.457
		c-0.045,11.012,0.136,22.026,0.295,33.037c0.311,21.534,0.607,43.068,1.052,64.599c0.252,12.211,0.724,24.418,1.203,36.623
		c1.342,34.208-3.49,68.236-0.637,102.67c2.798,33.773,0.657,67.956,0.683,101.959c-2.88,0-5.76,0-8.639,0
		c0.341-23.235,0.868-46.47,0.984-69.706c0.25-50.115,0.6-100.232,0.268-150.345c-0.139-21.017-2.534-42.016-2.781-63.037
		c-0.346-29.425,0.246-58.863,0.684-88.292c0.117-7.867,1.727-15.728,1.642-23.581c-0.435-40.274-1.244-80.544-1.839-120.817
		c-0.995-67.319-2.235-134.637-2.765-201.96c-0.287-36.425,0.714-72.859,1.065-109.29c0.117-12.144,0.018-24.291,0.018-36.255
		c-4.209,0-6.935,0-11.194,0c0,32.12-0.062,63.715,0.025,95.308c0.046,16.756,0.56,33.512,0.484,50.266
		c-0.082,17.929-0.855,35.855-0.884,53.783c-0.037,23.227,0.141,46.459,0.63,69.68c0.65,30.882,1.729,61.754,2.549,92.633
		c0.814,30.663,1.953,61.325,2.175,91.992c0.215,29.678-0.672,59.362-0.857,89.045c-0.155,24.908-0.163,49.82,0.088,74.726
		c0.14,13.896,1.457,27.79,1.343,41.678c-0.34,41.461-1.268,82.917-1.684,124.378c-0.267,26.595-0.036,53.196-0.028,79.794
		c-2.88,0-5.759,0-8.639,0c0.375-35.942,0.79-71.883,1.115-107.825c0.271-29.961,0.398-59.923,0.678-89.883
		c0.063-6.706,0.961-13.429,0.674-20.11c-1.06-24.651-3.396-49.285-3.493-73.932c-0.131-33.075,1.838-66.154,2.033-99.236
		c0.17-28.977-0.876-57.96-1.364-86.941c-0.42-24.915-0.726-49.832-1.237-74.746c-0.767-37.362-1.937-74.718-2.417-112.083
		c-0.292-22.738,0.377-45.489,0.64-68.234c0.48-41.48,0.99-82.959,1.435-124.439c0.022-2.036-0.459-4.078-0.745-6.44
		c-3.197,0.144-5.72,0.258-8.774,0.396c0,2.395,0.003,4.275,0,6.155c-0.037,21.58,0.018,43.161-0.135,64.74
		c-0.198,27.994-0.76,55.987-0.794,83.981c-0.03,24.651,0.609,49.302,0.655,73.954c0.035,18.44-0.823,36.888-0.523,55.321
		c0.356,21.807,1.763,43.595,2.283,65.401c0.519,21.796,0.897,43.61,0.631,65.407c-0.374,30.685-1.606,61.36-2.075,92.045
		c-0.337,22.035-0.064,44.079,0.012,66.119c0.048,14.147-0.047,28.303,0.413,42.439c0.975,29.942,3.092,59.869,3.254,89.81
		c0.286,52.697-0.542,105.4-0.904,158.101c-1.44,0-2.88,0-4.32,0c-0.776-37.601-1.614-75.2-2.311-112.803
		c-0.568-30.648-1.164-61.297-1.401-91.949c-0.484-62.57-0.913-125.142-1.009-187.714c-0.05-32.584,0.924-65.169,0.957-97.754
		c0.05-48.623-0.357-97.246-0.501-145.869c-0.084-28.502,0.085-57.005-0.075-85.506c-0.223-39.778-0.658-79.554-0.978-119.331
		c-0.061-7.552-0.009-15.105-0.009-22.383c-4.317,0-7.311,0-10.768,0c0,13.858,0.023,27.211-0.014,40.564
		c-0.011,4.054-0.417,8.116-0.26,12.159c1.464,37.79,3.954,75.494,0.524,113.4c-2.784,30.773-2.181,61.725,2.589,92.438
		c0.731,4.707,0.785,9.557,0.757,14.339c-0.261,44.273-0.579,88.546-0.964,132.818c-0.052,5.984-0.888,11.968-0.815,17.945
		c0.461,38.076,1.31,76.148,1.565,114.224c0.207,30.917-0.435,61.839-0.335,92.757c0.082,25.146,0.616,50.291,1.132,75.433
		c0.207,10.062,1.368,20.119,1.281,30.171c-0.208,23.93-1.113,47.854-1.332,71.783c-0.169,18.423,0.276,36.851,0.449,55.278
		c-2.4,0-4.8,0-7.199,0c-0.27-2.377-0.758-4.751-0.777-7.13c-0.258-31.881-0.436-63.763-0.663-95.644
		c-0.442-62.056-1.105-124.111-1.293-186.168c-0.159-52.243,0.433-104.488,0.313-156.731c-0.131-57.052-0.63-114.104-1.115-171.155
		c-0.169-19.87-1.077-39.735-1.126-59.604c-0.12-47.932,0.072-95.865,0.128-143.797c0.017-14.326,0.003-28.652,0.003-43.166
		c-3.969,0-7.185,0-10.907,0c0,2.526-0.021,4.636,0.003,6.745c0.419,36.909,0.971,73.818,1.232,110.728
		c0.286,40.426,0.192,80.855,0.48,121.281c0.169,23.729,1.033,47.455,1.102,71.184c0.112,38.33-0.392,76.663-0.224,114.993
		c0.147,33.79,1.153,67.577,1.23,101.367c0.067,29.454-0.876,58.91-0.911,88.365c-0.025,20.851,0.914,41.701,1.074,62.554
		c0.229,29.974,0.193,59.951,0.173,89.926c-0.021,32.084-0.155,64.168-0.24,96.251c-1.92,0-3.84,0-5.759,0
		c-0.259-2.856-0.749-5.712-0.739-8.567c0.055-15.567,0.479-31.136,0.321-46.699c-0.466-45.777-1.091-91.553-1.761-137.329
		c-0.483-33.036-1.196-66.068-1.691-99.103c-0.283-18.915-0.665-37.838-0.421-56.749c0.476-36.897,1.879-73.787,1.951-110.682
		c0.1-51.529-0.641-103.061-1.073-154.591c-0.283-33.76-0.844-67.519-0.937-101.279c-0.117-42.917,0.115-85.835,0.193-128.753
		c0.012-6.601,0.002-13.202,0.002-20.148c-3.706,0.177-6.223,0.297-9.714,0.464c0,12.128-0.165,23.6,0.029,35.066
		c0.798,47.122,1.745,94.241,2.554,141.363c0.389,22.686,0.933,45.377,0.801,68.062c-0.182,31.374-1.057,62.744-1.409,94.118
		c-0.339,30.204-0.56,60.412-0.512,90.618c0.036,22.525,0.834,45.048,0.841,67.572c0.01,31.847-0.703,63.697-0.544,95.542
		c0.178,35.721,1.041,71.439,1.501,107.159c0.704,54.645,1.317,109.291,1.969,163.937c-1.92,0-3.84,0-5.759,0
		c-0.721-12.669-1.931-25.332-2.058-38.007c-0.246-24.666,0.42-49.341,0.161-74.006c-0.563-53.652-1.56-107.299-2.194-160.95
		c-0.266-22.524,0.143-45.056-0.121-67.58c-0.326-27.796-1.465-55.587-1.468-83.38c-0.003-34.497,0.937-68.993,1.189-103.491
		c0.112-15.337-0.708-30.68-0.677-46.019c0.098-47.637,0.559-95.273,0.572-142.909c0.009-33.319-0.425-66.639-0.782-99.957
		c-0.168-15.719-0.62-31.435-0.941-47.024c-4.766,0-8.246,0-11.217,0c0,18.222-0.528,35.958,0.123,53.651
		c0.987,26.811,3.167,53.579,4.136,80.39c0.76,21.032,0.484,42.101,0.614,63.155c0.15,24.41,0.711,48.828,0.252,73.227
		c-0.806,42.872-3.054,85.728-3.221,128.597c-0.192,49.377,1.557,98.758,1.844,148.141c0.356,61.354-0.282,122.714,0.223,184.066
		c0.258,31.371,2.169,62.726,3.134,94.094c0.39,12.659,0.25,25.334,0.351,38.002c-2.4,0-4.8,0-7.199,0
		c-0.502-10.227-1.312-20.45-1.456-30.683c-0.787-56.015-1.494-112.031-2.052-168.048c-0.263-26.355-0.199-52.714-0.16-79.071
		c0.044-30.425,0.485-60.852,0.262-91.274c-0.181-24.681-1.345-49.353-1.596-74.034c-0.205-20.136,0.213-40.279,0.501-60.417
		c0.49-34.242,1.183-68.481,1.624-102.723c0.33-25.627,0.883-51.265,0.475-76.884c-0.712-44.784-2.18-89.555-3.132-134.336
		c-0.325-15.284-0.052-30.581-0.052-45.807c-4.308,0-7.023,0-9.931,0c0,27.581-0.313,54.638,0.074,81.684
		c0.565,39.544,2.115,79.077,2.335,118.62c0.182,32.807-1.287,65.621-1.392,98.434c-0.081,25.396,1.289,50.799,1.142,76.193
		c-0.134,23.225-2.061,46.443-2.084,69.666c-0.036,36.126,0.884,72.252,1.373,108.379c0.285,21.031,0.536,42.063,0.77,63.094
		c0.359,32.337,0.723,64.675,1.024,97.013c0.354,38.098,0.571,76.197,1.004,114.294c0.136,11.97,0.78,23.935,1.191,35.902
		c-1.92,0-3.84,0-5.759,0c-0.038-2.634,0.02-5.273-0.129-7.9c-0.937-16.479-2.326-32.945-2.771-49.437
		c-0.419-15.544,0.385-31.117,0.219-46.673c-0.399-37.625-1.401-75.246-1.496-112.871c-0.087-34.49,1.188-68.986,0.956-103.473
		c-0.24-35.665-1.906-71.318-2.303-106.984c-0.247-22.274,1.001-44.561,1.021-66.843c0.018-19.402-1.198-38.809-1.02-58.206
		c0.147-16.023,2.178-32.032,2.229-48.052c0.088-27.517-0.935-55.036-1.056-82.556c-0.062-14.108,2.23-28.344,0.998-42.305
		c-3.107-35.188-2.379-70.381-2.321-105.593c0.018-10.871,0.003-21.743,0.003-33.11c-4.149,0.296-6.409,0.458-9.095,0.65
		c-0.825,22.859-2.379,45.11-2.242,67.351c0.173,27.955,2.038,55.895,2.606,83.852c0.617,30.373,0.795,60.759,0.769,91.139
		c-0.022,24.875-0.578,49.751-1.006,74.625c-0.091,5.254-1.001,10.504-0.947,15.75c0.302,29.431,0.769,58.86,1.209,88.29
		c0.451,30.17,1.064,60.338,1.364,90.509c0.228,22.98,0.241,45.965,0.047,68.945c-0.184,21.806-1.278,43.613-1.042,65.41
		c0.337,31.138,1.676,62.263,2.291,93.4c0.429,21.743,0.272,43.497,0.545,65.244c0.246,19.615,0.718,39.227,1.091,58.84
		c-2.4,0-4.8,0-7.199,0c0.028-3.819,0.152-7.64,0.069-11.457c-0.65-30.162-1.447-60.322-1.984-90.487
		c-0.43-24.188-0.46-48.382-0.86-72.571c-0.254-15.326-1.085-30.644-1.259-45.971c-0.272-23.932-0.253-47.867-0.27-71.801
		c-0.017-24.203-0.013-48.406,0.136-72.608c0.209-34.008,0.66-68.014,0.802-102.022c0.057-13.645-0.757-27.296-0.599-40.938
		c0.271-23.458,0.829-46.916,1.562-70.365c1.315-42.111-3.961-84.156-0.804-126.315c1.106-14.764,0.156-29.699-0.167-44.549
		c-0.568-26.088-1.475-52.168-2.041-78.255c-0.259-11.918-0.044-23.845-0.044-36.125c-3.468,0-6.959,0-11.389,0
		c0,3.466-0.042,6.765,0.006,10.063c0.795,53.689,1.625,107.378,2.386,161.068c0.169,11.945-0.069,23.897,0.191,35.84
		c0.261,11.975,1.29,23.941,1.32,35.913c0.11,43.388-0.124,86.776-0.098,130.164c0.019,30.928,0.535,61.859,0.307,92.785
		c-0.283,38.363-1.718,76.725-1.526,115.082c0.199,39.771,1.903,79.533,2.646,119.304c0.407,21.818,0.242,43.648,0.239,65.472
		c-0.003,32.591-0.091,65.181-0.143,97.772c-2.4,0-4.8,0-7.199,0c-0.316-21.325-0.642-42.649-0.947-63.974
		c-0.315-22.053-0.689-44.106-0.895-66.161c-0.262-28.039-0.665-56.08-0.496-84.117c0.238-39.529,1.426-79.057,1.31-118.583
		c-0.107-36.399-1.608-72.791-2.11-109.192c-0.463-33.53-0.432-67.066-0.589-100.6c-0.195-41.691-0.456-83.382-0.513-125.073
		c-0.07-51.76,0.041-103.52,0.07-155.28c0.008-13.544,0.001-27.088,0.001-40.925c-3.489,0.162-5.802,0.27-9.12,0.424
		c0,9.959,0.083,19.503-0.016,29.046c-0.289,27.987-0.736,55.973-0.951,83.96c-0.141,18.391,0.022,36.784,0.03,55.176
		c0.007,17.947-0.124,35.895,0.005,53.841c0.318,44.333,0.707,88.667,1.154,132.999c0.232,22.97,0.79,45.937,0.929,68.906
		c0.09,14.815-0.691,29.642-0.383,44.449c0.274,13.162,2.308,26.311,2.178,39.453c-0.488,49.138-1.824,98.268-2.241,147.406
		c-0.15,17.677,1.744,35.361,2.066,53.054c0.266,14.603-0.562,29.223-0.641,43.837c-0.199,37.117-0.25,74.235-0.36,111.353
		c-2.88,0-5.759,0-8.639,0c0.075-14.578,0.005-29.159,0.252-43.734c0.678-40.037,1.746-80.07,2.151-120.109
		c0.235-23.251-0.836-46.514-0.736-69.769c0.142-32.839,1.176-65.676,1.147-98.513c-0.018-21.079-1.558-42.152-1.895-63.236
		c-0.69-43.144-1.001-86.294-1.522-129.441c-0.361-29.937-1.209-59.874-1.12-89.809c0.109-36.682,1.196-73.36,1.437-110.043
		c0.234-35.702-0.071-71.408-0.131-107.112c-0.017-10.483-0.003-20.966-0.003-31.557c-3.407,0-6.35,0-9.281,0
		c0,5.013,0.101,9.531-0.016,14.043c-1.068,41.205-2.363,82.404-3.211,123.613c-0.744,36.156-1.526,72.325-1.338,108.483
		c0.241,46.445,1.185,92.89,2.307,139.324c0.724,29.921,2.835,59.812,3.392,89.733c0.825,44.323,1.226,88.664,1.045,132.994
		c-0.145,35.449-1.602,70.89-2.144,106.339c-0.41,26.833-0.15,53.676-0.46,80.512c-0.263,22.762-0.914,45.52-1.394,68.28
		c-1.92,0-3.84,0-5.759,0c0.019-41.691-0.496-83.392,0.208-125.071c0.696-41.219,3.019-82.409,3.841-123.627
		c0.401-20.115-1.428-40.266-1.458-60.402c-0.038-24.91,1.586-49.843,0.959-74.727c-0.791-31.376-3.711-62.695-4.653-94.07
		c-1.173-39.053-1.637-78.139-1.717-117.212c-0.079-38.585,0.49-77.175,1.166-115.755c0.689-39.309,2.026-78.606,2.703-117.915
		c0.2-11.604-0.877-23.23-1.354-34.504c-4.678,0-8.402,0-10.867,0c0,34.788,0.057,69.037-0.016,103.287
		c-0.074,34.98-0.169,69.96-0.459,104.939c-0.194,23.395-1.03,46.787-1.059,70.181c-0.032,26.33,0.208,52.67,0.898,78.99
		c0.867,33.069,2.704,66.114,3.375,99.184c0.497,24.449-0.462,48.924-0.3,73.385c0.223,33.81,1.412,67.62,1.229,101.424
		c-0.21,38.841-1.683,77.674-2.195,116.516c-0.369,27.993-0.162,55.995-0.008,83.992c0.058,10.463,0.695,20.924,1.068,31.385
		c-2.4,0-4.8,0-7.199,0c-0.016-20.353,0.176-40.709-0.101-61.059c-0.345-25.384-1.401-50.762-1.561-76.146
		c-0.218-34.507,0.267-69.019,0.179-103.528c-0.09-35.471-0.684-70.942-0.737-106.413c-0.074-49.845,0.251-99.691,0.207-149.536
		c-0.03-33.699-0.264-67.399-0.657-101.095c-0.414-35.467-1.45-70.929-1.609-106.396c-0.137-30.678,0.824-61.359,0.823-92.039
		c-0.001-20.096-0.835-40.192-1.342-60.287c-0.059-2.32-0.411-4.633-0.613-6.796c-3.568,0-6.552,0-10.206,0
		c0,11.037-0.113,21.565,0.022,32.091c0.328,25.595,0.85,51.187,1.123,76.782c0.092,8.601-1.15,17.282-0.385,25.8
		c3.726,41.469,0.594,82.83-0.835,124.251c-0.674,19.533,0.645,39.148,1.391,58.714c0.528,13.833,2.186,27.64,2.318,41.468
		c0.222,23.253-0.634,46.514-0.495,69.769c0.062,10.49,2.103,20.976,2.05,31.457c-0.097,18.927-1.651,37.85-1.597,56.772
		c0.115,39.782,1.095,79.561,1.287,119.344c0.103,21.274-1.134,42.555-0.979,63.827c0.207,28.532,1.612,57.057,1.69,85.587
		c0.07,25.809-0.951,51.621-1.491,77.431c-2.4,0-4.8,0-7.199,0c-0.373-28.032-1.148-56.066-1.035-84.096
		c0.237-58.504,1.083-117.006,1.368-175.51c0.078-16.04-1.358-32.086-1.344-48.129c0.014-15.325,1.691-30.659,1.458-45.972
		c-0.972-63.74-2.696-127.469-3.538-191.21c-0.595-45.026-0.311-90.065-0.244-135.098c0.069-46.737,0.362-93.473,0.529-140.209
		C300.643,19.089,300.6,4.775,300.6-9.86c-4.896,0-7.896,0-11.288,0c-0.149,1.421-0.374,2.564-0.373,3.706
		c0.027,23.258-0.053,46.518,0.161,69.775c0.303,33.09,1.066,66.176,1.196,99.266c0.174,44.304-0.286,88.61-0.072,132.913
		c0.211,43.613,1.106,87.222,1.372,130.835c0.392,64.245,0.422,128.492,0.748,192.737c0.167,32.828,0.83,65.653,0.915,98.481
		c0.062,24.214-0.633,48.43-0.649,72.646c-0.013,21.042,0.453,42.085,0.708,63.127c-1.92,0-3.84,0-5.759,0
		c-0.576-32.768-1.543-65.535-1.627-98.305c-0.106-40.978,0.743-81.957,0.748-122.936c0.004-31.128-0.786-62.255-1.009-93.384
		c-0.36-50.072-0.407-100.146-0.84-150.218c-0.447-51.743-1.401-103.483-1.752-155.227c-0.302-44.561,0.078-89.126-0.117-133.688
		c-0.155-35.233-0.718-70.465-1.138-105.697c-0.016-1.365-0.439-2.725-0.659-4.009c-2.673,0-4.985,0-7.968,0
		c0,3.64-0.017,6.942,0.003,10.243c0.174,29.945,0.548,59.891,0.472,89.836c-0.064,25.176-1.03,50.353-0.911,75.526
		c0.154,32.562,1.24,65.119,1.461,97.681c0.214,31.597-0.464,63.201-0.208,94.797c0.512,63.059,1.586,126.113,2.062,189.172
		c0.364,48.176,0.178,96.356,0.21,144.534c0.02,30.684,0.019,61.368-0.023,92.052c-0.032,23.207-0.144,46.414-0.221,69.62
		c-1.92,0-3.84,0-5.759,0c-0.181-3.112-0.487-6.222-0.524-9.336c-0.292-24.396-0.573-48.793-0.774-73.19
		c-0.156-18.881-0.292-37.764-0.251-56.645c0.032-14.848,0.543-29.696,0.484-44.543c-0.058-14.62-0.958-29.244-0.783-43.857
		c0.264-22.048,1.718-44.092,1.615-66.132c-0.137-29.472-1.51-58.937-1.912-88.41c-0.281-20.602,0.436-41.216,0.243-61.821
		c-0.332-35.422-1.254-70.839-1.487-106.261c-0.153-23.195,0.902-46.4,0.629-69.592c-0.304-25.837-1.833-51.659-2.191-77.497
		c-0.232-16.748,0.964-33.511,1.012-50.269c0.081-28.513-0.253-57.026-0.383-85.539c-0.046-10.177-0.007-20.355-0.007-30.387
		c-3.855,0-6.899,0-10.501,0c0,8.414,0.095,16.513-0.016,24.609c-0.566,41.195-1.685,82.389-1.632,123.583
		c0.045,34.744,1.85,69.484,2.116,104.232c0.344,45.069-0.422,90.148-0.045,135.216c0.329,39.285,2.023,78.558,2.308,117.842
		c0.306,42.185-0.378,84.376-0.531,126.565c-0.096,26.345-0.13,52.691,0.027,79.036c0.2,33.565,0.662,67.129,0.932,100.694
		c0.139,17.234,0.107,34.47,0.153,51.705c-1.44,0-2.88,0-4.32,0c-0.117-1.423-0.334-2.845-0.336-4.268
		c-0.04-23.186,0.121-46.373-0.117-69.557c-0.292-28.493-0.972-56.981-1.375-85.473c-0.532-37.593-1.009-75.187-1.413-112.781
		c-0.394-36.67-0.805-73.34-0.905-110.011c-0.029-10.756,1.485-21.517,1.423-32.27c-0.264-46.233-0.954-92.463-1.288-138.696
		c-0.249-34.473-0.136-68.948-0.284-103.422c-0.101-23.47-0.341-46.939-0.58-70.408c-0.212-20.848-0.421-41.697-0.796-62.543
		c-0.318-17.683-1.011-35.36-1.248-53.044c-0.092-6.855,0.613-13.72,0.968-20.865c-4.139,0-7.557,0-11.529,0
		c0,11.234-0.276,21.996,0.055,32.739c0.784,25.398,2.962,50.805,2.559,76.177c-0.632,39.792-1.679,79.516,1.459,119.276
		c1.067,13.514-0.573,27.223-0.574,40.844c-0.002,14.816,0.757,29.634,0.65,44.448c-0.133,18.454-1.16,36.903-1.188,55.355
		c-0.065,43.379,0.267,86.759,0.376,130.138c0.1,39.809-0.047,79.619,0.224,119.426c0.227,33.293,0.857,66.584,1.392,99.874
		c0.776,48.354,1.627,96.707,2.446,145.061c-2.88,0-5.759,0-8.639,0c0.47-3.774,1.325-7.545,1.347-11.321
		c0.132-22.749,0.295-45.501,0.021-68.247c-0.312-25.853-1.268-51.698-1.592-77.55c-0.553-44.1-0.994-88.202-1.187-132.304
		c-0.303-69.022-0.277-138.046-0.556-207.068c-0.145-35.919-0.743-71.836-0.95-107.755c-0.139-24.093,0.161-48.188,0.043-72.281
		c-0.058-11.744-0.828-23.484-0.917-35.229c-0.167-22.042,0.095-44.087-0.135-66.127c-0.257-24.686-0.869-49.369-1.304-74.053
		c-0.066-3.757-0.009-7.517-0.009-11.579c-3.039,0-5.802,0-8.511,0c0,18.921-0.188,37.557,0.044,56.188
		c0.345,27.779,1.131,55.553,1.444,83.333c0.172,15.306-0.479,30.621-0.337,45.928c0.271,29.203,1.008,58.403,1.227,87.606
		c0.117,15.562-0.708,31.131-0.631,46.694c0.088,17.706,0.849,35.408,1.062,53.115c0.233,19.386,0.109,38.777,0.264,58.165
		c0.119,14.848,0.736,29.698,0.588,44.541c-0.291,29.239-1.417,58.475-1.354,87.711c0.073,34.238,1.15,68.472,1.597,102.711
		c0.501,38.333,0.855,76.669,1.107,115.004c0.057,8.613-0.879,17.232-0.822,25.845c0.125,18.893,0.592,37.783,0.92,56.674
		c-2.4,0-4.8,0-7.199,0c0.343-35.956,1.031-71.913,0.907-107.867c-0.083-24.189-1.675-48.369-1.942-72.56
		c-0.353-31.854-0.155-63.716-0.03-95.573c0.094-23.732,0.75-47.465,0.611-71.194c-0.177-30.164-1.169-60.324-1.304-90.488
		c-0.098-21.804,1.071-43.614,0.894-65.416c-0.358-44.064-1.256-88.123-1.913-132.185c-0.507-33.957-1.212-67.912-1.414-101.871
		c-0.203-34.024,0.18-68.051,0.141-102.076c-0.009-8.054-0.682-16.107-1.051-24.179c-3.021,0-5.057,0-7.027,0
		c0,21.446,0.147,42.51-0.032,63.57c-0.326,38.359-1.22,76.718-1.116,115.075c0.047,17.431,2.321,34.844,2.836,52.288
		c0.529,17.921,0.263,35.869,0.136,53.804c-0.27,38.085-1.189,76.172-0.911,114.251c0.476,65.203,2.127,130.399,2.411,195.602
		c0.228,52.25-1.014,104.504-1.255,156.758c-0.118,25.615,0.546,51.235,0.879,76.852c0.152,11.736,0.359,23.472,0.541,35.208
		c-2.4,0-4.8,0-7.199,0c-0.21-34.979-0.447-69.958-0.619-104.937c-0.102-20.597-0.051-41.194-0.159-61.791
		c-0.177-33.761-0.581-67.522-0.604-101.283c-0.022-33.034,0.531-66.07,0.394-99.103c-0.064-15.328-1.584-30.648-1.708-45.978
		c-0.243-29.937-0.059-59.879,0.122-89.818c0.12-19.888,0.89-39.778,0.741-59.662c-0.203-27.294-1.02-54.583-1.531-81.875
		c-0.148-7.89-0.205-15.784-0.209-23.675c-0.009-15.58,0.345-31.166,0.002-46.737c-0.411-18.689-2.018-37.367-1.978-56.047
		c0.058-27.063,1.16-54.123,1.733-81.187c0.079-3.757-0.32-7.523-0.491-11.14c-2.986,0-5.442,0-8.553,0
		c0,17.35-0.025,34.125,0.005,50.901c0.058,32.519,0.04,65.038,0.263,97.555c0.138,20.101,1.017,40.2,0.928,60.297
		c-0.13,29.215-1.358,58.432-1.152,87.641c0.23,32.585,1.924,65.158,2.222,97.743c0.155,16.973-2.092,33.971-1.869,50.939
		c0.282,21.556,2.654,43.086,2.902,64.641c0.455,39.537,0.175,79.086-0.132,118.628c-0.123,15.804-1.774,31.609-1.6,47.401
		c0.358,32.537,1.901,65.061,2.155,97.597c0.233,29.959-0.584,59.925-0.939,89.888c-2.88,0-5.759,0-8.639,0
		c0.323-1.631,0.941-3.266,0.923-4.893c-0.125-10.986-0.626-21.972-0.541-32.955c0.113-14.628,0.943-29.252,0.948-43.878
		c0.014-46.525-0.247-93.05-0.337-139.575c-0.139-71.428,0.001-142.858-0.407-214.285c-0.304-53.197-1.371-106.39-1.933-159.586
		c-0.261-24.679-0.18-49.361-0.162-74.042c0.043-60.417,0.139-120.833,0.213-181.25c0.005-4.25,0.001-8.499,0.001-12.798
		c-3.682,0-6.614,0-9.954,0c0,11.56,0.073,22.57-0.014,33.578c-0.249,31.652-0.43,63.305-0.899,94.953
		c-0.287,19.378-1.23,38.745-1.557,58.123c-0.343,20.32-0.171,40.648-0.472,60.969c-0.231,15.557-1.588,31.129-1.128,46.656
		c0.795,26.781,2.827,53.523,3.935,80.298c0.891,21.536,1.114,43.098,1.757,64.645c0.879,29.469,2.799,58.94,2.628,88.401
		c-0.357,61.591-1.793,123.176-2.782,184.764c-0.546,34.011-1.151,68.021-1.593,102.033c-0.211,16.279-0.105,32.563-0.143,48.844
		c-1.92,0-3.84,0-5.759,0c0.019-37.135-0.277-74.273,0.142-111.404c0.446-39.524,1.904-79.038,2.304-118.562
		c0.436-43.111,0.435-86.232,0.087-129.345c-0.174-21.527-1.783-43.038-2.323-64.567c-0.932-37.133-1.603-74.273-2.254-111.413
		c-0.425-24.211-0.919-48.427-0.852-72.64c0.113-40.508,0.611-81.014,1.02-121.521c0.375-37.097,0.861-74.193,1.265-111.29
		c0.082-7.544,0.012-15.089,0.012-22.593c-4.721,0-8.179,0-11.996,0c0,2.367-0.056,4.251,0.009,6.13
		c0.643,18.673,1.828,37.345,1.861,56.019c0.087,48.607-0.341,97.215-0.539,145.822c-0.096,23.708-0.293,47.417-0.165,71.124
		c0.167,30.9,0.428,61.802,0.981,92.697c0.763,42.62,2.202,85.231,2.658,127.854c0.359,33.541-0.526,67.094-0.505,100.641
		c0.023,36.668,0.781,73.337,0.601,110.002c-0.138,28.25-1.557,56.492-1.795,84.742c-0.191,22.763,0.533,45.534,0.851,68.302
		c-1.92,0-3.84,0-5.759,0c0.022-21.98,0.386-43.966-0.026-65.938c-0.448-23.938-2.042-47.856-2.368-71.793
		c-0.486-35.681-0.485-71.371-0.349-107.056c0.18-46.988,0.91-93.975,0.998-140.964c0.085-45.529-0.331-91.06-0.551-136.59
		c-0.205-42.358-0.191-84.719-0.766-127.072c-0.302-22.261-2.072-44.501-2.447-66.763c-0.62-36.912-0.671-73.835-0.915-110.753
		c-0.08-12.146-0.013-24.294-0.013-36.413c-3.482,0-6.228,0-8.333,0c0,18.631-0.194,36.793,0.064,54.948
		c0.191,13.408,1.407,26.809,1.37,40.211c-0.04,14.341-1.541,28.681-1.468,43.017c0.137,26.845,2.678,53.79,1.058,80.503
		c-2.193,36.165-2.86,72.082,0.667,108.181c1.647,16.862,0.894,33.961,1.19,50.953c0.45,25.837,1.281,51.676,1.198,77.511
		c-0.122,38.099-1.316,76.196-1.272,114.293c0.033,28.512,1.634,57.019,1.92,85.534c0.285,28.475-0.242,56.958-0.326,85.438
		c-0.046,15.809,0.44,31.627,0.058,47.425c-0.607,25.116-1.739,50.219-2.649,75.327c-1.92,0-3.84,0-5.759,0
		c-0.068-36.401-0.131-72.802-0.204-109.203c-0.064-31.882-0.031-63.765-0.24-95.646c-0.208-31.849-0.843-63.696-0.955-95.545
		c-0.105-29.954,0.54-59.912,0.3-89.863c-0.455-56.811-1.371-113.619-1.965-170.429c-0.305-29.194-0.404-58.39-0.452-87.586
		c-0.03-17.956,0.318-35.912,0.312-53.868c-0.014-41.94-0.021-83.88-0.295-125.819c-0.078-11.858-1.068-23.709-1.642-35.588
		c-3.76,0-6.573,0-9.435,0c0,17.26-0.113,34.247,0.02,51.232c0.477,60.871,1.131,121.74,1.527,182.612
		c0.201,30.904-0.301,61.814,0.037,92.716c0.627,57.286,1.827,114.565,2.422,171.851c0.391,37.623,0.125,75.253,0.181,112.879
		c0.054,36.414,0.165,72.828,0.21,109.242c0.035,28.282-0.003,56.565,0.012,84.847c0.01,19.389,0.055,38.778,0.085,58.167
		c-1.92,0-3.84,0-5.759,0c-0.508-21.051-1.287-42.101-1.445-63.155c-0.142-18.935,0.772-37.88,0.564-56.813
		c-0.568-51.775-1.857-103.544-2.137-155.32c-0.208-38.57,1.214-77.149,1.005-115.718c-0.255-46.979-1.67-93.951-2.144-140.93
		c-0.179-17.713,1.362-35.441,1.262-53.158c-0.208-37.142-1.029-74.28-1.511-111.421c-0.311-23.955-0.581-47.912-0.667-71.869
		c-0.113-31.726-0.028-63.453-0.028-95.623c-4.696,0.267-7.204,0.409-9.023,0.513c0,23.444,0.025,46.188-0.005,68.932
		c-0.052,39.796-0.454,79.594-0.106,119.386c0.259,29.624,1.923,59.236,2.131,88.86c0.22,31.368-0.914,62.744-0.795,94.114
		c0.24,63.758,0.964,127.514,1.413,191.272c0.324,46.012,0.563,92.024,0.763,138.037c0.084,19.404-0.241,38.812,0.001,58.214
		c0.248,19.865,0.851,39.727,1.51,59.583c0.499,15.038,1.33,30.066,2.013,45.098c-2.4,0-4.8,0-7.199,0
		c-0.164-2.13-0.462-4.26-0.47-6.39c-0.065-19.396,0.162-38.796-0.169-58.186c-0.422-24.679-1.508-49.347-1.902-74.026
		c-0.523-32.818-0.597-65.642-0.971-98.462c-0.404-35.474-1.266-70.945-1.317-106.419c-0.057-39.772,0.548-79.546,0.908-119.318
		c0.258-28.507,1.058-57.019,0.776-85.52c-0.445-44.985-1.705-89.961-2.416-134.943c-0.731-46.274-1.258-92.552-1.788-138.829
		c-0.158-13.803-0.024-27.61-0.024-41.409c-3.804,0-6.375,0-10.191,0c0,26.112-0.138,51.933,0.04,77.752
		c0.168,24.44,0.363,48.887,1.084,73.314c1.378,46.659,3.394,93.299,4.61,139.961c0.467,17.925-0.383,35.893-0.897,53.834
		c-0.679,23.71-2.327,47.414-2.269,71.117c0.077,31.367,1.561,62.728,2.126,94.097c0.303,16.781-0.059,33.573-0.109,50.361
		c-0.103,34.746-0.208,69.492-0.294,104.238c-0.046,18.671-0.815,37.379,0.068,56.007c2.256,47.589,5.466,95.139,3.126,142.823
		c-1.92,0-3.84,0-5.759,0c-0.949-35.897-2.292-71.789-2.76-107.693c-0.815-62.516-1.084-125.04-1.596-187.56
		c-0.312-38.086-0.74-76.171-0.952-114.258c-0.199-35.653-0.356-71.307-0.186-106.959c0.084-17.468,1.541-34.939,1.346-52.397
		c-0.42-37.562-1.584-75.114-2.304-112.674c-0.859-44.825-1.641-89.652-2.31-134.481c-0.235-15.742-0.038-31.491-0.038-47.52
		c-3.213,0-6.492,0-10.574,0c0,11.386-0.307,22.574,0.059,33.739c0.976,29.709,2.606,59.4,3.288,89.115
		c0.643,27.999,0.318,56.019,0.581,84.029c0.333,35.422,1.037,70.841,1.181,106.264c0.089,21.794-0.928,43.593-0.788,65.386
		c0.131,20.367,1.794,40.733,1.623,61.09c-0.419,49.843-2.072,99.679-2.127,149.519c-0.036,32.343,2.178,64.683,2.822,97.035
		c0.838,42.127,1.217,84.265,1.591,126.4c0.151,16.986-0.234,33.977-0.375,50.965c-1.92,0-3.84,0-5.759,0
		c-0.887-52.916-1.737-105.833-2.676-158.748c-0.549-30.916-1.805-61.831-1.763-92.745c0.123-90.125,0.808-180.249,1.114-270.373
		c0.08-23.68-0.472-47.363-0.631-71.045c-0.149-22.268,0.105-44.543-0.319-66.805c-0.351-18.421-1.7-36.822-2.116-55.243
		c-0.481-21.288-0.32-42.59-0.633-63.883c-0.246-16.758-0.891-33.511-1.163-50.269C63.208,13.098,63.358,1.676,63.358-9.81
		c-3.777,0-6.796,0-10.385,0c0.97,21.701,2.357,42.975,2.73,64.267c0.28,16.006-1.312,32.044-1.054,48.051
		c0.423,26.308,1.831,52.599,2.516,78.905c0.523,20.065,0.697,40.142,0.793,60.215c0.108,22.686,0,45.373-0.098,68.059
		c-0.097,22.504-0.252,45.008-0.482,67.511c-0.076,7.409-0.848,14.826-0.63,22.22c0.417,14.111,1.853,28.207,1.901,42.312
		c0.091,26.329-0.701,52.66-0.767,78.991c-0.073,28.971,0.363,57.944,0.377,86.916c0.011,21.744-0.32,43.488-0.448,65.232
		c-0.067,11.482-0.342,22.976,0.051,34.444c0.442,12.916,1.922,25.801,2.237,38.717c0.402,16.509,0.128,33.035,0.074,49.554
		c-0.043,13.16-0.376,26.322-0.217,39.479c0.075,6.192,1.003,12.374,1.545,18.561c-2.4,0-4.8,0-7.199,0
		c0.039-29.478,0.285-58.957,0.066-88.433c-0.272-36.645-1.074-73.286-1.381-109.931c-0.388-46.246-0.451-92.495-0.762-138.742
		c-0.207-30.888-0.867-61.775-0.83-92.661c0.033-27.054,1.039-54.108,1.081-81.162c0.032-20.319-0.942-40.638-1.188-60.96
		c-0.476-39.273-0.743-78.549-1.118-117.823c-0.228-23.894-0.513-47.788-0.744-71.682c-0.238-24.67-0.335-49.343-0.714-74.011
		C48.571,8.944,47.81-0.324,47.317-9.87c-2.011-0.145-3.162-0.32-4.305-0.284c-1.134,0.036-2.262,0.286-4.807,0.638
		c-0.239,25.214-0.876,50.291-0.583,75.357c0.223,19.112,2.057,38.202,2.382,57.315c0.333,19.62-0.523,39.257-0.457,58.885
		c0.144,42.626,0.52,85.251,0.858,127.876c0.082,10.293,0.441,20.583,0.569,30.875c0.201,16.275,0.48,32.552,0.415,48.828
		c-0.057,14.348-0.825,28.695-0.773,43.041c0.118,32.573,0.74,65.146,0.781,97.719c0.027,21.795-1.063,43.597-0.829,65.387
		c0.562,52.398,1.832,104.789,2.378,157.188c0.35,33.553-0.081,67.114-0.162,100.671c-2.88,0-5.759,0-8.639,0
		c0.356-12.432,0.913-24.861,1.032-37.295c0.471-49.146,1.13-98.293,1.059-147.439c-0.039-27.019-1.748-54.032-2.036-81.054
		c-0.214-20.131,0.727-40.273,0.989-60.412c0.134-10.281-0.216-20.567-0.128-30.85c0.161-18.901,0.852-37.804,0.638-56.698
		c-0.217-19.174-1.514-38.334-1.875-57.508c-0.41-21.794,0.068-43.607-0.511-65.394c-0.992-37.386-3.014-74.75-3.644-112.139
		c-0.541-32.073,0.214-64.169,0.48-96.254c0.248-29.97,0.63-59.938,0.904-89.908c0.087-9.496,0.014-18.994,0.014-28.569
		c-4.083,0-6.647,0-9.6,0c-0.143,1.632-0.352,3.01-0.373,4.392c-0.489,32.105-0.811,64.214-1.475,96.316
		c-0.529,25.585-2.179,51.165-2.053,76.741c0.162,32.779,1.449,65.557,2.539,98.326c1.13,33.983,3.12,67.945,3.803,101.935
		c0.958,47.663,1.176,95.343,1.491,143.017c0.376,56.798,0.633,113.596,0.711,170.395c0.034,25.173-0.473,50.348-0.781,75.521
		c-0.396,32.293-0.84,64.585-1.263,96.877c-2.88,0-5.759,0-8.639,0c0.182-0.693,0.504-1.381,0.527-2.079
		c1.416-42.357,3.313-84.706,4.046-127.075c0.61-35.197-0.033-70.419-0.337-105.628c-0.323-37.357-1.314-74.713-1.247-112.068
		c0.063-35.454,2.319-70.936,1.452-106.353c-1.288-52.658-4.756-105.258-6.738-157.904c-1.017-27.023-1.485-54.104-1.033-81.138
		c0.793-47.435,2.528-94.854,3.765-142.283C16.109,9.59,15.896,0.07,15.896-9.634c-3.398,0-7.038,0-11.037,0
		c0,3.184,0.03,5.807-0.005,8.429C4.585,18.909,4.404,39.025,4,59.136c-0.559,27.795-1.632,55.584-1.835,83.38
		c-0.159,21.768,0.802,43.542,1.024,65.316c0.234,22.923-0.295,45.863,0.365,68.771c1.02,35.44,3.444,70.848,4.027,106.29
		c0.674,40.951,0.02,81.924-0.1,122.888c-0.104,35.683-0.618,71.369-0.287,107.047c0.254,27.316,2.366,54.628,2.197,81.932
		c-0.328,52.959-1.678,105.911-2.605,158.866c-1.92,0-3.84,0-5.759,0c-0.494-21.088-1.291-42.174-1.418-63.264
		c-0.23-38.103-0.172-76.208-0.028-114.312c0.171-45.321,0.798-90.642,0.79-135.962c-0.008-48.425-0.406-96.85-0.857-145.274
		c-0.339-36.418-1.108-72.833-1.529-109.251c-0.175-15.101,0.302-30.211,0.05-45.31c-0.404-24.137-1.39-48.265-1.703-72.403
		c-0.208-16.032,0.512-32.074,0.491-48.112c-0.037-28.51-0.35-57.02-0.488-85.53C-3.734,19.651-3.676,5.092-3.676-9.763
		c-3.392,0-6.361,0-8.874,0c0,7.783,0.198,15.142-0.04,22.488c-0.541,16.739-1.764,33.468-1.851,50.206
		c-0.123,23.461,0.89,46.929,0.728,70.389c-0.102,14.821-2.379,29.652-2.068,44.445c0.683,32.576,2.728,65.123,3.562,97.698
		c0.601,23.477-0.134,46.985,0.28,70.47c0.198,11.23,2.378,22.436,2.405,33.655c0.034,13.87-1.851,27.745-1.829,41.616
		c0.071,44.347,0.708,88.693,0.991,133.041c0.173,27.038-0.016,54.078,0.171,81.115c0.133,19.171,0.555,38.341,0.978,57.508
		c0.285,12.928,1.28,25.859,1.083,38.775c-0.238,15.543-1.82,31.064-2.074,46.607C-10.628,803.37-10.432,828.5-10.492,853.626z
		 M-16.708,658.941c-0.177,0-0.354,0.001-0.531,0.001c0,13.018,0,26.036,0,39.054c0.177,0,0.354,0,0.531-0.001
		C-16.708,684.978-16.708,671.96-16.708,658.941z"/>
	<path d="M343.716,853.626c0.48-22.76,1.131-45.518,1.394-68.28c0.31-26.836,0.05-53.679,0.46-80.512
		c0.542-35.45,1.999-70.891,2.144-106.339c0.181-44.33-0.22-88.67-1.045-132.994c-0.557-29.922-2.668-59.812-3.392-89.733
		c-1.123-46.434-2.066-92.879-2.307-139.324c-0.188-36.158,0.594-72.327,1.338-108.483c0.848-41.209,2.143-82.409,3.211-123.613
		c0.117-4.512,0.016-9.03,0.016-14.043c2.931,0,5.874,0,9.281,0c0,10.591-0.015,21.074,0.003,31.557
		c0.059,35.704,0.365,71.41,0.131,107.112c-0.241,36.683-1.328,73.361-1.437,110.043c-0.089,29.935,0.759,59.872,1.12,89.809
		c0.521,43.147,0.832,86.297,1.522,129.441c0.337,21.084,1.876,42.157,1.895,63.236c0.029,32.837-1.005,65.674-1.147,98.513
		c-0.1,23.255,0.971,46.517,0.736,69.769c-0.405,40.039-1.472,80.072-2.151,120.109c-0.247,14.575-0.177,29.156-0.252,43.734
		C351.395,853.626,347.555,853.626,343.716,853.626z"/>
	<path d="M42.783,853.626c0.081-33.557,0.512-67.118,0.162-100.671c-0.546-52.399-1.816-104.79-2.378-157.188
		c-0.234-21.79,0.857-43.591,0.829-65.387c-0.041-32.573-0.663-65.145-0.781-97.719c-0.052-14.346,0.716-28.693,0.773-43.041
		c0.064-16.275-0.214-32.552-0.415-48.828c-0.127-10.293-0.487-20.583-0.569-30.875c-0.338-42.625-0.714-85.25-0.858-127.876
		c-0.066-19.628,0.79-39.265,0.457-58.885c-0.325-19.113-2.159-38.204-2.382-57.315c-0.292-25.066,0.345-50.143,0.583-75.357
		c2.545-0.351,3.673-0.601,4.807-0.638c1.143-0.037,2.293,0.139,4.305,0.284c0.493,9.546,1.254,18.814,1.396,28.091
		c0.379,24.668,0.476,49.341,0.714,74.011c0.231,23.894,0.516,47.788,0.744,71.682c0.375,39.274,0.642,78.55,1.118,117.823
		c0.246,20.322,1.22,40.641,1.188,60.96c-0.042,27.055-1.048,54.108-1.081,81.162c-0.038,30.887,0.623,61.774,0.83,92.661
		c0.31,46.247,0.374,92.496,0.762,138.742c0.307,36.645,1.109,73.286,1.381,109.931c0.219,29.476-0.027,58.955-0.066,88.433
		C50.462,853.626,46.623,853.626,42.783,853.626z"/>
	<path d="M258.764,853.626c-0.045-17.235-0.014-34.47-0.153-51.705c-0.27-33.565-0.732-67.128-0.932-100.694
		c-0.157-26.344-0.123-52.691-0.027-79.036c0.153-42.189,0.837-84.38,0.531-126.565c-0.285-39.284-1.979-78.558-2.308-117.842
		c-0.378-45.069,0.389-90.147,0.045-135.216c-0.265-34.748-2.071-69.487-2.116-104.232c-0.053-41.193,1.066-82.388,1.632-123.583
		c0.111-8.096,0.016-16.195,0.016-24.609c3.601,0,6.646,0,10.501,0c0,10.032-0.039,20.21,0.007,30.387
		c0.13,28.513,0.464,57.027,0.383,85.539c-0.048,16.758-1.244,33.521-1.012,50.269c0.358,25.838,1.886,51.66,2.191,77.497
		c0.273,23.191-0.782,46.397-0.629,69.592c0.234,35.422,1.156,70.839,1.487,106.261c0.193,20.605-0.524,41.219-0.243,61.821
		c0.402,29.474,1.775,58.938,1.912,88.41c0.103,22.041-1.351,44.084-1.615,66.132c-0.175,14.614,0.725,29.237,0.783,43.857
		c0.059,14.847-0.452,29.695-0.484,44.543c-0.041,18.881,0.095,37.764,0.251,56.645c0.202,24.397,0.483,48.794,0.774,73.19
		c0.037,3.114,0.343,6.224,0.524,9.336C266.443,853.626,262.603,853.626,258.764,853.626z"/>
	<path d="M6.786,853.626c0.927-52.955,2.278-105.907,2.605-158.866c0.169-27.305-1.944-54.616-2.197-81.932
		c-0.331-35.678,0.183-71.364,0.287-107.047c0.119-40.964,0.774-81.937,0.1-122.888c-0.583-35.442-3.007-70.85-4.027-106.29
		c-0.659-22.908-0.131-45.848-0.365-68.771c-0.222-21.774-1.183-43.548-1.024-65.316C2.368,114.72,3.442,86.931,4,59.136
		C4.404,39.025,4.585,18.909,4.854-1.205C4.889-3.827,4.859-6.45,4.859-9.634c4,0,7.64,0,11.037,0
		c0,9.704,0.212,19.224-0.036,28.732c-1.237,47.429-2.972,94.848-3.765,142.283c-0.452,27.035,0.016,54.115,1.033,81.138
		c1.982,52.646,5.45,105.246,6.738,157.904c0.866,35.417-1.389,70.899-1.452,106.353c-0.066,37.355,0.925,74.711,1.247,112.068
		c0.304,35.209,0.946,70.431,0.337,105.628c-0.734,42.369-2.63,84.718-4.046,127.075c-0.023,0.698-0.345,1.386-0.527,2.079
		C12.546,853.626,9.666,853.626,6.786,853.626z"/>
	<path d="M329.317,853.626c-0.373-10.462-1.011-20.922-1.068-31.385c-0.155-27.997-0.361-55.999,0.008-83.992
		c0.512-38.842,1.985-77.675,2.195-116.516c0.183-33.805-1.006-67.614-1.229-101.424c-0.161-24.46,0.797-48.936,0.3-73.385
		c-0.672-33.071-2.509-66.116-3.375-99.184c-0.69-26.321-0.93-52.66-0.898-78.99c0.029-23.394,0.865-46.786,1.059-70.181
		c0.29-34.978,0.385-69.959,0.459-104.939c0.073-34.25,0.016-68.499,0.016-103.287c2.464,0,6.189,0,10.867,0
		c0.477,11.274,1.554,22.9,1.354,34.504c-0.677,39.309-2.015,78.606-2.703,117.915c-0.676,38.581-1.245,77.171-1.166,115.755
		c0.08,39.073,0.545,78.158,1.717,117.212c0.942,31.375,3.862,62.694,4.653,94.07c0.627,24.884-0.997,49.817-0.959,74.727
		c0.031,20.136,1.859,40.286,1.458,60.402c-0.822,41.218-3.145,82.408-3.841,123.627c-0.704,41.68-0.189,83.38-0.208,125.071
		C335.077,853.626,332.197,853.626,329.317,853.626z"/>
	<path d="M173.811,853.626c0.038-16.281-0.068-32.565,0.143-48.844c0.442-34.012,1.047-68.022,1.593-102.033
		c0.988-61.588,2.424-123.172,2.782-184.764c0.171-29.461-1.749-58.932-2.628-88.401c-0.643-21.547-0.866-43.109-1.757-64.645
		c-1.108-26.775-3.14-53.517-3.935-80.298c-0.461-15.526,0.897-31.099,1.128-46.656c0.301-20.321,0.129-40.649,0.472-60.969
		c0.327-19.378,1.27-38.745,1.557-58.123c0.469-31.649,0.65-63.302,0.899-94.953c0.087-11.008,0.014-22.018,0.014-33.578
		c3.34,0,6.271,0,9.954,0c0,4.299,0.005,8.549-0.001,12.798c-0.074,60.417-0.17,120.833-0.213,181.25
		c-0.018,24.681-0.099,49.364,0.162,74.042c0.562,53.196,1.629,106.389,1.933,159.586c0.408,71.427,0.268,142.857,0.407,214.285
		c0.091,46.525,0.351,93.05,0.337,139.575c-0.004,14.626-0.835,29.25-0.948,43.878c-0.085,10.983,0.416,21.969,0.541,32.955
		c0.019,1.627-0.599,3.262-0.923,4.893C181.491,853.626,177.651,853.626,173.811,853.626z"/>
	<path d="M293.32,853.626c-0.255-21.042-0.721-42.085-0.708-63.127c0.015-24.215,0.711-48.431,0.649-72.646
		c-0.085-32.827-0.749-65.653-0.915-98.481c-0.326-64.245-0.356-128.492-0.748-192.737c-0.266-43.613-1.162-87.222-1.372-130.835
		c-0.214-44.303,0.246-88.61,0.072-132.913c-0.13-33.09-0.893-66.176-1.196-99.266c-0.213-23.257-0.133-46.517-0.161-69.775
		c-0.001-1.142,0.224-2.285,0.373-3.706c3.391,0,6.392,0,11.288,0c0,14.635,0.043,28.949-0.008,43.263
		c-0.166,46.736-0.459,93.473-0.529,140.209c-0.067,45.033-0.351,90.072,0.244,135.098c0.842,63.741,2.566,127.47,3.538,191.21
		c0.233,15.312-1.444,30.647-1.458,45.972c-0.014,16.043,1.422,32.088,1.344,48.129c-0.285,58.504-1.13,117.006-1.368,175.51
		c-0.114,28.03,0.662,56.064,1.035,84.096C300.04,853.626,296.68,853.626,293.32,853.626z"/>
	<path d="M24.065,853.626c0.423-32.292,0.867-64.585,1.263-96.877c0.309-25.173,0.816-50.348,0.781-75.521
		c-0.078-56.799-0.335-113.598-0.711-170.395c-0.315-47.674-0.533-95.354-1.491-143.017c-0.683-33.99-2.673-67.951-3.803-101.935
		c-1.09-32.769-2.378-65.547-2.539-98.326c-0.126-25.576,1.524-51.156,2.053-76.741c0.664-32.102,0.987-64.21,1.475-96.316
		c0.021-1.381,0.23-2.76,0.373-4.392c2.953,0,5.517,0,9.6,0c0,9.575,0.073,19.073-0.014,28.569
		c-0.274,29.97-0.656,59.938-0.904,89.908c-0.266,32.085-1.021,64.181-0.48,96.254c0.631,37.389,2.652,74.753,3.644,112.139
		c0.578,21.787,0.101,43.6,0.511,65.394c0.361,19.175,1.658,38.335,1.875,57.508c0.214,18.894-0.477,37.798-0.638,56.698
		c-0.088,10.282,0.262,20.569,0.128,30.85c-0.263,20.139-1.204,40.281-0.989,60.412c0.288,27.023,1.997,54.036,2.036,81.054
		c0.071,49.146-0.588,98.293-1.059,147.439c-0.119,12.434-0.676,24.864-1.032,37.295C30.784,853.626,27.424,853.626,24.065,853.626z
		"/>
	<path d="M310.599,853.626c0.54-25.81,1.562-51.622,1.491-77.431c-0.078-28.53-1.482-57.055-1.69-85.587
		c-0.155-21.272,1.082-42.553,0.979-63.827c-0.192-39.782-1.172-79.562-1.287-119.344c-0.055-18.922,1.5-37.845,1.597-56.772
		c0.053-10.482-1.988-20.967-2.05-31.457c-0.138-23.255,0.718-46.517,0.495-69.769c-0.132-13.828-1.79-27.635-2.318-41.468
		c-0.747-19.565-2.065-39.18-1.391-58.714c1.429-41.42,4.561-82.782,0.835-124.251c-0.765-8.519,0.476-17.199,0.385-25.8
		c-0.273-25.595-0.795-51.188-1.123-76.782C306.387,11.897,306.5,1.369,306.5-9.668c3.654,0,6.638,0,10.206,0
		c0.202,2.162,0.555,4.475,0.613,6.796c0.507,20.095,1.341,40.191,1.342,60.287c0.001,30.68-0.96,61.361-0.823,92.039
		c0.159,35.467,1.195,70.929,1.609,106.396c0.393,33.696,0.628,67.396,0.657,101.095c0.044,49.845-0.281,99.691-0.207,149.536
		c0.053,35.471,0.647,70.941,0.737,106.413c0.088,34.509-0.397,69.02-0.179,103.528c0.161,25.384,1.216,50.761,1.561,76.146
		c0.277,20.35,0.085,40.706,0.101,61.059C318.278,853.626,314.438,853.626,310.599,853.626z"/>
	<path d="M382.592,853.626c0.052-32.591,0.139-65.181,0.143-97.772c0.002-21.825,0.168-43.654-0.239-65.472
		c-0.742-39.771-2.447-79.533-2.646-119.304c-0.192-38.357,1.243-76.719,1.526-115.082c0.228-30.926-0.288-61.856-0.307-92.785
		c-0.026-43.388,0.208-86.776,0.098-130.164c-0.03-11.972-1.06-23.938-1.32-35.913c-0.26-11.942-0.022-23.894-0.191-35.84
		c-0.761-53.69-1.591-107.379-2.386-161.068c-0.049-3.298-0.006-6.598-0.006-10.063c4.43,0,7.921,0,11.389,0
		c0,12.28-0.215,24.208,0.044,36.125c0.566,26.088,1.473,52.168,2.041,78.255c0.323,14.85,1.273,29.785,0.167,44.549
		c-3.157,42.159,2.119,84.204,0.804,126.315c-0.732,23.449-1.291,46.907-1.562,70.365c-0.158,13.642,0.656,27.293,0.599,40.938
		c-0.142,34.008-0.593,68.014-0.802,102.022c-0.149,24.202-0.153,48.405-0.136,72.608c0.017,23.934-0.002,47.869,0.27,71.801
		c0.174,15.326,1.005,30.644,1.259,45.971c0.4,24.188,0.43,48.383,0.86,72.571c0.537,30.164,1.333,60.324,1.984,90.487
		c0.082,3.817-0.041,7.638-0.069,11.457C390.272,853.626,386.432,853.626,382.592,853.626z"/>
	<path d="M244.365,853.626c-0.819-48.353-1.67-96.706-2.446-145.061c-0.534-33.29-1.164-66.581-1.392-99.874
		c-0.272-39.807-0.124-79.617-0.224-119.426c-0.109-43.38-0.441-86.759-0.376-130.138c0.028-18.452,1.055-36.901,1.188-55.355
		c0.107-14.813-0.652-29.632-0.65-44.448c0.002-13.62,1.641-27.33,0.574-40.844c-3.139-39.76-2.091-79.485-1.459-119.276
		c0.403-25.371-1.775-50.778-2.559-76.177c-0.332-10.743-0.055-21.505-0.055-32.739c3.972,0,7.39,0,11.529,0
		c-0.356,7.145-1.06,14.01-0.968,20.865c0.237,17.684,0.93,35.361,1.248,53.044c0.375,20.846,0.583,41.694,0.796,62.543
		c0.239,23.469,0.479,46.938,0.58,70.408c0.148,34.474,0.035,68.949,0.284,103.422c0.333,46.233,1.024,92.463,1.288,138.696
		c0.062,10.754-1.452,21.515-1.423,32.27c0.1,36.671,0.511,73.342,0.905,110.011c0.404,37.594,0.881,75.188,1.413,112.781
		c0.403,28.492,1.083,56.98,1.375,85.473c0.238,23.184,0.077,46.371,0.117,69.557c0.002,1.423,0.219,2.845,0.336,4.268
		C251.084,853.626,247.725,853.626,244.365,853.626z"/>
	<path d="M600.013,853.626c-0.301-6.199-0.813-12.396-0.867-18.597c-0.275-31.152-0.359-62.305-0.644-93.457
		c-0.506-55.335-1.37-110.669-1.574-166.005c-0.124-33.758,0.97-67.519,1.012-101.279c0.026-21.334-1.062-42.667-1.316-64.004
		c-0.258-21.555-0.151-43.115-0.119-64.673c0.052-34.992,0.347-69.985,0.206-104.976c-0.101-25.123-0.712-50.245-1.155-75.366
		c-0.554-31.393-1.38-62.782-1.693-94.177c-0.251-25.163,0.081-50.332,0.181-75.498c0.007-1.639,0.243-3.278,0.406-5.344
		c3.231,0,6.192,0,11.171,0c0,19.485,0.016,38.808-0.004,58.131c-0.025,24.902-0.188,49.804-0.089,74.705
		c0.099,24.881,0.609,49.76,0.637,74.641c0.023,20.06-0.704,40.124-0.556,60.181c0.189,25.603,1.137,51.2,1.351,76.803
		c0.156,18.695-0.725,37.401-0.455,56.093c0.325,22.527,1.935,45.043,1.995,67.566c0.107,40.022-0.702,80.046-0.777,120.07
		c-0.028,15.083,1.381,30.17,1.309,45.252c-0.106,22.276-1.328,44.548-1.384,66.824c-0.068,26.845,0.779,53.691,0.85,80.538
		c0.037,14.131-1.052,28.264-1.047,42.396c0.004,13.392,0.771,26.785,1.203,40.177C605.772,853.626,602.892,853.626,600.013,853.626
		z"/>
	<path d="M516.5,853.626c-0.008-26.598-0.239-53.199,0.028-79.794c0.416-41.461,1.344-82.917,1.684-124.378
		c0.114-13.888-1.203-27.781-1.343-41.678c-0.25-24.907-0.243-49.818-0.088-74.726c0.185-29.683,1.072-59.367,0.857-89.045
		c-0.222-30.668-1.361-61.33-2.175-91.992c-0.819-30.879-1.899-61.751-2.549-92.633c-0.489-23.221-0.667-46.453-0.63-69.68
		c0.029-17.928,0.802-35.855,0.884-53.783c0.077-16.754-0.437-33.51-0.484-50.266c-0.087-31.594-0.025-63.188-0.025-95.308
		c4.259,0,6.985,0,11.194,0c0,11.965,0.099,24.111-0.018,36.255c-0.351,36.431-1.352,72.865-1.065,109.29
		c0.53,67.323,1.769,134.641,2.765,201.96c0.596,40.273,1.404,80.543,1.839,120.817c0.085,7.853-1.525,15.713-1.642,23.581
		c-0.438,29.429-1.03,58.868-0.684,88.292c0.247,21.021,2.642,42.02,2.781,63.037c0.332,50.112-0.017,100.23-0.268,150.345
		c-0.116,23.236-0.643,46.471-0.984,69.706C523.22,853.626,519.86,853.626,516.5,853.626z"/>
	<path d="M582.734,853.626c-0.098-8.843-0.27-17.686-0.279-26.529c-0.022-19.875,0.354-39.755-0.012-59.622
		c-0.548-29.711-1.928-59.408-2.338-89.12c-0.436-31.637-0.178-63.284-0.18-94.926c-0.002-31.631,0.205-63.263,0.026-94.893
		c-0.143-25.387-1.041-50.772-1.033-76.158c0.01-30.199,0.61-60.398,0.991-90.597c0.387-30.649,1.074-61.296,1.143-91.945
		c0.049-21.752-0.581-43.509-1.141-65.258c-0.715-27.753-2.079-55.495-2.395-83.25c-0.3-26.355,0.419-52.721,0.615-79.083
		c0.028-3.815-0.36-7.634-0.58-11.947c3.248,0,6.487,0,11.176,0c0,16.569,0.054,33.27-0.013,49.972
		c-0.086,21.342-0.61,42.688-0.33,64.025c0.408,31.063,1.788,62.116,1.957,93.177c0.139,25.554-1.311,51.114-1.273,76.671
		c0.042,28.496,1.252,56.989,1.384,85.486c0.06,12.909-1.92,25.83-1.799,38.735c0.217,23.227,1.782,46.443,1.943,69.669
		c0.24,34.74-0.384,69.485-0.37,104.228c0.007,16.771,0.871,33.541,0.892,50.312c0.014,10.768-1.338,21.547-1.128,32.302
		c0.423,21.739,2.012,43.463,2.173,65.199c0.234,31.635-0.507,63.276-0.533,94.914c-0.008,9.549,1.051,19.096,1.467,28.651
		c0.145,3.319-0.174,6.658-0.281,9.988C589.454,853.626,586.094,853.626,582.734,853.626z"/>
	<path d="M-10.492,853.626c0.061-25.126-0.136-50.256,0.276-75.376c0.255-15.543,1.836-31.065,2.074-46.607
		c0.198-12.916-0.797-25.847-1.083-38.775c-0.423-19.167-0.845-38.337-0.978-57.508c-0.187-27.037,0.002-54.077-0.171-81.115
		c-0.283-44.347-0.92-88.694-0.991-133.041c-0.022-13.871,1.863-27.745,1.829-41.616c-0.027-11.22-2.207-22.425-2.405-33.655
		c-0.414-23.484,0.321-46.993-0.28-70.47c-0.834-32.575-2.878-65.121-3.562-97.698c-0.31-14.793,1.966-29.624,2.068-44.445
		c0.162-23.46-0.851-46.928-0.728-70.389c0.088-16.738,1.31-33.467,1.851-50.206c0.238-7.346,0.04-14.705,0.04-22.488
		c2.514,0,5.482,0,8.874,0c0,14.856-0.058,29.415,0.012,43.973c0.138,28.51,0.451,57.02,0.488,85.53
		c0.021,16.037-0.699,32.079-0.491,48.112c0.313,24.137,1.299,48.266,1.703,72.403c0.253,15.099-0.224,30.209-0.05,45.31
		c0.421,36.418,1.189,72.832,1.529,109.251c0.451,48.423,0.849,96.849,0.857,145.274c0.007,45.321-0.619,90.641-0.79,135.962
		c-0.144,38.104-0.202,76.209,0.028,114.312c0.127,21.09,0.923,42.176,1.418,63.264C-2.813,853.626-6.652,853.626-10.492,853.626z"
		/>
	<path d="M124.856,853.626c-0.03-19.389-0.075-38.778-0.085-58.167c-0.015-28.282,0.023-56.565-0.012-84.847
		c-0.045-36.414-0.156-72.828-0.21-109.242c-0.056-37.627,0.21-75.256-0.181-112.879c-0.595-57.286-1.795-114.566-2.422-171.851
		c-0.338-30.902,0.164-61.812-0.037-92.716c-0.396-60.871-1.05-121.741-1.527-182.612c-0.133-16.985-0.02-33.972-0.02-51.232
		c2.862,0,5.675,0,9.435,0c0.573,11.879,1.564,23.731,1.642,35.588c0.274,41.939,0.281,83.879,0.295,125.819
		c0.006,17.956-0.342,35.912-0.312,53.868c0.048,29.196,0.146,58.392,0.452,87.586c0.594,56.81,1.511,113.618,1.965,170.429
		c0.24,29.952-0.406,59.91-0.3,89.863c0.112,31.849,0.747,63.696,0.955,95.545c0.208,31.881,0.176,63.764,0.24,95.646
		c0.073,36.401,0.136,72.802,0.204,109.203C131.575,853.626,128.215,853.626,124.856,853.626z"/>
	<path d="M417.149,853.626c-0.411-11.967-1.055-23.932-1.191-35.902c-0.433-38.097-0.65-76.196-1.004-114.294
		c-0.301-32.338-0.665-64.675-1.024-97.013c-0.233-21.032-0.485-42.063-0.77-63.094c-0.489-36.126-1.409-72.253-1.373-108.379
		c0.023-23.222,1.949-46.44,2.084-69.666c0.147-25.395-1.223-50.797-1.142-76.193c0.104-32.813,1.574-65.626,1.392-98.434
		c-0.22-39.543-1.77-79.077-2.335-118.62c-0.387-27.046-0.074-54.102-0.074-81.684c2.909,0,5.623,0,9.931,0
		c0,15.226-0.273,30.523,0.052,45.807c0.952,44.781,2.419,89.552,3.132,134.336c0.407,25.619-0.145,51.257-0.475,76.884
		c-0.441,34.242-1.134,68.481-1.624,102.723c-0.288,20.138-0.706,40.282-0.501,60.417c0.251,24.681,1.415,49.354,1.596,74.034
		c0.223,30.422-0.218,60.849-0.262,91.274c-0.038,26.357-0.102,52.716,0.16,79.071c0.558,56.017,1.265,112.033,2.052,168.048
		c0.144,10.232,0.954,20.455,1.456,30.683C423.869,853.626,420.509,853.626,417.149,853.626z"/>
	<path d="M140.694,853.626c0.91-25.109,2.042-50.212,2.649-75.327c0.382-15.799-0.104-31.617-0.058-47.425
		c0.083-28.48,0.611-56.962,0.326-85.438c-0.286-28.515-1.887-57.022-1.92-85.534c-0.044-38.097,1.15-76.194,1.272-114.293
		c0.083-25.836-0.748-51.674-1.198-77.511c-0.296-16.992,0.458-34.091-1.19-50.953c-3.527-36.099-2.859-72.016-0.667-108.181
		c1.62-26.712-0.921-53.658-1.058-80.503c-0.073-14.336,1.428-28.677,1.468-43.017c0.037-13.402-1.179-26.803-1.37-40.211
		c-0.258-18.155-0.064-36.317-0.064-54.948c2.106,0,4.851,0,8.333,0c0,12.119-0.067,24.266,0.013,36.413
		c0.243,36.918,0.294,73.841,0.915,110.753c0.374,22.262,2.144,44.502,2.447,66.763c0.575,42.353,0.561,84.714,0.766,127.072
		c0.22,45.53,0.636,91.06,0.551,136.59c-0.088,46.988-0.818,93.975-0.998,140.964c-0.136,35.685-0.136,71.376,0.349,107.056
		c0.326,23.937,1.92,47.856,2.368,71.793c0.411,21.972,0.048,43.958,0.026,65.938C149.333,853.626,145.014,853.626,140.694,853.626z
		"/>
	<path d="M464.665,853.626c0.085-32.084,0.218-64.167,0.24-96.251c0.02-29.976,0.056-59.952-0.173-89.926
		c-0.159-20.853-1.099-41.703-1.074-62.554c0.035-29.455,0.978-58.911,0.911-88.365c-0.077-33.79-1.082-67.577-1.23-101.367
		c-0.167-38.33,0.337-76.662,0.224-114.993c-0.069-23.729-0.933-47.454-1.102-71.184c-0.289-40.426-0.195-80.855-0.48-121.281
		c-0.261-36.91-0.813-73.819-1.232-110.728c-0.024-2.109-0.003-4.219-0.003-6.745c3.722,0,6.938,0,10.907,0
		c0,14.514,0.014,28.84-0.003,43.166c-0.057,47.932-0.248,95.865-0.128,143.797c0.05,19.869,0.957,39.734,1.126,59.604
		c0.486,57.051,0.984,114.103,1.115,171.155c0.12,52.243-0.472,104.488-0.313,156.731c0.188,62.057,0.851,124.112,1.293,186.168
		c0.227,31.881,0.405,63.763,0.663,95.644c0.019,2.379,0.507,4.753,0.777,7.13C472.344,853.626,468.505,853.626,464.665,853.626z"/>
	<path d="M434.428,853.626c-0.101-12.668,0.039-25.343-0.351-38.002c-0.966-31.368-2.876-62.723-3.134-94.094
		c-0.505-61.352,0.133-122.712-0.223-184.066c-0.287-49.383-2.036-98.764-1.844-148.141c0.167-42.869,2.414-85.725,3.221-128.597
		c0.459-24.399-0.102-48.818-0.252-73.227c-0.129-21.053,0.146-42.123-0.614-63.155c-0.969-26.812-3.148-53.579-4.136-80.39
		c-0.652-17.692-0.123-35.428-0.123-53.651c2.972,0,6.451,0,11.217,0c0.321,15.589,0.773,31.305,0.941,47.024
		c0.357,33.318,0.791,66.638,0.782,99.957c-0.013,47.636-0.474,95.273-0.572,142.909c-0.032,15.339,0.789,30.682,0.677,46.019
		c-0.253,34.498-1.192,68.994-1.189,103.491c0.002,27.793,1.142,55.585,1.468,83.38c0.264,22.524-0.145,45.056,0.121,67.58
		c0.634,53.651,1.63,107.298,2.194,160.95c0.259,24.665-0.408,49.34-0.161,74.006c0.127,12.675,1.337,25.338,2.058,38.007
		C441.147,853.626,437.787,853.626,434.428,853.626z"/>
	<path d="M77.34,853.626c0.141-16.989,0.526-33.979,0.375-50.965c-0.374-42.135-0.753-84.272-1.591-126.4
		c-0.644-32.352-2.858-64.692-2.822-97.035c0.055-49.84,1.708-99.677,2.127-149.519c0.171-20.357-1.492-40.724-1.623-61.09
		c-0.14-21.793,0.877-43.592,0.788-65.386c-0.144-35.422-0.848-70.842-1.181-106.264c-0.263-28.009,0.061-56.029-0.581-84.029
		c-0.682-29.714-2.312-59.405-3.288-89.115C69.177,12.658,69.485,1.47,69.485-9.916c4.082,0,7.361,0,10.574,0
		c0,16.029-0.197,31.778,0.038,47.52c0.669,44.828,1.451,89.655,2.31,134.481c0.72,37.559,1.884,75.112,2.304,112.674
		c0.195,17.458-1.262,34.929-1.346,52.397c-0.171,35.652-0.013,71.307,0.186,106.959c0.212,38.086,0.64,76.172,0.952,114.258
		c0.512,62.52,0.78,125.044,1.596,187.56c0.468,35.904,1.811,71.796,2.76,107.693C85.019,853.626,81.18,853.626,77.34,853.626z"/>
	<path d="M94.618,853.626c2.34-47.684-0.87-95.234-3.126-142.823c-0.883-18.628-0.114-37.336-0.068-56.007
		c0.086-34.746,0.19-69.492,0.294-104.238c0.05-16.787,0.412-33.58,0.109-50.361c-0.566-31.369-2.049-62.73-2.126-94.097
		c-0.058-23.703,1.59-47.407,2.269-71.117c0.514-17.941,1.364-35.909,0.897-53.834c-1.215-46.662-3.232-93.303-4.61-139.961
		c-0.721-24.428-0.916-48.874-1.084-73.314c-0.177-25.819-0.04-51.641-0.04-77.752c3.816,0,6.387,0,10.191,0
		c0,13.799-0.134,27.606,0.024,41.409c0.53,46.277,1.057,92.555,1.788,138.829c0.711,44.983,1.971,89.959,2.416,134.943
		c0.282,28.501-0.517,57.013-0.776,85.52c-0.36,39.772-0.965,79.546-0.908,119.318c0.051,35.474,0.913,70.945,1.317,106.419
		c0.374,32.82,0.448,65.645,0.971,98.462c0.394,24.679,1.48,49.347,1.902,74.026c0.332,19.391,0.104,38.791,0.169,58.186
		c0.007,2.131,0.306,4.26,0.47,6.39C101.338,853.626,97.978,853.626,94.618,853.626z"/>
	<path d="M276.042,853.626c0.077-23.207,0.189-46.414,0.221-69.62c0.042-30.684,0.044-61.368,0.023-92.052
		c-0.032-48.178,0.154-96.359-0.21-144.534c-0.476-63.059-1.551-126.113-2.062-189.172c-0.256-31.596,0.422-63.2,0.208-94.797
		c-0.221-32.562-1.307-65.119-1.461-97.681c-0.119-25.173,0.847-50.35,0.911-75.526c0.076-29.945-0.298-59.891-0.472-89.836
		c-0.019-3.301-0.003-6.603-0.003-10.243c2.983,0,5.294,0,7.968,0c0.22,1.284,0.643,2.644,0.659,4.009
		c0.421,35.232,0.984,70.464,1.138,105.697c0.195,44.562-0.185,89.127,0.117,133.688c0.351,51.744,1.305,103.483,1.752,155.227
		c0.433,50.071,0.48,100.146,0.84,150.218c0.224,31.129,1.013,62.256,1.009,93.384c-0.005,40.979-0.853,81.958-0.748,122.936
		c0.084,32.769,1.052,65.537,1.627,98.305C283.721,853.626,279.882,853.626,276.042,853.626z"/>
	<path d="M483.383,853.626c-0.172-18.426-0.618-36.855-0.449-55.278c0.22-23.93,1.124-47.854,1.332-71.783
		c0.088-10.052-1.074-20.108-1.281-30.171c-0.516-25.142-1.051-50.287-1.132-75.433c-0.1-30.918,0.542-61.84,0.335-92.757
		c-0.255-38.076-1.104-76.148-1.565-114.224c-0.072-5.977,0.763-11.961,0.815-17.945c0.385-44.272,0.704-88.545,0.964-132.818
		c0.028-4.782-0.026-9.632-0.757-14.339c-4.77-30.714-5.373-61.665-2.589-92.438c3.429-37.906,0.94-75.61-0.524-113.4
		c-0.157-4.044,0.249-8.106,0.26-12.159c0.038-13.353,0.014-26.706,0.014-40.564c3.458,0,6.452,0,10.768,0
		c0,7.278-0.052,14.831,0.009,22.383c0.32,39.777,0.754,79.554,0.978,119.331c0.16,28.501-0.009,57.004,0.075,85.506
		c0.144,48.623,0.551,97.246,0.501,145.869c-0.034,32.585-1.007,65.17-0.957,97.754c0.096,62.572,0.525,125.144,1.009,187.714
		c0.237,30.651,0.833,61.301,1.401,91.949c0.697,37.602,1.534,75.202,2.311,112.803
		C491.062,853.626,487.223,853.626,483.383,853.626z"/>
	<path d="M363.874,853.626c0.11-37.118,0.161-74.236,0.36-111.353c0.078-14.614,0.906-29.234,0.641-43.837
		c-0.322-17.693-2.215-35.378-2.066-53.054c0.417-49.138,1.753-98.268,2.241-147.406c0.13-13.141-1.904-26.291-2.178-39.453
		c-0.308-14.807,0.473-29.633,0.383-44.449c-0.139-22.97-0.697-45.937-0.929-68.906c-0.447-44.332-0.836-88.665-1.154-132.999
		c-0.129-17.946,0.002-35.894-0.005-53.841c-0.007-18.392-0.171-36.785-0.03-55.176c0.215-27.987,0.662-55.973,0.951-83.96
		c0.098-9.543,0.016-19.087,0.016-29.046c3.318-0.154,5.63-0.262,9.12-0.424c0,13.838,0.007,27.382-0.001,40.925
		c-0.029,51.76-0.14,103.52-0.07,155.28c0.057,41.691,0.318,83.382,0.513,125.073c0.157,33.534,0.126,67.07,0.589,100.6
		c0.503,36.4,2.003,72.793,2.11,109.192c0.116,39.526-1.072,79.054-1.31,118.583c-0.169,28.037,0.234,56.079,0.496,84.117
		c0.206,22.054,0.58,44.107,0.895,66.161c0.305,21.325,0.63,42.649,0.947,63.974C371.553,853.626,367.714,853.626,363.874,853.626z"
		/>
	<path d="M499.222,853.626c0.362-52.701,1.19-105.404,0.904-158.101c-0.163-29.941-2.28-59.868-3.254-89.81
		c-0.46-14.136-0.365-28.292-0.413-42.439c-0.075-22.04-0.348-44.085-0.012-66.119c0.469-30.685,1.701-61.359,2.075-92.045
		c0.266-21.797-0.112-43.611-0.631-65.407c-0.52-21.806-1.927-43.594-2.283-65.401c-0.301-18.432,0.557-36.88,0.523-55.321
		c-0.046-24.652-0.685-49.303-0.655-73.954c0.034-27.994,0.596-55.986,0.794-83.981c0.153-21.579,0.098-43.16,0.135-64.74
		c0.003-1.88,0-3.76,0-6.155c3.054-0.138,5.578-0.252,8.774-0.396c0.286,2.362,0.767,4.404,0.745,6.44
		c-0.445,41.48-0.955,82.959-1.435,124.439c-0.263,22.745-0.931,45.496-0.64,68.234c0.48,37.365,1.65,74.721,2.417,112.083
		c0.512,24.913,0.817,49.83,1.237,74.746c0.489,28.981,1.535,57.964,1.364,86.941c-0.194,33.082-2.163,66.161-2.033,99.236
		c0.097,24.647,2.434,49.28,3.493,73.932c0.287,6.681-0.611,13.403-0.674,20.11c-0.28,29.961-0.407,59.923-0.678,89.883
		c-0.325,35.942-0.739,71.883-1.115,107.825C504.981,853.626,502.101,853.626,499.222,853.626z"/>
	<path d="M61.501,853.626c-0.542-6.187-1.47-12.369-1.545-18.561c-0.159-13.157,0.174-26.319,0.217-39.479
		c0.054-16.519,0.328-33.045-0.074-49.554c-0.314-12.916-1.795-25.801-2.237-38.717c-0.392-11.469-0.118-22.962-0.051-34.444
		c0.128-21.744,0.459-43.488,0.448-65.232c-0.014-28.972-0.45-57.944-0.377-86.916c0.066-26.331,0.858-52.662,0.767-78.991
		c-0.049-14.105-1.484-28.201-1.901-42.312c-0.219-7.394,0.554-14.811,0.63-22.22c0.23-22.503,0.385-45.007,0.482-67.511
		c0.098-22.686,0.206-45.373,0.098-68.059c-0.096-20.073-0.27-40.15-0.793-60.215c-0.685-26.306-2.093-52.597-2.516-78.905
		c-0.257-16.007,1.335-32.045,1.054-48.051c-0.373-21.292-1.76-42.566-2.73-64.267c3.589,0,6.608,0,10.385,0
		c0,11.486-0.15,22.908,0.036,34.324c0.273,16.758,0.917,33.511,1.163,50.269c0.313,21.293,0.152,42.595,0.633,63.883
		c0.416,18.421,1.766,36.822,2.116,55.243c0.424,22.262,0.169,44.537,0.319,66.805c0.159,23.682,0.712,47.364,0.631,71.045
		c-0.306,90.125-0.991,180.249-1.114,270.373c-0.042,30.914,1.214,61.829,1.763,92.745c0.939,52.915,1.789,105.832,2.676,158.748
		C68.221,853.626,64.861,853.626,61.501,853.626z"/>
	<path d="M401.311,853.626c-0.373-19.613-0.845-39.225-1.091-58.84c-0.272-21.747-0.115-43.501-0.545-65.244
		c-0.615-31.137-1.954-62.262-2.291-93.4c-0.236-21.797,0.858-43.605,1.042-65.41c0.194-22.98,0.181-45.965-0.047-68.945
		c-0.3-30.171-0.913-60.339-1.364-90.509c-0.44-29.429-0.906-58.859-1.209-88.29c-0.054-5.246,0.856-10.495,0.947-15.75
		c0.428-24.874,0.984-49.749,1.006-74.625c0.026-30.38-0.151-60.766-0.769-91.139c-0.568-27.958-2.433-55.898-2.606-83.852
		c-0.137-22.241,1.416-44.492,2.242-67.351c2.686-0.192,4.946-0.353,9.095-0.65c0,11.368,0.015,22.239-0.003,33.11
		c-0.059,35.212-0.786,70.405,2.321,105.593c1.233,13.961-1.059,28.197-0.998,42.305c0.121,27.52,1.144,55.039,1.056,82.556
		c-0.051,16.019-2.082,32.029-2.229,48.052c-0.178,19.397,1.038,38.804,1.02,58.206c-0.021,22.282-1.269,44.569-1.021,66.843
		c0.396,35.666,2.063,71.319,2.303,106.984c0.232,34.487-1.044,68.983-0.956,103.473c0.095,37.624,1.097,75.246,1.496,112.871
		c0.165,15.556-0.639,31.129-0.219,46.673c0.445,16.492,1.834,32.958,2.771,49.437c0.149,2.627,0.091,5.267,0.129,7.9
		C408.03,853.626,404.67,853.626,401.311,853.626z"/>
	<path d="M159.413,853.626c-0.318-22.768-1.042-45.539-0.851-68.302c0.237-28.251,1.657-56.493,1.795-84.742
		c0.179-36.666-0.578-73.335-0.601-110.002c-0.021-33.547,0.864-67.1,0.505-100.641c-0.456-42.622-1.896-85.233-2.658-127.854
		c-0.553-30.895-0.814-61.797-0.981-92.697c-0.128-23.707,0.068-47.416,0.165-71.124c0.198-48.608,0.626-97.215,0.539-145.822
		c-0.033-18.674-1.218-37.346-1.861-56.019c-0.065-1.879-0.009-3.762-0.009-6.13c3.818,0,7.276,0,11.996,0
		c0,7.504,0.07,15.049-0.012,22.593c-0.403,37.097-0.89,74.193-1.265,111.29c-0.409,40.506-0.907,81.013-1.02,121.521
		c-0.068,24.212,0.427,48.428,0.852,72.64c0.651,37.14,1.322,74.28,2.254,111.413c0.54,21.529,2.15,43.04,2.323,64.567
		c0.348,43.112,0.349,86.233-0.087,129.345c-0.4,39.524-1.858,79.038-2.304,118.562c-0.419,37.13-0.123,74.269-0.142,111.404
		C165.172,853.626,162.292,853.626,159.413,853.626z"/>
	<path d="M227.086,853.626c-0.328-18.891-0.795-37.781-0.92-56.674c-0.057-8.613,0.879-17.232,0.822-25.845
		c-0.253-38.336-0.607-76.671-1.107-115.004c-0.447-34.238-1.524-68.473-1.597-102.711c-0.062-29.236,1.063-58.472,1.354-87.711
		c0.148-14.843-0.47-29.693-0.588-44.541c-0.155-19.388-0.031-38.778-0.264-58.165c-0.213-17.707-0.973-35.409-1.062-53.115
		c-0.078-15.563,0.747-31.132,0.631-46.694c-0.219-29.204-0.956-58.403-1.227-87.606c-0.142-15.307,0.509-30.622,0.337-45.928
		c-0.313-27.779-1.099-55.553-1.444-83.333c-0.232-18.631-0.044-37.267-0.044-56.188c2.709,0,5.472,0,8.511,0
		c0,4.062-0.057,7.821,0.009,11.579c0.435,24.685,1.047,49.367,1.304,74.053c0.229,22.041-0.033,44.086,0.135,66.127
		c0.089,11.745,0.859,23.485,0.917,35.229c0.119,24.093-0.182,48.188-0.043,72.281c0.207,35.919,0.805,71.836,0.95,107.755
		c0.279,69.022,0.253,138.046,0.556,207.068c0.193,44.102,0.634,88.205,1.187,132.304c0.324,25.853,1.28,51.698,1.592,77.55
		c0.274,22.746,0.112,45.498-0.021,68.247c-0.022,3.776-0.877,7.548-1.347,11.321C232.846,853.626,229.966,853.626,227.086,853.626z
		"/>
	<path d="M566.896,853.626c0.001-15.794,0.109-31.589-0.017-47.382c-0.297-37.142-0.763-74.283-1.055-111.426
		c-0.292-37.111-0.506-74.223-0.658-111.335c-0.117-28.518,0.181-57.041-0.191-85.555c-0.387-29.682-1.918-59.356-1.928-89.034
		c-0.013-37.097,1.448-74.194,1.473-111.292c0.025-36.172-1.167-72.342-1.424-108.516c-0.165-23.21,0.669-46.426,0.562-69.636
		c-0.123-26.576-0.885-53.148-1.19-79.723c-0.186-16.279-0.035-32.562-0.035-49.373c3.17,0,5.634,0,8.69,0
		c0.338,5.096,1.008,10.288,0.97,15.475c-0.145,20.083-0.945,40.17-0.675,60.244c0.254,18.915,2.096,37.812,2.265,56.725
		c0.297,33.279-0.269,66.565-0.254,99.848c0.021,46.701,0.412,93.403,0.309,140.103c-0.053,23.726-1.161,47.45-1.226,71.177
		c-0.102,37.389,0.336,74.779,0.429,112.169c0.101,40.732-0.168,81.466,0.177,122.195c0.24,28.288,1.237,56.569,1.912,84.852
		c0.696,29.183,1.432,58.365,2.097,87.548c0.098,4.309-0.095,8.624-0.153,12.936C573.615,853.626,570.255,853.626,566.896,853.626z"
		/>
	<path d="M211.248,853.626c-0.182-11.736-0.389-23.472-0.541-35.208c-0.333-25.617-0.997-51.237-0.879-76.852
		c0.241-52.254,1.483-104.508,1.255-156.758c-0.285-65.203-1.935-130.399-2.411-195.602c-0.278-38.079,0.641-76.167,0.911-114.251
		c0.127-17.935,0.393-35.884-0.136-53.804c-0.515-17.443-2.788-34.857-2.836-52.288c-0.104-38.357,0.79-76.716,1.116-115.075
		c0.179-21.061,0.032-42.124,0.032-63.57c1.97,0,4.007,0,7.027,0c0.369,8.072,1.041,16.125,1.051,24.179
		c0.04,34.025-0.344,68.052-0.141,102.076c0.202,33.959,0.907,67.914,1.414,101.871c0.657,44.062,1.555,88.121,1.913,132.185
		c0.177,21.801-0.991,43.612-0.894,65.416c0.135,30.164,1.127,60.324,1.304,90.488c0.139,23.729-0.518,47.462-0.611,71.194
		c-0.126,31.858-0.323,63.719,0.03,95.573c0.268,24.191,1.859,48.372,1.942,72.56c0.124,35.954-0.565,71.911-0.907,107.867
		C217.007,853.626,214.128,853.626,211.248,853.626z"/>
	<path d="M193.969,853.626c0.355-29.963,1.172-59.93,0.939-89.888c-0.253-32.536-1.797-65.061-2.155-97.597
		c-0.174-15.792,1.477-31.596,1.6-47.401c0.307-39.542,0.587-79.09,0.132-118.628c-0.248-21.555-2.619-43.085-2.902-64.641
		c-0.222-16.969,2.024-33.966,1.869-50.939c-0.298-32.585-1.992-65.159-2.222-97.743c-0.206-29.209,1.022-58.426,1.152-87.641
		c0.089-20.097-0.79-40.197-0.928-60.297c-0.223-32.518-0.205-65.037-0.263-97.555c-0.03-16.775-0.005-33.551-0.005-50.901
		c3.111,0,5.568,0,8.553,0c0.171,3.617,0.571,7.384,0.491,11.14c-0.573,27.063-1.675,54.124-1.733,81.187
		c-0.04,18.68,1.567,37.358,1.978,56.047c0.343,15.571-0.011,31.157-0.002,46.737c0.004,7.892,0.061,15.785,0.209,23.675
		c0.512,27.292,1.328,54.581,1.531,81.875c0.148,19.884-0.622,39.773-0.741,59.662c-0.181,29.939-0.365,59.881-0.122,89.818
		c0.124,15.33,1.645,30.65,1.708,45.978c0.137,33.033-0.416,66.069-0.394,99.103c0.023,33.761,0.426,67.522,0.604,101.283
		c0.108,20.597,0.057,41.194,0.159,61.791c0.173,34.979,0.409,69.958,0.619,104.937
		C200.689,853.626,197.329,853.626,193.969,853.626z"/>
	<path d="M111.897,853.626c-0.683-15.032-1.514-30.059-2.013-45.098c-0.659-19.856-1.262-39.719-1.51-59.583
		c-0.242-19.401,0.083-38.809-0.001-58.214c-0.199-46.013-0.439-92.025-0.763-138.037c-0.449-63.758-1.173-127.514-1.413-191.272
		c-0.118-31.37,1.016-62.746,0.795-94.114c-0.208-29.623-1.872-59.236-2.131-88.86c-0.348-39.792,0.054-79.59,0.106-119.386
		c0.03-22.744,0.005-45.487,0.005-68.932c1.819-0.103,4.327-0.246,9.023-0.513c0,32.17-0.085,63.897,0.028,95.623
		c0.085,23.957,0.356,47.914,0.667,71.869c0.482,37.141,1.303,74.279,1.511,111.421c0.099,17.717-1.441,35.445-1.262,53.158
		c0.473,46.979,1.889,93.951,2.144,140.93c0.209,38.57-1.213,77.148-1.005,115.718c0.279,51.775,1.568,103.545,2.137,155.32
		c0.208,18.933-0.706,37.878-0.564,56.813c0.158,21.054,0.937,42.104,1.445,63.155C116.696,853.626,114.297,853.626,111.897,853.626
		z"/>
	<path d="M552.497,853.626c-0.59-20.089-1.36-40.175-1.722-60.268c-0.397-22.039-0.658-44.087-0.543-66.129
		c0.147-28.242,1.243-56.488,0.954-84.722c-0.215-21.038-2.338-42.05-2.928-63.093c-0.396-14.111,0.46-28.255,0.655-42.386
		c0.311-22.519,0.86-45.041,0.736-67.558c-0.31-56.292-1.195-112.582-1.345-168.873c-0.084-31.584,0.918-63.17,1.268-94.756
		c0.191-17.224,0.425-34.462-0.066-51.674c-0.477-16.731-2.55-33.431-2.694-50.155c-0.32-37.14,0.126-74.288,0.285-111.432
		c0.003-0.677,0.318-1.352,0.576-2.381c2.576,0,5.121,0,8.684,0c0,7.223-0.006,14.52,0.001,21.817
		c0.014,14.605-0.026,29.211,0.065,43.816c0.148,23.72,0.353,47.44,0.591,71.159c0.312,31.04,0.745,62.078,1.003,93.118
		c0.161,19.412,0.112,38.825,0.126,58.238c0.029,39.039,0.152,78.079,0.016,117.118c-0.1,28.729-0.808,57.457-0.788,86.186
		c0.035,51,0.42,102.001,0.652,153.001c0.19,41.904,0.103,83.812,0.645,125.712c0.402,31.093,1.618,62.175,2.471,93.262
		C558.256,853.626,555.377,853.626,552.497,853.626z"/>
	<path d="M535.219,853.626c-0.027-34.003,2.115-68.185-0.683-101.959c-2.853-34.434,1.979-68.462,0.637-102.67
		c-0.479-12.205-0.951-24.412-1.203-36.623c-0.444-21.531-0.741-43.065-1.052-64.599c-0.159-11.012-0.34-22.025-0.295-33.037
		c0.162-39.502,2.606-79.152-0.068-118.457c-2.082-30.604,2.209-60.757,0.834-91.151c-1.168-25.813-1.323-51.682-1.452-77.529
		c-0.162-32.337,0.218-64.676,0.243-97.015c0.008-10.751-0.479-21.501-0.521-32.252c-0.047-12.186,0.47-24.38,0.158-36.556
		c-0.349-13.623-1.55-27.223-2.006-40.846c-0.335-10.01-0.066-20.04-0.066-30.593c3.353,0,6.086,0,10.105,0
		c1.335,287.597,2.672,575.442,4.008,863.287C540.978,853.626,538.098,853.626,535.219,853.626z"/>
	<path d="M450.266,853.626c-0.652-54.646-1.265-109.292-1.969-163.937c-0.46-35.72-1.323-71.438-1.501-107.159
		c-0.159-31.846,0.554-63.695,0.544-95.542c-0.007-22.524-0.805-45.048-0.841-67.572c-0.048-30.206,0.173-60.414,0.512-90.618
		c0.352-31.374,1.227-62.743,1.409-94.118c0.132-22.685-0.412-45.376-0.801-68.062c-0.809-47.122-1.756-94.241-2.554-141.363
		c-0.194-11.466-0.029-22.938-0.029-35.066c3.49-0.167,6.007-0.287,9.714-0.464c0,6.946,0.01,13.547-0.002,20.148
		c-0.078,42.918-0.31,85.836-0.193,128.753c0.092,33.76,0.654,67.519,0.937,101.279c0.431,51.53,1.173,103.062,1.073,154.591
		c-0.072,36.895-1.475,73.785-1.951,110.682c-0.244,18.912,0.138,37.834,0.421,56.749c0.495,33.035,1.207,66.068,1.691,99.103
		c0.669,45.775,1.295,91.551,1.761,137.329c0.158,15.563-0.266,31.132-0.321,46.699c-0.01,2.855,0.48,5.711,0.739,8.567
		C456.026,853.626,453.146,853.626,450.266,853.626z"/>
	<path d="M614.411,330.953c-0.61-8.751-1.657-17.498-1.757-26.255c-0.493-43.282-0.993-86.567-1.004-129.85
		c-0.016-60.519,0.387-121.038,0.718-181.557c0.007-1.199,1.333-2.391,2.044-3.587C614.411,103.454,614.411,217.203,614.411,330.953
		z"/>
	<path d="M614.411,577.171c0-13.439,0-26.878,0-40.316C614.411,550.293,614.411,563.732,614.411,577.171z"/>
	<path d="M-16.708,658.941c0,13.018,0,26.036,0,39.054c-0.177,0-0.354,0-0.531,0.001c0-13.018,0-26.036,0-39.054
		C-17.062,658.942-16.885,658.942-16.708,658.941z"/>
</g>
<rect x="-19.021" y="-27.333" opacity="0.8" fill="#1D71B8" width="633.323" height="896.276"/>
</svg>
