<?xml version="1.0" encoding="utf-8"?>
<!-- Generator: Adobe Illustrator 17.1.0, SVG Export Plug-In . SVG Version: 6.00 Build 0)  -->
<!DOCTYPE svg PUBLIC "-//W3C//DTD SVG 1.1//EN" "http://www.w3.org/Graphics/SVG/1.1/DTD/svg11.dtd">
<svg version="1.1" id="Calque_1" xmlns="http://www.w3.org/2000/svg" xmlns:xlink="http://www.w3.org/1999/xlink" x="0px" y="0px"
	 viewBox="0 0 595.28 841.89" enable-background="new 0 0 595.28 841.89" xml:space="preserve">
<g>
	<path fill="#FFFFFF" d="M536.981-31.02c2.087,0,4.173,0,6.26,0c-0.227,1.271-0.66,2.544-0.652,3.813
		c0.461,71.461-0.047,142.946,1.737,214.375c1.785,71.467,3.585,142.858-0.219,214.317c-2.772,52.075-7.286,104.284-5.94,156.301
		c2.524,97.521,5.239,195.006,4.37,292.565c-0.016,1.825-0.526,3.93,0.205,5.403c0.833,1.679,2.801,2.795,5.401,5.195
		c0.399-3.735,0.605-4.758,0.603-5.782c-0.073-61.817,0.154-123.636-0.342-185.449c-0.477-59.445-2.948-118.898-2.269-178.322
		c0.754-65.959,5.762-131.884,5.906-197.831c0.229-104.835-2.046-209.675-3.216-314.513c-0.037-3.355,0.438-6.715,0.674-10.072
		c1.565,0,3.13,0,4.695,0c0.095,3.384,0.267,6.768,0.275,10.152c0.154,65.975,0.072,131.952,0.491,197.926
		c0.378,59.446,2.313,118.899,1.7,178.33c-0.616,59.693-5.041,119.36-5.103,179.042c-0.109,104.814,1.808,209.631,3.051,314.444
		c0.042,3.516,1.973,7.009,3.023,10.512c1.061-3.481,3.065-6.966,3.046-10.441c-0.623-111.343-2.133-222.686-1.963-334.027
		c0.096-63.346,4.122-126.685,4.199-190.031c0.143-117.079-1.314-234.16-2.119-351.24c-0.011-1.557-0.222-3.112-0.339-4.668
		c2.087,0,4.173,0,6.26,0c-2.106,168.414,3.191,336.806-0.738,505.27c-2.911,124.807,0.261,249.757,0.892,374.642
		c0.018,3.505,1.956,6.999,2.999,10.499c1.043-3.489,2.99-6.975,3-10.467c0.455-157.995,0.961-315.991,0.977-473.987
		c0.014-135.319-0.557-270.638-0.869-405.957c2.087,0,4.173,0,6.26,0c-0.126,3.64-0.356,7.28-0.362,10.921
		c-0.25,157.734-0.644,315.468-0.661,473.202c-0.014,131.924,0.391,263.849,0.777,395.772c0.01,3.507,1.936,7.008,2.969,10.512
		c1.061-3.497,3.049-6.994,3.051-10.491c0.146-289.663,0.135-579.327,0.153-868.99c0-3.642,0.216-7.284,0.332-10.926
		c1.565,0,3.13,0,4.695,0c0.228,2.577,0.654,5.153,0.655,7.73c0.033,146.036,0.029,292.072,0.031,438.108
		c0.002,145.515,0.006,291.03,0.01,436.545c0,1.304-0.463,2.912,0.13,3.846c1.119,1.765,2.849,3.143,4.325,4.682
		c0.642-0.519,1.284-1.038,1.926-1.557c0-3.632,0-7.265,0-10.897c0-288.945-0.003-577.89,0.031-866.834
		c0-3.874,0.468-7.748,0.717-11.622c1.565,0,3.13,0,4.695,0c0.064,3.648,0.183,7.295,0.183,10.943
		c0.009,289.925-0.002,579.85,0.139,869.775c0.002,3.232,1.982,6.462,3.039,9.693c1.039-3.232,2.987-6.463,2.989-9.695
		c0.139-290.968,0.13-581.936,0.12-872.904c0-2.604-0.137-5.208-0.21-7.812c2.087,0,4.173,0,6.26,0
		c-0.045,1.563-0.13,3.126-0.13,4.69c-0.009,292.575-0.013,585.149-0.011,877.724c0,1.824-0.303,3.771,0.242,5.429
		c0.395,1.202,1.959,2.02,4.595,4.521c0-298.999,0-595.682,0-892.365c0.522,0.521,1.46,1.017,1.494,1.568
		c0.159,2.598,0.071,5.211,0.071,7.818c0,294.131,0,588.261,0,882.535c-216.852,0-433.704,0-650.804,0
		c0-297.212,0-594.567,0-891.922c1.319,0,2.883,0,4.448,0c0.187,3.89,0.537,7.78,0.538,11.669
		c0.025,289.427,0.011,578.853,0.156,868.28c0.002,3.485,2.022,6.968,3.1,10.452c1.056-3.497,3.036-6.992,3.037-10.49
		c0.146-290.209,0.14-580.417,0.111-870.626c0-3.095-0.445-6.19-0.682-9.285c2.087,0,4.173,0,6.26,0
		c0.047,3.128,0.134,6.256,0.134,9.383c0.012,290.449,0.017,580.899,0.028,871.348c0,2.345-0.241,4.757,0.244,7.006
		c0.227,1.053,1.91,2.468,2.946,2.478c1.001,0.01,2.564-1.405,2.901-2.497c0.518-1.675,0.227-3.609,0.227-5.432
		c0.006-292.013,0.007-584.027-0.002-876.04c0-2.082-0.142-4.164-0.218-6.246c2.087,0,4.173,0,6.26,0
		c-0.061,1.562-0.174,3.124-0.174,4.685C-0.003,266.463,0,559.261,0.02,852.058c0,2.286,0.259,4.571,0.399,6.894
		c7.396,1.68,5.835-3.486,5.84-6.902C6.498,666.416,6.77,480.782,6.838,295.147C6.878,186.425,6.582,77.703,6.437-31.02
		c2.087,0,4.173,0,6.26,0c-0.179,3.63-0.51,7.26-0.515,10.891c-0.241,153.046-0.612,306.092-0.62,459.138
		c-0.007,136.624,0.367,273.248,0.739,409.871c0.01,3.502,1.951,6.998,2.992,10.497c1.039-3.511,2.961-7.015,2.991-10.535
		c1.507-174.673-2.452-349.337,1.09-524.041c2.335-115.184-0.468-230.473-0.938-345.715c-0.014-3.368,0.34-6.738,0.522-10.107
		c1.565,0,3.13,0,4.695,0c0.172,2.328,0.478,4.655,0.495,6.984c0.715,100.125,2.016,200.251,1.88,300.375
		c-0.091,66.739-3.171,133.474-3.258,200.213c-0.162,124.116,0.86,248.233,1.562,372.348c0.02,3.5,1.992,6.989,3.054,10.483
		c1.02-3.513,2.949-7.03,2.929-10.537c-0.619-112.12-2.162-224.24-1.926-336.357c0.138-65.687,4.37-131.367,4.453-197.054
		c0.145-113.939-1.499-227.881-2.416-341.821c-0.012-1.546-0.335-3.089-0.513-4.634c2.087,0,4.173,0,6.26,0
		c0.024,54.768-0.374,109.54,0.185,164.302c0.601,58.926,3.393,117.854,2.862,176.76c-0.59,65.433-5.04,130.832-5.615,196.265
		c-0.561,63.869,1.953,127.759,2.545,191.645c0.476,51.373,0.052,102.755,0.233,154.132c0.009,2.439,2.008,4.871,3.081,7.306
		c1.028-2.211,2.956-4.422,2.955-6.632c-0.03-65.458,0.889-130.945-0.733-196.367c-1.985-80.056-4.012-160.03-0.027-240.099
		c2.657-53.369,4.122-106.827,4.66-160.261c0.32-31.775-2.932-63.57-3.27-95.371c-0.679-63.888-0.462-127.786-0.615-191.68
		c2.087,0,4.173,0,6.26,0c0.351,67.789-0.645,135.619,1.444,203.354c1.961,63.61,4.275,127.064,0.824,190.741
		c-3.61,66.615-6.306,133.368-6.38,200.064c-0.107,96.714,2.499,193.431,3.957,290.146c0.027,1.784,0.174,3.567,0.266,5.375
		c6.372,2.238,5.969-1.864,5.943-5.549c-0.436-63.096,0.886-126.266-1.726-189.272c-4.023-97.038-5.086-193.889,3.443-290.733
		c5.086-57.744,6.239-115.565,1.842-173.457c-5.834-76.81-3.094-153.766-3.354-230.669c2.087,0,4.173,0,6.26,0
		c-0.241,17.438-0.936,34.884-0.638,52.313c0.917,53.693,0.674,107.467,3.769,161.044c3.498,60.538,4.435,120.837-1.161,181.261
		c-5.773,62.332-10.599,124.79-8.641,187.444c3.144,100.602,7.857,201.163,5.95,301.862c-0.02,1.042-0.37,2.402,0.143,3.064
		c1.181,1.525,2.799,2.711,5.287,4.996c0.486-3.43,0.839-4.699,0.82-5.963c-0.995-67.78-0.097-135.657-3.514-203.316
		c-4.6-91.099-4.818-181.888,4.935-272.641c5.688-52.929,10.798-106.053,5.74-159.244c-7.695-80.917-7.361-161.975-7.031-243.074
		c0.01-2.582,0.392-5.163,0.601-7.745c1.565,0,3.13,0,4.695,0c0.123,26.326-0.143,52.66,0.462,78.975
		c0.845,36.731,0.429,73.633,3.971,110.13c6.652,68.544,7.827,136.749-0.806,205.208c-8.456,67.051-13.335,134.43-11.072,202.086
		c1.281,38.295,4.631,76.528,5.578,114.826c1.424,57.589,1.521,115.211,2.379,172.816c0.032,2.139,2.123,4.247,3.255,6.37
		c0.97-2.001,2.789-4.004,2.786-6.003c-0.104-63.604,1.891-127.267-3.821-190.745c-9.509-105.684-5.733-210.932,9.121-315.925
		c7.147-50.515,9.54-101.332,3.241-152.088c-7.471-60.194-9.336-120.557-8.456-181.101c0.216-14.844-0.234-29.698-0.377-44.548
		c2.087,0,4.173,0,6.26,0c-0.015,30.25-0.803,60.525,0.164,90.743c1.049,32.797,3.419,65.565,5.805,98.303
		c1.724,23.653,4.962,47.199,6.559,70.859c3.235,47.947-3.663,95.264-10.374,142.513c-11.366,80.023-16.489,160.343-10.27,241.024
		c6.157,79.878,9.634,159.796,8.083,239.909c-0.01,0.521-0.188,1.151,0.036,1.546c1.062,1.873,2.237,3.683,3.372,5.515
		c0.955-1.76,2.748-3.522,2.742-5.279c-0.183-56.569,1.974-113.207-3.897-169.631C75.13,571.293,76.8,458.57,96.804,346.266
		c9.415-52.857,12.64-106.082,5.232-159.645c-3.785-27.367-8.114-54.819-9.258-82.354c-1.872-45.043-1.344-90.186-1.829-135.286
		c2.087,0,4.173,0,6.26,0c-0.113,19.292-0.134,38.586-0.36,57.877c-0.439,37.589-0.505,75.233,6.25,112.327
		c13.051,71.657,13.062,142.92-1.071,214.557C82.614,452.145,79.66,551.403,88.855,651.281c4.203,45.651,5.815,91.558,7.848,137.382
		c0.97,21.865,0.113,43.81,0.324,65.716c0.016,1.68,1.943,3.341,2.982,5.011c1.063-1.664,3.085-3.348,3.05-4.988
		c-1.033-48.472-1.395-96.982-3.708-145.398c-2.624-54.93-8.483-109.727-10.289-164.668c-2.334-71.01,9.121-140.887,22.856-210.325
		c10.518-53.171,14.55-106.55,4.013-160.1c-13.342-67.807-13.983-136.277-12.462-204.93c1.565,0,3.13,0,4.695,0
		c0.232,9.093,0.651,18.187,0.663,27.28c0.058,40.922-1.06,81.879,5.596,122.515c4.803,29.323,9.944,58.617,13.657,88.085
		c5.69,45.163-1.521,89.536-11.379,133.402C94.035,441.124,87.617,542.807,98.274,645.691
		c5.288,51.054,11.77,102.069,10.646,153.604c-0.392,17.982-0.156,35.981,0.059,53.97c0.024,2.046,1.767,4.07,2.712,6.105
		c1.146-2.103,3.282-4.202,3.293-6.311c0.258-48.228,0.601-96.42-4.78-144.519c-4.664-41.693-8.56-83.514-11.217-125.379
		c-5.316-83.751,5.838-165.984,25.423-247.256c12.381-51.377,18.914-103.027,8.974-155.724
		c-5.121-27.148-11.618-54.254-13.851-81.676c-3.209-39.416-3.086-79.103-4.415-118.674c-0.122-3.62-0.458-7.234-0.695-10.85
		c2.087,0,4.173,0,6.26,0c0.089,14.86,0.624,29.734,0.181,44.578c-1.297,43.551,4.023,86.34,13.015,128.87
		c4.524,21.397,8.219,43.029,11.018,64.72c5.337,41.363-2.107,81.705-12.611,121.428c-25.02,94.619-36.154,190.456-26.894,288.201
		c3.147,33.221,6.479,66.441,10.627,99.549c5.696,45.459,4.924,91.081,5.079,136.708c0.007,2.123,2.12,4.238,3.253,6.357
		c0.964-2.008,2.738-4.002,2.774-6.026c0.877-49.841-0.307-99.54-7.175-149.069c-7.128-51.405-12.373-103.021-13.026-155.021
		c-0.934-74.468,10.975-147.121,31.975-218.227c18.104-61.299,21.016-122.251,4.435-184.353
		c-8.808-32.987-14.857-66.743-15.754-101.068c-0.667-25.537-0.457-51.097-0.637-76.646c2.087,0,4.173,0,6.26,0
		C131.224,28.395,134.836,87.127,150,145.067c6.562,25.071,10.456,51.107,12.783,76.955c3.156,35.073-5.591,69.036-16.088,102.163
		c-33.214,104.812-43.246,211.572-29.385,320.673c5.388,42.407,10.8,84.854,14.359,127.436c2.253,26.952,1.042,54.189,1.612,81.294
		c0.041,1.953,1.948,3.868,2.987,5.8c1.048-1.928,3.017-3.861,3.005-5.782c-0.153-25.284,1.112-50.731-1.303-75.816
		c-4.995-51.881-12.572-103.509-18.011-155.354c-7.278-69.381-6.402-138.701,9.307-206.949
		c8.817-38.305,20.312-76.021,31.403-113.766c11.996-40.825,15.466-81.815,5.768-123.556c-6.96-29.956-14.119-59.871-20.624-89.927
		c-8.52-39.368-6.238-79.396-6.35-119.259c2.087,0,4.173,0,6.26,0c0.285,26.311-0.493,52.688,1.111,78.919
		c2.273,37.165,12.974,72.838,22.9,108.49c13.892,49.9,13.747,98.952-2.794,148.519c-13.267,39.757-25.675,80.017-34.9,120.859
		C115,501.222,118.007,577.555,127.64,653.806c5.881,46.549,12.092,93.073,16.825,139.743c2.017,19.89,0.548,40.126,0.937,60.199
		c0.037,1.896,2.045,3.754,3.138,5.629c1.019-1.709,2.951-3.435,2.92-5.124c-0.471-25.8,0.559-51.787-2.238-77.351
		c-5.528-50.521-13.931-100.722-19.812-151.21c-7.429-63.783-6.809-127.508,5.409-190.844
		c7.885-40.876,21.261-80.073,35.679-118.969c13.357-36.031,23.683-72.717,17.337-111.575c-3.604-22.069-8.179-44.178-14.726-65.531
		c-17.008-55.47-24.8-111.86-21.125-169.793c1.565,0,3.13,0,4.695,0c0.171,11.456,0.618,22.916,0.462,34.368
		c-0.45,33.113,4.35,65.498,13.099,97.346c6.008,21.869,12.422,43.626,18.333,65.521c7.882,29.197,13.219,59.042,6.563,88.892
		c-5.304,23.785-12.549,47.47-21.914,69.958c-39.527,94.919-52.35,193.253-40.186,295.013c3.959,33.12,8.648,66.176,14.005,99.099
		c7.222,44.389,11.656,88.904,10.31,133.925c-0.062,2.061,2.155,4.189,3.311,6.286c0.967-2.023,2.829-4.076,2.764-6.066
		c-0.858-26.296-0.219-52.801-3.418-78.829c-6.579-53.535-16.281-106.688-22.784-160.23c-7.531-62.003-5.324-123.887,8.329-185.113
		c9.243-41.449,24.9-80.646,41.754-119.408c16.262-37.4,24.992-75.858,16.045-116.55c-4.305-19.577-9.482-39.006-15.239-58.209
		C176.568,96.473,165.007,58.017,163.85,17.4c-0.46-16.135-0.616-32.279-0.91-48.419c2.087,0,4.173,0,6.26,0
		c0.033,5.736,0.286,11.48,0.064,17.206c-1.612,41.676,5.571,82.021,17.945,121.642c6.838,21.893,13.54,43.835,19.889,65.874
		c12.614,43.791,10.255,86.575-9.249,128.12c-5.317,11.325-10.175,22.864-15.345,34.259
		c-19.387,42.732-33.454,87.044-40.038,133.616c-9.896,69.992-3.929,139.383,7.319,208.655
		c6.599,40.639,13.075,81.322,18.244,122.158c2.213,17.482,0.927,35.403,1.292,53.124c0.116,5.639,0.205,5.637,7.828,4.208
		c-1.875-27.257-2.207-54.973-5.993-82.209c-7.211-51.879-17.444-103.342-24.481-155.24c-7.999-58.996-6.967-118.03,5.085-176.658
		c9.598-46.691,28.464-89.782,49.65-132.082c9.832-19.631,18.167-39.824,21.25-61.851c4.266-30.484-1.774-59.733-10.459-88.609
		c-7.281-24.21-15.196-48.229-22.773-72.351C177.159,49.78,174.47,9.592,175.46-31.02c2.087,0,4.173,0,6.26,0
		c-1.866,38.861,1.568,77.14,13.154,114.428c9.436,30.369,19.812,60.457,28.704,90.981c10.492,36.014,13.754,72.458-1.296,108.131
		c-7.484,17.74-16.222,35.015-25.34,51.991c-34.026,63.355-50.252,131.064-51.066,202.76c-0.634,55.852,7.51,110.721,17.859,165.37
		c9.46,49.958,19.966,99.795,17.786,151.124c-0.033,0.78-0.276,1.783,0.102,2.302c0.894,1.229,2.102,2.229,3.184,3.322
		c0.995-1.2,2.448-2.261,2.867-3.637c0.51-1.675,0.108-3.616,0.17-5.44c1.373-40.209-5.55-79.484-13.351-118.659
		c-11.206-56.274-22.192-112.57-23.931-170.186c-1.994-66.065,6.978-130.195,35.356-190.46
		c11.645-24.73,25.598-48.373,38.454-72.535c14.417-27.095,19.537-55.828,15.53-86.299c-4.044-30.753-14.007-59.877-24.47-88.795
		C197.364,73.444,184.364,22.72,187.98-31.02c2.087,0,4.173,0,6.26,0c-0.22,1.535-0.58,3.064-0.64,4.605
		c-1.384,36.042,3.201,71.308,14.359,105.617c10.076,30.979,20.586,61.817,30.779,92.758
		c17.561,53.304,12.653,103.16-19.507,150.638c-14.944,22.062-27.203,46.405-37.546,71.03
		c-26.133,62.216-30.547,127.755-25.605,194.328c3.542,47.715,13.057,94.457,22.699,141.182
		c8.44,40.901,16.144,81.882,14.801,123.948c-0.033,1.041-0.339,2.329,0.143,3.073c0.813,1.255,2.018,2.557,3.346,3.029
		c0.537,0.191,2.332-1.602,2.663-2.748c0.488-1.692,0.164-3.615,0.211-5.439c1.013-38.916-6.302-76.791-14.323-114.576
		c-11.424-53.81-23.096-107.563-26.025-162.748c-3.03-57.088,2.265-113,22.118-167.048c12.067-32.853,30.597-62.103,50.047-90.87
		c15.951-23.592,27.68-49.027,25.81-78.034c-1.299-20.143-4.027-40.626-9.572-59.967c-9.902-34.535-22.681-68.236-33.763-102.446
		C203.049,40.779,197.886,5.353,200.5-31.02c1.565,0,3.13,0,4.695,0c0.263,9.893,0.336,19.796,0.823,29.678
		c1.911,38.779,14.042,75.083,26.412,111.454c10.727,31.542,21.532,63.206,29.463,95.513c10.021,40.824,2.566,79.233-23.665,113.125
		c-3.986,5.15-7.454,10.697-11.351,15.918C185.55,390.037,166.572,453,163.3,521.325c-2.779,58.045,5.866,114.888,17.681,171.445
		c11.18,53.513,26.372,106.433,24.811,161.927c-0.043,1.531,2.171,3.125,3.332,4.69c0.921-1.525,2.656-3.061,2.636-4.573
		c-0.162-11.984,0.735-24.207-1.307-35.9c-6.676-38.229-13.807-76.406-21.973-114.342c-11.929-55.422-22.25-110.961-21.211-167.973
		c1.081-59.356,12.326-116.193,44.152-167.282c10.994-17.648,23.884-34.177,36.628-50.66c21.082-27.267,28.731-57.855,25.147-91.82
		c-3.092-29.296-11.835-57.083-21.483-84.682c-8.943-25.584-18.117-51.094-26.627-76.822
		c-10.334-31.245-13.671-63.585-13.632-96.352c2.087,0,4.173,0,6.26,0c1.351,18.948,1.508,38.076,4.311,56.807
		c5.317,35.532,19.041,68.716,31.264,102.257c11.255,30.884,22.047,61.863,26.535,94.671c5.241,38.317-1.481,73.189-28.106,102.747
		c-4.881,5.419-9.788,10.903-13.942,16.873c-11.439,16.442-24.11,32.302-33.382,49.925
		c-27.973,53.166-34.961,110.824-32.833,170.011c1.979,55.033,13.722,108.485,26.267,161.824
		c10.085,42.878,20.919,85.678,19.942,130.267c-0.017,0.78-0.241,1.79,0.148,2.295c0.807,1.05,1.953,2.52,2.976,2.533
		c1.009,0.013,2.588-1.389,2.929-2.479c0.523-1.672,0.221-3.608,0.232-5.432c0.214-37.644-8.091-73.992-16.88-110.252
		c-13.758-56.762-27.875-113.446-30.879-172.141c-2.599-50.777,2.226-100.456,20.489-148.395
		c13.279-34.857,35.42-63.569,61.011-89.962c20.178-20.811,31.15-45.589,31.325-74.506c0.085-14-1.146-28.164-3.394-41.992
		c-6.19-38.068-20.634-73.705-33.949-109.621c-16.216-43.743-29.574-88.02-27.803-135.431c2.087,0,4.173,0,6.26,0
		c1.894,20.966,1.082,42.632,6.282,62.744c8.979,34.724,21.253,68.635,32.967,102.603c11.065,32.088,22.209,64.106,25.674,98.102
		c3.069,30.112,2.109,59.876-16.959,85.352c-9.003,12.028-20.055,22.566-30.535,33.435c-17.534,18.186-32.023,38.382-42.412,61.478
		c-20.339,45.216-26.408,92.962-25.369,141.986c1.169,55.15,13.007,108.566,26.206,161.773
		c11.293,45.521,24.212,90.769,23.986,138.308c-0.007,1.541,1.672,3.09,2.565,4.635c1.189-1.535,3.489-3.139,3.398-4.593
		c-0.976-15.592-0.665-31.516-3.896-46.669c-9.293-43.574-20.038-86.838-30.254-130.215
		c-13.521-57.406-21.815-115.307-15.544-174.438c4.399-41.478,14.405-81.544,39.52-115.563
		c13.029-17.648,29.463-32.921,45.255-48.349c15.421-15.066,26.217-32.198,30.183-53.52c5.865-31.533,2.335-62.669-6.747-92.784
		c-11.655-38.645-25.596-76.599-38.508-114.865c-11.977-35.493-21.372-71.457-19.55-109.42c1.565,0,3.13,0,4.695,0
		c0.257,2.044,0.488,4.092,0.774,6.133c3.177,22.659,3.99,45.979,10.087,67.823c9.863,35.336,23.276,69.678,35.051,104.486
		c12.566,37.147,23.206,74.632,23.415,114.405c0.198,37.69-12.409,68.517-43.724,91.185c-21.397,15.489-38.05,35.477-50.198,59.107
		c-19.886,38.684-27.155,80.254-28.182,123.201c-1.246,52.079,8.124,102.765,20.566,153.036
		c9.516,38.451,19.501,76.807,27.878,115.508c3.88,17.922,4.428,36.566,6.494,54.946c4.821-0.049,4.907-0.049,4.878-5.841
		c-0.143-28.115-5.563-55.462-12.325-82.582c-11.035-44.257-23.477-88.207-33.043-132.777
		c-11.803-54.995-14.871-110.608-2.359-166.128c8.415-37.339,23.383-71.402,52.463-97.603c8.885-8.006,18.662-15.06,28.298-22.188
		c15.74-11.644,27.078-26.754,30.581-45.801c3.319-18.043,5.4-36.707,4.812-54.995c-1.2-37.35-12.512-72.772-24.489-107.912
		c-12.273-36.009-24.857-71.942-35.858-108.345c-6.399-21.175-9.378-43.272-7.295-65.658c1.565,0,3.13,0,4.695,0
		c1.86,17.601,1.476,35.81,6.042,52.679c9.79,36.168,21.487,71.866,33.603,107.347c14.192,41.559,27.832,83.164,29.995,127.44
		c2.295,46.97-7.425,88.109-53.508,112.717c-17.206,9.188-29.876,24.266-40.118,40.97c-23.204,37.846-31.106,79.797-32.469,123.361
		c-1.648,52.666,8.401,103.739,21.451,154.414c14.269,55.411,34.778,109.518,35.573,167.817c0.02,1.446,2.747,2.856,5.604,5.639
		c0-8.68,0.656-14.469-0.121-20.06c-2.473-17.797-4.184-35.844-8.533-53.207c-11.208-44.748-24.407-89.001-35.444-133.788
		c-12.75-51.741-18.576-104.264-10.635-157.463c8.386-56.184,29.742-104.092,84.267-130.949
		c15.878-7.821,25.414-22.017,31.504-38.462c8.594-23.209,10.149-47.298,8.67-71.695c-2.599-42.87-14.786-83.539-28.906-123.732
		c-18.647-53.078-40.328-105.394-40.715-163.03c2.087,0,4.173,0,6.26,0c-0.646,37.373,9.535,72.635,20.76,107.742
		c13.88,43.41,28.746,86.565,40.743,130.497c9.397,34.411,11.315,70.052,4.14,105.45c-5.353,26.411-15.545,50.552-42.174,62.139
		c-38.799,16.883-60.098,47.662-72.057,86.479c-14.526,47.148-13.864,95.095-7.041,143.305
		c6.858,48.459,21.571,94.969,35.177,141.766c10.269,35.32,19.839,70.819,20.479,108.007c0.029,1.693,1.96,3.353,3.005,5.028
		c1.061-1.656,3.172-3.416,3.02-4.953c-1.614-16.318-1.877-33.026-5.8-48.809c-9.549-38.416-20.669-76.447-31.476-114.542
		c-13.13-46.282-23.633-92.979-24.154-141.397c-0.428-39.839,4.701-78.59,23.227-114.551c11.189-21.719,26.568-39.917,50.094-48.238
		c28.581-10.109,43.394-30.986,50.856-58.737c9.986-37.142,7.564-74.411,0.74-111.66c-8.212-44.826-24.415-87.264-39.063-130.174
		C283.708,48.256,272.111,9.842,272.491-31.02c2.087,0,4.173,0,6.26,0c-0.017,4.683-0.285,9.38-0.012,14.046
		c2.306,39.523,14.565,76.677,27.321,113.69c16.829,48.83,34.001,97.578,39.194,149.432c3.572,35.658,2.58,70.919-11.562,104.628
		c-8.694,20.724-22.717,35.384-44.925,42.605c-10.329,3.358-20.313,9.672-28.693,16.736c-16.59,13.985-25.813,33.182-32.585,53.449
		c-15.534,46.486-14.544,93.955-7.456,141.606c6.932,46.602,21.501,91.28,35.3,136.138c11.36,36.929,21.971,74.025,23.119,113.07
		c0.05,1.697,1.967,3.34,3.015,5.008c1.044-1.926,3.188-3.992,2.965-5.758c-2.484-19.623-3.567-39.655-8.466-58.692
		c-9.219-35.822-20.685-71.067-31.239-106.545c-14.401-48.415-25.425-97.392-24.443-148.332c0.64-33.209,5.805-65.499,21.337-95.316
		c11.652-22.367,27.999-39.433,53.898-45.074c12.848-2.798,22.434-10.719,30.206-20.971c15.478-20.417,21.854-44.205,24.9-69.065
		c5.418-44.227-0.486-87.584-12.666-129.962c-11.588-40.318-25.293-80.022-37.679-120.117
		c-9.104-29.473-16.192-59.372-15.269-90.577c1.565,0,3.13,0,4.695,0c3.805,24.672,5.624,49.861,11.884,73.893
		c9.252,35.515,21.847,70.149,32.679,105.263c14.831,48.076,25.412,96.86,22.634,147.647c-1.526,27.897-6.8,54.899-21.04,79.375
		c-10.224,17.573-24.165,29.716-45.177,34.266c-9.808,2.124-19.49,8.777-27.237,15.63c-14.804,13.096-22.683,30.951-28.489,49.585
		c-13.197,42.354-12.041,85.414-5.571,128.587c6.479,43.233,19.958,84.666,33.323,126.118
		c13.206,40.956,26.685,81.877,27.622,125.559c0.035,1.614,1.514,3.198,2.32,4.796c0.779-0.219,1.559-0.439,2.338-0.658
		c0-2.768,0.346-5.588-0.055-8.296c-2.934-19.82-4.197-40.114-9.436-59.318c-10.693-39.202-23.783-77.745-35.459-116.687
		c-13.845-46.176-23.412-93.081-20.911-141.667c1.474-28.635,6.535-56.514,20.836-81.888c10.927-19.386,25.558-33.542,48.929-37.733
		c8.399-1.506,16.976-7.11,23.425-13.062c7.503-6.923,13.867-15.675,18.789-24.69c16.322-29.896,20.456-62.732,20.332-96.154
		c-0.201-53.871-14.421-105.065-30.306-155.997c-11.165-35.798-21.836-71.8-30.992-108.149c-3.748-14.879-2.923-30.911-4.179-46.418
		c1.565,0,3.13,0,4.695,0c2.336,19.886,2.491,40.336,7.459,59.54c10.499,40.588,23.622,80.493,35.469,120.736
		c15.029,51.053,25.439,102.777,21.123,156.438c-2.433,30.25-9.141,59.321-26.174,85.03c-10.051,15.17-22.832,27.338-41.584,30.761
		c-15.293,2.791-27.537,10.615-35.688,23.264c-7.265,11.273-13.818,23.443-18.145,36.087
		c-11.893,34.755-11.666,70.698-7.522,106.762c5.274,45.9,19.248,89.597,33.76,133.152c14.507,43.542,29.709,86.911,31.29,133.5
		c0.048,1.403,2.071,2.74,3.173,4.107c0.974-1.773,2.936-3.647,2.767-5.302c-1.539-15.02-1.662-30.49-5.602-44.898
		c-10.028-36.671-21.358-73.008-33.004-109.209c-14.813-46.044-27.964-92.366-29.206-141.148
		c-0.805-31.596,2.484-62.569,16.911-91.346c9.288-18.526,23.047-31.343,43.814-37.25c10.125-2.88,20.164-8.9,28.155-15.886
		c20.427-17.86,29.844-42.316,36.071-67.984c12.086-49.819,8.767-99.723-3.097-148.783c-10.524-43.52-24.201-86.281-36.62-129.339
		C314.742,35.079,306.56,2.78,306.922-31.02c2.087,0,4.173,0,6.26,0c0.25,8.567-0.035,17.19,0.843,25.692
		c3.799,36.807,14.967,71.881,25.862,106.991c16.943,54.601,32.858,109.416,35.139,167.084c1.531,38.705-2.247,76.64-18.191,112.481
		c-11.154,25.073-26.896,46.551-54.247,55.148c-25.08,7.884-39.449,25.025-48.147,48.457c-9.618,25.909-11.568,52.859-10.308,80.132
		c2.154,46.584,15.254,90.753,29.574,134.745c12.008,36.889,23.404,74.012,33.667,111.417c3.812,13.893,3.541,28.894,5.388,43.357
		c0.222,1.741,2.053,3.276,3.139,4.906c1.015-1.7,2.679-3.32,2.901-5.118c0.379-3.06-0.12-6.233-0.3-9.356
		c-2.294-39.813-14.836-77.15-27.802-114.358c-14.328-41.114-29.227-82.051-36.441-125.229
		c-5.631-33.706-7.305-67.375,1.087-100.929c7.116-28.455,21.838-50.244,50.838-60.714c16.058-5.798,28.635-16.931,38.79-30.608
		c17.029-22.934,25.879-49.198,30.778-76.981c9.375-53.162,3.797-105.663-9.147-157.367c-11.007-43.968-24.529-87.3-36.325-131.078
		c-6.922-25.691-12.206-51.765-10.837-78.673c1.565,0,3.13,0,4.695,0c0.814,43.246,12.514,84.351,24.262,125.512
		c8.797,30.821,17.626,61.688,24.731,92.924c11.777,51.775,16.25,104.141,5.612,156.762c-10.011,49.52-31.517,90.854-80.94,112.507
		c-17.105,7.494-26.998,22.514-33.21,39.798c-12.667,35.245-11.108,71.259-5.29,107.401c6.582,40.891,20.42,79.715,34.234,118.541
		c12.677,35.632,25.322,71.297,29.594,109.198c0.845,7.5,0.8,15.098,1.557,22.612c0.181,1.798,1.933,3.437,2.962,5.15
		c1.094-1.617,2.901-3.14,3.129-4.871c0.437-3.319,0.056-6.76-0.123-10.143c-1.459-27.561-7.783-54.17-16.387-80.238
		c-12.662-38.361-26.398-76.379-38.469-114.921c-10.336-33.004-15.779-66.979-14.129-101.787
		c1.881-39.684,14.864-72.353,53.199-91.445c22.302-11.107,37.412-30.363,48.856-52.402c15.934-30.687,22.64-63.678,24.755-97.828
		c3.363-54.297-6.23-106.983-19.785-159.2C353.47,87.893,331.642,30.653,330.397-31.02c2.087,0,4.173,0,6.26,0
		c0.845,12.478,0.163,25.292,2.818,37.373c8.551,38.915,17.623,77.747,27.803,116.265c15.647,59.197,28.785,118.626,25.718,180.429
		c-1.378,27.761-6.086,54.898-15.434,81.147c-12.693,35.645-34.359,64.096-67.08,83.687c-22.762,13.628-35.122,34.144-39.978,59.806
		c-4.42,23.358-3.713,46.692-0.429,70.071c6.069,43.203,21.142,83.821,35.862,124.525c15.545,42.985,30.79,86.006,30.97,132.588
		c0.006,1.508,1.786,3.009,2.739,4.513c1.129-1.578,3.327-3.232,3.22-4.722c-1.04-14.542-1.562-29.207-3.958-43.548
		c-6.178-36.99-20.167-71.691-32.876-106.73c-14.247-39.28-27.489-78.816-31.212-120.799c-4.199-47.341,5.548-88.171,48.986-116.191
		c26.543-17.121,43.354-43.242,54.959-72.488c18.005-45.372,21.339-92.678,18.076-140.766
		c-3.498-51.551-16.183-101.318-29.691-150.925C355.162,59.19,342.54,15.251,342.918-31.02c2.087,0,4.173,0,6.26,0
		c0.292,9.894-0.738,20.043,1.114,29.635c6.762,35.019,13.535,70.087,22.076,104.699c12.251,49.653,25.081,99.107,28.679,150.378
		c2.403,34.251,1.05,68.245-5.928,101.974c-10.292,49.746-32.76,92.105-73.894,123.293c-22.05,16.718-36.597,38.262-38.87,66.073
		c-1.455,17.798-1.35,36.008,0.635,53.745c4.352,38.899,18.085,75.416,31.499,111.905c17.203,46.796,34.853,93.474,34.622,144.467
		c-0.006,1.407,1.929,2.823,2.959,4.235c1.039-1.42,3.023-2.876,2.97-4.254c-0.454-11.713-0.636-23.494-2.112-35.101
		c-4.54-35.72-16.824-69.309-29.238-102.837c-13.582-36.685-27.089-73.372-33.347-112.267c-7.978-49.591,0.612-92.68,42.274-126.402
		c32.11-25.991,50.961-61.517,61.992-101.17c15.779-56.721,15.65-114.224,5.046-171.396c-8.929-48.141-21.452-95.615-32.39-143.383
		c-7.053-30.806-13.304-61.712-11.827-93.595c2.087,0,4.173,0,6.26,0C362-18.542,360.689-5.77,362.909,6.356
		c6.472,35.353,13.617,70.621,21.853,105.603c13.106,55.664,25.609,111.312,25.959,168.921
		c0.499,82.064-19.98,155.747-82.997,213.184c-22.157,20.195-32.613,46.213-32.774,76.101c-0.06,11.174,0.603,22.438,2.033,33.52
		c5.115,39.661,19.664,76.63,33.351,113.815c12.439,33.795,24.759,67.64,28.838,103.719c1.257,11.116,1.242,22.372,2.071,33.545
		c0.118,1.597,1.717,3.083,2.631,4.621c1.153-1.571,2.556-3.024,3.366-4.755c0.502-1.072,0.093-2.565,0.11-3.869
		c0.519-40.06-10.219-77.809-23.301-115.144c-11.202-31.971-22.845-63.832-32.594-96.253c-8.457-28.122-12.059-57.094-6.551-86.579
		c4.567-24.449,18.49-43.413,35.108-60.722c35.688-37.172,58.026-81.162,67.997-131.556c11.306-57.142,9.007-114.336-1.91-171.067
		c-9.158-47.588-20.952-94.663-31.039-142.08c-5.484-25.776-9.184-51.851-7.102-78.378c1.565,0,3.13,0,4.695,0
		c-0.318,37.01,5.737,73.186,14.033,109.102c12.379,53.588,25.87,106.971,30.557,162.019c4.078,47.894,2.237,95.327-9.992,142.092
		c-11.529,44.087-33.984,81.997-63.465,116.379c-9.407,10.971-17.909,23.271-24.22,36.231c-13.661,28.052-12.721,58.233-5.155,87.32
		c8.903,34.227,20.317,67.865,31.982,101.291c14.76,42.294,28.166,84.673,26.66,130.215c-0.043,1.296-0.22,2.784,0.325,3.842
		c0.462,0.895,1.884,1.781,2.877,1.776c0.95-0.005,2.525-1.018,2.715-1.843c0.459-1.993,0.277-4.136,0.341-6.218
		c1.254-40.589-9.007-78.943-21.889-116.955c-12.372-36.509-24.871-73.05-35.085-110.19c-7.041-25.603-7.027-52.141,1.903-77.926
		c6.434-18.579,17.85-34.162,29.974-49.194c42.577-52.789,63.698-113.554,68.305-180.691c3.693-53.805-2.759-106.711-13.131-159.341
		C397.116,94.597,377.648,33.467,378.913-31.02c2.087,0,4.173,0,6.26,0c-1.281,37.289,4.365,73.792,12.205,110.085
		c12.603,58.342,26.407,116.493,29.477,176.432c2.675,52.243-1.533,103.633-18.202,153.623
		c-12.286,36.846-32.156,69.506-55.246,100.256c-26.806,35.698-34.022,75.286-23.269,117.738
		c7.405,29.235,16.853,58.039,26.907,86.499c16.061,45.464,30.224,91.113,28.322,140.149c-0.071,1.834,2.04,3.752,3.135,5.63
		c1.012-1.962,2.831-3.89,2.915-5.892c1.5-35.564-3.917-70.195-14.934-103.949c-11.077-33.937-23.212-67.547-33.527-101.71
		c-9.223-30.545-14.108-62.181-2.862-93.057c6.521-17.903,15.771-35.331,26.571-51.065c46.544-67.804,66.523-142.947,65.482-224.488
		c-0.598-46.88-7.504-92.958-16.591-138.795C404.316,83.734,389.083,27.595,391.433-31.02c2.087,0,4.173,0,6.26,0
		c-0.115,2.599-0.243,5.197-0.342,7.797c-1.628,42.896,6.717,84.593,15.205,126.269c10.983,53.925,21.518,107.887,23.172,163.163
		c1.848,61.736-5.155,122.071-30.965,178.735c-11.739,25.772-26.213,50.395-40.701,74.793
		c-20.462,34.459-27.034,70.901-18.029,109.786c4.46,19.259,9.708,38.45,16.248,57.093c19.122,54.503,38.408,108.848,35.226,168.009
		c-0.082,1.525,2.073,3.17,3.184,4.759c0.986-1.741,2.92-3.541,2.815-5.214c-1.515-24.151-0.569-48.882-5.68-72.281
		c-7.315-33.49-19.424-65.912-28.866-98.967c-6.075-21.267-12.224-42.633-16.234-64.344c-7.046-38.147,4.989-72.483,23.634-105.321
		c10.927-19.246,21.45-38.834,30.505-59.009c29.075-64.777,36.653-133.236,32.722-203.407c-3.014-53.8-13.585-106.49-23.976-159.188
		c-7.989-40.514-14.043-81.186-11.66-122.674c2.087,0,4.173,0,6.26,0c-0.249,1.527-0.675,3.048-0.722,4.581
		c-1.023,33.495,1.778,66.684,7.708,99.657c10.796,60.029,23.662,119.749,26.665,180.938c3.219,65.6-3.204,129.942-28.04,191.2
		c-11.827,29.171-26.661,57.137-40.442,85.499c-15.732,32.378-20.286,66.117-12.629,101.268
		c3.214,14.755,7.102,29.401,11.488,43.853c6.812,22.447,14.505,44.626,21.478,67.027c11.201,35.984,15.016,72.93,13.882,110.503
		c-0.058,1.927,1.923,3.915,2.955,5.875c1.08-1.91,3.045-3.791,3.108-5.733c1.165-36.15-1.078-71.99-11.461-106.882
		c-8.476-28.483-17.155-56.909-26.09-85.251c-15.66-49.671-12.163-97.347,11.672-144.114c12.99-25.487,24.539-51.929,34.198-78.851
		c27.573-76.85,30.331-156.251,19.59-236.295c-6.481-48.302-15.434-96.27-23.096-144.417c-4.686-29.448-5.83-59.094-4.004-88.855
		c1.565,0,3.13,0,4.695,0c-2.099,54.063,6.828,106.985,15.641,160.029c6.06,36.476,11.181,73.219,14.315,110.048
		c6.104,71.72-0.577,142.329-25.7,210.271c-10.837,29.308-23.976,57.761-35.855,86.69c-12.262,29.86-17.229,60.855-10.575,92.67
		c4.845,23.167,11.001,46.124,17.826,68.797c10.23,33.985,21.12,67.799,23.51,103.463c1.184,17.664,0.69,35.436,1.202,53.153
		c0.052,1.785,1.814,3.521,2.783,5.279c1.149-1.549,3.277-3.081,3.305-4.65c0.601-33.917,1.135-67.924-7.496-101.078
		c-8.796-33.791-18.781-67.271-27.649-101.044c-7.086-26.986-10.446-54.581-3.992-82.051c4.332-18.435,10.329-36.644,17.345-54.251
		c15.642-39.259,31.427-78.384,40.289-119.915c15.166-71.072,14.034-142.459,4.047-213.946
		c-5.733-41.04-13.544-81.821-18.202-122.969c-3.39-29.952-3.154-60.315-4.534-90.494c2.087,0,4.173,0,6.26,0
		c0.312,23.192-1.113,46.567,1.316,69.534c4.355,41.186,10.893,82.145,16.762,123.164c7.996,55.882,12.423,111.893,8.201,168.385
		c-4.476,59.884-20.213,116.922-42.243,172.494c-10.282,25.938-20.175,52.044-23.212,80.118
		c-3.673,33.952,4.014,66.381,13.279,98.561c11.183,38.839,23.257,77.511,25.125,118.27c0.835,18.216,0.366,36.49,0.741,54.733
		c0.036,1.736,1.875,3.436,2.877,5.152c1.118-1.606,3.239-3.235,3.205-4.816c-0.576-26.564,1.105-53.503-2.835-79.586
		c-5.119-33.889-14.334-67.199-22.566-100.566c-7.779-31.53-15.972-63.283-9.973-95.714c4.761-25.74,12.054-51.236,20.661-75.993
		c18.295-52.627,33.443-105.795,38.59-161.539c5.966-64.615,0.9-128.686-8.886-192.491C445.592,89.102,437.035,29.53,439.949-31.02
		c2.087,0,4.173,0,6.26,0c0.285,27.352-1.261,54.875,1.267,82.018c4.203,45.133,11.246,89.995,16.683,135.021
		c7.309,60.531,8.86,121.098,0.76,181.747c-6.629,49.639-20.214,97.512-37.014,144.43c-19.197,53.613-21.178,107.067-5.895,162.051
		c9.119,32.807,16.502,66.354,21.193,100.052c3.642,26.156,1.86,53.062,2.674,79.629c0.057,1.845,1.658,3.643,2.54,5.462
		c1.209-1.787,3.459-3.569,3.468-5.361c0.106-21.638,0.323-43.291-0.355-64.913c-1.203-38.329-10.801-75.247-19.938-112.211
		c-8.293-33.549-15.721-67.472-9.98-102.064c4.252-25.618,10.353-51.126,18.023-75.944c21.929-70.946,36.031-142.922,35.359-217.54
		c-0.511-56.762-7.349-112.88-15.49-168.87c-6.93-47.663-8.654-95.478-7.038-143.508c1.565,0,3.13,0,4.695,0
		c0.172,2.068,0.57,4.146,0.482,6.204c-2.854,66.531,5.724,132.235,14.318,197.934c13.667,104.488,8.376,207.548-21.452,309.12
		c-8.501,28.947-15.425,58.53-20.516,88.259c-6.276,36.653,1.455,72.689,9.798,108.383c8.491,36.326,17.106,72.661,17.688,110.238
		c0.327,21.123,0.063,42.254,0.327,63.379c0.029,2.302,1.796,4.583,2.758,6.873c1.13-2.1,3.184-4.17,3.254-6.305
		c1.941-59.393-1.255-118.256-15.857-176.263c-8.747-34.746-14.512-70.218-9.583-106.169c3.073-22.42,6.842-44.994,13.12-66.683
		c32.255-111.438,39.961-224.435,24.661-339.289c-7.474-56.104-14.263-112.308-12.271-169.137c0.31-8.832-0.287-17.695-0.465-26.544
		c2.087,0,4.173,0,6.26,0c-2.609,75.593,5.737,150.477,13.939,225.425c5.684,51.937,6.422,104.072,1.929,156.232
		c-4.244,49.274-13.58,97.674-26.184,145.344c-15.917,60.2-18.684,120.206-3.882,181.004c11.91,48.919,16.3,98.717,14.466,149.057
		c-0.323,8.856-0.254,17.742,0.082,26.597c0.086,2.281,1.87,4.499,2.874,6.746c1.086-2.145,3.076-4.275,3.114-6.438
		c0.272-15.384-0.231-30.786,0.216-46.161c1.257-43.264-4.049-85.815-11.974-128.257c-4.538-24.303-8.01-48.922-10.006-73.557
		c-3.154-38.922,4.423-76.976,13.417-114.562c24.647-103.004,31.883-207.035,19.385-312.259
		c-8.132-68.467-12.912-137.069-10.923-206.052c0.03-1.037-0.124-2.08-0.193-3.12c2.087,0,4.173,0,6.26,0
		c-0.096,51.347-0.938,102.65,3.989,153.94c4.883,50.835,9.098,101.823,10.939,152.84c2.628,72.851-8.634,144.514-23.647,215.607
		c-10.24,48.488-16.184,97.229-8.4,146.745c4.129,26.266,8.497,52.495,12.475,78.784c6.551,43.288,3.988,86.91,4.44,130.419
		c0.04,3.846,0.005,7.692,0.005,11.538c0.892,0.389,1.783,0.778,2.675,1.167c1.194-1.869,3.355-3.706,3.42-5.614
		c0.348-10.157,0.47-20.343,0.121-30.5c-1.314-38.266-1.7-76.613-4.654-114.758c-2.31-29.833-8.435-59.349-11.916-89.117
		c-5.367-45.886,0.966-91.138,9.971-135.973c20.644-102.789,26.303-206.246,14.743-310.479c-7.546-68.039-9.315-136.244-7.899-204.6
		c2.087,0,4.173,0,6.26,0c-0.156,0.762-0.462,1.527-0.447,2.286c1.012,51.864,1.197,103.763,3.335,155.581
		c1.966,47.655,7.124,95.183,8.929,142.84c2.857,75.434-7.62,149.85-20.379,223.967c-8.182,47.531-12.439,95.356-4.79,143.248
		c10.61,66.428,14.729,133.149,12.826,200.32c-0.162,5.733-0.247,11.491,0.148,17.202c0.119,1.714,1.989,3.306,3.056,4.954
		c1.026-1.698,2.891-3.373,2.941-5.099c0.286-9.902,0.025-19.818,0.162-29.726c0.787-56.894-0.247-113.658-8.81-170.103
		c-5.527-36.435-8.125-73.185-4.404-109.966c3.069-30.335,6.999-60.61,11.523-90.765c11.882-79.209,16.671-158.742,10.429-238.648
		c-6.156-78.821-10.648-157.656-8.746-236.752c0.075-3.115,0.32-6.225,0.487-9.338c1.565,0,3.13,0,4.695,0
		c0.158,3.897,0.383,7.792,0.464,11.69c1.158,56.044-0.359,112.297,4.005,168.09c8.539,109.164,8.539,217.762-8.523,326.125
		c-9.548,60.639-10.368,121.323-2.876,182.437c4.558,37.178,5.694,74.826,7.195,112.31c1.074,26.823,0.107,53.724,0.327,80.588
		c0.025,3.06,1.837,6.105,2.82,9.157c1.109-3.159,3.128-6.304,3.178-9.48c0.301-19.036,0.469-38.086,0.081-57.119
		c-0.728-35.705,0.675-71.691-3.347-107.044c-9.048-79.534-9.214-158.541,2.074-237.876c9.567-67.239,13.236-135.071,9.445-202.944
		c-5.048-90.377-10.097-180.714-8.133-271.286c0.034-1.545-0.291-3.098-0.449-4.647c2.087,0,4.173,0,6.26,0
		c0.013,6.26-0.044,12.521,0.051,18.779c0.858,56.579-0.373,113.287,3.083,169.707c6.22,101.531,6.821,202.725-5.624,303.832
		c-6.511,52.897-9.178,105.934-5.295,159.27c3.312,45.488,5.928,91.05,7.611,136.626c1.164,31.518,0.149,63.114,0.343,94.674
		c0.015,2.513,1.869,5.015,2.869,7.522c1.106-2.398,3.12-4.778,3.169-7.197c0.3-14.862,0.416-29.738,0.112-44.599
		c-1.052-51.35-0.06-102.871-4.025-154.002c-5.41-69.765-4.276-139.075,2.984-208.529c5.997-57.366,9.427-114.928,7.739-172.633
		c-1.304-44.573-4.45-89.098-5.388-133.674c-1.191-56.576-0.978-113.183-1.37-169.776c2.087,0,4.173,0,6.26,0
		c-0.107,16.684-0.505,33.373-0.268,50.052c0.801,56.314,0.739,112.669,3.033,168.926c3.148,77.213,3.97,154.283-2.087,231.409
		c-3.633,46.254-7.457,92.632-7.709,138.973c-0.247,45.301,4.87,90.604,5.925,135.945c1.232,52.918,0.574,105.879,0.94,158.82
		c0.014,2.1,2.132,4.185,3.269,6.278c0.967-2.018,2.787-4.04,2.777-6.054c-0.295-62.848,1.348-125.799-1.752-188.515
		c-3.818-77.24-5.042-154.209,1.473-231.333c6.617-78.325,5.698-156.767,3.182-235.319C537.059,121.82,537.697,45.378,536.981-31.02
		z"/>
	<path d="M598.017-31.02c-0.249,3.874-0.717,7.748-0.717,11.622c-0.034,288.945-0.031,577.89-0.031,866.834
		c0,3.632,0,7.265,0,10.897c-0.642,0.519-1.284,1.038-1.926,1.557c-1.476-1.539-3.206-2.917-4.325-4.682
		c-0.592-0.934-0.13-2.542-0.13-3.846c-0.004-145.515-0.008-291.03-0.01-436.545c-0.002-146.036,0.001-292.072-0.031-438.108
		c-0.001-2.577-0.427-5.153-0.655-7.73C592.8-31.02,595.409-31.02,598.017-31.02z"/>
	<path d="M330.397-31.02c1.245,61.672,23.072,118.913,38.298,177.567c13.555,52.218,23.148,104.903,19.785,159.2
		c-2.115,34.15-8.82,67.142-24.755,97.828c-11.444,22.039-26.554,41.295-48.856,52.402c-38.335,19.092-51.319,51.762-53.199,91.445
		c-1.65,34.808,3.794,68.783,14.129,101.787c12.07,38.542,25.807,76.56,38.469,114.921c8.604,26.068,14.928,52.677,16.387,80.238
		c0.179,3.383,0.56,6.824,0.123,10.143c-0.228,1.731-2.035,3.254-3.129,4.871c-1.029-1.712-2.781-3.352-2.962-5.15
		c-0.757-7.513-0.712-15.112-1.557-22.612c-4.272-37.901-16.917-73.566-29.594-109.198c-13.814-38.826-27.651-77.65-34.234-118.541
		c-5.818-36.141-7.377-72.155,5.29-107.401c6.212-17.284,16.105-32.304,33.21-39.798c49.423-21.653,70.929-62.987,80.94-112.507
		c10.638-52.621,6.165-104.987-5.612-156.762c-7.105-31.236-15.934-62.103-24.731-92.924
		c-11.748-41.161-23.448-82.266-24.262-125.512C326.224-31.02,328.311-31.02,330.397-31.02z"/>
	<path d="M162.94-31.02c0.294,16.14,0.451,32.284,0.91,48.419c1.157,40.617,12.718,79.073,24.264,117.585
		c5.757,19.204,10.935,38.633,15.239,58.209c8.947,40.691,0.217,79.15-16.045,116.55c-16.854,38.762-32.512,77.959-41.754,119.408
		c-13.653,61.226-15.86,123.11-8.329,185.113c6.503,53.543,16.205,106.695,22.784,160.23c3.199,26.027,2.56,52.532,3.418,78.829
		c0.065,1.99-1.797,4.042-2.764,6.066c-1.156-2.097-3.373-4.226-3.311-6.286c1.346-45.022-3.088-89.536-10.31-133.925
		c-5.357-32.923-10.046-65.979-14.005-99.099c-12.164-101.76,0.659-200.094,40.186-295.013c9.365-22.488,16.61-46.173,21.914-69.958
		c6.656-29.85,1.319-59.695-6.563-88.892c-5.911-21.894-12.324-43.652-18.333-65.521c-8.75-31.848-13.55-64.233-13.099-97.346
		c0.156-11.452-0.291-22.912-0.462-34.368C158.766-31.02,160.853-31.02,162.94-31.02z"/>
	<path d="M391.433-31.02c-2.35,58.614,12.882,114.753,24.123,171.456c9.087,45.837,15.992,91.916,16.591,138.795
		c1.041,81.541-18.938,156.684-65.482,224.488c-10.801,15.734-20.051,33.163-26.571,51.065
		c-11.246,30.876-6.361,62.512,2.862,93.057c10.315,34.163,22.451,67.773,33.527,101.71c11.017,33.754,16.434,68.385,14.934,103.949
		c-0.084,2.001-1.904,3.93-2.915,5.892c-1.094-1.879-3.206-3.797-3.135-5.63c1.902-49.037-12.261-94.685-28.322-140.149
		c-10.054-28.46-19.502-57.263-26.907-86.499c-10.753-42.452-3.537-82.04,23.269-117.738c23.09-30.75,42.96-63.41,55.246-100.256
		c16.669-49.99,20.877-101.38,18.202-153.623c-3.07-59.939-16.874-118.09-29.477-176.432c-7.84-36.293-13.486-72.797-12.205-110.085
		C387.26-31.02,389.347-31.02,391.433-31.02z"/>
	<path d="M427.429-31.02c1.38,30.18,1.143,60.542,4.534,90.494c4.658,41.148,12.469,81.929,18.202,122.969
		c9.986,71.488,11.119,142.874-4.047,213.946c-8.862,41.531-24.647,80.656-40.289,119.915
		c-7.015,17.607-13.013,35.816-17.345,54.251c-6.455,27.47-3.094,55.065,3.992,82.051c8.868,33.773,18.853,67.253,27.649,101.044
		c8.631,33.155,8.097,67.161,7.496,101.078c-0.028,1.569-2.155,3.101-3.305,4.65c-0.969-1.759-2.731-3.494-2.783-5.279
		c-0.512-17.716-0.018-35.489-1.202-53.153c-2.39-35.664-13.28-69.478-23.51-103.463c-6.825-22.673-12.98-45.63-17.826-68.797
		c-6.654-31.815-1.687-62.81,10.575-92.67c11.88-28.929,25.018-57.382,35.855-86.69c25.123-67.942,31.804-138.551,25.7-210.271
		c-3.134-36.829-8.255-73.572-14.315-110.048c-8.813-53.044-17.74-105.965-15.641-160.029
		C423.256-31.02,425.342-31.02,427.429-31.02z"/>
	<path d="M90.948-31.02c0.485,45.101-0.043,90.243,1.829,135.286c1.144,27.535,5.473,54.987,9.258,82.354
		c7.408,53.563,4.184,106.788-5.232,159.645C76.8,458.57,75.13,571.293,86.907,684.483c5.871,56.424,3.714,113.062,3.897,169.631
		c0.006,1.757-1.788,3.519-2.742,5.279c-1.135-1.832-2.31-3.642-3.372-5.515c-0.224-0.395-0.046-1.025-0.036-1.546
		c1.551-80.113-1.926-160.03-8.083-239.909c-6.218-80.681-1.096-161.001,10.27-241.024c6.711-47.249,13.609-94.567,10.374-142.513
		c-1.596-23.659-4.835-47.205-6.559-70.859c-2.386-32.738-4.756-65.505-5.805-98.303C83.886,29.505,84.673-0.77,84.688-31.02
		C86.775-31.02,88.862-31.02,90.948-31.02z"/>
	<path d="M42.433-31.02c0.153,63.894-0.064,127.792,0.615,191.68c0.338,31.8,3.59,63.596,3.27,95.371
		c-0.539,53.433-2.004,106.892-4.66,160.261c-3.986,80.069-1.959,160.043,0.027,240.099c1.623,65.423,0.703,130.909,0.733,196.367
		c0.001,2.21-1.926,4.421-2.955,6.632c-1.072-2.435-3.072-4.867-3.081-7.306c-0.181-51.377,0.243-102.759-0.233-154.132
		c-0.592-63.886-3.106-127.776-2.545-191.645c0.575-65.433,5.024-130.832,5.615-196.265c0.531-58.906-2.26-117.834-2.862-176.76
		C35.799,78.52,36.196,23.748,36.172-31.02C38.259-31.02,40.346-31.02,42.433-31.02z"/>
	<path d="M306.922-31.02c-0.362,33.799,7.82,66.099,17.089,98.234c12.419,43.057,26.096,85.819,36.62,129.339
		c11.864,49.059,15.184,98.964,3.097,148.783c-6.227,25.667-15.644,50.123-36.071,67.984c-7.99,6.986-18.03,13.007-28.155,15.886
		c-20.768,5.907-34.527,18.724-43.814,37.25c-14.427,28.777-17.716,59.751-16.911,91.346c1.242,48.782,14.393,95.104,29.206,141.148
		c11.647,36.201,22.977,72.538,33.004,109.209c3.94,14.408,4.063,29.878,5.602,44.898c0.17,1.655-1.793,3.529-2.767,5.302
		c-1.102-1.368-3.125-2.704-3.173-4.107c-1.581-46.589-16.782-89.958-31.29-133.5c-14.512-43.556-28.486-87.252-33.76-133.152
		c-4.144-36.064-4.371-72.006,7.522-106.762c4.327-12.644,10.88-24.813,18.145-36.087c8.151-12.649,20.395-20.473,35.688-23.264
		c18.751-3.423,31.533-15.591,41.584-30.761c17.033-25.709,23.74-54.78,26.174-85.03c4.317-53.661-6.094-105.385-21.123-156.438
		c-11.847-40.244-24.97-80.149-35.469-120.736c-4.968-19.205-5.123-39.655-7.459-59.54C302.749-31.02,304.835-31.02,306.922-31.02z"
		/>
	<path d="M549.501-31.02c-0.236,3.358-0.711,6.718-0.674,10.072c1.169,104.838,3.445,209.678,3.216,314.513
		c-0.144,65.947-5.152,131.872-5.906,197.831c-0.679,59.423,1.792,118.877,2.269,178.322c0.496,61.813,0.269,123.633,0.342,185.449
		c0.001,1.023-0.205,2.047-0.603,5.782c-2.601-2.4-4.568-3.516-5.401-5.195c-0.731-1.473-0.221-3.578-0.205-5.403
		c0.869-97.56-1.846-195.044-4.37-292.565c-1.346-52.018,3.168-104.227,5.94-156.301c3.804-71.459,2.004-142.849,0.219-214.317
		c-1.784-71.428-1.276-142.914-1.737-214.375c-0.008-1.27,0.425-2.542,0.652-3.813C545.328-31.02,547.414-31.02,549.501-31.02z"/>
	<path d="M103.469-31.02c-1.521,68.653-0.88,137.123,12.462,204.93c10.537,53.55,6.505,106.929-4.013,160.1
		c-13.735,69.438-25.19,139.315-22.856,210.325c1.806,54.942,7.665,109.739,10.289,164.668c2.313,48.416,2.675,96.925,3.708,145.398
		c0.035,1.64-1.987,3.324-3.05,4.988c-1.039-1.67-2.966-3.331-2.982-5.011c-0.21-21.906,0.647-43.85-0.324-65.716
		c-2.034-45.824-3.646-91.731-7.848-137.382c-9.195-99.878-6.241-199.136,13.173-297.539c14.133-71.637,14.122-142.9,1.071-214.557
		c-6.756-37.094-6.689-74.738-6.25-112.327c0.225-19.291,0.246-38.584,0.36-57.877C99.295-31.02,101.382-31.02,103.469-31.02z"/>
	<path d="M187.98-31.02c-3.616,53.739,9.384,104.464,27.452,154.4c10.463,28.918,20.426,58.042,24.47,88.795
		c4.007,30.47-1.113,59.204-15.53,86.299c-12.857,24.162-26.809,47.805-38.454,72.535c-28.378,60.265-37.35,124.395-35.356,190.46
		c1.739,57.616,12.725,113.911,23.931,170.186c7.801,39.175,14.724,78.45,13.351,118.659c-0.062,1.824,0.339,3.765-0.17,5.44
		c-0.419,1.376-1.872,2.436-2.867,3.637c-1.081-1.093-2.29-2.093-3.184-3.322c-0.378-0.519-0.135-1.522-0.102-2.302
		c2.18-51.329-8.326-101.167-17.786-151.124c-10.348-54.649-18.493-109.518-17.859-165.37c0.814-71.696,17.04-139.405,51.066-202.76
		c9.118-16.977,17.856-34.251,25.34-51.991c15.049-35.674,11.788-72.117,1.296-108.131c-8.892-30.523-19.268-60.612-28.704-90.981
		C183.288,46.121,179.854,7.842,181.72-31.02C183.807-31.02,185.893-31.02,187.98-31.02z"/>
	<path d="M560.456-31.02c0.118,1.556,0.329,3.111,0.339,4.668c0.806,117.08,2.263,234.161,2.119,351.24
		c-0.078,63.345-4.103,126.685-4.199,190.031c-0.169,111.341,1.34,222.684,1.963,334.027c0.019,3.474-1.985,6.96-3.046,10.441
		c-1.05-3.504-2.982-6.997-3.023-10.512c-1.243-104.814-3.159-209.63-3.051-314.444c0.062-59.681,4.487-119.349,5.103-179.042
		c0.613-59.431-1.322-118.884-1.7-178.33c-0.419-65.974-0.337-131.95-0.491-197.926c-0.008-3.384-0.179-6.768-0.275-10.152
		C556.283-31.02,558.37-31.02,560.456-31.02z"/>
	<path d="M236.496-31.02c-1.822,37.963,7.573,73.927,19.55,109.42c12.912,38.266,26.853,76.221,38.508,114.865
		c9.082,30.115,12.612,61.25,6.747,92.784c-3.965,21.322-14.762,38.455-30.183,53.52c-15.792,15.428-32.226,30.702-45.255,48.349
		c-25.115,34.019-35.121,74.085-39.52,115.563c-6.271,59.131,2.023,117.031,15.544,174.438
		c10.216,43.376,20.961,86.641,30.254,130.215c3.232,15.153,2.92,31.076,3.896,46.669c0.091,1.455-2.208,3.059-3.398,4.593
		c-0.893-1.545-2.572-3.094-2.565-4.635c0.226-47.539-12.693-92.787-23.986-138.308c-13.2-53.207-25.038-106.623-26.206-161.773
		c-1.039-49.024,5.031-96.77,25.369-141.986c10.389-23.096,24.878-43.292,42.412-61.478c10.48-10.869,21.532-21.407,30.535-33.435
		c19.067-25.476,20.028-55.239,16.959-85.352c-3.465-33.996-14.609-66.015-25.674-98.102
		c-11.714-33.968-23.988-67.879-32.967-102.603c-5.2-20.111-4.388-41.777-6.282-62.744C232.322-31.02,234.409-31.02,236.496-31.02z"
		/>
	<path d="M285.012-31.02c-0.923,31.204,6.164,61.104,15.269,90.577c12.385,40.094,26.091,79.799,37.679,120.117
		c12.18,42.378,18.084,85.735,12.666,129.962c-3.046,24.86-9.422,48.648-24.9,69.065c-7.772,10.252-17.358,18.172-30.206,20.971
		c-25.899,5.641-42.247,22.708-53.898,45.074c-15.533,29.817-20.697,62.107-21.337,95.316
		c-0.982,50.94,10.042,99.917,24.443,148.332c10.553,35.478,22.02,70.723,31.239,106.545c4.899,19.037,5.982,39.068,8.466,58.692
		c0.224,1.766-1.92,3.831-2.965,5.758c-1.047-1.668-2.965-3.31-3.015-5.008c-1.147-39.044-11.759-76.141-23.119-113.07
		c-13.799-44.858-28.368-89.536-35.3-136.138c-7.088-47.652-8.078-95.12,7.456-141.606c6.773-20.267,15.995-39.465,32.585-53.449
		c8.379-7.063,18.363-13.377,28.693-16.736c22.208-7.221,36.231-21.881,44.925-42.605c14.142-33.709,15.134-68.97,11.562-104.628
		c-5.194-51.854-22.366-100.603-39.194-149.432c-12.756-37.012-25.015-74.167-27.321-113.69c-0.272-4.666-0.005-9.363,0.012-14.046
		C280.838-31.02,282.925-31.02,285.012-31.02z"/>
	<path d="M249.016-31.02c-2.082,22.386,0.896,44.482,7.295,65.658c11.001,36.403,23.585,72.336,35.858,108.345
		c11.977,35.14,23.288,70.562,24.489,107.912c0.588,18.288-1.493,36.951-4.812,54.995c-3.504,19.046-14.841,34.157-30.581,45.801
		c-9.636,7.128-19.412,14.182-28.298,22.188c-29.08,26.201-44.048,60.264-52.463,97.603c-12.512,55.52-9.444,111.133,2.359,166.128
		c9.565,44.57,22.008,88.519,33.043,132.777c6.762,27.119,12.183,54.466,12.325,82.582c0.029,5.792-0.057,5.792-4.878,5.841
		c-2.066-18.38-2.615-37.023-6.494-54.946c-8.378-38.701-18.362-77.057-27.878-115.508
		c-12.442-50.272-21.812-100.957-20.566-153.036c1.027-42.946,8.296-84.517,28.182-123.201
		c12.147-23.63,28.801-43.618,50.198-59.107c31.315-22.668,43.922-53.494,43.724-91.185c-0.209-39.772-10.848-77.257-23.415-114.405
		c-11.775-34.808-25.188-69.15-35.051-104.486c-6.097-21.844-6.91-45.164-10.087-67.823c-0.286-2.04-0.517-4.088-0.774-6.133
		C243.799-31.02,246.408-31.02,249.016-31.02z"/>
	<path d="M151.984-31.02c-3.675,57.932,4.118,114.323,21.125,169.793c6.547,21.352,11.122,43.461,14.726,65.531
		c6.346,38.858-3.98,75.544-17.337,111.575c-14.419,38.896-27.794,78.093-35.679,118.969
		c-12.218,63.337-12.838,127.061-5.409,190.844c5.881,50.489,14.284,100.69,19.812,151.21c2.797,25.563,1.767,51.551,2.238,77.351
		c0.031,1.69-1.901,3.415-2.92,5.124c-1.093-1.876-3.101-3.733-3.138-5.629c-0.389-20.073,1.08-40.31-0.937-60.199
		c-4.732-46.67-10.944-93.194-16.825-139.743c-9.634-76.251-12.641-152.584,4.402-228.039c9.224-40.842,21.632-81.102,34.9-120.859
		c16.541-49.567,16.686-98.619,2.794-148.519c-9.926-35.652-20.627-71.325-22.9-108.49c-1.604-26.231-0.826-52.607-1.111-78.919
		C147.811-31.02,149.898-31.02,151.984-31.02z"/>
	<path d="M416.474-31.02c-1.825,29.761-0.682,59.407,4.004,88.855c7.662,48.147,16.615,96.115,23.096,144.417
		c10.741,80.044,7.983,159.445-19.59,236.295c-9.66,26.922-21.208,53.364-34.198,78.851
		c-23.835,46.767-27.332,94.443-11.672,144.114c8.936,28.342,17.615,56.768,26.09,85.251
		c10.383,34.892,12.627,70.732,11.461,106.882c-0.063,1.943-2.028,3.824-3.108,5.733c-1.032-1.96-3.014-3.948-2.955-5.875
		c1.134-37.573-2.68-74.518-13.882-110.503c-6.973-22.401-14.665-44.579-21.478-67.027c-4.386-14.452-8.274-29.098-11.488-43.853
		c-7.657-35.15-3.103-68.889,12.629-101.268c13.78-28.362,28.614-56.327,40.442-85.499c24.836-61.257,31.258-125.6,28.04-191.2
		c-3.003-61.19-15.868-120.91-26.665-180.938c-5.93-32.972-8.731-66.162-7.708-99.657c0.047-1.533,0.472-3.054,0.722-4.581
		C412.301-31.02,414.387-31.02,416.474-31.02z"/>
	<path d="M200.5-31.02c-2.614,36.373,2.549,71.798,13.735,106.332c11.081,34.21,23.861,67.91,33.763,102.446
		c5.545,19.34,8.274,39.824,9.572,59.967c1.87,29.008-9.859,54.442-25.81,78.034c-19.45,28.766-37.979,58.017-50.047,90.87
		c-19.853,54.048-25.148,109.96-22.118,167.048c2.929,55.185,14.602,108.938,26.025,162.748
		c8.021,37.785,15.337,75.66,14.323,114.576c-0.047,1.824,0.277,3.746-0.211,5.439c-0.331,1.147-2.125,2.939-2.663,2.748
		c-1.328-0.472-2.533-1.775-3.346-3.029c-0.482-0.744-0.176-2.032-0.143-3.073c1.342-42.066-6.361-83.047-14.801-123.948
		c-9.642-46.725-19.157-93.468-22.699-141.182c-4.942-66.572-0.528-132.111,25.605-194.328
		c10.343-24.625,22.602-48.968,37.546-71.03c32.16-47.479,37.068-97.334,19.507-150.638c-10.193-30.941-20.704-61.779-30.779-92.758
		c-11.159-34.309-15.743-69.575-14.359-105.617c0.059-1.541,0.42-3.07,0.64-4.605C196.327-31.02,198.414-31.02,200.5-31.02z"/>
	<path d="M439.949-31.02c-2.914,60.549,5.643,120.121,14.781,179.707c9.786,63.805,14.851,127.876,8.886,192.491
		c-5.147,55.744-20.295,108.912-38.59,161.539c-8.607,24.757-15.9,50.253-20.661,75.993c-5.999,32.432,2.194,64.185,9.973,95.714
		c8.232,33.367,17.448,66.677,22.566,100.566c3.94,26.083,2.259,53.022,2.835,79.586c0.034,1.581-2.087,3.21-3.205,4.816
		c-1.002-1.716-2.842-3.416-2.877-5.152c-0.375-18.243,0.094-36.517-0.741-54.733c-1.867-40.759-13.942-79.431-25.125-118.27
		c-9.265-32.18-16.952-64.609-13.279-98.561c3.037-28.073,12.93-54.18,23.212-80.118c22.03-55.573,37.767-112.61,42.243-172.494
		c4.222-56.493-0.205-112.504-8.201-168.385c-5.869-41.019-12.407-81.979-16.762-123.164c-2.428-22.968-1.004-46.343-1.316-69.534
		C435.776-31.02,437.863-31.02,439.949-31.02z"/>
	<path d="M18.957-31.02c-0.182,3.369-0.536,6.738-0.522,10.107c0.47,115.242,3.273,230.53,0.938,345.715
		c-3.542,174.704,0.417,349.367-1.09,524.041c-0.03,3.52-1.952,7.024-2.991,10.535c-1.041-3.499-2.983-6.995-2.992-10.497
		c-0.372-136.623-0.746-273.247-0.739-409.871c0.008-153.046,0.38-306.092,0.62-459.138c0.006-3.631,0.336-7.261,0.515-10.891
		C14.784-31.02,16.871-31.02,18.957-31.02z"/>
	<path d="M-18.603-31.02c0.237,3.095,0.682,6.19,0.682,9.285c0.029,290.209,0.034,580.418-0.111,870.626
		c-0.002,3.497-1.981,6.993-3.037,10.49c-1.078-3.484-3.098-6.967-3.1-10.452c-0.145-289.426-0.131-578.853-0.156-868.28
		c0-3.89-0.351-7.78-0.538-11.669C-22.777-31.02-20.69-31.02-18.603-31.02z"/>
	<path d="M126.944-31.02c0.18,25.55-0.03,51.109,0.637,76.646c0.897,34.325,6.947,68.081,15.754,101.068
		c16.581,62.102,13.668,123.054-4.435,184.353c-21,71.106-32.909,143.76-31.975,218.227c0.652,52,5.897,103.615,13.026,155.021
		c6.868,49.529,8.052,99.228,7.175,149.069c-0.036,2.024-1.81,4.018-2.774,6.026c-1.132-2.119-3.245-4.234-3.253-6.357
		c-0.155-45.627,0.617-91.249-5.079-136.708c-4.148-33.107-7.48-66.327-10.627-99.549c-9.26-97.745,1.874-193.582,26.894-288.201
		c10.504-39.723,17.948-80.065,12.611-121.428c-2.799-21.69-6.494-43.322-11.018-64.72c-8.992-42.53-14.313-85.32-13.015-128.87
		c0.442-14.844-0.093-29.718-0.181-44.578C122.771-31.02,124.857-31.02,126.944-31.02z"/>
	<path d="M259.971-31.02c0.387,57.637,22.068,109.952,40.715,163.03c14.12,40.193,26.307,80.861,28.906,123.732
		c1.479,24.396-0.076,48.486-8.67,71.695c-6.089,16.445-15.626,30.641-31.504,38.462c-54.526,26.857-75.881,74.764-84.267,130.949
		c-7.941,53.199-2.115,105.721,10.635,157.463c11.037,44.787,24.236,89.04,35.444,133.788c4.349,17.363,6.06,35.41,8.533,53.207
		c0.777,5.59,0.121,11.379,0.121,20.06c-2.857-2.783-5.584-4.192-5.604-5.639c-0.795-58.3-21.304-112.407-35.573-167.817
		c-13.049-50.675-23.099-101.748-21.451-154.414c1.364-43.564,9.265-85.514,32.469-123.361
		c10.242-16.704,22.913-31.782,40.118-40.97c46.083-24.608,55.803-65.747,53.508-112.717c-2.163-44.276-15.803-85.882-29.995-127.44
		c-12.116-35.481-23.813-71.179-33.603-107.347c-4.566-16.869-4.182-35.078-6.042-52.679C255.798-31.02,257.885-31.02,259.971-31.02
		z"/>
	<path d="M585.497-31.02c-0.115,3.642-0.332,7.284-0.332,10.926c-0.018,289.663-0.008,579.327-0.153,868.99
		c-0.002,3.498-1.99,6.994-3.051,10.491c-1.033-3.504-2.959-7.005-2.969-10.512c-0.386-131.924-0.791-263.848-0.777-395.772
		c0.017-157.734,0.411-315.468,0.661-473.202c0.006-3.64,0.236-7.281,0.362-10.921C581.323-31.02,583.41-31.02,585.497-31.02z"/>
	<path d="M54.953-31.02c0.259,76.903-2.48,153.859,3.354,230.669c4.397,57.891,3.244,115.713-1.842,173.457
		c-8.53,96.844-7.466,193.695-3.443,290.733c2.612,63.006,1.29,126.176,1.726,189.272c0.025,3.685,0.429,7.787-5.943,5.549
		c-0.092-1.809-0.239-3.591-0.266-5.375c-1.458-96.715-4.064-193.432-3.957-290.146c0.074-66.696,2.77-133.449,6.38-200.064
		c3.451-63.677,1.137-127.131-0.824-190.741c-2.088-67.735-1.093-135.565-1.444-203.354C50.779-31.02,52.866-31.02,54.953-31.02z"/>
	<path d="M211.455-31.02c-0.038,32.767,3.298,65.107,13.632,96.352c8.51,25.728,17.684,51.238,26.627,76.822
		c9.647,27.599,18.391,55.386,21.483,84.682c3.584,33.965-4.064,64.553-25.147,91.82c-12.744,16.483-25.634,33.011-36.628,50.66
		c-31.827,51.09-43.071,107.926-44.152,167.282c-1.039,57.013,9.282,112.552,21.211,167.973
		c8.166,37.936,15.297,76.113,21.973,114.342c2.042,11.693,1.145,23.916,1.307,35.9c0.02,1.512-1.714,3.048-2.636,4.573
		c-1.161-1.565-3.375-3.159-3.332-4.69c1.562-55.495-13.631-108.414-24.811-161.927c-11.815-56.556-20.46-113.399-17.681-171.445
		c3.272-68.325,22.25-131.289,63.575-186.656c3.897-5.222,7.366-10.768,11.351-15.918c26.231-33.892,33.687-72.3,23.665-113.125
		c-7.931-32.307-18.736-63.971-29.463-95.513c-12.37-36.371-24.5-72.675-26.412-111.454c-0.487-9.882-0.56-19.785-0.823-29.678
		C207.282-31.02,209.369-31.02,211.455-31.02z"/>
	<path d="M175.46-31.02c-0.99,40.612,1.699,80.799,13.968,119.861c7.576,24.122,15.491,48.141,22.773,72.351
		c8.685,28.876,14.725,58.126,10.459,88.609c-3.083,22.027-11.418,42.22-21.25,61.851c-21.186,42.299-40.052,85.391-49.65,132.082
		c-12.052,58.628-13.084,117.662-5.085,176.658c7.037,51.899,17.27,103.361,24.481,155.24c3.786,27.236,4.118,54.952,5.993,82.209
		c-7.623,1.43-7.712,1.432-7.828-4.208c-0.364-17.72,0.921-35.642-1.292-53.124c-5.169-40.836-11.645-81.519-18.244-122.158
		c-11.249-69.273-17.215-138.664-7.319-208.655c6.585-46.573,20.651-90.885,40.038-133.616c5.17-11.395,10.028-22.934,15.345-34.259
		c19.504-41.545,21.863-84.329,9.249-128.12c-6.348-22.039-13.051-43.981-19.889-65.874
		c-12.375-39.621-19.558-79.966-17.945-121.642c0.221-5.726-0.031-11.47-0.064-17.206C171.286-31.02,173.373-31.02,175.46-31.02z"/>
	<path d="M272.491-31.02c-0.381,40.861,11.217,79.276,24.215,117.355c14.648,42.91,30.85,85.348,39.063,130.174
		c6.824,37.249,9.246,74.517-0.74,111.66c-7.461,27.751-22.274,48.627-50.856,58.737c-23.527,8.322-38.905,26.519-50.094,48.238
		c-18.526,35.961-23.655,74.712-23.227,114.551c0.521,48.418,11.024,95.114,24.154,141.397
		c10.807,38.095,21.927,76.127,31.476,114.542c3.923,15.783,4.187,32.491,5.8,48.809c0.152,1.536-1.959,3.296-3.02,4.953
		c-1.045-1.675-2.976-3.335-3.005-5.028c-0.64-37.188-10.209-72.688-20.479-108.007c-13.607-46.797-28.319-93.307-35.177-141.766
		c-6.823-48.21-7.485-96.157,7.041-143.305c11.959-38.816,33.258-69.596,72.057-86.479c26.629-11.588,36.821-35.729,42.174-62.139
		c7.175-35.398,5.257-71.039-4.14-105.45c-11.997-43.932-26.862-87.087-40.743-130.497c-11.226-35.107-21.406-70.369-20.76-107.742
		C268.318-31.02,270.405-31.02,272.491-31.02z"/>
	<path d="M403.954-31.02c-2.383,41.488,3.671,82.161,11.66,122.674c10.391,52.697,20.962,105.388,23.976,159.188
		c3.931,70.171-3.647,138.63-32.722,203.407c-9.055,20.175-19.578,39.763-30.505,59.009c-18.644,32.838-30.68,67.175-23.634,105.321
		c4.01,21.711,10.16,43.076,16.234,64.344c9.442,33.055,21.551,65.477,28.866,98.967c5.11,23.398,4.165,48.129,5.68,72.281
		c0.105,1.672-1.829,3.473-2.815,5.214c-1.111-1.589-3.266-3.234-3.184-4.759c3.183-59.161-16.104-113.506-35.226-168.009
		c-6.541-18.643-11.788-37.833-16.248-57.093c-9.005-38.885-2.434-75.327,18.029-109.786c14.488-24.399,28.962-49.022,40.701-74.793
		c25.809-56.664,32.812-116.999,30.965-178.735c-1.654-55.276-12.19-109.237-23.172-163.163
		c-8.488-41.675-16.833-83.373-15.205-126.269c0.099-2.6,0.227-5.198,0.342-7.797C399.78-31.02,401.867-31.02,403.954-31.02z"/>
	<path d="M536.981-31.02c0.716,76.398,0.078,152.839,2.524,229.182c2.516,78.552,3.435,156.994-3.182,235.319
		c-6.515,77.124-5.291,154.094-1.473,231.333c3.1,62.716,1.457,125.667,1.752,188.515c0.009,2.013-1.81,4.036-2.777,6.054
		c-1.138-2.092-3.255-4.178-3.269-6.278c-0.366-52.941,0.291-105.902-0.94-158.82c-1.055-45.342-6.172-90.645-5.925-135.945
		c0.252-46.341,4.077-92.719,7.709-138.973c6.057-77.126,5.236-154.195,2.087-231.409c-2.294-56.257-2.232-112.612-3.033-168.926
		c-0.237-16.679,0.161-33.368,0.268-50.052C532.808-31.02,534.894-31.02,536.981-31.02z"/>
	<path d="M319.442-31.02c-1.369,26.908,3.915,52.982,10.837,78.673c11.795,43.779,25.318,87.111,36.325,131.078
		c12.944,51.704,18.523,104.205,9.147,157.367c-4.9,27.783-13.749,54.048-30.778,76.981c-10.155,13.676-22.732,24.81-38.79,30.608
		c-29,10.47-43.722,32.259-50.838,60.714c-8.391,33.554-6.718,67.223-1.087,100.929c7.214,43.178,22.113,84.114,36.441,125.229
		c12.967,37.208,25.509,74.545,27.802,114.358c0.18,3.123,0.679,6.296,0.3,9.356c-0.223,1.798-1.886,3.418-2.901,5.118
		c-1.085-1.63-2.917-3.166-3.139-4.906c-1.847-14.463-1.576-29.464-5.388-43.357c-10.263-37.405-21.659-74.528-33.667-111.417
		c-14.32-43.992-27.42-88.16-29.574-134.745c-1.261-27.274,0.69-54.224,10.308-80.132c8.698-23.431,23.067-40.573,48.147-48.457
		c27.351-8.597,43.092-30.075,54.247-55.148c15.945-35.841,19.722-73.776,18.191-112.481
		c-2.281-57.668-18.196-112.483-35.139-167.084C328.992,66.554,317.824,31.48,314.025-5.327c-0.878-8.502-0.593-17.125-0.843-25.692
		C315.269-31.02,317.356-31.02,319.442-31.02z"/>
	<path d="M223.976-31.02c-1.771,47.411,11.586,91.689,27.803,135.431c13.315,35.916,27.759,71.553,33.949,109.621
		c2.248,13.828,3.479,27.992,3.394,41.992c-0.175,28.917-11.146,53.695-31.325,74.506c-25.591,26.393-47.731,55.105-61.011,89.962
		c-18.263,47.938-23.087,97.618-20.489,148.395c3.004,58.695,17.121,115.379,30.879,172.141
		c8.789,36.259,17.093,72.608,16.88,110.252c-0.01,1.824,0.291,3.76-0.232,5.432c-0.341,1.09-1.92,2.491-2.929,2.479
		c-1.023-0.013-2.169-1.482-2.976-2.533c-0.389-0.506-0.165-1.515-0.148-2.295c0.977-44.588-9.857-87.388-19.942-130.267
		c-12.545-53.339-24.289-106.791-26.267-161.824c-2.128-59.187,4.859-116.845,32.833-170.011
		c9.272-17.622,21.943-33.483,33.382-49.925c4.154-5.97,9.061-11.454,13.942-16.873c26.625-29.558,33.347-64.429,28.106-102.747
		c-4.487-32.808-15.28-63.786-26.535-94.671c-12.223-33.541-25.947-66.725-31.264-102.257c-2.803-18.731-2.959-37.858-4.311-56.807
		C219.802-31.02,221.889-31.02,223.976-31.02z"/>
	<path d="M139.464-31.02c0.111,39.863-2.17,79.89,6.35,119.259c6.505,30.056,13.664,59.971,20.624,89.927
		c9.698,41.741,6.229,82.731-5.768,123.556c-11.091,37.745-22.586,75.462-31.403,113.766
		c-15.71,68.248-16.586,137.568-9.307,206.949c5.439,51.845,13.017,103.472,18.011,155.354c2.415,25.086,1.149,50.532,1.303,75.816
		c0.012,1.921-1.957,3.854-3.005,5.782c-1.039-1.932-2.946-3.847-2.987-5.8c-0.57-27.104,0.641-54.342-1.612-81.294
		c-3.559-42.583-8.971-85.029-14.359-127.436c-13.861-109.102-3.829-215.861,29.385-320.673
		c10.498-33.127,19.245-67.09,16.088-102.163c-2.326-25.848-6.221-51.884-12.783-76.955
		c-15.165-57.94-18.777-116.672-16.796-176.087C135.291-31.02,137.378-31.02,139.464-31.02z"/>
	<path d="M463.425-31.02c0.178,8.849,0.774,17.712,0.465,26.544c-1.993,56.828,4.797,113.032,12.271,169.137
		c15.3,114.855,7.594,227.851-24.661,339.289c-6.278,21.689-10.047,44.263-13.12,66.683c-4.928,35.951,0.836,71.424,9.583,106.169
		c14.603,58.007,17.799,116.871,15.857,176.263c-0.07,2.135-2.124,4.205-3.254,6.305c-0.961-2.291-2.729-4.571-2.758-6.873
		c-0.264-21.124,0-42.256-0.327-63.379c-0.582-37.577-9.197-73.912-17.688-110.238c-8.344-35.694-16.074-71.731-9.798-108.383
		c5.091-29.729,12.015-59.313,20.516-88.259c29.828-101.572,35.12-204.633,21.452-309.12
		c-8.594-65.699-17.172-131.402-14.318-197.934c0.088-2.057-0.31-4.135-0.482-6.204C459.251-31.02,461.338-31.02,463.425-31.02z"/>
	<path d="M29.912-31.02c0.178,1.545,0.5,3.088,0.513,4.634c0.917,113.94,2.561,227.882,2.416,341.821
		c-0.083,65.686-4.315,131.366-4.453,197.054c-0.236,112.117,1.307,224.237,1.926,336.357c0.019,3.507-1.909,7.025-2.929,10.537
		c-1.062-3.494-3.034-6.983-3.054-10.483c-0.701-124.116-1.723-248.233-1.562-372.348c0.087-66.739,3.168-133.474,3.258-200.213
		c0.136-100.124-1.165-200.25-1.88-300.375c-0.017-2.329-0.324-4.656-0.495-6.984C25.739-31.02,27.826-31.02,29.912-31.02z"/>
	<path d="M114.424-31.02c0.237,3.617,0.574,7.23,0.695,10.85c1.329,39.571,1.206,79.258,4.415,118.674
		c2.233,27.422,8.73,54.528,13.851,81.676c9.94,52.697,3.406,104.347-8.974,155.724c-19.585,81.273-30.739,163.505-25.423,247.256
		c2.657,41.865,6.553,83.687,11.217,125.379c5.381,48.099,5.037,96.291,4.78,144.519c-0.011,2.109-2.147,4.208-3.293,6.311
		c-0.946-2.034-2.688-4.059-2.712-6.105c-0.214-17.988-0.451-35.987-0.059-53.97c1.124-51.535-5.358-102.549-10.646-153.604
		c-10.657-102.884-4.238-204.567,18.428-305.428c9.858-43.867,17.069-88.239,11.379-133.402
		c-3.713-29.468-8.855-58.762-13.657-88.085c-6.656-40.636-5.538-81.593-5.596-122.515c-0.013-9.094-0.432-18.187-0.663-27.28
		C110.25-31.02,112.337-31.02,114.424-31.02z"/>
	<path d="M524.461-31.02c0.392,56.593,0.179,113.199,1.37,169.776c0.938,44.576,4.085,89.101,5.388,133.674
		c1.688,57.705-1.742,115.267-7.739,172.633c-7.26,69.454-8.394,138.765-2.984,208.529c3.965,51.132,2.973,102.652,4.025,154.002
		c0.305,14.861,0.188,29.737-0.112,44.599c-0.049,2.419-2.063,4.799-3.169,7.197c-1-2.507-2.853-5.009-2.869-7.522
		c-0.194-31.56,0.821-63.156-0.343-94.674c-1.683-45.575-4.299-91.138-7.611-136.626c-3.883-53.336-1.216-106.373,5.295-159.27
		c12.445-101.108,11.844-202.302,5.624-303.832c-3.457-56.421-2.225-113.129-3.083-169.707c-0.095-6.259-0.038-12.519-0.051-18.779
		C520.287-31.02,522.374-31.02,524.461-31.02z"/>
	<path d="M500.985-31.02c-0.166,3.112-0.412,6.223-0.487,9.338c-1.902,79.096,2.589,157.932,8.746,236.752
		c6.241,79.906,1.453,159.439-10.429,238.648c-4.524,30.155-8.454,60.43-11.523,90.765c-3.721,36.781-1.123,73.531,4.404,109.966
		c8.562,56.446,9.596,113.209,8.81,170.103c-0.137,9.908,0.124,19.824-0.162,29.726c-0.05,1.727-1.914,3.401-2.941,5.099
		c-1.068-1.648-2.938-3.241-3.056-4.954c-0.395-5.711-0.311-11.469-0.148-17.202c1.903-67.171-2.216-133.892-12.826-200.32
		c-7.649-47.892-3.393-95.717,4.79-143.248c12.759-74.118,23.236-148.534,20.379-223.967c-1.805-47.657-6.963-95.185-8.929-142.84
		c-2.138-51.818-2.323-103.717-3.335-155.581c-0.015-0.759,0.291-1.524,0.447-2.286C496.812-31.02,498.899-31.02,500.985-31.02z"/>
	<path d="M78.428-31.02c0.144,14.85,0.593,29.704,0.377,44.548c-0.88,60.545,0.985,120.908,8.456,181.101
		c6.299,50.756,3.906,101.573-3.241,152.088C69.167,451.71,65.391,556.958,74.9,662.642c5.711,63.478,3.716,127.141,3.821,190.745
		c0.003,1.999-1.816,4.002-2.786,6.003c-1.132-2.122-3.223-4.231-3.255-6.37c-0.858-57.605-0.955-115.227-2.379-172.816
		c-0.947-38.297-4.297-76.531-5.578-114.826c-2.263-67.656,2.617-135.035,11.072-202.086c8.633-68.459,7.458-136.664,0.806-205.208
		c-3.542-36.497-3.126-73.399-3.971-110.13c-0.605-26.315-0.339-52.649-0.462-78.975C74.255-31.02,76.341-31.02,78.428-31.02z"/>
	<path d="M342.918-31.02c-0.377,46.271,12.244,90.209,24.233,134.237c13.508,49.607,26.194,99.374,29.691,150.925
		c3.263,48.088-0.072,95.394-18.076,140.766c-11.605,29.245-28.417,55.366-54.959,72.488
		c-43.438,28.02-53.184,68.851-48.986,116.191c3.724,41.983,16.965,81.518,31.212,120.799c12.709,35.039,26.697,69.74,32.876,106.73
		c2.395,14.341,2.917,29.007,3.958,43.548c0.107,1.49-2.092,3.144-3.22,4.722c-0.953-1.504-2.733-3.005-2.739-4.513
		c-0.179-46.582-15.425-89.603-30.97-132.588c-14.72-40.704-29.793-81.321-35.862-124.525c-3.284-23.379-3.992-46.713,0.429-70.071
		c4.856-25.662,17.216-46.178,39.978-59.806c32.721-19.591,54.387-48.042,67.08-83.687c9.348-26.25,14.056-53.387,15.434-81.147
		c3.067-61.803-10.072-121.232-25.718-180.429C357.098,84.1,348.026,45.268,339.475,6.354c-2.655-12.081-1.972-24.895-2.818-37.373
		C338.744-31.02,340.831-31.02,342.918-31.02z"/>
	<path d="M367.958-31.02c-2.082,26.527,1.618,52.602,7.102,78.378c10.088,47.417,21.881,94.492,31.039,142.08
		c10.917,56.731,13.216,113.925,1.91,171.067c-9.971,50.394-32.309,94.384-67.997,131.556
		c-16.618,17.309-30.541,36.273-35.108,60.722c-5.508,29.486-1.906,58.458,6.551,86.579c9.75,32.421,21.392,64.282,32.594,96.253
		c13.082,37.335,23.819,75.085,23.301,115.144c-0.017,1.304,0.392,2.797-0.11,3.869c-0.81,1.731-2.213,3.184-3.366,4.755
		c-0.914-1.537-2.513-3.024-2.631-4.621c-0.829-11.173-0.814-22.429-2.071-33.545c-4.079-36.079-16.399-69.924-28.838-103.719
		c-13.687-37.185-28.236-74.154-33.351-113.815c-1.429-11.082-2.093-22.345-2.033-33.52c0.161-29.888,10.618-55.906,32.774-76.101
		c63.017-57.437,83.496-131.121,82.997-213.184c-0.35-57.608-12.853-113.257-25.959-168.921
		c-8.236-34.982-15.382-70.25-21.853-105.603C360.689-5.77,362-18.542,361.698-31.02C363.785-31.02,365.871-31.02,367.958-31.02z"/>
	<path d="M475.945-31.02c0.068,1.04,0.222,2.083,0.193,3.12c-1.989,68.983,2.791,137.585,10.923,206.052
		c12.498,105.223,5.262,209.255-19.385,312.259c-8.994,37.586-16.571,75.64-13.417,114.562c1.996,24.635,5.468,49.254,10.006,73.557
		c7.925,42.442,13.231,84.993,11.974,128.257c-0.447,15.376,0.056,30.777-0.216,46.161c-0.038,2.164-2.028,4.293-3.114,6.438
		c-1.004-2.247-2.788-4.464-2.874-6.746c-0.335-8.855-0.404-17.741-0.082-26.597c1.834-50.34-2.556-100.139-14.466-149.057
		c-14.802-60.799-12.035-120.804,3.882-181.004c12.604-47.67,21.94-96.07,26.184-145.344c4.493-52.16,3.754-104.295-1.929-156.232
		c-8.202-74.948-16.549-149.832-13.939-225.425C471.772-31.02,473.858-31.02,475.945-31.02z"/>
	<path d="M452.469-31.02c-1.616,48.03,0.108,95.845,7.038,143.508c8.14,55.99,14.979,112.108,15.49,168.87
		c0.672,74.617-13.431,146.594-35.359,217.54c-7.671,24.817-13.772,50.325-18.023,75.944c-5.741,34.592,1.687,68.514,9.98,102.064
		c9.137,36.964,18.736,73.882,19.938,112.211c0.678,21.622,0.461,43.275,0.355,64.913c-0.009,1.793-2.259,3.575-3.468,5.361
		c-0.883-1.82-2.484-3.617-2.54-5.462c-0.815-26.567,0.967-53.473-2.674-79.629c-4.692-33.698-12.075-67.245-21.193-100.052
		c-15.283-54.984-13.303-108.438,5.895-162.051c16.8-46.918,30.384-94.791,37.014-144.43c8.1-60.649,6.55-121.217-0.76-181.747
		c-5.437-45.026-12.48-89.888-16.683-135.021c-2.528-27.143-0.982-54.666-1.267-82.018C448.296-31.02,450.383-31.02,452.469-31.02z"
		/>
	<path d="M355.438-31.02c-1.477,31.883,4.774,62.789,11.827,93.595c10.937,47.768,23.46,95.242,32.39,143.383
		c10.604,57.172,10.734,114.674-5.046,171.396c-11.031,39.653-29.883,75.179-61.992,101.17
		c-41.662,33.722-50.252,76.811-42.274,126.402c6.258,38.896,19.765,75.582,33.347,112.267
		c12.413,33.529,24.697,67.117,29.238,102.837c1.475,11.607,1.658,23.387,2.112,35.101c0.053,1.378-1.93,2.834-2.97,4.254
		c-1.03-1.412-2.965-2.828-2.959-4.235c0.231-50.994-17.419-97.672-34.622-144.467c-13.414-36.488-27.147-73.006-31.499-111.905
		c-1.984-17.737-2.09-35.947-0.635-53.745c2.274-27.811,16.82-49.355,38.87-66.073c41.134-31.188,63.602-73.547,73.894-123.293
		c6.978-33.73,8.331-67.723,5.928-101.974c-3.597-51.272-16.428-100.726-28.679-150.378c-8.54-34.612-15.313-69.68-22.076-104.699
		c-1.852-9.592-0.822-19.741-1.114-29.635C351.264-31.02,353.351-31.02,355.438-31.02z"/>
	<path d="M572.977-31.02c0.312,135.319,0.883,270.638,0.869,405.957c-0.016,157.996-0.522,315.992-0.977,473.987
		c-0.01,3.492-1.956,6.978-3,10.467c-1.043-3.499-2.981-6.994-2.999-10.499c-0.631-124.885-3.802-249.835-0.892-374.642
		c3.929-168.464-1.368-336.856,0.738-505.27C568.803-31.02,570.89-31.02,572.977-31.02z"/>
	<path d="M488.465-31.02c-1.416,68.356,0.353,136.561,7.899,204.6c11.56,104.233,5.901,207.69-14.743,310.479
		c-9.004,44.834-15.337,90.087-9.971,135.973c3.482,29.768,9.606,59.284,11.916,89.117c2.954,38.145,3.34,76.492,4.654,114.758
		c0.349,10.157,0.226,20.342-0.121,30.5c-0.065,1.908-2.226,3.744-3.42,5.614c-0.892-0.389-1.783-0.778-2.675-1.167
		c0-3.846,0.035-7.692-0.005-11.538c-0.452-43.509,2.111-87.132-4.44-130.419c-3.978-26.289-8.346-52.518-12.475-78.784
		c-7.784-49.516-1.839-98.258,8.4-146.745c15.013-71.094,26.275-142.756,23.647-215.607c-1.84-51.017-6.056-102.005-10.939-152.84
		c-4.927-51.29-4.085-102.593-3.989-153.94C484.292-31.02,486.378-31.02,488.465-31.02z"/>
	<path d="M511.94-31.02c0.158,1.549,0.482,3.102,0.449,4.647c-1.964,90.571,3.085,180.909,8.133,271.286
		c3.791,67.873,0.122,135.705-9.445,202.944c-11.289,79.336-11.122,158.343-2.074,237.876c4.022,35.353,2.619,71.339,3.347,107.044
		c0.388,19.033,0.22,38.083-0.081,57.119c-0.05,3.176-2.069,6.321-3.178,9.48c-0.983-3.052-2.795-6.097-2.82-9.157
		c-0.22-26.864,0.747-53.765-0.327-80.588c-1.5-37.484-2.637-75.132-7.195-112.31c-7.492-61.114-6.672-121.798,2.876-182.437
		c17.062-108.363,17.062-216.961,8.523-326.125c-4.364-55.793-2.847-112.045-4.005-168.09c-0.081-3.898-0.306-7.794-0.464-11.69
		C507.767-31.02,509.854-31.02,511.94-31.02z"/>
	<path d="M67.473-31.02c-0.209,2.582-0.591,5.163-0.601,7.745c-0.33,81.099-0.664,162.158,7.031,243.074
		c5.058,53.191-0.052,106.315-5.74,159.244c-9.753,90.753-9.535,181.542-4.935,272.641c3.417,67.659,2.52,135.536,3.514,203.316
		c0.019,1.264-0.334,2.533-0.82,5.963c-2.488-2.285-4.106-3.471-5.287-4.996c-0.513-0.663-0.163-2.022-0.143-3.064
		c1.907-100.699-2.807-201.26-5.95-301.862c-1.958-62.654,2.868-125.112,8.641-187.444c5.596-60.424,4.659-120.723,1.161-181.261
		c-3.095-53.576-2.852-107.351-3.769-161.044c-0.298-17.429,0.397-34.875,0.638-52.313C63.3-31.02,65.386-31.02,67.473-31.02z"/>
	<path d="M608.972-31.02c0.073,2.604,0.21,5.208,0.21,7.812c0.01,290.968,0.019,581.936-0.12,872.904
		c-0.002,3.232-1.95,6.463-2.989,9.695c-1.057-3.231-3.037-6.461-3.039-9.693c-0.142-289.925-0.131-579.85-0.139-869.775
		c0-3.648-0.119-7.295-0.183-10.943C604.799-31.02,606.885-31.02,608.972-31.02z"/>
	<path d="M-6.083-31.02c0.076,2.082,0.218,4.164,0.218,6.246c0.009,292.013,0.008,584.027,0.002,876.04
		c0,1.824,0.29,3.758-0.227,5.432c-0.337,1.092-1.9,2.507-2.901,2.497c-1.036-0.011-2.719-1.425-2.946-2.478
		c-0.485-2.249-0.244-4.661-0.244-7.006c-0.011-290.449-0.016-580.899-0.028-871.348c0-3.128-0.088-6.256-0.134-9.383
		C-10.257-31.02-8.17-31.02-6.083-31.02z"/>
	<path d="M378.913-31.02c-1.265,64.487,18.203,125.616,30.478,187.905c10.371,52.63,16.823,105.537,13.131,159.341
		c-4.608,67.138-25.728,127.902-68.305,180.691c-12.124,15.032-23.54,30.615-29.974,49.194c-8.93,25.786-8.944,52.323-1.903,77.926
		c10.214,37.14,22.713,73.681,35.085,110.19c12.882,38.012,23.143,76.367,21.889,116.955c-0.064,2.083,0.118,4.225-0.341,6.218
		c-0.19,0.826-1.765,1.839-2.715,1.843c-0.993,0.005-2.415-0.88-2.877-1.776c-0.546-1.058-0.368-2.546-0.325-3.842
		c1.506-45.542-11.901-87.921-26.66-130.215c-11.665-33.426-23.08-67.065-31.982-101.291c-7.566-29.087-8.506-59.268,5.155-87.32
		c6.312-12.96,14.813-25.26,24.22-36.231c29.48-34.382,51.935-72.292,63.465-116.379c12.229-46.764,14.071-94.198,9.992-142.092
		c-4.687-55.048-18.178-108.431-30.557-162.019C378.39,42.166,372.335,5.991,372.653-31.02
		C374.74-31.02,376.827-31.02,378.913-31.02z"/>
	<path d="M6.437-31.02C6.582,77.703,6.878,186.425,6.838,295.147C6.77,480.782,6.498,666.416,6.259,852.05
		c-0.004,3.416,1.556,8.582-5.84,6.902c-0.14-2.323-0.398-4.608-0.399-6.894C0,559.261-0.003,266.463,0.002-26.334
		c0-1.562,0.114-3.124,0.174-4.685C2.264-31.02,4.35-31.02,6.437-31.02z"/>
	<path d="M295.967-31.02c1.255,15.507,0.43,31.539,4.179,46.418c9.156,36.348,19.827,72.351,30.992,108.149
		c15.886,50.933,30.106,102.126,30.306,155.997c0.125,33.422-4.01,66.259-20.332,96.154c-4.922,9.015-11.287,17.767-18.789,24.69
		c-6.449,5.951-15.026,11.556-23.425,13.062c-23.371,4.191-38.002,18.347-48.929,37.733c-14.301,25.374-19.362,53.253-20.836,81.888
		c-2.501,48.586,7.065,95.491,20.911,141.667c11.676,38.942,24.765,77.485,35.459,116.687c5.238,19.204,6.502,39.498,9.436,59.318
		c0.401,2.709,0.055,5.528,0.055,8.296c-0.779,0.219-1.559,0.439-2.338,0.658c-0.806-1.598-2.286-3.181-2.32-4.796
		c-0.937-43.682-14.417-84.603-27.622-125.559c-13.366-41.452-26.844-82.886-33.323-126.118
		c-6.47-43.172-7.626-86.233,5.571-128.587c5.806-18.634,13.685-36.489,28.489-49.585c7.747-6.853,17.429-13.506,27.237-15.63
		c21.012-4.55,34.953-16.693,45.177-34.266c14.241-24.476,19.514-51.478,21.04-79.375c2.778-50.787-7.803-99.572-22.634-147.647
		c-10.832-35.114-23.428-69.749-32.679-105.263c-6.26-24.032-8.079-49.221-11.884-73.893C291.793-31.02,293.88-31.02,295.967-31.02z
		"/>
	<path d="M619.927-31.02c0,296.683,0,593.366,0,892.365c-2.636-2.501-4.2-3.319-4.595-4.521c-0.544-1.658-0.242-3.606-0.242-5.429
		c-0.002-292.575,0.002-585.149,0.011-877.724c0-1.563,0.085-3.126,0.13-4.69C616.797-31.02,618.362-31.02,619.927-31.02z"/>
</g>
<rect x="-31.324" y="-33.333" opacity="0.8" fill="#36A9E1" width="659.323" height="896.276"/>
</svg>
