<?xml version="1.0" encoding="utf-8"?>
<!-- Generator: Adobe Illustrator 17.1.0, SVG Export Plug-In . SVG Version: 6.00 Build 0)  -->
<!DOCTYPE svg PUBLIC "-//W3C//DTD SVG 1.1//EN" "http://www.w3.org/Graphics/SVG/1.1/DTD/svg11.dtd">
<svg version="1.1" id="Calque_1" xmlns="http://www.w3.org/2000/svg" xmlns:xlink="http://www.w3.org/1999/xlink" x="0px" y="0px"
	 viewBox="0 0 595.28 841.89" enable-background="new 0 0 595.28 841.89" xml:space="preserve">
<g>
	<path d="M450.21,0c2.001,0,4.002,0,6.003,0c0,14.588,0.429,29.206-0.095,43.756c-0.904,25.103,2.753,48.968,8.35,72.554
		c7.244,30.527,14.83,60.934,21.161,91.84C497,263.669,501.743,320.3,495.526,377.82c-9.882,91.433-42.311,163.125-97.193,214.654
		c-10.295,9.666-20.863,18.827-30.768,29.226c-12.194,12.8-12.512,25.545-1.878,40.732c1.536,2.193,3.152,4.389,4.978,6.049
		c8.039,7.306,16.102,14.568,24.28,21.562c13.455,11.507,27.549,21.716,40.37,34.459c14.376,14.29,21.336,34.919,20.954,60.161
		c-0.289,19.067-0.056,38.15-0.056,57.226c-2.001,0-4.002,0-6.003,0c0-17.106-0.299-34.226,0.072-51.316
		c0.542-24.969-6.265-45.261-20.426-59.527c-11.621-11.708-24.241-21.563-36.748-31.416c-14.796-11.656-30.375-21.586-42.534-38.787
		c-11.122-15.734-10.258-28.589,3.1-40.302c9.974-8.746,20.482-16.305,30.809-24.248c85.139-65.491,117.101-183.819,109.643-302.7
		c-3.088-49.217-13.294-95.933-24.852-142.299c-6.83-27.398-14.038-54.993-17.875-83.351C448.427,45.98,450.422,22.696,450.21,0z"/>
	<path d="M540.252,841.89c-2.001,0-4.002,0-6.003,0c0-48.242-0.239-96.487,0.097-144.724c0.18-25.73-2.024-50.852-6.882-75.586
		c-5.299-26.983-8.542-54.286-5.084-82.251c2.625-21.234,5.45-42.446,8.83-63.464c12.572-78.181,14.88-156.946,8.256-236.475
		c-2.432-29.198-4.532-58.584-5.002-87.94c-0.808-50.46-0.219-100.964-0.216-151.449c2.001,0,4.002,0,6.003,0
		c0,48.231-0.234,96.466,0.099,144.693c0.162,23.515,1.148,47.036,2.197,70.516c0.862,19.293,2.44,38.52,3.573,57.791
		c4.372,74.364-1.095,147.752-11.27,220.659c-5.349,38.323-6.951,76.647-0.483,115.085c4.847,28.806,6.2,58.043,5.98,87.613
		C539.989,744.863,540.252,793.378,540.252,841.89z"/>
	<path d="M252.118,841.89c-2.001,0-4.002,0-6.003,0c0.772-16.861-2.64-32.39-8.865-46.385
		c-8.452-19.001-17.327-37.672-26.591-55.915c-21.275-41.894-41.175-84.83-52.903-134.05
		c-15.668-65.753-18.135-131.637,3.157-195.835c19.826-59.777,51.781-98.854,100.401-105.406
		c40.108-5.405,75.975,28.022,88.171,81.776c2.298,10.127,3.784,20.625,6.22,30.678c3.042,12.558,9.4,16.207,18.007,10.673
		c3.041-1.955,5.938-4.707,8.478-7.781c12.68-15.35,19.076-35.713,22.36-58.094c6.9-47.028-0.884-90.674-16.576-132.139
		c-17.415-46.018-43.377-81.458-72.086-113.466c-17.205-19.183-34.614-38.073-51.146-58.356C252.642,42.745,244.791,23.98,246.115,0
		c2.001,0,4.002,0,6.003,0c-0.768,15.257,2.237,29.295,9.102,40.753c7.162,11.953,15.042,23.255,23.424,33.535
		c22.254,27.294,46.078,52.259,67.204,81.133c32.104,43.878,54.182,96.229,58.126,160.636c2.127,34.729-2.24,67.645-16.631,96.867
		c-6.339,12.872-14.171,23.646-25.096,28.763c-10.715,5.019-17.111-0.418-18.947-15.934c-0.523-4.416-0.86-8.882-1.165-13.341
		c-1.392-20.342-4.807-39.739-13.219-56.873c-18.807-38.307-53.633-56.058-88.678-44.589
		c-36.441,11.926-62.062,43.598-79.316,88.932c-20.511,53.894-22.944,111.13-13.769,169.932
		c7.943,50.909,24.762,96.152,45.804,138.535c13.356,26.902,27.397,53.142,40.56,80.225
		C247.229,804.444,252.944,821.788,252.118,841.89z"/>
	<path d="M366.171,0c2.001,0,4.002,0,6.003,0c-1.352,21.54,3.347,40.959,10.783,59.317c4.142,10.225,8.41,20.37,12.96,30.244
		c20.169,43.778,40.201,87.631,52.465,137.352c13.75,55.747,18.457,112.439,7.689,170.178
		c-11.473,61.52-35.579,109.837-77.417,137.837c-44.658,29.888-94.242,15.312-126.364-36.562
		c-5.234-8.453-9.806-17.706-14.861-26.387c-8.878-15.246-17.27-14.326-24.373,2.79c-5.345,12.881-7.379,27.135-7.752,41.864
		c-0.963,38.028,7.792,72.185,21.655,104.104c17.582,40.482,42.189,71.437,69.144,99.128c18.369,18.87,37.054,37.183,54.939,56.92
		c14.731,16.256,23.251,37.559,21.134,65.104c-2.001,0-4.002,0-6.003,0c1.698-24.467-5.45-44.127-18.168-59.428
		c-13.173-15.848-27.081-30.558-41.089-44.96c-25.866-26.593-51.11-54.049-70.866-90.043
		c-19.272-35.113-32.742-73.731-34.841-118.639c-1.294-27.691,1.027-54.581,14.661-76.689c7.767-12.594,15.408-11.603,21.876,2.324
		c4.248,9.146,7.682,19.04,11.986,28.128c23.378,49.364,56.445,69.634,97.916,61.359c35.952-7.174,63.244-34.898,83.291-76.312
		c28.075-58,33.625-122.354,24.647-189.976c-7.135-53.745-24.055-101.773-44.91-147.374c-11.539-25.232-23.309-50.267-34.465-75.828
		C368.997,37.926,365.019,19.78,366.171,0z"/>
	<path fill="#FFFFFF" d="M60.028,0c2.001,0,4.002,0,6.003,0c0.002,49.918-0.56,99.855,0.265,149.746
		c0.363,21.943,2.693,44.027,5.673,65.627c3.605,26.121,9.453,51.835,6.383,78.798c-3.082,27.071-6.546,54.088-10.594,80.906
		c-11.283,74.757-13.091,149.954-7.039,225.786c2.398,30.045,4.588,60.248,5.088,90.437c0.832,50.172,0.225,100.39,0.223,150.589
		c-2.001,0-4.002,0-6.003,0c0-50.748,0.045-101.496-0.032-152.244c-0.02-12.885-0.058-25.808-0.738-38.646
		c-1.51-28.503-3.526-56.951-5.166-85.442c-4.215-73.243,1.504-145.484,11.382-217.28c5.396-39.215,6.057-78.207,0.056-117.636
		c-3.19-20.962-4.995-42.677-5.271-64.106C59.545,111.04,60.025,55.514,60.028,0z"/>
	<path fill="#FFFFFF" d="M192.09,0c2.001,0,4.002,0,6.003,0c0.001,5.049,0.269,10.132-0.043,15.143
		c-1.628,26.187,6.309,46.155,20.361,62.143c4.186,4.762,8.43,9.505,12.957,13.582c23.856,21.487,48.298,41.773,71.592,64.387
		c22.243,21.593,41.092,48.509,52.39,83.731c3.512,10.951,5.55,23.438,6.181,35.437c0.688,13.099-5.225,18.927-14.441,16.141
		c-7.196-2.176-14.256-5.346-21.284-8.48c-29.255-13.045-58.783-16.45-88.438-3.51c-45.017,19.643-75.704,61.999-94.558,121.524
		c-20.697,65.344-20.483,132.671-7.623,200.716c8.919,47.191,24.349,90.484,40.749,133.18
		c12.953,33.723,25.691,67.52,22.156,107.897c-2.001,0-4.002,0-6.003,0c2.424-34.193-4.389-65.259-15.584-95.207
		c-9.085-24.302-17.812-48.924-25.777-73.98c-20.513-64.53-32.003-131.458-24.665-202.689
		c6.18-59.988,23.596-112.271,56.358-152.725c37.931-46.836,82.352-60.324,131.461-47.046c8.228,2.225,16.489,4.657,24.815,5.611
		c9.518,1.09,13.763-5.353,13.009-18.768c-0.324-5.774-1.38-11.663-2.88-17.077c-6.749-24.362-18.565-43.66-32.026-61.135
		c-21.609-28.05-47.247-47.729-72.253-68.853c-13.449-11.361-26.436-24.19-38.497-38.268
		c-10.065-11.747-14.534-28.468-13.998-47.343C192.283,16.286,192.09,8.138,192.09,0z"/>
	<path d="M336.157,841.89c-2.001,0-4.002,0-6.003,0c0.27-14.065-2.666-27.281-9.182-37.343
		c-12.185-18.818-24.88-37.142-38.354-54.127c-23.827-30.036-47.728-59.839-66.144-97.035
		c-25.783-52.078-40.465-108.644-33.947-173.073c3.591-35.5,14.005-66.554,33.771-90.233c11.392-13.647,24.455-22.264,39.908-21.262
		c16.155,1.047,22.176,13.644,16.832,34.851c-0.665,2.639-1.301,5.292-2.005,7.91c-4.048,15.054-5.34,30.428-2.516,46.183
		c6.165,34.389,29.181,60.62,56.37,64.242c33.63,4.48,61.379-13.052,83.431-47.302c34.175-53.078,42.035-116.614,33.927-185.194
		c-6.272-53.049-22.891-100.083-45.395-142.942c-16.109-30.678-33.727-59.789-50.195-90.108c-9-16.569-16.764-34.336-16.502-56.46
		c2.001,0,4.002,0,6.003,0c1.538,10.034,1.986,20.746,4.887,29.932c3.763,11.914,8.915,23.202,14.469,33.722
		c14.15,26.802,29.373,52.507,43.23,79.594c27.367,53.498,46.308,111.934,48.549,178.824c1.866,55.692-7.54,107.194-33.997,150.025
		c-25.767,41.714-58.072,63.611-98.068,51.19c-27.518-8.546-46.785-32.226-51.371-72.82c-1.66-14.695,0.848-30.536,2.393-45.665
		c1.848-18.1-3.271-27.736-16.222-27.71c-13.794,0.028-25.083,8.769-34.811,21.498c-21.793,28.515-30.528,65.145-31.343,105.728
		c-1.058,52.66,11.98,99.362,32.726,142.342c19.623,40.652,45.707,72.459,71.997,104.132c12.844,15.474,25.025,32.179,36.605,49.512
		C332.703,811.532,336.589,825.91,336.157,841.89z"/>
	<path fill="#FFFFFF" d="M348.162,0c2.001,0,4.002,0,6.003,0c-0.851,17.482,2.826,33.474,9.354,47.877
		c9.426,20.796,19.286,41.236,29.47,61.32c23.282,45.915,43.966,93.669,54.319,148.773c12.026,64.005,10.999,126.885-11.824,186.23
		c-20.695,53.812-51.843,88.142-96.668,93.765c-39.98,5.015-76.058-28.986-87.78-82.681c-2.219-10.162-3.682-20.667-6.13-30.709
		c-3.019-12.384-9.37-16.84-17.349-10.199c-7.001,5.827-13.717,13.8-18.585,22.902c-11.546,21.586-15.365,47.193-15.594,73.745
		c-0.359,41.589,8.986,79.357,24.153,114.544c17.871,41.46,42.61,73.918,69.429,103.662c15.99,17.734,32.145,35.243,47.482,54.045
		c12.385,15.183,21.011,33.886,19.724,58.617c-2.001,0-4.002,0-6.003,0c0.768-16.57-3.39-30.92-10.655-43.468
		c-4.393-7.588-9.102-15.04-14.411-21.322c-16.342-19.338-33.185-37.842-49.57-57.111c-28.926-34.017-54.096-72.476-69.556-121.575
		c-14.419-45.794-19.608-92.879-7.167-141.358c5.966-23.25,15.308-43.337,31.71-54.709c14.075-9.758,21.985-2.725,23.783,19.014
		c1.213,14.663,2.43,29.747,5.873,43.549c12.287,49.255,49.271,76.492,89.287,67.971c34.512-7.349,60.537-34.056,79.236-74.34
		c26.863-57.873,30.957-121.311,20.429-187.376c-8.509-53.395-26.923-100.326-49.268-144.552
		c-13.513-26.745-27.228-53.304-40.248-80.515C351.076,32.453,347.415,16.934,348.162,0z"/>
	<path d="M48.022,841.89c-2.001,0-4.002,0-6.003,0c0-42.369,0.292-84.743-0.076-127.106c-0.436-50.199-1.087-100.405-2.297-150.577
		c-1.226-50.811-0.736-101.479,1.96-152.206c2.094-39.397,3.599-78.935,3.797-118.426c0.15-29.943-2.992-59.898-3.224-89.869
		C41.653,135.811,42.017,67.903,42.02,0c2.001,0,4.002,0,6.003,0c0.001,63.393-0.122,126.787,0.09,190.179
		c0.051,15.391,0.502,30.908,1.978,46.136c4.638,47.865,4.057,95.536-0.262,143.388c-4.496,49.824-7.376,99.875-5.921,150.179
		c1.175,40.62,3.503,81.203,3.936,121.831C48.519,715.093,48.022,778.497,48.022,841.89z"/>
	<path d="M264.123,841.89c-2.001,0-4.002,0-6.003,0c-0.273-4.732-0.276-9.531-0.868-14.183
		c-2.237-17.567-8.804-32.384-16.051-46.484c-14.956-29.096-30.863-57.261-45.308-86.838
		c-25.335-51.875-42.711-108.309-45.009-172.078c-2.115-58.711,7.81-112.617,36.241-157.293
		c24.72-38.844,55.416-59.005,93.37-51.895c37.993,7.117,63.693,50.425,62.081,104.096c-0.185,6.162-0.461,12.341-0.324,18.496
		c0.293,13.144,5.234,20.788,14.374,18.716c7.601-1.724,15.637-5.595,21.923-11.681c17.993-17.422,27.403-43.382,31.963-72.636
		c8.323-53.401-0.559-102.845-19.106-149.565c-17.805-44.852-43.481-79.985-71.29-112.477
		c-14.733-17.214-29.529-34.401-43.513-52.774C265.444,40.635,257.315,23,258.12,0c2.001,0,4.002,0,6.003,0
		c-0.408,13.402,1.88,26.237,8.028,36.139c10.061,16.205,20.79,31.698,31.938,46.449c18.308,24.225,38.165,46.281,55.59,71.655
		c30.615,44.581,51.895,96.61,56.268,159.662c2.879,41.512-2.544,80.472-20.827,114.502c-9.647,17.956-21.762,31.392-37.92,35.739
		c-17.351,4.668-25.253-6.71-21.815-30.767c0.471-3.296,1.037-6.57,1.427-9.884c4.393-37.339-3.953-67.621-26.223-89.277
		c-20.518-19.951-43.391-23.451-67.085-14.709c-35.429,13.071-59.545,45.638-75.087,90.86
		c-19.831,57.701-19.479,117.494-6.769,177.8c10.875,51.601,31.082,96.099,54.241,138.345
		c13.511,24.646,26.853,49.504,39.592,74.935C261.374,813.21,264.512,827.035,264.123,841.89z"/>
	<path d="M426.199,0c2.001,0,4.002,0,6.003,0c0.001,6.452,0.338,12.945-0.055,19.35c-1.892,30.803,4.036,59.274,12.347,87.278
		c8.814,29.7,17.849,59.338,25.464,89.658c15.927,63.414,22.743,128.634,12.415,195.108
		c-16.954,109.127-63.351,179.66-141.677,206.576c-10.845,3.727-21.841,6.871-32.422,11.755c-9.611,4.437-12.247,14.249-7.14,26.553
		c3.757,9.051,8.6,17.621,14.025,24.828c17.324,23.022,38.764,37.246,59.377,53.293c13.409,10.44,26.757,21.39,39.088,34.102
		c12.921,13.319,19.224,32.402,18.63,55.519c-0.324,12.608-0.055,25.245-0.053,37.869c-2.001,0-4.002,0-6.003,0
		c0-10.379-0.353-20.786,0.069-31.131c1.056-25.845-6.424-46.197-21.025-60.675c-12.185-12.083-25.204-22.637-38.266-32.83
		c-21.304-16.626-43.343-31.8-61.048-55.802c-7.479-10.139-14.095-22.19-19.251-34.856c-5.104-12.538-1.404-21.271,8.454-25.451
		c1.714-0.727,3.473-1.344,5.244-1.691c8.903-1.742,17.814-3.409,26.727-5.044c37.041-6.798,70.268-25.775,97.628-62.096
		c42.717-56.709,59.881-128.047,59.41-209.025c-0.318-54.665-10.583-106.25-25.188-156.398
		c-4.753-16.319-9.356-32.794-14.983-48.526C430.606,80.998,423.293,42.065,426.199,0z"/>
	<path d="M294.137,0c2.001,0,4.002,0,6.003,0c0.258,3.332,0.338,6.715,0.803,9.989c2.812,19.787,11.315,35.109,20.605,49.472
		c18.669,28.862,38.482,56.337,56.403,86.069c30.554,50.691,51.707,107.864,54.535,175.638
		c2.241,53.703-7.041,102.634-34.282,142.195c-19.78,28.726-43.826,44.196-72.972,36.58c-16.369-4.277-29.415-16.081-35.185-39.47
		c-4.042-16.383,0.035-31.535,9.976-38.983c9.879-7.402,14.23-20.684,11.526-35.881c-3.677-20.665-13.797-33.26-27.467-40.048
		c-25.213-12.519-48.294-3.719-68.96,17.599c-30.183,31.135-43.775,75.35-46.956,126.342c-3.198,51.268,6.29,98.862,23.332,143.831
		c16.321,43.064,39.223,78.912,63.117,113.787c12.169,17.761,23.814,36.303,34.961,55.338c6.513,11.121,10.477,24.48,10.564,39.432
		c-2.001,0-4.002,0-6.003,0c-0.116-13.978-3.341-26.942-9.447-37.408c-13.78-23.619-28.031-46.744-42.722-69.26
		c-27.036-41.436-51.361-85.309-65.132-138.815c-15.293-59.418-17.766-119.099,2.33-177.324
		c16.108-46.669,41.378-78.336,79.806-83.093c19.469-2.41,36.976,5.712,49.727,27.82c13.021,22.574,10.871,52.497-6.355,66.084
		c-8.421,6.642-10.936,20.098-6.159,33.121c2.994,8.161,7.471,16.362,12.773,21.543c16.803,16.418,35.503,16.12,53.91,6.536
		c32.081-16.704,50.813-51.323,60.774-95.591c13.631-60.58,6.013-118.6-13.283-174.422c-16.104-46.589-40.295-84.594-66.008-121.024
		c-13.484-19.104-26.569-38.834-39.065-59.209C298.325,29.495,294.149,15.603,294.137,0z"/>
	<path d="M228.106,841.89c-2.001,0-4.002,0-6.003,0c-0.274-8.381,0.04-16.899-0.937-25.115
		c-2.517-21.163-10.51-39.135-18.093-57.251c-11.522-27.527-23.864-54.435-34.541-82.589
		c-24.14-63.659-37.493-130.95-30.433-203.817c5.28-54.494,20.948-102.022,50.47-139.307
		c46.392-58.592,115.732-65.126,163.656,5.089c4.006,5.869,8.106,11.673,12.517,16.922c8.345,9.929,15.774,8.18,20.096-5.946
		c2.85-9.315,4.631-19.78,5.14-29.904c1.477-29.346-4.793-56.46-14.239-82.227c-14.176-38.669-34.853-69.732-59.336-95.634
		c-20.559-21.751-42.12-41.629-63.033-62.735C234.1,59.926,218.94,36.978,222.104,0c2.001,0,4.002,0,6.003,0
		c-2.123,27.475,6.568,48.213,20.767,65.504c2.566,3.125,5.065,6.397,7.811,9.184c16.839,17.091,33.81,33.926,50.604,51.104
		c25.721,26.308,48.758,56.406,65.649,94.703c14.475,32.817,23.506,68.038,21.991,107.333c-0.601,15.581-2.877,30.631-9.736,43.486
		c-6.084,11.401-12.553,12.153-19.472,1.881c-4.103-6.09-7.697-12.881-11.34-19.55c-13.569-24.847-30.075-44.421-51.649-53.773
		c-43.175-18.716-81.163-3.142-113.72,38.308c-35.066,44.645-49.381,102.732-50.282,167.894
		c-0.793,57.374,10.244,111.023,29.492,161.002c13.557,35.202,29.231,68.8,43.956,103.117
		C221.652,792.27,229.879,814.896,228.106,841.89z"/>
	<path d="M210.098,0c2.001,0,4.002,0,6.003,0c-3.114,34.514,8.785,58.514,27.659,77.604c5.022,5.08,10.017,10.226,15.164,15.05
		c25.079,23.507,50.984,45.419,73.115,74.6c22.164,29.225,40.257,62.277,48.832,104.01c3.976,19.353,6.041,39.06,1.085,58.651
		c-3.682,14.557-9.899,17.437-19.044,9.074c-6.348-5.805-12.169-12.731-18.306-19.001c-43.16-44.088-88.752-49.143-134.81-11.686
		c-48.572,39.5-70.247,103.397-75.204,179.506c-3.84,58.97,5.324,115.16,23.611,167.892c12.907,37.219,28.141,72.865,42.592,109.012
		c9.615,24.051,17.393,48.643,15.306,77.178c-2.001,0-4.002,0-6.003,0c2.064-27.701-4.115-52.519-13.51-76.234
		c-10.672-26.937-21.79-53.554-31.862-80.927c-24.479-66.527-38.787-136.329-31.426-212.116
		c5.64-58.077,22.463-108.585,54.572-147.257c28.439-34.252,61.434-50.21,99.217-44.378c22.183,3.424,41.759,16.213,60.495,32.308
		c4.581,3.935,9.329,7.697,14.302,10.476c7.149,3.994,12.724,0.517,14.233-9.895c1.406-9.7,2.227-20.122,1.279-29.837
		c-3.245-33.249-15.096-61.035-30.059-86.464c-19.215-32.655-43.4-56.922-68.45-79.777c-15.237-13.902-30.575-27.658-45.272-42.629
		c-11.329-11.539-20.624-26.168-22.84-46.627C209.765,19.19,210.277,9.521,210.098,0z"/>
	<path fill="#FFFFFF" d="M558.26,841.89c-2.001,0-4.002,0-6.003,0c0-63.397,0.117-126.794-0.087-190.19
		c-0.048-14.829-0.494-29.786-1.949-44.451c-4.777-48.133-4.203-96.07,0.183-144.21c4.589-50.374,7.527-100.983,6.086-151.862
		c-1.285-45.385-3.505-90.74-4.059-136.139c-0.712-58.33-0.173-116.691-0.173-175.038c2.001,0,4.002,0,6.003,0
		c0,47.702-0.288,95.408,0.084,143.104c0.343,44.029,1.025,88.067,2.23,132.064c1.423,51.93,1.238,103.745-2.016,155.549
		c-2.79,44.42-5.641,88.833-3.583,133.57c1.531,33.288,2.861,66.641,3.143,99.985C558.621,723.471,558.26,782.684,558.26,841.89z"/>
	<path d="M354.165,841.89c1.288-24.732-7.339-43.434-19.724-58.617c-15.337-18.803-31.492-36.312-47.482-54.045
		c-26.819-29.744-51.558-62.202-69.429-103.662c-15.167-35.187-24.511-72.954-24.153-114.544
		c0.229-26.552,4.048-52.159,15.594-73.745c4.868-9.102,11.584-17.074,18.585-22.902c7.979-6.641,14.33-2.185,17.349,10.199
		c2.448,10.042,3.911,20.546,6.13,30.709c11.722,53.695,47.8,87.697,87.78,82.681c44.825-5.623,75.973-39.954,96.668-93.765
		c22.823-59.345,23.849-122.225,11.824-186.23c-10.353-55.104-31.037-102.857-54.319-148.773
		c-10.184-20.084-20.044-40.524-29.47-61.32C356.992,33.474,353.314,17.482,354.165,0c2.001,0,4.002,0,6.003,0
		c-0.825,15.86,1.574,30.96,7.273,44.439c8.447,19.981,17.322,39.654,26.674,58.826c18.199,37.312,35.679,75.161,47.197,117.664
		c18.042,66.577,22.698,133.95,3.912,201.813c-13,46.963-34.797,83.528-67.863,105.145c-50.446,32.978-111.663,9.385-132.55-74.997
		c-1.434-5.794-3.26-11.488-5.418-16.82c-3.82-9.436-9.739-12.24-16.149-6.227c-5.014,4.704-9.654,11.026-13.142,17.938
		c-9.298,18.431-12.544,39.859-13.043,62.023c-0.981,43.575,9.169,82.635,25.582,118.881c17.963,39.67,42.347,70.608,68.672,98.95
		c16.959,18.258,34.04,36.373,50.268,55.86c12.441,14.939,20.078,34.124,18.588,58.394
		C358.167,841.89,356.166,841.89,354.165,841.89z"/>
	<path d="M408.19,841.89c-2.001,0-4.002,0-6.003,0c0.001-6.17-0.22-12.359,0.043-18.507c0.906-21.152-4.911-38.46-15.787-52.322
		c-6.328-8.065-13.203-15.488-20.39-21.986c-20.639-18.662-41.946-35.908-62.272-55.202c-23.209-22.031-43.699-48.497-56.643-84.092
		c-4.353-11.969-7.187-25.574-8.702-38.882c-1.79-15.719,4.979-23.184,16.016-19.635c5.818,1.871,11.518,4.55,17.192,7.197
		c27.426,12.793,55.31,18.072,83.719,7.985c49.723-17.655,83.136-62.217,103.145-127.092c19.96-64.716,19.437-131.273,6.672-198.383
		c-9.34-49.102-25.73-93.937-42.861-138.287C409.929,70.604,398.929,38.076,402.188,0c2.001,0,4.002,0,6.003,0
		c-1.53,29.123,1.68,56.905,11.416,83.042c6.286,16.874,12.138,34.066,18.24,51.076c19.89,55.449,35.449,112.77,38.211,175.523
		c2.643,60.062-5.227,116.969-29.087,167.649c-32.235,68.469-77.514,103.507-136.783,98.436
		c-13.679-1.171-27.231-5.564-40.806-8.773c-19.051-4.504-25.335,5.486-19.157,31.166c4.688,19.488,13.109,35.799,22.91,50.793
		c17.9,27.383,39.677,47.618,62.151,66.689c17.752,15.064,35.672,29.907,52.584,46.698c14.104,14.002,21.67,34.073,20.373,59.401
		C407.899,828.396,408.19,835.158,408.19,841.89z"/>
	<path d="M78.036,0c2.001,0,4.002,0,6.003,0c0.003,42.916-0.098,85.833,0.096,128.747c0.04,8.912,0.06,18.336,2.028,26.618
		c4.586,19.301,9.978,38.278,15.752,56.956c5.124,16.575,8.935,33.455,5.991,51.339c-3.086,18.748-6.538,37.584-11.471,55.493
		c-27.739,100.703-33.462,203.88-20.028,309.863c3.765,29.702,6.412,59.921,7.323,90.037c1.236,40.879,0.308,81.886,0.308,122.839
		c-2.001,0-4.002,0-6.003,0c0-36.454,0.068-72.909-0.032-109.363c-0.043-15.69,0.351-31.495-0.828-47.043
		c-2.639-34.81-6.459-69.442-9.212-104.237c-4.031-50.94-4.532-102.082,2.733-152.418c5.728-39.685,13.151-78.995,21.319-117.852
		c7.659-36.433,8.313-71.185-3.531-106.23c-7.498-22.187-10.666-46.155-10.524-70.99C78.218,89.174,78.036,44.586,78.036,0z"/>
	<path d="M390.182,0c2.001,0,4.002,0,6.003,0c-0.809,22.102,0.399,43.736,7.882,63.798c8.701,23.326,17.386,46.665,26.262,69.86
		c21.326,55.729,37.866,113.555,40.714,177.631c2.639,59.382-5.806,114.976-29.454,164.896
		c-36.288,76.606-102.013,113.345-167.317,75.838c-9.965-5.724-19.741-12.171-29.873-17.225
		c-7.206-3.594-12.328,0.802-13.856,11.203c-0.908,6.185-1.205,12.874-0.602,19.112c2.486,25.69,11.087,47.732,21.923,68.202
		c17.934,33.879,41.421,58.922,66.399,81.563c18.281,16.571,36.896,32.485,54.674,50.061c16.14,15.957,25.335,37.825,23.277,66.856
		c-0.236,3.333-0.032,6.728-0.031,10.095c-2.001,0-4.002,0-6.003,0c0-3.929-0.176-7.876,0.03-11.784
		c1.168-22.196-5.234-40.066-16.641-54.387c-7.269-9.126-15.199-17.329-23.248-25.097c-21.067-20.331-42.921-39.142-63.42-60.523
		c-23.835-24.86-43.571-55.385-55.958-93.934c-6.461-20.106-11.221-40.985-7.899-63.507c2.404-16.296,8.527-20.417,19.099-12.763
		c7.799,5.646,15.184,12.404,22.846,18.435c53.164,41.85,117.038,27.246,158.29-35.454c29.261-44.475,43.186-97.463,45.509-157.011
		c2.212-56.677-6.892-110.504-24.097-161.268c-12.332-36.387-26.673-71.458-40.519-106.807C394.639,53.447,388.225,28.277,390.182,0
		z"/>
	<path fill="#FFFFFF" d="M150.07,841.89c-2.001,0-4.002,0-6.003,0c0.001-12.9-0.426-25.833,0.09-38.692
		c1.142-28.488-3.008-55.534-9.43-82.357c-7.871-32.877-15.772-65.818-22.192-99.284c-11.199-58.372-13.977-117.584-5.013-177.221
		c12.779-85.012,46.028-150.197,97.557-197.652c9.347-8.608,18.812-17.071,27.64-26.658c11.648-12.651,12.21-25.285,1.621-39.385
		c-5.877-7.826-12.715-14.487-19.661-20.426c-14.994-12.82-30.741-23.967-45.431-37.408c-16.993-15.549-26.109-37.787-25.278-67.288
		c0.52-18.479,0.098-37.011,0.098-55.519c2.001,0,4.002,0,6.003,0c0.001,2.806,0.002,5.612,0.002,8.419
		c0,12.627,0.545,25.309-0.104,37.87c-1.752,33.898,9.6,57.573,29.185,74.584c11.025,9.576,22.635,17.835,34.015,26.6
		c13.321,10.259,26.973,19.906,37.463,35.871c9.208,14.015,8.486,25.723-2.608,36.54c-6.7,6.532-13.981,11.964-21.204,17.355
		c-22.706,16.947-44.22,36.292-62.032,62.606c-50.475,74.564-65.509,164.475-57.239,264.088
		c3.672,44.226,13.491,86.258,23.85,128.138c6.657,26.917,13.771,53.995,17.478,81.84
		C151.805,795.907,149.854,819.182,150.07,841.89z"/>
	<path d="M474.221,0c2.001,0,4.002,0,6.003,0c0.001,18.505,0.512,37.045-0.109,55.509c-1.125,33.464,2.985,65.692,9.373,97.737
		c9.247,46.386,17.402,93.078,19.863,141.445c4.865,95.59-12.248,181.985-53.865,258.352c-10.186,18.692-21.386,36.326-31.22,55.361
		c-11.733,22.712-10.204,36.468,5.116,54.272c9.067,10.537,18.873,19.821,27.956,30.331c15.56,18.004,23.426,41.075,22.975,69.818
		c-0.414,26.343-0.089,52.709-0.089,79.065c-2.001,0-4.002,0-6.003,0c0-23.279-0.552-46.591,0.131-69.831
		c0.987-33.538-9.387-58.202-28.387-76.835c-9.821-9.632-20.065-18.463-29.6-28.611c-17.159-18.261-18.264-32.628-4.314-55.463
		c8.187-13.402,17.114-25.915,25.69-38.852c56.203-84.79,76.563-185.295,66.893-299.119c-3.799-44.717-12.695-87.717-21.449-130.806
		c-4.873-23.987-9.473-48.004-9.046-73.38C474.526,46.008,474.221,22.999,474.221,0z"/>
	<path d="M504.235,841.89c-2.001,0-4.002,0-6.003,0c-0.006-35.072,0.044-70.144-0.041-105.216
		c-0.042-17.443-2.696-34.205-9.654-48.741c-5.767-12.047-12.028-23.881-19.175-34.321c-14.041-20.512-16.428-42.648-7.13-67.573
		c6.574-17.623,13.126-35.266,19.853-52.774c26.347-68.563,39.501-141.519,37.958-219.62c-0.823-41.668-5.156-82.636-11.811-123.103
		c-6.904-41.983-11.58-84.118-10.118-127.421c0.709-20.996,0.12-42.078,0.118-63.122c2.001,0,4.002,0,6.003,0
		c0,27.198-0.072,54.396,0.028,81.593c0.057,15.407-0.761,31.053,0.838,46.17c4.099,38.75,9.694,77.184,14.015,115.892
		c5.532,49.549,6.328,99.262,1.079,149.066c-5.339,50.651-17.596,98.039-33.158,144.066c-6.141,18.163-11.731,36.772-16.616,55.665
		c-3.962,15.324-1.891,30.493,4.51,44.16c3.835,8.189,7.916,16.162,12.057,24.057c11.615,22.147,17.648,46.61,17.342,74.396
		C503.939,770.665,504.235,806.281,504.235,841.89z"/>
	<path fill="#FFFFFF" d="M540.252,841.89c0-48.512-0.263-97.027,0.097-145.534c0.219-29.569-1.133-58.807-5.98-87.613
		c-6.468-38.438-4.866-76.762,0.483-115.085c10.175-72.907,15.641-146.294,11.27-220.659c-1.133-19.271-2.711-38.499-3.573-57.791
		c-1.048-23.48-2.034-47.001-2.197-70.516c-0.333-48.227-0.1-96.461-0.099-144.693c2.001,0,4.002,0,6.003,0
		c0,58.912-0.109,117.824,0.073,176.735c0.048,15.687,0.385,31.462,1.617,47.036c6.993,88.415,4.525,176.322-5.87,263.986
		c-3.583,30.213-5.63,60.845-2.019,91.304c5.667,47.806,6.778,95.859,6.286,144.165c-0.403,39.547-0.085,79.109-0.086,118.664
		C544.254,841.89,542.253,841.89,540.252,841.89z"/>
	<path d="M120.056,841.89c-2.001,0-4.002,0-6.003,0c0.001-25.531,0.214-51.068-0.084-76.592
		c-0.157-13.409-0.155-27.101-2.058-40.138c-5.364-36.753-12.102-73.11-17.519-109.849c-8.455-57.347-10.2-115.013-2.548-172.944
		c8.137-61.609,27.311-116.101,53.399-166.386c7.388-14.241,14.578-28.866,20.571-44.298c6.56-16.893,4.614-30.002-5.215-43.398
		c-7.3-9.948-15.238-18.972-22.884-28.42c-15.89-19.636-24.258-43.769-23.754-74.014c0.476-28.602,0.096-57.232,0.093-85.85
		c2.001,0,4.002,0,6.003,0c0,27.758-0.266,55.523,0.149,83.268c0.14,9.372,1.297,18.995,3.23,27.978
		c4.619,21.475,16.118,35.54,28.326,48.59c7.306,7.81,14.869,15.217,21.778,23.672c11.113,13.6,12.369,28.042,4.658,45.63
		c-1.567,3.574-3.244,7.087-5.105,10.365c-7.346,12.932-14.762,25.787-22.196,38.621c-41.859,72.265-62.066,154.984-60.649,248.014
		c0.79,51.903,8.363,102.289,18.625,151.894c8.019,38.763,12.963,77.881,11.286,118.445
		C119.533,811.567,120.056,826.75,120.056,841.89z"/>
	<path d="M234.109,0c2.001,0,4.002,0,6.003,0c-1.414,22.438,5.086,40.533,16.192,55.624c6.876,9.343,14.226,18.054,21.684,26.49
		c21.303,24.093,43.628,46.559,63.963,72.146c27.52,34.628,48.034,76.518,57.313,127.631c6.432,35.434,6.778,70.72-5.541,104.047
		c-3.377,9.135-8.72,17.51-14.406,24.128c-7.212,8.394-13.858,5.896-18.341-5.631c-3.235-8.317-5.504-17.376-8.168-26.125
		c-17.342-56.944-58.663-87.952-102.102-76.154c-41.038,11.146-69.743,45.482-88.622,96.334
		c-21.407,57.663-23.061,118.543-12.392,180.793c8.188,47.77,23.974,90.675,43.08,131.402c11.97,25.515,24.361,50.648,36.048,76.413
		c7.497,16.528,12.398,34.557,11.292,54.791c-2.001,0-4.002,0-6.003,0c1.502-24.894-5.944-45.917-14.872-66.12
		c-15.148-34.278-31.558-67.542-45.606-102.673c-24.784-61.977-37.765-128.279-30.732-200.056
		c5.142-52.481,20.236-98.422,48.882-133.936c26.439-32.778,57.253-48.557,92.82-41.081c30.914,6.498,53.499,30.463,69.312,67.736
		c3.47,8.18,6.683,16.643,10.664,24.312c5.078,9.781,11.698,10.724,17.92,2.416c3.544-4.732,6.617-10.606,8.862-16.718
		c7.045-19.183,8.929-39.921,7.957-61.241c-1.674-36.732-11.049-69.718-25.172-100.301c-18.223-39.46-42.83-69.987-69.481-97.716
		c-17.003-17.691-34.168-35.153-50.497-54.017C240.466,46.668,232.229,26.233,234.109,0z"/>
	<path d="M522.244,0c2.001,0,4.002,0,6.003,0c0.001,42.353-0.037,84.707,0.026,127.06c0.019,12.614-0.283,25.311,0.606,37.824
		c2.516,35.409,5.856,70.703,8.337,106.116c2.606,37.196,2.493,74.445-0.046,111.706c-2.975,43.659-9.619,86.311-18.128,128.347
		c-8.419,41.59-10.149,82.277,1.621,123.464c6.35,22.22,7.854,46.11,7.681,70.215c-0.329,45.715-0.096,91.438-0.097,137.157
		c-2.001,0-4.002,0-6.003,0c0-39.83-0.568-79.681,0.178-119.483c0.607-32.34-3.537-62.856-12.755-92.365
		c-4.827-15.452-9.473-31.723-7.642-48.721c2.431-22.577,5.263-45.42,10.352-67.023c22.914-97.255,28.138-196.028,16.316-297.014
		c-3.293-28.127-5.521-56.714-6.181-85.184C521.493,88.109,522.244,44.037,522.244,0z"/>
	<path fill="#FFFFFF" d="M522.244,0c0,44.037-0.751,88.109,0.269,132.1c0.66,28.47,2.888,57.056,6.181,85.184
		c11.822,100.987,6.598,199.759-16.316,297.014c-5.09,21.603-7.922,44.446-10.352,67.023c-1.83,16.999,2.816,33.27,7.642,48.721
		c9.218,29.509,13.361,60.025,12.755,92.365c-0.746,39.802-0.178,79.653-0.178,119.483c-2.001,0-4.002,0-6.003,0
		c-0.001-42.367,0.108-84.736-0.089-127.101c-0.043-9.195-0.047-18.906-2.055-27.463c-4.411-18.794-9.408-37.455-15.429-55.333
		c-7.446-22.109-9.586-44.298-4.515-67.702c2.611-12.049,5.148-24.152,8.193-35.99c9.765-37.964,18.564-76.273,23.556-116.15
		c8.267-66.03,6.006-131.875-1.947-197.515c-5.068-41.83-8.835-83.66-7.846-126.26c0.683-29.429,0.132-58.915,0.132-88.376
		C518.242,0,520.243,0,522.244,0z"/>
	<path d="M324.151,841.89c-2.001,0-4.002,0-6.003,0c-0.136-20.437-7.388-36.64-16.817-50.617
		c-12.627-18.717-26.034-36.421-39.377-54.161c-26.839-35.683-51.456-73.783-67.712-121.039
		c-17.455-50.742-24.758-103.492-14.034-159.008c7.315-37.865,21.589-69.374,46.555-89.07c16.297-12.857,33.684-18.142,51.629-6.455
		c15.64,10.186,18.05,25.95,7.423,44.863c-15.718,27.974-14.175,61.205,4.874,84.834c22.046,27.346,47.692,29.764,74.167,16.163
		c34.786-17.872,55.687-54.995,67.311-102.817c14.598-60.062,9.017-118.797-8.038-176.192
		c-13.383-45.037-33.919-83.496-56.416-120.211c-13.534-22.088-26.811-44.528-39.508-67.564
		c-6.394-11.6-10.155-25.398-10.057-40.615c2.001,0,4.002,0,6.003,0c1.117,7.913,1.085,16.645,3.594,23.565
		c4.945,13.635,10.558,27.072,17.229,39.139c12.861,23.262,26.975,45.155,39.99,68.257c31.419,55.771,54.433,116.851,57.428,189.496
		c2.291,55.562-7.14,106.627-33.942,148.932c-23.304,36.784-52.3,55.863-88.216,47.412c-24.508-5.766-43.808-30.961-48.312-62.038
		c-2.856-19.704,1.977-36.826,8.863-53.532c6.621-16.064,3.339-28.584-9.025-35.452c-3.828-2.126-8.082-3.444-12.194-3.75
		c-19.473-1.45-35.475,9.988-48.84,28.594c-25.56,35.584-34.156,80.094-32.349,129.17c1.995,54.172,17.413,101.291,40.084,144.315
		c18.318,34.763,41.183,63.306,63.636,92.511c11.538,15.008,22.346,31.252,32.648,47.951
		C321.095,814.859,324.27,827.834,324.151,841.89z"/>
	<path d="M276.129,841.89c-2.001,0-4.002,0-6.003,0c0.283-14.581-3.097-27.904-8.81-39.513
		c-9.067-18.426-18.563-36.52-28.685-53.825c-23.641-40.417-46.165-81.742-60.65-130.483
		c-14.941-50.274-21.258-102.172-13.382-156.111c7.518-51.495,25.045-94.65,57.838-122.475
		c27.695-23.499,56.928-28.751,86.641-6.808c23.161,17.105,34.786,51.703,29.255,86.022c-1.534,9.517-4.293,18.633-6.146,28.065
		c-1.864,9.49,0.116,16.95,6.301,21.218c3.999,2.76,8.664,4.734,13.087,4.968c15.891,0.842,29.297-8.516,40.495-23.339
		c29.275-38.754,36.604-88.009,32.281-141.723c-3.817-47.421-18.336-88.922-38.463-126.863
		c-18.889-35.608-42.643-64.395-66.031-93.818c-12.153-15.288-23.513-31.954-34.383-49.057c-6.621-10.416-9.666-23.773-9.348-38.15
		c2.001,0,4.002,0,6.003,0c2.06,10.387,2.963,21.638,6.489,30.932c3.964,10.448,9.654,20.046,15.725,28.395
		c14.267,19.623,29.295,38.153,43.857,57.36c28.35,37.39,52.965,78.712,67.558,130.103c14.21,50.044,18.187,101.054,4.176,152.432
		c-9.961,36.525-26.498,65.18-54.232,77.621c-11.36,5.096-22.84,5.565-33.746-2.725c-9.086-6.907-11.371-17.38-6.791-30.393
		c1.767-5.021,3.769-9.881,5.509-14.918c8.832-25.56,5.686-55.015-8.229-75.653c-16.879-25.034-38.11-33.342-61.752-28.894
		c-33.869,6.372-58.472,33.227-75.726,73.267c-23.941,55.558-26.15,115.377-14.908,176.919
		c10.651,58.307,33.523,107.278,60.483,153.044c13.613,23.109,27.22,46.257,40.157,70.106
		C271.634,810.381,276.234,825.142,276.129,841.89z"/>
	<path d="M60.028,0c-0.003,55.514-0.483,111.04,0.232,166.536c0.276,21.43,2.08,43.145,5.271,64.106
		c6.001,39.429,5.339,78.421-0.056,117.636c-9.879,71.797-15.598,144.038-11.382,217.28c1.64,28.49,3.656,56.939,5.166,85.442
		c0.68,12.838,0.719,25.761,0.738,38.646c0.078,50.748,0.032,101.496,0.032,152.244c-2.001,0-4.002,0-6.003,0
		c-0.636-93.069,1.787-186.169-4.448-279.145c-4.689-69.93,1.235-139.406,8.674-208.581c3.289-30.583,4.518-61.253,1.983-92.202
		c-2.505-30.587-5.422-61.268-5.937-91.982C53.349,113.349,54.026,56.663,54.025,0C56.026,0,58.027,0,60.028,0z"/>
	<path d="M462.216,0c2.001,0,4.002,0,6.003,0c0,8.692,0.341,17.416-0.058,26.072c-2.026,43.968,3.159,86.218,13.14,127.936
		c11.641,48.658,20.275,98.411,22.241,150.042c2.289,60.118-4.683,117.672-23.049,172.355
		c-16.077,47.867-40.483,86.281-68.496,120.834c-7.022,8.662-13.79,17.968-19.705,28.094c-6.566,11.241-6.037,21.859,1.122,32.518
		c4.333,6.45,9.464,12.071,14.742,16.998c10.138,9.462,20.776,17.864,30.953,27.246c19.599,18.066,30.459,42.584,29.247,76.716
		c-0.745,20.978-0.137,42.05-0.137,63.08c-2.001,0-4.002,0-6.003,0c0-19.353-0.524-38.74,0.118-58.052
		c1.042-31.332-8.237-54.956-26.428-71.729c-13.002-11.988-26.889-22.082-39.955-33.943c-6.798-6.171-13.253-13.572-18.805-21.818
		c-5.75-8.54-5.368-18.174-0.303-27.575c2.151-3.993,4.658-7.766,7.417-10.927c8.667-9.93,17.561-19.468,26.314-29.252
		c71.936-80.405,98.285-186.132,88.067-312.128c-3.587-44.228-12.928-86.459-22.449-128.682
		c-4.862-21.562-10.51-43.284-12.442-65.508C461.393,55.167,462.568,27.453,462.216,0z"/>
	<path d="M144.067,0c-0.001,18.508,0.422,37.039-0.098,55.519c-0.83,29.501,8.285,51.739,25.278,67.288
		c14.69,13.441,30.438,24.588,45.431,37.408c6.947,5.939,13.785,12.6,19.661,20.426c10.588,14.1,10.027,26.734-1.621,39.385
		c-8.827,9.587-18.292,18.05-27.64,26.658c-51.529,47.455-84.778,112.64-97.557,197.652c-8.964,59.637-6.186,118.849,5.013,177.221
		c6.421,33.467,14.321,66.407,22.192,99.284c6.422,26.823,10.572,53.869,9.43,82.357c-0.516,12.859-0.089,25.792-0.09,38.692
		c-2.001,0-4.002,0-6.003,0c0-17.388-0.353-34.793,0.089-52.159c0.564-22.175-2.217-43.484-6.945-64.456
		c-4.271-18.946-8.553-37.887-12.816-56.836c-11.842-52.632-19.946-106.127-18.794-161.722
		c2.038-98.316,28.703-180.335,82.514-244.202c11.59-13.756,23.93-26.293,35.293-40.393c12.981-16.107,12.627-29.893-0.856-45.371
		c-6.299-7.232-13.432-13.087-20.36-19.178c-11.667-10.257-23.94-19.287-35.106-30.503c-15.346-15.415-23.537-36.692-23.088-63.971
		c0.346-21.022,0.069-42.065,0.069-63.098C140.065,0,142.066,0,144.067,0z"/>
	<path d="M180.084,841.89c-2.001,0-4.002,0-6.003,0c3.045-42.718-4.989-81.943-18.223-119.962
		c-7.342-21.093-13.578-43.017-19.493-65.001c-18.408-68.414-26.468-138.541-14.98-211.068
		c16.629-104.984,71.442-184.553,152.867-198.482c10.298-1.762,20.636-3.705,30.735-6.925c9.46-3.017,12.533-12.508,8.494-25.012
		c-2.278-7.053-5.309-13.925-8.92-19.76c-4.956-8.01-10.473-15.483-16.295-22.266c-18.42-21.461-39.898-36.02-60.589-52.432
		c-12.985-10.299-25.706-21.663-37.443-34.527c-11.397-12.491-16.658-30.319-16.198-51.103c0.261-11.773,0.047-23.567,0.046-35.351
		c2.001,0,4.002,0,6.003,0c0,8.98,0.376,17.996-0.069,26.933c-1.327,26.614,6.626,47.219,21.57,62.025
		c12.525,12.409,25.874,23.298,39.256,33.867c21.965,17.348,44.07,34.295,62.755,58.495c9.453,12.243,18.114,25.394,23.029,42.489
		c4.536,15.777,0.769,25.638-11.217,27.182c-13.125,1.69-26.364,1.593-39.502,3.141c-57.596,6.785-101.324,45.544-130.43,115.121
		c-28.314,67.685-32.115,140.87-21.145,216.452c6.946,47.858,20.194,92.607,35.46,136.168
		C173.098,759.845,183.64,798.445,180.084,841.89z"/>
	<path d="M420.196,841.89c-2.001,0-4.002,0-6.003,0c-0.001-6.454-0.365-12.955,0.06-19.354c2.018-30.426-7.709-52.737-24.936-69.026
		c-12.735-12.041-26.066-22.901-39.417-33.586c-25.24-20.2-50.133-40.998-70.012-71.447c-8.973-13.744-16.924-28.507-20.064-47.131
		c-2.277-13.508,1.973-21.687,11.638-22.106c5.777-0.251,11.607,0.154,17.363,0.971c21.606,3.068,43.145,3.81,64.397-3.706
		c53.144-18.795,89.035-65.793,110.214-135.392c20.219-66.448,19.491-134.742,6.666-203.568
		c-8.642-46.377-23.146-89.452-38.529-131.906C419.481,72.276,411.305,38.028,414.193,0c2.001,0,4.002,0,6.003,0
		c0.378,21.493-1.989,43.435,3.777,64.14c5.73,20.576,11.76,41.033,18.42,61.044c18.494,55.571,34.442,112.127,38.248,174.045
		c3.567,58.035-2.222,113.754-22.251,165.241c-28.918,74.337-73.435,116.441-134.061,123.371c-13.732,1.57-27.566,1.46-41.279,3.242
		c-9.833,1.278-13.345,9.909-10.545,23.215c3.211,15.26,10.209,27.169,17.9,38.281c17.9,25.859,39.734,43.934,61.865,61.531
		c15.618,12.418,31.319,24.844,46.086,39.095c15.014,14.49,23.193,35.074,21.909,61.763
		C419.836,823.903,420.197,832.914,420.196,841.89z"/>
	<path d="M312.146,841.89c-2.001,0-4.002,0-6.003,0c-0.235-3.055-0.328-6.147-0.73-9.158c-2.578-19.295-10.716-34.294-19.903-48.035
		c-17.635-26.378-36.23-51.518-53.496-78.349c-31.932-49.622-55.439-105.615-60.834-173.512
		c-4.037-50.802,2.503-98.539,25.622-139.518c17.621-31.235,40.164-50.356,69.673-48.009c14.357,1.142,26.826,8.727,35.367,25.932
		c8.228,16.577,6.065,32.772-5.769,43.893c-6.877,6.462-11.201,15.153-12.058,26.775c-1.347,18.266,3.863,33.184,13.5,44.558
		c20.1,23.721,43.1,25.276,66.582,12.991c32.86-17.191,52.611-52.407,63.533-97.812c13.996-58.187,8.509-114.933-8.173-170.352
		c-13.394-44.497-33.993-82.203-56.915-117.708c-14.884-23.054-29.855-46.028-44.128-69.816
		C311.019,31.446,306.258,16.778,306.143,0c2.001,0,4.002,0,6.003,0c0.004,15.209,3.976,28.757,10.325,40.459
		c9.061,16.701,18.576,32.997,28.615,48.556c23.642,36.641,46.867,73.647,63.059,118.058
		c19.817,54.355,29.514,111.275,20.397,172.221c-7.513,50.226-25.027,91.628-58.069,116.645
		c-25.093,18.998-51.152,22.218-76.291-0.205c-23.622-21.071-29.076-64.923-6.384-89.132c8.072-8.612,8.942-20.419,2.948-32.092
		c-3.485-6.788-8.322-13.236-13.582-17.017c-16.896-12.147-34.266-9.453-50.861,1.402c-30.983,20.265-47.677,56.794-55.558,101.738
		c-9.32,53.155-2.485,103.993,13.644,152.903c15.699,47.604,39.749,86.37,66.109,122.741c13.815,19.061,27.622,38.187,40.711,58.212
		C305.8,807.629,311.965,823.124,312.146,841.89z"/>
	<path d="M168.078,841.89c-2.001,0-4.002,0-6.003,0c0.001-8.977-0.37-17.99,0.074-26.923c1.383-27.825-3.425-53.849-10.718-79.365
		c-7.276-25.455-14.613-50.903-21.176-76.727c-16.392-64.502-24.556-130.483-16.22-198.99c7.187-59.068,24.77-110.788,55.3-153.373
		c24.425-34.07,54.16-54.843,86.612-69.111c7.412-3.259,14.85-6.787,21.831-11.489c9.791-6.593,11.908-16.138,5.782-28.764
		c-4.309-8.882-9.729-17.411-15.911-23.644c-11.476-11.571-23.759-21.61-35.91-31.808c-16.426-13.785-33.62-25.932-49.409-40.999
		c-14.168-13.52-21.027-33.826-20.325-58.622c0.396-14.004,0.071-28.049,0.071-42.075c2.001,0,4.002,0,6.003,0
		c0,12.899,0.252,25.811-0.055,38.696c-0.551,23.111,6.084,41.61,18.667,55.581c7.945,8.821,16.676,16.371,25.413,23.644
		c20.754,17.276,42.004,33.41,62.48,51.298c9.97,8.71,18.643,20.399,24.109,35.609c4.935,13.732,2.709,22.706-7.669,27.686
		c-8.837,4.241-18.038,7.119-27.178,9.968c-42.47,13.236-79.03,40.624-106.469,88.863c-38.456,67.608-48.96,145.568-41.574,229.594
		c4.362,49.627,16.29,96.2,30.105,141.946c4.667,15.456,8.85,31.212,13.783,46.495C169.278,779.086,168.388,810.505,168.078,841.89z
		"/>
	<path d="M516.241,0c0,29.461,0.552,58.947-0.132,88.376c-0.989,42.6,2.778,84.43,7.846,126.26
		c7.953,65.639,10.213,131.484,1.947,197.515c-4.992,39.877-13.791,78.186-23.556,116.15c-3.045,11.838-5.582,23.941-8.193,35.99
		c-5.071,23.404-2.931,45.593,4.515,67.702c6.021,17.878,11.018,36.539,15.429,55.333c2.008,8.557,2.012,18.268,2.055,27.463
		c0.198,42.365,0.088,84.734,0.089,127.101c-2.001,0-4.002,0-6.003,0c0-39.269-0.078-78.538,0.032-117.806
		c0.06-21.492-3.443-41.661-10.79-60.459c-4.128-10.562-8.644-20.825-12.855-31.325c-5.797-14.453-8.568-30.035-5.158-46.126
		c3.969-18.734,8.532-37.312,13.841-55.378c13.593-46.262,24.697-93.43,29.272-143.276c5.519-60.133,2.339-119.768-5.59-179.036
		c-5.65-42.231-10.132-84.479-8.895-127.71c0.77-26.884,0.143-53.847,0.143-80.774C512.239,0,514.24,0,516.241,0z"/>
	<path fill="#FFFFFF" d="M312.146,841.89c-0.181-18.766-6.345-34.261-14.934-47.401c-13.088-20.025-26.896-39.151-40.711-58.212
		c-26.361-36.371-50.411-75.137-66.109-122.741c-16.129-48.909-22.964-99.748-13.644-152.903
		c7.88-44.943,24.574-81.472,55.558-101.738c16.595-10.854,33.966-13.548,50.861-1.402c5.259,3.781,10.096,10.229,13.582,17.017
		c5.994,11.673,5.124,23.48-2.948,32.092c-22.692,24.209-17.239,68.061,6.384,89.132c25.139,22.423,51.198,19.203,76.291,0.205
		c33.042-25.016,50.556-66.418,58.069-116.645c9.116-60.946-0.58-117.866-20.397-172.221
		c-16.192-44.411-39.417-81.417-63.059-118.058c-10.039-15.559-19.555-31.855-28.615-48.556C316.122,28.757,312.15,15.209,312.146,0
		c2.001,0,4.002,0,6.003,0c-0.097,15.217,3.664,29.015,10.057,40.615c12.697,23.036,25.974,45.477,39.508,67.564
		c22.497,36.715,43.033,75.175,56.416,120.211c17.055,57.395,22.637,116.13,8.038,176.192
		c-11.624,47.822-32.525,84.945-67.311,102.817c-26.474,13.602-52.121,11.183-74.167-16.163
		c-19.05-23.629-20.592-56.86-4.874-84.834c10.627-18.913,8.217-34.678-7.423-44.863c-17.946-11.687-35.333-6.402-51.629,6.455
		c-24.966,19.696-39.241,51.205-46.555,89.07c-10.724,55.517-3.421,108.266,14.034,159.008
		c16.256,47.255,40.873,85.355,67.712,121.039c13.342,17.74,26.75,35.444,39.377,54.161c9.429,13.977,16.682,30.18,16.817,50.617
		C316.147,841.89,314.147,841.89,312.146,841.89z"/>
	<path fill="#FFFFFF" d="M114.053,0c0.003,28.618,0.383,57.248-0.093,85.85c-0.503,30.246,7.865,54.379,23.754,74.014
		c7.646,9.448,15.585,18.473,22.884,28.42c9.83,13.395,11.775,26.505,5.215,43.398c-5.993,15.433-13.183,30.058-20.571,44.298
		c-26.088,50.285-45.262,104.776-53.399,166.386c-7.651,57.931-5.906,115.597,2.548,172.944
		c5.416,36.739,12.154,73.096,17.519,109.849c1.903,13.038,1.902,26.729,2.058,40.138c0.298,25.525,0.085,51.061,0.084,76.592
		c-2.001,0-4.002,0-6.003,0c0-26.098,0.22-52.2-0.084-78.291c-0.179-15.381-0.076-31.032-2.047-46.058
		c-4.913-37.45-11.524-74.464-16.392-111.924c-8.525-65.599-8.376-131.041,4.053-195.93c9.23-48.187,25.531-91.623,44.468-133.456
		c5.867-12.959,11.104-26.598,15.715-40.522c4.576-13.817,3.194-27.637-4.013-39.308c-5.743-9.301-11.962-18.062-18.261-26.642
		c-15.71-21.398-24.115-46.719-23.558-78.003c0.545-30.568,0.119-61.17,0.119-91.757C110.051,0,112.052,0,114.053,0z"/>
	<path d="M192.09,0c0,8.138,0.193,16.286-0.037,24.411c-0.536,18.876,3.934,35.596,13.998,47.343
		c12.061,14.078,25.048,26.907,38.497,38.268c25.006,21.124,50.644,40.803,72.253,68.853c13.462,17.474,25.278,36.773,32.026,61.135
		c1.5,5.414,2.555,11.303,2.88,17.077c0.754,13.415-3.491,19.858-13.009,18.768c-8.326-0.954-16.587-3.386-24.815-5.611
		c-49.109-13.278-93.53,0.211-131.461,47.046c-32.762,40.453-50.179,92.737-56.358,152.725
		c-7.338,71.231,4.151,138.16,24.665,202.689c7.965,25.056,16.693,49.678,25.777,73.98c11.195,29.948,18.008,61.014,15.584,95.207
		c-2.001,0-4.002,0-6.003,0c-0.251-14.279,1.296-29.205-1.168-42.688c-3.832-20.967-9.432-41.584-15.99-61.228
		c-15.154-45.392-31.095-90.241-39.7-139.275c-11.927-67.959-11.256-134.824,8.433-200.193
		c27.974-92.878,90.695-146.334,162.009-137.976c8.362,0.98,16.747,1.958,25.13,2.137c14.37,0.307,18.859-8.599,14.2-27.817
		c-5.248-21.645-15.782-38.136-27.39-53.355c-19.435-25.481-42.249-44.028-65.301-62.111c-15.846-12.43-32.126-24.026-45.319-42.129
		c-9.908-13.596-15.472-29.645-14.934-49.489c0.251-9.243,0.034-18.51,0.03-27.767C188.088,0,190.089,0,192.09,0z"/>
	<path d="M90.042,0c2.001,0,4.002,0,6.003,0c0.002,37.873-0.03,75.746,0.022,113.619c0.026,18.597,3.151,36.221,9.945,52.172
		c4.807,11.285,10.146,22.187,15.765,32.717c10.269,19.244,12.303,39.823,5.716,61.826c-5.252,17.545-10.734,34.977-16.576,52.15
		C87.29,381.938,74.092,454.813,77.168,531.971c1.522,38.193,5.367,76.396,10.182,114.086c5.232,40.949,10.007,81.646,8.821,123.461
		c-0.683,24.088-0.125,48.246-0.126,72.372c-2.001,0-4.002,0-6.003,0c0-38.419,0.289-76.845-0.142-115.254
		c-0.175-15.618-1.512-31.278-3.02-46.785c-4.072-41.87-9.669-83.514-12.558-125.532c-4.686-68.16,2.161-134.731,18.827-199.137
		c7.619-29.444,16.029-58.486,23.633-87.937c5.416-20.98,3.711-41.346-4.687-60.466c-1.467-3.339-2.75-6.842-4.281-10.119
		c-12.508-26.775-18.671-55.745-17.954-88.14C90.66,72.378,90.042,36.176,90.042,0z"/>
	<path fill="#FFFFFF" d="M168.078,841.89c0.309-31.385,1.199-62.804-8.388-92.51c-4.933-15.283-9.115-31.039-13.783-46.495
		c-13.815-45.746-25.743-92.318-30.105-141.946c-7.386-84.026,3.119-161.986,41.574-229.594
		c27.439-48.24,63.998-75.628,106.469-88.863c9.14-2.848,18.341-5.726,27.178-9.968c10.377-4.981,12.603-13.955,7.669-27.686
		c-5.466-15.21-14.139-26.899-24.109-35.609c-20.476-17.888-41.726-34.022-62.48-51.298c-8.737-7.273-17.468-14.823-25.413-23.644
		c-12.583-13.971-19.218-32.47-18.667-55.581c0.307-12.885,0.055-25.796,0.055-38.696c2.001,0,4.002,0,6.003,0
		c0,11.784,0.214,23.578-0.046,35.351c-0.46,20.784,4.801,38.613,16.198,51.103c11.737,12.864,24.459,24.227,37.443,34.527
		c20.691,16.412,42.169,30.97,60.589,52.432c5.822,6.783,11.339,14.256,16.295,22.266c3.611,5.835,6.642,12.708,8.92,19.76
		c4.039,12.504,0.966,21.995-8.494,25.012c-10.099,3.221-20.437,5.164-30.735,6.925c-81.425,13.929-136.238,93.498-152.867,198.482
		c-11.488,72.527-3.428,142.653,14.98,211.068c5.915,21.983,12.151,43.908,19.493,65.001
		c13.234,38.019,21.268,77.244,18.223,119.962C172.08,841.89,170.079,841.89,168.078,841.89z"/>
	<path d="M588.274,841.89c-2.001,0-4.002,0-6.003,0c0-280.63,0-561.26,0-841.89c2.001,0,4.002,0,6.003,0
		C588.274,280.63,588.274,561.26,588.274,841.89z"/>
	<path d="M12.006,841.89c-2.001,0-4.002,0-6.003,0c0-280.63,0-561.26,0-841.89c2.001,0,4.002,0,6.003,0
		C12.006,280.63,12.006,561.26,12.006,841.89z"/>
	<path fill="#FFFFFF" d="M12.006,841.89c0-280.63,0-561.26,0-841.89c2.001,0,4.002,0,6.003,0c0,280.63,0,561.26,0,841.89
		C16.007,841.89,14.007,841.89,12.006,841.89z"/>
	<path d="M486.227,0c2.001,0,4.002,0,6.003,0c0,29.174-0.183,58.352,0.086,87.521c0.114,12.29,0.326,24.793,1.972,36.801
		c5.58,40.686,12.53,81.02,17.638,121.813c6.977,55.717,6.792,111.584-1.741,167.153c-8.275,53.888-25.035,102.514-46.153,148.577
		c-6.145,13.403-11.898,27.261-16.943,41.529c-5.79,16.378-4.249,32.195,4.777,45.881c4.609,6.988,9.324,13.885,14.329,20.305
		c17.437,22.366,27.026,49.105,26.187,83.112c-0.733,29.7-0.153,59.463-0.152,89.198c-2.001,0-4.002,0-6.003,0
		c0.001-26.931-0.654-53.9,0.164-80.782c1.074-35.301-9.19-62.176-28.254-83.84c-7.28-8.273-14.402-16.953-20.937-26.349
		c-7.458-10.723-8.616-23.805-4.07-37.32c2.545-7.566,5.548-14.921,8.902-21.84c7.976-16.456,16.523-32.372,24.416-48.903
		c33.415-69.983,48.742-147.2,46.82-231.332c-1.12-49.062-8.027-96.759-17.025-143.922c-7.014-36.769-11.544-73.779-10.133-112.065
		C486.792,37.071,486.228,18.515,486.227,0z"/>
	<path fill="#FFFFFF" d="M588.274,841.89c0-280.63,0-561.26,0-841.89c2.001,0,4.002,0,6.003,0c0,280.63,0,561.26,0,841.89
		C592.276,841.89,590.275,841.89,588.274,841.89z"/>
	<path d="M378.176,0c2.001,0,4.002,0,6.003,0c0.255,9.227-0.099,18.584,0.89,27.654c2.215,20.327,9.768,37.715,16.72,55.358
		c13.515,34.299,28.229,67.791,40.279,103.074c19.956,58.429,29.316,120.217,22.52,185.275
		c-6.03,57.719-23.098,107.661-55.719,145.234c-28.745,33.109-61.689,47.305-98.893,39.147c-22.122-4.851-41.096-19.213-58.4-38.562
		c-4.993-5.582-10.018-11.237-15.453-15.881c-7.614-6.505-13.384-3.957-16.913,7.589c-1.846,6.04-2.977,12.858-3.271,19.427
		c-1.557,34.808,7.426,65.324,20.43,93.949c15.946,35.101,37.436,62.616,61.476,86.337c19.436,19.177,39.431,37.24,58.84,56.468
		c18.761,18.586,30.545,42.62,27.494,76.822c-2.001,0-4.002,0-6.003,0c1.447-22.454-2.44-42.634-14.445-58.169
		c-8.636-11.175-17.82-21.69-27.414-31.199c-24.632-24.412-50.45-46.578-72.303-76.153c-27.366-37.035-48.282-79.252-53.355-133.722
		c-1.624-17.439-1.104-34.863,4.675-50.992c5.072-14.154,12.204-16.003,20.683-5.631c4.061,4.967,7.819,10.441,11.587,15.859
		c14.462,20.794,30.844,37.451,51.025,45.447c42.299,16.76,79.82,1.984,112.026-37.658c39.847-49.046,54.527-113.693,53.424-186.234
		c-0.807-53.061-11.486-102.916-29.152-149.447c-13.316-35.073-28.342-68.87-42.654-103.196
		C383.148,48.912,376.345,26.156,378.176,0z"/>
	<path d="M18.008,841.89c0-280.63,0-561.26,0-841.89c2.001,0,4.002,0,6.003,0c0,280.63,0,561.26,0,841.89
		C22.01,841.89,20.009,841.89,18.008,841.89z"/>
	<path d="M594.277,841.89c0-280.63,0-561.26,0-841.89c2.001,0,4.002,0,6.003,0c0,280.63,0,561.26,0,841.89
		C598.279,841.89,596.278,841.89,594.277,841.89z"/>
	<path fill="#FFFFFF" d="M6.003,0c0,280.63,0,561.26,0,841.89c-2.001,0-4.002,0-6.003,0C0,561.26,0,280.63,0,0
		C2.001,0,4.002,0,6.003,0z"/>
	<path fill="#FFFFFF" d="M96.045,841.89c0.001-24.126-0.557-48.284,0.126-72.372c1.186-41.815-3.589-82.512-8.821-123.461
		c-4.816-37.69-8.66-75.893-10.182-114.086c-3.075-77.159,10.122-150.033,33.749-219.488c5.842-17.173,11.323-34.605,16.576-52.15
		c6.587-22.003,4.552-42.582-5.716-61.826c-5.619-10.53-10.957-21.432-15.765-32.717c-6.794-15.951-9.92-33.575-9.945-52.172
		C96.015,75.746,96.047,37.873,96.045,0c2.001,0,4.002,0,6.003,0c0.001,35.049-0.028,70.098,0.016,105.147
		c0.022,17.125,2.292,33.761,9.072,48.086c6.377,13.476,13.468,26.439,21.114,38.547c12.025,19.041,14.342,39.479,6.352,62.037
		c-6.658,18.798-13.618,37.392-20.67,55.908c-26.136,68.624-39.166,141.559-37.588,219.564
		c0.888,43.903,5.909,86.957,12.832,129.595c6.104,37.593,10.131,75.304,8.997,114.037c-0.672,22.953-0.124,45.977-0.125,68.969
		C100.047,841.89,98.046,841.89,96.045,841.89z"/>
	<path d="M198.092,841.89c3.534-40.377-9.203-74.174-22.156-107.897c-16.4-42.696-31.831-85.989-40.749-133.18
		c-12.86-68.045-13.074-135.372,7.623-200.716c18.854-59.525,49.541-101.881,94.558-121.524c29.655-12.94,59.182-9.535,88.438,3.51
		c7.028,3.134,14.088,6.305,21.284,8.48c9.216,2.786,15.129-3.042,14.441-16.141c-0.63-11.999-2.668-24.487-6.181-35.437
		c-11.298-35.222-30.147-62.137-52.39-83.731c-23.295-22.614-47.736-42.9-71.592-64.387c-4.527-4.077-8.771-8.82-12.957-13.582
		c-14.051-15.988-21.989-35.956-20.361-62.143c0.312-5.011,0.043-10.093,0.043-15.143c2.001,0,4.002,0,6.003,0
		c0,5.051,0.211,10.122-0.035,15.148c-1.121,22.866,5.574,41.035,17.53,55.499c7.086,8.572,14.751,16.289,22.501,23.677
		c24.272,23.137,49.411,44.616,72.869,69.258c20.815,21.865,37.328,49.932,47.498,84.187c4.392,14.794,7.975,30.056,5.482,46.556
		c-1.67,11.05-6.188,15.637-13.88,12.328c-7.787-3.349-15.341-7.928-22.796-12.603c-28.788-18.054-58.548-24.658-89.41-13.593
		c-45.67,16.374-77.256,57.039-97.087,115.799c-21.363,63.297-22.218,129.269-10.397,196.295
		c9.113,51.67,26.431,98.331,44.733,144.415c12.97,32.656,26.352,65.2,22.993,104.924C202.094,841.89,200.093,841.89,198.092,841.89
		z"/>
	<path d="M288.134,841.89c-2.001,0-4.002,0-6.003,0c-0.273-22.103-8.452-39.448-17.754-55.721
		c-9.875-17.274-20.37-33.859-30.744-50.561c-24.542-39.511-46.569-81.309-59.939-130.824
		c-16.52-61.181-19.964-122.802-0.646-184.044c14.099-44.698,36.858-77.327,71.49-89.803c25.358-9.135,48.987-3.577,68.134,23.666
		c16.01,22.78,17.129,53.919,3.467,79.466c-1.439,2.69-2.941,5.318-4.309,8.077c-5.007,10.096-5.117,20.815,1.51,28.727
		c5.121,6.114,11.57,11.48,18.034,13.67c19.031,6.448,36.238-2.109,51.068-18.389c34.969-38.389,45.168-91.414,42.029-150.591
		c-2.662-50.189-17.185-94.535-37.859-135.165c-17.064-33.537-38.17-61.762-59.367-89.971
		c-11.864-15.788-23.255-32.382-34.038-49.623C286.142,29.508,282.027,15.628,282.132,0c2.001,0,4.002,0,6.003,0
		c1.679,9.131,2.107,19.266,5.327,27.162c5.007,12.278,11.213,23.963,18.16,34.238c13.889,20.543,28.808,39.707,42.974,59.894
		c27.893,39.748,51.354,83.731,64,137.412c11.704,49.68,13.575,99.634-0.917,148.858c-11.577,39.323-30.362,69.292-60.635,81.157
		c-17.081,6.695-33.873,5.34-47.994-12.196c-11.095-13.778-10.993-29.037-0.306-43.144c15.837-20.904,17.355-48.488,3.365-72.055
		c-15.584-26.251-36.449-33.6-59.487-28.592c-33.319,7.243-56.545,35.259-72.342,75.469
		c-21.371,54.398-22.065,111.885-10.232,170.413c11.323,56.002,34.079,102.741,61.006,145.993
		c14.332,23.021,28.934,45.732,42.825,69.267C281.978,807.597,287.912,823.246,288.134,841.89z"/>
	<path fill="#FFFFFF" d="M120.056,841.89c0-15.14-0.523-30.323,0.101-45.413c1.677-40.564-3.266-79.682-11.286-118.445
		c-10.262-49.605-17.835-99.991-18.625-151.894c-1.416-93.029,18.791-175.749,60.649-248.014
		c7.434-12.834,14.849-25.689,22.196-38.621c1.862-3.278,3.539-6.791,5.105-10.365c7.711-17.589,6.454-32.03-4.658-45.63
		c-6.908-8.455-14.472-15.862-21.778-23.672c-12.207-13.05-23.706-27.115-28.326-48.59c-1.932-8.983-3.089-18.606-3.23-27.978
		C119.79,55.523,120.056,27.758,120.056,0c2.001,0,4.002,0,6.003,0c0.002,26.084-0.015,52.168,0.012,78.252
		c0.019,18.961,3.852,36.403,13.368,49.889c7.525,10.664,16.306,19.646,24.798,28.888c8.35,9.086,17.551,16.745,25.446,26.512
		c9.439,11.675,9.906,24.234,2.946,39.01c-1.758,3.731-3.677,7.375-5.824,10.673c-8.491,13.045-17.161,25.859-25.657,38.897
		c-54.698,83.936-74.747,183.004-65.549,294.921c3.537,43.04,11.738,84.554,20.195,126.029c5.322,26.099,10.84,52.13,10.348,79.827
		c-0.408,22.984-0.084,45.995-0.084,68.994C124.058,841.89,122.057,841.89,120.056,841.89z"/>
	<path fill="#FFFFFF" d="M288.134,841.89c-0.223-18.644-6.157-34.293-14.256-48.014c-13.891-23.534-28.493-46.245-42.825-69.267
		c-26.927-43.252-49.683-89.991-61.006-145.993c-11.834-58.528-11.14-116.015,10.232-170.413
		c15.797-40.21,39.023-68.226,72.342-75.469c23.037-5.008,43.903,2.341,59.487,28.592c13.99,23.567,12.472,51.151-3.365,72.055
		c-10.687,14.107-10.789,29.366,0.306,43.144c14.121,17.536,30.913,18.891,47.994,12.196c30.273-11.865,49.058-41.834,60.635-81.157
		c14.492-49.224,12.621-99.178,0.917-148.858c-12.647-53.682-36.108-97.665-64-137.412c-14.166-20.186-29.084-39.351-42.974-59.894
		c-6.947-10.275-13.153-21.96-18.16-34.238c-3.22-7.896-3.647-18.031-5.327-27.162c2.001,0,4.002,0,6.003,0
		c0.012,15.603,4.188,29.495,11.15,40.846c12.496,20.375,25.582,40.105,39.065,59.209c25.713,36.43,49.904,74.435,66.008,121.024
		c19.296,55.822,26.914,113.843,13.283,174.422c-9.961,44.269-28.693,78.887-60.774,95.591c-18.407,9.584-37.108,9.882-53.91-6.536
		c-5.302-5.181-9.779-13.382-12.773-21.543c-4.777-13.023-2.262-26.479,6.159-33.121c17.226-13.587,19.376-43.51,6.355-66.084
		c-12.752-22.108-30.258-30.23-49.727-27.82c-38.429,4.757-63.698,36.424-79.806,83.093c-20.096,58.224-17.623,117.906-2.33,177.324
		c13.771,53.506,38.096,97.379,65.132,138.815c14.691,22.516,28.942,45.641,42.722,69.26c6.106,10.466,9.331,23.43,9.447,37.408
		C292.136,841.89,290.135,841.89,288.134,841.89z"/>
	<path fill="#FFFFFF" d="M336.157,841.89c0.432-15.98-3.454-30.358-10.955-41.586c-11.58-17.333-23.761-34.038-36.605-49.512
		c-26.289-31.673-52.374-63.48-71.997-104.132c-20.747-42.98-33.784-89.682-32.726-142.342
		c0.815-40.583,9.549-77.213,31.343-105.728c9.729-12.73,21.017-21.47,34.811-21.498c12.951-0.026,18.07,9.609,16.222,27.71
		c-1.545,15.13-4.053,30.971-2.393,45.665c4.586,40.594,23.853,64.274,51.371,72.82c39.996,12.421,72.301-9.475,98.068-51.19
		c26.457-42.831,35.864-94.333,33.997-150.025c-2.241-66.89-21.183-125.327-48.549-178.824
		c-13.856-27.087-29.08-52.792-43.23-79.594c-5.554-10.519-10.706-21.807-14.469-33.722c-2.902-9.187-3.349-19.899-4.887-29.932
		c2.001,0,4.002,0,6.003,0c-0.535,13.591,1.919,26.383,6.876,37.733c6.873,15.737,14.095,31.272,22.028,45.982
		c19.894,36.892,40.259,73.286,54.816,115.148c16.551,47.599,26.203,97.403,23.636,150.831
		c-2.531,52.68-15.057,99.676-42.548,136.932c-24.606,33.347-53.833,49.642-88.473,42.01c-32.04-7.059-55.434-39.832-59.703-84.343
		c-1.134-11.824-0.022-24.057-0.09-36.1c-0.089-16.004-5.209-22.675-16.525-21.069c-11.747,1.667-20.951,10.528-28.864,22.047
		c-16.548,24.089-24.127,53.74-25.995,86.478c-2.606,45.686,6.177,87.676,22.057,127.088c17.901,44.43,43.457,79.3,70.989,111.801
		c16.039,18.933,32.006,38.081,47.121,58.426c9.553,12.86,15.378,29.323,14.676,48.927
		C340.159,841.89,338.158,841.89,336.157,841.89z"/>
	<path d="M102.048,841.89c0.001-22.992-0.547-46.016,0.125-68.969c1.134-38.733-2.893-76.444-8.997-114.037
		c-6.923-42.638-11.944-85.692-12.832-129.595c-1.578-78.005,11.452-150.94,37.588-219.564c7.052-18.516,14.012-37.11,20.67-55.908
		c7.99-22.557,5.673-42.995-6.352-62.037c-7.647-12.108-14.737-25.072-21.114-38.547c-6.78-14.325-9.05-30.961-9.072-48.086
		C102.019,70.098,102.049,35.049,102.048,0c2.001,0,4.002,0,6.003,0c0,30.587,0.425,61.189-0.119,91.757
		c-0.557,31.283,7.848,56.605,23.558,78.003c6.299,8.58,12.518,17.342,18.261,26.642c7.207,11.671,8.589,25.491,4.013,39.308
		c-4.611,13.923-9.849,27.563-15.715,40.522c-18.937,41.833-35.238,85.268-44.468,133.456
		c-12.429,64.889-12.578,130.33-4.053,195.93c4.868,37.46,11.479,74.474,16.392,111.924c1.971,15.027,1.868,30.677,2.047,46.058
		c0.304,26.091,0.084,52.193,0.084,78.291C106.049,841.89,104.049,841.89,102.048,841.89z"/>
	<path fill="#FFFFFF" d="M468.218,841.89c0-21.03-0.608-42.102,0.137-63.08c1.212-34.132-9.648-58.649-29.247-76.716
		c-10.178-9.382-20.816-17.784-30.953-27.246c-5.279-4.927-10.409-10.548-14.742-16.998c-7.16-10.658-7.689-21.277-1.122-32.518
		c5.914-10.125,12.683-19.432,19.705-28.094c28.013-34.554,52.419-72.968,68.496-120.834
		c18.366-54.683,25.338-112.237,23.049-172.355c-1.965-51.631-10.6-101.383-22.241-150.042
		c-9.981-41.719-15.166-83.969-13.14-127.936c0.399-8.656,0.058-17.38,0.058-26.072c2.001,0,4.002,0,6.003,0
		c0,22.999,0.305,46.008-0.082,68.994c-0.427,25.376,4.173,49.393,9.046,73.38c8.754,43.089,17.65,86.09,21.449,130.806
		c9.67,113.824-10.69,214.329-66.893,299.119c-8.575,12.937-17.502,25.45-25.69,38.852c-13.95,22.835-12.845,37.203,4.314,55.463
		c9.536,10.148,19.779,18.979,29.6,28.611c19,18.633,29.374,43.297,28.387,76.835c-0.684,23.24-0.131,46.551-0.131,69.831
		C472.22,841.89,470.219,841.89,468.218,841.89z"/>
	<path fill="#FFFFFF" d="M582.272,0c0,280.63,0,561.26,0,841.89c-2.001,0-4.002,0-6.003,0c0-280.63,0-561.26,0-841.89
		C578.27,0,580.271,0,582.272,0z"/>
	<path fill="#FFFFFF" d="M282.132,0c-0.105,15.628,4.011,29.508,11.076,40.804c10.783,17.241,22.174,33.834,34.038,49.623
		c21.196,28.209,42.302,56.433,59.367,89.971c20.674,40.63,35.197,84.976,37.859,135.165c3.139,59.177-7.061,112.202-42.029,150.591
		c-14.83,16.281-32.036,24.837-51.068,18.389c-6.463-2.19-12.913-7.556-18.034-13.67c-6.627-7.912-6.516-18.632-1.51-28.727
		c1.368-2.759,2.87-5.387,4.309-8.077c13.662-25.547,12.543-56.687-3.467-79.466c-19.147-27.243-42.776-32.801-68.134-23.666
		c-34.633,12.476-57.391,45.105-71.49,89.803c-19.318,61.242-15.873,122.863,0.646,184.044
		c13.37,49.515,35.397,91.313,59.939,130.824c10.374,16.702,20.87,33.287,30.744,50.561c9.302,16.273,17.482,33.618,17.754,55.721
		c-2.001,0-4.002,0-6.003,0c0.105-16.748-4.495-31.509-11.43-44.294c-12.937-23.849-26.543-46.997-40.157-70.106
		c-26.96-45.767-49.832-94.737-60.483-153.044c-11.242-61.543-9.032-121.361,14.908-176.919
		c17.254-40.04,41.856-66.895,75.726-73.267c23.643-4.448,44.873,3.861,61.752,28.894c13.915,20.638,17.061,50.093,8.229,75.653
		c-1.741,5.038-3.742,9.898-5.509,14.918c-4.58,13.014-2.295,23.487,6.791,30.393c10.906,8.29,22.386,7.821,33.746,2.725
		c27.734-12.441,44.271-41.096,54.232-77.621c14.012-51.378,10.034-102.388-4.176-152.432
		c-14.592-51.391-39.208-92.713-67.558-130.103c-14.563-19.207-29.59-37.737-43.857-57.36c-6.071-8.35-11.761-17.947-15.725-28.395
		c-3.526-9.293-4.428-20.545-6.489-30.932C278.13,0,280.131,0,282.132,0z"/>
	<path fill="#FFFFFF" d="M78.036,0c-0.001,44.586,0.181,89.174-0.074,133.758c-0.142,24.835,3.025,48.803,10.524,70.99
		c11.844,35.046,11.19,69.798,3.531,106.23c-8.168,38.857-15.591,78.166-21.319,117.852c-7.265,50.336-6.764,101.478-2.733,152.418
		c2.754,34.795,6.574,69.427,9.212,104.237c1.179,15.548,0.784,31.353,0.828,47.043c0.1,36.454,0.032,72.908,0.032,109.363
		c-2.001,0-4.002,0-6.003,0c0.682-91.681,0.461-183.201-8.954-274.356c-4.214-40.799-3.297-82.476,1.609-123.261
		c4.806-39.956,10.723-79.744,17.707-119.062c6.8-38.282,8.237-75.469-1.962-113.015c-6.599-24.293-8.72-49.813-8.505-75.906
		C72.304,90.865,72.034,45.43,72.034,0C74.035,0,76.035,0,78.036,0z"/>
	<path d="M30.014,0c2.001,0,4.002,0,6.003,0c0,73.484-0.027,146.968,0.029,220.452c0.008,10.369,0.541,20.735,0.619,31.106
		c0.306,40.909,1.069,81.831,0.646,122.728c-0.571,55.209-2.659,110.391-3.002,165.598c-0.275,44.283,1.382,88.583,1.631,132.881
		c0.316,56.372,0.077,112.75,0.077,169.125c-2.001,0-4.002,0-6.003,0C30.014,561.26,30.014,280.63,30.014,0z"/>
	<path fill="#FFFFFF" d="M492.23,841.89c0-29.735-0.581-59.499,0.152-89.198c0.84-34.007-8.75-60.745-26.187-83.112
		c-5.005-6.42-9.72-13.317-14.329-20.305c-9.026-13.686-10.568-29.503-4.777-45.881c5.044-14.268,10.798-28.126,16.943-41.529
		c21.118-46.063,37.877-94.689,46.153-148.577c8.534-55.569,8.719-111.436,1.741-167.153
		c-5.108-40.793-12.058-81.126-17.638-121.813c-1.647-12.007-1.859-24.511-1.972-36.801C492.046,58.352,492.229,29.174,492.23,0
		c2.001,0,4.002,0,6.003,0c0.001,21.043,0.59,42.126-0.118,63.122c-1.462,43.303,3.214,85.437,10.118,127.421
		c6.655,40.467,10.988,81.435,11.811,123.103c1.543,78.101-11.611,151.057-37.958,219.62c-6.728,17.508-13.279,35.151-19.853,52.774
		c-9.298,24.925-6.911,47.06,7.13,67.573c7.147,10.441,13.409,22.274,19.175,34.321c6.958,14.536,9.612,31.298,9.654,48.741
		c0.085,35.072,0.035,70.144,0.041,105.216C496.231,841.89,494.231,841.89,492.23,841.89z"/>
	<path d="M558.26,841.89c0-59.206,0.361-118.419-0.141-177.617c-0.283-33.343-1.612-66.697-3.143-99.985
		c-2.057-44.737,0.793-89.15,3.583-133.57c3.254-51.804,3.439-103.619,2.016-155.549c-1.206-43.998-1.887-88.036-2.23-132.064
		C557.973,95.408,558.26,47.702,558.26,0c2.001,0,4.002,0,6.003,0c0.741,104.033,1.884,208.066,2.04,312.101
		c0.069,45.949-1.146,91.964-3.078,137.841c-2.223,52.77-0.155,105.34,0.654,158.039c1.197,77.937,0.357,155.936,0.384,233.909
		C562.262,841.89,560.261,841.89,558.26,841.89z"/>
	<path fill="#FFFFFF" d="M564.263,841.89c-0.027-77.973,0.813-155.972-0.384-233.909c-0.809-52.699-2.877-105.268-0.654-158.039
		c1.933-45.877,3.147-91.892,3.078-137.841c-0.156-104.035-1.299-208.067-2.04-312.101c2.001,0,4.002,0,6.003,0
		c0,280.63,0,561.26,0,841.89C568.265,841.89,566.264,841.89,564.263,841.89z"/>
	<path d="M570.266,841.89c0-280.63,0-561.26,0-841.89c2.001,0,4.002,0,6.003,0c0,280.63,0,561.26,0,841.89
		C574.268,841.89,572.267,841.89,570.266,841.89z"/>
	<path fill="#FFFFFF" d="M324.151,841.89c0.118-14.056-3.056-27.031-9.404-37.32c-10.303-16.699-21.11-32.943-32.648-47.951
		c-22.453-29.205-45.318-57.748-63.636-92.511c-22.671-43.024-38.09-90.143-40.084-144.315
		c-1.807-49.076,6.789-93.586,32.349-129.17c13.365-18.607,29.367-30.044,48.84-28.594c4.111,0.306,8.365,1.624,12.194,3.75
		c12.364,6.868,15.647,19.388,9.025,35.452c-6.886,16.706-11.719,33.828-8.863,53.532c4.504,31.077,23.804,56.271,48.312,62.038
		c35.916,8.45,64.911-10.629,88.216-47.412c26.802-42.305,36.233-93.37,33.942-148.932c-2.996-72.645-26.009-133.725-57.428-189.496
		c-13.015-23.102-27.129-44.995-39.99-68.257c-6.672-12.067-12.285-25.503-17.229-39.139c-2.509-6.92-2.477-15.652-3.594-23.565
		c2.001,0,4.002,0,6.003,0c-0.262,22.124,7.502,39.891,16.502,56.46c16.468,30.319,34.087,59.429,50.195,90.108
		c22.504,42.859,39.123,89.893,45.395,142.942c8.108,68.58,0.248,132.117-33.927,185.194c-22.052,34.25-49.8,51.782-83.431,47.302
		c-27.189-3.622-50.206-29.853-56.37-64.242c-2.824-15.755-1.532-31.129,2.516-46.183c0.704-2.618,1.34-5.272,2.005-7.91
		c5.344-21.207-0.677-33.804-16.832-34.851c-15.453-1.002-28.516,7.615-39.908,21.262c-19.767,23.679-30.18,54.733-33.771,90.233
		c-6.518,64.429,8.164,120.995,33.947,173.073c18.415,37.195,42.317,66.999,66.144,97.035
		c13.473,16.984,26.169,35.309,38.354,54.127c6.515,10.062,9.452,23.278,9.182,37.343C328.153,841.89,326.152,841.89,324.151,841.89
		z"/>
	<path fill="#FFFFFF" d="M414.193,0c-2.888,38.028,5.288,72.276,17.378,105.641c15.383,42.455,29.887,85.529,38.529,131.906
		c12.826,68.826,13.554,137.119-6.666,203.568c-21.178,69.599-57.07,116.597-110.214,135.392
		c-21.252,7.516-42.791,6.774-64.397,3.706c-5.755-0.817-11.586-1.222-17.363-0.971c-9.665,0.419-13.915,8.597-11.638,22.106
		c3.14,18.624,11.091,33.386,20.064,47.131c19.879,30.448,44.772,51.246,70.012,71.447c13.351,10.685,26.682,21.545,39.417,33.586
		c17.228,16.288,26.955,38.6,24.936,69.026c-0.424,6.398-0.06,12.9-0.06,19.354c-2.001,0-4.002,0-6.003,0
		c0-6.732-0.291-13.494,0.052-20.192c1.297-25.328-6.269-45.398-20.373-59.401c-16.912-16.791-34.832-31.634-52.584-46.698
		c-22.474-19.071-44.251-39.306-62.151-66.689c-9.801-14.994-18.222-31.305-22.91-50.793c-6.177-25.68,0.106-35.67,19.157-31.166
		c13.575,3.209,27.127,7.603,40.806,8.773c59.268,5.072,104.548-29.967,136.783-98.436c23.86-50.68,31.729-107.586,29.087-167.649
		c-2.761-62.752-18.321-120.074-38.211-175.523c-6.102-17.01-11.954-34.202-18.24-51.076C409.871,56.905,406.66,29.123,408.19,0
		C410.191,0,412.192,0,414.193,0z"/>
	<path fill="#FFFFFF" d="M138.064,0c0,21.033,0.278,42.076-0.069,63.098c-0.45,27.279,7.742,48.556,23.088,63.971
		c11.166,11.216,23.439,20.247,35.106,30.503c6.928,6.091,14.061,11.946,20.36,19.178c13.483,15.479,13.836,29.265,0.856,45.371
		c-11.363,14.1-23.703,26.637-35.293,40.393c-53.812,63.866-80.476,145.885-82.514,244.202
		c-1.153,55.596,6.951,109.09,18.794,161.722c4.264,18.949,8.545,37.891,12.816,56.836c4.728,20.973,7.509,42.281,6.945,64.456
		c-0.442,17.366-0.089,34.771-0.089,52.159c-2.001,0-4.002,0-6.003,0c0-12.906-0.471-25.853,0.089-38.712
		c1.599-36.7-3.293-71.812-11.318-106.555c-12.086-52.318-22.172-105.29-24.001-160.717c-2.174-65.847,6.546-128.205,29.071-186.438
		c15.583-40.285,37.387-73.185,61.531-103.469c6.98-8.755,13.786-18.003,19.718-28.126c7.035-12.006,6.481-23.638-1.481-34.546
		c-5.381-7.371-11.711-13.508-17.979-19.445c-10.591-10.032-21.852-18.736-32.137-29.324
		c-15.784-16.249-24.041-38.243-23.569-66.384c0.382-22.714,0.078-45.45,0.078-68.177C134.063,0,136.063,0,138.064,0z"/>
	<path fill="#FFFFFF" d="M510.238,0c0,26.927,0.627,53.89-0.143,80.774c-1.238,43.231,3.245,85.479,8.895,127.71
		c7.929,59.269,11.11,118.903,5.59,179.036c-4.575,49.846-15.679,97.014-29.272,143.276c-5.308,18.066-9.872,36.644-13.841,55.378
		c-3.409,16.091-0.639,31.673,5.158,46.126c4.211,10.5,8.727,20.763,12.855,31.325c7.347,18.799,10.85,38.968,10.79,60.459
		c-0.111,39.268-0.032,78.537-0.032,117.806c-2.001,0-4.002,0-6.003,0c0-35.609-0.297-71.225,0.095-106.826
		c0.306-27.786-5.727-52.249-17.342-74.396c-4.14-7.895-8.222-15.868-12.057-24.057c-6.401-13.667-8.472-28.836-4.51-44.16
		c4.884-18.893,10.475-37.502,16.616-55.665c15.562-46.027,27.819-93.416,33.158-144.066c5.249-49.804,4.453-99.516-1.079-149.066
		c-4.321-38.709-9.916-77.143-14.015-115.892c-1.599-15.117-0.781-30.763-0.838-46.17c-0.101-27.197-0.028-54.395-0.028-81.593
		C506.236,0,508.237,0,510.238,0z"/>
	<path d="M72.034,0c0,45.43,0.27,90.865-0.104,136.289c-0.215,26.093,1.906,51.613,8.505,75.906
		c10.198,37.546,8.762,74.733,1.962,113.015c-6.984,39.318-12.901,79.106-17.707,119.062c-4.906,40.785-5.823,82.462-1.609,123.261
		c9.415,91.156,9.636,182.675,8.954,274.356c-2.001,0-4.002,0-6.003,0c0.001-50.199,0.609-100.417-0.223-150.589
		c-0.501-30.189-2.69-60.392-5.088-90.437c-6.052-75.832-4.245-151.029,7.039-225.786c4.048-26.818,7.511-53.835,10.594-80.906
		c3.07-26.963-2.778-52.677-6.383-78.798c-2.981-21.601-5.311-43.684-5.673-65.627C65.47,99.855,66.032,49.918,66.031,0
		C68.032,0,70.033,0,72.034,0z"/>
	<path fill="#FFFFFF" d="M30.014,0c0,280.63,0,561.26,0,841.89c-2.001,0-4.002,0-6.003,0c0-280.63,0-561.26,0-841.89
		C26.012,0,28.013,0,30.014,0z"/>
	<path fill="#FFFFFF" d="M36.017,841.89c0-56.375,0.239-112.753-0.077-169.125c-0.249-44.299-1.906-88.598-1.631-132.881
		c0.343-55.207,2.431-110.389,3.002-165.598c0.423-40.897-0.341-81.818-0.646-122.728c-0.078-10.371-0.611-20.737-0.619-31.106
		C35.99,146.968,36.016,73.484,36.017,0c2.001,0,4.002,0,6.003,0c-0.002,67.903-0.367,135.811,0.16,203.705
		c0.233,29.971,3.375,59.926,3.224,89.869c-0.198,39.491-1.703,79.029-3.797,118.426c-2.696,50.726-3.186,101.395-1.96,152.206
		c1.21,50.172,1.861,100.378,2.297,150.577c0.368,42.363,0.076,84.737,0.076,127.106C40.019,841.89,38.018,841.89,36.017,841.89z"/>
	<path fill="#FFFFFF" d="M432.202,841.89c-0.002-12.624-0.271-25.262,0.053-37.869c0.594-23.117-5.709-42.199-18.63-55.519
		c-12.332-12.712-25.679-23.662-39.088-34.102c-20.613-16.048-42.053-30.272-59.377-53.293
		c-5.424-7.208-10.268-15.778-14.025-24.828c-5.107-12.305-2.471-22.116,7.14-26.553c10.581-4.884,21.576-8.028,32.422-11.755
		c78.326-26.916,124.723-97.45,141.677-206.576c10.327-66.474,3.512-131.693-12.415-195.108
		c-7.615-30.319-16.65-59.957-25.464-89.658c-8.311-28.004-14.239-56.475-12.347-87.278c0.393-6.405,0.056-12.897,0.055-19.35
		c2.001,0,4.002,0,6.003,0c0.001,8.973,0.367,17.981-0.066,26.913c-1.332,27.495,3.153,53.337,10.45,78.553
		c6.076,20.996,12.096,42.032,17.81,63.226c18.778,69.64,29.264,140.909,19.786,215.583c-8.959,70.582-32.315,129.438-73.334,173.49
		c-22.403,24.06-48.182,38.035-74.787,49.718c-6.432,2.824-12.812,6.416-18.712,10.946c-6.405,4.918-8.276,13.416-4.613,22.222
		c3.365,8.091,7.322,16.621,12.547,22.084c12.44,13.007,25.541,24.874,38.821,36.169c16.367,13.919,33.691,25.715,49.669,40.421
		c15.47,14.238,23.421,35.303,22.509,62.19c-0.456,13.429-0.08,26.914-0.08,40.374C436.203,841.89,434.203,841.89,432.202,841.89z"
		/>
	<path d="M438.204,841.89c0-13.46-0.375-26.945,0.08-40.374c0.912-26.887-7.04-47.952-22.509-62.19
		c-15.978-14.706-33.301-26.502-49.669-40.421c-13.281-11.294-26.382-23.161-38.821-36.169c-5.224-5.463-9.181-13.993-12.547-22.084
		c-3.663-8.806-1.792-17.304,4.613-22.222c5.9-4.531,12.28-8.122,18.712-10.946c26.605-11.683,52.384-25.658,74.787-49.718
		c41.018-44.052,64.375-102.909,73.334-173.49c9.478-74.674-1.008-145.944-19.786-215.583c-5.715-21.193-11.734-42.23-17.81-63.226
		c-7.297-25.216-11.781-51.058-10.45-78.553c0.433-8.932,0.067-17.94,0.066-26.913c2.001,0,4.002,0,6.003,0
		c0,11.497,0.393,23.025-0.081,34.483c-1.029,24.87,2.833,48.373,9.009,71.403c6.461,24.087,13.013,48.133,19.142,72.387
		c17.13,67.788,25.75,137.043,16.296,208.839c-10.646,80.849-39.224,145.824-89.512,189.462
		c-17.369,15.072-36.771,25.535-55.247,38.096c-19.6,13.326-21.693,28.275-4.83,47.646c12.098,13.896,26.041,24.709,39.411,36.331
		c15.745,13.685,32.374,25.535,47.47,40.468c12.895,12.756,18.767,32.134,18.391,54.828c-0.264,15.974-0.051,31.964-0.051,47.947
		C442.206,841.89,440.205,841.89,438.204,841.89z"/>
	<path fill="#FFFFFF" d="M384.179,841.89c3.051-34.201-8.733-58.236-27.494-76.822c-19.409-19.228-39.404-37.291-58.84-56.468
		c-24.041-23.721-45.53-51.236-61.476-86.337c-13.004-28.625-21.987-59.141-20.43-93.949c0.294-6.569,1.425-13.386,3.271-19.427
		c3.529-11.546,9.299-14.094,16.913-7.589c5.435,4.644,10.46,10.298,15.453,15.881c17.305,19.349,36.278,33.711,58.4,38.562
		c37.204,8.158,70.148-6.038,98.893-39.147c32.621-37.573,49.689-87.515,55.719-145.234c6.796-65.057-2.565-126.846-22.52-185.275
		c-12.05-35.282-26.764-68.775-40.279-103.074c-6.952-17.643-14.504-35.031-16.72-55.358c-0.988-9.07-0.635-18.427-0.89-27.654
		c2.001,0,4.002,0,6.003,0c-1.957,28.277,4.457,53.447,13.992,77.791c13.846,35.349,28.187,70.42,40.519,106.807
		c17.205,50.764,26.308,104.591,24.097,161.268c-2.324,59.548-16.248,112.535-45.509,157.011
		c-41.252,62.7-105.126,77.304-158.29,35.454c-7.662-6.031-15.047-12.789-22.846-18.435c-10.572-7.654-16.695-3.533-19.099,12.763
		c-3.322,22.522,1.439,43.401,7.899,63.507c12.387,38.549,32.124,69.075,55.958,93.934c20.499,21.381,42.353,40.192,63.42,60.523
		c8.05,7.768,15.979,15.971,23.248,25.097c11.407,14.321,17.809,32.192,16.641,54.387c-0.206,3.908-0.03,7.855-0.03,11.784
		C388.181,841.89,386.18,841.89,384.179,841.89z"/>
	<path fill="#FFFFFF" d="M396.185,841.89c0-3.366-0.205-6.761,0.031-10.095c2.058-29.031-7.137-50.899-23.277-66.856
		c-17.778-17.576-36.393-33.49-54.674-50.061c-24.978-22.641-48.465-47.684-66.399-81.563
		c-10.836-20.47-19.437-42.512-21.923-68.202c-0.604-6.238-0.307-12.927,0.602-19.112c1.528-10.402,6.65-14.798,13.856-11.203
		c10.132,5.054,19.907,11.502,29.873,17.225c65.304,37.507,131.028,0.768,167.317-75.838
		c23.647-49.92,32.093-105.514,29.454-164.896c-2.848-64.076-19.388-121.902-40.714-177.631
		c-8.876-23.195-17.561-46.534-26.262-69.86c-7.484-20.062-8.692-41.696-7.882-63.798c2.001,0,4.002,0,6.003,0
		c-3.259,38.076,7.742,70.604,20.133,102.685c17.13,44.35,33.521,89.185,42.861,138.287c12.765,67.11,13.288,133.667-6.672,198.383
		C438.5,504.23,405.087,548.792,355.364,566.447c-28.409,10.087-56.292,4.807-83.719-7.985c-5.674-2.647-11.374-5.326-17.192-7.197
		c-11.038-3.549-17.806,3.916-16.016,19.635c1.515,13.308,4.349,26.912,8.702,38.882c12.944,35.595,33.433,62.06,56.643,84.092
		c20.325,19.294,41.633,36.54,62.272,55.202c7.187,6.498,14.062,13.921,20.39,21.986c10.877,13.862,16.693,31.17,15.787,52.322
		c-0.263,6.148-0.042,12.337-0.043,18.507C400.187,841.89,398.186,841.89,396.185,841.89z"/>
	<path d="M546.255,841.89c0.001-39.555-0.317-79.117,0.086-118.664c0.492-48.306-0.619-96.36-6.286-144.165
		c-3.611-30.459-1.564-61.091,2.019-91.304c10.395-87.664,12.863-175.571,5.87-263.986c-1.232-15.575-1.568-31.35-1.617-47.036
		C546.146,117.824,546.255,58.912,546.255,0c2.001,0,4.002,0,6.003,0c0,58.348-0.539,116.708,0.173,175.038
		c0.554,45.399,2.774,90.754,4.059,136.139c1.441,50.879-1.497,101.488-6.086,151.862c-4.386,48.14-4.96,96.077-0.183,144.21
		c1.455,14.665,1.901,29.622,1.949,44.451c0.204,63.396,0.087,126.793,0.087,190.19C550.257,841.89,548.256,841.89,546.255,841.89z"
		/>
	<path fill="#FFFFFF" d="M486.227,0c0.001,18.515,0.565,37.071-0.115,55.536c-1.411,38.286,3.118,75.296,10.133,112.065
		c8.997,47.164,15.904,94.86,17.025,143.922c1.922,84.132-13.405,161.349-46.82,231.332c-7.893,16.531-16.44,32.447-24.416,48.903
		c-3.354,6.919-6.357,14.274-8.902,21.84c-4.546,13.515-3.388,26.597,4.07,37.32c6.535,9.396,13.657,18.076,20.937,26.349
		c19.063,21.664,29.328,48.539,28.254,83.84c-0.818,26.882-0.164,53.851-0.164,80.782c-2.001,0-4.002,0-6.003,0
		c0-26.356-0.325-52.722,0.089-79.065c0.451-28.742-7.415-51.813-22.975-69.818c-9.084-10.51-18.89-19.794-27.956-30.331
		c-15.32-17.805-16.849-31.56-5.116-54.272c9.834-19.035,21.034-36.669,31.22-55.361c41.617-76.366,58.73-162.762,53.865-258.352
		c-2.462-48.367-10.617-95.059-19.863-141.445c-6.388-32.045-10.498-64.273-9.373-97.737c0.621-18.464,0.11-37.003,0.109-55.509
		C482.225,0,484.226,0,486.227,0z"/>
	<path fill="#FFFFFF" d="M306.143,0c0.115,16.778,4.877,31.446,12.27,43.769c14.272,23.788,29.244,46.762,44.128,69.816
		c22.923,35.505,43.521,73.211,56.915,117.708c16.682,55.419,22.169,112.165,8.173,170.352
		c-10.922,45.405-30.673,80.621-63.533,97.812c-23.482,12.285-46.482,10.73-66.582-12.991c-9.637-11.374-14.847-26.292-13.5-44.558
		c0.857-11.622,5.181-20.313,12.058-26.775c11.834-11.121,13.998-27.316,5.769-43.893c-8.54-17.205-21.01-24.79-35.367-25.932
		c-29.51-2.347-52.052,16.774-69.673,48.009c-23.119,40.979-29.658,88.717-25.622,139.518
		c5.395,67.897,28.902,123.89,60.834,173.512c17.266,26.832,35.862,51.971,53.496,78.349c9.187,13.742,17.325,28.74,19.903,48.035
		c0.402,3.011,0.494,6.103,0.73,9.158c-2.001,0-4.002,0-6.003,0c-0.087-14.952-4.051-28.311-10.564-39.432
		c-11.147-19.035-22.792-37.577-34.961-55.338c-23.893-34.875-46.796-70.723-63.117-113.787
		c-17.043-44.969-26.531-92.563-23.332-143.831c3.181-50.992,16.773-95.207,46.956-126.342
		c20.666-21.318,43.747-30.118,68.96-17.599c13.671,6.788,23.79,19.383,27.467,40.048c2.704,15.197-1.648,28.478-11.526,35.881
		c-9.941,7.449-14.018,22.6-9.976,38.983c5.77,23.389,18.816,35.193,35.185,39.47c29.147,7.615,53.192-7.854,72.972-36.58
		c27.241-39.561,36.523-88.491,34.282-142.195c-2.828-67.775-23.981-124.947-54.535-175.638
		c-17.921-29.731-37.734-57.206-56.403-86.069c-9.29-14.363-17.793-29.685-20.605-49.472c-0.465-3.274-0.545-6.657-0.803-9.989
		C302.141,0,304.142,0,306.143,0z"/>
	<path fill="#FFFFFF" d="M258.12,0c-0.806,23,7.324,40.635,18.482,55.295c13.984,18.373,28.78,35.559,43.513,52.774
		c27.809,32.492,53.485,67.625,71.29,112.477c18.546,46.72,27.428,96.165,19.106,149.565c-4.559,29.254-13.97,55.214-31.963,72.636
		c-6.285,6.086-14.322,9.957-21.923,11.681c-9.14,2.073-14.081-5.571-14.374-18.716c-0.137-6.155,0.139-12.334,0.324-18.496
		c1.612-53.672-24.088-96.979-62.081-104.096c-37.954-7.11-68.65,13.05-93.37,51.895c-28.431,44.676-38.356,98.582-36.241,157.293
		c2.297,63.768,19.674,120.203,45.009,172.078c14.445,29.577,30.351,57.742,45.308,86.838c7.248,14.1,13.814,28.917,16.051,46.484
		c0.592,4.652,0.595,9.451,0.868,14.183c-2.001,0-4.002,0-6.003,0c0.826-20.102-4.889-37.446-12.601-53.315
		c-13.162-27.083-27.203-53.323-40.56-80.225c-21.042-42.383-37.861-87.626-45.804-138.535
		c-9.175-58.802-6.742-116.039,13.769-169.932c17.253-45.334,42.875-77.006,79.316-88.932c35.046-11.469,69.871,6.282,88.678,44.589
		c8.412,17.135,11.827,36.531,13.219,56.873c0.305,4.459,0.643,8.925,1.165,13.341c1.836,15.515,8.232,20.953,18.947,15.934
		c10.925-5.118,18.757-15.891,25.096-28.763c14.391-29.221,18.758-62.137,16.631-96.867
		c-3.944-64.407-26.023-116.758-58.126-160.636c-21.126-28.875-44.949-53.839-67.204-81.133
		c-8.381-10.28-16.262-21.582-23.424-33.535c-6.865-11.458-9.87-25.496-9.102-40.753C254.119,0,256.119,0,258.12,0z"/>
	<path d="M132.062,0c0,22.726,0.304,45.463-0.078,68.177c-0.473,28.14,7.784,50.135,23.569,66.384
		c10.285,10.588,21.546,19.292,32.137,29.324c6.268,5.937,12.598,12.074,17.979,19.445c7.962,10.907,8.516,22.54,1.481,34.546
		c-5.931,10.122-12.738,19.371-19.718,28.126c-24.144,30.283-45.948,63.183-61.531,103.469
		c-22.525,58.233-31.245,120.59-29.071,186.438c1.83,55.427,11.916,108.399,24.001,160.717
		c8.026,34.743,12.917,69.854,11.318,106.555c-0.56,12.859-0.089,25.805-0.089,38.712c-2.001,0-4.002,0-6.003,0
		c0-22.999-0.325-46.009,0.084-68.994c0.492-27.697-5.025-53.728-10.348-79.827c-8.458-41.476-16.658-82.99-20.195-126.029
		c-9.198-111.917,10.85-210.985,65.549-294.921c8.496-13.038,17.167-25.852,25.657-38.897c2.147-3.298,4.066-6.942,5.824-10.673
		c6.96-14.776,6.492-27.334-2.946-39.01c-7.896-9.767-17.097-17.425-25.446-26.512c-8.493-9.242-17.274-18.223-24.798-28.888
		c-9.516-13.486-13.348-30.928-13.368-49.889c-0.027-26.084-0.01-52.168-0.012-78.252C128.06,0,130.061,0,132.062,0z"/>
	<path fill="#FFFFFF" d="M234.109,0c-1.88,26.233,6.357,46.668,20.059,62.496c16.329,18.864,33.494,36.326,50.497,54.017
		c26.651,27.729,51.259,58.255,69.481,97.716c14.123,30.583,23.498,63.568,25.172,100.301c0.972,21.32-0.912,42.058-7.957,61.241
		c-2.245,6.112-5.318,11.986-8.862,16.718c-6.222,8.308-12.842,7.365-17.92-2.416c-3.982-7.669-7.194-16.132-10.664-24.312
		c-15.812-37.273-38.398-61.238-69.312-67.736c-35.568-7.476-66.381,8.303-92.82,41.081c-28.647,35.514-43.74,81.455-48.882,133.936
		c-7.033,71.777,5.948,138.079,30.732,200.056c14.048,35.131,30.458,68.395,45.606,102.673c8.928,20.203,16.374,41.225,14.872,66.12
		c-2.001,0-4.002,0-6.003,0c1.773-26.994-6.455-49.62-15.929-71.698c-14.726-34.317-30.399-67.915-43.956-103.117
		c-19.248-49.979-30.285-103.628-29.492-161.002c0.901-65.162,15.216-123.249,50.282-167.894
		c32.557-41.45,70.545-57.024,113.72-38.308c21.574,9.352,38.08,28.926,51.649,53.773c3.642,6.67,7.237,13.46,11.34,19.55
		c6.92,10.272,13.388,9.52,19.472-1.881c6.859-12.855,9.136-27.905,9.736-43.486c1.515-39.295-7.516-74.516-21.991-107.333
		c-16.892-38.296-39.929-68.395-65.649-94.703c-16.794-17.177-33.765-34.013-50.604-51.104c-2.746-2.787-5.245-6.059-7.811-9.184
		C234.674,48.213,225.983,27.475,228.106,0C230.107,0,232.108,0,234.109,0z"/>
	<path fill="#FFFFFF" d="M162.076,0c0,14.026,0.325,28.071-0.071,42.075c-0.702,24.796,6.157,45.102,20.325,58.622
		c15.789,15.067,32.983,27.214,49.409,40.999c12.151,10.198,24.434,20.237,35.91,31.808c6.182,6.233,11.602,14.763,15.911,23.644
		c6.126,12.626,4.009,22.171-5.782,28.764c-6.982,4.702-14.42,8.23-21.831,11.489c-32.451,14.268-62.186,35.041-86.612,69.111
		c-30.529,42.585-48.113,94.305-55.3,153.373c-8.335,68.507-0.172,134.488,16.22,198.99c6.563,25.824,13.9,51.272,21.176,76.727
		c7.293,25.516,12.101,51.54,10.718,79.365c-0.444,8.933-0.072,17.947-0.074,26.923c-2.001,0-4.002,0-6.003,0
		c3.019-49.155-4.317-95.367-17.978-140.651c-15.454-51.227-26.657-104.415-29.369-160.416
		c-3.357-69.315,6.104-134.407,33.054-193.519c23.811-52.225,57.823-86.611,98.139-110.021c8.457-4.911,16.865-10.337,24.696-16.928
		c8.407-7.076,9.668-17.398,3.854-28.621c-3.475-6.709-7.524-13.584-12.418-17.957c-15.299-13.672-31.207-25.994-46.714-39.218
		c-12.255-10.451-24.91-20.297-36.21-32.548c-11.761-12.751-17.319-31.013-17.09-52.356c0.178-16.548,0.036-33.102,0.036-49.653
		C158.074,0,160.075,0,162.076,0z"/>
	<path fill="#FFFFFF" d="M90.042,0c0,36.176,0.618,72.378-0.182,108.519c-0.717,32.395,5.445,61.366,17.954,88.14
		c1.531,3.277,2.814,6.78,4.281,10.119c8.398,19.12,10.103,39.486,4.687,60.466c-7.603,29.452-16.014,58.493-23.633,87.937
		c-16.665,64.406-23.513,130.977-18.827,199.137c2.889,42.018,8.486,83.661,12.558,125.532c1.508,15.507,2.845,31.167,3.02,46.785
		c0.431,38.41,0.141,76.835,0.142,115.254c-2.001,0-4.002,0-6.003,0c0-40.952,0.928-81.96-0.308-122.839
		c-0.911-30.116-3.558-60.335-7.323-90.037c-13.435-105.983-7.712-209.16,20.028-309.863c4.933-17.909,8.385-36.745,11.471-55.493
		c2.944-17.884-0.867-34.764-5.991-51.339c-5.774-18.678-11.166-37.655-15.752-56.956c-1.968-8.282-1.988-17.705-2.028-26.618
		C83.941,85.833,84.043,42.916,84.039,0C86.04,0,88.041,0,90.042,0z"/>
	<path fill="#FFFFFF" d="M204.095,841.89c3.359-39.724-10.023-72.268-22.993-104.924c-18.302-46.083-35.62-92.745-44.733-144.415
		c-11.821-67.025-10.966-132.998,10.397-196.295c19.832-58.759,51.417-99.425,97.087-115.799
		c30.863-11.065,60.623-4.461,89.41,13.593c7.454,4.675,15.009,9.253,22.796,12.603c7.692,3.309,12.211-1.278,13.88-12.328
		c2.493-16.5-1.09-31.762-5.482-46.556c-10.17-34.255-26.683-62.321-47.498-84.187c-23.458-24.642-48.597-46.121-72.869-69.258
		c-7.75-7.388-15.415-15.105-22.501-23.677c-11.956-14.464-18.651-32.634-17.53-55.499c0.246-5.027,0.035-10.098,0.035-15.148
		c2.001,0,4.002,0,6.003,0c0.179,9.521-0.333,19.19,0.679,28.534c2.216,20.459,11.511,35.088,22.84,46.627
		c14.698,14.971,30.035,28.727,45.272,42.629c25.05,22.855,49.235,47.122,68.45,79.777c14.963,25.429,26.814,53.215,30.059,86.464
		c0.948,9.715,0.127,20.137-1.279,29.837c-1.509,10.412-7.084,13.889-14.233,9.895c-4.973-2.779-9.721-6.541-14.302-10.476
		c-18.736-16.095-38.312-28.884-60.495-32.308c-37.784-5.832-70.778,10.126-99.217,44.378
		c-32.109,38.671-48.932,89.179-54.572,147.257c-7.36,75.787,6.947,145.589,31.426,212.116
		c10.072,27.373,21.19,53.989,31.862,80.927c9.395,23.715,15.574,48.533,13.51,76.234C208.097,841.89,206.096,841.89,204.095,841.89
		z"/>
	<path fill="#FFFFFF" d="M216.101,841.89c2.087-28.534-5.691-53.126-15.306-77.178c-14.451-36.147-29.686-71.793-42.592-109.012
		c-18.286-52.732-27.451-108.922-23.611-167.892c4.956-76.11,26.632-140.006,75.204-179.506
		c46.058-37.457,91.65-32.401,134.81,11.686c6.137,6.269,11.958,13.196,18.306,19.001c9.145,8.363,15.362,5.483,19.044-9.074
		c4.956-19.591,2.891-39.298-1.085-58.651c-8.574-41.734-26.667-74.786-48.832-104.01c-22.131-29.181-48.036-51.093-73.115-74.6
		c-5.147-4.824-10.141-9.97-15.164-15.05C224.886,58.514,212.986,34.514,216.101,0c2.001,0,4.002,0,6.003,0
		c-3.163,36.978,11.997,59.926,31.267,79.375c20.913,21.106,42.474,40.984,63.033,62.735c24.483,25.902,45.16,56.965,59.336,95.634
		c9.446,25.768,15.716,52.882,14.239,82.227c-0.509,10.123-2.29,20.588-5.14,29.904c-4.322,14.126-11.751,15.875-20.096,5.946
		c-4.411-5.248-8.511-11.053-12.517-16.922c-47.925-70.214-117.264-63.681-163.656-5.089c-29.521,37.285-45.19,84.813-50.47,139.307
		c-7.06,72.867,6.293,140.158,30.433,203.817c10.676,28.154,23.019,55.063,34.541,82.589c7.583,18.116,15.576,36.088,18.093,57.251
		c0.977,8.216,0.663,16.735,0.937,25.115C220.103,841.89,218.102,841.89,216.101,841.89z"/>
	<path d="M156.073,0c0,16.551,0.142,33.106-0.036,49.653c-0.229,21.344,5.328,39.605,17.09,52.356
		c11.3,12.251,23.955,22.096,36.21,32.548c15.507,13.225,31.415,25.546,46.714,39.218c4.894,4.373,8.943,11.248,12.418,17.957
		c5.814,11.223,4.553,21.545-3.854,28.621c-7.831,6.591-16.239,12.017-24.696,16.928c-40.316,23.411-74.328,57.796-98.139,110.021
		c-26.95,59.112-36.411,124.204-33.054,193.519c2.712,56.001,13.915,109.189,29.369,160.416
		c13.661,45.284,20.997,91.496,17.978,140.651c-2.001,0-4.002,0-6.003,0c-0.216-22.708,1.735-45.983-1.194-67.98
		c-3.707-27.845-10.821-54.923-17.478-81.84c-10.358-41.88-20.178-83.912-23.85-128.138c-8.27-99.613,6.764-189.525,57.239-264.088
		c17.813-26.314,39.326-45.659,62.032-62.606c7.223-5.391,14.504-10.823,21.204-17.355c11.093-10.817,11.816-22.525,2.608-36.54
		c-10.49-15.966-24.142-25.612-37.463-35.871c-11.381-8.765-22.99-17.023-34.015-26.6c-19.584-17.011-30.936-40.686-29.185-74.584
		c0.649-12.561,0.105-25.243,0.104-37.87c0-2.806-0.001-5.612-0.002-8.419C152.071,0,154.072,0,156.073,0z"/>
	<path fill="#FFFFFF" d="M54.025,0c0.001,56.663-0.676,113.349,0.273,169.981c0.515,30.713,3.431,61.394,5.937,91.982
		c2.535,30.948,1.306,61.619-1.983,92.202c-7.44,69.175-13.364,138.651-8.674,208.581c6.235,92.976,3.812,186.076,4.448,279.145
		c-2.001,0-4.002,0-6.003,0c0-63.393,0.496-126.797-0.179-190.176c-0.433-40.628-2.761-81.211-3.936-121.831
		c-1.455-50.304,1.425-100.355,5.921-150.179c4.318-47.852,4.9-95.523,0.262-143.388c-1.476-15.229-1.926-30.745-1.978-46.136
		C47.901,126.787,48.023,63.393,48.022,0C50.023,0,52.024,0,54.025,0z"/>
	<path fill="#FFFFFF" d="M378.176,0c-1.831,26.156,4.972,48.912,14.096,70.795c14.312,34.326,29.338,68.124,42.654,103.196
		c17.666,46.532,28.345,96.387,29.152,149.447c1.103,72.541-13.577,137.187-53.424,186.234
		c-32.206,39.642-69.727,54.418-112.026,37.658c-20.181-7.996-36.563-24.652-51.025-45.447c-3.768-5.418-7.525-10.892-11.587-15.859
		c-8.479-10.372-15.612-8.523-20.683,5.631c-5.78,16.129-6.3,33.553-4.675,50.992c5.073,54.47,25.989,96.687,53.355,133.722
		c21.853,29.574,47.671,51.74,72.303,76.153c9.595,9.509,18.779,20.024,27.414,31.199c12.005,15.535,15.892,35.715,14.445,58.169
		c-2.001,0-4.002,0-6.003,0c2.117-27.545-6.402-48.848-21.134-65.104c-17.885-19.736-36.57-38.05-54.939-56.92
		c-26.955-27.69-51.562-58.646-69.144-99.128c-13.863-31.918-22.618-66.076-21.655-104.104c0.373-14.73,2.407-28.984,7.752-41.864
		c7.103-17.117,15.495-18.036,24.373-2.79c5.055,8.681,9.626,17.934,14.861,26.387c32.122,51.874,81.706,66.45,126.364,36.562
		c41.838-28,65.944-76.318,77.417-137.837c10.768-57.738,6.061-114.431-7.689-170.178c-12.263-49.721-32.296-93.574-52.465-137.352
		c-4.549-9.875-8.818-20.02-12.96-30.244C375.52,40.959,370.822,21.54,372.174,0C374.175,0,376.175,0,378.176,0z"/>
	<path fill="#FFFFFF" d="M360.168,841.89c1.49-24.27-6.147-43.455-18.588-58.394c-16.228-19.487-33.309-37.601-50.268-55.86
		c-26.324-28.342-50.708-59.28-68.672-98.95c-16.413-36.247-26.563-75.306-25.582-118.881c0.499-22.164,3.745-43.592,13.043-62.023
		c3.487-6.912,8.127-13.234,13.142-17.938c6.41-6.013,12.33-3.21,16.149,6.227c2.158,5.331,3.984,11.025,5.418,16.82
		c20.887,84.383,82.104,107.975,132.55,74.997c33.066-21.616,54.863-58.182,67.863-105.145
		c18.786-67.863,14.13-135.236-3.912-201.813c-11.518-42.503-28.998-80.351-47.197-117.664
		c-9.351-19.172-18.227-38.845-26.674-58.826C361.742,30.96,359.343,15.86,360.168,0c2.001,0,4.002,0,6.003,0
		c-1.152,19.78,2.827,37.926,10.04,54.452c11.157,25.561,22.926,50.596,34.465,75.828c20.855,45.602,37.774,93.63,44.91,147.374
		c8.978,67.623,3.427,131.977-24.647,189.976c-20.046,41.414-47.338,69.139-83.291,76.312
		c-41.471,8.275-74.538-11.995-97.916-61.359c-4.304-9.088-7.738-18.982-11.986-28.128c-6.469-13.927-14.109-14.917-21.876-2.324
		c-13.634,22.107-15.955,48.997-14.661,76.689c2.098,44.907,15.569,83.525,34.841,118.639c19.755,35.994,44.999,63.45,70.866,90.043
		c14.008,14.402,27.917,29.112,41.089,44.96c12.718,15.301,19.866,34.961,18.168,59.428
		C364.17,841.89,362.169,841.89,360.168,841.89z"/>
	<path fill="#FFFFFF" d="M270.126,0c-0.319,14.377,2.727,27.734,9.348,38.15c10.871,17.103,22.231,33.769,34.383,49.057
		c23.388,29.422,47.141,58.21,66.031,93.818c20.127,37.94,34.646,79.441,38.463,126.863c4.324,53.714-3.006,102.969-32.281,141.723
		c-11.198,14.824-24.604,24.182-40.495,23.339c-4.423-0.234-9.089-2.208-13.087-4.968c-6.186-4.269-8.166-11.729-6.301-21.218
		c1.853-9.433,4.613-18.548,6.146-28.065c5.53-34.319-6.095-68.917-29.255-86.022c-29.712-21.944-58.946-16.691-86.641,6.808
		c-32.793,27.824-50.32,70.979-57.838,122.475c-7.875,53.939-1.558,105.837,13.382,156.111
		c14.485,48.741,37.01,90.066,60.65,130.483c10.122,17.305,19.618,35.399,28.685,53.825c5.712,11.609,9.093,24.932,8.81,39.513
		c-2.001,0-4.002,0-6.003,0c0.389-14.855-2.749-28.68-8.641-40.442c-12.74-25.431-26.082-50.29-39.592-74.935
		c-23.159-42.246-43.366-86.744-54.241-138.345c-12.71-60.305-13.062-120.099,6.769-177.8c15.542-45.222,39.658-77.789,75.087-90.86
		c23.694-8.742,46.567-5.242,67.085,14.709c22.27,21.656,30.616,51.937,26.223,89.277c-0.39,3.315-0.955,6.588-1.427,9.884
		c-3.438,24.058,4.464,35.435,21.815,30.767c16.159-4.347,28.273-17.782,37.92-35.739c18.283-34.03,23.706-72.99,20.827-114.502
		c-4.373-63.052-25.652-115.081-56.268-159.662c-17.425-25.374-37.283-47.429-55.59-71.655
		c-11.148-14.751-21.876-30.244-31.938-46.449c-6.147-9.901-8.435-22.736-8.028-36.139C266.124,0,268.125,0,270.126,0z"/>
	<path fill="#FFFFFF" d="M420.196,841.89c0.001-8.976-0.36-17.987,0.07-26.922c1.284-26.689-6.895-47.273-21.909-61.763
		c-14.767-14.251-30.468-26.677-46.086-39.095c-22.131-17.597-43.965-35.672-61.865-61.531c-7.692-11.112-14.689-23.021-17.9-38.281
		c-2.8-13.305,0.713-21.936,10.545-23.215c13.713-1.783,27.547-1.673,41.279-3.242c60.626-6.93,105.144-49.034,134.061-123.371
		c20.029-51.488,25.818-107.206,22.251-165.241c-3.806-61.917-19.754-118.473-38.248-174.045
		c-6.66-20.011-12.69-40.468-18.42-61.044c-5.766-20.705-3.399-42.648-3.777-64.14c2.001,0,4.002,0,6.003,0
		c-2.906,42.065,4.407,80.998,17.771,118.363c5.626,15.732,10.23,32.208,14.983,48.526c14.605,50.148,24.87,101.733,25.188,156.398
		c0.471,80.978-16.692,152.316-59.41,209.025c-27.36,36.321-60.587,55.297-97.628,62.096c-8.913,1.636-17.824,3.302-26.727,5.044
		c-1.77,0.346-3.53,0.964-5.244,1.691c-9.858,4.181-13.558,12.914-8.454,25.451c5.156,12.666,11.772,24.716,19.251,34.856
		c17.705,24.002,39.744,39.176,61.048,55.802c13.061,10.193,26.08,20.747,38.266,32.83c14.6,14.478,22.08,34.831,21.025,60.675
		c-0.423,10.345-0.069,20.752-0.069,31.131C424.198,841.89,422.197,841.89,420.196,841.89z"/>
	<path fill="#FFFFFF" d="M444.207,841.89c0-15.983-0.214-31.973,0.051-47.947c0.376-22.693-5.496-42.072-18.391-54.828
		c-15.096-14.932-31.725-26.783-47.47-40.468c-13.37-11.621-27.313-22.434-39.411-36.331c-16.864-19.371-14.771-34.32,4.83-47.646
		c18.476-12.561,37.878-23.024,55.247-38.096c50.288-43.638,78.866-108.613,89.512-189.462
		c9.454-71.796,0.834-141.052-16.296-208.839c-6.129-24.254-12.681-48.3-19.142-72.387c-6.177-23.029-10.038-46.532-9.009-71.403
		C444.6,23.025,444.207,11.497,444.207,0c2.001,0,4.002,0,6.003,0c0.212,22.696-1.783,45.98,1.188,67.942
		c3.837,28.358,11.045,55.954,17.875,83.351c11.558,46.366,21.764,93.082,24.852,142.299
		c7.458,118.881-24.504,237.209-109.643,302.7c-10.327,7.944-20.835,15.502-30.809,24.248c-13.357,11.713-14.222,24.568-3.1,40.302
		c12.159,17.201,27.738,27.131,42.534,38.787c12.507,9.853,25.127,19.709,36.748,31.416c14.161,14.266,20.968,34.558,20.426,59.527
		c-0.371,17.091-0.071,34.21-0.072,51.316C448.209,841.89,446.208,841.89,444.207,841.89z"/>
	<path fill="#FFFFFF" d="M186.087,0c0.005,9.256,0.221,18.524-0.03,27.767c-0.539,19.844,5.025,35.893,14.934,49.489
		c13.193,18.103,29.472,29.699,45.319,42.129c23.052,18.083,45.866,36.63,65.301,62.111c11.608,15.219,22.142,31.71,27.39,53.355
		c4.659,19.218,0.17,28.124-14.2,27.817c-8.383-0.179-16.768-1.157-25.13-2.137c-71.314-8.358-134.035,45.098-162.009,137.976
		c-19.689,65.369-20.36,132.234-8.433,200.193c8.605,49.034,24.547,93.883,39.7,139.275c6.558,19.644,12.157,40.261,15.99,61.228
		c2.464,13.483,0.917,28.409,1.168,42.688c-2.001,0-4.002,0-6.003,0c3.556-43.445-6.986-82.045-20.293-120.017
		c-15.266-43.561-28.514-88.31-35.46-136.168c-10.97-75.583-7.169-148.768,21.145-216.452
		c29.106-69.577,72.834-108.336,130.43-115.121c13.138-1.548,26.377-1.451,39.502-3.141c11.986-1.543,15.753-11.405,11.217-27.182
		c-4.915-17.095-13.576-30.246-23.029-42.489c-18.685-24.2-40.79-41.148-62.755-58.495c-13.382-10.569-26.731-21.458-39.256-33.867
		c-14.944-14.806-22.897-35.41-21.57-62.025c0.446-8.936,0.07-17.953,0.069-26.933C182.085,0,184.086,0,186.087,0z"/>
	<path fill="#FFFFFF" d="M240.112,841.89c1.105-20.234-3.796-38.263-11.292-54.791c-11.687-25.765-24.078-50.898-36.048-76.413
		c-19.106-40.727-34.892-83.633-43.08-131.402c-10.67-62.25-9.016-123.131,12.392-180.793
		c18.879-50.852,47.584-85.189,88.622-96.334c43.439-11.798,84.761,19.21,102.102,76.154c2.664,8.749,4.933,17.808,8.168,26.125
		c4.484,11.528,11.129,14.025,18.341,5.631c5.686-6.618,11.029-14.993,14.406-24.128c12.319-33.327,11.973-68.614,5.541-104.047
		c-9.279-51.114-29.793-93.003-57.313-127.631c-20.335-25.588-42.66-48.054-63.963-72.146c-7.459-8.435-14.808-17.147-21.684-26.49
		C245.198,40.533,238.698,22.438,240.112,0c2.001,0,4.002,0,6.003,0c-1.323,23.98,6.527,42.745,18.627,57.591
		c16.531,20.282,33.94,39.173,51.146,58.356c28.709,32.009,54.671,67.448,72.086,113.466
		c15.692,41.464,23.476,85.111,16.576,132.139c-3.284,22.381-9.679,42.744-22.36,58.094c-2.54,3.075-5.437,5.826-8.478,7.781
		c-8.607,5.534-14.965,1.885-18.007-10.673c-2.436-10.053-3.922-20.551-6.22-30.678c-12.195-53.754-48.063-87.181-88.171-81.776
		c-48.619,6.552-80.574,45.629-100.401,105.406c-21.293,64.198-18.825,130.082-3.157,195.835
		c11.728,49.22,31.628,92.156,52.903,134.05c9.264,18.243,18.139,36.914,26.591,55.915c6.225,13.995,9.637,29.524,8.865,46.385
		C244.114,841.89,242.113,841.89,240.112,841.89z"/>
	<path fill="#FFFFFF" d="M462.216,0c0.352,27.453-0.823,55.167,1.534,82.277c1.932,22.224,7.58,43.945,12.442,65.508
		c9.52,42.223,18.862,84.454,22.449,128.682c10.218,125.996-16.131,231.723-88.067,312.128
		c-8.753,9.784-17.647,19.322-26.314,29.252c-2.759,3.161-5.266,6.935-7.417,10.927c-5.064,9.4-5.447,19.034,0.303,27.575
		c5.552,8.246,12.007,15.647,18.805,21.818c13.066,11.862,26.953,21.955,39.955,33.943c18.191,16.773,27.47,40.396,26.428,71.729
		c-0.642,19.311-0.118,38.698-0.118,58.052c-2.001,0-4.002,0-6.003,0c0-19.076-0.232-38.159,0.056-57.226
		c0.382-25.242-6.578-45.871-20.954-60.161c-12.821-12.743-26.915-22.953-40.37-34.459c-8.178-6.994-16.241-14.256-24.28-21.562
		c-1.826-1.66-3.442-3.856-4.978-6.049c-10.634-15.188-10.316-27.932,1.878-40.732c9.906-10.399,20.473-19.56,30.768-29.226
		c54.883-51.529,87.311-123.221,97.193-214.654c6.217-57.52,1.474-114.15-9.898-169.669c-6.33-30.906-13.917-61.313-21.161-91.84
		c-5.597-23.586-9.254-47.451-8.35-72.554c0.524-14.551,0.095-29.169,0.095-43.756C458.214,0,460.215,0,462.216,0z"/>
	<path d="M342.16,841.89c0.702-19.605-5.122-36.067-14.676-48.927c-15.114-20.345-31.082-39.493-47.121-58.426
		c-27.532-32.501-53.088-67.371-70.989-111.801c-15.88-39.412-24.663-81.402-22.057-127.088
		c1.867-32.738,9.446-62.388,25.995-86.478c7.913-11.519,17.117-20.38,28.864-22.047c11.316-1.606,16.436,5.065,16.525,21.069
		c0.067,12.043-1.045,24.276,0.09,36.1c4.269,44.511,27.663,77.284,59.703,84.343c34.64,7.632,63.868-8.664,88.473-42.01
		c27.49-37.256,40.017-84.252,42.548-136.932c2.567-53.428-7.085-103.232-23.636-150.831
		C411.323,157,390.957,120.606,371.064,83.714c-7.932-14.71-15.154-30.245-22.028-45.982C344.079,26.383,341.625,13.591,342.16,0
		c2.001,0,4.002,0,6.003,0c-0.747,16.934,2.913,32.453,9.443,46.099c13.02,27.211,26.735,53.77,40.248,80.515
		c22.345,44.226,40.759,91.157,49.268,144.552c10.528,66.066,6.435,129.504-20.429,187.376
		c-18.699,40.284-44.724,66.991-79.236,74.34c-40.016,8.521-77-18.715-89.287-67.971c-3.443-13.803-4.66-28.886-5.873-43.549
		c-1.798-21.739-9.708-28.773-23.783-19.014c-16.403,11.372-25.744,31.459-31.71,54.709c-12.44,48.479-7.252,95.564,7.167,141.358
		c15.46,49.099,40.63,87.558,69.556,121.575c16.385,19.268,33.228,37.773,49.57,57.111c5.308,6.281,10.017,13.733,14.411,21.322
		c7.265,12.548,11.424,26.898,10.655,43.468C346.161,841.89,344.161,841.89,342.16,841.89z"/>
	<path fill="#FFFFFF" d="M528.246,841.89c0.001-45.719-0.232-91.442,0.097-137.157c0.174-24.106-1.331-47.995-7.681-70.215
		c-11.771-41.187-10.04-81.874-1.621-123.464c8.509-42.036,15.153-84.688,18.128-128.347c2.539-37.261,2.651-74.511,0.046-111.706
		c-2.481-35.413-5.821-70.707-8.337-106.116c-0.889-12.513-0.587-25.21-0.606-37.824c-0.063-42.353-0.025-84.707-0.026-127.06
		c2.001,0,4.002,0,6.003,0c-0.003,50.485-0.592,100.989,0.216,151.449c0.47,29.356,2.57,58.742,5.002,87.94
		c6.624,79.53,4.316,158.294-8.256,236.475c-3.38,21.018-6.205,42.23-8.83,63.464c-3.458,27.965-0.215,55.268,5.084,82.251
		c4.858,24.735,7.061,49.857,6.882,75.586c-0.337,48.237-0.097,96.482-0.097,144.724C532.248,841.89,530.247,841.89,528.246,841.89z
		"/>
</g>
<rect x="-15.077" y="-19.333" opacity="0.8" fill="#2FAC66" width="633.323" height="896.276"/>
</svg>
