<?xml version="1.0" encoding="utf-8"?>
<!-- Generator: Adobe Illustrator 17.1.0, SVG Export Plug-In . SVG Version: 6.00 Build 0)  -->
<!DOCTYPE svg PUBLIC "-//W3C//DTD SVG 1.1//EN" "http://www.w3.org/Graphics/SVG/1.1/DTD/svg11.dtd">
<svg version="1.1" id="Calque_1" xmlns="http://www.w3.org/2000/svg" xmlns:xlink="http://www.w3.org/1999/xlink" x="0px" y="0px"
	 viewBox="368.503 321.732 453.543 198.425" enable-background="new 368.503 321.732 453.543 198.425" xml:space="preserve">
<g>
	<path fill="#FFFFFF" d="M571.243,477.253c0.803-0.062,1.549-0.117,2.422-0.185C572.792,477.136,572.046,477.191,571.243,477.253
		L571.243,477.253z"/>
	<polygon fill="#FFFFFF" points="571.243,477.253 571.243,477.253 571.243,477.253 	"/>
	<path fill="#FFFFFF" d="M571.243,477.253c0.001-0.003,0.003-0.004,0.003-0.004S571.244,477.251,571.243,477.253L571.243,477.253z"
		/>
	<path fill="#FFFFFF" d="M609.495,424.671c-3.271-10.748-5.074-21.847-7.53-32.79c-0.385-1.715-0.737-3.438-1.2-5.129
		c-0.094-0.342-0.879-0.833-0.927-0.787c-0.608,0.552-1.426,1.115-1.617,1.829c-0.256,0.947-0.824,1.072-1.521,1.361
		c-0.422,0.174-0.863,0.647-1.003,1.081c-0.147,0.464,0.053,1.04,0.099,1.533c-0.442,0.197-0.807,0.359-1.238,0.548
		c-0.198-0.546-0.378-1.036-0.589-1.61c0.963-0.222,1.479-0.72,1.342-1.74c-0.035-0.259,0.143-0.622,0.34-0.82
		c0.719-0.738,0.406-1.511,0.069-2.224c-0.375-0.79-0.805-1.583-1.354-2.253c-2.115-2.562-4.236-5.12-6.448-7.592
		c-3.507-3.916-7.446-7.344-11.754-10.332c-0.444-0.306-0.945-0.533-1.417-0.797c-0.076,0.083-0.148,0.17-0.221,0.254
		c0.211,0.32,0.421,0.638,0.656,0.999c-1.234,0.29-0.422,0.773-0.06,1.084c1.095,0.946,2.237,1.837,3.365,2.751
		c-0.046,0.057-0.091,0.117-0.135,0.178c-1.201-0.818-2.401-1.634-3.593-2.446c-0.378,0.417-0.637,0.704-1.01,1.115
		c3.148,2.559,6.306,4.989,8.742,8.177c-2.551-2.212-5.09-4.421-8.18-6.309c0.042,0.547,0.062,0.81,0.083,1.072
		c-0.074,0.042-0.15,0.085-0.228,0.126c-0.432-0.596-0.863-1.19-1.294-1.788c-0.07,0.042-0.139,0.086-0.208,0.128
		c0,0.37,0,0.74,0,1.277c-0.605-0.509-1.201-0.902-1.662-1.415c-1.523-1.689-2.87-3.564-4.53-5.096
		c-1.389-1.282-3.216-1.801-5.189-1.672c-1.01,0.066-2.044-0.079-3.06-0.198c-2.375-0.277-4.402,0.437-6.182,2.02
		c-3.94,3.51-5.923,8.179-7.593,13.026c-0.442,1.285-0.191,1.574,1.134,1.77c0.202,0.028,0.395,0.117,0.61,0.185
		c0.247-0.513,0.458-0.954,0.578-1.202c0.54,0.409,1.066,0.806,1.643,1.245c0.237-0.441,0.397-0.731,0.553-1.024
		c0.142,0.059,0.282,0.117,0.423,0.174c4.599,16.691,9.203,33.379,13.804,50.07c-0.116,0.054-0.233,0.11-0.351,0.165
		c-4.685-15.398-8.995-30.919-14.464-46.167c-1.599,1.207-1.236,2.461-0.767,3.797c1.087,3.098,2.146,6.207,3.153,9.336
		c0.717,2.233,1.328,4.503,1.987,6.758c-0.049,0.014-0.097,0.028-0.146,0.043c-1.971-5.918-3.942-11.835-5.898-17.707
		c-1.492,0.31-1.47,1.137-1.155,2.108c0.155,0.471,0.279,0.953,0.432,1.427c2.164,6.734,4.438,13.432,6.467,20.208
		c2.49,8.322,4.77,16.71,7.142,25.07c0.28,0.994,0.565,1.989,0.828,2.988c0.25,0.952,0.474,1.909,0.711,2.865
		c-5.252-17.497-10.382-35.021-16.502-52.225c-0.307,0.336-0.464,0.866-0.564,0.857c-1.009-0.105-0.678,0.6-0.612,1.044
		c0.074,0.523,0.273,1.031,0.438,1.542c2.083,6.4,4.299,12.758,6.221,19.208c3.443,11.554,6.716,23.161,10.043,34.753
		c1.837,6.404,3.646,12.814,5.456,19.228c1.187,4.201,2.38,8.401,3.505,12.62c0.234,0.879,0.927,0.983,1.51,1.326
		c0.208-0.478,0.411-0.958,0.615-1.438l0,0c0.039-0.073,0.017-0.043,0.003-0.005c0,0-0.001,0.003-0.003,0.005
		c0.803-0.062,1.549-0.117,2.422-0.185c-0.011-0.023,0.05,0.158,0.156,0.303c0.218,0.303,0.457,0.585,0.69,0.878
		c0.07-0.379,0.164-0.751,0.208-1.132c0.07-0.633,0.109-1.267,0.163-1.9c1.133,1.624,0.733,3.663,1.872,5.154
		c0.117-0.017,0.235-0.038,0.357-0.055c0.031-0.552,0.065-1.103,0.105-1.757c0.645,0.318,1.168,0.638,1.733,0.847
		c2.694,0.991,5.388,1.83,7.911-0.444c1.479-1.332,2.573-2.915,3.173-4.826c0.48-1.522,0.921-3.054,1.391-4.618
		c1.051,0.837,1.051,0.837,2.262,0.101c0.194-0.117,0.384-0.251,0.594-0.334c0.874-0.349,1.268-0.863,1.169-1.926
		c-0.107-1.108-0.231-2.457,0.273-3.337c3.498-6.102,7.158-12.109,10.769-18.143c0.142-0.238,0.315-0.459,0.474-0.689
		c0.129,0.045,0.257,0.093,0.384,0.137c-0.121,0.525-0.124,1.118-0.384,1.56c-3.094,5.276-6.233,10.521-9.339,15.79
		c-0.227,0.384-0.885,0.869-0.089,1.331c0.647,0.375,1.168,0.427,1.66-0.411c2.898-4.947,5.855-9.858,8.806-14.776
		c0.126-0.21,0.316-0.406,0.518-0.544c0.291-0.194,0.618-0.331,1.021-0.54c0.075,0.065,0.34,0.29,0.613,0.523
		c1.161-1.148-1.07-2.487,0.118-3.413c0.95,0.526,1.765,0.979,2.708,1.499c0.539-1.698-0.932-2.993-0.812-4.552
		c0.591,1.172,1.179,2.345,1.77,3.513c0.121-0.046,0.24-0.094,0.36-0.139c0.112-0.26,0.222-0.52,0.29-0.681
		c0.331,0.051,0.634,0.096,0.935,0.143c0.035-0.29,0.127-0.593,0.09-0.875c-0.042-0.339-0.193-0.66-0.299-0.988
		C613.369,436.737,611.338,430.735,609.495,424.671z M572.946,377.392c2.142,8.733,4.288,17.467,6.434,26.201
		c-0.091,0.022-0.179,0.046-0.268,0.068c-2.17-8.724-4.337-17.45-6.505-26.174C572.718,377.456,572.832,377.423,572.946,377.392z
		 M569.977,374.516c0.233,0.565,0.543,1.111,0.693,1.699c3.024,11.976,6.071,23.949,9.028,35.945c2,8.105,3.874,16.245,5.798,24.37
		c0.342,1.438,0.68,2.876,0.862,4.352c-5.038-22.217-12.374-43.845-16.757-66.228C569.727,374.609,569.853,374.564,569.977,374.516z
		 M549.894,377.309c-0.075-0.352-0.317-0.785-0.197-1.043c0.663-1.431,1.413-2.82,2.133-4.221c0.084,0.042,0.166,0.088,0.249,0.132
		c-0.653,1.685-1.307,3.368-1.959,5.054C550.046,377.256,549.97,377.282,549.894,377.309z M553.371,387.557
		c-0.844-2.742-1.687-5.484-2.533-8.227c0.159-0.05,0.32-0.098,0.477-0.146c0.798,2.756,1.596,5.511,2.393,8.267
		C553.595,387.487,553.483,387.523,553.371,387.557z M554.722,392.218c2.115,3.262,18.131,67.536,18.548,74.464
		C566.872,441.913,562.015,416.756,554.722,392.218z M575.426,469.928c-3.967-17.917-7.909-35.839-12.049-53.715
		c-1.694-7.307-3.818-14.513-5.82-21.745c-1.522-5.496-3.139-10.966-4.771-16.432c-0.35-1.179-0.381-2.213,0.578-3.48
		c0.351,1.026,0.667,1.815,0.883,2.632c0.897,3.369,1.729,6.755,2.651,10.116c2.896,10.552,6.056,21.036,8.673,31.66
		c3.308,13.431,6.198,26.968,9.23,40.466c0.879,3.911,1.632,7.85,2.47,11.908C576.187,471.295,575.664,471.01,575.426,469.928z
		 M566.397,415.529c4.971,18.642,9.105,37.514,12.804,56.484c-0.134,0.03-0.269,0.062-0.403,0.091
		c-2.011-9.425-3.977-18.859-6.041-28.275C570.688,434.386,568.521,424.963,566.397,415.529z M577.111,476.82
		c-0.284-0.116-0.387-0.688-0.572-1.05c0.114-0.081,0.228-0.156,0.343-0.234c0.894,1.082,2.764,0.552,3.31,2.243
		C579.159,477.472,578.102,477.225,577.111,476.82z M580.682,472.12c-1.04-4.927-2.011-9.799-3.099-14.641
		c-3.81-16.969-7.523-33.96-11.547-50.875c-2.259-9.497-5.042-18.867-7.62-28.287c-0.535-1.957-1.173-3.888-1.829-5.807
		c-0.195-0.576-0.604-1.077-1.013-1.783c0.21-0.249,0.565-0.671,1.086-1.286c0.099,0.835,0.089,1.474,0.258,2.057
		c1.128,3.905,2.371,7.776,3.432,11.702c3.818,14.152,7.878,28.25,11.286,42.504c3.57,14.934,6.499,30.023,9.701,45.047
		C581.454,471.297,581.654,471.92,580.682,472.12z M569.126,406.939c5.435,20.746,9.934,41.77,13.656,62.966
		C578.225,448.89,573.667,427.872,569.126,406.939z M587.58,459.662c-0.922,2.463-1.925,4.897-2.906,7.336
		c-0.081,0.2-0.225,0.375-0.446,0.736c-3.318-15.65-6.523-31.121-9.895-46.559c-3.381-15.49-7.2-30.871-11.841-46.348
		c1.742,1.535,2.699,3.834,5.354,3.347c0.059-0.268,0.121-0.554,0.215-0.99c0.146,0.333,0.263,0.525,0.312,0.732
		c2.618,10.548,5.214,21.104,7.85,31.651c2.487,9.954,5.107,19.879,7.499,29.857c1.472,6.146,2.635,12.367,3.906,18.561
		C587.739,458.523,587.765,459.165,587.58,459.662z M602.847,444.201c-2.65,4.558-5.346,9.09-8.034,13.627
		c-0.031,0.053-0.128,0.064-0.292,0.142c-0.878-4.471-1.614-8.897-2.63-13.259c-2.092-8.986-4.264-17.955-6.524-26.898
		c-2.917-11.528-5.971-23.022-8.924-34.54c-0.87-3.393-1.592-6.826-2.383-10.241c0.08-0.057,0.16-0.115,0.242-0.171
		c1.089,0.855,2.235,1.645,3.255,2.574c5.495,5.007,10.396,10.525,14.24,16.956c0.407,0.681,1.042,1.22,1.522,1.863
		c1.365,1.826,1.121,4.082,1.513,6.154c1.68,8.876,3.234,17.773,4.927,26.645c1.004,5.264,2.195,10.491,3.265,15.741
		C603.116,443.236,603.068,443.822,602.847,444.201z"/>
	<path fill="#FFFFFF" d="M646.784,361.473c-0.25,0.244-0.59,0.445-0.732,0.745c-0.375,0.77-0.664,1.585-0.987,2.38
		c-0.201-0.371-0.154-0.706-0.213-1.021c-0.072-0.414-0.23-0.811-0.349-1.216c-0.309,0.323-0.736,0.592-0.905,0.977
		c-0.577,1.315-1.064,2.672-1.586,4.012c-0.209-0.669-0.158-1.299-0.229-1.914c-0.041-0.339-0.286-0.652-0.438-0.978
		c-0.259,0.233-0.601,0.418-0.759,0.706c-0.315,0.564-0.53,1.182-0.782,1.779c-0.19-0.689-0.156-1.302-0.209-1.91
		c-0.018-0.21-0.228-0.54-0.393-0.568c-0.188-0.033-0.513,0.156-0.619,0.339c-0.247,0.428-0.4,0.911-0.587,1.372
		c-0.591,1.462-1.177,2.925-1.771,4.388c-0.221-0.75-0.185-1.43-0.238-2.105c-0.027-0.338-0.218-0.663-0.333-0.995
		c-0.282,0.257-0.668,0.461-0.824,0.779c-0.424,0.852-0.75,1.755-1.118,2.637c-0.211-0.571-0.161-1.073-0.229-1.555
		c-0.044-0.327-0.255-0.631-0.393-0.945c-0.258,0.241-0.63,0.428-0.755,0.723c-1.046,2.469-2.053,4.953-3.057,7.438
		c-0.111,0.275-0.17,0.587-0.183,0.887c-0.075,1.76-0.116,3.521-0.193,5.28c-0.231,5.589-0.419,11.179-0.731,16.762
		c-0.276,4.939-0.768,9.865-1.029,14.805c-0.147,2.829-0.056,5.673-0.016,8.51c0.021,1.503,0.617,1.925,1.832,1.305
		c0.073,0.88,0.092,1.723,0.24,2.542c0.061,0.347,0.396,0.643,0.605,0.961c0.218-0.301,0.525-0.575,0.631-0.913
		c0.182-0.566,0.238-1.174,0.345-1.767c0.287,0.688,0.289,1.406,0.435,2.094c0.082,0.377,0.402,0.704,0.616,1.055
		c0.226-0.352,0.582-0.678,0.658-1.062c0.302-1.532,0.479-3.09,0.784-4.623c0.091-0.457,0.456-0.857,0.697-1.288
		c0.129,0.049,0.255,0.092,0.384,0.138c0.109,0.713,0.171,1.44,0.346,2.133c0.111,0.442,0.391,0.839,0.594,1.255
		c0.295-0.304,0.589-0.607,0.922-0.947c0.031,0.205,0.031,0.435,0.104,0.636c0.216,0.6,0.461,1.193,0.696,1.79
		c0.252-0.587,0.581-1.154,0.734-1.766c0.266-1.082,0.427-2.19,0.631-3.29c0.115,0.006,0.227,0.007,0.344,0.013
		c0.081,0.456,0.181,0.915,0.238,1.377c0.082,0.643,0.087,1.3,0.221,1.93c0.048,0.243,0.358,0.428,0.552,0.64
		c0.172-0.223,0.436-0.421,0.5-0.674c0.22-0.857,0.373-1.735,0.55-2.603c0.198,0.746,0.174,1.481,0.305,2.19
		c0.06,0.332,0.418,0.612,0.64,0.914c0.195-0.28,0.482-0.54,0.568-0.853c0.182-0.66,0.259-1.348,0.375-2.026
		c0.641-3.725,1.49-7.428,1.872-11.179c0.573-5.641,0.833-11.314,1.196-16.978c0.385-6.003,0.78-12.012,1.07-18.024
		c0.218-4.44,0.288-8.892,0.39-13.341C647.207,362.108,646.929,361.788,646.784,361.473z"/>
	<path fill="#FFFFFF" d="M645.156,461.128c0.002,0.003,0.003,0.007,0.004,0.014C645.159,461.135,645.158,461.13,645.156,461.128
		L645.156,461.128z"/>
	<path fill="#FFFFFF" d="M645.156,461.125v0.003l0,0l0,0C645.156,461.125,645.156,461.125,645.156,461.125z"/>
	<path fill="#FFFFFF" d="M645.967,453.304c-0.705-4.815-0.323-9.827-2.511-14.376c-0.187-0.387-0.578-1.066-0.713-1.028
		c-0.536,0.15-1.034,0.502-1.502,0.841c-0.343,0.248-0.628,0.583-0.918,0.898c-0.348,0.384-0.775,0.741-0.982,1.197
		c-0.193,0.424-0.142,0.962-0.198,1.449c-0.055-0.099-0.109-0.197-0.164-0.294c-1.119,0.5-2.631,0.713-3.254,1.579
		c-0.697,0.969-0.587,2.528-0.823,3.784c-0.814-0.941-1.68-0.789-2.318,0.441c-0.127,0.243-0.393,0.541-0.628,0.574
		c-0.974,0.133-1.183,0.845-1.302,1.62c-0.148,0.947-0.382,1.908-0.329,2.847c0.258,4.66,0.571,9.314,0.927,13.966
		c0.068,0.896,0.384,1.776,0.642,2.649c0.057,0.195,0.367,0.464,0.531,0.445c0.188-0.023,0.421-0.3,0.5-0.517
		c0.143-0.387,0.185-0.815,0.31-1.433c0.362,1.065,0.635,1.871,0.907,2.676c0.128,0.02,0.255,0.035,0.38,0.052
		c0.67-1.461,1.216-2.973,1.487-4.577c0.311,0.557,0.622,1.112,0.933,1.669c0.115-0.022,0.226-0.043,0.339-0.065
		c0.241-0.596,0.482-1.191,0.742-1.841c0.223,0.459,0.385,0.844,0.592,1.203c0.18,0.32,0.412,0.611,0.619,0.912
		c0.203-0.379,0.543-0.746,0.573-1.139c0.055-0.745,0.201-1.322,1.054-1.546c0.239,0.411,0.464,0.804,0.87,1.513
		c0.3-1.008,0.501-1.684,0.764-2.573c0.232,0.626,0.361,1.059,0.553,1.457c0.101,0.214,0.307,0.504,0.483,0.517
		c0.177,0.014,0.499-0.244,0.546-0.435c0.384-1.542,0.724-3.092,1.076-4.64c-0.047-0.147-0.091-0.293-0.139-0.438
		c0.072,0.031,0.146,0.06,0.219,0.09c-0.026,0.116-0.055,0.23-0.081,0.348c0.002,0.003,0.003,0.007,0.004,0.013
		c0.168,0.529,0.333,1.059,0.543,1.57c0.081,0.199,0.404,0.445,0.573,0.418c0.18-0.035,0.419-0.358,0.437-0.572
		c0.06-0.681,0.094-1.377,0.028-2.061C646.513,458.098,646.316,455.688,645.967,453.304z"/>
	<path fill="#FFFFFF" d="M645.156,461.128c0.026-0.118,0.054-0.232,0.081-0.348c-0.026,0.116-0.055,0.229-0.081,0.345
		C645.156,461.125,645.156,461.125,645.156,461.128z"/>
</g>
</svg>
