<?xml version="1.0" encoding="utf-8"?>
<!-- Generator: Adobe Illustrator 17.1.0, SVG Export Plug-In . SVG Version: 6.00 Build 0)  -->
<!DOCTYPE svg PUBLIC "-//W3C//DTD SVG 1.1//EN" "http://www.w3.org/Graphics/SVG/1.1/DTD/svg11.dtd">
<svg version="1.1" id="Calque_1" xmlns="http://www.w3.org/2000/svg" xmlns:xlink="http://www.w3.org/1999/xlink" x="0px" y="0px"
	 viewBox="368.503 321.732 453.543 198.425" enable-background="new 368.503 321.732 453.543 198.425" xml:space="preserve">
<g>
	<path fill="#FFFFFF" d="M639.894,440.746c2.039-5.727,2.979-11.904,2.871-18.885c-0.125-8.247-1.517-16.53-4.253-25.324
		c-1.987-6.384-4.871-11.296-8.811-15.011c-1.807-1.703-3.63-3.247-5.476-4.634l-0.678,1.223c0.891,0.802,1.738,1.715,2.529,2.759
		l3.128,4.13l-5.205-3.298c-5.07-3.218-9.86-6.256-15.569-7.577l0.332-1.843c2.57,0.336,5.286,0.831,7.92,1.789l-0.159-0.098
		l0.867-1.447c-6.775-3.578-13.875-5.212-21.521-4.94c-7.427,0.258-14.19,2.53-20.676,6.945l-0.42,0.288
		c-1.005,0.693-2.046,1.409-3.225,1.849c-0.915,0.342-1.865,0.491-2.783,0.634c-0.513,0.081-1.026,0.159-1.529,0.275
		c-3.643,0.852-6.895,2.706-9.663,5.508c-3.94,3.984-6.387,9.279-7.278,15.736c-0.915,6.687-1.523,13.544-2.112,20.174l-0.256,2.875
		c-0.388,4.353-0.026,9.061,1.135,14.817c0.925,4.586,2.198,8.507,3.889,11.987c3.15,6.482,6.777,10.806,11.423,13.605
		c2.93,1.764,6.108,3.262,9.182,4.711c0.94,0.444,1.883,0.888,2.82,1.34c0.884,0.422,1.704,1.031,1.716,2.603
		c0.019,2.637,0.088,5.273,0.154,7.909c0.039,1.566,0.081,3.131,0.11,4.697l0.019,0.957c0.039,1.665,0.078,3.388-0.022,5.09
		c-0.11,1.969-0.301,3.935-0.493,5.902l-0.166,1.724l0.259,0.708l0.008,1.366c0.01,1.134,0.017,2.268-0.027,3.398
		c-0.008,0.178,0.008,0.264,0.017,0.296c0.017,0,0.088,0.03,0.232,0.06l0.755,0.154c1.365,0.277,2.776,0.564,4.138,1.01
		c4.104,1.348,8.443,1.604,14.087,0.806c0.898-0.128,1.799-0.241,2.703-0.355l3.745-0.481c2.944-0.378,5.888-0.755,8.828-1.172
		c0.066-0.938,0.218-2.048,0.184-3.115c-0.261-7.642-0.562-15.286-0.888-22.93c-0.008-0.065-0.12-0.318-0.405-0.611
		c-0.713-0.735-1.021-1.831-0.798-2.862c0.203-0.936,0.796-1.66,1.628-1.986c3.737-1.469,7.334-3.561,10.681-6.219
		C630.543,459.171,636.281,450.915,639.894,440.746z M617.221,379.786c1.845,0.436,3.938,0.929,5.402,2.719l0.427,0.52l-1.12,1.754
		l-10.489-6.354L617.221,379.786z M579.147,467.531c-2.896,0-5.022-1.734-6.733-3.129l-5.142-4.195l16.246,6.932l-3.65,0.357
		C579.623,467.52,579.384,467.531,579.147,467.531z M601.725,497.865l-5.169,0.004c-1.875,0-3.719-0.007-5.561-0.036
		c-0.825-0.02-1.521-0.913-1.638-1.52c-0.142-0.727-0.217-1.465-0.296-2.243l-0.207-1.885l12.871-1.655V497.865L601.725,497.865z
		 M589.076,487.596c0.408-0.559,1.055-0.636,1.878-0.733c2.661-0.311,5.217-0.612,7.688-1.074c1.931-0.365,2.776,0.459,2.947,2.383
		l0.078,0.891l-12.515,1.714l-0.171-0.869C588.786,488.91,588.644,488.188,589.076,487.596z M603.336,482.663l0.151,0.928
		l-0.913,0.245l-13.34,2.158l-0.342-2.311l14.294-2.121l0.125,0.946 M606.459,495.892c-0.005,0.456-0.271,0.78-0.427,0.974
		l-0.588,0.923l-0.904-0.628c-0.373-0.261-0.789-0.548-0.869-1.087c-0.203-1.275-0.371-2.566-0.549-3.905l-0.262-1.977l3.614-0.57
		l0.003,2.44C606.478,493.371,606.481,494.632,606.459,495.892z M606.566,488.452h-3.245l-0.146-0.76
		c-0.166-0.857-0.32-1.667,0.183-2.276c0.544-0.659,1.263-0.604,2.315-0.556l0.893,0.042L606.566,488.452L606.566,488.452z
		 M607.309,480.15c-0.569,0.013-1.119,0.034-1.653,0.055c-0.828,0.033-1.626,0.064-2.414,0.064l-0.759-0.009
		c-4.495-0.126-8.962,0.653-13.303,1.411c-1.016,0.177-2.029,0.354-3.044,0.522c-0.533,0.087-1.067,0.144-1.665,0.207l-1.975,0.225
		v-11.176l4.716,0.855c2.629,0.481,5.3,0.97,7.981,1.412c3.611,0.591,7.876,0.099,11.589-0.549l1.028-0.178l0.479,7.138
		L607.309,480.15z M597.348,459.84c-6.997,1.166-12.915,0.949-18.279-0.648l-0.442,1.125c4.595,1.746,9.441,3.018,14.627,3.146
		l0.034,1.874c-1.351,0.082-2.693,0.13-4.021,0.13h-0.003c-5.667,0-13.975-0.789-20.664-7.612l-3.781-3.858l4.86,2.358
		c0.74,0.359,1.487,0.717,2.239,1.072l0.134-0.337c0.051-0.131,0.103-0.26,0.164-0.387l0.188-0.4
		c-0.193-0.112-0.383-0.227-0.573-0.344c-5.659-3.466-9.99-8.341-13.242-14.905c-2.868-5.79-4.196-12.338-4.182-20.605
		c0.005-1.974,1.783-2.46,2.82-1.569c0.295,0.084,0.452,0.048,0.617,0.01c0.376-0.091,0.932-0.192,1.414-0.068
		c0,0.008,0,0.011,0,0.011c0.002,0,0.054-0.195,0.091-0.329c0.088-0.336,0.19-0.717,0.43-1.056c0.073-0.1,0.137-0.199,0.244-0.368
		l1.23-1.903l0.901,2.129c0.159,0.342,0.31,0.665,0.374,1.041c0.003,0.013,0.005,0.025,0.008,0.036
		c0.427-0.152,0.988-0.145,1.54-0.085c0.156,0.016,0.307,0.033,0.447,0.033h0.339l0.261,0.217c0.359,0.3,0.486,0.712,0.542,1.066
		l1.365-0.79l-0.195,2.854c-0.048,0.785-0.092,1.549-0.183,2.311c-0.073,0.63,0.134,0.676,0.334,0.721
		c0.346,0.078,0.686,0.203,1.023,0.329c0.415,0.156,0.806,0.304,1.152,0.304c0.164,0,0.42-0.027,0.766-0.263
		c0.65-0.425,1.599-0.214,2.457,0.06c0.241,0.078,0.476,0.156,0.681,0.197l0.374,0.071l0.217,0.311c0.52,0.74,0.362,1.6,0.245,2.228
		c-0.044,0.238-0.12,0.634-0.076,0.747c0.005,0,0.149,0.12,0.676,0.179l1.384,0.156l-0.815,1.51
		c-0.122,0.243-0.237,0.464-0.378,0.667l-5.073,7.172c-0.164,0.236-0.293,0.451-0.391,0.651l1.262,0.065l-0.566,2.641l3.071,0.625
		l-0.308,1.67c0.003,0.001,0.003,0.003,0.005,0.004c0.246,0.125,0.461,0.233,0.571,0.249c0.406,0.059,0.843-0.008,0.859-0.018
		c1.099-0.582,2.266-0.431,3.094,0.4c0.489,0.482,0.459,1.207,0.44,1.737l-0.008,0.247c-0.003,0.395-0.032,0.789-0.061,1.181
		l-0.044,0.678l0.293,0.035c0.906,0.207,1.27,0.895,1.084,2.043l0.513-0.116l0.366,0.431c0.276,0.323,0.43,0.379,0.452,0.385
		c0-0.01,0.203-0.116,0.51-0.674l0.957-1.725l1.123,2.821c0.259,0.667,0.496,1.282,0.769,1.88c0.176,0.202,1.294,0.67,2.004,0.703
		c0.794-1.671,0.708-2.302,0.63-2.502c-1.433-3.645-1.233-7.309,0.606-11.201c0.076-0.164,0.129-0.363,0.173-0.589l-1.638,0.158
		l1.392-3.712l-0.957,0.083l-0.151-1.001l-1.594,0.181l0.484-1.478l1.972-4.408l-5.166,0.922l0.801-1.656
		c0.095-0.193,0.171-0.422,0.251-0.654c0.259-0.741,0.552-1.581,1.311-1.967c0.857-0.435,1.138-1.194,1.314-2.274
		c0.677-4.117,1.25-8.326,1.802-12.397l0.435-3.163l-1.114,0.081l-0.334-2.898c-0.022-0.181-0.029-0.383-0.034-0.587
		c-0.003-0.104-0.008-0.254-0.017-0.367c-1.032-0.762-1.573-1.812-2.053-2.747c-0.19-0.37-0.379-0.738-0.599-1.08
		c-0.62-0.967-1.01-1.253-1.743-1.277c-1.956-0.056-3.63-0.069-4.924,1.14c-0.481,0.451-1.008,0.847-1.57,1.267l-1.901,1.469
		l-0.517-2.112c-1.338,0.844-1.67,2.355-2.044,4.061l-0.31,1.401l-3.305-1.122l-0.093-0.607c-0.217,0.018-0.415,0.047-0.522,0.105
		c-1.187,0.646-2.361,1.412-3.494,2.154l-0.396,0.258c-0.229,1.562-1.106,2.709-1.878,3.721l-0.241,0.318
		c-0.312,0.418-0.767,1.03-1.552,1.03c-0.345,0-0.684-0.122-1.009-0.363c-0.066,0.013-0.134,0.03-0.205,0.046
		c-0.203,0.045-0.413,0.091-0.606,0.112l-1.003,0.109l-0.036-1.007c-0.093-2.559-0.19-5.204,1.697-7.865
		c3.609-5.096,8.181-8.525,12.177-11.205c2.823-1.893,6.018-2.775,10.057-2.775c1.12,0,2.251,0.065,3.393,0.16
		c0.673,0.056,1.313,0.241,1.928,0.465l-0.493-0.422l0.589-1.433c-0.489-0.312-0.984-0.645-1.44-1.049l-0.496-0.438l0.76-1.839
		l1.709,0.63l-1.904-2.07l3.74,1.188l-0.222-0.332l1.206-0.366c8.132-2.467,16.421-2.744,25.95-0.837l1.072,0.214l-2.991,8.209
		l-1.773-0.378l-0.176-0.652l-0.342-2.21l-2.995,3.239l-0.896-1.595l-0.457-0.008c-0.193,0-0.373,0.007-0.555,0.03l-0.959,1.152
		c-1.118,1.377-2.239,2.753-3.284,4.187c-1.023,1.398-2.051,2.949-3.335,5.033c-0.2,0.326-0.324,0.824-0.327,1.296
		c-0.003,0.156,0,0.279,0.003,0.376c0.161-0.034,0.323-0.076,0.401-0.095l0.942-0.242l0.205,0.951
		c0.027,0.123,0.047,0.253,0.063,0.382c0.013,0.093,0.032,0.233,0.049,0.279c0.031,0.04,0.093,0.104,0.161,0.169
		c0.296-0.11,0.586-0.178,0.857-0.242c0.796-0.187,1.069-0.289,1.253-0.796c0.327-0.909,0.981-1.658,1.56-2.318l0.401-0.465
		c0.325-0.391,0.794-0.491,1.104-0.557l0.91-0.302l0.498,0.864c0.911,2.958-0.632,4.919-2.078,6.298
		c-1.102,1.056-1.828,1.987-1.782,3.094l0.017,0.448l-0.337,0.296c-0.144,0.125-0.301,0.236-0.447,0.339
		c-0.042,0.029-0.081,0.055-0.12,0.082l-0.053,0.344c-0.44,2.818-0.896,5.732-1.189,8.601c-0.039,0.376,0.137,0.876,0.323,1.405
		c0.105,0.298,0.208,0.596,0.286,0.89c0.042,0.039,0.146,0.23,0.173,0.493c0.027,0.174,0.039,0.443,0.049,0.708
		c0.003,0.078,0.003,0.154,0.005,0.227c0.612,0.184,1.309,0.344,1.901,0.236c1.687-0.298,3.625-0.679,5.32-1.438
		c1.169-0.523,2.28-1.28,3.455-2.084c0.547-0.374,1.108-0.757,1.696-1.132l0.498-0.317l0.5,0.312
		c0.449,0.281,0.51,0.741,0.508,1.066c0.489-0.053,0.857,0.011,1.32,0.089c0.188,0.032,0.381,0.065,0.576,0.083l0.982,0.094
		l-0.024,0.177c0.102-0.441,0.168-0.897,0.234-1.331c0.188-1.243,0.364-2.416,1.22-3.07c1.167-0.895,1.787-2.094,2.447-3.363
		l0.242-0.466c0.229-0.431,0.371-0.97,0.52-1.539c0.078-0.292,0.156-0.59,0.249-0.892l0.303-0.985l0.952,0.395
		c0.156,0.065,0.249,0.074,0.29,0.074c0.142,0,0.325-0.228,0.591-0.576c0.262-0.343,0.559-0.732,0.996-1.01
		c0.293-0.185,0.594-0.258,0.837-0.315c0.088-0.021,0.176-0.039,0.259-0.072l0.381-0.147c0.362-0.137,0.701-0.264,0.938-0.439
		c0.205-0.151,0.408-0.403,0.642-0.694c0.136-0.169,0.278-0.346,0.437-0.525l0.698-0.795l0.998,1.108
		c0.156,0.166,0.291,0.311,0.41,0.46c0.3-0.352,0.793-0.572,1.181-0.572l0.476,0.11c0.489,0.233,0.901,0.775,0.984,1.309
		c0.078,0.442,0.166,0.9,0.257,1.358c0.259,1.348,0.53,2.743,0.591,4.159l0.014,0.332c0.203,4.645,0.413,9.447-1.543,14.03
		c-0.745,1.746-1.516,3.478-2.317,5.277l-2.151,4.863l-0.84-2.027c-0.872-2.102-1.086-4.088-0.703-6.438
		c0.027-0.161,0.042-0.281,0.047-0.369l-0.017-0.001c-0.171,0-0.373,0.018-0.61,0.044l-1.203,0.138l0.368-2.663
		c0.127-0.94,0.252-1.865,0.393-2.789c0.047-0.296,0.12-0.592,0.195-0.887c0.07-0.268,0.142-0.532,0.171-0.805
		c0.004-0.048,0.009-0.092,0.014-0.132c-0.156,0.026-0.3,0.056-0.371,0.073l-1.338,0.28l0.266-1.66
		c0.036-0.26,0.071-0.495,0.132-0.721c0.061-0.246,0.137-0.504,0.213-0.762c0.085-0.29,0.173-0.579,0.24-0.874
		c-0.689,0.004-1.646,0.264-1.863,0.421l-0.146,0.164c-0.677,0.735-1.445,1.568-2.825,1.833c-0.188,0.036-0.576,0.428-0.888,0.743
		c-0.266,0.271-0.559,0.565-0.893,0.851l-2.243,1.91l0.3-1.173c-0.354,0.626-0.716,1.249-1.076,1.871
		c-0.862,1.483-1.753,3.016-2.481,4.573c-0.245,0.513-0.203,1.319-0.161,2.098l0.017,0.346c0.047,0.036,0.1,0.074,0.156,0.116
		c0.17,0.129,0.362,0.275,0.547,0.443l0.307,0.279v5.513l0.998-0.539l0.249,1.449c0.661-0.655,1.274-1.254,1.917-1.824
		c0.391-0.344,0.813-0.581,1.259-0.832c0.19-0.108,0.393-0.22,0.601-0.348l1.323-0.815l0.156,2.384l1.456-0.806l0.449,2.676
		c0.25,1.459,0.491,2.887,0.686,4.322c0.092,0.706-0.366,1.372-0.645,1.708C615.724,453.152,607.199,458.202,597.348,459.84z"/>
	<path fill="#FFFFFF" d="M553.129,352.098l0.994,2.862c1.035,3.031,2.103,6.163,3.286,9.18c0.559,1.42,1.397,2.8,2.205,4.135
		l0.647,1.073c-0.003-0.007,0-0.009,0.008-0.009c0.039,0,0.203,0.07,0.445,0.12l0.026,0.001c0.039,0,0.081-0.004,0.12-0.008
		l1.253-0.529l-0.628-3.431l2.932,0.195l-0.12-2.324l1.401,0.526l0.359-0.927l0.437,0.068c-0.72-4.279-6.487-15.767-9.688-19.555
		l0.048,0.63l-0.75-0.12l1.258,3.837l-2.458-1.28c-0.508,0.357-0.405,0.704-0.042,1.67l0.19,0.527
		c0.112,0.34,0.215,0.681,0.33,1.074l1.05,3.456l-2.749-2.081c-0.11,0.246-0.286,0.457-0.583,0.586
		C552.999,351.777,553.078,351.97,553.129,352.098z"/>
	<path fill="#FFFFFF" d="M585.27,355.258l0.464-1.306l0.727,1.121l1.253-6.212l1.385,5.277c0.166-0.054,0.373-0.067,0.549-0.046
		l1.526-11.228l1.208,4.521c0.217,0.813,0.276,1.589,0.334,2.337c0.022,0.3,0.044,0.591,0.076,0.871l0.494-1.65l0.701,1.491
		c0.686-4.447,1.194-9.098,0.771-13.776l-1.306-0.234l-0.977,5.298l-1.28-2.089c-0.156-0.253-0.302-0.508-0.449-0.76
		c-0.327-0.569-0.64-1.107-1.009-1.552c0.015,0.029,0,0.041-0.034,0.046c-0.454,0.584-1.157,0.746-1.982,0.634
		c-0.098-0.013-0.198-0.03-0.298-0.032l-0.652-0.013c-0.369,0-0.471,0.027-0.494,0.035c0.022,0.045-0.078,0.58-0.178,1.099
		l-0.108,0.619c-0.049,0.302-0.098,0.603-0.161,0.901C584.843,345.262,584.655,350.186,585.27,355.258z"/>
	<path fill="#FFFFFF" d="M615.558,360.46c0.661,0.109,1.203,0.141,1.729,0.078c-0.127,0.035,0.027-0.15,0.105-0.245
		c0.115-0.142,0.227-0.272,0.33-0.371l0.698-0.665l1.853,2.059c0.049-0.039,0.088-0.077,0.117-0.113
		c0.341-0.438,0.695-0.865,1.049-1.29c0.957-1.147,1.858-2.233,2.453-3.451c0.305-0.63,0.728-1.185,1.138-1.723
		c0.962-1.266,1.529-2.107,1.077-3.379l-0.076-0.248c-0.159,0.059-0.322,0.118-0.493,0.167l-0.773,0.222l-0.337-0.731
		c-0.337-0.733-0.889-1.074-1.155-1.074C620.329,353.609,617.628,357.469,615.558,360.46z"/>
	<path fill="#FFFFFF" d="M624.293,360.492l1.538-0.847l-0.097,0.805c1.298-1.865,2.583-3.75,3.881-5.655l1.167-1.709
		c-0.193-0.164-0.357-0.312-0.508-0.505c-0.088-0.115-0.246-0.317-0.385-0.483c-0.092,0.115-0.207,0.266-0.344,0.453
		c-1.909,2.611-3.542,4.989-4.995,7.267C624.435,359.997,624.357,360.229,624.293,360.492z"/>
</g>
</svg>
