<?xml version="1.0" encoding="utf-8"?>
<!-- Generator: Adobe Illustrator 17.1.0, SVG Export Plug-In . SVG Version: 6.00 Build 0)  -->
<!DOCTYPE svg PUBLIC "-//W3C//DTD SVG 1.1//EN" "http://www.w3.org/Graphics/SVG/1.1/DTD/svg11.dtd">
<svg version="1.1" id="Calque_1" xmlns="http://www.w3.org/2000/svg" xmlns:xlink="http://www.w3.org/1999/xlink" x="0px" y="0px"
	 viewBox="368.503 321.732 453.543 198.425" enable-background="new 368.503 321.732 453.543 198.425" xml:space="preserve">
<g>
	<path fill="#FFFFFF" d="M578.384,358.864c0.088,0.155,0.176,0.31,0.266,0.466c0.008-0.083,0.022-0.17,0.032-0.254
		c0.31,0.017,0.667,0.138,0.918,0.023c0.263-0.12,0.564-0.449,0.596-0.717c0.039-0.318-0.195-0.669-0.325-1.06
		c0.534-0.236,1.003-0.449,1.272-0.568c0.17-0.783,0.327-1.498,0.556-2.54c0.635,0.54,1.153,0.859,1.509,1.311
		c2.256,2.862,4.482,5.75,6.706,8.64c5.193,6.736,9.361,14.13,13.462,21.56c0.405,0.735,0.813,0.928,1.604,0.796
		c2.671-0.44,5.357-0.825,8.039-1.199c0.608-0.085,1.238-0.102,1.849-0.046c0.756,0.071,1.216,0.529,1.411,1.303
		c0.307,1.245,0.745,2.461,0.991,3.717c0.293,1.464-0.249,2.737-1.255,3.787c-1.582,1.649-3.413,2.96-5.459,3.96
		c-0.293,0.141-0.574,0.298-0.95,0.495c2.766,6.713,5.31,13.465,6.414,20.768c3.027-1.382,5.987-2.73,9.131-4.163
		c0.049,0.827,0.083,1.422,0.125,2.068c0.109,0.008,0.349,0.023,0.818,0.052c-0.388,0.841-0.722,1.56-1.101,2.38
		c0.664-0.223,1.292-0.434,1.917-0.646c0.332,1.056-0.024,1.776-0.583,2.503c-0.21,0.275-0.285,0.828-0.166,1.158
		c1.897,5.195,3.801,10.388,5.774,15.555c1.685,4.424,3.039,8.916,3.222,13.691c0.059,1.517,0.02,1.624-1.47,1.497
		c-2.229-0.185-4.174,0.603-6.074,1.571c-2.478,1.258-4.917,2.594-7.358,3.928c-0.286,0.156-0.518,0.478-0.694,0.773
		c-1.186,1.967-2.326,3.962-3.53,5.92c-0.474,0.776-0.481,1.5,0.232,2.222c-0.017-0.272-0.044-0.447-0.042-0.618
		c0.005-0.139,0.042-0.279,0.097-0.629c0.322,0.574,0.144,1.483,1.114,1.026c-0.071-0.329-0.147-0.677-0.225-1.026
		c0.039-0.014,0.073-0.03,0.112-0.043c0.232,0.372,0.464,0.745,0.696,1.118c0.07-0.042,0.141-0.083,0.212-0.124
		c-0.112-0.518-0.224-1.035-0.371-1.714c0.249,0.148,0.363,0.173,0.385,0.234c0.608,1.599,1.352,1.936,2.871,1.208
		c0.528-0.255,0.772-0.109,0.962,0.389c0.388,1.007,0.761,2.021,1.201,3.004c0.515,1.159,1.096,2.29,1.67,3.473
		c0.176-0.156,0.298-0.263,0.43-0.38c0.059,0.096,0.112,0.146,0.12,0.202c0.085,0.583,0.036,1.223,0.266,1.741
		c0.698,1.595,1.523,3.132,2.241,4.718c0.178,0.396,0.635,0.999-0.244,1.247c0.288,1.397-1.116,1.77-1.651,2.689
		c-0.964-0.164-0.964-0.164-1.336,1.376c-0.368,0.137-0.691,0.255-1.233,0.457c-0.276-0.643-0.547-1.429-0.932-2.152
		c-1.548-2.882-2.925-5.893-4.79-8.555c-0.987-1.411-1.499-2.921-2.126-4.454c0.159,0.263,0.319,0.526,0.534,0.883
		c0.442-1.934-0.234-3.531-0.932-5.132c-1.44,0.827-1.568,1.293-0.966,2.757c1.269,3.097,2.49,6.214,3.73,9.32
		c-0.112,0.049-0.225,0.095-0.337,0.141c-1.392-3.504-2.784-7.008-4.239-10.679c-0.578,0.485-1.089,0.87-1.557,1.307
		c-1.948,1.828-4.062,3.293-6.831,3.526c-0.849,0.07-1.025,0.883-0.332,1.764c0.044-0.469,0.078-0.832,0.13-1.389
		c0.139,0.471,0.224,0.767,0.307,1.06c0.091,0.03,0.178,0.06,0.266,0.088c0.176-0.368,0.352-0.738,0.527-1.107
		c0.066-0.004,0.132-0.009,0.195-0.013c0.298,3.371,0.594,6.74,0.894,10.11c0.024,0.006,0.053,0.009,0.083,0.014
		c0-1.082,0-2.158,0-3.237c0.095-0.006,0.195-0.01,0.29-0.014c0.081,1.789,0.148,3.58,0.247,5.371
		c0.058,1.069,0.151,2.139,0.259,3.206c0.147,1.457,0.029,1.582-1.274,2.251c-0.352,0.181-0.496,0.772-0.772,1.239
		c-0.888-0.785-1.01,0.687-1.582,0.636c-0.932-0.086-1.187,0.505-1.528,1.432c-0.762-1.53-0.076-2.939-0.41-4.221
		c-0.083-0.001-0.171-0.003-0.259-0.004c0,1.319,0,2.637,0,3.954c-0.108,0.004-0.22,0.009-0.327,0.013
		c-0.058-0.19-0.127-0.381-0.176-0.573c-0.02-0.093-0.013-0.199,0.004-0.296c0.494-2.779-0.41-5.367-1.057-7.99
		c-0.095-0.38-0.212-0.801-0.139-1.164c0.258-1.222,0.022-2.344-0.464-3.456c-0.1-0.224-0.064-0.512-0.1-0.875
		c0.215,0.111,0.354,0.182,0.645,0.333c-0.086-0.62-0.156-1.144-0.261-1.891c0.318,0.465,0.517,0.763,0.879,1.296
		c0.286-1.857,0.533-3.461,0.776-5.065c0.071,0.006,0.142,0.009,0.21,0.014c0.044,0.379,0.091,0.758,0.136,1.137
		c0.11,0.018,0.22,0.035,0.332,0.055c0.093-0.493,0.185-0.985,0.337-1.784c0.054,0.889,0.088,1.491,0.13,2.145
		c0.441-0.595-0.505-1.802,0.959-1.865c0-0.285,0-0.6,0-0.928c-1.416-0.079-2.793-0.043-4.13-0.254
		c-2.612-0.41-4.868-1.665-6.841-3.408c-2.998-2.652-5.378-5.827-7.483-9.228c-0.564-0.911-1.228-1.758-1.784-2.549
		c0.327-0.382,0.561-0.647,0.901-1.04c0.283,0.289,0.656,0.587,0.93,0.961c1.416,1.934,2.761,3.922,4.228,5.816
		c0.762,0.99,1.721,1.824,2.593,2.727c0.092-0.086,0.18-0.17,0.273-0.257c-0.879-1.059-1.817-2.07-2.62-3.184
		c-1.731-2.394-3.396-4.836-5.076-7.266c-0.12-0.172-0.242-0.549-0.171-0.617c0.733-0.689,0.01-1.111-0.195-1.681
		c-0.412-1.137-0.815-2.31-0.977-3.503c-0.6-4.467-1.099-8.948-1.646-13.423c-0.063-0.519-0.181-1.031-0.376-1.536
		c0.283,3.276,0.63,6.548,0.828,9.83c0.198,3.246,1.472,6.391,1.013,9.732c-1.06-0.158-1.495-0.789-1.636-1.649
		c-0.542-3.345-1.079-6.691-1.587-10.04c-0.237-1.556-0.405-3.122-0.83-4.706c-0.234,1.306-0.552,2.605-0.689,3.921
		c-0.327,3.107-0.464,6.24-0.893,9.332c-0.234,1.696,0.784,2.531,1.719,3.486c0.425,0.437,1.033,0.684,1.518,1.065
		c0.401,0.314,1.226,0.413,0.75,1.288c-0.042,0.076,0.195,0.31,0.305,0.467c0.342,0.474,0.686,0.944,0.96,1.321
		c-1.787,2.121-3.484,4.16-5.212,6.173c-0.732,0.857-0.823,0.746-1.428-0.212c-0.542-0.859-1.311-1.572-1.018-2.75
		c-0.435,0.129-0.879,0.41-1.084,0.286c-0.284-0.17-0.454-0.629-0.552-0.996c-0.129-0.47-0.201-0.974-0.19-1.461
		c0.179-8.641,0.376-17.278,0.557-25.918c0.039-1.812-0.015-3.629,0.068-5.441c0.02-0.452,0.307-1.016,0.651-1.301
		c0.833-0.685,1.755-1.261,2.676-1.83c0.481-0.297,0.642-0.638,0.583-1.211c-0.44-4.427-0.948-8.85-1.241-13.288
		c-0.49-7.395-0.966-14.798-1.198-22.204c-0.181-5.762-0.083-11.537,0.09-17.301c0.097-3.248,0.527-6.493,0.977-9.717
		c0.144-1.048,0.83-2.018,1.267-3.026C578.159,358.811,578.271,358.837,578.384,358.864z M603.415,402.072
		c0.422,0.885,0.959,1.734,1.247,2.663c1.001,3.203,1.985,6.415,2.832,9.661c0.574,2.207,0.913,4.478,1.358,6.719
		c0.1-0.125,0.11-0.244,0.097-0.361c-0.559-6.51-2.006-12.815-4.365-18.902c-0.166-0.43-0.581-1.156-0.774-1.122
		c-0.862,0.154-0.247,0.898-0.369,1.372c-0.215-0.367-0.422-0.737-0.633-1.105c-0.087,0.042-0.178,0.082-0.266,0.124
		c0.424,2.271,1.487,4.323,2.412,6.424C604.443,405.719,603.931,403.896,603.415,402.072z M598.389,402.074
		c-0.388,0.013-0.776,0.023-1.167,0.043c-3.552,0.163-7.102,0.34-10.654,0.476c-0.764,0.03-1.534-0.093-2.371-0.15
		c0,0.355-0.012,0.583,0.003,0.806c0.173,3.061,0.337,6.12,0.532,9.178c0.332,5.167,0.689,10.332,1.023,15.498
		c0.227,3.552,0.383,7.109,0.656,10.659c0.376,4.832,0.83,9.656,1.27,14.484c0.034,0.374,0.146,0.791,0.357,1.092
		c1.396,1.987,2.827,3.954,4.263,5.914c0.229,0.314,0.513,0.609,0.823,0.837c4.399,3.199,10.82,3.014,14.758-2.474
		c2.048-2.858,3.416-6.057,4.326-9.469c0.279-1.04,0.142-1.577-0.915-2.019c-1.677-0.703-1.57-0.776-1.281-2.593
		c0.117-0.726,0.566-1.556,0.07-2.218c-0.513,0.059-0.877,0.1-1.245,0.143c-0.069,0.251-0.144,0.531-0.188,0.699
		c-0.586,0-1.094,0-1.411,0c-0.298,0.638-0.401,1.248-0.757,1.515c-0.302,0.223-0.893,0.046-1.24,0.046
		c0.19-0.713,0.471-1.218,0.44-1.704c-0.276-4.309-0.444-8.633-0.964-12.914c-0.564-4.674-1.23-9.361-2.282-13.941
		c-1.08-4.706-2.681-9.291-4.043-13.92c0.117,0.154,0.278,0.293,0.341,0.467c0.52,1.453,1.106,2.888,1.509,4.374
		c1.303,4.796,2.759,9.564,3.753,14.428c1.451,7.086,1.741,14.323,2.107,21.538c0.009,0.151,0.092,0.296,0.144,0.447
		c-0.557-13.277-1.343-26.497-6.302-39.027c4.58,11.706,6.674,23.899,7.154,36.426c0.201-3.763-0.161-7.497-0.556-11.218
		c-0.396-3.765-0.847-7.535-1.504-11.261c-0.647-3.673-1.579-7.296-2.422-11.096c0.757,2.53,1.47,4.91,2.183,7.292
		c0.07-0.02,0.141-0.036,0.21-0.057c-0.596-2.389-1.196-4.778-1.792-7.168c0.737,1.898,1.414,3.814,1.973,5.764
		c0.552,1.952,0.991,3.94,1.479,5.912c-0.845-6.048-2.456-11.891-4.568-17.781c-0.32,0.254-0.661,0.68-0.809,0.62
		C600.237,401.292,599.331,401.779,598.389,402.074z M600.974,393.13c-1.794-4.689-13.987-22.878-17.534-26.099
		c0,1.989-0.012,3.784,0,5.581c0.027,3.457,0.051,6.914,0.109,10.371c0.069,4.251,0.181,8.5,0.252,12.75
		c0.01,0.605,0.254,0.824,0.823,0.802c0.52-0.018,1.062-0.094,1.558,0.017c4.622,1.012,8.75-0.641,12.864-2.382
		C599.697,393.895,600.3,393.496,600.974,393.13z M617.212,435.207c-0.427,0.154-0.893,0.324-1.416,0.512
		c0.019,0.225,0.047,0.553,0.058,0.68c-0.571,0.117-1.01,0.208-1.453,0.296c0.208,0.483,0.408,0.967,0.622,1.445
		c0.039,0.078,0.151,0.122,0.229,0.183c1.992,1.599,3.977,3.207,5.979,4.792c0.637,0.505,0.987,1.11,0.974,1.94
		c-0.014,1.238-0.003,2.477-0.003,3.893c0.427-0.254,0.759-0.387,1.009-0.61c2.353-2.08,4.382-4.419,5.722-7.314
		c0.21-0.449,0.567-0.825,0.891-1.284c-1.426-5.193-4.861-11.266-8.386-14.902c-0.591-0.609-1.052-0.82-1.812-0.284
		c-0.661,0.466-1.465,0.721-2.146,1.171c-0.285,0.188-0.578,0.636-0.571,0.958C616.973,429.533,617.104,432.379,617.212,435.207z
		 M574.648,456.302c0.156,0.014,0.312,0.028,0.474,0.044c0.696-5.434,0.625-10.908,0.706-16.373
		c-0.101-0.005-0.198-0.011-0.298-0.015C575.234,445.406,574.941,450.854,574.648,456.302z M594.626,378.409
		c1.931,3.24,3.86,6.481,5.789,9.721c0.076-0.047,0.151-0.092,0.224-0.139C598.982,384.585,596.838,381.473,594.626,378.409z
		 M596.719,399.933c-2.578,0.22-5,0.427-7.422,0.632C591.772,400.994,594.202,400.902,596.719,399.933z M610.41,436.298
		c0.073,1.513,0.129,2.717,0.188,3.923c0.042-0.009,0.087-0.017,0.134-0.025c0.239-0.965,0.483-1.932,0.742-2.973
		C611.238,437.018,610.947,436.769,610.41,436.298z M616.479,424.23c0.083,0.022,0.166,0.046,0.249,0.068
		c0.727-0.488,1.45-0.974,2.317-1.554c-1.069-0.455-1.587,0.357-2.238,0.632C616.616,423.46,616.584,423.935,616.479,424.23z"/>
	<path fill="#FFFFFF" d="M590.876,472.738c0.24,0.572,0.476,1.143,0.756,1.816c0.325-0.759,0.645-1.507,0.965-2.251
		c0.053,0.02,0.112,0.04,0.166,0.059c-0.127,0.476-0.254,0.954-0.381,1.428c0.044,0.028,0.093,0.055,0.136,0.081
		c0.166-0.184,0.332-0.367,0.496-0.548c0.554,2.48-0.081,4.755-0.955,7.022c-0.337,0.875-0.378,1.863-0.639,2.773
		c-0.195,0.681-0.562,1.31-0.799,1.98c-1.013,2.884-1.979,5.789-3.03,8.661c-0.293,0.801-0.808,1.518-1.26,2.345
		c-0.195-0.645,0.957-1.211-0.107-1.767c-0.283,0.375-0.552,0.736-0.772,1.033c-0.329-0.428-0.649-0.846-1.069-1.395
		c-0.293,0.36-0.603,0.733-0.957,1.164c-0.357-0.146-0.779-0.246-1.123-0.474c-0.732-0.482-0.654-1.158-0.424-1.923
		c1.025-3.404,2.056-6.806,2.983-10.234c0.469-1.743,0.698-3.549,1.106-5.309c0.064-0.281,0.481-0.476,0.735-0.711
		c0.176-0.168,0.439-0.309,0.513-0.516c0.362-1.013,0.669-2.044,1.001-3.085c0.391,0.249,0.703,0.451,1.196,0.768
		c0.015,0.165,0.044,0.546,0.083,1.036c0.401-0.766,0.74-1.428,1.08-2.09C590.679,472.648,590.776,472.692,590.876,472.738z"/>
	<path fill="#FFFFFF" d="M568.86,372.812c-1.79,0.251-2.295,2.021-3.474,2.987c-1.298,1.068-0.4,3.025-1.357,4.35
		c-0.537,0-1.275,0.219-1.687-0.059c-0.466-0.312-0.762-1.041-0.906-1.643c-0.144-0.607-0.18-1.164-0.908-1.316
		c-0.083-0.018-0.195-0.108-0.22-0.187c-0.381-1.345-1.108-0.636-1.845-0.381c-0.742,0.258-1.543,0.381-2.33,0.464
		c-0.246,0.026-0.698-0.22-0.747-0.417c-0.053-0.244,0.19-0.576,0.342-0.852c0.181-0.332,0.405-0.64,0.603-0.962
		c0.081-0.134,0.115-0.339,0.227-0.405c0.637-0.364,1.292-0.693,2.176-1.161c-0.559-0.375-0.87-0.582-1.384-0.929
		c-0.591-2.525-1.245-5.314-1.894-8.105c1.245-0.682,1.333-0.569,2.31,0.426c0.925,0.947,2.051,1.699,3.139,2.578
		c0.645-1.046,1.13-2.025,2.41-2.223c0.852-0.131,1.157,0.22,1.274,0.927c0.208,1.265,0.445,2.529,0.544,3.805
		c0.069,0.874,0.44,1.193,1.242,1.458c0.872,0.289,1.641,0.896,2.448,1.378C568.872,372.574,568.848,372.724,568.86,372.812z
		 M563.777,372.608c-0.461-0.267-0.784-0.458-1.169-0.681c0.645-0.583,0.62-1.283,0.054-1.701c-1.177-0.871-2.464-1.596-3.792-2.433
		c0.166,0.441,0.339,0.82,0.454,1.215c0.117,0.401,0.379,0.919,0.232,1.208c-0.52,1.022,0.283,1.876,0.224,2.821
		c-0.004,0.082,0.291,0.189,0.449,0.276c0.806,0.447,1.607-0.165,2.329-0.046C563.262,373.385,563.381,373.053,563.777,372.608z"/>
	<path fill="#FFFFFF" d="M601.846,355.712c-0.747-0.408-1.585-0.754-2.293-1.279c-0.617-0.459-1.03-0.4-1.501,0.129
		c-0.307,0.34-0.645,0.656-0.984,0.961c-0.872,0.777-2.049,0.346-2.437-0.743c-0.178-0.498-0.732-0.875-1.16-1.256
		c-0.385-0.34-0.83-0.607-1.465-1.066c1.155-0.516,2.115-0.945,2.974-1.329c0.193-0.672,0.369-1.302,0.552-1.932
		c0.259-0.878,0.508-1.762,0.801-2.629c0.097-0.283,0.32-0.523,0.483-0.78c0.224,0.161,0.427,0.374,0.674,0.47
		c1.089,0.423,0.798,1.714,1.499,2.402c0.381-0.201,0.752-0.398,1.235-0.653c0.483,1.227,1.401,1.211,2.632,0.602
		C602.507,351.071,602.19,353.3,601.846,355.712z"/>
	<path fill="#FFFFFF" d="M615.64,365.851c-0.991,0.862-2.268,1.338-2.375,2.858c-0.015,0.191-0.203,0.367-0.31,0.552
		c-0.151-0.091-0.298-0.187-0.455-0.273c-0.378-0.21-0.761-0.417-1.103-0.604c0.131-1.03,0.271-2.097,0.435-3.385
		c0.381,0.166,0.761,0.333,1.191,0.522c0.034-0.144,0.115-0.484,0.21-0.884C614.282,364.467,614.961,365.203,615.64,365.851z"/>
	<path fill="#FFFFFF" d="M593.096,480.223c-1.699,5.297-3.34,10.617-5.767,15.645c1.839-5.248,3.677-10.497,5.515-15.745
		C592.93,480.156,593.013,480.19,593.096,480.223z"/>
	<path fill="#FFFFFF" d="M594.101,477.078c-0.21,0.663-0.417,1.326-0.625,1.988c-0.112-0.031-0.22-0.066-0.332-0.1
		c0.195-0.669,0.391-1.336,0.586-2.003C593.855,477.002,593.979,477.04,594.101,477.078z"/>
</g>
</svg>
