<?xml version="1.0" encoding="utf-8"?>
<!-- Generator: Adobe Illustrator 17.1.0, SVG Export Plug-In . SVG Version: 6.00 Build 0)  -->
<!DOCTYPE svg PUBLIC "-//W3C//DTD SVG 1.1//EN" "http://www.w3.org/Graphics/SVG/1.1/DTD/svg11.dtd">
<svg version="1.1" id="Calque_1" xmlns="http://www.w3.org/2000/svg" xmlns:xlink="http://www.w3.org/1999/xlink" x="0px" y="0px"
	 viewBox="368.503 321.732 453.543 198.425" enable-background="new 368.503 321.732 453.543 198.425" xml:space="preserve">
<g>
	<path fill="#FFFFFF" d="M553.905,424.862c-0.229,0.01-0.454,0.02-0.718,0.033c0.273,0.378,0.508,0.71,0.943,1.316
		c-0.967-0.265-1.616-0.443-2.266-0.62c-0.029,0.07-0.054,0.144-0.083,0.215c0.674,0.377,1.345,0.755,2.031,1.142
		c0.103-0.122,0.215-0.195,0.227-0.278c0.403-3.658,1.868-6.982,3.291-10.29c1.953-4.543,4.69-8.612,8.443-11.827
		c1.906-1.63,4.028-3.128,6.286-4.173c3.203-1.487,6.638-1.05,10.022-0.307c2.595,0.57,4.951,1.67,7.132,3.114
		c0.879,0.577,1.489,1.573,2.216,2.378c-0.078,0.1-0.159,0.198-0.234,0.297c-0.254,0-0.51,0-0.921,0
		c0.227,0.41,0.424,0.76,0.677,1.215c1.477-0.849,2.839-1.738,4.294-2.446c3.819-1.859,7.846-2.887,12.114-3.091
		c4.581-0.22,8.906,0.692,12.854,2.928c2.115,1.198,4.163,2.753,5.767,4.572c2.026,2.305,4.162,3.152,7.255,3.228
		c5.659,0.144,11.152,1.65,16.514,3.553c3.359,1.194,5.401,3.704,6.861,6.796c0.74,1.561,0.312,3.102-0.798,4.276
		c-1.243,1.314-2.6,2.574-4.089,3.576c-2.807,1.88-5.762,3.533-8.614,5.341c-0.547,0.343-0.971,0.922-1.357,1.46
		c-1.065,1.474-2.109,2.963-3.091,4.493c-0.371,0.577-0.716,1.266-0.786,1.935c-0.557,5.113-1.465,10.168-3.357,14.944
		c-2.099,5.311-5.198,10.029-9.383,13.953c-5.669,5.316-12.392,8.302-20.078,8.976c-6.655,0.585-13.269,0.031-19.731-1.658
		c-7.686-2.008-14.648-5.503-20.491-11.052c-2.927-2.785-5.95-5.474-8.264-8.849c-0.201-0.289-0.63-0.482-0.992-0.586
		c-5.424-1.538-10.407-4.034-15.073-7.169c-2.612-1.753-5.01-3.785-6.115-6.925c-0.2-0.575-0.327-1.195-0.378-1.802
		c-0.161-2.04-0.279-4.086-0.41-6.127c-0.229-3.448,0.884-6.418,2.885-9.195c2.485-3.448,6.14-4.802,9.922-5.778
		c2.337-0.603,4.761-0.187,6.812,1.395c0.307,0.24,0.683,0.396,1.03,0.591C554.135,424.561,554.017,424.712,553.905,424.862z
		 M617.328,414.816c-0.342-0.086-0.515-0.135-0.693-0.171c-6.495-1.348-12.964-1.134-19.341,0.628
		c-4.885,1.35-9.712,2.911-13.706,6.302c-0.5,0.427-1.177,0.646-1.963,1.059c0.376-0.779,0.635-1.25,0.835-1.742
		c0.522-1.264,0.987-2.552,1.534-3.805c0.288-0.662,0.706-1.266,1.179-2.104c-0.539,0.25-0.818,0.377-1.401,0.645
		c0.801-1.462,1.453-2.649,2.176-3.967c-1.392-0.272-2.727-0.63-4.077-0.777c-2.495-0.271-5.058-0.365-7.397,0.608
		c-3.97,1.651-7.193,4.403-9.673,7.927c-4.238,6.021-6.406,12.835-7.016,20.142c-0.298,3.543-0.237,7.089,1.035,10.512
		c0.381,1.027,0.898,1.521,2.007,1.562c4.922,0.19,9.836,0.51,14.76,0.648c5.334,0.148,10.639-0.279,15.893-1.275
		c8.364-1.579,16.538-3.733,24.209-7.578c4.81-2.413,9.509-5.003,13.786-8.302c0.403-0.309,0.848-0.953,0.804-1.399
		c-0.242-2.721-0.611-5.432-0.957-8.142c-0.115-0.88-0.634-1.326-1.535-1.36c-1.99-0.069-3.979-0.244-5.972-0.236
		c-2.129,0.006-4.258,0.168-6.386,0.271c-0.615,0.029-1.028,0.293-0.755-0.855c0.245-1.031,0.945-1.305,1.638-1.985
		c-0.53,0-0.886,0-1.245,0c-0.047-0.085-0.091-0.172-0.139-0.259c1.289-1.406,2.407-3.023,4.487-3.499
		c-1.35,0.178-2.7,0.359-4.38,0.581C615.878,416.982,616.566,415.954,617.328,414.816z M567.279,461.627
		c0.33,0.254,0.464,0.371,0.611,0.464c5.771,3.723,12.099,5.992,18.852,6.862c3.687,0.474,7.439,0.442,11.158,0.525
		c5.131,0.115,9.905-1.44,14.326-3.858c4.954-2.706,8.886-6.636,11.888-11.479c0.564-0.905,1.094-1.827,1.643-2.743
		C607.367,461.124,587.816,463.618,567.279,461.627z M552.387,450.062c-0.471-6.13-0.346-12.066,0.727-18.091
		c-0.806,0.074-1.49,0.005-2.07,0.219c-1.758,0.651-3.547,1.274-5.188,2.158c-3.03,1.629-5.122,4.121-6.06,7.522
		c-0.215,0.774-0.095,1.345,0.466,1.978c2.239,2.509,5.125,3.884,8.189,4.962C549.73,449.261,551.034,449.635,552.387,450.062z
		 M642.284,430.603c1.111-0.682,2.087-1.239,3.018-1.859c2.299-1.532,4.663-2.996,6.338-5.279c1.36-1.849,1.03-2.992-1.021-3.887
		c-0.267-0.116-0.528-0.258-0.809-0.324c-4.465-1.069-8.928-2.177-13.418-3.155c-1.258-0.273-2.595-0.159-3.898-0.222
		c-0.042,0.129-0.083,0.261-0.125,0.391c1.069,0.721,2.078,1.562,3.218,2.14c4.153,2.099,5.218,6.178,6.502,10.123
		c0.088,0.266,0.013,0.579,0.039,0.869C642.155,429.743,642.213,430.084,642.284,430.603z M553.214,453.178
		c-3.396-1.464-6.79-2.928-10.208-4.402C545.951,451.357,549.647,452.116,553.214,453.178z M648.27,431.038
		c-0.054-0.071-0.112-0.141-0.164-0.212c-1.709,1.014-3.416,2.028-5.12,3.04c0.049,0.083,0.1,0.167,0.146,0.25
		C644.848,433.092,646.561,432.066,648.27,431.038z M563.91,461.728c-0.088,0.1-0.171,0.198-0.257,0.298
		c1.114,0.954,2.227,1.909,3.338,2.865c0.066-0.077,0.132-0.155,0.201-0.233C566.095,463.681,565.001,462.706,563.91,461.728z
		 M544.354,452.049c-0.058,0.094-0.115,0.191-0.176,0.286c1.065,0.513,2.128,1.024,3.193,1.535c0.029-0.067,0.061-0.134,0.093-0.201
		C546.43,453.128,545.394,452.589,544.354,452.049z"/>
	<path fill="#FFFFFF" d="M603.915,380.946c3.142-0.595,6.289-1.143,9.805-1.017c-0.659,1.781-1.294,3.315-1.787,4.896
		c-0.419,1.328-1.153,1.993-2.524,2.462c-0.867,0.297-1.66,0.915-2.671,0.97c-0.131,0.008-0.322,0.301-0.363,0.49
		c-0.203,0.934-0.818,1.139-1.674,1.191c-1.948,0.123-3.904,0.263-5.838,0.537c-2.172,0.307-4.19,1.106-5.977,2.434
		c-0.459,0.339-1.899,0.086-2.141-0.365c-1.102-2.043-2.341-4.027-3.232-6.162c-0.957-2.303-2.024-4.619-2.063-7.211
		c-0.025-1.467,0.237-2.845,1.274-4.304c0.142,0.589,0.215,0.895,0.291,1.2c0.6-0.222,0.095-1.755,1.345-1.095
		c0.332-0.719,0.637-1.38,0.943-2.041c0.095,0.028,0.188,0.055,0.284,0.083c0.078,0.316,0.151,0.633,0.254,1.031
		c0.263-0.387,0.488-0.718,0.801-1.174c0.19,0.358,0.302,0.565,0.419,0.779c0.557-0.339,0.195-1.714,1.509-1.41
		c0.156-0.189,0.405-0.487,0.595-0.713c0.674,1.96,1.319,3.819,2.056,5.951c0.385-0.577,0.605-0.887,0.801-1.208
		c4.397-7.219,10.713-12.1,18.359-15.338c1.828-0.775,3.706-1.09,5.723-0.587c1.201,0.3,2.512,0.127,3.745,0.34
		c0.886,0.154,1.735,0.556,2.568,0.931c0.205,0.092,0.422,0.572,0.352,0.765c-0.083,0.219-0.474,0.401-0.752,0.446
		c-1.57,0.253-3.178,0.318-4.714,0.706c-5.391,1.366-9.427,4.735-12.591,9.194c-1.823,2.571-3.413,5.31-5.107,7.974
		C603.705,380.781,603.81,380.864,603.915,380.946z"/>
	<path fill="#FFFFFF" d="M598.082,429.326c0.576-0.459,1.096-0.87,1.853-1.473c0.054,0.766,0.078,1.222,0.122,1.672
		c0.264,2.705,3.22,4.514,5.664,3.392c0.454-0.209,0.884-0.802,1.031-1.307c0.568-1.947,0.102-3.701-1.348-5.113
		c-0.359-0.352-0.932-0.477-1.545-0.772c0.696-0.999,1.765-1.576,2.854-1.797c0.517-0.106,1.342,0.541,1.811,1.055
		c1.997,2.198,1.494,8.216-2.536,9.6c-1.755,0.602-3.464,1.028-5.3,0.572c-2.249-0.558-3.753-2.952-3.208-5.103
		C597.587,429.619,597.709,429.211,598.082,429.326z"/>
	<path fill="#FFFFFF" d="M584.198,441.886c-0.239,0.279-0.564,0.524-0.703,0.848c-0.293,0.707-0.644,1.448-0.683,2.191
		c-0.042,0.763,0.659,1.004,1.167,0.402c0.664-0.785,1.186-1.693,1.923-2.772c0.098,0.515,0.159,0.82,0.24,1.223
		c0.227-0.382,0.422-0.706,0.611-1.018c0.461,0.076,0.888,0.145,1.43,0.23c-0.034,0.341,0.02,0.73-0.112,1.031
		c-0.928,2.042-2.722,4.061-5.644,3.199c-0.31-0.092-0.62-0.19-0.927-0.289c-1.557-0.505-1.917-0.902-1.914-2.113
		c0.009-1.576,0.825-2.954,2.097-3.228c0.769-0.166,1.596-0.031,2.399-0.031C584.12,441.667,584.159,441.777,584.198,441.886z"/>
	<path fill="#FFFFFF" d="M572.885,418.542c1.591,1.77,2.729,1.733,3.842,0.073c0.396,0.735,0.24,3.235-0.337,3.78
		c-0.818,0.773-1.772,0.312-2.664,0.115c-0.695-0.155-1.135-0.534-1.004-1.394C572.85,420.327,572.828,419.514,572.885,418.542z"/>
	<path fill="#FFFFFF" d="M559.491,434.89c-0.185-1.534-0.298-3.062,0.808-4.449c-0.154,1.491-0.305,2.986-0.456,4.48
		C559.725,434.912,559.611,434.901,559.491,434.89z"/>
	<path fill="#FFFFFF" d="M604.337,460.803c1.191,0.576,1.44,2.44,0.513,3.991c-1.174,1.968-2.39,2.913-4.539,1.081
		c0.156-0.125,0.308-0.244,0.542-0.431c-0.347-0.156-0.625-0.279-0.926-0.414c0-0.448,0-0.901,0-1.557
		C602.758,464.782,603.646,462.934,604.337,460.803z"/>
</g>
</svg>
