<?xml version="1.0" encoding="utf-8"?>
<!-- Generator: Adobe Illustrator 17.1.0, SVG Export Plug-In . SVG Version: 6.00 Build 0)  -->
<!DOCTYPE svg PUBLIC "-//W3C//DTD SVG 1.1//EN" "http://www.w3.org/Graphics/SVG/1.1/DTD/svg11.dtd">
<svg version="1.1" id="Calque_1" xmlns="http://www.w3.org/2000/svg" xmlns:xlink="http://www.w3.org/1999/xlink" x="0px" y="0px"
	 viewBox="368.503 321.732 453.543 198.425" enable-background="new 368.503 321.732 453.543 198.425" xml:space="preserve">
<g>
	<g>
		<path fill="#FFFFFF" d="M602.823,457.717c1.413-0.051,2.036-0.825,2.054-2.236c0.084-6.88,0.152-13.762,0.244-20.642
			c0.043-3.145,0.096-6.289,0.21-9.428c0.038-1.021-0.314-1.551-1.275-1.946c-3.902-1.602-7.891-1.164-11.859-0.53
			c-4.768,0.764-9.017,2.823-12.935,5.6c-0.632,0.449-1.198,1.055-1.897,1.333c-1.986,0.789-2.155,2.275-2.112,4.153
			c0.13,5.374,0.105,10.752,0.071,16.126c-0.008,1.162,0.25,2.055,1.419,2.663c-0.325,0.398-0.595,0.73-0.982,1.204
			c0.461,0.223,0.883,0.427,0.972,0.474c0.424,0.703,0.975,1.203,0.897,1.562c-0.323,1.477,0.582,2.585,0.879,3.867
			c0.071,0.31-0.371,0.737-0.609,1.172c0.176,0.181,0.417,0.432,0.655,0.681c-0.102,0.012-0.205,0.022-0.308,0.032
			c-0.043,0.647,0.091,1.384-0.176,1.917c-0.341,0.679-0.907,1.384-1.56,1.733c-0.99,0.53-1.219,1.224-1.086,2.212
			c0.054,0.405,0.039,0.82,0.057,1.228c0.09,1.997,0.09,1.997-0.94,3.977c-0.384-0.368-0.75-0.713-1.116-1.062
			c-0.305,0.371-0.612,0.74-1.01,1.224c-0.177-0.144-0.462-0.384-0.81-0.672c-0.044,0.43-0.086,0.84-0.15,1.47
			c-0.779-0.284-1.445-0.527-2.029-0.745c-0.698,0.427-1.462,0.896-2.344,1.433c-0.348-0.737-0.63-1.333-1.038-2.2
			c-0.112,0.767-0.189,1.297-0.298,2.041c-1.458-1.375-2.335-0.198-3.258,0.573c-3.283,2.754-6.503,5.581-9.826,8.281
			c-1.036,0.842-2.289,1.451-3.52,1.987c-0.365,0.159-1.055-0.193-1.488-0.474c-0.981-0.635-1.895-1.377-2.645-1.934
			c-0.911,0.503-1.695,0.93-2.766,1.518c-0.273-1.289-0.507-2.385-0.74-3.484c-0.094,0.003-0.186,0.01-0.279,0.01
			c0,1.035,0,2.073,0,3.105c-0.177,0.056-0.356,0.115-0.533,0.173c-0.572-0.962-1.141-1.926-1.713-2.891
			c0.088-0.051,0.174-0.103,0.26-0.154c-0.093,0.608-0.184,1.211-0.276,1.816c-0.164,0.03-0.328,0.061-0.49,0.095
			c-0.321-0.874-0.849-1.733-0.922-2.629c-0.253-3.133-0.384-6.272-0.495-9.411c-0.337-9.512-0.757-19.023-0.933-28.538
			c-0.333-17.863-0.521-35.728-0.763-53.594c-0.01-0.681-0.013-1.37,0.043-2.048c0.062-0.759,0.007-1.443,1.28-1.404
			c0.839,0.027,1.826-0.589,2.157-1.745c0.144-0.501,0.748-0.872,1.234-1.402c0.022,0.032-0.148-0.21-0.41-0.586
			c0.596-0.093,1.065-0.163,1.642-0.249c-0.216-0.366-0.408-0.688-0.716-1.206c0.523,0.11,0.883,0.188,1.271,0.271
			c0.154-0.483,0.311-0.982,0.59-1.86c0.415-0.268,1.21-0.784,2.006-1.296c-0.013-0.144-0.028-0.288-0.04-0.432
			c0.51,0.312,1.068,0.571,1.524,0.947c7.838,6.462,16.273,12.012,25.336,16.595c2.147,1.084,4.382,2.007,6.607,2.927
			c1.265,0.52,2.301,1.116,2.107,2.719c-0.654,0.108-1.323,0.22-2.232,0.366c0.557,0.523,0.889,0.837,1.451,1.367
			c-0.807,0-1.302,0-1.883,0c0.427,0.383,0.783,0.706,1.364,1.228c-0.766,0.385-1.354,0.681-1.828,0.915
			c-0.31,0.857-0.629,1.734-0.941,2.605c-0.076,0.207-0.203,0.415-0.204,0.623c-0.015,2.546-0.01,5.091-0.01,7.793
			c9.599-5.124,19.299-7.207,29.53-1.511c0.166-4.927,0.331-9.783,0.495-14.639c0.164-0.039,0.33-0.078,0.492-0.12
			c0.331,0.366,0.663,0.728,0.948,1.043c0.856-1.143,1.926-2.368,1.288-4.109c0.115-0.071,0.194-0.166,0.261-0.159
			c3.176,0.388,5.464-1.618,8-2.956c7.093-3.743,14.19-7.478,21.272-11.238c3.118-1.658,6.218-3.354,9.302-5.073
			c1.166-0.647,2.01-0.059,3.016,0.547c-0.245,0.305-0.553,0.525-0.592,0.781c-0.042,0.28,0.1,0.652,0.286,0.882
			c0.253,0.314,0.624,0.534,0.953,0.801c0.471,0.257,0.958,0.668,1.499,0.757c0.413,0.064,0.891-0.286,1.557-0.532
			c1.051,0.611,1.271,1.831,1.141,3.233c-0.619,6.709-1.169,13.427-1.837,20.132c-0.844,8.477-1.794,16.941-2.664,25.413
			c-0.789,7.658-1.651,15.315-2.258,22.988c-0.679,8.581-1.112,17.185-1.63,25.779c-0.038,0.625,0.101,1.262,0.166,2.002
			c0.287-0.139,0.503-0.244,0.821-0.403c0.387,2.881-0.552,5.34-2.241,7.632c-0.604-0.117-1.371-0.263-2.354-0.452
			c0.553,0.642,0.946,1.096,1.339,1.551c-0.097,0.137-0.194,0.276-0.29,0.413c-0.76-0.442-1.522-0.884-2.281-1.326
			c-0.042,0.026-0.081,0.059-0.123,0.083c0.44,0.505,0.88,1.013,1.562,1.799c-0.883,0.188-1.511,0.323-2.084,0.444
			c-0.477,0.527-0.93,1.47-1.531,1.579c-0.719,0.127-1.568-0.454-2.446-0.759c0.323,0.469,0.626,0.913,0.969,1.409
			c-2.278,0.359-4.148,0.229-5.99-1.316c-5.091-4.267-10.602-8.061-15.484-12.547c-3.525-3.237-6.372-7.224-9.398-10.979
			c-1.423-1.765-2.621-3.725-3.784-5.676C603.169,459.648,603.091,458.667,602.823,457.717z M641.147,394.721
			c-0.348,0.073-0.493,0.073-0.606,0.129c-7.043,3.735-14.091,7.456-21.101,11.247c-0.432,0.237-0.791,1.001-0.814,1.533
			c-0.088,2.182-0.021,4.372-0.034,6.555c-0.093,14.304-0.208,28.604-0.247,42.908c-0.003,0.918,0.324,2.029,0.894,2.732
			c2.913,3.611,5.879,7.185,8.986,10.628c1.46,1.616,3.275,2.915,4.93,4.358c0.113-0.073,0.227-0.142,0.341-0.21
			C634.536,447.88,638.215,421.413,641.147,394.721z M548.596,396.562c0.997,24.533,0.311,48.698,1.621,72.956
			c3.74-3.051,7.25-5.944,10.807-8.781c0.677-0.539,0.945-1.064,0.945-1.941c-0.016-9.524-0.033-19.046,0.051-28.567
			c0.072-8.022,0.26-16.042,0.442-24.06c0.025-1.035-0.276-1.604-1.218-2.132c-3.616-2.024-7.164-4.17-10.735-6.275
			C549.976,397.448,549.458,397.106,548.596,396.562z"/>
	</g>
	<g>
		<path fill="#FFFFFF" d="M578.656,374.733c-2.865-4.219-5.999-8.264-8.742-12.556c-1.924-3.013-3.4-6.314-5.031-9.507
			c-0.289-0.566-0.354-1.245-0.524-1.872c-0.573,0.384-1.15,1.026-1.44,0.915c-1.357-0.52-1.352,0.611-1.794,1.016
			c-0.554-0.132-1.1-0.173-1.614-0.061c-0.885,0.195-1.746,0.488-2.618,0.74c-0.069-0.122-0.134-0.246-0.201-0.371
			c-0.06,0.661-0.117,1.32-0.194,2.182c-0.437-0.239-0.718-0.454-1.031-0.554c-0.42-0.13-1.219-0.312-1.249-0.237
			c-0.431,1.111-1.223,0.368-2.18,0.452c0.302,1.179,0.383,2.319,0.87,3.242c1.695,3.215,3.374,6.46,5.346,9.507
			c2.919,4.507,6.089,8.857,9.141,13.276c0.807,1.169,1.579,2.358,2.367,3.538c0.081-0.039,0.164-0.085,0.246-0.124
			c-0.129-0.664-0.258-1.331-0.443-2.283c1.038,1.318,1.879,2.388,2.72,3.46c0.129-0.057,0.258-0.113,0.385-0.169
			c-0.594-1.733-1.187-3.461-1.78-5.193c0.119-0.049,0.237-0.098,0.354-0.146c0.863,1.75,1.724,3.499,2.733,5.544
			c0.196-0.642,0.279-0.915,0.341-1.118c0.263,0.125,0.52,0.247,0.876,0.413c0.189-0.808,0.346-1.491,0.448-1.924
			c0.69,0.302,1.403,0.62,2.117,0.938c0.094-0.115,0.188-0.225,0.282-0.335c-0.509-1.377-1.021-2.751-1.53-4.126
			c0.105-0.052,0.211-0.098,0.317-0.144c0.615,1.24,1.23,2.483,2,4.038c0.133-1.286,0.224-2.192,0.346-3.361
			c0.589,0.921,1.009,1.582,1.43,2.241c0.174-0.044,0.348-0.092,0.523-0.134c-0.081-0.972,0.043-2.019-0.288-2.898
			C580.269,377.6,579.567,376.079,578.656,374.733z"/>
		<path fill="#FFFFFF" d="M636.892,366.069c-0.106,0.005-0.211,0.01-0.319,0.017l-0.69,0.044l0.337-2.014l-4.362,1.726l-0.525-1.204
			l3.891-2.212c-0.594-0.715-1.032-1.096-1.664-0.784l-0.792,0.391v-2.334l-2.526,1.155l-0.471-1.057l0.879-0.647l-2.695,0.625
			l-0.28-0.884l0.287-0.42l1.15-0.747c-3.708,0.871-6.807,3.081-9.9,5.466c-2.443,1.883-4.759,3.918-7.001,5.886
			c-0.872,0.767-1.731,1.523-2.575,2.249l0.664,2.422l1.481-0.335l0.298,0.823l-0.259,0.449l0.376,0.044l-0.491,0.76l2.406,1.44
			l-0.492,0.647l2.22-0.215l-1.277,1.474c0.011,0.008,0.023,0.017,0.034,0.025c0.373,0.29,0.76,0.586,1.094,0.95
			c0.699,0.766,1.091,1.064,1.395,1.064c0.287,0,0.703-0.258,1.392-0.859c0.191-0.168,0.366-0.352,0.542-0.537l0.295-0.308
			c5.049-5.076,10.631-9.094,16.592-11.941C636.65,366.877,636.927,366.579,636.892,366.069z"/>
		<path fill="#FFFFFF" d="M602.546,358.22c-0.336-0.808-0.47-0.862-0.995-0.733l-0.531,0.132l-0.158-0.603l0.015-0.007
			c-0.541-0.328-1.089-0.643-1.651-0.923c-0.083-0.042-0.219-0.073-0.351-0.103c-0.292-0.071-0.655-0.156-0.904-0.442
			c-0.791-0.908-1.762-1.162-2.826-0.738l-0.458,0.184l-0.697-1.316c-0.703-0.025-1.439,0.073-1.76,1.674l-0.029,0.145
			c-0.081,0.408-0.161,0.818-0.266,1.22l-1.024,3.921c-1.086,4.17-2.208,8.477-3.38,12.7c-0.215,0.777-0.635,1.47-1.042,2.141
			c-0.203,0.332-0.406,0.664-0.581,1.008c-0.036,0.073-0.063,0.171-0.073,0.237l0.138,0.173c0.728,0.925,1.482,1.882,2.322,2.693
			c0.001-0.004,0.047,0,0.145,0c0.094,0,0.193-0.004,0.294-0.012c0.294-0.022,0.591-0.022,0.814,0.025
			c0.527,0.11,1.046,0.267,1.582,0.427l1.263,0.368l-0.21,0.638l1.328-0.613l-0.315,1.035l3.313,1.484
			c0.104-0.11,0.195-0.212,0.24-0.305l0.291-0.581c0.334-0.664,0.652-1.289,0.83-1.944c0.946-3.477,1.87-6.96,2.794-10.444
			c0.638-2.405,1.276-4.812,1.922-7.214c0.172-0.645,0.393-1.304,0.835-1.783c0.237-0.257,0.35-0.525,0.318-0.759
			c-0.025-0.171-0.124-0.312-0.284-0.41C602.952,359.194,602.737,358.676,602.546,358.22z"/>
	</g>
</g>
</svg>
