<?xml version="1.0" encoding="utf-8"?>
<!-- Generator: Adobe Illustrator 17.1.0, SVG Export Plug-In . SVG Version: 6.00 Build 0)  -->
<!DOCTYPE svg PUBLIC "-//W3C//DTD SVG 1.1//EN" "http://www.w3.org/Graphics/SVG/1.1/DTD/svg11.dtd">
<svg version="1.1" id="Calque_1" xmlns="http://www.w3.org/2000/svg" xmlns:xlink="http://www.w3.org/1999/xlink" x="0px" y="0px"
	 viewBox="368.503 321.732 453.543 198.425" enable-background="new 368.503 321.732 453.543 198.425" xml:space="preserve">
<g>
	<path fill="#FFFFFF" d="M561.059,456.99c-0.134,0.432-0.245,0.726-0.316,1.031c-1.968,8.363-4.064,16.7-5.818,25.111
		c-0.565,2.689-1.543,5.011-3.169,7.332c-0.557-0.319-1.088-0.621-1.669-0.956c-0.113,0.044-0.414,0.156-0.716,0.27
		c-0.073-0.299-0.248-0.619-0.202-0.9c0.522-3.058,0.929-6.144,1.648-9.156c2.023-8.436,4.195-16.833,6.239-25.261
		c0.127-0.505-0.149-1.29-0.506-1.706c-2.733-3.156-5.119-6.523-6.884-10.342c-1.917-4.152-3.083-8.508-3.754-13.015
		c-1.036-6.932-1.375-13.885-1.041-20.9c0.297-6.351,0.969-12.659,2.379-18.824c1.466-6.402,3.226-12.755,5.307-18.977
		c1.784-5.335,4.647-10.199,8.526-14.314c2.135-2.264,4.948-3.513,7.918-4.327c3.356-0.922,6.755-0.708,10.118-0.152
		c1.07,0.174,2.074,0.874,3.052,1.431c0.813,0.462,0.638,0.94-0.099,1.217c0.13,0.423,0.254,0.83,0.381,1.236
		c-0.408-0.044-0.815-0.082-1.221-0.139c-0.344-0.051-0.681-0.127-1.247-0.234c1.305,0.743,2.396,1.341,3.453,1.993
		c0.243,0.148,0.431,0.48,0.508,0.764c0.027,0.104-0.337,0.314-0.596,0.54c0.055,0.161,0.159,0.47,0.348,1.017
		c-0.653-0.101-1.13-0.174-1.975-0.309c0.931,0.605,1.744,0.896,2.161,1.476c0.375,0.52,0.314,1.358,0.444,2.051
		c-2.89,0.648-3.677,3.45-5.077,5.539c-2.418,3.613-3.183,7.773-3.565,12.087c-0.594,6.754-0.17,13.4,1.284,20.001
		c1.735,7.887,5.257,14.939,9.983,21.392c1.558,2.129,3.163,4.276,5.035,6.111c5.604,5.49,12.513,8.293,20.138,9.54
		c4.849,0.792,9.68,1.615,14.617,1.452c3.152-0.104,6.052-1.072,8.766-2.633c0.36-0.206,0.583-0.735,0.768-1.161
		c0.207-0.472,0.289-0.997,0.427-1.505c2.271,0.716,2.393,1.02,1.357,3.091c1.256-0.216,1.594-0.631,2.297-2.843
		c0.171,0,0.419-0.078,0.539,0.013c1.234,0.942,2.639,0.201,3.94,0.435c0.324,0.061,0.909,0.088,0.925,0.207
		c0.074,0.406,0.074,0.925-0.125,1.261c-1.039,1.757-2.113,3.496-3.251,5.186c-0.458,0.671-0.568,1.21-0.282,2.003
		c1.449,4.017,0.734,7.743-1.484,11.327c-2.015,3.254-4.312,6.232-7.452,8.432c-1.593,1.117-3.32,2.035-4.984,3.048
		c-0.162,0.099-0.316,0.222-0.57,0.403c0.827,1.318,1.581,2.617,2.431,3.852c2.677,3.902,5.401,7.775,8.094,11.668
		c0.829,1.197,0.75,1.427-0.596,2.103c-0.104,0.055-0.22,0.162-0.263,0.273c-0.092,0.249-0.145,0.513-0.21,0.772
		c-0.327-0.191-0.766-0.303-0.966-0.589c-3.212-4.563-6.394-9.149-9.573-13.737c-0.21-0.299-0.375-0.632-0.561-0.947
		c-1.306-2.211-1.345-2.315-3.763-1.437c-6.758,2.449-13.763,2.918-20.76,2.084c-7.302-0.866-14.58-2.128-21.77-3.683
		c-6.464-1.396-12.081-4.85-17.393-8.755C561.896,457.663,561.532,457.36,561.059,456.99z M566.37,370.257
		c-0.066-0.038-0.135-0.077-0.198-0.117c-0.301,0.413-0.642,0.796-0.896,1.232c-2.688,4.612-4.737,9.502-6.121,14.66
		c-0.903,3.395-1.889,6.797-2.413,10.261c-0.813,5.374-1.364,10.794-1.846,16.21c-0.656,7.373-0.463,14.724,1.322,21.957
		c0.692,2.793,1.617,5.537,3.422,7.803c6.793,8.529,15.487,14.188,25.879,17.197c4.347,1.259,8.831,1.028,13.282,0.962
		c4.827-0.073,9.48-1.251,14.051-2.664c4.163-1.284,8.055-3.231,11.529-5.914c1.936-1.496,3.771-3.132,5.754-4.795
		c-0.319-0.118-0.423-0.19-0.534-0.191c-4.815-0.164-9.63-0.302-14.446-0.478c-5.49-0.198-10.734-1.702-15.862-3.477
		c-3.504-1.212-6.854-2.93-10.171-4.625c-4.814-2.464-8.777-6.036-11.986-10.388c-3.416-4.628-6.375-9.528-8.699-14.846
		c-2.432-5.568-3.928-11.371-4.57-17.351c-0.457-4.25-0.353-8.578-0.224-12.863c0.081-2.55,0.581-5.106,1.104-7.616
		C565.1,373.521,565.817,371.907,566.37,370.257z M600.86,464.048c-5.976-0.808-11.898-1.604-17.611-2.377
		C588.703,464.433,594.783,464.149,600.86,464.048z M570.434,370.226c1.452-2.043,2.903-4.088,4.358-6.13
		c-0.121-0.079-0.237-0.16-0.356-0.242C572.428,365.521,571.265,367.764,570.434,370.226z M592.449,466.617
		c0.031-0.092,0.067-0.186,0.096-0.277c-1.423-0.249-2.85-0.498-4.277-0.745c-0.017,0.108-0.036,0.222-0.055,0.332
		C589.623,466.158,591.037,466.389,592.449,466.617z"/>
</g>
</svg>
