<?xml version="1.0" encoding="utf-8"?>
<!-- Generator: Adobe Illustrator 17.1.0, SVG Export Plug-In . SVG Version: 6.00 Build 0)  -->
<!DOCTYPE svg PUBLIC "-//W3C//DTD SVG 1.1//EN" "http://www.w3.org/Graphics/SVG/1.1/DTD/svg11.dtd">
<svg version="1.1" id="Calque_1" xmlns="http://www.w3.org/2000/svg" xmlns:xlink="http://www.w3.org/1999/xlink" x="0px" y="0px"
	 viewBox="368.503 321.732 453.543 198.425" enable-background="new 368.503 321.732 453.543 198.425" xml:space="preserve">
<g>
	<path fill="#FFFFFF" d="M670.144,455.086c-0.208,0.227-0.415,0.454-0.745,0.818c-0.12-0.498-0.201-0.837-0.303-1.254
		c-0.352,0.297-0.676,0.571-1.089,0.918c-0.752-0.547-1.514-1.102-2.378-1.727c-1.418,1.719-2.431-0.41-3.413-0.967
		c-2.762-1.565-2.679-1.721-1.785-4.97c2.937-10.698,3.909-21.55,2.015-32.517c-1.292-7.48-4.492-14.226-8.422-20.715
		c-3.103-5.12-7.09-9.28-11.829-12.796c-4.355-3.233-9.255-5.066-14.659-5.755c-12.385-1.577-23.909,1.299-34.694,7.078
		c-17.527,9.39-31.348,22.666-40.454,40.503c-3.135,6.145-4.468,12.69-2.803,19.578c0.762,3.157,2.679,5.547,5.346,7.688
		c2.471-4.602,4.883-9.094,7.324-13.65c-1.016-0.198-1.882-0.369-3.354-0.659c2.046-2.181,3.635-4.129,5.5-5.767
		c1.448-1.272,3.161-2.312,4.905-3.157c1.794-0.869,3.745-1.448,5.667-2.012c0.945-0.279,2.437,1.142,2.288,2.224
		c-0.156,1.157-0.493,2.344-1.016,3.388c-3.432,6.905-7.007,13.743-10.38,20.679c-1.294,2.654-2.171,5.512-1.944,8.559
		c0.073,0.977,0.228,1.951,0.386,2.915c0.161,0.982,0.374,1.956,0.586,3.042c-1.045-0.083-1.704-0.137-2.651-0.212
		c0.391,0.75,0.625,1.203,0.938,1.804c-0.561,0.098-1.001,0.173-1.484,0.257c0.142,0.332,0.281,0.659,0.489,1.147
		c-0.664,0.122-1.245,0.173-1.782,0.346c-0.386,0.127-0.884,0.337-1.037,0.652c-0.638,1.323-1.419,2.241-3.225,1.546
		c0.403,1.365-0.385,1.211-1.255,1.395c-5.21,1.082-9.277-2.12-13.671-3.75c-6.939-2.571-13.393-6.219-19.213-10.879
		c-3.874-3.103-7.443-6.474-9.749-10.96c-0.847-1.648-0.043-2.815,1.797-3.015c0.475-0.052,0.884-0.696,1.44-1.167
		c0.044,0.044,0.401,0.364,0.918,0.831c-0.121-0.832-0.213-1.47-0.349-2.413c0.616,0.379,0.946,0.582,1.439,0.884
		c-0.209-0.728-0.366-1.267-0.555-1.928c0.648,0.129,1.138,0.225,1.366,0.268c0.55-0.849,0.992-1.526,1.499-2.302
		c0.46,0.488,0.739,0.786,0.831,0.884c0.248-0.371,0.432-0.774,0.729-1.055c0.318-0.31,0.742-0.505,1.268-0.85
		c0.177,0.137,0.495,0.386,0.907,0.703c0.19-0.434,0.345-0.791,0.5-1.15c0.163-0.112,0.325-0.227,0.491-0.339
		c0.152,0.346,0.278,0.706,0.464,1.033c3.95,6.963,10.109,11.56,16.819,15.515c2.776,1.636,5.737,2.957,8.589,4.473
		c1.021,0.544,1.592,0.381,1.968-0.742c0.307-0.927,0.727-1.829,1.133-2.727c0.566-1.257,0.005-1.621-1.186-1.794
		c-2.273-0.332-4.707-0.396-6.736-1.314c-2.29-1.04-4.392-2.706-6.253-4.444c-6.515-6.096-6.503-13.711-4.585-21.626
		c1.883-7.771,6.035-14.392,10.815-20.659c7.273-9.539,15.959-17.6,25.962-24.189c6.187-4.075,12.72-7.644,19.902-9.6
		c5.044-1.37,10.254-2.727,15.43-2.896c11.636-0.375,23.12,1.345,33.916,5.864c23.003,9.624,38.633,32.081,37.844,57.388
		c-0.237,7.598-1.143,15.054-3.382,22.334C674.283,456.927,672.491,457.388,670.144,455.086z"/>
	<path fill="#FFFFFF" d="M626.377,422.464c0.208,3.293-0.703,6.79-2.109,10.139c-1.943,4.642-4.065,9.209-6.076,13.819
		c-0.569,1.304-1.185,1.423-2.5,0.762c-2.586-1.297-5.064-2.781-7.771-3.899c-5.865-2.434-10.176-6.926-14.007-11.85
		c-1.269-1.628-2.312-3.45-3.328-5.259c-1.294-2.312-1.411-4.834-0.693-7.329c0.766-2.681,2.551-4.544,5.357-4.944
		c2.143-0.303,4.355-0.261,6.531-0.186c1.147,0.044,1.951-0.139,2.654-1.116c0.698-0.967,1.557-1.843,2.456-2.634
		c3.818-3.371,7.449-3.764,11.911-1.352C624.727,411.812,626.355,414.705,626.377,422.464z M610.415,438.707
		c3.242-7.949,7.729-14.995,6.787-23.884c-0.532,0.28-0.942,0.371-1.153,0.625c-1.865,2.27-3.681,4.577-5.537,6.848
		c-0.486,0.598-1.038,1.533-1.607,1.573c-0.781,0.051-1.611-0.605-2.524-1.006c-1.003,1.211-2.305-0.11-3.56-0.198
		c-0.87-0.059-1.721-0.293-2.578-0.452c-0.11,0.884-0.224,1.763-0.318,2.644c-0.015,0.154,0.048,0.327,0.109,0.478
		C602.066,430.667,605.909,434.576,610.415,438.707z"/>
</g>
</svg>
