<?xml version="1.0" encoding="utf-8"?>
<!-- Generator: Adobe Illustrator 17.1.0, SVG Export Plug-In . SVG Version: 6.00 Build 0)  -->
<!DOCTYPE svg PUBLIC "-//W3C//DTD SVG 1.1//EN" "http://www.w3.org/Graphics/SVG/1.1/DTD/svg11.dtd">
<svg version="1.1" id="Calque_1" xmlns="http://www.w3.org/2000/svg" xmlns:xlink="http://www.w3.org/1999/xlink" x="0px" y="0px"
	 viewBox="368.503 321.732 453.543 198.425" enable-background="new 368.503 321.732 453.543 198.425" xml:space="preserve">
<g>
	<path fill="#FFFFFF" d="M625.1,391.828c0.424-0.266,0.86-0.702,1.368-0.814c0.749-0.168,1.549-0.131,2.328-0.135
		c1.261-0.01,1.41-0.096,1.711-0.975c1.231-0.372,2.315-0.653,3.361-1.035c0.892-0.325,1.464,0.125,1.792,0.777
		c0.609,1.208,1.123,2.474,1.583,3.749c0.417,1.152,0.711,2.349,1.338,3.46c-0.703-2.668-1.408-5.335-2.111-8.003
		c3.015,1.849,2.683,5.348,4.13,7.945c0.107-0.026,0.215-0.052,0.321-0.077c-0.641-2.573-1.281-5.148-1.924-7.721
		c0.144-0.064,0.289-0.128,0.435-0.193c0.494,0.908,1.16,1.767,1.451,2.737c1.267,4.233,2.479,8.483,3.611,12.755
		c1.85,6.997,3.652,14.007,5.389,21.031c0.201,0.809-0.147,1.755-0.267,2.874c-0.659-0.484-1.054-0.772-1.707-1.249
		c-0.161,0.868-0.288,1.556-0.44,2.367c-0.38-0.203-0.727-0.387-1.167-0.622c0.026,0.566,0.049,1.078,0.08,1.724
		c-0.813,0-1.542,0-2.257,0c-0.609,0.74-1.315,1.598-2.1,2.553c-0.601-0.665-1.094-1.21-1.796-1.986
		c0.067,0.953,0.111,1.59,0.158,2.239c-1.768-0.082-2.356,0.582-2.505,2.233c-0.105,1.173,0.107,2.534-1.147,3.362
		c-0.151,0.1-0.297,0.367-0.28,0.54c0.293,3.027-1.963,4.598-3.763,6.335c-0.616,0.593-1.763,0.703-2.697,0.868
		c-0.57,0.103-1.005-0.112-0.837-0.986c0.224-1.152-0.208-2.117-1.125-3.007c-4.573-4.435-8.519-9.391-11.968-14.746
		c-0.29-0.452-0.619-0.882-1.091-1.551c-0.228,0.575-0.396,0.891-0.479,1.228c-1.862,7.61-3.707,15.223-5.578,22.83
		c-0.155,0.632-0.123,1.507-1.274,1.322c-0.254-0.04-0.598,0.492-0.99,0.839c-0.249-0.829-0.47-1.566-0.791-2.639
		c-0.595,0.823-0.949,1.311-1.302,1.799c-0.126-0.02-0.253-0.042-0.378-0.062c0.086-1.117,0.173-2.235,0.282-3.626
		c-0.532,1.27-0.967,2.307-1.55,3.7c-0.66-0.992-1.095-1.646-1.591-2.395c-0.351,0.135-0.978,0.381-1.695,0.659
		c-0.187-0.719-0.544-1.073-1.458-0.128c0.099-1.389,0.171-2.398,0.245-3.405c-0.073-0.029-0.147-0.057-0.22-0.085
		c-0.427,0.714-0.854,1.427-1.474,2.462c-0.319-1.221-0.539-2.063-0.773-2.955c-0.233,0.183-0.526,0.414-1.185,0.931
		c0-1.367-0.204-2.436,0.031-3.393c2.791-11.415,5.664-22.81,8.45-34.226c0.176-0.728,0.023-1.727-0.361-2.369
		c-1.479-2.471-3.115-4.848-4.943-7.643c-1.565,1.93-3.169,3.47-4.247,5.316c-4.029,6.91-7.877,13.927-11.823,20.887
		c-0.529,0.929-0.485,1.703,0.028,2.616c3.835,6.83,7.664,13.662,11.426,20.533c0.998,1.825,1.846,3.745,2.589,5.689
		c0.391,1.024,0.404,2.191,0.625,3.516c-0.842-0.086-1.362-0.14-1.873-0.194c-0.568,2.727-1.328,3.587-3.23,3.679
		c-1.029,2.445-1.302,2.673-3.068,2.491c-0.081,0.34-0.165,0.69-0.174,0.73c-1.055,0.449-1.88,0.824-2.725,1.147
		c-0.221,0.084-0.507,0.033-0.757,0.006c-1.844-0.205-3.06-1.437-4.693-2.699c0.75-0.083,1.101-0.122,1.572-0.173
		c-0.466-0.759-1.613-1.626,0.548-2.128c-3.021-5.424-5.95-10.679-8.877-15.936c-0.147-0.014-0.294-0.028-0.44-0.042
		c-3.477,7.596-6.82,15.266-11.557,22.184c-0.125-0.056-0.249-0.113-0.375-0.169c2.289-4.95,4.576-9.901,6.865-14.853
		c-0.061-0.028-0.121-0.056-0.182-0.084c-1.506,2.981-2.945,5.997-4.534,8.932c-1.578,2.917-3.308,5.749-5.051,8.759
		c-0.9-0.936-2.484-0.389-2.736-1.936c-0.219,0.087-0.436,0.178-0.875,0.356c0.398-1.218,0.735-2.247,1.071-3.277
		c-0.052-0.048-0.104-0.094-0.155-0.141c-0.883,0.833-1.766,1.668-2.85,2.693c-0.091-0.704-0.156-1.202-0.24-1.85
		c-0.551,0.141-1.023,0.263-1.375,0.354c-1.98-0.95-1.852-2.466-1.167-4.214c-0.849,1.263-1.614,2.572-3.363,2.123
		c-0.411-0.105-0.721-0.598-0.938-1.188c-0.305,0.033-0.612,0.065-1.087,0.117c0.112-0.455,0.156-0.823,0.293-1.154
		c1.435-3.458,2.809-6.946,4.344-10.358c4.073-9.044,8.23-18.051,12.301-27.094c0.26-0.576,0.339-1.478,0.068-2.009
		c-4.972-9.795-9.89-19.626-16.201-28.661c-1.037-1.484-2.303-2.823-3.567-4.131c-1.195-1.238-1.227-2.041,0.12-3.124
		c0.516-0.413,1.04-0.808,1.691-1.31c0.477,0.354,1.044,0.776,1.622,1.203c-0.164-0.68-0.488-1.366-0.454-2.035
		c0.055-1.059,0.888-0.888,1.737-0.607c-0.081-0.484-0.136-0.827-0.199-1.211c0.703-0.232,1.854,0.458,1.755-1.023
		c0.541,0.185,0.959,0.327,1.628,0.555c-0.333-0.533-0.524-0.84-0.744-1.193c0.262,0.038,0.489,0.07,0.818,0.118
		c-0.102-0.387-0.183-0.698-0.263-1c0.445-0.31,0.849-0.665,1.314-0.897c0.607-0.305,1.271-0.724,1.892-0.695
		c0.477,0.022,1.042,0.575,1.372,1.031c2.619,3.617,5.385,7.147,7.726,10.939c2.905,4.703,5.445,9.632,8.148,14.46
		c0.238,0.426,0.505,0.836,0.903,1.488c0.968-1.843,1.763-3.47,2.664-5.036c0.667-1.163,1.484-2.241,2.208-3.374
		c0.342-0.536,0.731-1.077,0.913-1.673c1.335-4.325,4.056-7.939,6.06-11.919c0.12-0.237,0.394-0.404,0.614-0.582
		c0.535-0.432,1.28-0.714,0.745-1.689c-0.113-0.207,0.238-0.873,0.542-1.072c1.823-1.193,2.45-3.128,3.153-4.989
		c0.56-1.487,0.843-1.917,2.619-2.755c0.166,0.607,0.329,1.199,0.491,1.792c0.553-0.35,1.106-0.699,1.745-1.102
		c0.187,0.232,0.408,0.504,0.672,0.829c0.719-0.848,1.295-0.546,2,0.099c0.435,0.396,1.132,0.617,1.737,0.689
		c1.487,0.177,2.194,0.032,2.154,2.165c1.283-1.678,2.078,0.352,3.233,0.092c0,0.617,0,1.115,0,1.776
		c0.523-0.267,0.938-0.479,1.461-0.745c0.268,0.77,0.509,1.465,0.764,2.194c0.27-0.086,0.576-0.185,0.87-0.279
		c0.664,1.218,0.505,2.305-0.224,3.357c-0.508,0.731-0.409,1.242,0.261,1.973c0.992,1.082,1.68,2.441,2.508,3.676
		c0.25,0.372,0.539,0.72,0.905,1.206c0.781-1.721,1.397-3.297,2.193-4.778c1.269-2.367,1.781-2.428,3.939-0.775
		c0.222,0.171,0.474,0.304,0.893,0.57c-0.668,1.577-1.349,3.189-1.905,4.504c0.985-1.132,2.153-2.475,3.323-3.819
		c0.133,0.061,0.267,0.122,0.401,0.182c0.111,0.415,0.221,0.83,0.286,1.079c0.909,0.458,1.703,0.858,2.869,1.445
		c-0.177,0.734-0.306,1.66-0.625,2.516c-0.865,2.331-1.813,4.632-2.441,7.052c1.307-2.767,2.615-5.532,3.922-8.298
		c0.185,0.069,0.371,0.141,0.556,0.21c-0.131,0.432-0.238,0.874-0.398,1.294c-0.545,1.428-1.243,2.816-1.626,4.286
		c-0.362,1.392-0.401,2.87-0.5,4.33c1.409-2.624,2.018-5.63,3.928-8.069c-1.495,4.751-2.962,9.411-4.43,14.071
		c0.122,0.039,0.243,0.078,0.364,0.116c0.474-1.441,0.947-2.88,1.422-4.32c0.068,0.017,0.135,0.034,0.203,0.05
		c-0.357,1.337-0.657,2.691-1.09,4.001c-0.408,1.24-0.19,2.259,0.52,3.356c3.825,5.902,7.771,11.706,12.581,16.874
		c0.282,0.306,0.432,0.735,0.642,1.106c0.18-0.128,0.36-0.257,0.539-0.383C631.111,415.217,629.027,403.285,625.1,391.828z
		 M588.653,376.627c-0.144-0.078-0.286-0.158-0.431-0.237c-3.756,6.819-7.512,13.636-11.268,20.455
		c0.156,0.085,0.311,0.171,0.466,0.257C581.153,390.269,585.978,384.037,588.653,376.627z M607.702,391.995
		c0.102-0.067,0.204-0.134,0.304-0.201c-0.74-1.111-1.48-2.225-2.221-3.337c-0.111,0.074-0.224,0.148-0.336,0.223
		C606.201,389.785,606.952,390.891,607.702,391.995z"/>
</g>
</svg>
