<?xml version="1.0" encoding="utf-8"?>
<!-- Generator: Adobe Illustrator 17.1.0, SVG Export Plug-In . SVG Version: 6.00 Build 0)  -->
<!DOCTYPE svg PUBLIC "-//W3C//DTD SVG 1.1//EN" "http://www.w3.org/Graphics/SVG/1.1/DTD/svg11.dtd">
<svg version="1.1" id="Calque_1" xmlns="http://www.w3.org/2000/svg" xmlns:xlink="http://www.w3.org/1999/xlink" x="0px" y="0px"
	 viewBox="368.503 321.732 453.543 198.425" enable-background="new 368.503 321.732 453.543 198.425" xml:space="preserve">
<g>
	<path fill="#FFFFFF" d="M563.551,433.494c0.997,1.298,2.318,1.747,3.801,1.97c3.704,0.561,7.179-0.393,10.646-1.501
		c0.81-0.258,1.641-0.449,2.464-0.67c0.052,0.102,0.104,0.207,0.155,0.311c-0.578,0.477-1.153,0.956-1.729,1.433
		c0.042,0.081,0.081,0.161,0.123,0.24c0.745-0.344,1.491-0.689,2.281-1.053c0.125,1.366-0.859,2.102-1.708,2.9
		c-3.768,3.546-8.191,3.738-12.792,2.305c-2.386-0.743-4.856-1.507-6.607-3.538c-2.103-2.444-2.794-5.336-2.587-8.491
		c0.231-3.525,0.322-7.07,0.798-10.562c0.447-3.285,1.908-6.237,4.075-8.764c1.184-1.377,2.457-1.674,3.833-1.038
		c1.444,0.671,2.047,1.103,1.438,2.777c-0.089,0.248,0.177,0.636,0.302,0.952c0.149,0.368,0.566,0.911,0.452,1.065
		c-0.806,1.086-0.261,2.273-0.368,3.4c-0.06,0.624-0.297,0.822-0.88,0.554c-0.53-0.244-1.292-0.812-1.566-0.634
		c-0.764,0.499-1.495,1.215-1.943,2.013c-1.849,3.305-2.369,6.949-2.346,10.682c0.011,1.91,1.247,3.169,2.793,3.828
		c1.449,0.616,3.093,0.862,4.678,1.036c2.497,0.275,4.934-0.223,7.171-0.945c-1.188-1.37-2.469-2.673-3.539-4.133
		c-1.1-1.497-1.867-3.173-2.079-5.105c-0.207-1.883-0.81-3.73-0.907-5.612c-0.356-6.889,2.629-12.069,8.248-15.839
		c1.997-1.339,4.13-2.033,6.518-1.673c0.772,0.116,1.51,0.441,2.265,0.671c-0.035,0.158-0.072,0.317-0.111,0.476
		c-0.574-0.102-1.15-0.203-1.977-0.346c0.854,0.408,1.493,0.713,2.133,1.02c-0.018,0.133-0.034,0.27-0.052,0.402
		c-1.922-0.561-3.753-0.612-5.543,0.865c2.573-0.667,4.879-0.786,6.914,0.535c1.449-1.827,2.761-3.792,4.379-5.454
		c3.351-3.443,6.78-6.825,11.101-9.086c2.503-1.311,5.056-1.872,7.846-1.021c0.959,0.292,1.993,0.357,2.999,0.452
		c1.67,0.155,2.729,1.456,2.159,3.016c-0.558,1.518-1.407,2.93-2.154,4.375c-0.09,0.171-0.333,0.258-0.791,0.595
		c0.291-0.77,0.463-1.232,0.7-1.863c-0.477,0.51-0.835,0.89-1.193,1.272c-0.085-0.042-0.168-0.086-0.253-0.129
		c0.272-1.353,1.334-2.55,1.001-4.347c-1.095,1.866-1.435,3.866-3.229,5.262c0.112-0.541,0.169-0.817,0.252-1.22
		c-0.291,0.129-0.523,0.234-0.989,0.441c0.297-0.825,0.525-1.458,0.835-2.322c-0.772,0.921-1.38,1.642-1.99,2.366
		c-0.08-0.045-0.156-0.091-0.237-0.135c0.019-0.264,0.038-0.531,0.061-0.855c-0.33,0.237-0.633,0.456-0.934,0.674
		c-0.076-0.04-0.151-0.079-0.226-0.122c0.299-0.874,0.596-1.75,0.893-2.623c-0.096-0.098-0.193-0.195-0.291-0.294
		c-1.521,1-3.148,1.869-4.545,3.026c-3.786,3.131-5.698,7.189-5.429,12.196c0.133,2.5,2.801,5.096,5.66,5.339
		c4.976,0.42,9.821-0.163,14.564-1.867c8.448-3.033,15.854-7.889,23.097-13.074c4.992-3.577,9.718-7.477,14.051-11.84
		c1.402-1.416,2.622-3.022,3.842-4.444c0.348,0.02,0.783-0.077,1.039,0.094c0.185,0.125,0.291,0.734,0.154,0.914
		c-0.98,1.301-2.032,2.547-3.065,3.807c-0.233,0.285-0.481,0.559-0.721,0.837c0.073,0.07,0.15,0.139,0.224,0.21
		c1.622-1.821,3.245-3.643,4.861-5.458c0.81,1.065,0.579,1.967-0.286,2.874c-1.109,1.165-2.151,2.4-3.221,3.608
		c0.08,0.074,0.156,0.151,0.236,0.225c1.961-2.08,3.922-4.16,5.885-6.241c0.074,0.059,0.151,0.117,0.226,0.173
		c-0.719,1.839-2.377,3.007-3.358,4.696c1.273-1.416,2.544-2.829,3.815-4.245c0.107,0.083,0.214,0.166,0.32,0.249
		c-0.392,0.591-0.712,1.249-1.186,1.762c-1.698,1.837-3.414,3.655-5.182,5.423c-6.304,6.316-13.032,12.133-20.33,17.241
		c-5.063,3.543-10.399,6.663-16.222,8.743c-3.577,1.277-7.318,2.074-10.969,3.15c-0.442,0.132-1.039,0.62-1.106,1.02
		c-0.433,2.623-1.924,4.581-3.689,6.398c-1.936,1.998-4.124,3.657-6.582,4.938c-4.638,2.414-9.565,2.814-14.635,1.986
		c-2.185-0.357-4.352-0.831-6.534-1.218c-0.3-0.052-0.68,0.033-0.953,0.182c-4.532,2.477-9.172,2.768-13.938,0.748
		C563.807,433.432,563.724,433.472,563.551,433.494z M601.063,420.242c-0.211-0.172-0.261-0.244-0.322-0.255
		c-0.185-0.031-0.374-0.043-0.562-0.053c-3.577-0.178-6.985-0.934-10.071-2.887c-2.715-1.721-4.19-4.071-3.843-7.396
		c0.109-1.042,0.247-2.082,0.41-3.432c-0.944,0.337-1.886,0.457-2.56,0.952c-1.758,1.288-3.541,2.603-5.056,4.161
		c-3.056,3.141-4.415,6.939-3.438,11.353c0.159,0.716,0.635,1.511,1.203,1.953c2.85,2.225,6.123,3.108,9.674,2.447
		c4.192-0.779,8.057-2.461,11.628-4.81C599.108,421.63,600.056,420.942,601.063,420.242z M580.852,428.784
		c2.815,1.553,5.705,1.324,8.728,0.426C586.61,429.064,583.739,428.925,580.852,428.784z"/>
	<path fill="#FFFFFF" d="M533.013,425.203c-0.403,0-0.807,0-1.372,0c-0.456-1.518,0.516-2.993,0.658-4.572
		c-0.557,1.074-1.297,2-1.141,3.411c0.094,0.852-0.473,1.78-0.776,2.79c-0.693-0.326-1.194-0.562-1.478-0.697
		c-0.726,0.5-1.392,0.963-2.315,1.602c-0.057-0.674-0.205-1.178-0.121-1.642c0.915-5.046,2.91-9.595,6.286-13.458
		c2.118-2.427,4.579-4.285,7.964-4.517c1.118-0.077,2.223-0.4,3.331-0.62c2.771-0.549,5.118,1.069,5.631,3.896
		c0.939,5.176,0.239,10.24-1.091,15.246c-2.058,7.736-4.764,15.228-8.257,22.428c-0.176,0.358-0.32,0.73-0.319,1.217
		c0.746-0.54,1.462-1.13,2.245-1.613c2.055-1.262,4.057-2.664,6.244-3.635c1.13-0.503,2.607-0.203,3.926-0.266
		c0.178-0.007,0.384,0.052,0.529-0.018c0.886-0.44,1.755-0.763,2.709,0.35c-0.263,1.641-0.453,3.574-0.936,5.425
		c-0.159,0.603-1.09,0.997-1.668,1.488c-0.404,0.345-0.812,0.684-1.212,1.031c-0.167,0.143-0.298,0.337-0.482,0.443
		c-1.85,1.072-3.81,1.988-5.541,3.225c-3.654,2.617-7.207,5.384-10.77,8.131c-1.974,1.52-3.86,3.159-5.828,4.689
		c-1.129,0.875-2.341,1.639-3.721,2.596c-0.065-0.595-0.139-0.947-0.141-1.297c-0.006-2.705-0.02-5.409,0.019-8.113
		c0.008-0.505,0.151-1.063,0.398-1.503c4.553-8.098,9.364-16.048,13.112-24.589c2.773-6.321,3.223-12.848,2.101-19.552
		c-0.155-0.915-0.81-1.759-1.289-2.6c-0.302-0.532-0.723-0.449-1.111-0.038c-2.017,2.145-3.728,4.491-4.711,7.312
		c-0.094,0.275-0.046,0.597-0.094,0.893c-0.146,0.926-0.308,1.849-0.464,2.775C533.225,425.348,533.118,425.276,533.013,425.203z
		 M547.073,422.741c-0.041,0.01-0.099,0.011-0.102,0.025c-1.034,4.074-2.064,8.147-3.148,12.441
		C545.668,431.117,546.853,427.084,547.073,422.741z M543.793,428.515c-0.083-0.024-0.165-0.049-0.248-0.073
		c-0.464,1.566-0.927,3.133-1.392,4.697c0.098,0.029,0.195,0.059,0.292,0.086C542.895,431.655,543.345,430.085,543.793,428.515z"/>
	<path fill="#FFFFFF" d="M661.765,360.247c-0.243,0.72-0.486,1.441-0.766,2.281c0.263-0.152,0.475-0.277,0.996-0.582
		c-0.568,1.316-1.008,2.329-1.446,3.346c0.062,0.04,0.122,0.082,0.183,0.126c0.507-0.642,1.01-1.283,1.514-1.923
		c0.121,0.056,0.238,0.113,0.357,0.171c-0.789,1.913-1.348,3.962-2.409,5.702c-2.366,3.862-5.365,7.224-8.789,10.19
		c-4.078,3.534-8.525,6.514-13.263,9.059c-1.591,0.855-3.159,1.77-4.805,2.505c-0.712,0.319-1.591,0.249-2.726,0.401
		c0.391-0.487,0.555-0.694,0.787-0.982c-0.277-0.079-0.525-0.154-0.869-0.251c0.226-0.273,0.398-0.482,0.716-0.867
		c-0.862,0-1.513,0-2.296,0c0.192-0.339,0.296-0.521,0.406-0.716c-0.368-0.05-0.733-0.1-1.096-0.152
		c6.492-3.545,12.924-7.108,18.479-12.059C652.25,371.581,657.515,366.44,661.765,360.247z"/>
	<path fill="#FFFFFF" d="M633.34,393.084c0.15-0.18,0.302-0.363,0.484-0.582c-0.341-0.093-0.648-0.176-0.953-0.26
		c-0.062-0.11-0.127-0.217-0.19-0.328c12.483-5.647,23.03-13.686,30.78-25.184c-0.835,5.36-4.215,9.05-7.745,12.645
		c-4.22,4.297-9.057,7.758-14.287,10.674c-1.974,1.098-3.983,2.14-6.022,3.108c-0.562,0.266-1.293,0.172-1.943,0.241
		C633.42,393.294,633.381,393.189,633.34,393.084z"/>
	<path fill="#FFFFFF" d="M527.871,473.5c0.559,0.066,1.118,0.205,1.672,0.181c1.024-0.047,2.044-0.27,3.068-0.263
		c0.69,0.001,1.378,0.267,2.07,0.416c-0.17,0.713-0.116,1.641-0.549,2.094c-0.945,0.995-5.05,0.393-6.143-0.927
		c1.394,0.105,2.612,0.198,4.158,0.315c-1.682-0.443-3.035-0.803-4.39-1.158C527.795,473.937,527.832,473.719,527.871,473.5z"/>
	<path fill="#FFFFFF" d="M528.605,478.215c0.877,0.068,1.755,0.13,2.633,0.198c0.005-0.035,0.01-0.074,0.018-0.111
		c-0.798-0.285-1.596-0.57-2.394-0.853c0.031-0.15,0.06-0.302,0.089-0.451c0.39,0.016,0.791-0.02,1.166,0.062
		c1.233,0.268,2.43,0.401,3.626-0.207c0.239-0.121,0.657,0.087,0.973,0.2c0.034,0.01,0.013,0.439-0.1,0.578
		C533.384,479.167,530.406,479.538,528.605,478.215z"/>
	<path fill="#FFFFFF" d="M531.87,481.22c1.042-0.088,2.083-0.174,3.125-0.262c-0.938,0.968-2.031,0.634-3.089,0.611
		C531.894,481.452,531.883,481.336,531.87,481.22z"/>
</g>
</svg>
