<?xml version="1.0" encoding="utf-8"?>
<!-- Generator: Adobe Illustrator 17.1.0, SVG Export Plug-In . SVG Version: 6.00 Build 0)  -->
<!DOCTYPE svg PUBLIC "-//W3C//DTD SVG 1.1//EN" "http://www.w3.org/Graphics/SVG/1.1/DTD/svg11.dtd">
<svg version="1.1" id="Calque_1" xmlns="http://www.w3.org/2000/svg" xmlns:xlink="http://www.w3.org/1999/xlink" x="0px" y="0px"
	 viewBox="368.503 321.732 453.543 198.425" enable-background="new 368.503 321.732 453.543 198.425" xml:space="preserve">
<g>
	<path fill="#FFFFFF" d="M539.366,462.744c0.268,0.047,0.536,0.098,0.839,0.151c-0.047-0.37-0.095-0.724-0.143-1.077
		c0.132-0.123,0.261-0.243,0.392-0.367c6.79,8.974,15.898,14.918,25.591,20.224c-0.25-0.372-0.422-0.869-0.768-1.111
		c-1.47-1.035-2.932-2.108-4.503-2.967c-6.46-3.523-12.127-8.029-16.93-13.639c-1.232-1.439-2.451-2.891-3.872-4.574
		c0.973-0.222,1.637-0.374,2.375-0.544c-0.164-0.349-0.424-0.92-0.562-1.217c0.29-0.698,0.483-1.161,0.699-1.682
		c0.391,0.216,0.874,0.486,1.059,0.587c0.205-1.303,0.402-2.571,0.6-3.837c0.205-1.295,0.408-2.59,0.597-3.806
		c-0.726-0.318-1.597-0.698-2.474-1.08c2.211-4.301,6.408-4.859,10.379-5.79c1.456-0.344,2.947-0.555,4.433-0.743
		c1.182-0.15,1.706-0.624,1.366-1.892c-0.124-0.46,0.023-0.992,0.045-1.489c0.158-0.01,0.319-0.018,0.478-0.026
		c0.144,0.83,0.287,1.658,0.428,2.488c0.057,0,0.116-0.001,0.172-0.001c0-1.717,0-3.436,0-5.155
		c0.137-0.036,0.275-0.077,0.411-0.113c0.181,0.65,0.436,1.289,0.523,1.947c0.124,0.9,0.069,1.824,0.199,2.721
		c0.047,0.315,0.425,0.583,0.651,0.875c0.209-0.339,0.595-0.676,0.595-1.014c0.007-1.92-0.084-3.837-0.135-5.754
		c-0.01-0.293-0.001-0.579-0.001-1.137c0.457,0.365,0.728,0.578,0.997,0.79c0.154-0.212,0.338-0.464,0.522-0.717
		c0.146,0.01,0.294,0.021,0.442,0.031c0.268,2.368,0.538,4.735,0.809,7.104c0.047,0.001,0.096,0.004,0.143,0.004
		c0-2.877,0-5.758,0-8.786c0.461,0.215,0.827,0.384,1.224,0.566c0.127-0.372,0.247-0.733,0.37-1.092
		c0.158-0.018,0.319-0.036,0.476-0.057c0.293,1.61,0.587,3.218,0.921,5.031c1.11-1.178,1.005-4.038,3.737-2.649
		c-0.327,1.01-0.692,2.117-1.056,3.23c0.059,0.022,0.119,0.046,0.18,0.068c0.832-1.581,1.659-3.158,2.521-4.796
		c1.119,0.734,1.828,1.529,2.9,0.516c0.376-0.357,1.206-0.23,1.847-0.622c-0.99-0.18-1.98-0.361-2.714-0.493
		c-0.504-1.527-0.974-2.948-1.536-4.654c1.981-0.098,3.814-0.363,5.627-0.256c22.557,1.292,44.573-1.555,66.035-8.695
		c1.375-0.458,2.698-1.092,4.075-1.532c0.415-0.132,1.133-0.066,1.391,0.211c1.245,1.337,1.392,3.688,0.469,5.309
		c-0.073,0.127-0.112,0.268-0.249,0.605c0.678-0.197,1.211-0.348,1.728-0.499c1.018,1.268,1.404,2.574,1.323,4.262
		c-0.708,14.987,0.288,29.919,1.641,44.836c0.198,2.206,0.567,4.423,1.125,6.57c0.637,2.461-0.412,4.328-1.66,6.19
		c-0.144,0.221-0.583,0.255-0.896,0.345c-0.662,0.191-1.333,0.498-1.997,0.501c-0.537,0-1.07-0.382-1.729-0.642
		c-0.327,0.444-0.712,0.961-1.323,1.771c-0.818-0.52-1.669-1.062-2.607-1.652c-1.426,1.638-3.594,2.169-5.737,2.572
		c-16.609,3.126-33.34,4.543-50.229,3.478c-2.792-0.174-5.589-0.523-8.347-1.007c-1.897-0.332-3.6-0.055-5.318,0.682
		c-0.437,0.185-0.976,0.125-1.46,0.208c-1.471,0.257-2.951-0.527-4.501,0.28c-0.519,0.273-2.1-0.449-2.458-1.121
		c-1.723-3.223-4.844-4.779-7.577-6.733c-5.298-3.786-10.959-7.08-15.487-11.875c-2.135-2.259-4.146-4.639-6.212-6.963
		C539.267,462.943,539.317,462.844,539.366,462.744z M644.03,429.032c-2.846,0.692-5.83,1.53-8.855,2.128
		c-10.664,2.112-21.357,4.126-32.272,4.093c-7.307-0.02-14.615-0.349-21.919-0.597c-1.255-0.04-3.061-0.946-3.616-0.406
		c-0.796,0.777-0.875,2.504-0.917,3.837c-0.297,9.548-0.583,19.099-0.702,28.65c-0.042,3.373,0.341,6.757,0.664,10.124
		c0.056,0.572,0.734,1.145,1.236,1.596c0.44,0.397,1.029,0.635,1.561,0.926c0.708,0.391,1.413,1.077,2.137,1.098
		c7.551,0.198,15.116,0.561,22.659,0.322c6.394-0.2,12.78-0.98,19.138-1.789c6.893-0.874,13.747-2.082,20.622-3.12
		c1.245-0.188,1.646-0.76,1.49-2.052c-1.534-12.63-1.66-25.315-1.236-38.015C644.099,433.575,644.03,431.32,644.03,429.032z
		 M558.348,447.458c-3.55,0.951-7.047,1.486-8.905,5.029c2.946,2.765,5.839,5.47,8.905,8.347
		C558.348,456.262,558.348,452.003,558.348,447.458z M561.806,464.712c0.089-0.049,0.182-0.092,0.275-0.141
		c0-5.888,0-11.775,0-17.665c-0.215-0.054-0.424-0.102-0.635-0.156c-0.169,0.538-0.484,1.077-0.482,1.611
		c0.02,4.803,0.071,9.606,0.185,14.405C561.164,463.418,561.577,464.065,561.806,464.712z M546.736,450.996
		c0.7-0.338,1.266-0.42,1.43-0.724c0.876-1.626,2.32-2.49,3.931-3.086c1.818-0.675,3.691-1.205,5.396-1.749
		C552.447,446.187,547.927,447.558,546.736,450.996z M593.705,487.046c-0.01-0.047-0.017-0.092-0.026-0.138
		c-4.663-0.491-9.33-0.986-13.994-1.477c-0.016,0.211-0.031,0.426-0.049,0.638C584.328,486.395,589.017,486.72,593.705,487.046z
		 M564.843,451.995c-0.05,0-0.1,0-0.15,0.001c0,1.764,0,3.53,0,5.296c0.05,0,0.1-0.004,0.15-0.004
		C564.843,455.523,564.843,453.757,564.843,451.995z M642.043,482.523c0.02,0.073,0.036,0.143,0.054,0.215
		c1.177-0.304,2.373-0.549,3.526-0.932c0.952-0.316,0.789-0.917,0.312-1.46C644.572,481.108,643.308,481.815,642.043,482.523z
		 M553.095,466.145c0.087-0.095,0.174-0.194,0.258-0.289c-1.523-1.345-3.047-2.69-4.571-4.035c-0.093,0.108-0.186,0.216-0.279,0.328
		C550.034,463.479,551.564,464.812,553.095,466.145z"/>
	<path fill="#FFFFFF" d="M613.161,360.593c-1.143-0.076-2.187-0.202-3.23-0.186c-0.279,0.006-0.756,0.404-0.8,0.677
		c-0.262,1.641-1.361,1.645-2.547,1.374c-0.754-0.173-1.003,0.28-1.534,0.643c-0.876,0.609-2.243,1.078-3.232,0.851
		c-4.599-1.063-9.167-1.911-13.945-1.75c-6.115,0.204-11.77,1.786-16.978,4.949c-6.416,3.898-12.346,8.482-17.591,13.881
		c-3.832,3.944-6.552,8.672-8.4,13.877c-0.352,0.983-0.43,2.063-0.671,3.089c-0.166,0.708-0.394,1.402-0.565,1.991
		c-0.793-0.125-1.352-0.221-2.192-0.357c-0.232-2.877,0.966-5.695,1.78-8.592c-2.499,3.247-3.185,7.208-4.035,11.328
		c-3.341-2.207-0.952-4.665-1.207-7.027c-0.247,0.554-0.489,0.991-0.632,1.458c-0.163,0.527-0.2,1.098-0.354,1.628
		c-0.524,1.814-0.223,4.232-3.329,4.217c-0.016-0.141-0.12-0.491-0.094-0.828c0.461-5.374,2.145-10.378,4.629-15.107
		c3.711-7.065,8.716-13.104,14.997-17.936c4.56-3.505,9.293-6.836,14.201-9.82c9.316-5.661,19.664-7.253,30.362-6.948
		c3.394,0.098,6.779,0.483,10.164,0.758c2.174,0.176,3.876,1.378,5.338,2.846C614.909,357.223,613.675,358.874,613.161,360.593z"/>
	<path fill="#FFFFFF" d="M567.845,400.136c-0.587-0.293-0.985-0.488-1.44-0.715c0.976-3.708,4.008-5.884,6.393-8.545
		c-0.086-0.098-0.171-0.199-0.256-0.298c-1.513,1.44-3.152,2.771-4.502,4.351c-1.353,1.579-2.421,3.408-3.79,5.386
		c-0.459-0.871-0.773-1.466-0.948-1.802c-0.952,0.13-1.872,0.251-3.24,0.434c0.546-1.219,0.781-2.235,1.36-2.97
		c5.708-7.249,12.664-12.903,21.173-16.474c8.238-3.461,18.891,0.714,22.756,6.105c0.263,0.37,0.531,0.738,0.74,1.138
		c0.775,1.494,0.642,2.677-0.46,3.542c-1.146,0.902-2.035,0.003-3.108-0.609c-1.045,1.43-2.165,1.133-3.162-0.104
		c-1.57,0.791-2.488,0.56-3.464-0.762c-0.328-0.441-0.719-0.837-1.101-1.242c-4.417-4.669-4.604-4.861-10.583-1.898
		c-6.431,3.193-12.205,7.382-15.838,13.93c-0.072,0.132-0.168,0.257-0.276,0.357C567.99,400.061,567.853,400.128,567.845,400.136z"
		/>
	<path fill="#FFFFFF" d="M584.206,406.491c-0.348-0.224-0.697-0.442-1.25-0.794c1.416-1.228,2.798-2.428,4.183-3.626
		c-0.021-0.065-0.039-0.13-0.06-0.195c-0.549,0.247-1.146,0.43-1.642,0.76c-0.875,0.581-1.666,1.288-2.533,1.885
		c-0.97,0.665-1.956,1.59-3.089,0.141c0.255-0.314,0.604-0.742,1.13-1.387c-1.362,0.228-2.526,1.915-3.721-0.605
		c0.678-0.548,1.552-1.374,2.536-2.027c4.411-2.92,9.049-4.623,14.27-2.251c0.984,0.447,1.882,1.115,2.764,1.758
		c1.09,0.796,2.17,1.621,3.159,2.535c0.609,0.561,1.169,1.259,1.508,2.007c0.207,0.459-0.046,1.134-0.093,1.712
		c-0.485-0.149-0.98-0.275-1.456-0.451c-2.469-0.911-4.888-1.985-7.409-2.694c-1.685-0.477-3.333,0.066-4.742,1.283
		c-1.051,0.906-2.252,1.637-3.385,2.448C584.321,406.825,584.263,406.656,584.206,406.491z"/>
	<path fill="#FFFFFF" d="M594.072,445.571c0.138-0.452,0.247-0.813,0.358-1.174c0.144-0.027,0.292-0.054,0.437-0.083
		c0.185,0.586,0.537,1.174,0.522,1.757c-0.074,2.924-0.24,5.846-0.378,8.77c-0.171,3.577-0.343,7.155-0.52,10.733
		c-0.052,0.999,0.056,1.87,1.01,2.505c0.321,0.216,0.524,0.87,0.495,1.301c-0.065,0.895-0.366,1.77-0.495,2.66
		c-0.184,1.301-0.737,1.884-2.157,1.675c-0.642-0.093-1.365,0.353-2.039,0.703c-1.584-0.265-2.312-1.264-2.276-2.983
		c0.091-4.336,0.005-8.676,0.171-13.009c0.14-3.676,0.526-7.344,0.814-11.014c0.026-0.331,0.133-0.656,0.298-1.453
		c0.879,0.775,1.519,1.342,2.202,1.947c0.121-0.678,0.267-1.521,0.431-2.454C593.35,445.492,593.674,445.528,594.072,445.571z
		 M592.193,452.243c-0.995,5.49-1.198,16.333-0.534,17.262C591.835,463.798,592.015,458.022,592.193,452.243z"/>
	<path fill="#FFFFFF" d="M586.916,449.47c0,1.126,0,2.25,0,3.375c0.06,0.008,0.12,0.01,0.182,0.017
		c0.192-1.352,0.384-2.704,0.573-4.056c0.195-0.013,0.393-0.025,0.59-0.039c0.049,0.647,0.164,1.292,0.138,1.932
		c-0.265,6.714-0.559,13.426-0.824,20.138c-0.032,0.826-0.092,1.571,0.833,2.23c0.392,0.277,0.224,1.801-0.116,2.565
		c-0.357,0.803-0.955,0.086-1.552-0.159c-1.927-0.775-1.789-2.602-1.762-3.931c0.147-6.87,0.539-13.733,0.885-20.593
		c0.029-0.541,0.365-1.066,0.56-1.599C586.584,449.391,586.75,449.43,586.916,449.47z"/>
</g>
</svg>
