<?xml version="1.0" encoding="utf-8"?>
<!-- Generator: Adobe Illustrator 17.1.0, SVG Export Plug-In . SVG Version: 6.00 Build 0)  -->
<!DOCTYPE svg PUBLIC "-//W3C//DTD SVG 1.1//EN" "http://www.w3.org/Graphics/SVG/1.1/DTD/svg11.dtd">
<svg version="1.1" id="Calque_1" xmlns="http://www.w3.org/2000/svg" xmlns:xlink="http://www.w3.org/1999/xlink" x="0px" y="0px"
	 viewBox="368.503 321.732 453.543 198.425" enable-background="new 368.503 321.732 453.543 198.425" xml:space="preserve">
<g>
	<path fill="#FFFFFF" d="M674.713,431.833c-1.221,2.62-2.246,5.217-3.594,7.635c-2.844,5.105-5.781,7.736-12.29,6.576
		c-1.726-0.31-3.409-0.953-5.054-1.594c-0.879-0.341-1.719-0.91-2.424-1.547c-1.067-0.965-1.265-2.614-0.572-3.812
		c1.624-2.806,3.059-5.751,4.971-8.349c2.646-3.601,4.69-7.741,8.237-10.587c2.641-2.115,2.255-2.441,5.571-0.582
		c0.674,0.376,1.355,0.734,2.168,0.896c-0.945-0.688-1.892-1.374-2.837-2.06c0.076-0.12,0.156-0.239,0.232-0.359
		c1.902,1.197,3.823,2.357,5.689,3.6c1.568,1.042,1.643,1.007,2.81-0.38c3.183-3.78,6.657-7.279,10.987-9.743
		c1.816-1.035,3.806-1.656,6.037-0.984c1.086,0.328,1.804,0.829,2,1.861c0.686,3.633,0.273,7.118-1.582,10.377
		c-0.301,0.526-0.544,1.084-0.809,1.63c-1.289,2.651-2.978,4.969-5.159,7c-3.611,3.366-7.547,3.409-11.792,1.599
		C676.493,432.665,675.699,432.281,674.713,431.833z M664.073,424.923c-2.288,3.299-4.441,6.423-6.623,9.53
		c-0.737,1.052-0.578,1.909,0.633,2.264c2.529,0.737,5.09,1.374,7.661,1.964c1.138,0.262,1.763-0.471,2.219-1.457
		c0.886-1.932,1.814-3.844,2.788-5.733c0.833-1.607,0.862-1.571-0.706-2.497c-0.595-0.355-1.123-0.829-1.699-1.222
		C666.942,426.824,665.529,425.891,664.073,424.923z M691.268,420.63c-0.474-1.045-0.696-2.38-1.482-3.059
		c-1.021-0.886-2.529-0.453-3.501,0.359c-2.058,1.715-3.945,3.633-5.908,5.457c-0.92,0.852-0.328,1.598,0.405,1.823
		c2.109,0.646,4.27,1.165,6.445,1.529c0.588,0.099,1.401-0.408,1.938-0.845C690.775,424.579,690.726,422.633,691.268,420.63z"/>
	<path fill="#FFFFFF" d="M643.558,441.249c0.159-3.145,0.318-6.29,0.476-9.436c-0.081-0.005-0.161-0.011-0.242-0.016
		c-0.21,3.295-0.42,6.592-0.644,10.118c-0.628-0.191-1.121-0.344-1.57-0.481c-0.523,0.26-1.148,0.571-1.98,0.983
		c-0.065-1.029-0.109-1.754-0.156-2.477c-0.061-0.012-0.122-0.022-0.183-0.033c-0.144,0.68-0.286,1.356-0.424,2.014
		c-0.52-0.093-1.16-0.032-1.529-0.319c-0.435-0.337-0.893-0.978-0.888-1.482c0.019-2.368,0.198-4.734,0.324-7.195
		c-1.091-0.073-2.053-0.146-3.018-0.202c-1.138-0.064-1.68-0.508-1.499-1.782c0.205-1.428,0.107-2.897,0.307-4.326
		c0.129-0.924,0.556-1.806,0.837-2.668c1.392,0,2.637,0,4.096,0c0-1.055-0.003-1.971,0-2.888c0-3.13,0.008-6.26,0.008-9.388
		c0-0.677-0.242-1.546,0.823-1.572c0.82-0.02,1.833-0.138,1.9,1.356c0.388-0.428,0.649-0.714,0.911-1.001
		c0.256,0.095,0.503,0.232,0.764,0.272c2.115,0.333,2.12,0.328,2.124,2.544c0.005,2.888,0,5.778,0,8.667
		c0.125,0.003,0.249,0.008,0.373,0.01c0-3.467,0-6.934,0-10.403c0.161,0,0.32,0,0.479,0c0,2.921,0.005,5.841-0.003,8.763
		c-0.005,1.051-0.142,2.013,1.54,1.334c1.174-0.475,2.534-0.497,3.811-0.723c1.035-0.186,1.438,0.24,1.237,1.3
		c-0.029,0.155-0.01,0.337,0.049,0.484c0.789,1.98,0.711,3.909-0.1,5.892c-0.459,1.128-1.401,1.254-2.307,1.439
		c-3.303,0.678-2.785,0.418-2.966,3.579c-0.092,1.678-0.146,3.359-0.261,5.037c-0.054,0.806-0.205,1.605-0.522,2.387
		c-0.884-3.339,0.315-6.615,0.366-9.917c-0.164-0.054-0.33-0.108-0.496-0.16c-0.195,0.507-0.522,1.004-0.559,1.522
		c-0.144,2.184-0.176,4.376-0.305,6.561c-0.044,0.758-0.254,1.507-0.388,2.258C643.817,441.284,643.688,441.267,643.558,441.249z"/>
	<g>
		<path fill="#FFFFFF" d="M586.29,431.946c10.1,0.63,20.168,0.515,30.261,1.565c-0.882,1.958-1.787,3.359-4.221,3.093
			c0.396,0.137,0.793,0.264,1.184,0.415c4.719,1.811,6.78,4.543,4.729,8.76c-1.42,2.915-3.154,5.708-4.81,8.676
			c0.188,0.108,0.523,0.298,1.084,0.62c-2.271-0.364-2.232,1.301-2.676,2.293c-0.542,1.198-1.333,1.479-2.417,0.984
			c-1.953-0.891-3.794-1.096-5.644,0.315c0.483-0.026,0.932-0.049,1.616-0.083c-1.421,1.633-3.286,1.797-4.997,1.789
			c-7.268-0.029-14.568,0.149-21.794-0.408c-24.368-1.878-48.711-2.585-73.079-0.095c-0.671,0.07-1.348,0.137-2.023,0.159
			c-0.85,0.029-1.702,0.007-2.554,0.007c-0.081-0.457-0.249-0.796-0.166-1.074c0.273-0.953,1.216-2.188,0.85-2.754
			c-0.762-1.177-0.62-1.804,0.473-2.5c-1.406-2.212,1.582-1.004,1.865-2.058c-0.445-0.092-0.884-0.183-1.514-0.315
			c0.508-0.207,0.884-0.366,1.262-0.525c-0.025-0.078-0.049-0.159-0.076-0.237c-2.051,0-4.109-0.046-6.162,0.015
			c-1.668,0.054-2.578-0.63-2.725-2.092c-0.262-2.612-0.434-5.232-0.701-7.844c-0.076-0.74-0.579-1.512-0.439-2.193
			c0.144-0.73,0.632-1.704,1.284-1.997c2.148-0.952,4.436-1.643,6.675-2.436c-0.003-0.227-0.008-0.454-0.01-0.686
			c-1.477-0.339-2.937-0.757-4.436-1.008c-2.788-0.466-3.574-1.272-2.592-3.714c1.24-3.086,2.724-6.12,4.414-9.026
			c6.538-11.208,12.056-22.769,15.308-35.151c0.171-0.647,0.727-1.211,1.201-1.966c0.366,0.53,0.579,0.833,0.798,1.15
			c1.189-0.96,2.134-2.075,4.006-1.111c0.471,0.239,1.607-0.586,2.635-1.001c0,0.95,0,1.6,0,2.561
			c0.466-0.882,0.803-1.516,1.115-2.116c2.456,0.645,3.972,1.721,2.412,4.431c1.03,0.207,1.818,0.439,2.629,0.52
			c12.177,1.225,24.358,2.439,36.541,3.63c10.156,0.993,20.318,1.975,30.485,2.879c0.804,0.073,1.663-0.706,2.522-0.757
			c0.952-0.052,2.006,0.134,2.866,0.505c0.43,0.183,0.547,0.999,0.762,1.543c0.303,0.762,0.493,1.568,0.854,2.305
			c0.615,1.253,1.44,2.429,1.982,3.708c3.101,7.273,6.963,14.189,11.47,20.82c0.097,0.144,0.205,0.283,0.327,0.405
			c1.794,1.775,1.724,1.714-0.239,3.604c-0.698,0.671-2.346,1.181-1.116,2.7c-0.583,0.057-0.999,0.096-1.277,0.12
			c0.503,0.176,1.27,0.261,1.663,0.655c0.207,0.205-0.247,0.954-0.455,1.633c0.271,0.354,0.779,1.018,1.517,1.985
			C606.417,432.402,596.354,432.176,586.29,431.946z M535.46,425.552c-0.005-0.125-0.005-0.247-0.005-0.368
			c14.27-0.171,28.542-0.34,42.818-0.51c0-0.039,0-0.078,0-0.12c-5.103,0-10.205,0-15.31,0c0,0.01,0,0.017,0,0.029
			c13.498,0,27,0,40.608,0c-0.254-0.444-0.49-0.83-0.698-1.225c-2.91-5.608-5.884-11.191-8.672-16.848
			c-0.586-1.184-1.123-1.707-2.593-1.809c-5.22-0.368-10.439-0.81-15.635-1.384c-17.29-1.911-34.57-3.901-51.862-5.806
			c-0.489-0.051-1.389,0.447-1.555,0.867c-3.462,8.823-8.101,17.146-12.837,25.435c-0.928,1.616-1.69,3.308-2.757,5.41
			c25.993-3.184,51.721-2.703,77.39-3.669C568.053,425.552,551.754,425.552,535.46,425.552z M586.004,446.016
			c0.003-0.083,0.01-0.163,0.013-0.246c0.486,0,0.977-0.037,1.455,0.007c4.536,0.398,9.068,0.847,13.608,1.182
			c0.796,0.059,2.051-0.11,2.383-0.586c1.25-1.78,2.268-3.708,3.235-5.638c0.268-0.537,0.358-1.585,0.012-1.861
			c-1.557-1.235-2.949-2.822-5.298-2.893c-22.427-0.696-44.859-0.81-67.276,0.154c-8.672,0.374-17.315,1.272-25.967,1.995
			c-0.527,0.042-1.426,0.657-1.423,1.001c0.022,2.256,0.242,4.512,0.379,6.48c7.837-0.413,15.264-0.933,22.7-1.167
			c19.468-0.615,38.733,1.518,57.986,3.74c1.892,0.22,3.796,0.378,5.695,0.53c1.824,0.149,3.652,0.254,5.474,0.378
			c0.005-0.081,0.01-0.156,0.014-0.237c-18.181-1.801-36.362-3.606-54.541-5.41c-0.014,0.148-0.024,0.298-0.039,0.444
			c2.52,0,5.059-0.183,7.554,0.035c11.897,1.042,23.779,2.197,35.667,3.301c4.353,0.405,8.708,0.81,13.064,1.145
			c0.64,0.049,1.314-0.278,1.973-0.434c-0.054-0.159-0.109-0.323-0.166-0.484C597.003,446.973,591.505,446.494,586.004,446.016z
			 M507.335,429.947c32.536-3.323,65.183-2.486,97.817-2.077C572.518,427.087,539.874,426.05,507.335,429.947z M509.992,449.673
			c9.956-0.423,20.773-0.882,26.779-1.135C530.719,448.488,519.826,448.059,509.992,449.673z M557.828,431.755
			c0.01,0.034,0.015,0.066,0.02,0.095c7.681,0,15.362,0,23.044,0c0-0.029,0-0.061-0.003-0.095
			C573.204,431.755,565.519,431.755,557.828,431.755z M508.473,446.906c-0.004,0.142-0.01,0.283-0.014,0.427
			c5.859-0.405,11.716-0.813,17.573-1.218c-0.007-0.103-0.014-0.208-0.022-0.31C520.162,446.172,514.318,446.54,508.473,446.906z
			 M543.707,445.993c-0.01-0.036-0.015-0.076-0.03-0.115c-5.195,0-10.393,0-15.591,0c0,0.039,0,0.078,0,0.115
			C533.292,445.993,538.5,445.993,543.707,445.993z"/>
		<path fill="#FFFFFF" d="M540.304,443.606c-2.444,0-4.888,0-7.329,0c0-0.022,0-0.044,0-0.064c2.451,0,4.902,0,7.356,0
			C540.324,443.562,540.311,443.584,540.304,443.606z"/>
	</g>
</g>
</svg>
