<?xml version="1.0" encoding="utf-8"?>
<!-- Generator: Adobe Illustrator 17.1.0, SVG Export Plug-In . SVG Version: 6.00 Build 0)  -->
<!DOCTYPE svg PUBLIC "-//W3C//DTD SVG 1.1//EN" "http://www.w3.org/Graphics/SVG/1.1/DTD/svg11.dtd">
<svg version="1.1" id="Calque_1" xmlns="http://www.w3.org/2000/svg" xmlns:xlink="http://www.w3.org/1999/xlink" x="0px" y="0px"
	 viewBox="368.503 321.732 453.543 198.425" enable-background="new 368.503 321.732 453.543 198.425" xml:space="preserve">
<g>
	<path fill="#FFFFFF" d="M589.316,401.98c-0.804,0.411-1.527,0.781-2.25,1.151c-0.107-0.07-0.216-0.14-0.323-0.21
		c0.201-1.067,0.293-2.168,0.624-3.19c2.648-8.193,6.112-15.969,11.556-22.715c2.258-2.799,5.017-4.977,8.275-6.444
		c2.638-1.19,5.293-2.411,8.054-3.242c2.589-0.781,5.318-0.815,8.06-0.564c3.028,0.277,6.1,0.486,9.126,0.289
		c5.17-0.337,12.007,2.93,13.798,9.29c1.315,4.669,1.124,9.278,0.396,13.968c-0.996,6.42-3.002,12.514-5.887,18.283
		c-2.268,4.535-4.882,8.892-7.28,13.359c-1.854,3.452-3.519,7.007-5.447,10.413c-1.071,1.893-2.5,3.578-3.782,5.342
		c-0.167,0.228-0.427,0.385-0.828,0.737c-0.183-0.842-0.321-1.48-0.514-2.363c-0.563,0.632-1.001,1.122-1.661,1.863
		c-0.333-1.1-0.605-2.001-0.93-3.07c-0.87,1.207-1.616,2.302-2.433,3.34c-0.283,0.36-0.744,0.576-1.121,0.859
		c-0.177-0.445-0.357-0.889-0.53-1.333c-0.065-0.168-0.117-0.344-0.183-0.529c-1.276,0.845-1.276,0.845-2.026-1.523
		c-0.485,0.584-0.922,1.088-1.334,1.611c-0.854,1.083-1.159,1.051-1.735-0.193c-0.043-0.094-0.145-0.163-0.219-0.237
		c-1.742,1.244-2.073,1.074-2.502-1.124c-0.555-2.835-0.125-5.563,1.05-8.124c3.516-7.659,7.165-15.257,10.686-22.916
		c2.24-4.876,4.044-9.934,4.616-15.311c0.43-4.026,0.624-8.103-0.767-12.025c-0.431-1.211-1.082-2.341-1.633-3.509
		c-0.159-0.055-0.317-0.11-0.474-0.166c-0.934,1.046-1.924,2.043-2.788,3.143c-2.786,3.538-5.315,7.268-7.287,11.33
		c-1.478,3.04-2.672,6.223-4.063,9.312c-0.647,1.43-1.271,2.951-2.265,4.115c-0.843,0.987-2.203,1.522-3.504,2.365
		c-0.223-0.804-0.361-1.299-0.504-1.805c-0.706,0.263-1.352,0.521-2.021,0.713c-0.043,0.013-0.236-0.5-0.289-0.617
		c-1.116,0.682-2.26,1.396-3.419,2.083c-0.497,0.296-0.813,0.107-0.852-0.47c-0.029-0.417-0.005-0.841-0.005-1.368
		c-0.633,0.254-1.163,0.47-1.786,0.721c-0.082-0.524-0.138-0.889-0.224-1.444c-0.677,0.385-1.289,0.714-1.885,1.074
		C589.694,403.522,589.536,403.452,589.316,401.98z M613.835,372.91c1.176-0.555,2.349-1.108,3.742-1.766
		C615.836,371.04,615.179,371.352,613.835,372.91z"/>
	<path fill="#FFFFFF" d="M592.536,437.843c-0.55-0.628-1.102-1.258-1.844-2.107c-0.063,1.163-0.11,2.049-0.177,3.294
		c-0.852-0.807-1.478-1.401-2.372-2.247c0,2.277,0,4.224,0,6.512c-0.789-0.844-1.317-1.408-2.051-2.194
		c-0.08,0.908-0.132,1.514-0.213,2.445c-0.789-0.728-1.375-1.268-2.133-1.966c-0.081,1.464-0.154,2.727-0.238,4.226
		c-0.685-0.475-1.156-0.801-1.797-1.247c-0.033,0.727-0.027,1.253-0.095,1.768c-0.03,0.241-0.147,0.568-0.326,0.664
		c-0.138,0.074-0.458-0.111-0.654-0.245c-0.909-0.624-1.758-1.346-2.708-1.894c-5.597-3.235-11.28-6.327-16.809-9.677
		c-4.553-2.764-8.823-5.917-12.279-10.112c-3.893-4.724-6.05-9.952-5.372-16.177c0.654-6.007,2.425-11.683,5.346-16.935
		c1.646-2.959,4.093-5.196,7.031-6.971c2.011-1.217,3.875-2.774,5.556-4.435c2.397-2.368,5.224-3.434,8.465-3.9
		c3.107-0.452,5.971,0.021,8.516,1.811c3.562,2.504,7.034,5.154,7.785,9.93c0.082,0.523,0.182,1.09,0.066,1.586
		c-0.266,1.124-0.625,2.228-1.029,3.308c-0.106,0.284-0.505,0.456-0.767,0.677c-0.154-0.27-0.341-0.524-0.453-0.809
		c-0.105-0.272-0.135-0.574-0.458-0.911c-0.185,0.542-0.377,1.08-0.552,1.625c-0.36,1.134-0.357,1.135-1.509,1.017
		c-0.349,1.124-0.67,2.271-1.074,3.389c-0.112,0.31-0.466,0.531-0.708,0.793c-0.17-0.287-0.374-0.562-0.498-0.868
		c-0.17-0.423-0.279-0.868-0.489-1.538c-0.267,0.764-0.405,1.326-0.664,1.823c-0.166,0.317-0.513,0.537-0.78,0.802
		c-0.127-0.31-0.259-0.62-0.38-0.932c-0.055-0.14-0.089-0.286-0.36-0.491c-0.334,1.057-0.634,2.122-1.022,3.156
		c-0.094,0.253-0.476,0.396-0.724,0.59c-0.137-0.26-0.297-0.512-0.41-0.781c-0.068-0.165-0.071-0.359-0.283-0.577
		c-0.211,0.664-0.374,1.351-0.666,1.979c-0.134,0.29-0.518,0.458-0.789,0.682c-0.127-0.27-0.263-0.538-0.381-0.812
		c-0.359-0.837-0.534-1.831-1.094-2.486c-2.643-3.095-5.615-5.887-9.522-7.184c-3.619-1.201-3.3-0.835-3.502,2.251
		c-0.228,3.515,0.543,6.812,2.361,9.849c2.199,3.677,4.935,6.894,8.469,9.277c4.473,3.015,9.005,5.957,13.65,8.691
		c3.015,1.777,5.937,3.625,8.398,6.129c1.503,1.53,1.971,3.525,1.983,5.62c0.01,1.163-0.103,2.328-0.161,3.492
		C592.726,437.767,592.63,437.804,592.536,437.843z M553.137,394.152c-1.408,1.514-2.084,3.316-1.764,5.428
		C551.96,397.771,552.547,395.962,553.137,394.152z M557.002,392.018c-1.155,0.777-0.925,1.975-0.947,3.099
		C556.371,394.083,556.688,393.051,557.002,392.018z"/>
	<path fill="#FFFFFF" d="M598.749,460.202c0.82-2.415,1.665-4.831,3.62-6.583c0.557-0.5,1.308-0.907,2.03-1.057
		c1.337-0.277,2.716-0.372,4.082-0.457c0.332-0.02,0.682,0.297,1.024,0.458c-0.283,0.293-0.527,0.642-0.857,0.855
		c-0.279,0.182-0.653,0.207-0.987,0.302c0.02,0.132,0.039,0.264,0.056,0.395c0.72-0.066,1.438-0.132,2.158-0.194
		c0.79-0.07,1.578-0.139,1.715,1.007c1.117-0.11,2.177-0.27,3.238-0.29c0.366-0.009,0.737,0.331,1.106,0.514
		c-0.304,0.277-0.58,0.591-0.917,0.822c-0.31,0.208-0.681,0.327-1.026,0.486c0.042,0.115,0.083,0.232,0.126,0.347
		c0.599-0.038,1.201-0.141,1.791-0.087c0.398,0.035,0.776,0.293,1.16,0.453c-0.318,0.294-0.63,0.6-0.964,0.877
		c-0.102,0.084-0.267,0.091-0.384,0.302c1.131-0.076,2.261-0.172,3.395-0.215c1.253-0.047,1.345,0.098,0.954,1.301
		c0.52,0.077,1.048,0.111,1.552,0.247c0.251,0.068,0.453,0.317,0.678,0.486c-0.228,0.216-0.433,0.477-0.695,0.633
		c-0.214,0.127-0.504,0.13-0.779,0.19c0.226,0.947,0.767,1.304,1.666,1.1c0.073-0.016,0.17-0.033,0.227,0
		c1.281,0.742,3.069,1.206,3.688,2.325c0.57,1.029,0.151,2.867-0.317,4.171c-0.868,2.402-2.721,3.793-5.303,4.209
		c-2.031,0.326-4.044,0.797-6.043,1.287c-1.485,0.366-2.671-0.163-3.863-0.953c-1.193-0.79-2.483-1.428-3.659-2.236
		c-0.63-0.431-1.259-1.001-1.608-1.658c-0.326-0.614-0.621-0.764-1.227-0.638c-1.885,0.392-3.065-0.583-4.311-1.914
		c-1.708-1.819-1.615-3.862-1.394-6.031C598.703,460.503,598.728,460.351,598.749,460.202z"/>
	<path fill="#FFFFFF" d="M598.749,460.202c-0.022,0.15-0.046,0.301-0.07,0.452c-1.004,3.844-3.758,6.629-5.866,9.795
		c-0.54,0.807-1.428,1.415-2.253,1.966c-0.216,0.143-0.794-0.27-1.18-0.581c-0.659,0.055-1.188,1.591-2.081,0.065
		c-0.602,0.516-1.152,1.007-1.725,1.466c-0.557,0.446-0.994,0.349-1.194-0.372c-0.081-0.293-0.084-0.608-0.121-0.907
		c-0.544-0.044-1.062-0.087-1.481-0.122c-0.888,0.918-1.754,1.846-2.665,2.727c-0.275,0.264-0.682,0.388-1.029,0.576
		c-0.169-0.353-0.346-0.702-0.499-1.061c-0.053-0.121-0.044-0.267-0.087-0.557c-0.242,0.232-0.35,0.392-0.5,0.47
		c-0.377,0.201-0.773,0.364-1.16,0.541c-0.135-0.372-0.329-0.734-0.398-1.12c-0.516-2.887,0.151-5.656,1.327-8.201
		c0.802-1.742,2.216-3.202,3.379-4.769c0.458-0.615,0.948-1.214,1.491-1.751c0.36-0.355,0.839-0.589,1.264-0.877
		c0.195,0.453,0.39,0.905,0.64,1.484c0.329-0.38,0.714-0.78,1.05-1.221c0.557-0.73,1.09-1.007,1.631,0.094
		c0.836-1.007,1.593-1.97,2.408-2.878c0.225-0.253,0.622-0.353,0.941-0.52c0.1,0.337,0.216,0.674,0.296,1.016
		c0.066,0.287,0.09,0.583,0.123,0.801c0.64-0.421,1.241-0.818,1.841-1.215c0.148,0.408,0.297,0.822,0.498,1.378
		c0.564-0.698,1.078-1.383,1.648-2.014c0.314-0.352,0.723-0.618,1.089-0.921c0.221,0.391,0.444,0.783,0.723,1.278
		c0.34-0.422,0.678-0.922,1.099-1.332c0.214-0.211,0.578-0.266,0.876-0.39c0.096,0.272,0.281,0.55,0.273,0.816
		C598.963,456.281,598.85,458.24,598.749,460.202z"/>
</g>
</svg>
