<?xml version="1.0" encoding="utf-8"?>
<!-- Generator: Adobe Illustrator 17.1.0, SVG Export Plug-In . SVG Version: 6.00 Build 0)  -->
<!DOCTYPE svg PUBLIC "-//W3C//DTD SVG 1.1//EN" "http://www.w3.org/Graphics/SVG/1.1/DTD/svg11.dtd">
<svg version="1.1" id="Calque_1" xmlns="http://www.w3.org/2000/svg" xmlns:xlink="http://www.w3.org/1999/xlink" x="0px" y="0px"
	 viewBox="368.503 321.732 453.543 198.425" enable-background="new 368.503 321.732 453.543 198.425" xml:space="preserve">
<g>
	<path fill="#FFFFFF" d="M650.825,420.103c-0.073-1.051-0.573-2.338-0.146-3.092c0.569-1.001,0.637-1.928,0.556-2.894
		c-0.801-9.71-1.607-19.421-2.509-29.124c-0.533-5.675-1.246-11.334-1.88-17c-0.161-1.477-0.337-2.952-0.508-4.464
		c-2.146,0.787-2.143,0.787-2.004,2.792c0.036,0.54,0.054,1.079,0.081,1.62c-0.149-0.439-0.136-0.892-0.215-1.326
		c-0.073-0.426-0.21-1.18-0.375-1.196c-1.197-0.117-0.659-0.905-0.591-1.465c-1.233-0.513-1.487-1.173-1.055-2.634
		c-0.354-0.129-0.708-0.256-0.879-0.317c0.059-0.763,0.108-1.355,0.176-2.211c-1.46,0.195-2.901,0.316-4.312,0.598
		c-1.802,0.359-3.657,0.65-5.342,1.342c-1.861,0.759-3.545,1.948-5.318,2.926c-5.903,3.267-12.002,6.106-18.633,7.468
		c-5.286,1.087-10.645,1.833-15.972,2.724c-0.51,0.086-1.06,0.265-1.533,0.158c-1.656-0.372-3.328-0.728-4.917-1.309
		c-5.845-2.136-11.667-4.331-17.478-6.561c-3.251-1.248-6.467-2.592-9.968-2.963c-2.104-0.225-4.216-0.243-6.157,0.766
		c-1.216,0.637-2.344,1.45-3.535,2.139c-0.693,0.401-0.804,0.861-0.533,1.615c0.354,0.988,0.718,2.019,0.794,3.053
		c0.344,4.679,0.603,9.365,0.862,14.049c0.24,4.319,0.44,8.639,0.651,12.957c-0.242-1.108-0.393-2.221-0.476-3.339
		c-0.43-5.902-0.813-11.807-1.272-17.708c-0.149-1.907-0.369-3.824-0.789-5.682c-0.139-0.627-0.996-1.089-1.523-1.625
		c-0.537,0.651-1.565,0.688-1.596,1.997c-0.222,9.392,0.261,18.754,0.886,28.117c0.188,2.79,0.027,5.602,0.027,8.402
		c-0.064,0.003-0.127,0.006-0.195,0.007c-0.474-12.301-0.948-24.602-1.426-37.018c-0.212-0.046-0.625-0.138-1.162-0.255
		c-0.102,0.557-0.234,1.022-0.258,1.492c-0.069,1.262-0.166,2.532-0.117,3.793c0.244,6.316,0.615,12.625,0.784,18.944
		c0.246,9.383,0.363,18.771,0.527,28.159c0.022,1.321,0.003,2.643,0.003,3.967c-0.625-9.073-1.099-18.141-1.333-27.22
		c-0.237-9.088-1.807-18.125-0.708-27.316c-0.805,0.155-1.279,0.247-2.011,0.389c-0.059,3.646-0.254,7.355-0.141,11.055
		c0.122,3.987,0.62,7.962,0.786,11.953c0.318,7.705,0.601,15.416,0.738,23.128c0.11,6.447-0.074,12.898,0.034,19.342
		c0.024,1.661-0.198,3.749,2.378,4.474c0-1.717,0-3.332,0-4.945c0.864,1.478,0.698,3.371,2.549,4.403
		c0.078-0.694,0.149-1.306,0.244-2.16c0.283,0.719,0.479,1.229,0.776,1.983c0.547-1.232,0.816,0.077,1.421-0.055
		c0.081-0.725,0.164-1.457,0.263-2.344c2.959,1.208,5.787,2.4,8.643,3.516c7.573,2.961,15.142,5.924,22.742,8.809
		c2.958,1.125,6.157,1.687,8.452,4.083c1.743-0.689,2.183-2.221,2.634-4.106c0.538,0.622,0.977,1.01,1.26,1.494
		c0.813,1.385,1.973,2.253,3.516,2.593c4.456,0.987,10.796-2.007,12.998-6.089c0.166-0.31,0.542-0.611,0.874-0.703
		c5.647-1.581,10.837-4.212,15.964-6.995c1.35-0.733,2.786-1.324,4.08-2.143c5.854-3.698,11.66-7.47,17.51-11.179
		c1.242-0.788,2.597-1.403,4.121-2.217C651.14,424.629,650.986,422.366,650.825,420.103z M625.889,371.064
		c-3.628,1.316-7.224,2.722-10.888,3.927c-5.466,1.798-11.147,2.589-16.829,3.303c-0.564,0.072-1.169-0.195-1.755-0.306
		c0.01-0.156,0.019-0.314,0.029-0.469c10.024-1.182,19.944-2.812,29.284-6.964C625.784,370.724,625.837,370.893,625.889,371.064z
		 M608.398,373.597c-4.551,1.221-9.18,1.884-13.833,2.383c-0.014-0.123-0.034-0.247-0.052-0.371
		C599.146,374.94,603.77,374.266,608.398,373.597z M594.565,382.548c0.122,4.921,0.244,9.841,0.366,14.761
		c-0.054,0.007-0.105,0.014-0.156,0.022c-0.147-4.924-0.291-9.851-0.44-14.777C594.414,382.552,594.487,382.549,594.565,382.548z
		 M595.581,455.035c0.003-0.083,0.007-0.165,0.01-0.247c0.982,0,1.963,0,2.94,0c0.003,0.133,0.005,0.267,0.007,0.397
		C597.554,455.136,596.567,455.085,595.581,455.035z M638.774,422.846c-4.27,2.651-8.378,5.576-12.712,8.103
		c-5.804,3.378-11.727,6.562-17.685,9.654c-2.136,1.107-4.514,1.775-6.833,2.488c-0.723,0.222-1.606-0.042-2.409-0.127
		c-1.145-0.124-2.263-0.202-3.181,1.018c0.415,0.639,0.815,1.259,1.27,1.964c-0.064,0.248-0.415,0.871-0.237,1.188
		c0.178,0.314,0.891,0.431,1.372,0.44c2.366,0.04,4.734,0.017,7.209,0.137c-0.669,0.26-1.326,0.674-2.016,0.748
		c-1.299,0.142-2.62,0.067-3.931,0.13c-0.437,0.021-0.869,0.191-1.301,0.293c0.159,0.603-0.496,1.57,0.742,1.702
		c0.134,0.016,0.263,0.1,0.368,0.241c-3.115,0.172-5.943-0.642-8.415-2.571c-0.222-0.171-0.418-0.643-0.34-0.885
		c0.273-0.867-0.129-1.385-0.8-1.675c-1.514-0.65-3.042-1.275-4.6-1.807c-3.325-1.129-6.689-2.151-10.007-3.299
		c-7.632-2.639-15.242-5.342-22.874-7.985c-0.987-0.341-2.034-0.504-3.066-0.696c-0.664-0.122-0.903-0.411-0.928-1.137
		c-0.322-10.032-0.651-20.065-1.04-30.092c-0.259-6.605-0.615-13.208-0.918-19.81c-0.034-0.772-0.005-1.544,0.144-2.32
		c0.43,7.645,0.803,15.298,1.304,22.936c0.586,8.916,1.264,17.824,1.98,26.729c0.056,0.686-0.332,1.844,1.057,2.068
		c0.251,0.039,0.354,1.02,0.527,1.568c0.156-0.025,0.315-0.047,0.469-0.071c-0.247-3.604-0.495-7.207-0.74-10.811
		c0.93,3.435,0.357,7.167,2.307,10.315c0.804-0.236,1.568-0.465,2.332-0.686c0.798-0.234,0.864-0.829,0.805-1.538
		c-0.356-4.185-0.759-8.367-1.025-12.557c-0.352-5.539-0.544-11.089-0.893-16.626c-0.611-9.609-1.29-19.214-1.936-28.82
		c-0.024-0.352-0.047-0.706-0.073-1.13c0.493,0.59,0.891,1.128,1.355,1.595c0.181,0.18,0.606,0.355,0.759,0.262
		c0.295-0.178,0.72-0.6,0.672-0.829c-0.224-1.056,0.435-0.912,1.045-0.934c2.91-0.105,5.549,0.91,8.164,2.02
		c8.68,3.687,17.344,7.412,26.585,9.499c0.708,0.159,1.311,0.22,1.328,1.311c0.176,10.533,0.427,21.06,0.652,31.587
		c0.015,0.733,0,1.465-0.185,2.198c-0.513-11.483-1.026-22.97-1.535-34.456c-0.139-0.025-0.279-0.046-0.415-0.068
		c-0.139,0.321-0.276,0.646-0.405,0.953c-0.147-0.16-0.335-0.359-0.725-0.781c-0.066,0.645-0.142,1.024-0.134,1.402
		c0.1,4.569,0.203,9.141,0.325,13.71c0.234,8.814,0.43,17.629,0.752,26.438c0.127,3.539,0.532,7.066,0.845,10.595
		c0.039,0.475,0.288,0.931,0.396,1.406c0.254,1.13,0.616,2.134,2.227,2c-0.227-2.046-0.459-4.144-0.693-6.239
		c1.118,1.807,0.913,4.248,3.315,5.753c-0.107-1.152-0.19-2.06-0.305-3.279c0.42,1.056,0.734,1.839,0.979,2.458
		c0.608,0.057,1.055,0.099,1.387,0.129c-0.815-17.854-1.636-35.754-2.469-53.898c1.142,0.342,2.004,0.602,2.883,0.866
		c0.889-1.139,0.288-2.243,0.029-3.204c6.323-1.311,12.724-2.363,18.97-4.01c6.279-1.658,12.258-4.282,18.144-7.613
		c0.234,5.212,0.366,10.1,0.686,14.972c0.496,7.618,1.125,15.223,1.687,22.835c0.344,4.676,0.649,9.352,1.003,14.029
		C640.098,421.694,639.697,422.271,638.774,422.846z"/>
	<path fill="#FFFFFF" d="M612.651,458.621c-0.364,0.544-0.493,0.941-0.764,1.105c-1.321,0.809-1.692,2.059-1.518,3.456
		c0.344,2.746,0.796,5.476,1.214,8.21c0.086,0.564,0.239,1.115,0.336,1.676c0.092,0.544,0.151,1.1,0.225,1.649
		c-0.117,0.016-0.24,0.032-0.357,0.047c-0.664-3.876-1.333-7.753-2-11.627c-0.717,3.734,0.752,7.269,1.214,10.854
		c-1.433-0.569-2.815-1.009-4.086-1.667c-0.752-0.388-1.226-0.271-1.819,0.201c-1.99,1.586-4.004,3.141-6.082,4.763
		c-1.091-1.109-2.204-2.224-3.295-3.359c-1.094-1.141-2.305-2.043-3.974-2.322c-0.044,0.715-0.083,1.377-0.117,1.875
		c-2.924,1.333-5.224,3.528-7.905,5.621c1.385-6.435,2.456-12.574,1.787-18.975c-0.583,0.297-0.967,0.496-1.553,0.796
		c0,0.997,0,2.196,0,3.395c-0.049-0.003-0.098-0.004-0.149-0.006c-0.105-0.798-0.212-1.593-0.32-2.388
		c-0.818,1.492-0.708,3.09-1.231,4.632c-0.954,2.815-1.182,5.891-1.611,8.873c-0.225,1.57-0.273,3.171-0.33,4.758
		c-0.012,0.404,0.245,0.816,0.379,1.223c0.102-0.014,0.205-0.029,0.307-0.043c0.117-0.239,0.232-0.478,0.337-0.699
		c0.42,0.144,0.884,0.2,1.226,0.436c1.377,0.948,3.198,1.111,4.448,0.134c1.899-1.483,3.719-3.081,5.649-4.698
		c0.273,0.402,0.596,0.91,0.955,1.39c1.091,1.464,2.165,2.949,3.33,4.355c0.325,0.396,0.94,0.548,1.421,0.813
		c0.066-0.12,0.134-0.237,0.203-0.357c-0.215-0.306-0.424-0.612-0.459-0.663c0.562-0.29,1.104-0.57,1.734-0.895
		c-0.391-0.503-0.63-0.807-0.906-1.165c0.3-0.131,0.63-0.372,0.72-0.303c0.971,0.773,1.602-0.018,2.29-0.479
		c0.572-0.381,1.094-0.839,1.658-1.233c0.212-0.151,0.6-0.387,0.701-0.31c0.82,0.621,1.189-0.117,1.604-0.534
		c0.422-0.418,0.745-0.939,1.111-1.415c1.094,0.851,2.124,1.69,3.191,2.474c1.235,0.909,2.487,1.792,3.764,2.639
		c0.461,0.306,0.994,0.539,1.526,0.682c0.195,0.051,0.481-0.25,0.726-0.393c-0.594-0.671,0.31-0.775,0.435-1.173
		c0.198-0.618,0.647-1.292,0.542-1.853c-1.047-5.526-2.161-11.044-3.328-16.548C613.674,460.615,613.125,459.734,612.651,458.621z"
		/>
</g>
</svg>
