<?xml version="1.0" encoding="utf-8"?>
<!-- Generator: Adobe Illustrator 17.1.0, SVG Export Plug-In . SVG Version: 6.00 Build 0)  -->
<!DOCTYPE svg PUBLIC "-//W3C//DTD SVG 1.1//EN" "http://www.w3.org/Graphics/SVG/1.1/DTD/svg11.dtd">
<svg version="1.1" id="Calque_1" xmlns="http://www.w3.org/2000/svg" xmlns:xlink="http://www.w3.org/1999/xlink" x="0px" y="0px"
	 viewBox="368.503 321.732 453.543 198.425" enable-background="new 368.503 321.732 453.543 198.425" xml:space="preserve">
<g>
	<path fill="#FFFFFF" d="M587.04,371.725c0.251-0.123,0.505-0.246,0.803-0.393c0.11,0.389,0.232,0.82,0.41,1.457
		c0.058-0.657,0.1-1.115,0.144-1.609c0.323,0.232,0.569,0.406,0.82,0.586c0.083-0.062,0.171-0.125,0.257-0.189
		c0.5,2.07,0.993,4.142,1.494,6.211c0.086-0.016,0.169-0.031,0.254-0.046c-0.432-1.999-0.862-3.996-1.292-5.996
		c0.054-0.024,0.107-0.051,0.159-0.076c0.086,0.115,0.167,0.232,0.323,0.447c0.19-0.409,0.354-0.762,0.52-1.117
		c0.701,0.212,1.382,0.418,2.095,0.633c0.01-0.045,0.081-0.344,0.24-1.031c0.493,0.632,0.964,0.99,1.103,1.443
		c0.498,1.622,0.886,3.28,1.46,4.889c-0.346-1.924-0.698-3.849-1.05-5.773c1.938,1.476,1.57,3.763,2.627,5.572
		c-0.323-1.719-0.645-3.436-0.964-5.154c0.131-0.026,0.263-0.047,0.397-0.07c0.447,1.697,0.898,3.393,1.348,5.091
		c0.063-0.012,0.122-0.027,0.185-0.038c-0.237-1.183-0.474-2.366-0.713-3.545c0.059-0.014,0.117-0.028,0.173-0.042
		c0.251,0.96,0.498,1.921,0.761,2.878c0.315,1.157,0.791,1.139,1.911,0.651c0.774-0.34,1.846-0.117,2.771-0.02
		c0.427,0.046,0.823,0.395,1.362,0.672c-0.369,0.319-0.635,0.549-0.901,0.784c1.992,0.978,2.442,1.723,1.931,2.94
		c0.52,0.627,0.996,1.196,1.582,1.905c-0.601,0.261-1.047,0.459-1.487,0.655c0.476,0.117,0.955,0.236,1.27,0.316
		c0,0.762,0.178,1.438-0.049,1.948c-0.227,0.516-0.791,1.104-1.323,1.245c-1.49,0.388-3.037,0.56-4.766,0.852
		c0.178,1.764,0.43,3.524,0.524,5.294c0.091,1.627,0.926,3.315-0.378,5.016c-0.181-0.477-0.328-0.87-0.589-1.557
		c-0.381,0.776-0.657,1.329-1.047,2.118c-0.879-3.436-0.713-6.883-1.638-10.171c0.323,3.456,0.65,6.913,0.987,10.512
		c-0.779-0.15-1.614,0.203-1.699-0.887c-0.264,0.476-0.525,0.954-0.818,1.486c-0.257-0.177-0.44-0.299-0.62-0.427
		c-0.101,0.226-0.193,0.441-0.367,0.837c-0.464-1.399-0.866-2.611-1.269-3.821c-0.051,0-0.11,0.001-0.159,0.001
		c0.088,1.2,0.17,2.401,0.259,3.601c-0.122,0.061-0.245,0.121-0.371,0.184c-0.479-0.707-0.957-1.414-1.314-1.94
		c-0.017,0.262-0.068,0.861-0.115,1.472c-1.065-0.285-1.24-1.04-1.323-1.907c-0.234-2.357-0.505-4.711-0.764-7.057
		c-0.603-0.159-1.404,0.541-1.704-0.529c-0.049-0.168-0.959-0.212-1.443-0.144c-1.845,0.262-3.674,0.596-5.708,0.935
		c0,4.65,0,9.411,0,14.237c4.278,0.404,8.186,1.699,11.04,5.194c-0.298,0.26-0.491,0.426-0.676,0.589
		c0.645,1.03,1.358,1.987,0.611,3.226c-0.101,0.167,0.109,0.522,0.198,0.783c0.232,0.696,0.727,1.432-0.401,1.87
		c0.171,0.303,0.318,0.568,0.305,0.547c-0.257,0.771-0.307,1.391-0.637,1.797c-0.349,0.432-0.932,0.831-1.479,0.938
		c-0.559,0.108-1.269,0.25-1.653-0.646c-0.279-0.645-0.904-1.319-1.552-1.62c-1.565-0.717-3.225-1.247-4.866-1.807
		c-0.874-0.296-1.736-0.305-2.139,0.31c-1.125-0.148-2.114-0.508-3-0.353c-3.404,0.582-6.767,1.342-10.154,2.005
		c-1.514,0.298-3.037,0.6-4.573,0.773c-1.125,0.127-2.439,0.362-2.727-1.342c0.315-0.033,0.625-0.065,0.617-0.065
		c-0.256-0.628-0.539-1.327-0.862-2.118c0.289-0.055,0.645-0.122,1.04-0.198c-0.424-0.251-0.815-0.479-1.397-0.819
		c0.544-0.135,0.867-0.217,1.294-0.326c-0.336-0.143-0.622-0.262-1.049-0.441c0.454-0.312,0.813-0.561,1.221-0.842
		c-0.325-0.137-0.669-0.283-1.145-0.484c0.246-0.155,0.43-0.275,0.612-0.392c-0.149-0.135-0.307-0.28-0.594-0.542
		c0.683,0,1.206,0,1.731,0c0-0.036,0.002-0.073,0.007-0.108c-0.486-0.137-0.971-0.276-1.375-0.389
		c0.091-0.486,0.178-0.935,0.288-1.525c0.044-0.021,0.286-0.132,0.593-0.275c-0.134-0.205-0.247-0.38-0.366-0.56
		c0.059-0.042,0.125-0.122,0.178-0.121c3.345,0.223,6.409-0.988,9.561-1.722c3.027-0.704,3.018-0.746,3.025-3.726
		c0.024-12.097,0.051-24.194,0.078-36.292c0.003-0.532,0.003-1.061,0.003-1.591c-0.176-0.125-0.346-0.251-0.518-0.374
		c-0.137,0.309-0.198,0.684-0.42,0.921c-2.791,2.99-5.601,5.963-8.423,8.924c-0.454,0.478-1.023,0.846-1.514,1.29
		c-0.679,0.608-1.292,0.158-1.755-0.202c-0.589-0.459-1.016-1.107-1.552-1.724c0.176-0.154,0.485-0.431,0.966-0.857
		c-0.737,0.19-1.255,0.321-2.083,0.533c0.401-0.522,0.598-0.781,0.923-1.205c-0.445,0.15-0.713,0.24-1.104,0.37
		c0.073-0.518,0.142-0.978,0.215-1.471c-0.245,0.083-0.559,0.191-0.87,0.297c-0.036-0.248-0.073-0.496-0.159-1.067
		c0.052-0.062,0.307-0.387,0.793-1c-0.661,0.308-0.998,0.466-1.414,0.657c-0.393-0.679-0.793-1.365-1.198-2.068
		c4.194-4.305,8.611-8.606,12.227-13.57c1.562-2.147,2.84-4.426,3.435-7.021c0.078-0.338,0.53-0.89,0.723-0.859
		c0.571,0.096,1.297-0.393,1.753,0.503c0.256,0.494,1.047,0.74,1.604,1.084c0.127,0.077,0.332,0.06,0.432,0.152
		c2.419,2.234,4.414,4.567,4.902,8.039c1.047,7.462,1.221,14.951,1.359,22.451c0.008,0.451,0,0.902,0,1.536
		c2.324-0.497,4.473-0.955,6.624-1.411c-0.498-2.447-0.971-4.759-1.445-7.072C586.747,371.667,586.894,371.695,587.04,371.725z"/>
	<path fill="#FFFFFF" d="M625.209,402.407c1.272,0.497,2.217,0.849,3.142,1.236c0.203,0.086,0.518,0.342,0.491,0.456
		c-0.254,1.073,0.837,1.499,1.138,2.292c0.078,0.207,0.241,0.441,0.198,0.624c-0.188,0.754,0.276,1.245,0.574,1.864
		c0.366,0.76,0.41,1.702,0.43,2.569c0.017,0.647-0.019,1.458-0.391,1.923c-2.136,2.647-4.121,5.362-8.313,5.314
		c-5.339-0.061-10.129-1.184-14.16-4.751c-1.622-1.435-1.846-1.312-2.686,0.574c-0.327,0.74-0.617,1.495-0.971,2.219
		c-0.571,1.165-0.881,1.376-2.327,1.691c-0.689-1.388-1.504-2.76-2.046-4.227c-0.522-1.422-0.837-2.93-1.084-4.421
		c-0.112-0.673-0.003-1.477,0.285-2.102c2.747-5.98,5.498-11.957,8.357-17.887c4.366-9.066,8.821-18.093,13.235-27.139
		c0.286-0.583,0.554-1.174,0.906-1.936c-2.255-0.366-4.377-0.798-6.521-1.036c-2.841-0.315-5.617,0.018-8.328,0.996
		c-1.091,0.396-2.317,0.521-3.489,0.599c-0.396,0.026-0.987-0.38-1.216-0.746c-0.4-0.636-0.615-1.387-0.835-2.111
		c-0.042-0.133,0.266-0.365,0.42-0.556c-1.203-0.454-0.669-1.331-0.432-2.147c-0.891-0.543-1.001-1.146-0.307-1.642
		c-1.286-0.753,0.149-1.929-0.454-2.75c4.751-1.962,9.658-2.586,14.773-1.673c2.495,0.445,5.022,0.757,7.546,1.052
		c1.674,0.193,3,0.639,3.674,2.369c0.681,1.733,1.844,3.302,2.436,5.054c1.001,2.947,0.671,5.915-0.669,8.736
		c-1.706,3.583-3.464,7.145-5.212,10.711c-4.36,8.9-8.716,17.8-13.103,26.688c-0.363,0.741-0.134,1.098,0.498,1.486
		c2.564,1.573,5.415,2.146,8.398,2.263c0.398,0.016,0.808-0.047,1.192,0.018c2.173,0.376,3.354-1.043,4.565-2.352
		c0.246-0.265,0.242-0.777,0.273-1.184C625.241,403.924,625.209,403.361,625.209,402.407z M611.02,356.129
		c1.513,0.077,3.061,0.16,4.612,0.24c0-0.079,0.003-0.16,0.003-0.24C614.086,356.129,612.536,356.129,611.02,356.129z"/>
	<path fill="#FFFFFF" d="M602.528,495.004c-0.195-0.414-0.513-0.832-0.598-1.288c-0.427-2.333-0.84-4.671-1.167-7.019
		c-0.227-1.635-0.259-1.772-1.885-1.37c-3.064,0.76-6.108,1.609-9.248,2.447c-0.034-0.161-0.107-0.496-0.183-0.832
		c-1.99,0.59-2.857,0.329-3.354-0.923c-0.781-0.05-1.528-0.1-2.327-0.152c0.049-0.531,0.083-0.9,0.13-1.383
		c-0.381,0.176-0.679,0.315-0.953,0.444c-0.366-0.614-0.713-1.195-1.062-1.775c-0.129,0.029-0.259,0.059-0.388,0.087
		c1.418-3.874,2.605-7.846,4.314-11.602c3.181-7.007,6.658-13.892,10.049-20.809c0.461-0.942,1.008-1.974,2.464-1.385
		c0.071-0.181,0.144-0.362,0.217-0.542c0.098,0.07,0.195,0.139,0.291,0.206c0.076,0.234,0.149,0.467,0.271,0.859
		c0.237-0.379,0.396-0.635,0.698-1.122c0,0.617,0,0.949,0,1.444c0.209-0.406,0.352-0.677,0.532-1.018
		c0.298,0.515,0.53,0.913,0.796,1.368c0.554-0.527,0.154-1.853,1.584-1.25c0.616,0.258,1.621-0.223,2.129,0.1
		c0.441,0.275,0.427,1.215,0.678,2.087c0.576-2.25,0.576-2.25,1.377-2.162c0.132,1.286,0.264,2.569,0.396,3.852
		c0.027-0.003,0.051-0.003,0.076-0.004c0-1.312,0-2.623,0-4.007c0.442,0.066,0.794,0.117,1.214,0.177
		c0.862,9.202,1.729,18.475,2.603,27.805c4.57-0.237,8.926-0.464,13.281-0.69c0.002-0.035,0.012-0.073,0.017-0.11
		c-0.328-0.039-0.652-0.081-1.079-0.133c2.068-0.304,3.845,0.201,5.722,0.795c1.817,0.579,3.604,1.115,5.242,2.095
		c1.656,0.992,1.443,1.884,0.261,2.737c-0.539,0.392-1.052,0.824-1.628,1.152c-0.672,0.382-1.311,0.331-2.127,0.074
		c-1.633-0.513-3.383-1.029-5.065-0.974c-4.289,0.139-8.569,0.589-12.854,0.923c-0.305,0.025-0.608,0.111-1.162,0.219
		c0.5,2.945,0.987,5.837,1.497,8.729c0.036,0.198,0.22,0.409,0.393,0.542c0.725,0.548,0.998,1.062,0.058,1.681
		c-0.178,0.117-0.198,0.458-0.383,0.93c-0.513-0.471-0.911-0.833-1.382-1.267c-0.044,0.354-0.081,0.696-0.156,1.329
		c-0.988-0.158-1.906-0.353-2.834-0.428c-0.332-0.029-0.686,0.243-1.04,0.35c-1.477,0.449-2.717,0.236-3.603-1.164
		c0.207,0.427,0.412,0.855,0.754,1.562c-1.206-0.486-2.004-0.888-2.197-1.919c-0.464-2.486-0.926-4.97-1.387-7.453
		c-0.063-0.348-0.12-0.694-0.18-1.044c-0.122,0.022-0.244,0.043-0.369,0.062C601.479,488.472,602.001,491.708,602.528,495.004z
		 M598.28,470.828c-0.115-0.03-0.232-0.065-0.346-0.098c-1.236,2.85-2.471,5.704-3.816,8.809c1.297-0.211,2.263-0.377,3.233-0.531
		c1.828-0.289,1.828-0.287,1.819-2.076c0-0.055,0.01-0.108,0,0.012c0.095,0.33,0.237,0.818,0.38,1.304
		c0.07-0.015,0.14-0.03,0.208-0.047c-0.342-2.661-0.686-5.322-1.028-7.983c-0.078,0.007-0.159,0.016-0.24,0.022
		c0.181,1.728,0.364,3.456,0.544,5.181c-0.032,0.003-0.058,0.005-0.086,0.008C598.727,473.893,598.5,472.363,598.28,470.828z
		 M595.883,457.139c-4.263,7.871-8,15.9-10.81,24.308C588.678,473.344,592.279,465.242,595.883,457.139z M610.158,474.133
		c0.049-0.009,0.097-0.017,0.146-0.026c-0.706-7.977-1.416-15.952-2.124-23.928c-0.081,0.006-0.164,0.014-0.242,0.021
		C608.678,458.177,609.418,466.154,610.158,474.133z M586.105,474.229c-0.076-0.031-0.149-0.062-0.223-0.091
		c-1.096,2.678-2.19,5.353-3.286,8.033c0.137,0.05,0.273,0.102,0.408,0.152C584.04,479.625,585.072,476.926,586.105,474.229z
		 M600.119,476.508c0.063-0.009,0.129-0.014,0.193-0.022c-0.307-2.715-0.61-5.431-0.918-8.146c-0.115,0.012-0.227,0.026-0.336,0.038
		C599.406,471.089,599.762,473.799,600.119,476.508z M597.924,450.101c-0.098-0.05-0.198-0.098-0.295-0.148
		c-0.657,1.171-1.311,2.341-1.966,3.512c0.078,0.042,0.161,0.081,0.24,0.121C596.579,452.424,597.25,451.263,597.924,450.101z"/>
	<path fill="#FFFFFF" d="M615.273,437.241c-0.403,0.173-0.667,0.288-0.991,0.428c0.349,0.15,0.625,0.27,1.043,0.448
		c-0.276,0.505-0.525,0.961-0.767,1.402c0.257,0.603,0.547,1.296,0.884,2.096c-0.835,0.198-1.517,0.358-2.271,0.536
		c0.676,0.142,1.264,0.263,1.699,0.354c-0.242,0.763-0.256,1.58-0.688,1.987c-0.539,0.505-1.401,0.895-2.154,0.951
		c-2.417,0.181-4.846,0.201-7.271,0.253c-4.783,0.105-9.487,0.708-14.158,1.713c-1.719,0.367-3.516,0.397-5.105,0.56
		c-0.2-0.597-0.305-0.917-0.44-1.322c0.11-0.025,0.383-0.087,0.745-0.169c-0.302-0.141-0.544-0.255-0.859-0.396
		c0.224-0.151,0.42-0.281,0.664-0.448c-0.284-0.108-0.484-0.183-0.682-0.263c-0.003-0.077-0.003-0.155-0.008-0.232
		c1.331-0.1,2.661-0.198,3.99-0.296c-0.003-0.048-0.003-0.095-0.007-0.141c-1.448,0-2.898,0-4.351,0
		c-0.015-0.084-0.024-0.169-0.036-0.253c0.373-0.064,0.754-0.127,1.284-0.215c-0.547-0.261-0.989-0.472-1.431-0.681
		c0.012-0.081,0.025-0.158,0.036-0.237c0.449-0.062,0.896-0.122,1.604-0.217c-0.63-0.173-1.035-0.284-1.597-0.436
		c0.398-0.307,0.73-0.562,1.133-0.875c-0.361-0.161-0.727-0.325-1.225-0.548c0.376-0.113,0.642-0.193,1.11-0.336
		c-0.464-0.152-0.737-0.243-1.138-0.374c0.43-0.152,0.755-0.267,1.208-0.43c-0.381-0.111-0.667-0.194-1.003-0.292
		c0.254-0.333,0.456-0.602,0.672-0.885c-0.151-0.105-0.325-0.227-0.616-0.432c0.5-0.186,0.889-0.329,1.367-0.509
		c-0.334-0.137-0.608-0.249-1.106-0.452c0.498-0.102,0.784-0.173,1.071-0.216c4.109-0.605,8.218-1.25,12.339-1.794
		c2.005-0.265,4.034-0.332,6.049-0.492c2.527-0.202,5.049-0.437,7.578-0.594c1.592-0.1,1.594-0.048,2.952,1.128
		c-0.379,0.208-0.73,0.402-1.279,0.704C614.069,436.572,614.477,436.799,615.273,437.241z"/>
	<path fill="#FFFFFF" d="M610.114,422.313c-0.315,0.197-0.628,0.395-1.14,0.712c0.678,0.255,1.194,0.449,1.802,0.677
		c-0.267,0.227-0.481,0.409-0.789,0.667c0.444,0.061,0.813,0.111,1.401,0.19c-0.21,0.562-0.396,1.072-0.564,1.531
		c0.422,0.474,0.964,1.078,1.607,1.797c-0.75,0.298-1.357,0.538-2.295,0.91c0.938,0.073,1.55,0.121,2.351,0.185
		c-0.437,0.592-0.779,1.056-1.116,1.512c0.186,0.056,0.44,0.132,0.742,0.225c-0.722,1.621-2.17,1.631-3.589,1.617
		c-2.136-0.02-4.29-0.297-6.404-0.109c-4.79,0.421-9.56,1.04-14.331,1.626c-0.808,0.1-1.584,0.437-2.529,0.71
		c-0.288-2.039-2.346-3.581-1.616-5.676c-0.303-0.523-0.713-0.946-0.786-1.418c-0.146-0.958-0.183-1.946-0.105-2.913
		c0.019-0.263,0.574-0.631,0.935-0.703c2.021-0.409,4.045-0.897,6.089-1.07c5.823-0.495,11.655-0.875,17.488-1.234
		c0.932-0.057,1.887,0.23,2.835,0.357C610.104,422.042,610.109,422.178,610.114,422.313z"/>
</g>
</svg>
