<?xml version="1.0" encoding="utf-8"?>
<!-- Generator: Adobe Illustrator 17.1.0, SVG Export Plug-In . SVG Version: 6.00 Build 0)  -->
<!DOCTYPE svg PUBLIC "-//W3C//DTD SVG 1.1//EN" "http://www.w3.org/Graphics/SVG/1.1/DTD/svg11.dtd">
<svg version="1.1" id="Calque_1" xmlns="http://www.w3.org/2000/svg" xmlns:xlink="http://www.w3.org/1999/xlink" x="0px" y="0px"
	 viewBox="368.503 321.732 453.543 198.425" enable-background="new 368.503 321.732 453.543 198.425" xml:space="preserve">
<g>
	<path fill="#FFFFFF" d="M568.131,428.472c-0.987-3.756-1.817-7.404-2.91-10.965c-1.568-5.128-3.303-10.207-5.032-15.282
		c-0.312-0.915-1.101-1.667-1.387-2.579c-0.139-0.438,0.232-1.24,0.625-1.596c0.618-0.557,1.456-0.878,2.229-1.319
		c-0.156-0.231-0.315-0.456-0.547-0.785c0.381-0.043,0.664-0.076,1.055-0.122c-0.303-0.227-0.537-0.401-0.945-0.706
		c0.435-0.023,0.676-0.037,0.989-0.056c-1.099-1.939,0.396-1.998,1.787-2.289c-0.628-0.091-1.084-0.155-1.438-0.207
		c-0.151-0.495-0.273-0.904-0.418-1.382c0.266-0.092,0.559-0.188,0.874-0.293c-0.132-0.275-0.266-0.534-0.362-0.719
		c1.794-0.428,3.51-0.891,5.251-1.234c0.95-0.188,1.946-0.279,2.908-0.203c0.566,0.042,1.102,0.488,1.888,0.87
		c-0.638,0.164-1.031,0.267-1.748,0.455c0.732,0.522,1.253,0.89,1.967,1.392c-0.781,0.089-1.391,0.155-2.004,0.225
		c-0.008,0.062-0.02,0.122-0.03,0.184c0.735,0.129,1.47,0.264,2.444,0.442c-0.384,0.607-0.682,1.068-1.021,1.603
		c1.435,0.415,1.406,1.84,1.706,3.146c0.696,3.023,1.631,5.999,2.205,9.049c0.813,4.301,1.386,8.647,2.058,12.974
		c0.036-0.24,0.081-0.521,0.176-1.141c0.088,0.67,0.134,1.012,0.18,1.358c-0.628-7.671-1.826-15.258-3.467-22.78
		c0.107-0.023,0.215-0.046,0.318-0.07c0.659,3.169,1.336,6.329,1.965,9.501c0.642,3.206,1.323,6.408,1.839,9.637
		c0.52,3.238,0.852,6.506,1.284,9.884c2.158-0.389,4.255-0.769,6.36-1.145c6.409-1.144,12.859-1.857,19.372-2.024
		c1.155-0.031,2.254,0.052,3.164,1.021c-0.337,0.217-0.659,0.419-1.172,0.746c0.594,0.309,1.055,0.551,1.641,0.853
		c-0.234,0.208-0.476,0.413-0.732,0.643c0.398,0.099,0.786,0.198,1.34,0.343c-0.223,0.554-0.427,1.058-0.613,1.513
		c0.432,0.58,0.94,1.264,1.541,2.068c-0.684,0.244-1.27,0.448-2.088,0.738c0.809,0.169,1.375,0.29,2.081,0.442
		c-0.442,0.56-0.791,1.012-1.138,1.454c0.19,0.106,0.424,0.242,0.676,0.386c-1.262,1.943-3.421,1.412-5.132,1.992
		c-0.091,1.319,0.865,2.846-1.167,3.819c0.647,0.092,0.986,0.138,1.32,0.184c-0.127,0.992-0.027,2.094-0.454,2.928
		c-0.32,0.63-0.38,1.684-1.547,1.81c-2.864,0.301-5.698,0.923-8.56,1.052c-4.146,0.178-8.301,0.033-12.448,0.029
		c-0.442,0-0.884,0-1.236,0c-0.227,14.272-0.456,28.43-0.674,42.359c0.884,0.039,1.87,0.086,2.812,0.129
		c-0.378,0.729-0.669,1.277-1.037,1.979c0.693-0.105,1.11-0.171,1.531-0.237c0.036,0.059,0.068,0.115,0.1,0.174
		c-0.62,0.478-1.243,0.96-1.865,1.441c0.027,0.043,0.049,0.082,0.073,0.128c0.752-0.261,1.496-0.517,2.522-0.87
		c-0.293,0.814-0.488,1.368-0.722,2.027c0.251,0.135,0.716,0.389,1.238,0.672c-0.185,0.211-0.357,0.413-0.608,0.696
		c0.349,0.02,0.62,0.036,1.211,0.066c-0.904,0.6-1.552,1.026-2.2,1.455c0.02,0.076,0.039,0.151,0.059,0.227
		c0.603-0.086,1.203-0.171,1.961-0.284c-0.684,0.884-0.3,1.227,0.53,1.444c0.984,0.25,1.936,0.616,2.915,0.89
		c1.379,0.389,2.868,0.607,3.208,2.461c-0.379-0.04-0.767-0.079-1.482-0.149c0.29,0.626,0.517,1.105,0.786,1.698
		c-0.444-0.026-1.001-0.066-1.9-0.122c0.779,0.449,1.294,0.75,2.029,1.174c-0.647,0.389-1.16,0.706-1.811,1.091
		c-0.039,0.319,1.228,0.91,0.012,1.48c-0.014,0.011,0.161,0.43,0.32,0.835c-0.972-0.205-1.785-0.376-2.602-0.548
		c-0.03,0.04-0.064,0.083-0.093,0.122c0.613,0.43,1.231,0.858,2.022,1.409c-0.806,0.194-1.398,0.34-2.051,0.498
		c0.14,0.191,0.291,0.399,0.713,0.979c-1.191-0.112-2.131-0.052-2.976-0.302c-2.531-0.746-5.019-1.636-7.544-2.401
		c-0.554-0.171-1.228-0.164-1.799-0.033c-4.677,1.102-9.233,2.562-13.496,4.845c-1.24,0.665-1.76,0.375-2.227-0.951
		c-0.312-0.894-0.923-1.689-1.255-2.578c-0.229-0.603-0.205-1.3-0.318-2.095c-1.502-1.039-0.73-2.983-1.219-4.487
		c1.927-1.469,5.368-1.171,5.288-4.841c0.227,0.039,0.422,0.076,0.73,0.132c-0.142-0.37-0.259-0.68-0.449-1.181
		c0.53,0.112,0.918,0.198,1.536,0.326c-0.442-0.333-0.703-0.531-1.135-0.848c0.615-0.202,1.069-0.349,1.604-0.525
		c-0.289-0.245-0.525-0.448-0.804-0.682c0.195-0.336,0.38-0.659,0.591-1.026c0.328,0.118,0.659,0.231,1.267,0.439
		c-0.5-0.409-0.762-0.626-1.025-0.844c0.637-0.68,1.231-1.306,1.956-2.082c0.696,0.349,1.572,0.791,2.776,1.405
		c0-1.534,0.156-2.846-0.032-4.103c-0.581-3.868,0.22-7.677,0.332-11.516c0.105-3.781,0.401-7.557,0.415-11.336
		c0.017-5.613-0.134-11.225-0.224-16.839c-0.005-0.436-0.064-0.872-0.095-1.286c-5.117-0.626-17.808,3.033-25.857,7.419
		c0.449,0.238,0.877,0.465,1.304,0.693c-0.015,0.105-0.025,0.211-0.042,0.316c-1.839-0.898-3.286,0.085-4.856,0.706
		c-0.523,0.198-1.333-0.359-1.987-0.557c0.376-0.529,0.635-0.883,0.891-1.24c-0.366-0.184-0.727-0.37-1.438-0.729
		c0.396-0.211,0.686-0.366,1.133-0.6c-0.513-0.142-0.844-0.231-1.323-0.363c0.263-0.564,0.508-1.087,0.696-1.49
		c-0.339-0.69-0.686-1.388-1.036-2.097c0.379-0.244,0.713-0.456,1.158-0.738c-0.376-0.221-0.664-0.386-0.818-0.475
		c0-0.897,0-1.699,0-2.73c-0.049,0.033,0.178-0.122,0.405-0.271c-0.2-0.066-0.434-0.145-0.761-0.256
		c0.378-0.453,0.688-0.812,1.065-1.254c-0.435-0.033-0.781-0.056-1.114-0.083c-0.215-1.098,0.029-1.77,1.302-1.648
		c-0.455,0-0.906,0-1.341,0c0.044-0.505,0.081-0.938,0.115-1.368c-0.092-0.033-0.188-0.07-0.281-0.103
		c0.254-0.221,0.51-0.442,0.762-0.66c-0.176-0.165-0.307-0.293-0.413-0.392C548.141,434.052,558.007,431.302,568.131,428.472z
		 M577.352,422.404c-0.773-8.34-1.943-16.61-4.047-24.736C574.655,405.916,576,414.161,577.352,422.404z M564.052,401.183
		c-0.105,0.033-0.215,0.073-0.322,0.107c1.406,4.283,2.812,8.57,4.214,12.857c0.131-0.046,0.256-0.089,0.388-0.129
		C566.903,409.742,565.48,405.461,564.052,401.183z"/>
	<path fill="#FFFFFF" d="M594.027,408.6c-0.257,0.185-0.52,0.372-0.503,0.359c-0.806-0.118-1.426-0.053-1.853-0.312
		c-0.517-0.318-1.191-0.872-1.25-1.382c-0.3-2.702-0.415-5.425-0.61-8.143c-0.159-2.137-0.344-4.271-0.513-6.372
		c0.464-0.026,1.047-0.056,1.889-0.105c0.017,0.01,0.337,0.211,0.655,0.415c0.134-0.069,0.273-0.135,0.412-0.201
		c0.323,3.568,0.642,7.138,0.965,10.708c0.091-0.01,0.178-0.016,0.261-0.023c-0.159-2.384-0.312-4.764-0.471-7.142
		c0.049-0.01,0.095-0.013,0.142-0.02c0.036,0.467,0.068,0.933,0.109,1.401c0.1-0.013,0.201-0.029,0.305-0.046
		c-0.179-1.058-0.437-2.117-0.508-3.182c-0.049-0.723,0.161-1.461,0.279-2.326c0.867,0.663,1.506,0.934,2.368,0.519
		c0.234-0.112,1.044,0.343,1.128,0.656c0.286,1.132,0.381,2.312,0.53,3.483c0.058,0.512,0.056,1.025,0.085,1.616
		c0.735-0.561,0.776-1.861,0.466-5.475c0.134,0.647,0.305,1.292,0.391,1.942c0.093,0.677,0.11,1.362,0.159,2.066
		c1.072-0.456,1.072-0.456,1.267-3.434c0.097,0.578,0.198,1.155,0.352,2.035c1.272-1.551,2.552-2.783,3.42-4.258
		c1.497-2.516,3.882-3.359,6.47-3.736c3.526-0.515,6.948-0.525,10.249,1.471c1.963,1.19,4.375,1.684,6.633,2.301
		c0.74,0.198,1.719-0.046,2.458-0.368c3.081-1.339,5.833-3.213,8.382-5.402c3.469-2.992,4.344-6.83,3.742-11.147
		c-0.796-5.708-3.374-10.76-6.057-15.738c-2.922-5.425-6.36-10.503-10.742-14.895c-6.37-6.383-13.979-8.973-22.91-7.634
		c-2.924,0.438-5.464,1.82-7.902,3.378c-7.705,4.912-12.869,11.828-15.962,20.359c-0.086,0.231-0.161,0.461-0.251,0.688
		c-0.027,0.066-0.088,0.116-0.349,0.439c1.69-5.908,4.529-10.81,8.3-15.216c-0.105-0.084-0.205-0.167-0.31-0.25
		c-1.286,1.592-2.68,3.11-3.838,4.795c-1.213,1.767-2.331,3.636-3.259,5.573c-0.906,1.898-1.628,3.901-2.239,5.921
		c-0.603,2.007-0.962,4.082-1.428,6.128c-0.105-0.022-0.215-0.043-0.322-0.066c0.686-3.181,1.367-6.362,2.08-9.671
		c-1.89,4.263-2.583,8.664-3.037,13.158c0-1.223,0-2.452,0-3.677c-0.03,0-0.059,0-0.093-0.004c-0.207,1.218-0.412,2.435-0.612,3.648
		c-0.337-4.359,0.608-8.519,1.794-12.645c-2.219,4.718-2.212,9.989-3.686,14.901c-0.03-0.517-0.057-1.038-0.088-1.556
		c-0.051-0.01-0.105-0.023-0.164-0.04c-0.161,0.686-0.328,1.366-0.488,2.052c-0.161-0.033-0.323-0.059-0.488-0.089
		c0.522-4.6,1.04-9.197,1.511-13.402c-1.513,4.071-2.087,8.773-2.321,13.544c-0.12-0.023-0.234-0.043-0.354-0.066
		c0-1.521,0-3.04,0-4.809c-0.156,1.491-0.296,2.747-0.424,4.001c-0.086-0.006-0.171-0.01-0.254-0.017c0-2.117,0-4.229,0-6.34
		c-0.036-0.004-0.068-0.008-0.102-0.008c-0.229,2.256-0.461,4.518-0.693,6.774c-0.081-0.006-0.171-0.017-0.259-0.023
		c0-1.79,0-3.581,0-5.109c-0.1,1.027-0.232,2.32-0.359,3.609c-0.122-0.007-0.241-0.013-0.361-0.023
		c0.156-2.081,0.185-4.182,0.488-6.237c2.595-17.554,17.346-30.301,33.535-33.076c6.936-1.189,13.901-1.471,20.842,0.174
		c6.797,1.613,12.251,5.337,16.765,10.536c6.096,7.023,10.549,15.018,13.801,23.702c1.279,3.411,1.721,6.942,1.326,10.557
		c-0.31,2.856-1.521,5.375-3.614,7.295c-8.281,7.594-17.893,11.561-29.292,10.187c-2.031-0.241-4.023-0.957-5.991-1.593
		c-0.865-0.277-1.362-0.238-1.953,0.518c-2.888,3.68-5.833,7.314-8.765,10.958c-0.407,0.505-0.781,1.224-1.318,1.408
		c-1.529,0.518-2.754,1.863-4.548,1.685c-0.332-0.036-0.723,0.158-1.04,0.333C595.331,409.002,594.691,409.366,594.027,408.6z
		 M649.53,372.447c-0.052,0-0.1,0.004-0.148,0.004c0,1.857,0,3.713,0,5.573c0.048-0.003,0.097-0.006,0.148-0.006
		C649.53,376.16,649.53,374.303,649.53,372.447z M645.592,376.265c-0.103-0.016-0.21-0.033-0.318-0.053
		c-0.237,1.465-0.471,2.928-0.703,4.396c0.112,0.013,0.224,0.033,0.337,0.053C645.138,379.197,645.368,377.734,645.592,376.265z"/>
</g>
</svg>
