<?xml version="1.0" encoding="utf-8"?>
<!-- Generator: Adobe Illustrator 17.1.0, SVG Export Plug-In . SVG Version: 6.00 Build 0)  -->
<!DOCTYPE svg PUBLIC "-//W3C//DTD SVG 1.1//EN" "http://www.w3.org/Graphics/SVG/1.1/DTD/svg11.dtd">
<svg version="1.1" id="Calque_1" xmlns="http://www.w3.org/2000/svg" xmlns:xlink="http://www.w3.org/1999/xlink" x="0px" y="0px"
	 viewBox="368.503 321.732 453.543 198.425" enable-background="new 368.503 321.732 453.543 198.425" xml:space="preserve">
<g>
	<path fill="#FFFFFF" d="M638.632,336.194c1.596-1.322,1.933-1.238,3.438,0.322c1.147,1.184,2.388,2.285,3.672,3.311
		c0.857,0.689,1.103,1.345,0.576,2.348c-4.675,8.897-9.429,17.755-13.965,26.726c-4.693,9.275-9.392,18.566-13.66,28.046
		c-3.279,7.28-5.779,14.912-8.845,22.293c-1.46,3.51-1.347,7.025-1.128,10.639c0.362,5.992,0.635,11.986,1.035,17.971
		c0.532,7.952,1.164,15.902,1.724,23.854c0.688,9.882,2.5,19.595,4.331,29.302c0.317,1.687,0.28,1.687-1.387,1.62
		c-0.832-0.034-1.694-0.036-2.495,0.154c-0.459,0.109-0.82,0.635-1.372,1.091c-1.917-1.023-3.852,0.363-5.893,0.457
		c-1.667,0.078-3.188,1.422-4.97,0.592c-0.147-0.07-0.44,0.018-0.586,0.133c-1.031,0.807-1.421,0.807-1.819-0.473
		c-0.974-3.125-1.765-6.307-2.673-9.456c-0.215-0.746,0.056-1.765-1.211-2.022c-0.293-0.059-0.481-1.151-0.552-1.788
		c-0.708-6.216-1.377-12.438-2.06-18.659c-0.029-0.255-0.078-0.51-0.341-0.784c-0.435,2.832-0.859,5.672-1.304,8.501
		c-1.182,7.566-2.373,15.133-3.565,22.695c-0.229,1.44-0.857,2.436-2.492,2.477c-0.774,0.018-1.54,0.205-2.312,0.335
		c-0.161,0.025-0.4,0.086-0.446,0.198c-0.555,1.368-1.609,0.689-2.439,0.553c-2.266-0.371-4.504-0.893-6.767-1.285
		c-1.242-0.217-2.266-0.507-2.299-2.094c-0.012-0.474-0.405-0.936-0.608-1.41c-0.764-1.789-0.681-3.59-0.432-5.513
		c1.302-10.064,2.539-20.141,3.658-30.229c1.045-9.43,0.796-18.887,0.407-28.354c-0.339-8.258-1.995-16.243-4.461-24.057
		c-0.703-2.221-2.326-4.156-3.594-6.181c-0.948-1.508-2.168-2.858-2.974-4.432c-2.641-5.17-5.415-10.296-7.634-15.65
		c-2.134-5.144-3.797-10.508-5.378-15.863c-1.275-4.308-2.285-8.715-3.103-13.136c-0.537-2.902-0.559-5.906-0.737-8.868
		c-0.052-0.858,0.109-1.74,0.281-2.591c0.052-0.258,0.417-0.526,0.698-0.642c0.332-0.139,0.732-0.116,1.45-0.209
		c0,2.227,0,4.443,0,6.663c0.169,0,0.336,0.004,0.503,0.006c-0.032-0.421-0.102-0.844-0.088-1.263
		c0.088-2.125,0.049-4.275,0.361-6.368c0.201-1.348,1.416-0.48,2.193-0.535c1.321-2.277,1.458-2.673,1.062-3.427
		c0.967-0.38,1.921-0.746,2.873-1.126c1.692-0.675,3.335-1.637,5.088-1.945c1.44-0.254,3.027,0.196,4.514,0.508
		c0.291,0.063,0.616,0.939,0.578,1.414c-0.073,0.961,0.381,0.718,0.888,0.559c0.596-0.185,1.192-0.371,2.022-0.628
		c0.469,16.447,4.675,31.892,10.42,47.277c0.674-0.91,1.219-1.61,1.729-2.339c2.299-3.288,5.44-5.508,9.033-7.089
		c2.368-1.039,4.875-0.382,7.334-0.42c3.603-0.057,6.367,1.628,8.926,4.054c0.229-0.359,0.44-0.625,0.586-0.924
		c6.286-12.849,13.938-24.858,22.237-36.451c2.099-2.937,4.517-5.645,6.778-8.466c0.496-0.621,0.982-0.841,1.782-0.453
		c0.43,0.209,1.077-0.07,1.557,0.079C637.394,335.433,637.951,335.834,638.632,336.194z M607.16,493.389
		c-0.212-1.479-0.369-2.862-0.615-4.229c-1.848-10.228-2.722-20.562-3.33-30.923c-0.432-7.395-0.698-14.796-1.077-22.195
		c-0.078-1.478-0.176-2.986-0.534-4.411c-0.586-2.31-1.384-4.569-2.117-6.844c-0.266-0.827-0.21-1.37,0.735-1.746
		c0.417-0.168,0.759-0.789,0.93-1.276c0.693-1.98,1.259-4.005,1.953-5.987c4.534-12.942,10.087-25.442,16.167-37.71
		c5.161-10.423,10.368-20.82,15.547-31.237c0.305-0.61,0.516-1.27,0.769-1.907c-0.393,0.042-0.549,0.185-0.667,0.359
		c-2.558,3.803-5.224,7.539-7.639,11.433c-3.338,5.382-6.59,10.824-9.685,16.354c-3.525,6.289-6.844,12.697-10.22,19.069
		c-0.503,0.95-1.008,1.956-1.225,2.994c-0.332,1.573-0.374,3.204-0.608,4.802c-0.764,5.234-3.159,9.53-8.113,11.535
		c-3.252,1.318-6.844,1.91-10.342,2.412c-2.065,0.297-4.248-0.219-6.573-0.384c2.685,1.923,2.812,4.852,2.812,7.831
		c-1.504,0.211-1.618,0.503-1.416,2.254c0.371,3.262,0.869,6.527,0.93,9.798c0.065,3.577-0.261,7.161-0.496,10.737
		c-0.22,3.319-0.493,6.637-0.83,9.947c-0.539,5.258-1.123,10.51-1.748,15.759c-0.63,5.3-1.299,10.595-2.009,15.883
		c-0.408,3.02-0.918,6.026-1.424,9.032c-0.195,1.154,0.474,1.401,1.338,1.392c0.845-0.013,1.995,0.591,2.18-1.017
		c0.229-1.997,0.552-3.984,0.806-5.98c1.506-11.736,3.357-23.408,6.035-34.94c0.84-3.616,1.521-7.271,2.156-10.931
		c0.249-1.428-0.225-3.103,1.923-3.681c0.137,0.924,0.268,1.83,0.403,2.741c0.325-0.554,0.457-1.059,0.522-1.578
		c0.071-0.561,0.11-1.137,0.12-1.706c0.02-0.978,0.405-1.562,1.513-1.512c0.122,0.3,0.244,0.607,0.391,0.983
		c0.469-2.387,0.469-2.387,2.176-2.956c1.982,19.633,5.596,39.006,8.177,58.826C605.187,494.02,606.137,493.716,607.16,493.389z
		 M575.663,406.702c-10.693-18.264-15.986-37.902-17.188-58.824c-0.859,0.046-1.841,0.159-2.819,0.124
		c-0.374-0.012-0.848-0.278-1.067-0.581c-0.21-0.298-0.154-0.79-0.229-1.305c0.437-0.182,0.979-0.408,1.591-0.664
		c-1.333-0.059-2.573-0.116-3.94-0.177c0.212-0.887,0.361-1.507,0.513-2.128c-0.383,0.102-0.654,0.365-0.652,0.624
		c0.014,1.614-0.036,3.245,0.173,4.834c0.898,6.882,2.779,13.527,4.681,20.182c1.472,5.155,3.376,10.12,5.505,15
		c1.538,3.523,3.404,6.893,5.019,10.378c2.099,4.52,5.103,8.429,8.008,12.409C575.277,406.599,575.338,406.599,575.663,406.702z
		 M586.894,392.665c-1.548,2.064-3.348,3.66-2.979,6.538c0.386,2.985,2.251,5.731,5.224,6.697c0.833,0.267,1.458,0.177,1.479-0.938
		c0.015-0.789,0.098-1.573,0.181-2.36C591.212,398.679,589.503,395.61,586.894,392.665z M607.294,418.763
		c0.166,0.013,0.332,0.025,0.499,0.036c6.894-21.087,17.036-40.686,27.19-60.281c-0.345,0.214-0.569,0.483-0.728,0.786
		c-3.581,6.858-7.243,13.673-10.691,20.596c-2.919,5.866-5.752,11.788-8.33,17.812c-2.781,6.503-5.227,13.155-7.795,19.749
		C607.284,417.856,607.338,418.328,607.294,418.763z M609.481,493.16c0.137-0.04,0.269-0.082,0.406-0.125
		c0.024-0.208,0.093-0.42,0.066-0.619c-0.871-5.828-1.99-11.631-2.576-17.488c-0.891-8.88-1.477-17.797-2.063-26.706
		c-0.388-5.9-0.524-11.814-0.837-17.717c-0.052-0.964-0.449-1.907-0.689-2.858c-0.264,0.349-0.284,0.645-0.259,0.936
		c0.312,4.056,0.681,8.108,0.948,12.169c0.637,9.785,1.065,19.594,1.892,29.366c0.617,7.268,1.726,14.497,2.642,21.741
		C609.062,492.307,609.32,492.727,609.481,493.16z M592.892,396.088c0,2.934,0,6.094,0,9.259
		C593.827,402.152,594.276,398.973,592.892,396.088z M638.883,351.056c-0.086-0.043-0.174-0.088-0.257-0.132
		c-1.138,2.253-2.271,4.504-3.404,6.754c0.093,0.049,0.188,0.096,0.284,0.144C636.632,355.566,637.758,353.312,638.883,351.056z
		 M561.532,353.332c0.063-0.025,0.129-0.049,0.195-0.076c-0.098-1.971-0.19-3.95-0.286-5.923c-0.237,0.31-0.33,0.637-0.305,0.958
		C561.251,349.974,561.396,351.653,561.532,353.332z"/>
	<path fill="#FFFFFF" d="M626.239,492.92c0.437-0.176,0.862-0.35,1.289-0.523c0.088,0.103,0.171,0.207,0.263,0.311
		c-1.05,2.496-3.074,4.054-5.132,5.195c-1.26-0.958-2.398-1.788-3.487-2.68c-0.335-0.275-0.532-0.716-0.791-1.081
		c0.498-0.303,1.043-0.915,1.482-0.846c1.404,0.224,1.546-0.355,1.404-1.54c-1.626-14.023-2.681-28.079-2.327-42.211
		c0.246-9.605,1.047-19.168,2.942-28.586c1.211-6.04,2.935-11.976,4.429-17.959c0.024-0.118,0.014-0.245,0.014-0.193
		c-0.62-0.15-1.216-0.205-1.711-0.457c-0.173-0.092-0.097-0.67-0.129-1.002c-1.682,1.608-2.627-0.835-4.121-0.784
		c-0.105-0.192-0.207-0.379-0.31-0.568c0.474-0.306,0.989-0.558,1.414-0.918c3.438-2.948,6.778-6.023,10.325-8.823
		c1.574-1.245,3.528-2.056,5.403-2.821c0.408-0.168,1.245,0.669,1.851,1.092c0.503,0.357,1.094,0.699,1.401,1.204
		c0.478,0.77,1.013,1.664,1.049,2.528c0.122,2.842-0.205,5.721,0.088,8.536c0.283,2.704-0.825,3.835-3.196,4.503
		c-1.247,0.35-2.199,0.025-3.366-0.183c-1.592-0.282-2.685-1.532-4.492-1.499C621.991,432.912,622.377,462.82,626.239,492.92z
		 M622.15,448.769c-0.471,12.499,0.93,39.007,2.224,41.243C622.865,476.302,621.874,462.568,622.15,448.769z"/>
</g>
</svg>
