<?xml version="1.0" encoding="utf-8"?>
<!-- Generator: Adobe Illustrator 17.1.0, SVG Export Plug-In . SVG Version: 6.00 Build 0)  -->
<!DOCTYPE svg PUBLIC "-//W3C//DTD SVG 1.1//EN" "http://www.w3.org/Graphics/SVG/1.1/DTD/svg11.dtd">
<svg version="1.1" id="Calque_1" xmlns="http://www.w3.org/2000/svg" xmlns:xlink="http://www.w3.org/1999/xlink" x="0px" y="0px"
	 viewBox="368.503 321.732 453.543 198.425" enable-background="new 368.503 321.732 453.543 198.425" xml:space="preserve">
<g>
	<path fill="#FFFFFF" d="M525.614,399.24c0.463-5.85,0.661-11.73,1.454-17.53c0.847-6.211,2.701-12.189,6.357-17.423
		c3.169-4.536,7.248-7.913,12.359-10.204c4.693-2.105,9.489-3.668,14.569-4.425c0.73-0.109,1.477-0.469,2.095-0.891
		c5.904-4.02,12.264-6.755,19.51-7.047c15.359-0.615,28.532,4.467,39.298,15.428c4.766,4.846,8.349,10.576,10.702,16.987
		c2.388,6.5,2.993,13.292,2.907,20.16c-0.116,9.442-1.499,18.681-4.583,27.634c-3.513,10.191-9.7,18.588-17.508,25.87
		c-5.527,5.155-11.576,9.604-18.483,12.742c-13.301,6.036-26.168,4.611-38.54-2.648c-6.993-4.105-12.38-9.95-16.949-16.578
		c-3.262-4.735-6.234-9.634-8.508-14.927c-3.161-7.35-4.535-15.045-4.414-23.032c0.019-1.365,0.003-2.729,0.003-4.096
		C525.794,399.255,525.704,399.245,525.614,399.24z M609.894,432.531c0.228-0.154,0.422-0.254,0.58-0.391
		c5.697-4.943,10.453-10.628,13.875-17.396c3.996-7.892,5.154-16.064,1.882-24.42c-5.729-14.629-15.952-24.648-31.262-28.864
		c-5.028-1.384-10.284-2.899-15.688-0.147c0.537,0.189,0.866,0.314,1.198,0.423c0.342,0.109,0.691,0.207,1.033,0.309
		c-0.013,0.172-0.025,0.348-0.037,0.519c-0.693,0.039-1.387,0.078-2.081,0.116c-0.002,0.049-0.003,0.095-0.004,0.143
		c0.607,0.174,1.215,0.352,1.823,0.527c-0.027,0.158-0.052,0.325-0.078,0.483c-2.177,0.248-4.231-0.984-6.416-0.779
		c1.982,0.488,3.964,0.98,6.184,1.527c-0.698,0.625-1.263,1.135-1.836,1.647c0.37,0.145,0.692,0.272,1.382,0.54
		c-1.183,0.339-1.96,0.564-2.949,0.844c0.713,0.189,1.153,0.305,1.591,0.423c-0.013,0.18-0.024,0.361-0.035,0.54
		c-0.628,0-1.288,0.133-1.875-0.024c-5.232-1.372-10.553-1.328-15.879-0.958c-0.93,0.065-2,0.483-2.695,1.09
		c-2.388,2.101-4.638,4.358-6.941,6.557c-0.328,0.314-0.658,0.626-0.985,0.936c-0.091-0.069-0.18-0.141-0.273-0.214
		c0.184-0.451,0.368-0.9,0.555-1.353c-1.911,1.69-3.055,4.08-5.502,5.22c1.562-2.185,3.124-4.374,4.686-6.559
		c-1.89,0.944-2.378,3.217-4.526,3.855c0.208-0.475,0.417-0.954,0.622-1.428c-0.393-0.265-0.746-0.504-1.098-0.741
		c0.425-1.091,0.809-2.08,1.195-3.069c-0.138-0.11-0.277-0.221-0.417-0.332c-1.32,0.664-2.669,1.278-3.956,2.006
		c-5.254,2.984-8.68,7.118-9.126,13.479c-0.759,10.855,1.554,20.995,6.694,30.512c4.227,7.824,9.792,14.569,16.739,20.143
		c1.227,0.982,2.594,1.794,3.895,2.682c-0.016-0.713-0.282-1.14-0.449-1.6c-0.748-2.089-1.897-4.143-2.107-6.288
		c-0.37-3.789-0.507-7.664-0.112-11.44c0.592-5.69,2.753-10.595,8.779-12.686c0.391-0.134,0.721-0.533,1.005-0.876
		c1.848-2.239,3.517-4.648,5.536-6.723c8.446-8.691,20.995-8.854,29.901-0.645c7.261,6.696,9.621,14.984,8.402,24.522
		C610.794,427.242,610.32,429.825,609.894,432.531z M577.094,421.038c-1.23-0.122-2.381-0.336-3.53-0.324
		c-1.193,0.009-2.389,0.234-3.582,0.367c-0.017,0.118-0.035,0.237-0.051,0.353c0.371,0.178,0.738,0.486,1.118,0.509
		c1.882,0.109,1.93,0.083,1.833,2.007c-0.12,2.378,0.209,4.618,1.587,6.635c3.048,4.458,7.148,7.448,12.352,8.898
		c2.271,0.633,4.432,0.299,6.38-1.046c1.533-1.057,3.044-2.152,4.501-3.315c2.904-2.32,5.332-5.067,7.214-8.291
		c0.95-1.622,1.007-3.216,0.19-4.931c-2.407-5.048-5.694-9.333-10.703-12.003c-4.763-2.542-9.663-2.549-14.552-0.232
		c-0.761,0.359-1.086,0.833-0.648,1.705c0.139,0.282-0.095,0.749-0.22,1.487c0.485,0.607,0.355,1.329-0.776,2.332
		c1.247,1.636-0.775,3.005-0.21,4.599c-0.451,0.073-0.745,0.118-1.081,0.172C576.978,420.345,577.034,420.676,577.094,421.038z
		 M598.164,349.834c3.445,1.455,6.891,2.908,10.666,4.508C605.382,351.948,601.865,350.637,598.164,349.834z M562.427,366.149
		c-0.001,0.132-0.004,0.263-0.005,0.395c3.148,0,6.297,0,9.445,0c-1.573-0.168-3.148-0.324-4.73-0.383
		C565.569,366.108,563.997,366.149,562.427,366.149z M565.527,449.868c0.051-0.113,0.102-0.225,0.151-0.333
		c-1.994-0.979-3.987-1.961-5.982-2.937c-0.05,0.103-0.1,0.208-0.151,0.311C561.538,447.895,563.534,448.88,565.527,449.868z
		 M564.972,364.731c-0.003,0.071-0.005,0.141-0.008,0.211c2.18,0,4.354,0,6.532,0c0-0.07,0.002-0.14,0.002-0.211
		C569.324,364.731,567.146,364.731,564.972,364.731z M593.396,355.596c-0.02,0.105-0.041,0.212-0.057,0.318
		c2.319,0.647,4.639,1.295,6.959,1.944c0.028-0.108,0.059-0.214,0.086-0.32C598.056,356.889,595.726,356.242,593.396,355.596z
		 M568.984,425.516c-0.123,0.003-0.247,0.003-0.373,0.003c0.152,1.199,0.303,2.402,0.456,3.602c0.052-0.009,0.104-0.016,0.156-0.025
		C569.144,427.906,569.066,426.711,568.984,425.516z"/>
	<path fill="#FFFFFF" d="M639.382,438.54c-0.258-0.54-0.892-0.795,0.013-1.41c0.706-0.476,0.846-1.72,1.398-2.518
		c0.284-0.413,0.91-0.585,1.621-1.013c0.349,0.199,0.974,0.549,1.596,0.901c5.025,2.821,10.661,3.857,16.075,5.548
		c1.036,0.324,2.039,0.764,3.045,1.173c0.291,0.116,0.568,0.292,0.82,0.482c1.356,1.004,1.309,2.171-0.112,2.92
		c0.635,1.304,0.273,2.651-0.866,3.654c-0.276,0.244-0.284,0.77-0.466,1.137c-0.339,0.669-0.641,1.382-1.102,1.959
		c-0.549,0.688-1.448,1.145-1.849,1.888c-0.964,1.78-2.445,1-3.93,1.152c0.515-1.311-0.351-1.499-1.109-1.723
		c-2.747-0.808-5.553-1.456-8.236-2.433c-3.276-1.194-6.499-2.557-9.655-4.04c-1.759-0.824-1.715-1.592-0.347-2.941
		c0.289-0.288,0.312-0.854,0.43-1.299c0.196-0.742,0.358-1.496,0.581-2.233c0.017-0.056,0.401-0.008,0.687-0.008
		c-0.055-0.258-0.117-0.534-0.201-0.91C638.296,438.736,638.768,438.651,639.382,438.54z"/>
	<path fill="#FFFFFF" d="M596.361,464.234c1.205-1.057,1.768-0.043,2.414,0.735c0.038-0.672,0.093-1.249,0.093-1.826
		c-0.002-0.849,0.285-1.245,1.23-0.659c-0.055-0.438-0.087-0.695-0.097-0.775c1.198-0.355,2.341-0.695,3.563-1.06
		c-0.102-0.332-0.215-0.701-0.367-1.199c0.836-0.146,1.628-0.284,2.612-0.456c-0.008,0.07,0.023-0.195,0.054-0.459
		c0.199-0.173,0.393-0.344,0.59-0.517c0.197,0.451,0.374,0.914,0.599,1.351c1.943,3.768,4.91,6.755,7.57,9.978
		c1.967,2.388,3.827,4.866,5.766,7.273c0.803,0.999,1.214,1.973,0.263,3.089c-0.489-0.106-0.981-0.215-1.291-0.283
		c-0.771,0.496,1.154,2.097-1.092,1.643c0.066,0.399,0.127,0.766,0.206,1.246c-0.737,0.063-1.392,0.121-1.845,0.156
		c-0.591,0.865-1.122,1.639-1.746,2.548c-0.603-0.44-1.126-0.827-1.819-1.333c0.157,0.655,0.269,1.138,0.339,1.428
		c-0.85,0.296-1.629,0.82-2.343,0.747c-0.766-0.079-1.683-0.548-2.17-1.147c-3.065-3.767-5.951-7.682-9.048-11.421
		c-2.211-2.665-4.117-5.411-4.603-8.928c0.141-0.138,0.281-0.277,0.422-0.415c0.232,0.504,0.465,1.011,0.697,1.518
		c0.081-0.053,0.161-0.104,0.242-0.156C596.515,464.94,596.434,464.566,596.361,464.234z"/>
	<path fill="#FFFFFF" d="M562.096,480.279c0.955,0.677,1.617,1.146,2.306,1.637c0.267-0.211,0.51-0.401,0.875-0.685
		c0.176,0.69,0.61,1.399,0.437,1.887c-1.917,5.307-2.572,10.878-3.54,16.383c-0.023,0.125-0.13,0.236-0.199,0.352
		c-1.214-0.807-1.214-0.807-1.052-5.076c-0.19,0.814-0.321,1.648-0.592,2.438c-0.254,0.742-0.656,1.439-1.069,2.312
		c-0.409-0.339-0.624-0.516-0.867-0.716c-0.154,0.163-0.369,0.393-0.661,0.711c-0.125-0.269-0.271-0.427-0.258-0.57
		c0.536-5.395,1.265-10.757,3-15.917C560.827,481.992,561.608,481.092,562.096,480.279z"/>
	<path fill="#FFFFFF" d="M556.439,498.442c-1.462-2.257-0.307-4.497-0.641-6.753c-0.308,1.464-0.614,2.93-0.92,4.392
		c-0.112,0-0.222,0-0.335,0c-0.063-1.125-0.329-2.289-0.152-3.375c0.655-4.034,1.401-8.053,2.232-12.051
		c0.311-1.505,0.841-1.595,1.971-0.611c0.024,0.017,0.011,0.083,0.017,0.121c0.051-0.064,0.114-0.194,0.154-0.19
		c0.391,0.064,0.893,0.036,1.133,0.272c0.233,0.225,0.336,0.758,0.262,1.108c-1.095,5.296-2.226,10.583-3.357,15.871
		C556.713,497.64,556.562,498.04,556.439,498.442z"/>
	<path fill="#FFFFFF" d="M564.808,492.674c-0.404,2.384-0.808,4.772-1.28,7.546c-0.88-3.412,1.311-14.835,3.298-17.898
		c0.969,0.348,1.968,0.701,3.022,1.081c-0.519,2.201-1.105,4.478-1.581,6.779c-0.478,2.293-0.847,4.612-1.568,6.9
		c0-0.672,0-1.345,0-2.017c-0.035,0-0.073,0.005-0.107,0.005c-0.333,1.488-0.667,2.979-0.999,4.471
		c-0.091-0.01-0.182-0.013-0.271-0.018c0-0.275,0-0.551,0-0.828c0-2,0-3.997,0-5.996
		C565.151,492.69,564.981,492.681,564.808,492.674z"/>
	<path fill="#FFFFFF" d="M549.682,385.223c-0.211-0.921-0.464-1.837-0.609-2.771c-0.056-0.366,0.056-0.798,0.204-1.156
		c0.748-1.809,2.067-3.012,4.023-3.322c3.922-0.62,7.883-0.771,11.776,0.053c1.591,0.335,3.195,1.082,4.505,2.035
		c0.718,0.524,1.141,1.85,1.172,2.833c0.077,2.243-0.813,4.26-2.159,6.057c-1.018,1.362-2.302,2.113-4.039,2.505
		c-2.944,0.658-5.922,1.247-8.865,0.759C551.81,391.575,549.214,389.311,549.682,385.223z M566.345,389.543
		c1.534-0.531,2.631-2.198,2.639-3.893C568.126,386.917,567.251,388.206,566.345,389.543z"/>
	<path fill="#FFFFFF" d="M594.182,385.902c-2.186-0.556-4.348-1.264-6.568-1.617c-2.509-0.401-4.558-1.548-6.273-3.294
		c-0.685-0.699-1.178-1.682-1.491-2.625c-0.343-1.048-0.5-2.194-0.519-3.302c-0.021-1.559,1.201-2.5,2.297-3.214
		c1.881-1.229,3.983-1.483,6.279-1.013c3.8,0.776,7.367,1.991,10.431,4.414c2.409,1.901,2.97,3.47,2.162,6.039
		c-0.789,2.514-2.639,3.831-5.164,4.286c-0.355,0.064-0.727,0.052-1.089,0.076C594.227,385.733,594.203,385.815,594.182,385.902z"/>
</g>
</svg>
