<?xml version="1.0" encoding="utf-8"?>
<!-- Generator: Adobe Illustrator 17.1.0, SVG Export Plug-In . SVG Version: 6.00 Build 0)  -->
<!DOCTYPE svg PUBLIC "-//W3C//DTD SVG 1.1//EN" "http://www.w3.org/Graphics/SVG/1.1/DTD/svg11.dtd">
<svg version="1.1" id="Calque_1" xmlns="http://www.w3.org/2000/svg" xmlns:xlink="http://www.w3.org/1999/xlink" x="0px" y="0px"
	 viewBox="368.503 321.732 453.543 198.425" enable-background="new 368.503 321.732 453.543 198.425" xml:space="preserve">
<g>
	<path fill="#FFFFFF" d="M554.719,423.203c0.566-1.109,1.131-2.221,1.703-3.329c0.177-0.342,0.362-0.674,0.584-1.069l0.884-1.599
		l0.592,0.847c0.437,0.628,0.848,1.234,1.243,1.824c0.852,1.264,1.656,2.456,2.547,3.548c1.254,1.532,2.681,2.901,4.037,4.155
		c0.401,0.372,0.915,0.657,1.462,0.957c0.292,0.162,0.583,0.323,0.864,0.498c0.465,0.293,0.924,0.597,1.383,0.897
		c1.08,0.718,2.198,1.454,3.354,2.02c0.281,0.139,0.55,0.272,0.784,0.272c0.093,0,0.341,0,0.633-0.512
		c3.145-5.408,6.518-10.943,10.026-16.455c1.102-1.729,2.349-3.34,3.668-5.047c0.609-0.786,1.232-1.592,1.858-2.436l0.67-0.898
		l0.44,1.034c0.589,1.392,1.204,2.743,1.81,4.074c1.359,2.982,2.642,5.797,3.518,8.796c1.67,5.708,5.832,8.734,9.682,10.939
		c0.247,0.142,0.554,0.24,0.881,0.345c0.427,0.135,0.872,0.277,1.277,0.546c1.005,0.659,1.724,1.067,2.212,1.067
		c0.482,0,0.985-0.437,1.991-1.725c2.324-2.995,4.619-5.077,7.217-6.55c0.679-0.388,1.633-0.547,2.314-0.37
		c1.561,0.401,3.108,0.849,4.655,1.296c1.271,0.371,2.541,0.741,3.817,1.083l0.443,0.118c1.872,0.505,3.708,0.936,5.454,0.575
		c2.048-0.426,4.142-0.777,6.168-1.118c2.015-0.342,4.096-0.695,6.121-1.113c3.243-0.67,6.501-0.503,10.807,0.607
		c1.316,0.338,1.871,1.135,1.703,2.448c-0.289,2.255-0.56,4.514-0.833,6.772c-0.341,2.842-0.685,5.682-1.06,8.521
		c-0.299,2.246-0.654,2.581-2.724,2.581h-0.462c-1.966-0.008-3.954-0.145-5.873-0.281c-1.937-0.135-3.939-0.275-5.9-0.275
		c-2.043,0-3.836,0.156-5.479,0.474c-0.358,0.067-0.714-0.026-1.008-0.112c-0.148-0.043-0.3-0.089-0.399-0.089
		c-0.182,0.009-0.348,0.011-0.509,0.013c-0.81,0.01-1.145,0.013-1.41,0.837l-0.145,0.442c-0.678,2.063-1.019,3.396,0.422,4.742
		l0.65,0.608l-1.433,0.784l2.093,3.479l-1.823-0.188c0.142,0.445,0.286,0.868,0.474,1.255c0.713,1.441,1.363,2.242,2.544,2
		c0.754-0.156,1.562-0.232,2.475-0.232c0.793,0,1.585,0.057,2.377,0.113c0.459,0.031,0.922,0.062,1.384,0.086
		c1.849,0.084,3.873,0.124,6.365,0.124c1.37,0,2.742-0.011,4.116-0.022c1.035-0.01,2.071-0.018,3.109-0.025
		c0.829,0,1.768-0.017,2.711-0.108l-1.977,0.022l4.039-1.471c0.914-0.32,1.694-0.592,2.261-1.176l-1.659,0.197l-0.884-1.664
		l0.867-0.155c1.092-0.194,2.453-0.437,2.787-1.066c0.167-0.318,0.103-0.812-0.19-1.471l-0.266-0.595l3.148-1.362l0.427,0.349
		l1.523-1.684l1.047,1.777c0.043-0.089,0.089-0.172,0.133-0.256c0.393-0.769,0.734-1.434,0.844-2.082
		c0.586-3.506,1.047-7.104,1.488-10.582l0.105-0.823c1.346-10.559,1.552-21.377,1.75-31.837l0.026-1.321
		c0.082-4.248,0.235-8.563,0.379-12.738l0.125-3.572c0.007-0.09,0.003-0.162-0.003-0.217c-0.161,0.053-0.393,0.153-0.578,0.232
		l-1.534,0.659l1.156-3.23l-1.382-0.812l0.815-0.575c0.63-0.442,0.936-0.768,0.966-1.021c0.045-0.41-0.559-1.146-1.092-1.742
		l-0.27-0.307l0.837-1.978l-1.467-0.463l0.682-1.219l-1.752-0.724l1.481-1.742c-0.091-0.05-0.181-0.099-0.267-0.148
		c-0.57-0.315-1.107-0.612-1.573-0.636c-8.133-0.424-16.409-0.772-24.407-1.109l-3.635-0.148c-0.706,0-0.889,0.148-0.93,0.763
		c-0.055,0.792-0.279,1.55-0.495,2.28l-0.078,0.272c-0.495,1.691-0.066,2.01,0.416,2.194l0.514,0.198l-0.115,0.537
		c-0.074,0.364-0.2,0.742-0.321,1.106c-0.125,0.382-0.312,0.957-0.271,1.128c0.751,1.048,0.776,2.272,0.799,3.352
		c0.024,1.029,0.04,1.931,0.631,2.671l17.371,0.345l-0.867,35.163l-5.524-3.599c-0.086-0.055-0.254-0.158-0.349-0.366
		c-0.645-1.517-2.237-1.978-3.641-2.385l-0.755-0.222c-2.802-0.827-5.697-1.682-8.638-1.682c-1.092,0-2.12,0.112-3.137,0.347
		c-4.335,0.993-8.703,1.663-12.807,2.26c-1.329,0.194-2.878,0.089-4.474-0.297c-1.832-0.448-3.664-0.989-5.44-1.512
		c-1.254-0.372-2.511-0.742-3.774-1.083c-1.752-0.475-2.984-0.28-4.087,0.617c-0.763,0.622-1.598,1.165-2.407,1.692
		c-0.362,0.233-0.727,0.467-1.086,0.715l-0.576,0.391l-0.502-0.87c-0.122-0.194-0.221-0.362-0.295-0.54
		c-0.668-1.571-1.332-3.142-1.995-4.714c-1.627-3.856-3.306-7.839-5.041-11.717c-0.506-1.13-1.376-2.321-2.521-3.445
		c-0.581-0.573-1.323-1.01-2.109-1.469c-0.393-0.23-0.785-0.46-1.161-0.708c-0.398-0.263-0.789-0.541-1.184-0.815
		c-0.33-0.231-0.659-0.463-0.992-0.686l-0.332-0.223c-0.642-0.435-1.281-0.868-1.949-1.255c-0.291-0.172-0.498-0.226-0.554-0.226
		l-0.403,0.191c-0.752,0.326-1.528,0.661-2.01,1.168c-5.529,5.797-10.685,12.69-16.223,21.694c-0.232,0.382-0.474,0.76-0.768,1.22
		l-1.099,1.724l-0.533-0.915c-0.215-0.37-0.413-0.708-0.603-1.023c-0.384-0.647-0.719-1.211-1.022-1.796
		c-2.544-4.905-6.16-8.196-11.049-10.06c-0.261-0.102-0.439-0.275-0.581-0.414c-0.05-0.049-0.123-0.122-0.154-0.139l-0.134-0.057
		c-0.433-0.182-0.881-0.374-1.281-0.408c-1.217-0.108-1.68,0.689-2.357,2.039c-1.357,2.701-2.688,5.374-4.019,8.044
		c-1.459,2.935-2.92,5.868-4.393,8.796c-0.641,1.27-1.397,2.472-2.129,3.639c-0.105,0.164-0.228,0.312-0.354,0.449l1.336,0.531
		l-0.845,1.061l2.117,0.493l2.912,1.876l1.344-0.129l0.237,1.057c1.07-0.229,1.744,0.538,2.207,1.145
		c0.25,0.326,0.446,0.566,0.658,0.702l0.243-0.318c0.41-0.533,0.835-1.084,1.219-1.659c0.362-0.549,0.685-1.124,1.007-1.706
		l0.758-1.333l1.326,0.801"/>
	<path fill="#FFFFFF" d="M552.446,457.707l0.415-0.364l1.155-0.482l-1.12-0.081l0.575-0.908c0.072-0.113,0.138-0.23,0.204-0.347
		c0.174-0.315,0.356-0.639,0.648-0.907c0.152-0.139,0.315-0.251,0.482-0.354c-0.741-0.467-1.056-0.582-1.556-0.582
		c-0.347,0-0.763,0.049-1.352,0.118c-0.775,0.085-1.464,0.115-2.162,0.074c-1.378-0.07-2.758-0.156-4.135-0.243
		c-2.524-0.152-5.133-0.315-7.699-0.389c-1.99-0.062-3.975-0.004-5.983,0.055c-0.915,0.026-1.837,0.051-2.762,0.068l-0.685,0.013
		l0.033-0.686c0.271-5.893,0.648-11.875,1.011-17.659c0.84-13.357,1.708-27.169,1.359-40.835l-0.016-0.664l0.882,0.007l0.925-0.006
		c0.312,0,0.604,0.006,0.898,0.035l3.106,0.294c5.919,0.558,11.841,1.12,17.755,1.732c0.906,0.099,1.61-0.043,2.182-0.517
		l-1.047-0.673l1.919-1.561l-2.664-0.729l0.361-1.361l3.031-0.24l-1.643-3.538l1.136,0.128l0.178-0.006
		c0.082-0.082,0.126-0.467,0.154-0.777l-4.983-1.295l4.115-0.685l-2.125-1.772l2.252-0.594c-0.036-0.025-0.071-0.044-0.109-0.066
		c-0.626-0.384-1.22-0.747-1.785-0.807c-7.36-0.806-14.174-1.46-20.835-1.995c-1.476-0.118-3.426-0.101-5.24-0.059
		c-0.597,0.014-1.184,0.03-1.755,0.035c-0.103,0.32-0.212,0.635-0.318,0.945c-0.643,1.865-1.2,3.474-0.334,5.167l0.196,0.385
		l-0.282,0.327c-0.149,0.173-0.277,0.393-0.41,0.613c-0.395,0.662-0.94,1.57-2.038,1.57c-0.248,0-0.503-0.049-0.773-0.146
		c-0.279,0.57-0.74,0.678-1.042,0.678c-0.366,0-0.697-0.16-0.966-0.287c-0.669,0.898-0.47,1.729-0.225,2.758
		c0.097,0.41,0.2,0.839,0.24,1.278c0.012,0.081,0.018,0.133,0.019,0.187c0.036,1.439,0.092,2.871,0.147,4.301
		c0.12,3.142,0.244,6.394,0.152,9.595c-0.243,8.557-0.658,16.815-1.177,26.72c-0.143,2.728-0.358,5.49-0.566,8.168
		c-0.182,2.341-0.365,4.679-0.503,7.023c-0.311,5.306-0.547,10.591-0.805,16.893c-0.047,1.163,0.611,2.047,1.6,2.157
		c2.421,0.268,4.604,0.418,6.681,0.462c2.833,0.06,5.667,0.072,8.499,0.087c1.784,0.009,3.565,0.017,5.348,0.036
		c1.049,0.012,2.099,0.044,3.15,0.073c2.07,0.06,4.138,0.124,6.2,0.03c0.895-0.04,2.029-0.537,2.891-1.267
		c0.341-0.29,0.554-0.888,0.778-1.521c0.014-0.04,0.029-0.079,0.043-0.116l-1.842,0.055l-0.122-1.474l2.857-0.94l-0.647-2.792
		l0.851-1.477l-2.628,0.243L552.446,457.707z"/>
	<path fill="#FFFFFF" d="M520.679,404.049c0-0.029,0-0.057-0.001-0.089c-0.007-0.469-0.003-0.939-0.012-1.411
		c-0.001-0.066-0.006-0.13-0.008-0.197c-0.096-3.925-0.382-7.85-0.737-11.763c-0.154-1.712-1.079-2.195-2.763-1.935
		c-0.393,0.062-0.798,0.039-1.236,0.055c0.058,2.033,0.184,3.874,0.155,5.711c-0.174,11.394-0.279,22.79-0.623,34.181
		c-0.172,5.692-0.962,11.365-1.181,17.058c-0.212,5.447-1.743,10.88-0.211,16.374c0.321,1.156,0.077,2.47,0.093,3.708
		c0.169,0.009,0.339,0.013,0.508,0.017c0.157-1.635,0.312-3.271,0.471-4.934c0.826,2.017-0.862,4.703,1.965,6.28
		c0.13-0.597,0.281-1.057,0.32-1.532c0.126-1.543,0.237-3.089,0.358-4.635c0.151-1.931,0.31-3.856,0.445-5.787
		C519.42,438.134,520.952,421.13,520.679,404.049z"/>
</g>
</svg>
