<?xml version="1.0" encoding="utf-8"?>
<!-- Generator: Adobe Illustrator 17.1.0, SVG Export Plug-In . SVG Version: 6.00 Build 0)  -->
<!DOCTYPE svg PUBLIC "-//W3C//DTD SVG 1.1//EN" "http://www.w3.org/Graphics/SVG/1.1/DTD/svg11.dtd">
<svg version="1.1" id="Calque_1" xmlns="http://www.w3.org/2000/svg" xmlns:xlink="http://www.w3.org/1999/xlink" x="0px" y="0px"
	 viewBox="368.503 321.732 453.543 198.425" enable-background="new 368.503 321.732 453.543 198.425" xml:space="preserve">
<g>
	<path fill="#FFFFFF" d="M681.003,434.456c-0.478,0.159-0.776,0.258-1.152,0.384c0.171,0.217,0.33,0.422,0.667,0.855
		c-0.789,0.059-1.377,0.102-2.2,0.163c0.847,0.424,1.538,0.773,2.312,1.162c-1.106,0.751-1.885,1.827-3.335,0.991
		c0.003,0.124,0.005,0.251,0.008,0.378c1.157,0.557,2.319,1.112,3.477,1.667c-0.01,0.1-0.02,0.2-0.029,0.302
		c-0.371,0.076-0.742,0.15-1.192,0.239c0.263,0.214,0.522,0.419,0.903,0.725c-0.3,0.141-0.481,0.307-0.639,0.286
		c-1.599-0.225-3.189-0.6-4.794-0.707c-2.935-0.193-4.947-2.189-7.203-3.633c-5.494-3.517-10.494-7.697-15.171-12.252
		c-6.591-6.426-12.26-13.647-17.583-21.155c-1.434-2.026-2.876-4.051-4.478-6.305c-0.82,1.109-1.557,2.073-2.255,3.064
		c-0.616,0.872-1.195,1.773-1.779,2.668c-1.242,1.901-2.938,2.551-5.166,2.137c-2.052-0.379-4.168-0.428-6.194-0.896
		c-1.029-0.24-2.113-0.904-2.826-1.695c-1.068-1.188-1.831-2.655-2.776-4.085c-1.987,1.996-3.935,3.971-5.901,5.923
		c-0.787,0.781-1.526,1.671-2.448,2.237c-2.828,1.751-3.509,1.401-6.019-0.684c-2.488-2.068-4.905-4.236-7.21-6.51
		c-0.897-0.885-1.399-2.177-2.136-3.372c-4.055,3.102-8.211,6.281-12.565,9.609c1.578,1.016,3.068,1.895,4.47,2.894
		c1.348,0.961,2.595,2.06,3.907,3.072c0.604,0.465,0.456,0.883-0.047,1.234c-2.067,1.444-4.151,2.87-6.235,4.289
		c-0.168,0.115-0.396,0.227-0.583,0.212c-0.924-0.083-1.843-0.229-2.766-0.303c-0.222-0.017-0.476,0.134-0.687,0.255
		c-1.484,0.85-2.267,0.716-3.208-0.295c-1.44,0.098-2.575,0.189-3.708,0.238c-0.18,0.008-0.4-0.141-0.547-0.273
		c-1.083-0.988-2.073-2.103-3.243-2.973c-2.57-1.911-5.254-3.667-7.847-5.548c-1.575-1.142-3.063-2.401-4.689-3.686
		c-1.392,1.607-2.753,3.128-4.059,4.694c-4.587,5.495-9.287,10.898-13.688,16.543c-2.816,3.611-5.211,7.559-7.74,11.394
		c-1.121,1.704-2.085,3.512-3.174,5.238c-0.164,0.26-0.641,0.505-0.93,0.466c-1.559-0.222-1.83-0.6-1.733-2.276
		c-1.023,0.789-0.899,2.629-2.273,2.629c-0.615-0.642-1.105-1.152-1.593-1.661c-0.089,0.205-0.179,0.406-0.267,0.609
		c-0.922-0.022-1.848-0.003-2.761-0.102c-0.158-0.018-0.42-0.586-0.36-0.832c0.214-0.865,0.406-1.789,0.859-2.535
		c5.59-9.204,12.284-17.581,18.976-25.971c3.581-4.488,6.83-9.249,10.237-13.877c0.224-0.305,0.504-0.585,0.807-0.809
		c1.992-1.48,3.999-2.942,5.994-4.411c1.143-0.844,2.289-1.401,3.756-0.689c0.957,0.465,2.018,0.713,3.034,1.053
		c0.12,0.042,0.268,0.117,0.365,0.081c2.451-0.973,3.934,0.991,5.727,1.951c1.051,0.561,2.082,1.207,2.994,1.97
		c0.998,0.836,1.688,0.637,2.612-0.151c4.823-4.104,9.643-8.219,14.575-12.19c3.433-2.763,7.071-5.264,10.566-7.951
		c1.783-1.372,3.414-2.949,5.195-4.321c0.483-0.371,1.263-0.391,1.919-0.476c2.915-0.382,5.83-0.745,8.749-1.083
		c0.75-0.089,1.776,1.007,1.755,1.793c0.449,0.05,0.897,0.098,1.496,0.168c-0.234,0.403-0.396,0.674-0.614,1.048
		c0.425,0.328,0.864,0.669,1.3,1.007c0.095-0.084,0.193-0.169,0.286-0.258c-0.588-1.034-1.04-2.059-0.25-3.186
		c0.125-0.176-0.042-0.568-0.086-0.859c-0.15-1.012-0.357-2.019-0.443-3.036c-0.091-1.063,0.578-1.342,1.392-0.948
		c1.029,0.498,2.041,1.089,2.943,1.796c5.323,4.177,10.633,8.375,15.033,13.6c0.353,0.423,1.083,0.777,1.611,0.741
		c1.918-0.128,3.177,1.148,4.565,2.065c0.978,0.648,0.001,1.424-0.418,1.773c-1.016,0.835-0.821,1.512-0.145,2.401
		c3.994,5.258,7.847,10.63,11.966,15.783c6.099,7.626,12.719,14.742,20.864,20.23c4.18,2.82,8.374,5.613,13.103,7.456
		C680.49,434.019,680.661,434.205,681.003,434.456z M593.804,390.272c1.977,1.428,3.617,2.495,5.112,3.739
		c0.844,0.702,1.604,0.635,2.305,0.101c1.15-0.879,2.249-1.848,3.263-2.883c2.15-2.202,4.239-4.465,6.334-6.72
		c0.514-0.551,0.859-0.537,1.303,0.094c0.663,0.94,1.438,1.802,2.106,2.742c0.766,1.078,1.772,1.801,3.053,1.913
		c1.819,0.159,3.65,0.178,5.479,0.191c0.413,0.006,0.826-0.259,1.48-0.478c-2.174-2.689-4.084-5.297-6.797-7.057
		c-1.323-0.858-2.883-1.547-4.417-1.797c-1.136-0.184-1.873-0.479-2.335-1.6C605.118,382.398,599.644,386.209,593.804,390.272z"/>
	<path fill="#FFFFFF" d="M617.155,429.461c-0.119,1.983,0.18,4.113-0.429,5.929c-2.987,8.926-8.878,15.37-17.269,19.437
		c-1.276,0.619-2.762,0.796-4.258,1.204c-0.667,5.076,0.74,9.623,4.071,13.612c0.176,0.208,0.247,0.607,0.202,0.886
		c-0.083,0.502-0.284,0.989-0.448,1.476c-0.763,2.273-1.542,2.513-3.585,1.04c-0.787,0.902-1.522,0.504-2.019-0.3
		c-0.853-1.383-1.593-2.836-2.362-4.27c-0.253-0.477-0.448-0.984-0.765-1.685c-0.847,1.793-1.519,3.407-2.359,4.924
		c-0.422,0.76-0.614,2.552-2.206,1.038c-0.039-0.038-0.392,0.259-0.724,0.487c-0.204-0.558-0.38-1.045-0.574-1.582
		c-0.331,0.448-0.677,0.915-1.001,1.353c-1.063-0.173-1.035-0.842-0.796-1.552c0.615-1.835,1.292-3.65,1.888-5.488
		c0.693-2.126,1.306-4.28,2.007-6.401c0.187-0.572,0.228-1.406,1.292-1.173c0.237,0.052,0.601-0.538,0.916-0.818
		c0.465-0.409,0.94-0.809,1.511-1.137c0.403-0.936,0.299-1.743-0.731-2.417c-0.771-0.503-1.334-1.32-2.024-1.957
		c-0.66-0.609-1.365-1.169-2.118-1.81c0.297-0.822,0.979-1.053,1.85-0.316c0.717,0.605,1.327,1.335,1.999,1.999
		c0.324,0.318,0.681,0.607,1.021,0.909c0.094-0.105,0.188-0.209,0.282-0.314c-1.643-1.478-3.287-2.959-4.888-4.398
		c0.229-0.691,0.507-1.533,0.824-2.5c1.866-0.162,2.462,1.872,3.955,2.666c0-1.216,0-2.354,0-3.626
		c-1.74-0.486-3.315-1.371-4.237-3.109c-0.38-0.716-0.719-1.457-1.033-2.203c-0.549-1.306-1.134-2.603-1.581-3.947
		c-0.818-2.465-0.425-6.599,1.976-8.562c0.359-0.292,0.784-0.697,1.186-0.708c1.534-0.04,2.522-1.07,3.65-1.861
		c2.379-1.668,5.667-1.725,7.833,0.207c1.565,1.397,2.823,3.16,4.141,4.823c0.633,0.798,1.214,1.692,1.594,2.632
		c1.377,3.384,1.035,6.771-0.836,9.785c-1.324,2.13-3.62,3.033-6.17,3.051c-0.549,0.004-1.099,0.061-1.742,0.104
		c0,1.505,0,2.991,0,4.876c1.517-0.598,2.987-0.993,4.272-1.723c4.068-2.303,7.483-5.443,10.367-9.105
		c2.198-2.789,4.116-5.802,6.164-8.711c0.211-0.301,0.461-0.575,0.692-0.862C616.848,429.396,617.001,429.429,617.155,429.461z
		 M591.855,438.361c0.932-0.381,1.832-0.632,2.608-1.096c1.979-1.177,2.625-3.172,2.879-5.318c0.057-0.487-0.199-1.009-0.311-1.515
		c-0.441,0.198-0.966,0.302-1.305,0.614c-0.511,0.471-0.819,1.462-1.341,1.565c-1.593,0.315-2.531,1.517-3.603,2.457
		c-0.53,0.465-0.677,1.594-0.633,2.401C590.165,437.78,591.196,438.035,591.855,438.361z M591.767,440.254
		c1.962,0.591,3.482,0.64,4.67-0.87C594.982,439.654,593.546,439.922,591.767,440.254z M592.183,444.964c-0.078,0-0.156,0-0.233,0
		c0,1.387,0,2.773,0,4.159c0.077-0.001,0.155-0.003,0.233-0.006C592.183,447.73,592.183,446.347,592.183,444.964z M591.675,426.782
		c1.217-0.473,2.173-0.844,3.151-1.224C593.709,424.985,592.958,425.247,591.675,426.782z"/>
</g>
</svg>
