<?xml version="1.0" encoding="utf-8"?>
<!-- Generator: Adobe Illustrator 17.1.0, SVG Export Plug-In . SVG Version: 6.00 Build 0)  -->
<!DOCTYPE svg PUBLIC "-//W3C//DTD SVG 1.1//EN" "http://www.w3.org/Graphics/SVG/1.1/DTD/svg11.dtd">
<svg version="1.1" id="Calque_1" xmlns="http://www.w3.org/2000/svg" xmlns:xlink="http://www.w3.org/1999/xlink" x="0px" y="0px"
	 viewBox="368.503 321.732 453.543 198.425" enable-background="new 368.503 321.732 453.543 198.425" xml:space="preserve">
<g>
	<path fill="#FFFFFF" d="M664.181,425.518c-0.585-5.954-2.084-13.438-8.5-18.669c3.828-5.837,4.849-12.421,3.034-19.576
		c-1.293-5.092-4.321-9.63-9.257-13.871c-10.864-9.343-23.274-13.149-36.883-11.311c-11.222,1.514-20.5,6.247-27.578,14.071
		c-4.104,4.529-6.592,8.805-7.802,13.421c-5.741-3.313-11.789-4.402-17.985-3.254c-7.338,1.371-12.844,5.902-16.369,13.471
		c-2.959,6.367-3.955,13.577-3.045,22.042c0.633,5.895,3.492,10.799,8.5,14.577c4.554,3.435,11.904,3.295,16.386-0.309
		c3.125-2.51,4.856-6.021,5.447-11.048c0.052-0.435-0.06-0.861-0.307-1.217l-0.725-1.688l-1.59,1.181
		c-0.523,0.388-1.037,0.784-1.597,1.216c-1.073,0.824-2.085,1.602-3.168,2.307c-3.174,2.065-6.61,2.77-10.201,2.092
		c-2.168-0.409-3.448-1.447-4.151-3.368c-1.626-4.44-1.957-9.215-1.008-14.6c0.774-4.401,2.404-7.763,4.982-10.277
		c5.154-5.022,11.534-6.387,19.51-4.178c4.107,1.139,7.366,3.208,9.683,6.152c1.016,1.292,0.964,1.781,0.234,2.905
		c-0.068,0.103-0.126,0.188-0.174,0.257c-0.057-0.044-0.125-0.099-0.203-0.169c-0.57-0.508-1.125-1.033-1.773-1.645l-3.536-3.323
		v4.219l-2.157,0.858l1.802,1.872l-0.321,0.113l0.697,1.552c0.049,0.105,0.088,0.216,0.141,0.366
		c0.153,0.414,0.343,0.931,0.742,1.385c0.679,0.779,1.429,1.487,2.228,2.104c1.074,0.825,2.326,1.176,3.517,0.984
		c1.174-0.188,2.228-0.888,2.966-1.974c1.141-1.671,1.931-3.085,2.485-4.447c1.466-3.599,0.992-6.932-1.375-9.639
		c-0.378-0.433-0.764-0.859-1.151-1.284c-0.478-0.532-0.958-1.064-1.49-1.686c-0.105-0.122-0.185-0.216-0.255-0.284
		c-0.131-2.327-0.147-4.417,0.794-6.365c2.38-4.952,5.264-8.787,8.813-11.724c7.084-5.862,15.65-8.078,26.983-6.949
		c6.419,0.638,12.725,3.232,19.28,7.928c4.979,3.572,8.294,7.276,10.431,11.653c2.593,5.317,2.448,9.825-0.455,14.185
		c-3.544,5.317-7.431,9.783-11.886,13.652c-0.25,0.217-0.514,0.421-0.777,0.624l-0.479,0.375
		c-3.627-6.311-8.927-10.056-15.76-11.135c-6.239-0.989-12.44-0.065-18.445,2.742c-6.279,2.934-11.101,7.683-14.989,11.943
		c-1.22,1.341-1.893,2.845-2.12,4.77l-0.008,2.272l2.251-0.706c0.185-0.057,0.466-0.145,0.736-0.338
		c0.243-0.168,0.649-0.451,0.959-0.904c1.292-1.908,3.289-3.176,5.221-4.403c7.947-5.053,15.226-7.174,22.891-6.652
		c8.239,0.554,14.914,6.285,16.608,14.262c0.871,4.114,0.835,8.415-0.111,13.153c-1.896,9.444-7.091,17.099-15.884,23.402
		c-5.648,4.047-11.095,5.621-17.118,4.958c-3.68-0.403-6.56-1.632-8.803-3.759c-2.38-2.259-4.361-4.391-4.485-7.625
		c-0.022-0.604,0.008-0.635,0.16-0.785c3.328-3.327,6.022-7.161,8.007-11.394c2.558-5.448,3.483-10.174,2.907-14.878
		c-0.129-1.039-0.593-2.133-1.239-2.928c-0.708-0.878-1.51-1.626-2.285-2.348l-0.581-0.548c-0.776-0.743-1.595-1.082-2.426-0.966
		c-0.826,0.116-1.558,0.687-2.122,1.653l-0.977,1.672l0.939,0.306l-1.288,1.809l1.084,0.064l-0.464,1.166l1.668,1.167
		c-2.32,10.219-7.621,18.536-15.753,24.723c-6.46,4.914-13.824,6.549-21.885,4.857c-4.452-0.934-7.698-2.561-10.213-5.12
		c-3.727-3.789-6.326-8.358-7.727-13.579c-0.73-2.73-0.735-5.337-0.015-7.748c0.485-1.626,0.77-1.847,2.531-1.975
		c1.086-0.077,2.156-0.226,3.292-0.384l4.137-0.538l-3.42-4.893l-0.077,0.006l-0.013-0.249l-0.84-0.467
		c-0.263-0.187-0.75-0.535-1.486-0.535c-0.825,0.025-1.651,0.074-2.495,0.124c-0.925,0.057-1.881,0.115-2.823,0.134
		c-3.216,0.061-5.599,1.665-6.709,4.515c-0.696,1.794-1.134,3.672-1.265,5.435c-0.38,5.04,1.332,9.663,3.055,13.521
		c6.434,14.401,17.875,21.14,33.088,19.515c6.464-0.695,12.815-3.005,18.889-6.868c0.061,0.329,0.138,0.623,0.236,0.904
		c1.805,5.142,4.873,8.992,9.116,11.444c0.294,0.169,0.586,0.331,0.883,0.487l0.146-0.277l0.203,0.105l-0.143,0.279
		c3.4,1.748,7.029,2.635,10.789,2.635c3.15,0,6.454-0.624,9.82-1.854c9.13-3.335,16.444-9.13,21.735-17.229
		c0.853-1.304,1.658-2.659,2.45-4.129l1.581,1.842c0.668,0.779,1.474,1.249,2.33,1.358c2.112,0.266,4.261-0.06,6.531-1.005
		c5.267-2.19,8.764-6.36,11.491-10.148C663.194,442.43,665.084,434.721,664.181,425.518z M646.732,449.235
		c-0.565,0.519-1.12,0.978-1.669,1.381c-1.648,1.207-3.245,1.907-4.927,2.168c-0.523,0.082-1.07,0.11-1.647,0.13
		c1.673-3.893,2.725-7.782,3.152-11.656c0.713-6.454-0.305-12.861-3.055-19.158c0.086,0.017,0.169,0.004,0.253,0.013
		c0.181,0.018,0.363,0.044,0.539,0.027c0.784-0.076,1.523-0.461,2.138-0.835c4.065-2.455,7.359-5.866,9.805-8.623
		c0.24,0.181,0.591,0.406,1.044,0.496c1.428,0.28,2.229,1.46,3.126,2.973c2.565,4.335,3.274,9.289,2.168,15.148
		C656.429,437.83,652.956,443.531,646.732,449.235z"/>
</g>
</svg>
