<?xml version="1.0" encoding="utf-8"?>
<!-- Generator: Adobe Illustrator 17.1.0, SVG Export Plug-In . SVG Version: 6.00 Build 0)  -->
<!DOCTYPE svg PUBLIC "-//W3C//DTD SVG 1.1//EN" "http://www.w3.org/Graphics/SVG/1.1/DTD/svg11.dtd">
<svg version="1.1" id="Calque_1" xmlns="http://www.w3.org/2000/svg" xmlns:xlink="http://www.w3.org/1999/xlink" x="0px" y="0px"
	 viewBox="368.503 321.732 453.543 198.425" enable-background="new 368.503 321.732 453.543 198.425" xml:space="preserve">
<g>
	<path fill="#FFFFFF" d="M654.658,424.075c-0.294-1.507-0.597-3.058-0.796-4.608c-0.565-4.413-1.111-8.829-1.656-13.245l-0.015-0.12
		c-0.762-6.173-1.451-11.733-2.177-17.266c-0.437-3.323-1.028-6.693-1.598-9.952c-0.169-0.969-0.336-1.918-0.499-2.869
		c-0.147-0.847-0.364-1.204-0.67-1.351v0.306l-1.203,0.163c-0.419,0.056-0.811,0.109-1.203,0.166c-0.41,0.059-0.82,0.124-1.229,0.19
		l-1.238,0.194l-0.197-0.952l-1.957,0.261l2.961-2.046l-0.444,0.042l0.275-0.417c-1.731,0.262-3.466,0.51-5.203,0.757
		c-3.804,0.543-7.717,1.102-11.526,1.822c-5.469,1.035-11.021,2.155-16.39,3.238l-0.146,0.029
		c-6.346,1.281-12.909,2.607-19.484,3.82c-6.035,1.113-12.229,1.878-18.219,2.616l-1.335,0.165c-2.753,0.34-5.549,0.536-8.253,0.724
		l-0.125,0.009c-1.029,0.072-2.063,0.144-3.1,0.226c-0.069,0.245-0.154,0.486-0.237,0.719c-0.293,0.811-0.542,1.503-0.117,2.306
		l0.766,1.444l-1.576-0.434c-0.088-0.025-0.154-0.036-0.204-0.043c-0.01,0.051-0.024,0.126-0.042,0.238
		c-0.055,0.336-0.124,0.754-0.422,1.103l-1.4,1.637l0.203-2.726l-0.23,0.138l-0.288-0.271c-0.397,0.896-0.37,1.859-0.299,2.847
		c0.141,1.936,0.297,3.678,0.475,5.324c0.173,1.596,0.36,3.192,0.548,4.786c0.174,1.492,0.349,2.983,0.513,4.475
		c0.138,1.25,0.252,2.503,0.364,3.755l0.291,3.158l-1.236-0.833c-0.52-0.349-0.57-0.819-0.592-1.021l-0.473-4.253
		c-0.411-3.682-0.823-7.365-1.211-11.047c-0.205-1.951-0.44-4.16-0.472-6.361c-0.004-0.263-0.011-0.456-0.026-0.599l-0.265,0.686
		l-0.764-0.746c-0.003,0.005-0.005,0.011-0.009,0.017c-0.086,0.18-0.146,0.396-0.202,0.604l-0.002,0.001l-0.386,1.276l-1.919-1.477
		l-0.813,0.894l-0.319-1.703l-1.963,0.34l0.38-1.219l-0.93-0.537c-0.714,1.009-1.426,2.017-2.138,3.027
		c-1.854,2.629-3.957,5.609-6.038,8.471c-0.586,0.806-1.255,1.508-1.963,2.252c-0.211,0.223-0.411,0.432-0.609,0.646l0.254,0.409
		l-0.504,0.317c0.146,0.273,0.31,0.577,0.458,0.671c1.081,0.688,1.25,1.712,1.385,2.535c0.164,1,0.332,1.997,0.5,2.995l0.082,0.487
		c0.577,3.425,1.174,6.967,1.647,10.525c0.4,3.031,0.758,6.193,1.072,8.982c0.427,3.773,0.859,7.599,1.398,11.339
		c0.259,1.785,0.39,3.589,0.517,5.333c0.226,3.116,0.459,6.339,1.42,9.4c0.378,1.202,0.463,2.47,0.544,3.697
		c0.039,0.585,0.078,1.166,0.149,1.737l0.147,1.149l0.67,1.179c0.165,0.289,0.266,0.583,0.336,0.879
		c-0.031-0.891-0.059-1.794,0.096-2.707l0.833-4.923l1.101,9.707c0.177-0.137,0.348-0.253,0.536-0.355
		c0.331-0.181,0.936-0.176,1.419-0.022c0.544,0.173,0.716,0.849,0.697,1.232c-0.023,0.473,0.077,0.585,0.078,0.586
		c0.044,0.045,0.266,0.065,0.505,0.034c0.805-0.099,1.604-0.148,2.378-0.148c2.179,0,4.243,0.401,6.136,1.194
		c0.391,0.164,0.663,0.239,0.859,0.239c0.086,0,0.185-0.009,0.303-0.088l-0.32-0.375l0.969-1.025l-0.925-0.776l1.034-0.484
		l4.287-1.554l-1.787,2.279l0.665,0.815c0.215-0.09,0.425-0.181,0.634-0.271l0.157-0.067c0.893-0.386,1.739-0.75,2.643-1.013
		c4.398-1.275,8.802-2.532,13.206-3.789c4.827-1.378,9.655-2.757,14.474-4.159l4.047-1.171c8.659-2.5,17.586-5.078,26.143-8.334
		l4.607-3.095c0.195-0.13,0.393-0.255,0.591-0.372l-0.943,0.391l-0.684-1.477l5.447-2.749l-1.676,0.289l-1.294-7.798l-0.659,0.164
		c0.1,0.798,0.104,1.708,0.009,2.736c-0.066,0.706-0.852,1.195-1.259,1.356l-0.573,0.226c-3.806,1.503-8.119,3.206-12.28,4.76
		c-1.596,0.595-3.242,1.123-4.833,1.632c-0.732,0.234-1.451,0.464-2.167,0.701l-0.682,0.228l-3.94-12.706l0.577-0.316
		c0.097-0.062,0.287-0.181,0.516-0.254l3.461-1.091c5.805-1.829,11.612-3.659,17.424-5.464c0.881-0.271,1.347-0.315,1.725-0.167
		l1.284-0.237l-0.04-0.243l1.754-0.297l2.776,16.42l1.371-0.692l0.359,0.428c0.477,0.57,0.987,0.61,1.802,0.206
		c0.704-0.352,1.405-0.717,2.103-1.084c3.081-1.61,6.257-3.27,9.907-3.745l-0.153-0.033l1.047-1.249l-1.339-0.066l-0.064-1.413
		l1.66-0.46l-0.939-1.516l0.347-0.392c0.142-0.16,0.179-0.258,0.181-0.284c0.001,0.021-0.065-0.05-0.207-0.126l-0.472-0.255
		l0.774-3.422l0.909,1.452c0.097,0.156,0.177,0.256,0.234,0.32c0.047-0.07,0.11-0.177,0.185-0.342l0.282-0.618l0.578,0.236
		l0.4-1.284l1.014,0.564c0.249-0.552,0.22-1.144,0.088-1.884C654.944,425.548,654.801,424.811,654.658,424.075z M626.199,383.496
		l2.167,8.996l-1.591,0.454l-2.147-9.064L626.199,383.496z M592.875,390.121c0.987,0.758,2.945,9.029,2.955,11.07l0.217-0.059
		l1.038,3.804l-1.89,0.457l-0.795-3.815l0.049-0.013l-3.182-12.677L592.875,390.121z M561.247,393.853
		c10.208-0.583,19.531-1.698,28.502-3.408l0.654-0.124l0.164,0.642c0.159,0.613,0.318,1.216,0.474,1.814
		c0.337,1.275,0.685,2.596,0.996,3.943c0.318,1.37,0.614,2.744,0.909,4.118l0.039,0.184c0.232,1.089,0.465,2.175,0.708,3.259
		c0.084,0.376,0.16,0.931-0.151,1.414c-0.316,0.487-0.859,0.647-1.24,0.725c-2.93,0.602-5.858,1.218-8.786,1.835
		c-3.905,0.822-7.809,1.642-11.716,2.432c-1.661,0.336-3.359,0.572-5,0.801c-0.721,0.1-1.421,0.198-2.121,0.302
		c-0.294,0.044-0.589,0.072-0.907,0.103l-1.182,0.121l-2.088-18.118L561.247,393.853z M581.596,433.217
		c-3.727,1.244-7.448,2.501-11.169,3.76l-4.373,1.479c-0.158,0.051-0.293,0.055-0.413,0.057l-0.839,0.046l-0.143-1.174
		c-0.05-0.382-0.099-0.766-0.127-1.151l-0.345-4.771c-0.24-3.334-0.481-6.666-0.741-9.999c-0.078-1.008,0.346-1.593,1.262-1.737
		c3.483-0.549,6.964-1.101,10.541-1.669l4.192-0.664l0.154,0.632c0.149,0.613,0.303,1.224,0.456,1.836l0.079,0.318
		c0.386,1.537,0.823,3.28,1.203,4.999c0.302,1.372,0.562,2.772,0.812,4.126c0.135,0.734,0.27,1.461,0.411,2.188
		C582.725,432.367,582.403,432.948,581.596,433.217z M544.091,447.939l-1.654-16.258l1.588-0.163l1.682,16.25L544.091,447.939z
		 M601.262,448.783c-0.25,0.477-0.742,0.671-1.19,0.798c-3.394,0.961-6.781,1.943-10.168,2.926l-9.379,2.71
		c-5.245,1.511-10.487,3.023-15.722,4.563c-0.66,0.194-1.299,0.474-1.974,0.773c-0.458,0.201-0.914,0.402-1.376,0.576
		c-0.247,0.094-0.539,0.146-0.818,0.146c-0.229,0-0.443-0.034-0.633-0.102c-2.429-0.859-4.613-1.181-6.749-0.993
		c-1.339,0.121-1.437-0.983-1.467-1.332l-0.31-2.998c-0.143-1.394-0.287-2.785-0.436-4.177c-0.222-2.06-0.438-4.121-0.654-6.183
		l-0.007-0.081c-0.517-4.931-1.049-10.03-1.67-15.029c-0.649-5.228-1.413-10.474-2.152-15.547c-0.236-1.608-0.47-3.216-0.701-4.824
		c-0.107-0.745-0.256-1.507-0.401-2.242c-0.126-0.643-0.25-1.283-0.354-1.924c-0.035-0.219-0.016-0.51,0.047-0.808
		c-0.013-0.375,0.039-0.829,0.302-1.208c1.61-2.303,3.241-4.591,4.875-6.879l0.757-1.06c0.081-0.115,0.18-0.216,0.283-0.318
		l0.321-0.332l1.319,0.144l4.388,48.534l0.529-0.016c-0.339-6.667-0.808-13.32-1.272-19.815l-0.185-2.596l0.084-0.007l-0.039-0.542
		l1.714-0.118l0.022,0.311l2.296,31.949l0.585,2.109c0.045-0.306,0.092-0.719,0.156-1.276l0.682-6.031l0.505,4.221v-2.326
		l0.045-0.005v-0.543l1.263-0.139l0.293,0.708l0.353,5.158l0.94-1.359l0.233,1.027c-0.056-0.986-0.099-1.975-0.14-2.964
		c-0.034-0.836-0.068-1.671-0.112-2.506c-0.008-0.142,0.002-0.361,0.046-0.59c-0.02-0.408-0.036-1.276,1.063-1.648
		c7.681-2.611,15.358-5.234,23.036-7.86l7.141-2.441c0.109-0.038,0.223-0.059,0.389-0.083l0.788-0.129l0.199,0.557
		c0.163,0.451,0.327,0.901,0.491,1.35c0.375,1.03,0.75,2.057,1.094,3.094c0.284,0.861,0.55,1.728,0.815,2.594
		c0.295,0.968,0.591,1.934,0.914,2.889c0.089,0.266,0.131,0.636,0.053,1.011C601.417,448.183,601.422,448.482,601.262,448.783z
		 M611.873,422.62c-4.941,1.733-9.88,3.477-14.818,5.224l-5.462,1.931c-0.146,0.051-0.28,0.068-0.387,0.081l-0.779,0.124
		l-3.045-14.146l0.273-0.085l22.74-7.052l0.174,0.736c0.063,0.271,0.135,0.558,0.21,0.856c0.174,0.701,0.369,1.477,0.517,2.256
		c0.3,1.584,0.586,3.171,0.871,4.758c0.004,0.023,0.009,0.044,0.012,0.067c0.212,1.176,0.424,2.354,0.642,3.531
		C612.88,421.222,613.06,422.202,611.873,422.62z M616.754,399.014c-0.225,0.076-0.503,0.169-0.81,0.169
		c-0.387,0-0.734-0.149-1.01-0.434c-0.109,0.023-0.229,0.057-0.323,0.092c-2.664,0.996-5.326,1.999-7.988,3.003l-3.662,1.379
		c-0.163,0.06-0.314,0.078-0.404,0.089l-0.577,0.067l-0.244-0.538l-3.366-14.059l24.68-5.036l2.837,12.306l-0.875,0.319
		c-0.19,0.07-0.37,0.138-0.553,0.197l-1.209,0.384c-2.115,0.674-4.228,1.348-6.345,2.01L616.754,399.014z M629.182,417.655
		c-1.767,0.434-3.535,0.876-5.304,1.318l-2.869,0.717l-2.693-12.674l9.275-3.08l0.594,2.658c0.318,1.42,0.617,2.754,0.899,4.093
		c0.312,1.474,0.599,2.952,0.885,4.429l0.147,0.752C630.197,416.274,630.408,417.353,629.182,417.655z M632.372,389.02
		c-0.24-1.123-0.51-2.24-0.781-3.357c-0.15-0.618-0.299-1.239-0.444-1.86c-0.081-0.333-0.19-0.791,0.086-1.201
		c0.185-0.272,0.482-0.441,0.885-0.498c1.88-0.275,3.756-0.559,5.697-0.852l2.974-0.449l0.346,2.113
		c0.202,1.218,0.393,2.384,0.558,3.552c0.067,0.483-0.179,1.293-0.733,1.51c-1.513,0.596-3.037,1.161-4.561,1.726l-1.707,0.636
		c-0.297,0.11-0.559,0.164-0.803,0.164C633.342,390.503,632.634,390.246,632.372,389.02z M638.75,432.785l-0.573-3.114
		c-0.182-0.991-0.366-1.996-0.555-3.001c-0.109-0.582-0.228-1.16-0.349-1.74c-0.265-1.286-0.531-2.576-0.681-3.872
		c-0.121-1.043-0.091-2.094-0.063-3.11l0.003-0.115c0.011-0.406,0.022-0.811,0.022-1.216v-0.659l1.124-0.077
		c-0.378-2.896-0.816-6.092-1.333-9.229c-0.284-1.717-0.647-3.385-1.031-5.15c-0.172-0.791-0.345-1.589-0.515-2.4l-0.12-0.583
		l8.143-3.189l0.114,0.901c0.378,3.04,0.716,6.229,0.989,8.792c0.819,7.694,1.665,15.651,3.525,23.328l0.141,0.576L638.75,432.785z
		 M646.301,381.549l-1.076-5.558l1.568-0.309l1.072,5.564L646.301,381.549z"/>
	<path fill="#FFFFFF" d="M643.924,405.022c-0.272-2.562-0.61-5.752-0.989-8.792l-0.113-0.901l-8.143,3.189l0.12,0.583
		c0.169,0.811,0.343,1.609,0.515,2.4c0.384,1.765,0.748,3.432,1.031,5.15c0.516,3.136,0.954,6.333,1.333,9.229l-1.124,0.077v0.659
		c0,0.404-0.011,0.809-0.022,1.216l-0.004,0.115c-0.028,1.017-0.057,2.068,0.064,3.11c0.15,1.296,0.417,2.586,0.681,3.872
		c0.121,0.579,0.241,1.158,0.349,1.74c0.189,1.005,0.374,2.01,0.556,3.001l0.573,3.114l8.839-3.858l-0.141-0.576
		C645.589,420.673,644.743,412.716,643.924,405.022z M639.221,431.896l-0.43-2.339c-0.183-0.991-0.367-1.997-0.555-3.003
		c-0.112-0.586-0.231-1.169-0.361-1.79c-0.254-1.234-0.517-2.51-0.665-3.778c-0.115-1-0.086-2.027-0.059-3.027l0.003-0.11
		c0.012-0.411,0.023-0.824,0.023-1.232v-0.076l0.497-0.035l0.5,3.724l0.322-2.208c0.031-0.219,0.036-0.397,0.016-0.561
		c-0.426-3.307-0.932-7.151-1.551-10.911c-0.287-1.733-0.652-3.408-1.039-5.181c-0.172-0.789-0.345-1.585-0.513-2.393l-0.014-0.066
		l6.905-2.705l0.013,0.105c0.378,3.034,0.715,6.22,0.986,8.78c0.821,7.715,1.672,15.693,3.54,23.409l0.016,0.065L639.221,431.896z"
		/>
	<path fill="#FFFFFF" d="M628.366,392.493l-2.167-8.996l-1.571,0.387l2.147,9.064L628.366,392.493z M625.737,384.253l1.881,7.802
		l-0.387,0.11l-1.852-7.824L625.737,384.253z"/>
	<path fill="#FFFFFF" d="M624.459,396.569c0.183-0.059,0.362-0.126,0.553-0.197l0.875-0.318l-2.837-12.306l-24.68,5.035
		l3.365,14.059l0.244,0.539l0.576-0.067c0.091-0.011,0.242-0.029,0.404-0.089l3.663-1.379c2.662-1.004,5.324-2.007,7.988-3.003
		c0.093-0.034,0.214-0.068,0.323-0.091c0.277,0.284,0.624,0.434,1.01,0.434c0.307,0,0.586-0.094,0.81-0.169l0.15-0.051
		c2.118-0.663,4.231-1.337,6.345-2.01L624.459,396.569z M616.714,398.369l-0.16,0.052c-0.447,0.154-0.935,0.208-1.255-0.201
		l-0.108-0.139l-0.174,0.021c-0.179,0.021-0.434,0.084-0.624,0.154c-2.656,0.993-5.311,1.993-7.99,3.003l-3.662,1.38
		c-0.091,0.034-0.188,0.046-0.258,0.055l-0.127,0.015l-3.227-13.441l23.36-4.766l0.07,0.387l0.11-0.015l2.485,10.783l-0.359,0.129
		c-0.185,0.07-0.354,0.132-0.527,0.188l-1.21,0.385C620.947,397.032,618.834,397.705,616.714,398.369z"/>
	<path fill="#FFFFFF" d="M594.4,401.579l0.795,3.814l1.89-0.456l-1.038-3.804l-0.217,0.059c-0.01-2.041-1.968-10.312-2.955-11.07
		l-1.608-1.233l3.182,12.677L594.4,401.579z M596.312,404.48l-0.637,0.154l-0.544-2.611l0.476-0.125L596.312,404.48z
		 M592.309,390.474l0.18,0.138c0.638,0.613,3.078,9.513,2.708,10.754l-0.083,0.283L592.309,390.474z"/>
	<path fill="#FFFFFF" d="M612.178,417.37c-0.004-0.023-0.009-0.044-0.012-0.067c-0.285-1.587-0.571-3.174-0.871-4.759
		c-0.148-0.779-0.342-1.555-0.517-2.256c-0.074-0.298-0.146-0.585-0.21-0.856l-0.174-0.736l-22.74,7.052l-0.273,0.086l3.045,14.145
		l0.779-0.124c0.107-0.012,0.241-0.03,0.387-0.081l5.462-1.931c4.938-1.747,9.877-3.491,14.818-5.224
		c1.188-0.417,1.008-1.397,0.948-1.719C612.603,419.724,612.39,418.546,612.178,417.37z M611.665,422.029
		c-4.942,1.733-9.88,3.479-14.818,5.225l-5.461,1.93c-0.082,0.029-0.171,0.04-0.275,0.052l-0.199,0.032l-2.799-13.008l21.826-6.768
		l0.021,0.083c0.064,0.275,0.135,0.564,0.216,0.882c0.169,0.676,0.361,1.443,0.505,2.204c0.3,1.582,0.586,3.167,0.883,4.819
		c0.212,1.179,0.425,2.357,0.642,3.535C612.299,421.518,612.24,421.828,611.665,422.029z"/>
	<path fill="#FFFFFF" d="M563.77,411.894c0.318-0.031,0.613-0.059,0.907-0.103c0.7-0.105,1.399-0.202,2.121-0.302
		c1.641-0.229,3.339-0.464,5-0.801c3.907-0.79,7.811-1.61,11.716-2.432c2.928-0.616,5.857-1.233,8.786-1.835
		c0.381-0.078,0.924-0.238,1.24-0.725c0.311-0.483,0.235-1.038,0.151-1.414c-0.243-1.084-0.476-2.171-0.708-3.259l-0.039-0.184
		c-0.294-1.375-0.59-2.749-0.909-4.118c-0.311-1.346-0.659-2.668-0.996-3.943c-0.157-0.598-0.316-1.201-0.474-1.814l-0.164-0.642
		l-0.654,0.124c-8.97,1.71-18.294,2.825-28.502,3.408l-0.747,0.043l2.088,18.118L563.77,411.894z M561.282,394.478
		c10.235-0.586,19.585-1.704,28.582-3.419l0.076-0.014l0.02,0.074c0.159,0.614,0.318,1.22,0.475,1.818
		c0.337,1.272,0.684,2.588,0.994,3.926c0.318,1.366,0.612,2.737,0.904,4.108l0.041,0.183c0.232,1.091,0.465,2.179,0.708,3.266
		c0.06,0.266,0.118,0.653-0.066,0.939c-0.188,0.289-0.57,0.397-0.841,0.452c-2.932,0.603-5.862,1.22-8.792,1.836
		c-3.901,0.82-7.802,1.641-11.709,2.431c-1.642,0.333-3.331,0.568-4.983,0.797c-0.703,0.098-1.405,0.195-2.106,0.301
		c-0.282,0.042-0.568,0.07-0.894,0.1l-0.553,0.057l-1.941-16.848L561.282,394.478z"/>
	<path fill="#FFFFFF" d="M629.97,415.115c-0.286-1.477-0.573-2.956-0.885-4.429c-0.282-1.339-0.581-2.673-0.9-4.093l-0.594-2.658
		l-9.275,3.08l2.693,12.674l2.868-0.717c1.768-0.441,3.536-0.884,5.304-1.318c1.225-0.303,1.014-1.382,0.933-1.789L629.97,415.115z
		 M629.033,417.047c-1.767,0.435-3.535,0.876-5.304,1.318l-2.244,0.56l-2.441-11.493l8.089-2.687l0.454,2.038
		c0.307,1.367,0.606,2.698,0.888,4.032c0.31,1.47,0.596,2.944,0.883,4.418l0.147,0.754
		C629.623,416.598,629.583,416.912,629.033,417.047z"/>
	<path fill="#FFFFFF" d="M636.399,389.704c1.524-0.565,3.049-1.13,4.561-1.726c0.555-0.217,0.799-1.026,0.733-1.51
		c-0.165-1.168-0.357-2.334-0.558-3.552l-0.346-2.113l-2.974,0.449c-1.941,0.293-3.817,0.577-5.697,0.852
		c-0.403,0.057-0.701,0.226-0.885,0.498c-0.277,0.41-0.167,0.868-0.086,1.201c0.146,0.621,0.294,1.242,0.444,1.86
		c0.271,1.117,0.541,2.234,0.781,3.357c0.263,1.225,0.97,1.483,1.517,1.483c0.244,0,0.506-0.054,0.803-0.164L636.399,389.704z
		 M633.889,389.878c-0.298,0-0.716-0.103-0.907-0.989c-0.24-1.129-0.513-2.25-0.784-3.373c-0.15-0.618-0.299-1.237-0.444-1.859
		c-0.077-0.316-0.119-0.537-0.004-0.706c0.082-0.121,0.236-0.198,0.458-0.23c1.881-0.275,3.76-0.558,5.708-0.853l2.355-0.355
		l0.247,1.501c0.201,1.215,0.393,2.376,0.555,3.542c0.03,0.21-0.055,0.53-0.19,0.713c-0.047,0.061-0.098,0.107-0.151,0.128
		c-1.508,0.593-3.03,1.159-4.549,1.721l-1.707,0.635C634.249,389.838,634.058,389.878,633.889,389.878z"/>
	<path fill="#FFFFFF" d="M581.331,425.179c-0.379-1.719-0.816-3.462-1.203-4.999l-0.079-0.319c-0.153-0.611-0.307-1.223-0.456-1.836
		l-0.154-0.632l-4.192,0.664c-3.576,0.568-7.058,1.12-10.541,1.668c-0.915,0.144-1.34,0.729-1.262,1.737
		c0.26,3.333,0.5,6.665,0.741,9.999l0.346,4.772c0.029,0.385,0.077,0.769,0.127,1.151l0.143,1.174l0.839-0.046
		c0.12-0.003,0.255-0.007,0.412-0.057l4.374-1.478c3.722-1.259,7.443-2.516,11.169-3.76c0.807-0.268,1.129-0.849,0.958-1.724
		c-0.142-0.727-0.276-1.454-0.411-2.188C581.892,427.951,581.633,426.551,581.331,425.179z M581.398,432.624
		c-3.727,1.244-7.45,2.501-11.172,3.761l-4.371,1.477c-0.067,0.022-0.139,0.023-0.24,0.026l-0.265,0.014l-0.072-0.596
		c-0.049-0.372-0.096-0.745-0.125-1.118l-0.346-4.771c-0.24-3.333-0.481-6.668-0.741-10.003c-0.044-0.582,0.063-0.964,0.737-1.07
		c3.482-0.549,6.964-1.101,10.54-1.668l3.623-0.574l0.018,0.072c0.15,0.614,0.303,1.228,0.456,1.841l0.081,0.317
		c0.383,1.535,0.819,3.272,1.198,4.982c0.3,1.363,0.558,2.758,0.808,4.109c0.134,0.732,0.271,1.461,0.412,2.19
		C582.038,432.106,581.979,432.43,581.398,432.624z"/>
	<path fill="#FFFFFF" d="M645.226,375.992l1.076,5.558l1.564-0.303l-1.072-5.564L645.226,375.992z M646.797,380.817l-0.839-4.333
		l0.34-0.067l0.835,4.333L646.797,380.817z"/>
	<path fill="#FFFFFF" d="M542.437,431.68l1.654,16.258l1.616-0.171l-1.682-16.25L542.437,431.68z M544.65,447.25l-1.528-15.011
		l0.346-0.035l1.552,15.007L544.65,447.25z"/>
</g>
</svg>
