<?xml version="1.0" encoding="utf-8"?>
<!-- Generator: Adobe Illustrator 17.1.0, SVG Export Plug-In . SVG Version: 6.00 Build 0)  -->
<!DOCTYPE svg PUBLIC "-//W3C//DTD SVG 1.1//EN" "http://www.w3.org/Graphics/SVG/1.1/DTD/svg11.dtd">
<svg version="1.1" id="Calque_1" xmlns="http://www.w3.org/2000/svg" xmlns:xlink="http://www.w3.org/1999/xlink" x="0px" y="0px"
	 viewBox="368.503 321.732 453.543 198.425" enable-background="new 368.503 321.732 453.543 198.425" xml:space="preserve">
<g>
	<path fill="#FFFFFF" d="M630.883,409.599l-1.263-3.482c-0.309-0.84-0.63-1.678-0.952-2.513l-0.893-2.329l0.317-0.127l-2.643-4.099
		c-0.079,0.03-0.164,0.052-0.251,0.066c-0.369,0.073-0.74,0.122-1.109,0.168c-0.541,0.069-1.052,0.134-1.49,0.279
		c0.006,0.01-0.15,0.2-0.254,0.329c-0.141,0.171-0.279,0.342-0.426,0.488l-0.474,0.298l-2.455,0.862
		c-0.475,0.622-1.039,1.067-1.508,1.44c-0.094,0.073-0.193,0.142-0.294,0.212c-0.339,0.296-0.378,0.335,0.042,1.194l0.99,2.031
		c1.043,2.143,2.087,4.285,3.059,6.455c1.362,3.037,0.992,6.133,0.636,9.131l-0.366,3.118l-1.828-1.861
		c-1.02-1.04-1.822-1.953-2.419-3.047c-1.573-2.884-3.062-5.808-4.549-8.733c-0.094-0.191-0.184-0.384-0.272-0.576
		c-0.549-1.201-0.766-1.355-1.628-1.292l-3.232,0.264l2.221-2.363c0.187-0.203,0.22-0.298,0.221-0.3
		c-0.028,0.061-0.167-0.117-0.263-0.234c-0.115-0.146-0.245-0.314-0.368-0.503l-2.332-0.11l0.978-1.783
		c-0.283-0.031-0.387,0.01-1.288,0.447c-0.514,0.249-1.029,0.503-1.539,0.764l-6.728,3.509l-1.137-2.315l-0.652-1.547
		c-0.539-1.292-1.076-2.586-1.708-3.828c-0.077-0.149-0.318-0.388-0.492-0.518c-0.765,0.191-1.469,0.403-2.073,0.737l0.024,0.018
		l0.71,2.707l-1.973-0.344c-0.72-0.159-1.401-0.21-1.8-0.032l2.494,1.582l-3.298,0.503c-0.622,0.093-1.081,0.357-1.52,0.769
		c0.311,0.166,0.596,0.4,0.794,0.749c1.094,1.926,2.211,3.894,1.511,6.402c-0.437,1.579-0.3,2.322,0.542,2.937l1.292,0.942
		l-3.054,2.551l-0.867-0.823c-0.132,0.003-0.263,0-0.396-0.004c-0.272-0.008-0.53-0.015-0.712,0.024
		c-1.28,0.271-2.534,0.547-3.729,0.915c-0.5,0.156-1.003,0.205-1.444,0.249c-0.865,0.086-1.215,0.152-1.475,0.513
		c-0.362,0.508-0.92,0.591-1.159,0.625l-0.538,0.154c-0.082,0.024-0.161,0.049-0.237,0.07c0.042,0.091,0.078,0.183,0.107,0.286
		l0.354,1.292c0.447,1.648,0.911,3.354,1.538,4.919c1.409,3.513,2.159,6.907,2.295,10.383c0.028,0.659-0.017,1.326-0.061,1.995
		l-0.096,1.824l-2.064,0.4l-0.693-0.786c-0.245-0.249-0.551-0.561-0.75-1.004l-0.27-0.595c-0.576-1.263-1.172-2.566-1.633-3.921
		c-0.515-1.519-0.979-3.049-1.443-4.583c-0.318-1.045-0.635-2.092-0.967-3.135c-0.046-0.144-0.083-0.296-0.117-0.454
		c-0.005-0.017-0.009-0.036-0.011-0.056c-0.505-0.046-0.945-0.163-1.342-0.3l-0.583,2.786l-2.069-3.845l-1.642,0.95l-2.051-2.561
		l0.065-0.031l-0.547-0.068l0.345-0.466c-2.913,1.526-5.833,3.098-8.786,4.68l-4.326,2.322l-1.045-2.637
		c-0.351-0.898-0.689-1.762-1.052-2.622c-0.934-2.198-0.714-2.869,1.283-4.048l0.492-0.293c0.567-0.342,1.135-0.684,1.727-0.971
		l19.5-9.5c0.008-0.003,0.013-0.003,0.02-0.008l0.341-1.142l-0.969,0.357l-1.293-2.212l1.522-1.145l-1.083-0.957
		c-0.116-0.176-0.181-0.337-0.207-0.495l-1.567,0.569l-0.914-1.975l0.219-0.234l-1.728-0.335c-4.916,2.27-9.272,4.333-13.266,6.277
		c-5.354,2.605-9.601,5.069-13.286,7.705l0.194,0.859l5.153-0.943l-4.54,3.34c0.011,0.085,0.021,0.168,0.027,0.254
		c0.115,1.614-1.212,2.146-1.711,2.346c-0.428,0.18-0.667,0.296-0.805,0.368c0.046,0.137,0.125,0.349,0.27,0.681
		c0.888,2.044,1.77,4.073,2.5,6.133c0.971,2.742,1.917,5.491,2.862,8.24c1.245,3.618,2.491,7.234,3.791,10.832
		c1.058,2.93,2.347,5.764,3.591,8.501c0.144,0.315,0.549,0.703,0.869,0.83c0.268,0.105,0.769,0.12,1.255,0.115
		c0.052-0.078,0.111-0.154,0.168-0.225l0.698-0.857l1.113,0.605c0.801-0.703,1.692-1.294,2.809-1.279l1.75-1.824l-1.437-3.662
		c-1.019-2.586-2.008-5.1-2.949-7.632c-1.262-3.381-0.999-4.094,2.17-5.849c1.02-0.569,2.051-1.116,3.125-1.685l3.004-1.607
		l0.574,2.178c0.064,0.266,0.105,0.483,0.197,0.686c0.509,1.123,0.992,2.188,1.568,3.198c0.253,0.449,0.549,0.874,0.845,1.301
		c0.431,0.622,0.874,1.264,1.23,1.99c1.593,3.249,5.939,5.91,9.654,5.81c2.818-0.059,5.282-1.272,7.891-2.556
		c4.724-2.322,6.906-5.732,6.852-10.517c-0.034-2.876-0.246-5.938-1.568-8.826c-0.487-1.067-0.846-2.175-1.194-3.245
		c-0.152-0.471-0.305-0.94-0.466-1.402l-0.383-1.094l2.461-1.081l0.779,1.365c0.208,0.335,0.444,0.716,0.604,1.169
		c1.693,4.727,3.379,9.458,5.011,14.212c0.226,0.659,0.215,1.472-0.039,2.419c-0.021,0.078-0.046,0.156-0.073,0.232
		c0.445,0.081,0.838,0.022,1.268-0.208c0.153-0.085,0.307-0.188,0.466-0.288c0.494-0.315,1.051-0.676,1.698-0.759
		c0.193-0.027,0.217-0.032,0.512-0.478l0.22-0.32c0.215-0.418,0.548-1.062,1.331-1.143c0.595-0.059,0.734-0.249,1.073-1.473
		l0.436-1.457l1.003,0.095c-1.323-5.022-3.092-10.359-5.564-16.787l-0.398-1.035l3.45-1.816l0.569,1.145
		c0.278,0.559,0.559,1.104,0.838,1.636c0.614,1.179,1.193,2.292,1.681,3.491c1.977,4.866,6.033,7.9,10.848,8.12
		c2.543,0.115,5.113-0.598,7.24-2.007c0.704-0.471,1.379-0.981,2.055-1.497c0.841-0.637,1.683-1.276,2.574-1.839
		c1.077-0.678,1.632-1.408,1.747-2.29l0.089-0.684c0.315-2.388,0.614-4.642-0.183-6.805
		C631.868,412.328,631.375,410.964,630.883,409.599z"/>
	<path fill="#FFFFFF" d="M645.289,420.285l0.32-1.872l1.701,0.657c-0.431-2.949-0.837-5.694-1.418-8.431
		c-0.254-1.194-0.633-2.348-1.035-3.569c-0.695-2.119-1.415-4.314-1.467-6.787c-0.096-4.66,1.529-8.325,4.969-11.203
		c0.493-0.415,0.459-0.488,0.316-0.789c-0.319-0.671-0.549-0.752-0.995-0.771c-1.477,0.02-2.768,0.344-4.112,0.989
		c-1.029,0.493-2.063,0.979-3.094,1.462l-2.852,1.343l-3.624,4.124l0.057,0.642l-1.636-0.625c-0.113,0.229-0.265,0.444-0.466,0.635
		c-0.57,0.525-1.294,0.703-2.439,0.52c-0.268-0.012-0.372-0.007-0.414,0c0.023,0.015,0.012,0.129,0.042,0.318
		c0.061,0.393,0.154,0.788,0.264,1.253l0.502,2.234l0.146-0.059l0.753,1.028l0.611,1.413c0.466,1.074,0.93,2.146,1.34,3.24
		c0.666,1.773,1.302,3.56,1.941,5.345l1.2,3.34c0.039,0.105,0.082,0.224,0.117,0.31c1.462,0.874,1.728,2.334,1.928,3.413
		c0.109,0.593,0.167,1.196,0.222,1.797c0.046,0.493,0.091,0.981,0.171,1.465c0.011,0.056,0.026,0.12,0.05,0.178
		c0.347,0.081,0.719,0.132,1.107,0.178l0.573-1.911l1.81,1.674c0.772-0.664,1.792-1.215,2.909-1.079L645.289,420.285z"/>
	<path fill="#FFFFFF" d="M535.218,389.931c2.02,1.985,4.042,3.973,6.114,5.896c0.015,0.008,0.058,0.015,0.116,0.03
		c0.197-0.176,0.406-0.303,0.619-0.388l-0.906-1.211l1.667-1.365l0.968,0.403l0.836,0.599l0.464-1.431l0.872-0.257l-1.458-2.259
		l2.32,0.428l-0.294-1.472l1.189,0.156c-2.427-2.537-4.931-4.993-7.065-7.068c-0.161-0.156-0.332-0.307-0.509-0.449l0.014,0.12
		l-1.741-0.449l-1.335,1.072l1.904,2.854l-3.272-0.935c-0.229-0.064-0.417-0.102-0.555-0.11c-0.092,0.146-0.12,0.556-0.145,0.95
		c-0.017,0.261-0.034,0.518-0.067,0.772l-0.458,3.404c0.023,0.022,0.047,0.046,0.068,0.068L535.218,389.931z"/>
	<path fill="#FFFFFF" d="M533.33,387.431l-0.284,0.283c0.414,0.442,0.815,0.867,1.227,1.282L533.33,387.431z"/>
	<path fill="#FFFFFF" d="M650.228,438.849l-0.709-0.364c-0.343,0.273-0.706,0.576-0.815,0.813c-0.188,0.415-0.483,0.713-0.718,0.954
		c-0.034,0.032-0.073,0.076-0.112,0.115c0.017,0.017,0.035,0.039,0.059,0.061l2.612,2.629l-3.672-0.508
		c-0.393-0.051-0.426-0.032-0.724,0.491l4.089,2.492l-5.208-0.237l-0.469,0.837c0.388,0.234,0.767,0.481,1.119,0.762
		c1.214,0.974,2.384,2.005,3.555,3.032l0.215,0.186c0.189,0.168,0.391,0.329,0.595,0.49c0.637,0.51,1.361,1.084,1.841,1.89
		c0.367,0.618,0.732,0.684,1.222,0.684c0.026-0.059,0.055-0.108,0.083-0.154c0.054-0.087,0.112-0.163,0.174-0.227l-0.369-0.217
		l1.453-1.746l0.985-0.061l0.625,0.161l0.583-1.719l0.171-0.078l-0.365-0.181l1.131-1.245l-0.138-0.122l0.469-0.882
		c0.306-0.573,0.622-0.84,1.15-0.989c-1.877-1.704-3.955-3.557-6.155-5.298C652.132,439.816,651.208,439.347,650.228,438.849z"/>
	<path fill="#FFFFFF" d="M581.55,374.552c0.17,1.758,0.282,3.518,0.396,5.279l0.152,2.322c0.041,0.561,0.122,0.869,0.25,1.049
		c0.306-0.169,0.599-0.212,0.815-0.21c-0.001-0.056-0.004-0.107-0.006-0.161l-0.091-1.46l2.052-0.393l0.652,0.85l0.458,1.013
		l1.193-1.057l0.543,0.134l-1.492-7.285l3.467,5.447l0.105-0.28l1.227,0.107c-0.125-1.624-0.316-3.245-0.508-4.863l-0.162-1.387
		c-0.18-1.555-0.359-3.117-0.642-4.656c-0.042-0.227-0.109-0.324-0.128-0.342l-0.323,0.01c-0.724,0.139-1.466,0.186-2.223,0.23
		l-0.022,0.003c-0.44,1.04-1.294,1.137-1.706,1.118c-0.24-0.01-0.461-0.066-0.661-0.134c-0.185,0.222-0.484,0.457-0.958,0.547
		l-1.523,3.242l-1.234-1.801c-0.065-0.096-0.117-0.154-0.156-0.198c0.017,0.076,0.034,0.151,0.05,0.224
		C581.274,372.802,581.464,373.669,581.55,374.552z"/>
	<path fill="#FFFFFF" d="M633.817,368.273l0.397,1.841l1.349-1.053l-0.07,1.536l0.708-1.116l0.775,0.405l0.211-0.11l-0.034,0.202
		l1.056,0.559l-0.224,1.142l-0.341,0.869l0.59,0.254l0.888-1.721c1.171-2.266,2.338-4.522,3.462-6.797l-0.488,0.025l-0.167-0.603
		l-4.989,6.064l3.103-8.396l-1.285-0.117l-0.71-0.886l-1.616,1.316l-0.28-1.677c-0.692,0.071-1.245-0.286-1.503-0.776
		c-0.102,0.154-0.213,0.357-0.347,0.632c-0.824,1.699-1.697,3.376-2.572,5.051c-0.523,1.006-1.047,2.012-1.56,3.023
		c0.615,0.696,1.254,1.374,1.895,2.051L633.817,368.273z"/>
	<path fill="#FFFFFF" d="M611.726,463.493c-0.459-0.796-0.917-1.594-1.396-2.38c-0.684-1.118-1.393-2.227-2.104-3.335l-0.319-0.501
		l-0.195,0.054c-0.524,0.151-1.048,0.295-1.582,0.352c-0.675,0.073-0.734,0.271-0.711,0.74l0.095,2.148l-1.359-0.694l-0.208,0.859
		l-0.708-0.088l0.52,2.407l-3.085-0.832l-0.143,0.645l0.909,1.844c0.621,1.267,1.242,2.537,1.892,3.789
		c0.385,0.752,0.678,1.294,1.012,1.665l0.126-0.466l0.993,0.281l-1.504-4.72l4.272,4.322l0.853-1.141l0.492-0.083
		c0.253-0.044,0.491-0.076,0.72-0.105c0.305-0.039,0.576-0.073,0.791-0.129c0.019-0.034,0.038-0.073,0.06-0.11
		c0.084-0.149,0.168-0.296,0.26-0.424l-0.195-2.666l1.87,0.869c-0.02-0.024-0.047-0.069-0.08-0.117
		C612.55,464.921,612.138,464.208,611.726,463.493z"/>
	<path fill="#FFFFFF" d="M530.434,446.423l1.106-0.813l-0.992-0.652l1.479-1.206c-0.005-0.017-0.01-0.032-0.014-0.049
		c-0.2-0.068-0.401-0.039-0.599-0.007c-0.459,0.059-0.761,0.12-1.062,0.176c-0.676,0.129-1.377,0.268-2.131,0.241
		c-0.01,0-0.021-0.003-0.031-0.003c-1.13-0.051-2.048-0.151-2.966-0.249c-0.753-0.083-1.508-0.166-2.262-0.215
		c-0.172-0.01-0.331-0.039-0.471-0.076c-0.169,0.581-0.422,1.047-0.697,1.477l4.731,1.787l-3.188,0.384l0.217,0.139l-1.228,0.566
		l2.506,1.289l-2.059,0.302l0.67,0.366l-0.715,0.249l-0.262,1.709l-1.509,0.129c-0.052,0.225-0.122,0.469-0.233,0.713l1.237,0.164
		c1.683,0.227,3.425,0.464,5.115,0.539l0.3,0.013c0.675,0.022,1.442-0.21,2.255-0.469l-0.355-0.385l1.396-0.85l-0.807-0.82
		l1.76-0.876c0.011-0.246,0.086-0.459,0.185-0.635l-0.731-0.867l0.875-1.194L530.434,446.423z"/>
	<path fill="#FFFFFF" d="M668.69,400.649l-1.484-0.247c-1.336-0.215-2.668-0.432-3.982-0.735c-0.721-0.166-1.381-0.449-2.017-0.733
		c-0.204,0.31-0.424,0.589-0.634,0.855c-0.75,0.954-0.913,1.26-0.651,1.877l0.531,1.24l-1.28,0.435
		c-0.154,0.051-0.247,0.1-0.297,0.132c0.055,0.044,0.161,0.246,0.449,0.555l3.659,3.928l-4.66-1.77
		c-0.137,0.43-0.267,0.847-0.37,1.274c-0.089,0.359-0.031,0.381,0.186,0.464c0.609,0.23,1.228,0.44,1.857,0.598l1.047,0.269
		c1.398,0.359,2.843,0.728,4.259,0.967c0.373,0.061,0.908,0.036,1.13-0.005c0.215-0.327,0.457-0.591,0.716-0.806l-1.81-1.389
		l3.22-0.603c0.013-0.991,0.306-1.777,0.716-2.392l-2.087-1.472l1.621-0.452l-0.842-0.84l1.86-0.862
		C669.586,400.824,669.232,400.739,668.69,400.649z"/>
	<path fill="#FFFFFF" d="M561.066,472.631l-0.318-0.701l-0.614,1.099l-1.523-0.691l-0.417,0.522l-0.656-2.307l-0.303,0.328
		l-0.141-0.203c-0.658,1.529-1.292,2.993-1.991,4.424c-0.789,1.618-1.699,3.184-2.579,4.7l-0.169,0.293
		c0.371,0.305,0.713,0.678,1.048,1.138c0.193,0.262,0.261,0.332,0.679,0.386l0.317,0.036c0.824,0.095,1.973,0.224,2.864,1.001
		c0.599-0.352,1.05-0.896,1.413-1.688c0.266-0.581,0.598-1.13,0.932-1.677l0.336-0.564l0.387-0.835l1.804-4.023l0.299-1.062
		l-0.19-0.402L561.066,472.631z"/>
</g>
</svg>
