<?xml version="1.0" encoding="utf-8"?>
<!-- Generator: Adobe Illustrator 17.1.0, SVG Export Plug-In . SVG Version: 6.00 Build 0)  -->
<!DOCTYPE svg PUBLIC "-//W3C//DTD SVG 1.1//EN" "http://www.w3.org/Graphics/SVG/1.1/DTD/svg11.dtd">
<svg version="1.1" id="Calque_1" xmlns="http://www.w3.org/2000/svg" xmlns:xlink="http://www.w3.org/1999/xlink" x="0px" y="0px"
	 viewBox="368.503 321.732 453.543 198.425" enable-background="new 368.503 321.732 453.543 198.425" xml:space="preserve">
<g>
	<path fill="#FFFFFF" d="M547.65,419.144c-0.557-0.768-1.188-1.565-1.148-2.324c0.104-1.976,0.205-4.036,0.839-5.883
		c2.539-7.388,5.836-14.432,10.439-20.801c3.568-4.938,7.791-9.194,12.938-12.522c1.322-0.859,2.577-1.129,3.959-0.4
		c1.971,1.048,4.053,1.96,5.843,3.263c5.761,4.201,10.333,9.582,14.641,15.21c0.531,0.694,0.466,1.163-0.189,1.713
		c-2.167,1.811-4.259,3.718-6.486,5.451c-0.481,0.373-1.754,0.497-2.074,0.167c-1.278-1.316-3.007-0.632-4.397-1.256
		c-0.034-0.014-0.132,0.112-0.263,0.234c0.261,0.323,0.513,0.637,0.939,1.17c-0.905,0.048-1.567,0.084-2.267,0.117
		c0.146,0.745,0.275,1.409,0.406,2.068c-0.427-0.036-0.847-0.072-1.267-0.103c-0.023,0.096-0.045,0.191-0.069,0.292
		c0.522,0.39,1.044,0.783,1.567,1.172c-0.043,0.07-0.087,0.141-0.131,0.213c-0.652-0.182-1.302-0.364-1.956-0.546
		c-0.047,0.089-0.096,0.177-0.143,0.266c0.297,0.347,0.594,0.697,0.939,1.096c-0.565-0.04-1-0.074-1.435-0.105
		c-0.04,0.1-0.084,0.201-0.123,0.304c0.541,0.4,1.083,0.806,1.733,1.287c-0.93,0.307-1.697,0.56-2.617,0.862
		c0.583,0.507,1.033,0.895,1.75,1.514c-1.003-0.174-1.656-0.29-2.311-0.402c-0.183,0.237-0.366,0.471-0.548,0.706
		c0.732,0.383,1.463,0.763,2.195,1.148c-0.093,0.091-0.186,0.184-0.28,0.277c-0.582-0.094-1.163-0.186-2.115-0.335
		c0.508,0.624,0.763,0.935,0.782,0.96c-0.173,1.098-0.307,1.952-0.449,2.849c-0.245,0.055-0.588,0.129-1.066,0.232
		c0.382,0.454,0.641,0.771,0.915,1.098c-0.188,0.089-0.336,0.158-0.406,0.191l0,0c0,1.004-0.001,1.701,0.002,2.397
		c0.003,0.945-0.341,2.098,0.076,2.799c1.456,2.448,4.006,2.936,6.169,1.086c1.855-1.586,3.662-1.89,5.998-1.344
		c5.632,1.314,11.34,2.302,16.976,3.603c1.849,0.428,3.557,1.551,5.547,0.282c-0.09-0.263-0.221-0.66-0.366-1.089
		c0.756-0.435,1.507-0.866,2.327-1.342c-0.223-0.562-0.464-1.177-0.751-1.907c0.685,0.069,1.234,0.127,1.943,0.201
		c-0.232-1.611-0.44-3.072-0.632-4.402c0.568-0.486,1.206-1.026,1.784-1.521c-0.225-0.653-0.69-1.519-0.538-1.648
		c0.859-0.72,0.123-1.206-0.103-1.773c-0.168-0.417-0.336-0.837-0.564-1.402c0.687,0,1.127,0,1.522,0
		c-0.254-1.077-0.935-2.228-0.628-2.962c1.12-2.68,1.484-5.778,3.938-7.8c0.222-0.184,0.251-0.605,0.362-0.926
		c0.357-1.043,0.58-2.158,1.09-3.12c1.182-2.237,2.56-4.374,3.74-6.613c0.625-1.184,1.429-2.514,1.385-3.754
		c-0.06-1.675,0.125-3.146,0.866-4.618c0.196-0.395,0.151-0.923,0.17-1.393c0.036-0.952-0.228-2.029,0.125-2.835
		c0.505-1.151,0.503-1.902-0.197-3.027c-1.34-2.154-2.894-2.749-5.044-1.445c-0.662,0.402-1.311,0.857-1.89,1.371
		c-3.199,2.845-6.405,5.685-9.538,8.604c-0.828,0.768-1.216,0.655-1.971-0.103c-2.92-2.924-5.769-5.955-8.948-8.582
		c-7.374-6.094-15.839-7.972-25.206-5.943c-9.332,2.021-17.479,6.441-24.999,12.166c-0.186,0.143-0.307,0.371-0.465,0.553
		c-0.658,0.763-1.288,1.551-1.981,2.283c-1.335,1.402-2.863,2.654-4.039,4.18c-5.451,7.07-9.611,14.867-12.663,23.258
		c-1.13,3.111-1.682,6.302-1.297,9.611c0.082,0.691,0.405,1.349,0.614,2.029c0.143-0.033,0.287-0.069,0.43-0.103
		c0.059-0.421,0.115-0.847,0.156-1.143c1.231,0.385,2.38,0.742,3.542,1.105c0.129-0.68,0.221-1.165,0.314-1.648
		c0.097-0.003,0.196-0.003,0.293-0.005c0.265,0.567,0.528,1.139,0.791,1.704c0.072-0.017,0.143-0.04,0.216-0.057
		c0-0.599,0-1.199,0-1.876c1.032,0.835,3.215,0.673,3.919,0.005c1.145,0.198,2.086,0.361,3.175,0.548c0-0.873,0-1.642,0-2.658
		c0.354,0.756,0.587,1.259,0.82,1.756c0.089-0.019,0.175-0.038,0.264-0.06c0.044-0.337,0.089-0.68,0.097-0.725
		c0.696,0.289,1.34,0.706,2.023,0.783c0.357,0.043,0.784-0.51,1.358-0.923C546.63,420.077,547.561,420.371,547.65,419.144z
		 M605.588,404.573c0.212,0.163,0.498,0.385,0.944,0.725c0.193-0.562,0.34-0.986,0.483-1.409c0.138,0.024,0.278,0.048,0.415,0.074
		c-0.183,1.053-0.366,2.105-0.57,3.292c-1.364-0.349-2.419-0.62-3.927-1.007C604.045,405.547,604.803,405.068,605.588,404.573z
		 M530.465,414.787c-0.134-0.048-0.269-0.096-0.404-0.142c0.904-2.517,1.809-5.034,2.713-7.548c0.14,0.036,0.281,0.072,0.421,0.107
		C532.286,409.731,531.376,412.258,530.465,414.787z M540.416,416.617c-0.202-0.022-0.402-0.043-0.604-0.067
		c0.274-1.464,0.549-2.934,0.824-4.4c0.143,0.024,0.282,0.046,0.426,0.072C540.846,413.688,540.632,415.155,540.416,416.617z"/>
	<path fill="#FFFFFF" d="M662.648,404.456c-0.03-0.723-0.293-1.44-0.448-2.16c-0.1,0.029-0.203,0.06-0.303,0.089
		c-0.111,2.503-0.221,5.005-0.333,7.505c-0.341-2.34-0.224-4.67-0.377-6.986c-0.125-1.859-0.536-2.079-2.607-2.175
		c0,0.677,0,1.35,0,2.393c-0.811-1.665-0.823-3.51-2.905-3.56c0.052,0.296,0.102,0.581,0.194,1.108
		c-1.805-2.218-4.083-3.103-6.445-2.833c-0.688,0.079-1.738-0.004-2.082-0.44c-1.122-1.421-2.692-1.751-4.385-2.271
		c0.03,0.354-0.018,0.689,0.094,0.957c0.326,0.79,0.881,1.517,1.047,2.333c0.708,3.51,0.145,7.001-0.57,10.43
		c-3.717,17.889-12.47,32.926-26.026,45.131c-5.214,4.697-11.027,8.527-17.832,10.583c-4.332,1.309-8.654,1.806-12.909-0.474
		c-3.779-2.024-7.192-4.512-9.979-7.759c-3.825-4.45-6.705-9.343-6.5-15.511c0.006-0.168-0.157-0.34-0.424-0.885
		c0,2.261,0,4.089,0,5.917c-0.13,0.005-0.259,0.012-0.388,0.022c-0.12-2.316-0.238-4.632-0.367-7.166
		c1.536,0.18,2.675,0.34,3.818,0.436c4.217,0.354,8.429,0.751,12.654,0.983c1.121,0.06,2.325-0.272,3.393-0.677
		c0.814-0.309,1.439-1.046,0.851-2.079c-0.26-0.454-0.583-0.873-0.931-1.385c-1.185,0.186-2.205-0.132-2.508-1.38
		c-0.731-0.134-1.35-0.218-1.953-0.371c-0.354-0.094-0.668-0.385-1.022-0.435c-2.19-0.314-4.406-0.474-6.576-0.888
		c-3.213-0.62-5.726-2.548-8.155-4.634c-1.573-1.35-3.182-2.766-5.009-3.675c-1.195-0.6-2.534-1.689-4.13-0.969
		c-1.233,0.557-2.375,0.392-3.554-0.218c-0.367-0.189-0.921-0.012-1.39-0.012c-1.331,0-2.712,1.294-4.009-0.18
		c-0.125-0.143-0.685-0.091-0.91,0.067c-1.392,0.955-2.247,2.19-2.346,3.986c-0.424,7.534-0.937,15.061-1.357,22.598
		c-0.021,0.38,0.443,1.003,0.824,1.151c1.089,0.421,2.249,0.655,3.473,0.988c0.16-0.333,0.38-0.794,0.716-1.503
		c0.117,0.809,0.199,1.363,0.302,2.074c0.279-0.194,0.484-0.337,0.738-0.517c0.131,0.326,0.266,0.651,0.43,1.057
		c0.514-0.342,0.926-0.62,1.474-0.986c0,0.564,0,0.947,0,1.45c0.737-0.275,1.364-0.507,2.006-0.744
		c0.103,0.261,0.258,0.646,0.448,1.124c0.487-0.277,0.88-0.5,1.06-0.603c1.743,1.764,3.325,3.534,5.078,5.111
		c7.262,6.536,15.536,11.26,25.185,13.143c4.57,0.888,9.254,1.223,13.896,1.716c4.341,0.462,8.658,0.259,12.871-1.005
		c9.007-2.694,16.444-7.988,23.055-14.441c10.803-10.549,18.365-23.139,22.684-37.621
		C661.742,415.122,662.877,409.879,662.648,404.456z M567.79,438.253c0.19,0.007,0.383,0.019,0.576,0.031
		c-0.148,1.519-0.298,3.043-0.445,4.568c-0.044,0-0.087-0.002-0.13-0.005C567.79,441.313,567.79,439.784,567.79,438.253z
		 M566.915,438.059c-0.263,3.957-0.373,7.893,1.893,11.434C566.629,447.414,565.66,441.562,566.915,438.059z M636.32,442.017
		c-0.119-0.069-0.238-0.136-0.357-0.203c2.748-4.728,5.497-9.453,8.247-14.178c0.105,0.084,0.211,0.165,0.319,0.249
		C641.793,432.595,639.058,437.306,636.32,442.017z M648.684,411.504c-0.102-0.019-0.201-0.034-0.302-0.053
		c0.378-2.323,0.753-4.648,1.13-6.972c0.106,0.033,0.212,0.069,0.319,0.103C649.449,406.889,649.066,409.195,648.684,411.504z
		 M651.675,429.032c-0.114-0.062-0.229-0.124-0.341-0.186c1.182-3.108,2.365-6.216,3.548-9.323c0.114,0.043,0.226,0.086,0.339,0.126
		C654.04,422.775,652.857,425.905,651.675,429.032z M656.882,406.315c-0.113,0.002-0.226,0.002-0.34,0.002c0-1.639,0-3.278,0-4.914
		c0.113-0.008,0.226-0.01,0.34-0.017C656.882,403.032,656.882,404.673,656.882,406.315z"/>
</g>
</svg>
