<?xml version="1.0" encoding="utf-8"?>
<!-- Generator: Adobe Illustrator 17.1.0, SVG Export Plug-In . SVG Version: 6.00 Build 0)  -->
<!DOCTYPE svg PUBLIC "-//W3C//DTD SVG 1.1//EN" "http://www.w3.org/Graphics/SVG/1.1/DTD/svg11.dtd">
<svg version="1.1" id="Calque_1" xmlns="http://www.w3.org/2000/svg" xmlns:xlink="http://www.w3.org/1999/xlink" x="0px" y="0px"
	 viewBox="368.503 321.732 453.543 198.425" enable-background="new 368.503 321.732 453.543 198.425" xml:space="preserve">
<g>
	<path fill="#FFFFFF" d="M560.603,452.91c-0.354-3.635-0.325-6.924,0.493-10.137c0.376-1.482,0.093-2.363-1.218-3.11
		c-5.201-2.966-10.342-6.04-15.559-8.974c-3.337-1.878-6.766-3.582-10.383-5.486c0.813-1.636,1.851-3.369,2.561-5.229
		c0.83-2.168,2.253-2.988,4.477-2.956c1.338,0.017,2.708-0.222,4.013-0.537c5.396-1.303,10.855-1.77,16.392-1.77
		c2.16-0.003,4.321-0.583,6.482-0.876c1.562-0.208,3.139-0.329,4.695-0.591c0.505-0.086,1.189-0.359,1.411-0.764
		c2.563-4.648,4.995-9.375,7.597-13.997c0.935-1.663,2.212-3.142,3.406-4.641c0.452-0.566,2.605,0.015,3.393,0.83
		c0.344-0.305,0.689-0.612,1.026-0.908c1.196,0.442,1.299,1.408,1.299,2.427c0,6.645-0.005,13.291,0.008,19.939
		c0,0.647,0.102,1.294,0.176,2.138c0.617-0.141,1.106-0.212,1.568-0.364c6.794-2.22,13.572-4.483,20.388-6.631
		c0.723-0.227,1.643,0.183,2.466,0.32c0.372,0.064,0.723,0.2,1.094,0.273c0.425,0.083,0.972,0.002,1.253,0.247
		c0.171,0.146,0.073,0.869-0.136,1.167c-2.595,3.686-5.193,7.373-7.878,10.993c-2.129,2.866-4.405,5.622-6.541,8.481
		c-0.319,0.43-0.537,1.294-0.327,1.716c2.807,5.667,4.358,11.721,5.625,17.874c0.256,1.242,0.559,2.48,0.871,3.713
		c0.341,1.365-1.362,5.124-2.67,5.62c-1.646,0.617-3.323,1.157-5.015,1.626c-0.38,0.105-1.065-0.076-1.297-0.371
		c-3.01-3.842-6.047-7.673-8.906-11.628c-3.22-4.456-6.306-9.009-9.372-13.572c-0.757-1.128-1.314-1.236-2.227-0.268
		c-3.611,3.816-7.244,7.613-10.872,11.414c-1.13,1.186-2.041,2.522-4.03,2.609C563.481,451.546,562.135,452.368,560.603,452.91z
		 M606.406,419.488c-0.396,0.1-0.848,0.176-1.282,0.315c-3.689,1.182-7.346,2.471-11.069,3.527
		c-3.359,0.953-6.773,1.729-10.193,2.415c-1.753,0.354-1.997,0.073-2.09-1.704c-0.2-3.716-0.324-7.434-0.474-11.152
		c-0.019-0.488-0.003-0.982-0.003-1.474c-1.133,1.276-2.085,2.568-2.71,4.001c-0.385,0.883-1.172,2.185,0.505,2.654
		c-0.066,1.648-0.635,2.61-2.371,2.681c-0.615,0.022-1.482,0.598-1.758,1.162c-0.962,1.963-1.714,4.033-2.558,6.057
		c-0.122,0.298-0.279,0.773-0.481,0.811c-1.167,0.21-2.353,0.327-3.532,0.441c-0.281,0.027-0.574-0.117-0.859-0.122
		c-0.528-0.005-1.057,0.036-1.585,0.056c0.017-0.628-0.127-1.316,0.081-1.87c0.533-1.436,1.219-2.815,1.945-4.439
		c-4.087,1.147-8.23,0.96-12.273,2.439c4.588,2.671,8.889,5.22,13.24,7.681c1.067,0.603,1.518,1.272,1.196,2.49
		c-0.352,1.328-0.612,2.678-0.911,4.018c0.606-0.312,0.977-0.725,1.355-1.128c3.469-3.694,6.858-7.483,11.159-10.244
		c2.285-1.465,6.169-0.486,7.578,1.833c1.477,2.432,2.988,4.849,4.35,7.058C597.946,431.116,602.172,425.308,606.406,419.488z"/>
	<path fill="#FFFFFF" d="M639.169,418.477c0.42-0.273,0.752-0.496,1.399-0.923c0.215,0.803,0.544,1.465,0.547,2.121
		c0.012,4.102-0.047,8.201-0.078,12.299c-0.003,0.462,0.036,0.918,0.061,1.509c0.503-0.078,0.898-0.139,1.297-0.198
		c3.23-0.461,6.453-1.011,9.7-1.306c0.678-0.064,1.451,0.798,2.168,1.25c0.298,0.188,0.549,0.449,0.857,0.613
		c0.44,0.232,0.909,0.405,1.497,0.661c-2.593,2.729-4.991,5.168-7.295,7.693c-2.021,2.221-3.984,4.499-5.857,6.845
		c-0.368,0.461-0.456,1.45-0.242,2.034c0.977,2.649,2.109,5.24,3.186,7.849c0.054,0.132,0.11,0.261,0.166,0.391
		c1.599,3.807,1.499,4.241-1.67,6.912c-0.268,0.227-0.686,0.483-0.979,0.427c-1.353-0.261-2.705,0.91-4.036-0.039
		c-0.036-0.025-0.1-0.042-0.134-0.022c-2.009,1.057-2.299-0.461-3.061-1.816c-2.124-3.767-4.487-7.397-6.753-11.079
		c-0.122-0.201-0.249-0.398-0.488-0.784c-3.389,3.139-7.246,4.202-11.836,3.737c0.415-2.214,0.801-4.328,1.206-6.44
		c0.229-1.201,0.396-2.429,0.762-3.589c0.342-1.079,0.009-1.789-0.75-2.473c-2.583-2.316-5.208-4.575-8.767-5.874
		c1.768-2.339,3.404-4.558,5.112-6.712c0.232-0.293,0.835-0.374,1.275-0.4c2.485-0.149,4.922,0.095,7.326,0.832
		c2.02,0.615,2.049,0.557,3.02-1.316c0.884-1.714,1.858-3.393,2.583-5.171c1.406-3.445,3.611-6.228,6.406-8.596
		c1.066-0.906,2.529-0.633,3.1,0.681C638.998,417.845,639.057,418.113,639.169,418.477z M637.841,446.992
		c2.058-2.319,4.226-4.76,6.504-7.329c-0.381-0.044-0.474-0.076-0.564-0.059c-0.227,0.034-0.457,0.074-0.686,0.132
		c-3.528,0.935-7.063,1.673-10.752,0.926c-1.162-0.234-1.963-0.5-1.729-1.917c0.052-0.317-0.078-0.664-0.146-1.174
		c-0.81,0.667-1.44,1.184-2.141,1.755c1.18,0.982,1.123,2.012,0.72,3.184c-0.42,1.228-0.683,2.51-1.021,3.767
		c0.11,0.083,0.22,0.163,0.327,0.246c0.925-0.876,1.904-1.704,2.759-2.648c0.75-0.832,1.338-1.116,2.319-0.259
		C634.777,444.79,636.264,445.796,637.841,446.992z"/>
	<path fill="#FFFFFF" d="M611.276,402.884c-0.535-1.404-2.517-3.499-3.797-4.038c-0.801-0.337-1.191-0.759-0.971-1.711
		c0.268-1.143,0.527-2.319,0.552-3.484c0.043-2.219,1.655-2.954,3.198-3.845c0.41-0.234,0.859-0.645,1.001-1.072
		c1.242-3.694,2.403-7.415,3.623-11.111c0.593-1.799,2.051-2.427,3.623-1.79c0.574-0.371,1.245-1.055,1.504-0.921
		c0.513,0.262,0.974,0.923,1.147,1.512c0.64,2.202,1.153,4.439,1.746,6.782c0.94-0.227,1.687-0.505,2.453-0.576
		c2.126-0.202,4.26-0.358,6.396-0.449c1.172-0.051,1.46,0.508,1.13,1.714c-0.535,1.953-1.961,3.164-3.247,4.512
		c-1.892,1.977-1.911,1.967-0.876,4.487c0.2,0.476,0.337,1.011,0.652,1.401c1.242,1.56,0.578,3.122,0.066,4.676
		c-0.073,0.227-0.449,0.349-0.674,0.53c-0.613,0.481-1.211,0.982-1.836,1.448c-0.206,0.156-0.489,0.208-0.718,0.337
		c-0.479,0.269-0.967,0.532-1.421,0.842c-0.83,0.564-1.531,0.847-2.458-0.008c-1.13-1.035-2.456-1.85-3.702-2.756
		c-0.837-0.612-1.56-0.51-2.373,0.178c-1.133,0.967-2.365,1.814-3.591,2.669C612.297,402.493,611.799,402.642,611.276,402.884z
		 M623.217,388.123c-1.582,0.317-2.937,0.576-4.287,0.866c-0.967,0.205-1.922,0.508-2.48-0.747
		c-0.115-0.256-0.493-0.388-0.725-0.556c-0.146,0.195-0.3,0.398-0.525,0.695c-0.117-0.408-0.19-0.661-0.266-0.913
		c-0.049,0.003-0.095,0.007-0.144,0.012c0,1.286,0,2.573,0,3.836c2.104,1.115,4.275,0.591,6.426-0.234
		c0.279-0.11,0.615-0.267,0.756-0.503C622.368,389.92,622.678,389.209,623.217,388.123z"/>
</g>
</svg>
