<?xml version="1.0" encoding="utf-8"?>
<!-- Generator: Adobe Illustrator 17.1.0, SVG Export Plug-In . SVG Version: 6.00 Build 0)  -->
<!DOCTYPE svg PUBLIC "-//W3C//DTD SVG 1.1//EN" "http://www.w3.org/Graphics/SVG/1.1/DTD/svg11.dtd">
<svg version="1.1" id="Calque_1" xmlns="http://www.w3.org/2000/svg" xmlns:xlink="http://www.w3.org/1999/xlink" x="0px" y="0px"
	 viewBox="368.503 321.732 453.543 198.425" enable-background="new 368.503 321.732 453.543 198.425" xml:space="preserve">
<g>
	<path fill="#FFFFFF" d="M602.933,460.703c0.237,0.481,0.43,0.992,0.712,1.445c1.68,2.659,3.392,5.297,5.054,7.966
		c0.141,0.232,0,0.645-0.012,0.975c-0.261-0.069-0.617-0.055-0.766-0.225c-0.772-0.871-1.55-1.748-2.212-2.703
		c-3.628-5.238-7.172-10.533-10.842-15.74c-2.927-4.149-5.989-8.202-8.995-12.296c-0.22-0.301-0.464-0.587-0.82-0.796
		c1.055,1.869,2.087,3.751,3.172,5.603c3.042,5.212,6.069,10.437,9.187,15.603c1.333,2.211,2.901,4.275,4.299,6.445
		c0.987,1.529,1.865,3.126,2.805,4.688c0.647,1.074,1.314,2.138,1.973,3.207c0.176,0.28,0.425,0.532,0.522,0.837
		c0.064,0.211,0.012,0.583-0.134,0.704c-0.13,0.108-0.544,0.059-0.689-0.077c-0.476-0.448-0.948-0.927-1.318-1.464
		c-3.879-5.609-7.742-11.233-11.609-16.852c-0.284-0.415-0.6-0.808-1.06-1.112c0.874,1.445,1.709,2.914,2.632,4.328
		c1.409,2.165,2.92,4.265,4.302,6.445c1.421,2.234,2.732,4.539,4.107,6.802c0.373,0.616,0.859,1.164,1.196,1.797
		c0.132,0.24,0,0.621-0.01,0.94c-0.273-0.085-0.654-0.083-0.805-0.268c-1.123-1.399-2.246-2.801-3.286-4.262
		c-5.82-8.173-11.617-16.366-17.424-24.549c-0.75-1.055-1.482-2.119-2.268-3.142c-0.503-0.653-1.094-1.24-1.708-1.932
		c-0.201,0.551-0.393,1.079-0.65,1.783c-1.011-0.758-1.782-1.617-2.302-2.79c-0.334,1.315-0.647,2.543-0.964,3.785
		c-2.268-0.878-2.319-0.865-2.862-3.042c-0.464-1.887-0.925-3.795-1.148-5.723c-0.141-1.229,0.185-2.507,0.245-3.768
		c0.015-0.382-0.054-0.845-0.261-1.148c-2.078-3.057-4.197-6.082-6.292-9.125c-1.216-1.768-2.393-3.557-3.604-5.329
		c-1.219-1.787-2.561-3.499-3.657-5.358c-1.787-3.029-3.393-6.163-5.117-9.229c-1.265-2.25-2.652-4.434-3.877-6.706
		c-0.74-1.368-1.37-2.814-1.88-4.281c-1.187-3.407-2.276-6.846-3.374-10.28c-0.105-0.32,0-0.706,0.01-1.06
		c0.359,0.16,0.823,0.228,1.057,0.501c0.608,0.699,1.115,1.488,1.663,2.241c0.19,0.259,0.376,0.517,0.74,0.695
		c-0.415-1.361-0.828-2.722-1.248-4.083c-0.069-0.23-0.19-0.455-0.21-0.689c-0.019-0.323,0.034-0.649,0.056-0.973
		c0.31,0.121,0.735,0.151,0.915,0.378c1.077,1.331,2.102,2.701,3.13,4.068c0.342,0.451,0.64,0.935,1.119,1.342
		c-0.325-1.027-0.635-2.062-0.982-3.083c-0.613-1.821-1.26-3.634-1.875-5.455c-0.264-0.769-0.515-1.544-0.713-2.332
		c-0.068-0.277,0.036-0.599,0.063-0.9c0.31,0.111,0.713,0.134,0.918,0.35c0.555,0.585,1.021,1.254,1.534,1.882
		c0.122,0.15,0.283,0.266,0.617,0.57c-0.413-1.441-0.76-2.641-1.101-3.838c0.083-0.065,0.166-0.13,0.251-0.193
		c1.961,0.645,2.661,2.626,4.031,4.016c-0.073-0.306-0.129-0.615-0.224-0.915c-0.645-2.039-1.309-4.073-1.936-6.119
		c-0.081-0.271,0.007-0.597,0.02-0.898c0.315,0.096,0.686,0.121,0.94,0.304c0.73,0.52,1.411,1.103,2.024,1.861
		c-0.151-0.512-0.298-1.024-0.459-1.535c-0.276-0.861-0.578-1.713-0.828-2.582c-0.061-0.222,0.049-0.491,0.078-0.741
		c0.273,0.042,0.625-0.013,0.805,0.139c0.537,0.47,1.099,0.957,1.494,1.543c2.151,3.19,4.273,6.399,6.37,9.622
		c2.556,3.932,5.095,7.876,7.617,11.831c1.003,1.571,1.966,3.168,2.903,4.78c0.349,0.599,0.679,0.836,1.423,0.639
		c7.073-1.861,14.148-3.704,21.238-5.504c6.28-1.594,12.569-3.179,18.872-4.667c3.892-0.922,7.82-1.685,11.746-2.445
		c0.791-0.152,1.674-0.083,2.469,0.093c3.615,0.801,7.214,1.677,10.818,2.525c0.115,0.027,0.246,0.04,0.344,0.1
		c0.185,0.115,0.357,0.26,0.532,0.393c-0.161,0.148-0.305,0.32-0.488,0.432c-0.142,0.091-0.33,0.106-0.703,0.217
		c0.485,0.144,0.791,0.202,1.067,0.329c0.164,0.076,0.279,0.258,0.418,0.393c-0.139,0.138-0.254,0.353-0.418,0.401
		c-0.388,0.113-0.798,0.15-1.208,0.392c0.532,0.099,1.065,0.23,1.596,0.278c0.181,0.017,0.383-0.168,0.571-0.266
		c0.249-0.131,0.589-0.434,0.716-0.361c0.237,0.137,0.466,0.486,0.488,0.763c0.07,0.87,0.007,1.75,0.081,2.615
		c0.022,0.272,0.298,0.546,0.513,0.762c0.19,0.191,0.454,0.306,0.684,0.455c-0.244,0.169-0.481,0.346-0.732,0.503
		c-0.117,0.07-0.254,0.103-0.52,0.208c0.291,0.123,0.459,0.167,0.591,0.258c0.183,0.124,0.337,0.287,0.5,0.434
		c-0.166,0.137-0.318,0.355-0.503,0.397c-0.498,0.11-0.555,0.418-0.571,0.859c-0.1,2.589-0.254,5.176-0.325,7.766
		c-0.012,0.414,0.301,0.833,0.435,1.256c0.12,0.36,0.208,0.73,0.293,1.098c0.324,1.409,0.185,2.789-0.154,4.184
		c-0.659,2.698-1.238,5.415-1.87,8.121c-0.139,0.583-0.259,1.214-0.572,1.702c-0.21,0.328-0.727,0.497-1.14,0.642
		c-0.3,0.105-0.672,0.121-0.984,0.055c-0.6-0.125-0.957,0.241-1.352,0.56c-0.528,0.418-0.893,0.268-1.245-0.275
		c-0.21-0.323-0.567-0.544-0.928-0.876c-0.229,0.682-0.376,1.214-0.591,1.716c-0.078,0.184-0.29,0.38-0.48,0.432
		c-1.111,0.286-2.688-0.751-2.854-1.898c-0.249-1.694-0.449-3.395-0.669-5.098c-5.279-0.727-10.43,0.642-15.591,1.344
		c-8.393,1.147-16.704,2.845-24.785,5.51c-0.193,0.065-0.381,0.145-0.644,0.244c1.208,2.201,2.368,4.366,3.579,6.501
		c4.609,8.12,9.209,16.25,13.882,24.335c1.386,2.389,3.017,4.63,4.507,6.958c1.599,2.492,3.167,5.008,4.746,7.512
		c0.555,0.883,1.133,1.753,1.626,2.671c0.142,0.263,0.025,0.667,0.027,1.004c-0.296-0.089-0.711-0.079-0.865-0.28
		c-1.365-1.785-2.718-3.581-4.007-5.423c-3.076-4.411-6.113-8.85-9.17-13.277c-0.168-0.244-0.354-0.475-0.65-0.652
		c0.069,0.174,0.108,0.367,0.205,0.522c2.026,3.163,4.068,6.312,6.074,9.483c1.182,1.867,2.295,3.776,3.462,5.648
		c0.871,1.395,1.806,2.747,2.656,4.155c0.168,0.283,0.063,0.734,0.088,1.109c-0.318-0.122-0.737-0.156-0.932-0.384
		c-0.835-0.974-1.66-1.965-2.395-3.02c-4.089-5.868-8.133-11.765-12.219-17.635c-1.164-1.672-2.414-3.286-3.777-4.832
		c0.706,1.228,1.375,2.48,2.124,3.68c2.986,4.79,6.004,9.561,8.997,14.346c1.904,3.041,3.794,6.091,5.659,9.158
		c0.161,0.27,0.078,0.694,0.11,1.047c-0.328-0.1-0.789-0.096-0.959-0.319c-1.387-1.802-2.745-3.628-4.057-5.484
		c-1.096-1.544-2.115-3.142-3.184-4.704c-0.176-0.253-0.43-0.447-0.649-0.669c-0.694-1.151-1.392-2.301-2.09-3.451
		c-0.086,0.059-0.176,0.118-0.264,0.178C601.351,458.534,602.142,459.618,602.933,460.703z M629.632,394.01
		c-0.061,0.01-0.263,0.026-0.459,0.07c-6.602,1.525-13.237,2.932-19.802,4.612c-9.241,2.362-18.572,4.211-27.977,5.704
		c-0.596,0.094-1.191,0.171-1.921,0.276c1.506,2.549,2.908,4.921,4.312,7.291c0.346-0.125,0.598-0.217,0.847-0.306
		c5.471-1.895,10.987-3.613,16.643-4.883c7.756-1.744,15.598-2.885,23.498-3.685c1.289-0.132,2.573-0.329,3.662-0.47
		C628.851,399.65,629.237,396.844,629.632,394.01z M586.639,416.674c0.034,0.12,0.073,0.243,0.112,0.364
		c1.03-0.365,2.06-0.73,3.091-1.095c-0.017-0.054-0.034-0.107-0.049-0.16C588.739,416.079,587.689,416.378,586.639,416.674z"/>
	<path fill="#FFFFFF" d="M538.587,433.009c-0.791,0.35-1.582,0.702-2.373,1.055c0.01,0.017,0.019,0.035,0.029,0.053
		c1.03-0.248,2.065-0.495,3.096-0.743c0.048,0.108,0.097,0.217,0.146,0.323c-0.481,1.228-2.661,0.704-2.617,2.522
		c1.855-0.326,3.413-1.919,5.644-1.554c-0.19,0.34-0.307,0.549-0.439,0.779c0.312,0.102,0.634,0.208,1.25,0.413
		c-1.045,0.562-1.878,1.01-2.71,1.457c0.049,0.102,0.102,0.205,0.156,0.307c0.695-0.286,1.372-0.634,2.092-0.839
		c0.742-0.214,1.612-0.783,2.078,0.513c0.083,0.229,0.737,0.246,1.44,0.454c-0.594,0.359-0.943,0.678-1.348,0.789
		c-0.879,0.24-1.133,0.853-1.233,1.661c-0.356,2.805-0.212,5.599,0.213,8.376c0.469,3.055,1.435,5.973,2.739,8.762
		c0.567,1.22,1.363,2.334,2.036,3.506c0.43,0.75,1.004,1.038,1.865,0.787c0.759-0.222,1.543-0.366,2.431-0.57
		c-0.312-0.829-0.593-1.487-0.815-2.165c-1.528-4.645-2.832-9.343-2.776-14.293c0.034-2.916,0.013-5.863,0.427-8.734
		c0.254-1.754,1.26-3.405,2.002-5.068c0.102-0.225,0.63-0.255,0.957-0.375c-0.056,0.286-0.078,0.587-0.174,0.863
		c-0.164,0.469-0.373,0.922-0.656,1.598c1.01-0.691,0.828-2.246,2.432-2.25c-0.977,1.886-1.177,3.753-0.921,5.546
		c0.422-1.182,0.843-2.49,1.362-3.759c0.339-0.831,0.813-1.61,1.253-2.397c0.11-0.198,0.293-0.398,0.489-0.492
		c0.151-0.074,0.407-0.027,0.566,0.06c0.069,0.038,0.049,0.328-0.005,0.478c-0.093,0.263-0.245,0.505-0.234,0.826
		c0.156-0.242,0.268-0.537,0.484-0.711c0.176-0.145,0.469-0.15,0.713-0.216c0.009,0.221,0.081,0.457,0.024,0.658
		c-0.214,0.76-0.469,1.508-0.713,2.263c0.093,0.036,0.181,0.073,0.273,0.111c0.369-0.67,0.706-1.363,1.123-2.002
		c0.372-0.57,0.381-1.602,1.597-1.396c-0.205,0.637-0.381,1.191-0.586,1.826c0.864-0.493,0.635-2.058,1.934-1.895
		c-0.967,5.799-0.43,11.418,0.683,17.025c0.733,3.667,1.997,7.133,3.77,10.399c0.569,1.045,1.386,1.949,2.039,2.951
		c0.188,0.29,0.368,0.743,0.281,1.038c-0.552,1.829-1.135,3.652-1.802,5.443c-0.398,1.067-1.518,1.443-2.573,1.139
		c-0.661-0.193-1.377-0.195-2.07-0.298c-0.318-0.047-0.715-0.032-0.932-0.217c-0.679-0.572-1.192-0.165-1.748,0.167
		c-1.494,0.887-2.935,1.879-4.492,2.622c-2.955,1.409-6.023,2.074-9.28,0.987c-2.198-0.734-3.958-2.035-5.454-3.789
		c-0.989-1.162-1.99-2.327-3.106-3.359c-1.56-1.441-2.666-3.186-3.493-5.094c-1.263-2.895-2.471-5.83-2.879-9.004
		c-0.515-4.02-0.535-8.046,0.14-12.055c0.22-1.309,0.867-2.455,2.019-3.062c1.438-0.759,2.986-1.316,4.512-1.893
		c0.305-0.117,0.725,0.062,1.091,0.105C538.558,432.763,538.573,432.887,538.587,433.009z"/>
	<path fill="#FFFFFF" d="M533.15,417.088c-0.628,1.951-0.271,3.645,0.205,5.331c0.032,0.116,0.071,0.232,0.091,0.352
		c0.224,1.181-0.44,1.941-1.626,1.767c-0.224-0.033-0.483-0.404-0.576-0.671c-0.185-0.535-0.264-1.108-0.383-1.664
		c-0.115-0.522-0.223-1.044-0.53-1.54c0.095,0.831,0.181,1.663,0.298,2.489c0.097,0.684,0.244,1.36,0.361,2.041
		c0.186,1.072,0.064,1.201-0.769,1.115c-0.334,0.395-0.566,0.674-0.803,0.953c-0.247-0.23-0.669-0.431-0.718-0.701
		c-0.755-4.223-1.87-8.392-1.612-12.755c0.171-2.859,1.148-5.381,2.691-7.734c1.455-2.21,3.242-4.071,5.427-5.548
		c1.477-0.997,2.937-2.028,4.412-3.036c1.355-0.927,2.676-1.918,4.428-1.953c1.109-0.022,2.068,0.272,2.554,1.301
		c0.567,1.201,0.991,2.474,1.435,3.733c0.164,0.465-0.083,0.693-0.576,0.789c-0.259,0.049-0.445,0.396-0.693,0.566
		c-0.298,0.202-0.605,0.444-0.94,0.513c-1.038,0.217-1.155,0.3-0.898,1.292c0.218,0.836,0.198,1.402-0.849,1.52
		c-0.427,0.048-0.864,0.267-1.231,0.507c-0.227,0.147-0.327,0.487-0.493,0.734c-0.261,0.388-0.518,0.777-0.798,1.151
		c-0.064,0.085-0.273,0.081-0.303,0.161c-0.517,1.35-1.88,1.233-2.9,1.639c-0.913,0.362-1.494,0.903-1.885,1.78
		c-0.913,2.044-1.104,4.19-0.874,6.375c0.064,0.65,0.493,1.254,0.659,1.904c0.174,0.68,0.059,1.278-0.837,1.32
		c-0.078,0.003-0.169,0.031-0.232,0.079c-0.979,0.771-1.104,0.749-1.392-0.458C533.546,419.39,533.382,418.324,533.15,417.088z"/>
	<path fill="#FFFFFF" d="M661.959,384.46c-0.042,0.208-0.112,0.576-0.193,0.991c0.474-0.035,0.927-0.069,1.401-0.106
		c0.117,0.326,0.224,0.611,0.332,0.914c-1.123,0.505-2.237,0.999-3.34,1.505c-2.63,1.205-5.249,2.416-7.876,3.621
		c-0.215,0.098-0.513,0.302-0.659,0.23c-0.842-0.428-1.592-1.01-2.539-1.285c-0.469-0.134-0.803-0.701-1.25-0.984
		c-1.084-0.684-1.106-1.134-0.024-1.794c3.75-2.283,7.852-3.572,12.134-4.328c0.318-0.056,0.725,0.222,1.045,0.42
		C661.312,383.845,661.585,384.138,661.959,384.46z"/>
	<path fill="#FFFFFF" d="M663.289,397.574c-0.205,0.474-0.341,0.796-0.513,1.184c0.117,0.099,0.346,0.297,0.647,0.557
		c-0.483,0.236-0.879,0.431-1.328,0.651c0.413,0.271,0.808,0.526,1.219,0.794c-0.156,0.301-0.297,0.571-0.376,0.725
		c-1.778-0.065-3.504-0.125-5.224-0.193c-1.709-0.069-2.945-1.205-4.331-1.997c-0.098-0.056-0.083-0.315-0.117-0.48
		c-0.112-0.558-0.015-1.204-0.674-1.527c-0.112-0.053-0.254-0.29-0.218-0.358c0.398-0.78-0.065-1.454-0.29-2.118
		c-0.31-0.932,0.127-0.873,0.81-0.892c2.583-0.069,4.912,0.731,7.138,1.957C661.078,396.451,662.144,396.977,663.289,397.574z"/>
</g>
</svg>
