<?xml version="1.0" encoding="utf-8"?>
<!-- Generator: Adobe Illustrator 17.1.0, SVG Export Plug-In . SVG Version: 6.00 Build 0)  -->
<!DOCTYPE svg PUBLIC "-//W3C//DTD SVG 1.1//EN" "http://www.w3.org/Graphics/SVG/1.1/DTD/svg11.dtd">
<svg version="1.1" id="Calque_1" xmlns="http://www.w3.org/2000/svg" xmlns:xlink="http://www.w3.org/1999/xlink" x="0px" y="0px"
	 viewBox="368.503 321.732 453.543 198.425" enable-background="new 368.503 321.732 453.543 198.425" xml:space="preserve">
<g>
	<path fill="#FFFFFF" d="M561.615,424.922c1.269,2.324,2.542,4.655,3.813,6.98c0.137-0.076,0.279-0.151,0.415-0.227
		c-0.369-0.63-0.776-1.238-1.101-1.887c-0.652-1.302-1.353-2.588-1.862-3.941c-0.728-1.926-0.635-2.012,1.401-2.727
		c0.122-0.044,0.266-0.066,0.357-0.145c1.626-1.482,1.367-1.348,2.397,0.633c1.641,3.149,3.471,6.245,5.569,9.111
		c6.167,8.435,14.392,14.507,23.303,19.738c1.582,0.928,3.189,1.814,4.795,2.703c0.383,0.212,0.801,0.366,1.206,0.549
		c0.083-0.09,0.168-0.181,0.254-0.271c-0.678-1.033-1.289-2.119-2.046-3.096c-2.901-3.757-5.698-7.605-8.818-11.172
		c-2.737-3.13-5.845-5.938-8.809-8.87c-3.979-3.935-8.452-7.253-13.232-10.122c-1.802-1.084-3.867-1.734-5.835-2.525
		c-0.359-0.144-1.035-0.188-1.211,0.022c-0.835,0.989-1.484,0.068-2.198-0.105c-0.784-0.19-1.568-0.603-2.339-0.578
		c-3.147,0.105-6.294,0.318-9.436,0.539c-0.691,0.049-1.365,0.339-2.055,0.444c-0.806,0.122-1.546,0.759-1.929-0.93
		c-0.293-1.284-0.993-2.586-0.979-3.958c0.01-0.727,0.381-1.665,0.918-2.141c9.375-8.313,18.12-17.251,26.389-26.653
		c1.353-1.535,2.869-2.615,4.744-3.371c4.819-1.948,9.875-2.625,14.993-3.105c0.745-0.07,1.619-0.486,2.131-1.027
		c4.17-4.389,8.266-8.85,12.388-13.291c0.127,0.098,0.256,0.191,0.386,0.286c-0.376,0.615-0.752,1.223-1.304,2.128
		c0.606-0.295,0.904-0.439,1.455-0.706c-0.401,0.62-0.669,1.03-0.932,1.438c0.051,0.051,0.102,0.105,0.151,0.158
		c0.781-0.844,1.565-1.692,2.495-2.7c0.088,0.573,0.137,0.913,0.2,1.328c0.391-0.086,0.781-0.171,1.233-0.271
		c0-1.082,0.051-2.122-0.008-3.156c-0.137-2.295,0.24-2.698,2.464-2.737c7.754-0.142,14.69,2.331,21.106,6.508
		c0.357,0.234,0.701,0.477,1.057,0.704c0.076,0.049,0.176,0.059,0.396,0.127c0.266-0.305,0.581-0.642,0.872-0.994
		c8.135-9.871,16.289-19.724,24.38-29.626c1.748-2.138,3.266-4.463,4.907-6.691c0.523-0.716,1.05-1.612,2.134-0.908
		c0.454,0.29,0.789,0.783,1.123,1.23c0.485,0.651,0.998,1.301,1.372,2.019c0.747,1.453,0.633,2.815-0.476,4.118
		c-3.924,4.617-7.844,9.236-11.697,13.914c-5.62,6.823-11.162,13.711-16.782,20.537c-0.708,0.859-0.518,1.333,0.112,2.112
		c7.402,9.141,11.491,19.544,11.609,31.372c0.012,1.23-0.562,2.469-0.862,3.699c-0.254,0-0.508,0-0.762,0
		c-0.205-1.079-0.449-2.156-0.61-3.242c-1.538-10.354-5.328-19.656-12.808-27.198c-0.767-0.769-1.817-1.26-2.734-1.88
		c-0.232-0.156-0.52-0.263-0.686-0.471c-2.232-2.803-5.383-4.207-8.547-5.54c-4.292-1.811-8.76-2.829-13.459-2.62
		c-1.494,0.069-2.444,1.135-2.398,2.766c0.008,0.269-0.29,0.574-0.498,0.82c-1.702,2.009-3.416,4.008-5.125,6.01
		c-0.24,0.281-0.474,0.564-0.943,1.125c0.984-0.059,1.694-0.173,2.392-0.115c0.442,0.039,1.177,0.254,1.243,0.522
		c0.42,1.714,0.715,3.46,1.003,5.201c0.168,1.018-0.369,1.384-1.355,1.436c-3.055,0.149-6.106,0.32-9.153,0.583
		c-0.625,0.056-1.391,0.393-1.792,0.859c-6.477,7.52-12.905,15.078-19.336,22.637c-0.229,0.271-0.391,0.6-0.637,0.989
		c2.073,0.352,4.152,0.535,5.117,2.62c1.11,2.395,1.784,4.893,1.06,7.773c-1.307-1.843-2.805-3.21-5.388-3.037
		c12.998,8.474,23.281,19.46,32.287,31.921c2.532-3.94,5.032-7.837,7.536-11.736c-0.083-0.1-0.164-0.2-0.244-0.296
		c-0.84,0.195-1.674,0.523-2.525,0.557c-0.771,0.024-1.557-0.267-2.71-0.491c1.501-1.382,0.879-2.518,0.4-3.613
		c-1.184-2.708-2.896-5.049-5.065-7.053c-1.284-1.189-2.761-1.914-4.563-1.931c-0.962-0.013-1.919-0.181-2.998-0.29
		c1.655-2.432,8.694-2.727,12.26-0.586c3.872,2.327,6.108,6.008,7.862,10.298c5.078-6.995,10.051-13.838,15.025-20.681
		c-0.073-0.088-0.147-0.178-0.22-0.266c-0.894,0.335-1.777,0.711-2.686,1.001c-1.162,0.371-1.739-0.005-2.029-1.301
		c-1.336-5.967-4.641-10.735-9.417-14.434c-2.607-2.022-5.586-1.567-8.486-0.505c-1.35,0.493-2.695,1.003-4.209,1.567
		c0.063-0.395,0.039-0.573,0.107-0.625c3.291-2.307,6.689-4.411,10.786-4.917c4.034-0.498,7.532,0.669,10.403,3.591
		c3.25,3.308,5.569,7.198,7.285,11.475c0.139,0.349,0.273,0.698,0.415,1.042c0.017,0.036,0.071,0.056,0.33,0.251
		c2.407-3.43,4.812-6.858,7.216-10.285c0.076,0.036,0.151,0.07,0.224,0.11c-0.242,0.639-0.483,1.276-0.728,1.918
		c0.051,0.027,0.103,0.051,0.154,0.081c0.344-0.369,0.686-0.735,1.15-1.23c0.058,0.325,0.088,0.508,0.146,0.835
		c0.591-0.701,1.123-1.341,1.66-1.975c0.097,0.061,0.19,0.127,0.288,0.188c-0.185,0.505-0.371,1.011-0.635,1.741
		c0.745-0.654,1.343-1.177,1.941-1.702c0.141,0.113,0.285,0.227,0.427,0.342c-1.25,2.132-2.497,4.26-3.745,6.389
		c0.058,0.047,0.122,0.086,0.181,0.13c0.935-1.28,1.87-2.554,2.805-3.831c0.122,0.056,0.242,0.12,0.364,0.18
		c-0.491,1.319-0.776,2.768-1.513,3.934c-2.216,3.493-4.585,6.887-6.944,10.288c-0.552,0.798-0.629,1.504-0.495,2.475
		c0.417,3.023,0.583,6.077,0.918,9.112c0.437,3.969,0.921,7.937,1.419,11.896c0.083,0.647,0.469,1.265,0.474,1.9
		c0.005,0.661-0.244,1.338-0.449,1.987c-0.078,0.242-0.363,0.406-0.522,0.633c-4.263,6.194-8.545,12.373-12.779,18.584
		c-1.692,2.478-3.234,5.061-4.952,7.519c-0.378,0.539-1.174,0.891-1.848,1.086c-1.203,0.346-2.453,0.535-3.694,0.737
		c-1.096,0.181-1.459-0.437-1.577-1.438c-0.596-5.137-1.231-10.269-1.861-15.405c-0.039-0.312-0.122-0.623-0.251-1.26
		c-0.416,0.481-0.823,0.742-0.874,1.057c-0.398,2.475-2.556,3.094-4.319,4.009c-1.568,0.81-3.372,0.667-4.934-0.091
		c-4.143-1.999-8.274-4.036-12.3-6.257c-2.668-1.477-5.139-3.303-7.703-4.964c-0.383-0.251-0.789-0.471-1.426-0.85
		c-0.342,1.045-0.616,1.956-0.945,2.845c-0.193,0.52-0.408,1.062-0.735,1.504c-1.844,2.497-3.716,4.97-5.591,7.441
		c-3.038,4.011-6.069,8.03-9.141,12.011c-0.72,0.93-0.669,1.45,0.279,2.272c5.217,4.536,10.361,9.153,15.498,13.78
		c0.974,0.876,1.858,1.866,2.695,2.881c1.714,2.068,1.714,2.793,0.056,4.836c-0.522,0.645-1.106,1.267-1.755,1.777
		c-1.25,0.988-2.727,1.438-4.219,0.757c-2.768-1.267-5.61-2.464-8.169-4.085c-9.267-5.869-17.299-13.267-25.195-20.808
		c-1.836-1.753-3.535-3.647-5.325-5.444c-0.681-0.684-1.433-1.279-2.534-0.769c-0.154,0.073-0.5-0.193-0.715-0.357
		c-2.361-1.831-2.485-4.648-0.317-6.99c0.288-0.308,0.61-0.586,0.867-0.921c1.25-1.624,2.917-2.253,4.729-1.345
		c3.098,1.551,6.164,3.208,9.074,5.083c2.991,1.934,5.776,4.185,8.682,6.319c0.19-0.154,0.359-0.244,0.466-0.383
		c4.839-6.36,9.678-12.723,14.502-19.097c0.966-1.272,1.86-2.6,2.818-3.882c0.547-0.721,0.522-1.211-0.203-1.88
		c-1.692-1.562-3.448-3.105-4.851-4.912C566.571,435.476,563.307,430.65,561.615,424.922z M630.706,428.559
		c-0.122-0.024-0.242-0.048-0.362-0.073c-0.21,0.242-0.44,0.464-0.62,0.728c-4.829,6.944-9.638,13.898-14.492,20.825
		c-0.806,1.152-0.969,2.043,0.295,2.671c0.398-0.471,0.774-0.918,1.36-1.611c0.374,0.818,0.733,1.326,0.837,1.877
		c0.62,3.323,1.177,6.66,1.755,9.99c0.1,0.559,0.212,1.118,0.38,2.002c1.406-1.887,2.649-3.413,3.745-5.036
		c2.862-4.241,5.698-8.499,8.45-12.81c0.405-0.635,0.491-1.608,0.41-2.395c-0.495-4.902-1.079-9.798-1.63-14.698
		C630.782,429.541,630.75,429.05,630.706,428.559z M554.813,411.208c0.146,0.21,0.293,0.42,0.44,0.63
		c2.842-0.147,5.678-0.335,8.525-0.408c0.95-0.025,1.529-0.376,2.115-1.089c5.742-7.019,11.523-14.007,17.293-21.003
		c0.32-0.391,0.628-0.784,1.111-1.387c-0.615,0.059-0.982,0.029-1.303,0.132c-2.329,0.732-4.683,1.399-6.953,2.283
		c-0.952,0.371-1.833,1.113-2.549,1.872c-2.866,3.044-5.567,6.25-8.501,9.226C561.693,404.807,558.211,407.969,554.813,411.208z
		 M605.536,371.689c0.078,0.071,0.154,0.142,0.232,0.215c1.021-1.118,2.044-2.233,3.064-3.352c-0.134-0.115-0.266-0.232-0.401-0.344
		C607.467,369.367,606.5,370.527,605.536,371.689z"/>
	<path fill="#FFFFFF" d="M535.067,485.339c-0.2,0.01,0.02,0,0.242-0.014c0.528,1.328-0.193,1.99-1.196,2.707
		c-1.404,1.011-2.659,2.229-3.977,3.359c-0.747,0.642-1.467,1.316-2.239,1.928c-2.371,1.875-3.201,1.738-4.612-0.866
		c-0.576-1.062-1.031-2.195-1.443-3.331c-0.242-0.664-0.015-1.047,0.823-1.254c0.869-0.212,1.734-0.701,2.441-1.27
		c1.719-1.382,3.325-2.896,5.01-4.322c0.569-0.48,1.192-0.938,1.865-1.241c0.315-0.144,0.991-0.042,1.182,0.203
		c0.601,0.776,1.091,1.652,1.538,2.534C534.915,484.204,534.933,484.731,535.067,485.339z"/>
	<path fill="#FFFFFF" d="M552.85,506.017c-0.296,1.512-0.65,3.01-0.862,4.529c-0.129,0.925-0.401,1.362-1.429,1.162
		c-1.027-0.195-2.082-0.24-3.117-0.346c-0.437-1.426,0.564-8.799,1.418-10.166c0.237,0.296,0.449,0.564,0.659,0.832
		c0-0.149,0-0.293,0-0.442c0.576-0.066,1.15-0.134,1.724-0.195c0.034-0.003,0.073,0.053,0.115,0.081
		c0.544,0.371,1.653-0.611,1.773,0.678c0.07,0.733-0.086,1.487-0.149,2.234c-0.049,0.559-0.11,1.118-0.166,1.68L552.85,506.017z"/>
	<path fill="#FFFFFF" d="M544.476,497.033c-0.677,1.951-1.247,3.677-1.885,5.376c-0.097,0.259-0.52,0.598-0.756,0.572
		c-1.68-0.19-3.367-0.402-5.015-0.764c-0.349-0.076-0.869-0.918-0.766-1.225c0.559-1.66,1.172-3.326,2.029-4.841
		c0.249-0.437,1.375-0.561,2.083-0.522C541.749,495.715,543.49,495.534,544.476,497.033z"/>
	<path fill="#FFFFFF" d="M552.816,506.064c0.327-1.297,0.649-2.59,1.065-4.258c0.234,1.026,0.393,1.726,0.552,2.429
		c0.087-0.115,0.188-0.241,0.288-0.368c0.1,0.017,0.201,0.031,0.301,0.051c-0.43,2.214-0.859,4.431-1.336,6.884
		c-0.186-0.383-0.259-0.532-0.361-0.747c-0.195,0.573-0.371,1.099-0.549,1.628c-0.176-0.031-0.349-0.065-0.525-0.098
		c0.2-1.858,0.4-3.716,0.6-5.571L552.816,506.064z"/>
</g>
</svg>
