<?xml version="1.0" encoding="utf-8"?>
<!-- Generator: Adobe Illustrator 17.1.0, SVG Export Plug-In . SVG Version: 6.00 Build 0)  -->
<!DOCTYPE svg PUBLIC "-//W3C//DTD SVG 1.1//EN" "http://www.w3.org/Graphics/SVG/1.1/DTD/svg11.dtd">
<svg version="1.1" id="Calque_1" xmlns="http://www.w3.org/2000/svg" xmlns:xlink="http://www.w3.org/1999/xlink" x="0px" y="0px"
	 viewBox="368.503 321.732 453.543 198.425" enable-background="new 368.503 321.732 453.543 198.425" xml:space="preserve">
<g>
	<path fill="#FFFFFF" d="M599.395,361.221c-0.491-1.077-0.236-1.353,0.522-1.487c4.194-0.74,8.398-0.884,12.641-0.552
		c6.732,0.525,13.283,1.758,19.445,4.643c8.576,4.013,14.993,10.327,19.914,18.362c7.885,12.881,9.682,26.731,6.793,41.323
		c-1.221,6.164-4.179,11.665-7.405,16.999c-5.714,9.439-13.17,17.307-21.758,24.173c-6.208,4.964-12.926,9.102-20.265,12.115
		c-11.133,4.57-22.636,7.194-34.784,5.62c-14.369-1.865-25.47-9.026-33.546-20.932c-8.216-12.119-11.273-25.586-10.211-40.098
		c0.523-7.151,2.555-13.872,5.436-20.384c3.383-7.644,7.582-14.802,13.167-21.04c5.408-6.038,11.781-10.928,19.24-14.146
		c7.969-3.44,16.305-5.312,25.086-4.617C595.458,361.343,597.266,361.221,599.395,361.221z M605.91,382.075
		c-1.007-0.74-1.812-1.297-2.579-1.902c-2.684-2.134-5.697-3.733-9.023-4.35c-3.862-0.715-7.807-1.12-11.731-1.34
		c-6.124-0.347-12.029,0.833-17.677,3.242c-0.333,0.144-0.661,0.323-0.951,0.54c-0.584,0.439-1.074,1.072-1.721,1.352
		c-5.651,2.475-10.746,5.652-13.683,11.336c-1.333,2.583-2.602,5.263-3.418,8.039c-4.1,13.948-3.284,27.634,2.684,40.935
		c4.966,11.067,12.813,19.358,24.039,24.155c9.969,4.261,20.345,4.483,30.754,2.105c14.409-3.294,27.013-9.985,37.262-20.798
		c2.514-2.652,4.504-5.625,5.58-9.19c1.964-6.509,2.726-13.132,1.935-19.873c-1.875-15.933-9.17-28.455-23.384-36.482
		c-2.982-1.685-6.112-3.115-9.606-3.753c0.155,0.527,0.286,0.969,0.533,1.804c-1.095-0.684-1.883-1.174-2.667-1.667
		c-0.073,0.09-0.148,0.176-0.221,0.266c0.576,0.635,1.154,1.274,1.732,1.909c-0.067,0.066-0.133,0.134-0.199,0.203
		c-1.007-0.227-2.014-0.452-3.034-0.686c0.21,0.43,0.475,0.969,0.885,1.809c-0.756-0.31-1.184-0.486-1.644-0.676
		c-0.077,0.273-0.142,0.51-0.258,0.923c-1.529-1.355-2.897-2.656-4.357-3.838c-1.479-1.204-3.138-2.094-5.215-2.422
		c1.729,1.14,3.347,2.097,4.834,3.225c1.448,1.099,2.759,2.376,4.129,3.566c-0.134,0.188-0.267,0.379-0.401,0.561
		c-4.18-3.647-8.715-6.643-14.267-7.475c-5.437-0.815-10.905-1.26-16.188-0.371c4.123,0.173,8.435,0.268,12.735,0.557
		c4.741,0.315,10.887,2.447,12.104,4.087c-3.424-1.748-6.908-2.981-10.69-3.216c0.18,0.164,0.384,0.251,0.598,0.301
		c4.647,1.121,9.043,2.773,12.565,6.16c0.853,0.822,1.692,1.445,2.936,1.504c0.75,0.039,1.541,0.241,2.211,0.579
		c0.815,0.408,1.526,1.027,2.171,1.479c-0.404,2.334-0.616,4.553-1.189,6.682c-0.954,3.523-2.104,6.992-3.253,10.462
		c-0.347,1.052-1.049,1.796-2.381,1.743c-1.214-0.051-2.438,0.103-3.655,0.208c-2.099,0.183-3.883-0.476-5.339-1.98
		c-0.895-0.927-2.196-0.72-2.72,0.5c-0.481,1.128-0.866,2.3-1.366,3.418c-0.185,0.413-0.568,0.735-0.933,1.189
		c-0.195-0.439-0.312-0.701-0.461-1.038c-0.37,0.306-0.646,0.73-0.919,0.728c-1.188-0.007-2.283-0.713-3.528-0.525
		c-0.126,0.02-0.332-0.488-0.527-0.791c-0.18,0.108-0.436,0.264-0.664,0.403c-0.301-0.349-0.513-0.828-0.779-0.859
		c-1.035-0.134-0.854-0.882-0.789-1.473c0.216-1.951,0.404-3.916,0.794-5.84c0.659-3.235,0.798-6.582,2.052-9.7
		c0.284-0.706,0.57-1.326,1.436-1.228c0.708,0.078,1.401,0.28,2.101,0.434c1.842,0.403,3.673,0.884,5.531,1.187
		c1.512,0.249,2.539,1.003,3.22,2.322c0.664,1.286,1.332,2.564,2.164,4.165c0.277-0.835,0.472-1.279,0.57-1.745
		c0.526-2.492,1.142-4.978,1.494-7.495C603.757,383.923,604.247,382.778,605.91,382.075z M531.867,429.8
		c0.1,11.883,4.213,22.354,11.187,31.826C536.619,451.968,533.267,441.228,531.867,429.8z M639.391,390.925
		c4.806,7.256,8.021,15.115,9.331,23.736C648.492,405.601,644.46,398.04,639.391,390.925z M553.437,458.95
		c-3.082-4.59-6.271-9.339-9.436-14.05C546.386,450.147,549.285,455.1,553.437,458.95z M641.448,377.935
		c3.004,4.267,5.97,8.484,8.821,12.529C648.349,385.762,645.331,381.585,641.448,377.935z M553.381,468.081
		c-2.348-2.439-4.693-4.876-7.041-7.315C548.18,463.701,550.529,466.14,553.381,468.081z M616.279,375.139
		c-0.041,0.098-0.08,0.198-0.119,0.296c3.224,1.426,6.449,2.854,9.675,4.28c0.049-0.115,0.098-0.232,0.149-0.349
		C622.748,377.959,619.513,376.548,616.279,375.139z M639.223,385.982c0.121-0.107,0.238-0.217,0.358-0.325
		c-1.995-1.931-3.988-3.865-5.985-5.796c-0.005,0.008-0.011,0.017-0.016,0.025C635.461,381.917,637.342,383.95,639.223,385.982z"/>
	<path fill="#FFFFFF" d="M585.032,461.306c-0.554,0.251-1.138,0.515-1.816,0.825c-0.084-0.586-0.141-0.984-0.234-1.634
		c-0.271,0.596-0.452,0.992-0.619,1.355c-0.608,0.046-0.717-1.155-1.474-0.481c-0.229-0.398-0.61-0.779-0.655-1.198
		c-0.103-0.979-0.072-1.975-0.046-2.959c0.179-6.931-0.431-13.804-1.529-20.635c-0.212-1.336-0.75-2.617-0.958-3.948
		c-0.091-0.596,0.096-1.38,0.445-1.872c0.747-1.062,1.812-1.91,2.518-2.993c3.064-4.69,5.314-9.739,6.335-15.276
		c0.176-0.954,0.199-1.97,0.089-2.937c-0.117-1.04,0.308-1.387,1.217-1.297c1.603,0.164,3.233,0.239,4.786,0.615
		c1.328,0.32,2.611,0.933,3.82,1.585c0.364,0.195,0.601,0.974,0.574,1.465c-0.052,0.891-0.342,1.77-0.539,2.651
		c-0.766,3.406-1.814,6.78-2.219,10.227c-0.359,3.064-0.013,6.216,0.045,9.329c0.005,0.297,0.188,0.595,0.39,0.886
		c-0.934-7.154,0.43-13.982,2.845-20.661c-0.534,2.2-1.051,4.407-1.604,6.607c-1.088,4.314-1.492,8.704-0.796,13.081
		c0.272,1.707-0.086,2.793-0.941,4.246c-3.574,6.077-5.829,12.598-5.593,19.788c0.035,1.072,0.298,2.236-0.794,3.139
		c-0.107-0.324-0.199-0.608-0.357-1.092c-0.371,0.527-0.651,0.926-1.046,1.487c-0.138-0.52-0.225-0.852-0.283-1.064
		c-0.172,0.339-0.394,0.788-0.619,1.235C585.651,461.614,585.33,461.455,585.032,461.306z M586.032,437.52
		c0.559-0.874,1.311-1.535,1.361-2.246c0.088-1.228-0.26-2.486-0.431-3.779c-0.559,0.151-1.111,0.21-1.547,0.459
		c-0.323,0.188-0.756,0.695-0.696,0.957C585.055,434.37,585.527,435.798,586.032,437.52z M588.833,450.21
		c0.096,0.034,0.193,0.066,0.289,0.098c0.756-2.239,1.417-4.517,2.305-6.702c0.88-2.168,1.99-4.241,2.998-6.358
		C591.447,441.106,589.811,445.523,588.833,450.21z M593.656,424.524c-0.039-0.003-0.078-0.005-0.115-0.008c0,2.698,0,5.396,0,8.094
		c0.036,0,0.076,0.003,0.115,0.003C593.656,429.917,593.656,427.219,593.656,424.524z"/>
	<path fill="#FFFFFF" d="M640.588,426.067c0.36,0.093,0.629,0.158,1.109,0.281c-0.332-0.437-0.547-0.725-0.819-1.087
		c1.307,0.256,2.495,0.496,3.722,0.737c-0.132,0.232-0.316,0.552-0.62,1.079c0.549-0.178,0.872-0.286,1.365-0.447
		c0.51,2.26,1.013,4.482-0.106,6.687c-0.472,0.932-1.909,1.328-3.311,0.896c-1.04-0.323-2.125-0.574-1.893-2.188
		c0.187-1.292,0.003-2.632-0.004-3.953c0-0.151,0.071-0.427,0.143-0.439C641.402,427.427,640.472,426.66,640.588,426.067z"/>
</g>
</svg>
