<?xml version="1.0" encoding="utf-8"?>
<!-- Generator: Adobe Illustrator 17.1.0, SVG Export Plug-In . SVG Version: 6.00 Build 0)  -->
<!DOCTYPE svg PUBLIC "-//W3C//DTD SVG 1.1//EN" "http://www.w3.org/Graphics/SVG/1.1/DTD/svg11.dtd">
<svg version="1.1" id="Calque_1" xmlns="http://www.w3.org/2000/svg" xmlns:xlink="http://www.w3.org/1999/xlink" x="0px" y="0px"
	 viewBox="368.503 321.732 453.543 198.425" enable-background="new 368.503 321.732 453.543 198.425" xml:space="preserve">
<g>
	<path fill="#FFFFFF" d="M545.738,364.849c3.15-2.677,6.677-4.076,10.589-4.268c3.623-0.178,7.063-1.142,10.549-1.977
		c6.211-1.488,12.434-2.9,18.654-4.331c2.91-0.667,5.823-1.307,8.741-1.938c0.583-0.127,1.186-0.149,2.063-0.253
		c0.954,4.132,1.911,8.198,2.819,12.276c0.352,1.56,0.651,3.136,0.869,4.719c0.171,1.271,0.127,2.57,0.288,3.846
		c0.147,1.162,0.43,2.308,0.664,3.461c0.945,4.671,1.831,9.351,2.852,14.003c1.931,8.828,3.897,17.645,5.95,26.444
		c0.398,1.716,1.49,3.273,1.855,4.991c0.966,4.507,1.721,9.058,2.542,13.595c0.791,4.352,1.497,8.719,2.351,13.055
		c1.041,5.267,2.195,10.51,3.296,15.767c0.056,0.28,0.068,0.569,0.095,0.857c-0.095,0.051-0.193,0.107-0.29,0.16
		c-0.716-1.039-1.468-2.053-2.139-3.122c-1.391-2.219-1.342-2.152-3.811-1.184c-6.565,2.577-12.898,5.652-19.011,9.165
		c-2.522,1.447-4.91,3.155-7.261,4.879c-5.318,3.892-10.716,7.595-17.449,8.523c-0.349,0.047-0.712,0.059-1.066,0.086
		c-0.064-0.117-0.125-0.236-0.19-0.35c0.329-0.275,0.639-0.578,0.991-0.815c0.403-0.266,0.837-0.471,1.257-0.703
		c-0.049-0.115-0.103-0.227-0.154-0.342c-0.82,0.335-1.633,0.668-2.757,1.128c-0.319-0.726-0.737-1.68-1.296-2.945
		c0.095,0.954,0.19,1.571,0.203,2.193c0,0.212-0.22,0.427-0.341,0.642c-0.201-0.137-0.483-0.229-0.586-0.421
		c-0.305-0.603-0.539-1.245-0.828-1.92c-0.445,0.052-0.845,0.095-1.367,0.151c0.166,0.889,0.354,1.702,0.461,2.521
		c0.027,0.243-0.164,0.513-0.257,0.771c-0.217-0.115-0.495-0.178-0.642-0.357c-0.297-0.372-0.525-0.81-0.991-1.152
		c0.103,0.523,0.245,1.044,0.289,1.573c0.022,0.216-0.161,0.452-0.251,0.676c-0.222-0.095-0.532-0.129-0.652-0.301
		c-0.425-0.602-0.786-1.251-1.169-1.882c-0.091,0.034-0.183,0.072-0.279,0.108c0.181,0.913,0.391,1.823,0.53,2.743
		c0.054,0.365-0.049,0.754-0.076,1.134c-0.337-0.231-0.703-0.426-0.994-0.701c-0.237-0.222-0.383-0.54-0.542-0.78
		c-0.183,0.359-0.347,0.684-0.513,1.009c-0.258-0.241-0.576-0.443-0.773-0.728c-0.44-0.643-0.828-1.327-1.238-1.992
		c-0.09,0.03-0.176,0.066-0.266,0.098c0.329,1.781,0.673,3.562,0.967,5.35c0.057,0.354-0.078,0.742-0.125,1.116
		c-0.31-0.228-0.672-0.41-0.909-0.697c-0.305-0.37-0.515-0.825-0.949-1.173c0.129,0.483,0.298,0.961,0.366,1.453
		c0.034,0.251-0.122,0.529-0.193,0.795c-0.224-0.093-0.561-0.118-0.659-0.287c-1.26-2.152-2.973-4.091-3.295-6.704
		c-0.654-5.338-1.302-10.678-1.917-16.019c-0.752-6.521-1.375-13.056-2.222-19.562c-1.135-8.65-2.227-17.314-3.721-25.906
		c-1.641-9.403-3.674-18.736-5.635-28.079c-0.779-3.727-1.784-7.406-2.734-11.094c-0.644-2.505-1.367-4.99-2.068-7.477
		c-0.058-0.208-0.24-0.377-0.323-0.581c-0.202-0.475-0.527-0.962-0.527-1.441c0.008-0.485,0.263-1.031,0.576-1.417
		c0.091-0.111,0.732,0.232,1.099,0.355c0.19-0.49,0.422-1.063,0.654-1.638c0.122-0.018,0.244-0.036,0.369-0.052
		c0.263,0.496,0.61,0.963,0.779,1.49c2.802,8.676,4.909,17.534,6.682,26.476c1.411,7.121,2.752,14.257,4.036,21.399
		c1.067,5.917,2.011,11.858,3.013,17.784c0.091,0.518,0.215,1.03,0.503,1.518c-0.183-1.697-0.317-3.398-0.557-5.086
		c-1.102-7.809-2.09-15.637-3.396-23.41c-0.996-5.962-2.278-11.882-3.662-17.768c-1.458-6.189-3.193-12.313-4.802-18.465
		c-0.144-0.553-0.21-1.13-0.396-1.668c-0.368-1.071-0.793-2.121-1.201-3.175c-0.293-0.752-0.034-1.25,0.661-1.569
		c2.273-1.038,4.529-2.098,6.811-3.102C544.405,364.01,545.225,363.652,545.738,364.849z M610.806,447.991
		c-0.256-1.106-0.51-2.092-0.716-3.09c-1.616-7.845-3.139-15.708-4.849-23.533c-2.165-9.874-4.516-19.711-6.721-29.58
		c-2.151-9.639-3.953-19.361-6.578-28.952c-0.752,0.078-1.311,0.113-1.867,0.202c-6.382,1.014-12.759,2.066-19.151,3.053
		c-5.112,0.788-10.237,0.805-15.352-0.068c-1.026-0.173-2.051-0.357-3.203-0.557c0.144,0.615,0.237,1.056,0.346,1.49
		c2.146,8.504,4.448,16.971,6.399,25.52c1.979,8.69,3.591,17.465,5.413,26.196c2.785,13.355,5.603,26.703,8.415,40.055
		c0.339,1.611,0.73,3.21,1.101,4.839c2.596-1.423,5.022-2.825,7.513-4.104c6.985-3.588,14.258-6.457,21.711-8.884
		c0.391-0.126,0.752-0.332,1.125-0.496c1.15-0.499,2.273-1.072,3.455-1.472C608.763,448.298,609.749,448.202,610.806,447.991z
		 M548.033,380.918c5.122,29.518,11.57,58.741,18.418,87.906c1.169-0.655,1.24-0.67,1.013-1.784
		c-1.318-6.514-2.603-13.04-4.038-19.531c-2.043-9.258-4.216-18.485-6.326-27.727c-1.186-5.195-2.334-10.401-3.537-15.593
		c-1.396-6.048-2.837-12.089-4.265-18.131C548.895,384.342,548.453,382.631,548.033,380.918z M570.225,465.828
		c0.142-0.023,0.284-0.047,0.427-0.071c-0.024-0.354-0.019-0.71-0.083-1.059c-0.774-4.426-1.423-8.88-2.373-13.267
		c-2.248-10.372-4.646-20.712-6.977-31.067c-1.236-5.498-2.442-11.002-3.687-16.499c-0.815-3.599-1.68-7.189-2.517-10.786
		c-0.865-3.712-1.724-7.426-2.598-11.137c-0.159-0.667-0.383-1.319-0.579-1.978c-0.017,0.012-0.036,0.023-0.056,0.034
		C557.93,408.608,564.075,437.219,570.225,465.828z M536.856,380.955c4.633,17.816,7.578,35.971,10.695,54.092
		C545.479,416.714,541.793,398.707,536.856,380.955z M604.026,410.611c0.136-0.015,0.266-0.032,0.403-0.049
		c-0.13-0.663-0.245-1.327-0.385-1.987c-1.465-6.715-2.93-13.428-4.397-20.142c-1.736-7.937-3.472-15.878-5.217-23.813
		c-0.052-0.225-0.245-0.419-0.369-0.625c-0.081,0.042-0.164,0.085-0.242,0.124C597.222,379.616,600.623,395.114,604.026,410.611z
		 M557.828,437.665c-0.105,0.029-0.208,0.059-0.31,0.089c2.443,10.702,4.885,21.405,7.327,32.109
		C563.274,458.953,560.262,448.374,557.828,437.665z M548.143,403.266c1.318,7.799,2.639,15.598,3.955,23.393
		C551.392,418.77,550.579,410.897,548.143,403.266z M549.651,422.059c-1.006-9.922-3-19.695-5.305-29.41
		C546.114,402.452,547.881,412.256,549.651,422.059z M560.84,457.479c-0.11,0.036-0.22,0.068-0.332,0.104
		c0.711,4.658,1.421,9.314,2.131,14.03c1.011-0.521,1.091-0.58,0.911-1.452C562.664,465.93,561.746,461.706,560.84,457.479z
		 M570.628,456.497c0.139-0.026,0.286-0.053,0.43-0.078c-1.973-8.906-3.94-17.811-5.913-26.72c-0.095,0.023-0.195,0.046-0.298,0.066
		C566.773,438.674,568.699,447.586,570.628,456.497z M601.563,460.613c0.043,0.083,0.087,0.169,0.134,0.253
		c4.033-1.436,8.069-2.871,12.102-4.304c0.027-0.116,0.049-0.228,0.068-0.344c-0.324-0.072-0.701-0.285-0.971-0.193
		c-1.328,0.439-2.642,0.927-3.928,1.461C606.492,458.505,604.026,459.568,601.563,460.613z M550.193,375.052
		c0.125-0.029,0.249-0.061,0.373-0.089c-0.607-2.493-1.215-4.984-1.826-7.479c-0.322,0.217-0.537,0.538-0.471,0.781
		C548.882,370.535,549.544,372.791,550.193,375.052z M568.609,480.473c0.103,0.078,0.201,0.152,0.3,0.227
		c0.464-0.548,0.926-1.099,1.39-1.648c-0.586,0.048-1.177,0.092-1.765,0.149c-0.054,0.006-0.093,0.106-0.156,0.18
		C568.45,479.737,568.531,480.105,568.609,480.473z M545.264,369.561c-0.095,0.02-0.188,0.042-0.28,0.06
		c0.539,2.065,1.079,4.132,1.616,6.2c0.078-0.02,0.151-0.039,0.225-0.059C546.304,373.695,545.784,371.628,545.264,369.561z
		 M563.794,423.055c-0.093,0.015-0.183,0.027-0.276,0.042c0.341,1.68,0.681,3.358,1.021,5.038c0.088-0.016,0.176-0.035,0.261-0.052
		C564.466,426.408,564.131,424.73,563.794,423.055z"/>
	<path fill="#FFFFFF" d="M648.572,454.719c-0.039-1.142-0.352-1.474-1.152-0.997c-0.066-0.088-0.135-0.174-0.198-0.262
		c0.203-0.544,0.273-1.211,0.633-1.615c1.616-1.812,3.318-3.546,4.98-5.317c0.279-0.297,0.513-0.639,0.769-0.96
		c-0.108-0.089-0.21-0.18-0.315-0.27c-1.262,1.275-2.542,2.534-3.776,3.831c-1.172,1.234-2.273,2.536-3.465,3.751
		c-0.315,0.325-1.076,0.732-1.225,0.607c-0.555-0.466-0.938-1.139-1.429-1.794c-1.184,0.482-1.174,0.544-0.842,1.959
		c0.695,2.935,0.725,2.659,0.09,3.637c-0.83-0.205-1.709-0.424-2.656-0.658c-0.007,0.129-0.026,0.431-0.056,0.805
		c-0.232-0.021-0.435,0.018-0.573-0.059c-1.739-0.958-2.734-2.553-3.23-4.378c-1.186-4.375-2.29-8.777-3.308-13.194
		c-1.552-6.724-3.135-13.447-4.453-20.221c-0.774-3.982-1.692-8.001-1.242-12.132c0.088-0.79,0.31-1.564,0.459-2.348
		c0.09-0.476,0.156-0.953,0.273-1.656c0.32-0.031,0.882-0.083,1.443-0.134c0.008-0.043,0.015-0.085,0.02-0.125
		c-0.957-0.248-1.909-0.496-2.861-0.742c-0.017-0.11-0.034-0.223-0.048-0.333c0.278-0.172,0.556-0.343,0.81-0.5
		c-0.401-0.16-0.862-0.345-1.328-0.529c-0.005-0.105-0.017-0.208-0.025-0.309c0.337-0.113,0.664-0.257,1.006-0.335
		c1.06-0.236,2.129-0.418,3.176-0.67c2.344-0.561,4.656-1.3,7.024-1.654c0.977-0.145,2.08,0.495,3.108,0.842
		c0.086,0.029,0.008,0.553,0.008,1.018c0.061,0.036,0.337,0.211,0.711,0.449c-0.228,0.296-0.418,0.539-0.625,0.809
		c0.552,0.221,1.094,0.441,1.823,0.734c-0.923,0.59-0.481,2.118-1.707,1.938c1.013,0.268,2.215,0.585,3.413,0.902
		c0.005,0.111,0.012,0.225,0.017,0.338c-0.273,0.205-0.549,0.41-0.669,0.502c0.149,0.214,0.376,0.43,0.437,0.689
		c0.022,0.093-0.327,0.359-0.542,0.423c-2.285,0.672-4.563,1.361-6.865,1.961c-1.042,0.271-2.136,0.358-3.51,0.578
		c2.71,13.206,5.803,26.418,8.618,39.956c1.101-1.064,1.983-1.921,2.871-2.773c2.243-2.154,4.377-4.434,7.075-6.055
		c0.242-0.142,0.42-0.692,0.357-0.995c-0.273-1.301-0.65-2.583-1.04-4.079c-0.417,0.525-0.769,0.977-1.135,1.41
		c-0.903,1.074-1.735,2.267-3.25,2.517c-2.558,0.418-4.151-1.022-4.087-3.667c0.014-0.486,0.078-0.97,0.125-1.514
		c0.678,0.293,1.277,0.721,1.922,0.793c1.562,0.171,3.457-1.648,4.311-3.333c0.823-1.628,0.261-2.944-0.134-4.447
		c-0.932-3.535-1.724-7.108-2.566-10.668c-0.581-2.447-1.216-4.884-1.696-7.353c-0.352-1.787,0.039-3.529,0.725-5.354
		c0.366,0.269,0.62,0.451,0.869,0.634c0.173-0.324,0.344-0.647,0.74-1.397c0.251,0.484,0.401,0.773,0.596,1.148
		c0.154-0.321,0.276-0.572,0.437-0.904c0.134,0.169,0.266,0.26,0.303,0.382c0.679,2.253,1.429,4.487,1.995,6.77
		c0.945,3.772,1.743,7.576,2.64,11.358c1.077,4.559,2.163,9.12,3.301,13.662c0.742,2.957,1.609,5.878,2.364,8.829
		c0.095,0.375-0.022,0.985-0.281,1.246c-2.315,2.352-4.693,4.645-7.034,6.973c-0.344,0.343-0.581,0.792-0.906,1.156
		C649.505,453.908,649.17,454.17,648.572,454.719z"/>
	<path fill="#FFFFFF" d="M636.26,458.042c-1.294-0.785-2.547-1.197-3.077-2.591c-0.41-1.065-1.101-2.036-1.386-3.125
		c-0.503-1.92-0.759-3.906-1.182-5.849c-1.992-9.203-4.035-18.396-6.003-27.605c-0.801-3.763-1.565-7.552-0.801-11.435
		c0.103-0.516,0.337-1.006,0.513-1.507c0.154,0.03,0.301,0.059,0.452,0.088c-0.117,1.233-0.237,2.464-0.38,3.944
		c0.466-1.48,0.857-2.722,1.32-4.205c0.332,0.414,0.469,0.509,0.456,0.574c-0.837,4.269,0.374,8.353,1.243,12.427
		c2.246,10.477,4.631,20.922,6.987,31.372c0.522,2.305,1.167,4.58,1.743,6.874C636.214,457.271,636.211,457.555,636.26,458.042z"/>
	<path fill="#FFFFFF" d="M636.487,421.152c0.51,0.258,0.754,0.382,1.108,0.561c-0.071-0.464-0.125-0.826-0.188-1.228
		c0.132-0.062,0.261-0.121,0.391-0.19c1.473-0.823,1.479-0.823,1.892,0.941c0.33,1.409,0.654,2.816,0.967,4.225
		c0.222,0.997,0.008,1.767-1.032,2.203c-0.41,0.172-0.718,0.586-1.106,0.844c-0.61,0.409-0.828-0.053-0.923-0.526
		c-0.306-1.49-0.586-2.984-0.843-4.48C636.634,422.811,636.595,422.111,636.487,421.152z"/>
	<path fill="#FFFFFF" d="M643.169,419.107c0.842,1.985,1.672,3.858,2.43,5.763c0.349,0.883,0.008,1.602-0.779,2.145
		c-0.335,0.228-0.594,0.569-0.857,0.887c-0.357,0.434-0.716,0.488-0.938-0.06c-0.767-1.904-1.594-3.796-2.163-5.766
		c-0.141-0.492,0.549-1.29,0.972-1.864C642.134,419.807,642.623,419.546,643.169,419.107z"/>
	<path fill="#FFFFFF" d="M576.995,440.31c0.33-0.073,0.635-0.141,0.945-0.206c-0.83-1.208-0.83-1.208,0.047-2.063
		c-0.647-0.556-1.289-1.107-1.917-1.646c0.525-0.745,0.954-1.355,1.457-2.072c-1.259-0.434-0.358-1.63-0.747-2.455
		c0.44-0.174,0.879-0.492,1.326-0.502c1.159-0.028,2.333,0.18,3.491,0.113c3.01-0.173,5.703-1.382,7.901-3.342
		c2.534-2.259,4.805-4.823,7.131-7.315c0.489-0.521,0.853-0.762,1.39-0.246c1.255,1.208,2.548,2.385,3.677,3.706
		c0.398,0.467,0.522,1.319,0.498,1.987c-0.049,1.398-0.307,2.788-0.415,4.187c-0.029,0.385,0.227,0.787,0.281,1.193
		c0.185,1.35-0.203,2.55-0.982,3.652c-1.794,2.544-4.084,4.572-6.484,6.508c-3.379,2.722-7.19,3.509-11.372,2.799
		C581.226,444.271,578.065,442.09,576.995,440.31z"/>
	<path fill="#FFFFFF" d="M586.482,405.234c-0.051,0.961-0.056,1.999-1.509,1.185c-0.21-0.116-0.581,0.065-0.925,0.117
		c-0.034,0.216-0.093,0.437-0.098,0.655c-0.068,1.983-0.058,2.047-1.809,2.309c-0.323,0.048-0.923-0.592-1.104-1.034
		c-0.513-1.264-0.879-2.594-1.306-3.894c-1.079-3.253-2.163-6.499-3.228-9.755c-0.803-2.455-1.75-4.878-2.302-7.39
		c-0.329-1.498-0.065-3.145,0.025-4.718c0.034-0.604,0.407-0.936,0.923-0.395c1.255-0.78,1.607-2.168,2.08-3.764
		c0.362,0.573,0.51,0.808,0.594,0.936c0.393-0.238,0.786-0.478,1.181-0.719c0.633-0.236,0.078-1.591,1.47-1.338
		c0.1,0.02,0.332-0.689,0.633-1.329c0.598,1.171,1.172,2.023,1.494,2.962c2.203,6.452,4.412,12.905,6.474,19.403
		c0.357,1.128,0.03,2.48-0.003,3.729c-0.008,0.341-0.115,0.676-0.132,1.016C588.877,404.543,587.855,405.411,586.482,405.234z"/>
	<path fill="#FFFFFF" d="M575.901,405.78c-0.142,0.711-0.247,1.255-0.339,1.73c-0.815,0-1.487,0-2.178,0c0,0.894,0,1.825,0,2.533
		c-0.549,0.285-0.92,0.445-1.262,0.659c-0.742,0.459-0.94-0.148-1.15-0.616c-0.644-1.461-1.255-2.94-1.878-4.41
		c-0.92-2.177-1.736-4.403-2.779-6.518c-1.219-2.471-2.168-5.006-2.607-7.736c-0.049-0.287-0.232-0.555-0.366-0.827
		c-0.442-0.927-0.076-1.354,0.711-2.012c0.542-0.455,1.42-0.901,1.37-1.935c-0.022-0.467,0.188-0.947,0.286-1.401
		c1.065,0.072,1.596-0.366,2.045-1.24c0.345-0.671,1.067-1.142,1.822-1.907c0.525,1.006,1.04,1.858,1.423,2.767
		c1.414,3.328,2.695,6.715,4.19,10.004c1.257,2.753,2.334,5.548,2.793,8.544c0.095,0.62-0.281,1.314-0.44,1.974
		C576.731,404.802,576.839,407.031,575.901,405.78z"/>
</g>
</svg>
