<?xml version="1.0" encoding="utf-8"?>
<!-- Generator: Adobe Illustrator 17.1.0, SVG Export Plug-In . SVG Version: 6.00 Build 0)  -->
<!DOCTYPE svg PUBLIC "-//W3C//DTD SVG 1.1//EN" "http://www.w3.org/Graphics/SVG/1.1/DTD/svg11.dtd">
<svg version="1.1" id="Calque_1" xmlns="http://www.w3.org/2000/svg" xmlns:xlink="http://www.w3.org/1999/xlink" x="0px" y="0px"
	 viewBox="368.503 321.732 453.543 198.425" enable-background="new 368.503 321.732 453.543 198.425" xml:space="preserve">
<g>
	<path fill="#FFFFFF" d="M663.229,335.346c-2.701,0.09-5.352,0.201-7.937,0.498c-0.513,0.064-1.038,0.29-1.594,0.53
		c-0.567,0.242-1.155,0.496-1.797,0.601c-3.906,0.628-7.324,2.503-11.065,4.71c-1.921,1.13-3.579,2.878-5.181,4.57
		c-0.42,0.444-0.84,0.887-1.26,1.316c-5.798,5.92-10.115,11.043-13.584,16.118c-1.279,1.868-2.597,3.708-3.916,5.551
		c-2.259,3.152-4.595,6.414-6.663,9.751c-2.68,4.326-5.141,8.899-7.522,13.323c-0.732,1.363-1.465,2.73-2.207,4.092
		c-0.425,0.773-1.245,1.811-2.988,1.418c-4.156-0.925-8.682-1.14-13.536-0.642c-3.438,0.352-6.926,0.84-10.297,1.316
		c-1.958,0.276-3.918,0.549-5.879,0.801c-6.518,0.835-12.202,3.618-16.895,8.267c-2.397,2.38-4.585,5.081-6.699,7.688
		c-0.96,1.186-1.919,2.371-2.9,3.533c-4.263,5.035-7.397,10.357-9.582,16.275c-1.56,4.221-3.157,8.747-4.041,13.516
		c-0.42,2.283-0.825,4.461,0.188,6.46l0.715-3.125l1.237,0.302l0.188,0.432l0.41-1.538l0.513-0.064l0.947,0.031l0.098,1.458
		c0.051,0.652,0.102,1.309,0.105,1.96c0.042,7.068,0.93,12.832,2.796,18.128c3.772,10.728,8.793,18.262,15.805,23.72
		c14.014,10.898,30.22,13.078,48.12,6.472c9.238-3.406,17.28-9.463,23.899-18.008c7.029-9.073,12.048-19.475,15.341-31.799
		c1.612-6.026,1.75-12.2,0.407-18.34c-1.855-8.496-6.501-16.225-13.813-22.962c-1.832-1.689-3.765-3.198-5.815-4.795
		c-0.927-0.723-1.862-1.451-2.793-2.2l-0.341-0.278l0.144-0.415c0.097-0.329,0.171-0.581,0.3-0.825
		c1.416-2.642,2.812-5.29,4.209-7.942c3.31-6.276,6.733-12.771,10.347-19.023c3.574-6.184,7.622-12.331,12.031-18.267
		c2.578-3.469,5.427-6.641,8.445-10.003c1.326-1.474,2.664-2.964,3.999-4.504l1.281-1.477l-0.166,1.765
		c0.142-0.183,0.276-0.38,0.413-0.576c0.578-0.84,1.233-1.789,2.497-2.173c0.059-0.117,0.135-0.354,0.185-0.52
		c0.117-0.368,0.249-0.786,0.484-1.109c0.332-0.456,0.756-0.827,1.206-1.223c0.201-0.173,0.412-0.359,0.635-0.564l0.795-0.755
		l0.307,1.338c0.103-0.464-0.053-0.974-0.354-1.619l-0.261-0.561l1.113-0.542C663.278,335.405,663.254,335.371,663.229,335.346z
		 M560.881,485.49c-4.502-2.085-7.334-5.703-9.851-9.231l0.942-0.823l12.434,11.691L560.881,485.49z M565.536,482.778l-0.505-0.251
		l-4.771-3.186l0.913-1.377l5.43,3.623L565.536,482.778z M580.505,446.083l-1.47,0.572l-0.722-1.839
		c-0.345-0.884-0.689-1.765-1.052-2.642l-0.384-0.921c-0.554-1.34-1.128-2.727-1.792-4.023c-0.102-0.2-0.288-0.385-0.508-0.573
		l4.832,12.986l-1.148,0.459l-0.461-0.488l-5.271-12.839l-0.363,0.979l-0.203-0.22c0.652,2.986,1.76,5.852,2.841,8.641
		c1.042,2.69,2.12,5.473,2.795,8.366l-1.196,0.376l-7.104-17.668l-1.143,0.725l-0.728-0.798l-0.635,1.956l-2.271-1.208l-0.257,0.65
		l-0.173,0.183l-1.221,0.938l-0.496-1.467l-0.283,4.585l-0.703-1.15c1.121,3.035,2.324,6.052,3.498,8.992
		c0.645,1.609,1.284,3.215,1.914,4.827c0.815,2.09,1.646,4.17,2.473,6.25c1.367,3.432,2.781,6.978,4.104,10.5l-1.153,0.5
		c-2.854-5.772-5.268-11.841-7.6-17.71c-1.648-4.151-3.342-8.406-5.198-12.576l0.01,0.051l-1.089,0.227l-0.346-0.42l-0.625-1.35
		l0.493,2.408l-1.318,0.478l-1.25-3.112l0.098,1.546l-0.403,0.178c-0.066,0.03-0.134,0.053-0.2,0.078l-0.566,0.193
		c2.368,6.309,4.534,12.049,6.823,17.835c1.692,4.273,3.443,8.521,5.22,12.835l2.896,7.051l-1.889-0.864
		c-0.342-0.149-0.674-0.298-0.992-0.471c-5.879-3.281-10.634-8.245-14.536-15.169c-5.489-9.744-7.635-20.342-6.377-31.509
		c0.088-0.81,0.601-1.726,1.216-2.18c5.564-4.107,11.574-7.117,17.863-8.945c2.117-0.613,4.165,0.22,5.913,1.32l0.693-2.505
		l0.174,0.11l0.478-0.735l1.152,0.523c0.337-0.081,0.644-0.161,0.933-0.232c0.676-0.173,1.255-0.323,1.841-0.415
		c1.541-0.239,3.128-0.354,4.851-0.354c2.908,0,5.828,0.346,8.299,0.684l0.761,0.103l-9.023,25.769l-0.673-1.26
		c-0.03-0.054-0.059-0.11-0.086-0.164L580.505,446.083z M625.368,462.05c-0.564,3.672-2.871,6.389-5.278,8.776
		c-6.694,6.638-15.405,10.938-25.891,12.776c-2.349,0.41-4.724,0.474-7.239,0.542c-1.162,0.034-2.349,0.068-3.569,0.137
		l-0.974,0.053l1.626-4.191l0.594,0.241c1.06,0.437,1.789,0.639,2.29,0.639c0.537,0,0.913-0.198,1.46-1.279l0.195-0.229
		c0.171-0.122,0.362-0.24,0.557-0.352c0.323-0.19,0.654-0.391,0.779-0.603c0.229-0.381,0.341-0.874,0.461-1.397
		c0.056-0.246,0.112-0.491,0.181-0.73l0.159-0.549l0.562,0.105c0.271,0.03,0.527,0.053,0.722,0.271
		c0.268,0.298,0.73,0.806,1.006,1.033c0.144-0.322,0.315-0.966,0.38-1.208c0.957-3.562,1.777-7.229,2.571-10.773l0.447-1.988
		c2.927-13.01,6.116-24.287,9.748-34.477c0.103-0.281,0.222-0.557,0.376-0.904l0.6-1.389l1.987,1.638
		c0.943,0.779,1.841,1.514,2.725,2.271c5.886,5.037,10.09,11.387,12.497,18.872C625.678,453.503,626.025,457.78,625.368,462.05z
		 M608.608,421.469l1.162-1.523l5.122,3.972l-0.913,1.216l-0.572-0.259L608.608,421.469z M623.713,420.249l2.422,3.572
		l-17.552-14.372l4.929,2.431C618.151,414.167,621.393,416.828,623.713,420.249z M621.608,411.171l-0.932,1.335l-6.445-4.576
		l0.969-1.372L621.608,411.171z"/>
</g>
</svg>
