<?xml version="1.0" encoding="utf-8"?>
<!-- Generator: Adobe Illustrator 17.1.0, SVG Export Plug-In . SVG Version: 6.00 Build 0)  -->
<!DOCTYPE svg PUBLIC "-//W3C//DTD SVG 1.1//EN" "http://www.w3.org/Graphics/SVG/1.1/DTD/svg11.dtd">
<svg version="1.1" id="Calque_1" xmlns="http://www.w3.org/2000/svg" xmlns:xlink="http://www.w3.org/1999/xlink" x="0px" y="0px"
	 viewBox="368.503 321.732 453.543 198.425" enable-background="new 368.503 321.732 453.543 198.425" xml:space="preserve">
<g>
	<path fill="#FFFFFF" d="M552.837,376.428c-7.74-5.128-15.418-7.456-23.606-7.087c-7.549,0.332-12.951,2.689-16.992,7.417
		c-0.117,0.137-0.206,0.591-0.27,0.923c-0.053,0.268-0.105,0.536-0.177,0.787c-0.04,0.141-0.067,0.292-0.094,0.438
		c-0.079,0.438-0.18,0.986-0.522,1.469c-0.18,0.251-0.38,0.473-0.605,0.697l1.194,0.251l-0.079,0.086l1.833-0.584l0.579,2.213
		l-1.867,1.062l0.148,0.186c3.903-0.919,8.836-1.514,13.188-0.73l3.264,0.594l-2.948,1.517c-0.32,0.174-0.497,0.266-0.68,0.337
		c-6.546,2.477-12.382,6.412-17.839,12.033c-5.263,5.422-8.266,12.202-10.723,18.72c-1.297,3.438-2.115,6.493-2.498,9.338
		c-0.632,4.687-0.335,9.281,0.88,13.731l1.524-0.577l5.137,11.413l-1.393,0.61c6.096,9.559,14.428,15.557,24.831,17.866
		c13.637,3.034,25.82-0.777,35.812-11.19c7.036-7.336,12.056-15.923,14.92-25.529c3.227-10.815,2.584-21.389-1.914-31.432
		C569.48,391.015,562.379,382.754,552.837,376.428z M513.293,452.502c-3-1.96-5.487-4.79-7.597-8.645l-4.912-8.987l19.382,22.117
		L513.293,452.502z M567.525,438.422c-1.163,6.525-6.02,10.285-9.575,12.549c-5.231,3.326-11.049,5.01-17.298,5.01
		c-2.891,0-5.924-0.361-9.016-1.077c-13.097-3.029-22.212-11.534-27.103-25.28c-1.888-5.309-2.146-11.089-0.79-17.669
		c0.539-2.612,1.823-4.689,3.928-6.348c4.687-3.691,9.714-6.103,15.011-7.204l-1.199-0.158l7.898-1.184
		c2.321-0.349,4.685-0.292,7.017,0.177l0.754-1.673l5.184,2.225l-3.651-2.757l5.046,1.113c0.919,0.203,1.67,0.626,2.335,1.003
		c0.557,0.311,1.048,0.589,1.481,0.646l-0.643-1.503h1.694l-0.24-0.201l1.417-2.137l0.929,0.577c0.158,0.1,0.326,0.191,0.49,0.28
		c0.433,0.239,0.926,0.51,1.347,0.919c7.412,7.178,12.12,14.789,14.384,23.26C568.545,425.028,568.743,431.567,567.525,438.422z"/>
	<path fill="#FFFFFF" d="M696.581,417.35c-0.095-1.665-0.189-3.273-0.362-4.869c-1.189-11.035-6.219-18.739-15.375-23.557
		c-5.17-2.723-10.905-4.283-17.037-4.639c-4.158-0.242-8.413-0.263-12.528-0.285l-2.378-0.014c-0.643,0-1.369,0.186-1.966,0.496
		c-3.661,1.904-6.283,3.708-8.496,5.852c-7.927,7.681-12.516,17.112-13.64,28.029c-0.569,5.517-0.574,11.094-0.579,16.492
		c-0.002,6.807,1.744,13.215,5.192,19.045c6.036,10.209,15.133,16.334,27.039,18.201c8.645,1.354,15.744-0.108,22.038-4.52
		c4.948-3.471,8.781-8.316,11.709-14.812c4.147-9.197,6.221-19.712,6.53-33.091C696.672,418.953,696.626,418.145,696.581,417.35z
		 M689.327,435.881c-1.263,3.311-2.876,7.135-5.28,10.398c-5.146,6.982-12.635,10.831-21.086,10.831h-0.002
		c-3.524-0.003-7.123-0.673-10.695-1.996c-11.903-4.407-19.552-13.396-22.732-26.717c-0.12-0.493-0.182-0.94-0.191-1.371
		c-0.015-0.828-0.01-1.66-0.01-2.488l0.005-0.952c-0.45-5.379,1.519-10.424,6.02-15.339c1.95-2.13,3.895-4.149,6.233-5.484
		c2.495-1.426,5.515-2.091,7.865-2.517c7.488-1.339,14.862-0.978,21.825,1.077c6.245,1.842,10.951,4.936,14.389,9.465
		C691.514,418.482,692.743,426.925,689.327,435.881z"/>
	<path fill="#FFFFFF" d="M604.448,453.942l0.742-1.996l-0.134-0.301c-0.201-0.448-0.378-0.845-0.574-1.227
		c-0.225-0.445-0.466-0.876-0.721-1.321l-0.715-1.285l0.474-0.591c0.17-0.208,0.134-0.311,0.115-0.38
		c-0.139-0.414-0.864-1.012-2.166-1.488c-0.62,1.27-1.246,1.473-3.132,1.478l-0.637,0.003c-2.237,0.005-4.477,0.014-6.714,0.086
		c-0.105,0-0.216,0.01-0.328,0.024l0.792,0.725l-1.904,0.9c0.034,0.105,0.062,0.215,0.074,0.335c0.055,0.481-0.098,0.88-0.323,1.213
		l0.261,0.177l-0.718,2.11l1.933,0.809l-1.495,1.708l1.105,0.665l-1.039,0.953l1.785,1.134l-2.082,0.995l1.622,3.426l0.603,0.29
		l-0.543,0.39c0.338,0.05,0.651,0.082,0.95,0.082v1.122l0.075-1.122c1.562-0.026,3.122-0.103,4.682-0.182
		c1.794-0.089,3.589-0.177,5.383-0.191c1.192-0.01,2.077-0.04,2.771-0.428l0.156-0.519l0.978-2.694l-0.603-1.337l0.713-0.543
		c0.125-0.094,0.277-0.23,0.289-0.34c0.019-0.165-0.065-0.708-1.266-2.177L604.448,453.942z"/>
	<path fill="#FFFFFF" d="M592.258,426.389c0.017,0.333,0.031,0.617,0.083,0.747c0.23,0.586,0.244,1.189,0.259,1.723
		c0.024,0.967,0.029,0.967,0.43,1.021l1.074,0.146l-0.318,3.242l2.33,0.448l-1.297,1.655l0.23,0.699
		c0.234,0.723,0.464,1.445,0.768,2.134c0.201,0.462,0.37,0.732,0.466,0.861c0.521,0.05,0.971,0.091,1.407,0.091
		c0.794,0,1.11-0.143,1.23-0.23c0.98-0.711,2.009-1.067,3.014-1.268l-1.18-0.168l1.261-0.314h-2.785l5.487-2l-3.867-0.52
		l1.156-0.296h-2.466l-0.203-2.065l1.005-0.505l4.196-0.701l0.977-0.744c-0.167-0.04-0.332-0.077-0.498-0.11
		c-0.56-0.115-1.12-0.196-1.771-0.29l-7.268-1.12l6.685-1.326l-0.127-0.05l0.122-0.082h-1.717l-0.331-2.368l0.368-0.089
		c-0.318-0.266-0.612-0.612-0.849-1.086l-0.459-0.914c-2.225-0.117-4.434,0.258-7.07,1.208l0.512,0.577l-0.88,1.206
		C592.243,426.081,592.25,426.241,592.258,426.389z"/>
	<path fill="#FFFFFF" d="M550.878,419.676c-1.627-0.177-3.302-0.191-5.015-0.191l-1.699-0.003c-2.962-0.012-5.929-0.014-8.893-0.014
		l-6.922-0.009c-0.331,0-0.665-0.057-1.055-0.139l-2.261-0.38l1.167-1.641l-0.34-0.605l-1.364,1.385
		c-1.914,1.94-3.895,3.947-5.632,6.06c-1.297,1.572-2.278,3.522-3.23,5.41c-0.359,0.703-0.397,1.27,0.409,2.043
		c1.643,1.572,3.644,1.723,5.898,1.749c6.003,0.077,12.011,0.086,18.014,0.098l3.855,0.007l-0.708-1.182l2.957-0.246l-2.003-2.617
		l3.486,0.447l-0.667-1.129h1.873l-0.751-3.005l1.794,0.304l-0.086-0.529l0.28-0.031l-2.122-2.52l2.912,0.316l-1.027-2.833
		l2.355,0.378c0.004-0.057,0.014-0.115,0.024-0.174c0.067-0.333,0.034-0.527-0.014-0.596
		C551.94,419.793,551.141,419.705,550.878,419.676z"/>
	<path fill="#FFFFFF" d="M667.325,437.628c-3.026-3.515-7.118-6.158-12.509-8.087c-2.876-1.029-5.526-0.438-7.905,1.759
		c-0.773,0.715-1.583,1.392-2.44,2.111l-0.378,0.318l5.723,7.34c0.177-0.227,0.354-0.457,0.529-0.684
		c0.763-0.996,1.551-2.024,2.52-2.9c0.474-0.431,2.163-1.836,3.995-1.836c3.635,0.019,6.79,1.5,9.403,4.4
		c1.229,1.364,2.29,2.398,3.331,3.254c-0.031-0.031,0.052-0.012,0.186-0.012c0.091,0,0.182-0.008,0.259-0.021
		c0.009-0.027,0.019-0.055,0.024-0.079c-0.194-0.457-0.378-0.921-0.565-1.39C668.87,440.223,668.277,438.733,667.325,437.628z"/>
</g>
</svg>
