<?xml version="1.0" encoding="utf-8"?>
<!-- Generator: Adobe Illustrator 17.1.0, SVG Export Plug-In . SVG Version: 6.00 Build 0)  -->
<!DOCTYPE svg PUBLIC "-//W3C//DTD SVG 1.1//EN" "http://www.w3.org/Graphics/SVG/1.1/DTD/svg11.dtd">
<svg version="1.1" id="Calque_1" xmlns="http://www.w3.org/2000/svg" xmlns:xlink="http://www.w3.org/1999/xlink" x="0px" y="0px"
	 viewBox="0 0 200 45" enable-background="new 0 0 200 45" xml:space="preserve">
<g>
	<path fill="#FFFFFF" d="M91.737,41.861c0.276-0.021,0.533-0.041,0.833-0.063C92.269,41.821,92.013,41.84,91.737,41.861
		L91.737,41.861z"/>
	<rect x="91.737" y="41.861" fill="#FFFFFF" width="0" height="0"/>
	<polygon fill="#FFFFFF" points="91.737,41.861 91.738,41.86 91.737,41.861 	"/>
	<path fill="#FFFFFF" d="M104.889,23.781c-1.125-3.695-1.745-7.512-2.589-11.274c-0.133-0.59-0.253-1.182-0.413-1.764
		c-0.032-0.118-0.302-0.287-0.319-0.271c-0.209,0.19-0.49,0.383-0.556,0.629c-0.088,0.326-0.283,0.369-0.523,0.468
		c-0.145,0.06-0.296,0.223-0.345,0.372c-0.05,0.16,0.019,0.357,0.034,0.527c-0.152,0.067-0.277,0.123-0.425,0.188
		c-0.068-0.188-0.13-0.356-0.203-0.554c0.331-0.077,0.508-0.248,0.461-0.599c-0.012-0.089,0.049-0.214,0.117-0.282
		c0.247-0.254,0.14-0.519,0.024-0.765c-0.129-0.271-0.276-0.545-0.465-0.774c-0.728-0.881-1.457-1.76-2.217-2.61
		c-1.206-1.346-2.56-2.525-4.041-3.552c-0.153-0.105-0.325-0.183-0.487-0.274c-0.026,0.029-0.051,0.059-0.076,0.087
		c0.072,0.11,0.145,0.22,0.226,0.343c-0.424,0.1-0.145,0.266-0.021,0.373c0.376,0.325,0.769,0.631,1.157,0.945
		c-0.016,0.02-0.031,0.041-0.046,0.062c-0.413-0.281-0.826-0.562-1.235-0.841c-0.13,0.143-0.219,0.242-0.348,0.383
		c1.083,0.88,2.169,1.715,3.006,2.812c-0.877-0.76-1.75-1.52-2.813-2.169c0.015,0.188,0.021,0.278,0.029,0.369
		c-0.026,0.014-0.052,0.029-0.079,0.043c-0.148-0.205-0.297-0.409-0.445-0.615c-0.024,0.015-0.048,0.03-0.071,0.044
		c0,0.127,0,0.254,0,0.439c-0.208-0.175-0.413-0.31-0.572-0.486c-0.524-0.581-0.987-1.226-1.558-1.752
		c-0.478-0.441-1.106-0.619-1.784-0.575C87.964,2.73,87.609,2.68,87.26,2.639c-0.816-0.095-1.514,0.15-2.125,0.695
		c-1.355,1.207-2.037,2.812-2.611,4.479c-0.152,0.441-0.066,0.541,0.39,0.608c0.069,0.01,0.136,0.041,0.209,0.064
		c0.085-0.177,0.158-0.328,0.199-0.414c0.186,0.141,0.366,0.277,0.565,0.428c0.082-0.151,0.136-0.251,0.19-0.352
		c0.049,0.02,0.097,0.04,0.146,0.06c1.582,5.739,3.164,11.477,4.746,17.216c-0.04,0.018-0.08,0.038-0.121,0.057
		c-1.611-5.294-3.093-10.631-4.973-15.874c-0.55,0.415-0.425,0.846-0.264,1.305c0.374,1.066,0.738,2.134,1.084,3.21
		c0.247,0.768,0.457,1.548,0.684,2.324c-0.017,0.005-0.034,0.01-0.05,0.015c-0.678-2.035-1.355-4.069-2.028-6.088
		c-0.513,0.106-0.505,0.391-0.397,0.725c0.053,0.162,0.096,0.328,0.148,0.491c0.744,2.315,1.526,4.618,2.224,6.948
		c0.856,2.861,1.64,5.746,2.455,8.62c0.097,0.342,0.194,0.684,0.285,1.028c0.086,0.327,0.163,0.656,0.244,0.985
		c-1.806-6.016-3.57-12.042-5.674-17.957c-0.106,0.115-0.16,0.297-0.194,0.294c-0.347-0.036-0.233,0.207-0.211,0.359
		c0.026,0.18,0.094,0.355,0.151,0.53c0.716,2.201,1.478,4.387,2.139,6.605c1.184,3.973,2.31,7.964,3.453,11.95
		c0.632,2.202,1.254,4.406,1.876,6.611c0.408,1.444,0.818,2.889,1.205,4.339c0.081,0.302,0.319,0.338,0.519,0.456
		c0.071-0.165,0.142-0.329,0.211-0.494l0,0c0.014-0.025,0.006-0.015,0.001-0.002c0,0,0,0.001-0.001,0.002
		c0.276-0.021,0.533-0.041,0.833-0.063c-0.004-0.008,0.017,0.054,0.054,0.104c0.075,0.104,0.157,0.201,0.237,0.302
		c0.024-0.13,0.057-0.258,0.072-0.389c0.024-0.217,0.038-0.436,0.056-0.653c0.389,0.558,0.252,1.259,0.644,1.772
		c0.04-0.006,0.081-0.013,0.123-0.019c0.011-0.189,0.022-0.379,0.036-0.604c0.222,0.109,0.402,0.22,0.596,0.292
		c0.926,0.341,1.853,0.629,2.72-0.153c0.509-0.458,0.885-1.002,1.091-1.659c0.165-0.523,0.316-1.05,0.478-1.588
		c0.361,0.288,0.361,0.288,0.778,0.035c0.067-0.04,0.132-0.086,0.204-0.115c0.3-0.12,0.436-0.297,0.402-0.662
		c-0.036-0.381-0.079-0.845,0.094-1.147c1.203-2.098,2.461-4.164,3.703-6.238c0.049-0.082,0.108-0.158,0.163-0.237
		c0.044,0.016,0.088,0.032,0.132,0.047c-0.042,0.181-0.043,0.385-0.132,0.537c-1.064,1.814-2.143,3.618-3.211,5.429
		c-0.078,0.132-0.304,0.299-0.031,0.457c0.223,0.129,0.402,0.147,0.571-0.142c0.997-1.701,2.014-3.39,3.028-5.081
		c0.043-0.072,0.109-0.14,0.179-0.187c0.1-0.067,0.212-0.114,0.351-0.186c0.026,0.022,0.117,0.1,0.211,0.18
		c0.399-0.394-0.368-0.855,0.04-1.173c0.327,0.181,0.607,0.336,0.931,0.515c0.185-0.583-0.321-1.029-0.279-1.565
		c0.203,0.403,0.406,0.806,0.609,1.208c0.041-0.016,0.082-0.032,0.123-0.048c0.039-0.089,0.077-0.179,0.1-0.234
		c0.114,0.017,0.218,0.033,0.321,0.049c0.012-0.1,0.044-0.204,0.031-0.301c-0.014-0.116-0.066-0.227-0.103-0.339
		C106.222,27.93,105.523,25.866,104.889,23.781z M92.322,7.525c0.737,3.003,1.475,6.006,2.212,9.009
		c-0.031,0.007-0.062,0.015-0.092,0.024c-0.746-3-1.491-6-2.237-9C92.244,7.547,92.283,7.536,92.322,7.525z M91.302,6.536
		c0.08,0.194,0.187,0.382,0.238,0.584c1.04,4.118,2.088,8.235,3.104,12.359c0.688,2.787,1.332,5.586,1.994,8.379
		c0.118,0.495,0.234,0.989,0.296,1.497c-1.733-7.639-4.255-15.076-5.762-22.772C91.216,6.568,91.259,6.552,91.302,6.536z
		 M84.396,7.497c-0.026-0.121-0.109-0.27-0.068-0.359c0.228-0.492,0.486-0.97,0.733-1.452c0.029,0.015,0.057,0.03,0.085,0.045
		c-0.225,0.579-0.449,1.158-0.673,1.738C84.448,7.478,84.422,7.487,84.396,7.497z M85.592,11.02c-0.29-0.943-0.58-1.886-0.871-2.829
		c0.055-0.017,0.11-0.034,0.164-0.05c0.274,0.948,0.549,1.895,0.823,2.843C85.669,10.996,85.63,11.008,85.592,11.02z M86.056,12.623
		c0.728,1.122,6.234,23.222,6.378,25.604C90.234,29.71,88.564,21.06,86.056,12.623z M93.175,39.342
		c-1.364-6.16-2.719-12.323-4.143-18.469c-0.583-2.512-1.313-4.99-2.002-7.477c-0.523-1.89-1.079-3.771-1.64-5.65
		c-0.121-0.405-0.131-0.761,0.199-1.197c0.12,0.353,0.229,0.624,0.304,0.905c0.309,1.158,0.594,2.323,0.911,3.478
		c0.996,3.628,2.083,7.233,2.982,10.886c1.137,4.618,2.131,9.272,3.173,13.914c0.302,1.345,0.561,2.699,0.849,4.094
		C93.437,39.813,93.257,39.715,93.175,39.342z M90.071,20.638c1.709,6.41,3.13,12.899,4.402,19.421
		c-0.046,0.011-0.092,0.021-0.139,0.032c-0.691-3.241-1.367-6.485-2.077-9.722C91.546,27.122,90.801,23.882,90.071,20.638z
		 M93.754,41.712c-0.098-0.04-0.133-0.236-0.196-0.361c0.039-0.027,0.079-0.054,0.118-0.081c0.308,0.372,0.95,0.19,1.138,0.771
		C94.459,41.937,94.095,41.852,93.754,41.712z M94.982,40.096c-0.358-1.694-0.692-3.369-1.065-5.034
		c-1.31-5.834-2.587-11.677-3.97-17.493c-0.777-3.265-1.734-6.487-2.62-9.726c-0.184-0.673-0.403-1.337-0.629-1.997
		c-0.067-0.198-0.207-0.371-0.349-0.613c0.072-0.086,0.194-0.231,0.374-0.442c0.034,0.287,0.031,0.506,0.089,0.707
		c0.388,1.343,0.815,2.674,1.18,4.023c1.313,4.866,2.709,9.713,3.881,14.615c1.228,5.135,2.234,10.323,3.335,15.489
		C95.248,39.814,95.317,40.027,94.982,40.096z M91.009,17.685c1.869,7.133,3.416,14.362,4.695,21.65
		C94.138,32.109,92.57,24.882,91.009,17.685z M97.354,35.813c-0.317,0.847-0.662,1.684-0.999,2.522
		c-0.028,0.069-0.078,0.129-0.153,0.253c-1.141-5.381-2.243-10.701-3.402-16.009c-1.163-5.326-2.476-10.615-4.071-15.937
		c0.599,0.528,0.928,1.318,1.841,1.151c0.02-0.092,0.041-0.19,0.074-0.34c0.05,0.115,0.09,0.181,0.107,0.252
		c0.9,3.627,1.793,7.256,2.699,10.883c0.855,3.423,1.756,6.835,2.579,10.266c0.506,2.113,0.906,4.252,1.343,6.382
		C97.409,35.421,97.418,35.642,97.354,35.813z M102.603,30.497c-0.911,1.567-1.838,3.126-2.762,4.686
		c-0.01,0.018-0.044,0.022-0.1,0.049c-0.302-1.538-0.555-3.059-0.904-4.559c-0.719-3.09-1.466-6.174-2.243-9.249
		c-1.003-3.964-2.053-7.915-3.068-11.876C93.226,8.38,92.978,7.2,92.706,6.025c0.027-0.02,0.055-0.039,0.083-0.059
		c0.375,0.294,0.769,0.566,1.12,0.885c1.89,1.722,3.575,3.619,4.896,5.83c0.14,0.234,0.358,0.419,0.523,0.641
		c0.469,0.628,0.385,1.403,0.52,2.116c0.578,3.052,1.112,6.111,1.694,9.162c0.345,1.81,0.755,3.607,1.123,5.412
		C102.696,30.165,102.68,30.366,102.603,30.497z"/>
	<path fill="#FFFFFF" d="M117.711,2.051c-0.086,0.084-0.203,0.153-0.252,0.256c-0.129,0.265-0.228,0.545-0.339,0.819
		c-0.069-0.128-0.053-0.243-0.073-0.352c-0.025-0.142-0.079-0.279-0.12-0.418c-0.106,0.111-0.253,0.204-0.311,0.336
		c-0.198,0.452-0.366,0.918-0.545,1.379c-0.072-0.23-0.054-0.446-0.079-0.658c-0.014-0.116-0.098-0.224-0.15-0.336
		c-0.089,0.08-0.206,0.144-0.261,0.243c-0.108,0.194-0.182,0.407-0.269,0.611c-0.065-0.237-0.054-0.448-0.072-0.657
		c-0.006-0.072-0.079-0.186-0.135-0.195c-0.064-0.011-0.176,0.054-0.213,0.117c-0.085,0.147-0.137,0.313-0.202,0.472
		c-0.203,0.503-0.405,1.006-0.609,1.509c-0.076-0.258-0.063-0.492-0.082-0.724c-0.009-0.116-0.075-0.228-0.115-0.342
		c-0.097,0.088-0.229,0.158-0.283,0.268c-0.146,0.293-0.258,0.603-0.384,0.906c-0.073-0.196-0.056-0.369-0.079-0.535
		c-0.015-0.112-0.088-0.217-0.135-0.325c-0.088,0.083-0.216,0.148-0.259,0.249c-0.36,0.849-0.706,1.703-1.051,2.557
		c-0.039,0.095-0.059,0.202-0.063,0.305c-0.026,0.605-0.04,1.21-0.066,1.815c-0.08,1.922-0.144,3.844-0.252,5.764
		c-0.095,1.698-0.264,3.392-0.354,5.09c-0.051,0.973-0.019,1.951-0.005,2.926c0.007,0.517,0.212,0.662,0.63,0.449
		c0.025,0.302,0.032,0.592,0.083,0.874c0.021,0.119,0.136,0.221,0.208,0.331c0.075-0.104,0.181-0.198,0.217-0.314
		c0.062-0.195,0.082-0.404,0.119-0.607c0.099,0.236,0.1,0.483,0.15,0.72c0.028,0.13,0.138,0.242,0.211,0.363
		c0.078-0.121,0.2-0.233,0.226-0.365c0.104-0.527,0.165-1.062,0.269-1.589c0.032-0.158,0.157-0.295,0.24-0.443
		c0.044,0.017,0.088,0.032,0.132,0.047c0.037,0.245,0.059,0.495,0.119,0.733c0.038,0.152,0.134,0.288,0.204,0.431
		c0.102-0.104,0.202-0.208,0.317-0.326c0.011,0.071,0.011,0.149,0.036,0.219c0.074,0.207,0.159,0.41,0.239,0.615
		c0.087-0.202,0.2-0.396,0.252-0.607c0.092-0.372,0.147-0.753,0.217-1.131c0.039,0.002,0.078,0.002,0.118,0.004
		c0.028,0.157,0.062,0.315,0.082,0.474c0.028,0.221,0.03,0.447,0.076,0.664c0.017,0.083,0.123,0.148,0.19,0.22
		c0.059-0.076,0.15-0.144,0.172-0.231c0.076-0.295,0.128-0.597,0.189-0.895c0.068,0.256,0.06,0.509,0.105,0.753
		c0.02,0.114,0.144,0.21,0.22,0.314c0.067-0.097,0.166-0.186,0.195-0.293c0.062-0.227,0.089-0.463,0.129-0.697
		c0.22-1.28,0.512-2.554,0.644-3.844c0.197-1.94,0.287-3.89,0.411-5.837c0.132-2.064,0.268-4.13,0.368-6.197
		c0.075-1.527,0.099-3.058,0.134-4.587C117.856,2.27,117.761,2.16,117.711,2.051z"/>
	<polygon fill="#FFFFFF" points="117.151,36.316 117.153,36.321 117.151,36.316 	"/>
	<rect x="117.151" y="36.316" fill="#FFFFFF" width="0" height="0"/>
	<path fill="#FFFFFF" d="M117.43,33.627c-0.242-1.655-0.111-3.379-0.863-4.943c-0.065-0.133-0.199-0.367-0.245-0.354
		c-0.185,0.052-0.355,0.172-0.517,0.289c-0.118,0.085-0.215,0.201-0.315,0.309c-0.12,0.132-0.267,0.255-0.337,0.411
		c-0.066,0.146-0.049,0.331-0.068,0.499c-0.019-0.034-0.038-0.068-0.057-0.101c-0.384,0.172-0.904,0.245-1.118,0.543
		c-0.24,0.333-0.202,0.869-0.283,1.301c-0.28-0.324-0.578-0.271-0.797,0.151c-0.044,0.083-0.135,0.186-0.216,0.197
		c-0.335,0.046-0.407,0.291-0.448,0.557c-0.051,0.325-0.131,0.656-0.113,0.979c0.088,1.602,0.196,3.203,0.318,4.802
		c0.023,0.308,0.132,0.611,0.221,0.911c0.02,0.067,0.126,0.16,0.183,0.153c0.065-0.008,0.145-0.103,0.172-0.178
		c0.049-0.133,0.063-0.281,0.106-0.493c0.125,0.366,0.218,0.644,0.312,0.92c0.044,0.006,0.087,0.012,0.13,0.018
		c0.231-0.502,0.418-1.022,0.511-1.574c0.107,0.191,0.214,0.382,0.321,0.574c0.039-0.007,0.078-0.015,0.116-0.022
		c0.083-0.205,0.166-0.41,0.255-0.633c0.077,0.158,0.133,0.29,0.204,0.414c0.062,0.11,0.142,0.21,0.213,0.313
		c0.07-0.13,0.187-0.256,0.197-0.392c0.019-0.256,0.069-0.455,0.362-0.532c0.082,0.142,0.16,0.276,0.299,0.521
		c0.103-0.347,0.172-0.579,0.263-0.885c0.08,0.215,0.124,0.364,0.19,0.501c0.035,0.074,0.106,0.173,0.167,0.178
		c0.061,0.005,0.171-0.084,0.188-0.15c0.132-0.53,0.249-1.063,0.37-1.596c-0.016-0.05-0.031-0.1-0.048-0.15
		c0.025,0.011,0.05,0.021,0.076,0.031c-0.009,0.04-0.019,0.079-0.028,0.12c0.001,0.001,0.001,0.003,0.002,0.005
		c0.058,0.182,0.114,0.364,0.187,0.54c0.028,0.068,0.139,0.153,0.197,0.143c0.062-0.012,0.144-0.123,0.15-0.196
		c0.021-0.234,0.032-0.474,0.01-0.708C117.618,35.275,117.55,34.446,117.43,33.627z"/>
	<path fill="#FFFFFF" d="M117.151,36.316c0.009-0.041,0.019-0.079,0.028-0.12C117.17,36.237,117.16,36.276,117.151,36.316
		C117.151,36.316,117.151,36.316,117.151,36.316z"/>
</g>
</svg>
