<?xml version="1.0" encoding="utf-8"?>
<!-- Generator: Adobe Illustrator 17.1.0, SVG Export Plug-In . SVG Version: 6.00 Build 0)  -->
<!DOCTYPE svg PUBLIC "-//W3C//DTD SVG 1.1//EN" "http://www.w3.org/Graphics/SVG/1.1/DTD/svg11.dtd">
<svg version="1.1" id="Calque_1" xmlns="http://www.w3.org/2000/svg" xmlns:xlink="http://www.w3.org/1999/xlink" x="0px" y="0px"
	 viewBox="0 0 709.5 330" enable-background="new 0 0 709.5 330" xml:space="preserve">
<g>
	<path fill="#FFFFFF" d="M339.9,98.833c0.553-0.043,1.065-0.081,1.666-0.127C340.966,98.752,340.453,98.79,339.9,98.833
		L339.9,98.833z"/>
	<rect x="339.9" y="98.833" fill="#FFFFFF" width="0" height="0"/>
	<polygon fill="#FFFFFF" points="339.9,98.833 339.902,98.83 339.9,98.833 	"/>
	<path fill="#FFFFFF" d="M366.206,62.673c-2.25-7.391-3.49-15.023-5.179-22.549c-0.266-1.18-0.507-2.364-0.825-3.527
		c-0.065-0.235-0.605-0.573-0.638-0.542c-0.418,0.38-0.98,0.767-1.112,1.258c-0.176,0.651-0.566,0.737-1.046,0.936
		c-0.29,0.12-0.593,0.445-0.689,0.744c-0.101,0.319,0.037,0.715,0.067,1.055c-0.304,0.135-0.555,0.246-0.851,0.377
		c-0.137-0.376-0.261-0.713-0.405-1.107c0.662-0.153,1.017-0.495,0.923-1.197c-0.024-0.178,0.099-0.428,0.233-0.564
		c0.494-0.508,0.279-1.039,0.048-1.529c-0.258-0.543-0.553-1.089-0.931-1.549c-1.455-1.762-2.913-3.52-4.435-5.221
		c-2.411-2.692-5.12-5.05-8.083-7.105c-0.306-0.211-0.649-0.366-0.975-0.549c-0.052,0.058-0.102,0.117-0.151,0.175
		c0.145,0.22,0.289,0.44,0.451,0.687c-0.849,0.2-0.29,0.531-0.041,0.746c0.753,0.65,1.538,1.263,2.313,1.891
		c-0.032,0.04-0.062,0.081-0.093,0.123c-0.826-0.563-1.651-1.124-2.471-1.683c-0.261,0.287-0.439,0.484-0.695,0.767
		c2.165,1.76,4.337,3.431,6.013,5.623c-1.755-1.521-3.501-3.04-5.626-4.338c0.029,0.376,0.043,0.557,0.058,0.737
		c-0.052,0.028-0.104,0.058-0.157,0.086c-0.297-0.409-0.594-0.818-0.89-1.23c-0.048,0.029-0.096,0.06-0.143,0.088
		c0,0.255,0,0.509,0,0.878c-0.417-0.35-0.826-0.62-1.144-0.973c-1.048-1.162-1.974-2.451-3.115-3.505
		c-0.955-0.881-2.212-1.238-3.568-1.149c-0.695,0.045-1.405-0.055-2.105-0.137c-1.633-0.19-3.027,0.301-4.251,1.39
		c-2.71,2.413-4.073,5.624-5.222,8.958c-0.304,0.883-0.132,1.082,0.78,1.217c0.139,0.02,0.271,0.081,0.419,0.128
		c0.17-0.354,0.315-0.656,0.398-0.827c0.371,0.281,0.733,0.555,1.13,0.856c0.163-0.303,0.272-0.503,0.38-0.704
		c0.098,0.04,0.194,0.08,0.292,0.12c3.163,11.478,6.328,22.954,9.492,34.433c-0.08,0.037-0.16,0.075-0.241,0.113
		c-3.222-10.589-6.186-21.263-9.946-31.748c-1.1,0.829-0.85,1.692-0.527,2.61c0.747,2.131,1.476,4.269,2.168,6.42
		c0.493,1.536,0.914,3.097,1.367,4.647c-0.034,0.01-0.067,0.02-0.101,0.029c-1.356-4.069-2.711-8.139-4.057-12.176
		c-1.025,0.213-1.011,0.781-0.794,1.449c0.106,0.324,0.192,0.655,0.297,0.981c1.488,4.631,3.053,9.236,4.447,13.897
		c1.712,5.723,3.28,11.491,4.911,17.24c0.193,0.684,0.389,1.368,0.569,2.056c0.172,0.654,0.325,1.313,0.488,1.97
		c-3.611-12.032-7.14-24.083-11.348-35.914c-0.212,0.23-0.319,0.595-0.388,0.589c-0.693-0.072-0.466,0.413-0.421,0.718
		c0.052,0.36,0.188,0.71,0.302,1.06c1.432,4.401,2.956,8.774,4.277,13.209c2.368,7.945,4.619,15.928,6.906,23.899
		c1.264,4.403,2.508,8.812,3.753,13.222c0.816,2.889,1.637,5.777,2.41,8.679c0.161,0.605,0.638,0.676,1.038,0.911
		c0.143-0.329,0.283-0.658,0.423-0.988l0,0c0.027-0.051,0.012-0.029,0.002-0.004c0,0-0.001,0.002-0.002,0.004
		c0.553-0.043,1.065-0.081,1.666-0.127c-0.008-0.016,0.034,0.108,0.107,0.209c0.149,0.208,0.314,0.402,0.474,0.603
		c0.049-0.26,0.113-0.517,0.144-0.778c0.049-0.435,0.076-0.871,0.112-1.306c0.778,1.116,0.504,2.519,1.287,3.544
		c0.081-0.012,0.162-0.026,0.245-0.038c0.022-0.379,0.045-0.758,0.072-1.208c0.443,0.219,0.804,0.439,1.191,0.583
		c1.853,0.682,3.705,1.258,5.44-0.306c1.018-0.916,1.77-2.005,2.182-3.318c0.33-1.047,0.633-2.101,0.956-3.176
		c0.723,0.576,0.723,0.576,1.556,0.069c0.134-0.08,0.265-0.173,0.408-0.229c0.601-0.24,0.872-0.594,0.804-1.324
		c-0.072-0.762-0.158-1.689,0.188-2.295c2.406-4.195,4.923-8.327,7.405-12.477c0.098-0.164,0.217-0.315,0.326-0.474
		c0.088,0.031,0.176,0.064,0.264,0.094c-0.083,0.361-0.085,0.77-0.264,1.073c-2.128,3.628-4.286,7.235-6.422,10.858
		c-0.156,0.265-0.608,0.598-0.062,0.915c0.445,0.258,0.804,0.294,1.142-0.283c1.993-3.402,4.027-6.779,6.056-10.161
		c0.087-0.145,0.218-0.279,0.357-0.374c0.199-0.134,0.425-0.228,0.701-0.372c0.052,0.045,0.233,0.199,0.422,0.359
		c0.798-0.789-0.736-1.71,0.081-2.347c0.653,0.361,1.214,0.673,1.862,1.03c0.37-1.167-0.642-2.058-0.559-3.13
		c0.406,0.806,0.811,1.612,1.218,2.416c0.083-0.032,0.165-0.064,0.247-0.096c0.077-0.179,0.153-0.357,0.2-0.469
		c0.228,0.034,0.436,0.066,0.643,0.099c0.024-0.2,0.088-0.408,0.062-0.603c-0.028-0.232-0.133-0.453-0.206-0.679
		C368.87,70.97,367.473,66.842,366.206,62.673z M341.071,30.16c1.474,6.006,2.949,12.012,4.425,18.019
		c-0.062,0.015-0.123,0.03-0.184,0.047c-1.492-6-2.982-12-4.474-18C340.915,30.204,340.993,30.181,341.071,30.16z M339.03,28.182
		c0.16,0.389,0.373,0.764,0.476,1.168c2.08,8.236,4.176,16.47,6.209,24.719c1.375,5.574,2.663,11.172,3.987,16.759
		c0.235,0.989,0.468,1.979,0.593,2.993c-3.465-15.278-8.51-30.151-11.524-45.544C338.858,28.246,338.944,28.215,339.03,28.182z
		 M325.22,30.103c-0.052-0.242-0.219-0.54-0.136-0.718c0.456-0.984,0.972-1.939,1.467-2.903c0.058,0.029,0.114,0.06,0.171,0.091
		c-0.449,1.158-0.898,2.316-1.347,3.476C325.323,30.066,325.271,30.085,325.22,30.103z M327.61,37.15
		c-0.58-1.886-1.16-3.772-1.742-5.657c0.11-0.034,0.22-0.067,0.328-0.1c0.549,1.895,1.098,3.79,1.646,5.685
		C327.764,37.102,327.687,37.127,327.61,37.15z M328.539,40.355c1.455,2.243,12.469,46.443,12.756,51.208
		C336.894,74.529,333.554,57.23,328.539,40.355z M342.777,93.795c-2.729-12.32-5.439-24.645-8.286-36.938
		c-1.165-5.024-2.626-9.98-4.003-14.954c-1.047-3.779-2.159-7.541-3.28-11.3c-0.241-0.81-0.262-1.521,0.397-2.393
		c0.24,0.706,0.458,1.249,0.607,1.81c0.617,2.316,1.189,4.646,1.822,6.956c1.991,7.257,4.165,14.467,5.965,21.772
		c2.274,9.236,4.262,18.545,6.347,27.828c0.605,2.69,1.122,5.399,1.698,8.189C343.301,94.735,342.941,94.54,342.777,93.795z
		 M336.568,56.386c3.418,12.819,6.261,25.798,8.805,38.843c-0.093,0.022-0.185,0.043-0.277,0.063
		c-1.383-6.481-2.734-12.97-4.154-19.444C339.518,69.353,338.028,62.874,336.568,56.386z M343.935,98.535
		c-0.195-0.08-0.266-0.473-0.393-0.723c0.078-0.055,0.157-0.107,0.236-0.161c0.615,0.744,1.9,0.38,2.275,1.543
		C345.345,98.983,344.617,98.813,343.935,98.535z M346.391,95.302c-0.716-3.388-1.384-6.738-2.131-10.068
		c-2.62-11.669-5.174-23.353-7.94-34.986c-1.554-6.53-3.468-12.975-5.24-19.452c-0.367-1.346-0.807-2.674-1.258-3.993
		c-0.134-0.396-0.415-0.741-0.697-1.226c0.145-0.172,0.389-0.462,0.747-0.885c0.068,0.574,0.062,1.013,0.178,1.414
		c0.775,2.686,1.631,5.348,2.36,8.047c2.626,9.732,5.418,19.427,7.762,29.23c2.455,10.269,4.469,20.646,6.671,30.977
		C346.923,94.737,347.06,95.165,346.391,95.302z M338.445,50.479c3.737,14.267,6.831,28.725,9.391,43.301
		C344.702,79.328,341.567,64.874,338.445,50.479z M351.135,86.735c-0.634,1.694-1.323,3.367-1.998,5.044
		c-0.056,0.138-0.155,0.258-0.307,0.507c-2.282-10.762-4.486-21.402-6.805-32.018c-2.325-10.652-4.951-21.23-8.143-31.873
		c1.197,1.056,1.855,2.637,3.682,2.302c0.04-0.184,0.083-0.381,0.148-0.681c0.1,0.229,0.181,0.361,0.215,0.504
		c1.801,7.254,3.586,14.513,5.398,21.766c1.71,6.846,3.512,13.67,5.157,20.532c1.013,4.227,1.813,8.504,2.687,12.764
		C351.245,85.952,351.262,86.393,351.135,86.735z M361.634,76.103c-1.822,3.135-3.676,6.252-5.524,9.371
		c-0.021,0.036-0.088,0.044-0.2,0.098c-0.604-3.075-1.11-6.118-1.809-9.118c-1.438-6.18-2.932-12.348-4.486-18.498
		c-2.006-7.928-4.106-15.831-6.137-23.752c-0.599-2.334-1.095-4.694-1.639-7.043c0.055-0.04,0.11-0.079,0.166-0.118
		c0.749,0.588,1.537,1.131,2.239,1.771c3.779,3.443,7.149,7.238,9.792,11.66c0.28,0.469,0.717,0.839,1.047,1.281
		c0.938,1.256,0.771,2.807,1.04,4.231c1.155,6.104,2.224,12.223,3.388,18.323c0.69,3.619,1.51,7.214,2.245,10.824
		C361.818,75.439,361.786,75.842,361.634,76.103z"/>
	<path fill="#FFFFFF" d="M391.848,19.213c-0.172,0.168-0.405,0.307-0.504,0.512c-0.258,0.53-0.456,1.09-0.678,1.638
		c-0.138-0.256-0.106-0.486-0.146-0.703c-0.05-0.284-0.158-0.558-0.24-0.836c-0.212,0.222-0.506,0.407-0.622,0.672
		c-0.396,0.903-0.731,1.837-1.091,2.758c-0.144-0.46-0.108-0.893-0.158-1.316c-0.027-0.232-0.196-0.448-0.301-0.672
		c-0.179,0.16-0.413,0.287-0.522,0.485c-0.217,0.388-0.364,0.813-0.538,1.223c-0.131-0.474-0.107-0.896-0.144-1.313
		c-0.013-0.145-0.157-0.371-0.27-0.391c-0.129-0.022-0.353,0.108-0.426,0.233c-0.17,0.294-0.274,0.626-0.403,0.943
		c-0.406,1.006-0.81,2.012-1.218,3.019c-0.152-0.517-0.127-0.984-0.164-1.448c-0.019-0.232-0.149-0.456-0.229-0.685
		c-0.193,0.177-0.459,0.316-0.566,0.536c-0.292,0.586-0.517,1.206-0.769,1.812c-0.146-0.393-0.111-0.737-0.158-1.069
		c-0.03-0.225-0.176-0.434-0.271-0.649c-0.177,0.165-0.433,0.295-0.518,0.497c-0.72,1.697-1.412,3.405-2.102,5.114
		c-0.077,0.189-0.118,0.404-0.126,0.61c-0.052,1.211-0.08,2.421-0.133,3.631c-0.159,3.844-0.288,7.688-0.503,11.527
		c-0.189,3.396-0.528,6.784-0.708,10.181c-0.102,1.945-0.038,3.901-0.011,5.853c0.015,1.033,0.424,1.323,1.26,0.897
		c0.051,0.605,0.065,1.185,0.165,1.748c0.042,0.238,0.271,0.442,0.416,0.661c0.149-0.208,0.361-0.396,0.434-0.628
		c0.125-0.39,0.163-0.808,0.237-1.215c0.197,0.473,0.199,0.967,0.3,1.439c0.056,0.26,0.276,0.484,0.423,0.726
		c0.155-0.242,0.4-0.467,0.452-0.73c0.208-1.054,0.329-2.125,0.539-3.179c0.064-0.315,0.314-0.59,0.48-0.886
		c0.089,0.033,0.176,0.063,0.265,0.095c0.074,0.49,0.117,0.989,0.237,1.467c0.076,0.304,0.268,0.576,0.408,0.862
		c0.203-0.209,0.404-0.417,0.634-0.651c0.021,0.142,0.021,0.299,0.072,0.437c0.148,0.413,0.317,0.82,0.478,1.231
		c0.173-0.403,0.399-0.793,0.504-1.214c0.184-0.743,0.294-1.506,0.435-2.262c0.079,0.004,0.156,0.005,0.236,0.008
		c0.056,0.314,0.124,0.63,0.164,0.947c0.056,0.442,0.06,0.894,0.151,1.327c0.034,0.167,0.247,0.295,0.38,0.439
		c0.118-0.152,0.3-0.289,0.344-0.463c0.152-0.59,0.257-1.193,0.379-1.79c0.136,0.513,0.12,1.018,0.21,1.506
		c0.041,0.229,0.287,0.421,0.439,0.629c0.135-0.193,0.332-0.372,0.391-0.587c0.125-0.454,0.178-0.927,0.258-1.394
		c0.44-2.561,1.024-5.107,1.288-7.687c0.394-3.879,0.573-7.78,0.822-11.675c0.265-4.129,0.536-8.261,0.736-12.395
		c0.149-3.054,0.198-6.115,0.268-9.175C392.139,19.649,391.948,19.429,391.848,19.213z"/>
	<polygon fill="#FFFFFF" points="390.729,87.743 390.732,87.753 390.729,87.743 	"/>
	<rect x="390.729" y="87.742" fill="#FFFFFF" width="0.001" height="0"/>
	<path fill="#FFFFFF" d="M391.287,82.363c-0.484-3.311-0.223-6.758-1.727-9.886c-0.129-0.267-0.398-0.733-0.49-0.707
		c-0.369,0.104-0.711,0.345-1.033,0.578c-0.235,0.171-0.431,0.401-0.631,0.618c-0.239,0.264-0.533,0.51-0.675,0.822
		c-0.133,0.292-0.098,0.662-0.136,0.997c-0.038-0.068-0.076-0.136-0.113-0.203c-0.769,0.344-1.809,0.49-2.236,1.086
		c-0.479,0.666-0.404,1.738-0.566,2.603c-0.559-0.647-1.155-0.543-1.594,0.303c-0.088,0.167-0.271,0.372-0.432,0.394
		c-0.67,0.092-0.813,0.581-0.895,1.114c-0.102,0.65-0.263,1.311-0.227,1.957c0.177,3.204,0.393,6.405,0.637,9.604
		c0.047,0.616,0.265,1.222,0.441,1.821c0.04,0.135,0.252,0.319,0.365,0.307c0.13-0.016,0.29-0.206,0.345-0.355
		c0.098-0.267,0.127-0.562,0.213-0.986c0.249,0.732,0.437,1.287,0.624,1.841c0.088,0.013,0.175,0.024,0.261,0.035
		c0.461-1.005,0.836-2.044,1.022-3.147c0.214,0.383,0.428,0.765,0.643,1.147c0.078-0.015,0.155-0.029,0.232-0.044
		c0.165-0.41,0.331-0.819,0.51-1.267c0.154,0.316,0.266,0.58,0.407,0.828c0.124,0.22,0.284,0.42,0.426,0.627
		c0.14-0.26,0.374-0.513,0.395-0.783c0.038-0.512,0.138-0.909,0.725-1.063c0.164,0.283,0.319,0.553,0.599,1.041
		c0.206-0.693,0.345-1.158,0.525-1.769c0.159,0.431,0.248,0.727,0.38,1.002c0.07,0.148,0.212,0.347,0.333,0.356
		c0.121,0.01,0.343-0.168,0.375-0.299c0.265-1.06,0.498-2.127,0.74-3.191c-0.032-0.1-0.062-0.201-0.096-0.301
		c0.05,0.021,0.101,0.041,0.151,0.061c-0.019,0.08-0.038,0.158-0.056,0.239c0.001,0.002,0.002,0.006,0.003,0.01
		c0.115,0.363,0.229,0.728,0.373,1.079c0.056,0.137,0.278,0.307,0.394,0.287c0.124-0.023,0.288-0.246,0.301-0.393
		c0.041-0.469,0.064-0.947,0.02-1.417C391.662,85.66,391.527,84.003,391.287,82.363z"/>
	<path fill="#FFFFFF" d="M390.729,87.743c0.018-0.081,0.037-0.159,0.056-0.239C390.766,87.584,390.747,87.662,390.729,87.743
		C390.729,87.742,390.729,87.742,390.729,87.743z"/>
</g>
<rect x="55.924" y="148.37" fill="none" width="597.651" height="180.213"/>
<text transform="matrix(1 0 0 1 70.5254 174.4834)"><tspan x="0" y="0" fill="#FFFFFF" font-family="'EdoSZ'" font-size="40">Lire pour le plaisir est une des </tspan><tspan x="26.358" y="48" fill="#FFFFFF" font-family="'EdoSZ'" font-size="40">plus importantes activités à </tspan><tspan x="3.291" y="96" fill="#FFFFFF" font-family="'EdoSZ'" font-size="40">laquelle on puisse s’adonner.</tspan></text>
</svg>
